G04*
G04 #@! TF.GenerationSoftware,Altium Limited,Altium Designer,21.4.1 (30)*
G04*
G04 Layer_Color=32896*
%FSLAX25Y25*%
%MOIN*%
G70*
G04*
G04 #@! TF.SameCoordinates,FDA7AB05-C33E-465C-AB53-71C79C1F0B70*
G04*
G04*
G04 #@! TF.FilePolarity,Positive*
G04*
G01*
G75*
%ADD10C,0.00787*%
%ADD11C,0.00591*%
%ADD12C,0.00800*%
%ADD14C,0.00709*%
%ADD105C,0.00984*%
%ADD106C,0.00394*%
%ADD107C,0.00500*%
%ADD108C,0.00100*%
%ADD109C,0.00630*%
%ADD110C,0.00669*%
D10*
X110542Y92039D02*
Y97039D01*
X122353Y92039D02*
Y97039D01*
X110542Y97039D02*
X110542Y97039D01*
X109448D02*
X110542Y97039D01*
X39146Y14460D02*
X39934D01*
X39146Y17609D02*
X39934D01*
X45544Y14460D02*
Y17609D01*
X48720Y124114D02*
X75317Y124114D01*
X48917Y112008D02*
X75317D01*
X53248Y118012D02*
X64961D01*
X68898Y121949D01*
X64961Y118012D02*
X64961D01*
X68898Y114075D01*
X64961Y118012D02*
X71555D01*
X72028Y12693D02*
X89028D01*
X76028Y1193D02*
X83028D01*
Y2693D01*
X76028Y1193D02*
Y2693D01*
X43350Y1193D02*
Y2693D01*
X50350Y1193D02*
Y2693D01*
X43350Y1193D02*
X50350D01*
X39350Y12693D02*
X56350D01*
X65728Y31702D02*
X68452D01*
X65728Y28800D02*
X66187Y29259D01*
X75328D01*
X75990Y29921D01*
X76028D01*
X78228Y28800D02*
X78956Y29528D01*
X82677D01*
X89764Y48030D02*
Y45931D01*
X88714Y44882D01*
X87665Y45931D01*
Y48030D01*
X86615D02*
Y44882D01*
X85041D01*
X84516Y45407D01*
Y47506D01*
X85041Y48030D01*
X86615D01*
X83467D02*
Y44882D01*
X81892D01*
X81367Y45407D01*
Y47506D01*
X81892Y48030D01*
X83467D01*
X57524Y93476D02*
X60148D01*
Y89540D01*
X57524D01*
X60148Y91508D02*
X58836D01*
X56212Y93476D02*
Y89540D01*
X54244D01*
X53588Y90196D01*
Y92820D01*
X54244Y93476D01*
X56212D01*
X52276D02*
Y90196D01*
X51621Y89540D01*
X50309D01*
X49653Y90196D01*
Y93476D01*
X59842Y105155D02*
X58793Y103056D01*
X57744Y105155D01*
X56694Y105679D02*
X56169Y106204D01*
X55120D01*
X54595Y105679D01*
Y103580D01*
X55120Y103056D01*
X56169D01*
X56694Y103580D01*
Y105679D01*
X53545Y103056D02*
Y103580D01*
X53021D01*
Y103056D01*
X53545D01*
X48822D02*
X50921D01*
X48822Y105155D01*
Y105679D01*
X49347Y106204D01*
X50397D01*
X50921Y105679D01*
X47773Y106204D02*
X46723D01*
X47248D01*
Y103056D01*
X47773D01*
X46723D01*
X92913Y43306D02*
X90814D01*
X91864D01*
Y40157D01*
X87666Y42781D02*
X88191Y43306D01*
X89240D01*
X89765Y42781D01*
Y40682D01*
X89240Y40157D01*
X88191D01*
X87666Y40682D01*
X86616Y43306D02*
X84517Y40157D01*
Y43306D02*
X86616Y40157D01*
X81893Y43306D02*
X82943D01*
X83468Y42781D01*
Y40682D01*
X82943Y40157D01*
X81893D01*
X81369Y40682D01*
Y42781D01*
X81893Y43306D01*
X92126Y35433D02*
Y38582D01*
X90552D01*
X90027Y38057D01*
Y37007D01*
X90552Y36483D01*
X92126D01*
X88977Y35433D02*
Y37532D01*
X87928Y38582D01*
X86878Y37532D01*
Y35433D01*
Y37007D01*
X88977D01*
X85829Y35433D02*
X84779D01*
X85304D01*
Y38582D01*
X85829Y38057D01*
X81106Y35433D02*
X83205D01*
X81106Y37532D01*
Y38057D01*
X81631Y38582D01*
X82680D01*
X83205Y38057D01*
X89764Y52230D02*
X89239Y52755D01*
X88190D01*
X87665Y52230D01*
Y51705D01*
X88190Y51181D01*
X88714D01*
X88190D01*
X87665Y50656D01*
Y50131D01*
X88190Y49606D01*
X89239D01*
X89764Y50131D01*
X86615Y52755D02*
Y50656D01*
X85566Y49606D01*
X84516Y50656D01*
Y52755D01*
X83467Y52230D02*
X82942Y52755D01*
X81892D01*
X81367Y52230D01*
Y51705D01*
X81892Y51181D01*
X82417D01*
X81892D01*
X81367Y50656D01*
Y50131D01*
X81892Y49606D01*
X82942D01*
X83467Y50131D01*
X85978Y75879D02*
Y72730D01*
X83878D01*
X82829D02*
X81779D01*
X82304D01*
Y75879D01*
X82829Y75354D01*
X79679Y90638D02*
X80204Y91163D01*
X81253D01*
X81778Y90638D01*
Y88539D01*
X81253Y88014D01*
X80204D01*
X79679Y88539D01*
X78630Y88014D02*
X77580D01*
X78105D01*
Y91163D01*
X78630Y90638D01*
X73907Y88014D02*
X76006D01*
X73907Y90113D01*
Y90638D01*
X74432Y91163D01*
X75481D01*
X76006Y90638D01*
X93286Y4989D02*
X93811Y4464D01*
Y3414D01*
X93286Y2889D01*
X92762D01*
X92237Y3414D01*
Y4464D01*
X91712Y4989D01*
X91187D01*
X90663Y4464D01*
Y3414D01*
X91187Y2889D01*
X93811Y6038D02*
X90663D01*
X91712Y7088D01*
X90663Y8137D01*
X93811D01*
X90663Y11286D02*
Y9187D01*
X92762Y11286D01*
X93286D01*
X93811Y10761D01*
Y9711D01*
X93286Y9187D01*
X60549Y5128D02*
X61074Y4603D01*
Y3554D01*
X60549Y3029D01*
X60024D01*
X59499Y3554D01*
Y4603D01*
X58974Y5128D01*
X58450D01*
X57925Y4603D01*
Y3554D01*
X58450Y3029D01*
X61074Y6177D02*
X57925D01*
X58974Y7227D01*
X57925Y8276D01*
X61074D01*
X57925Y9326D02*
Y10375D01*
Y9851D01*
X61074D01*
X60549Y9326D01*
X92635Y104388D02*
Y101239D01*
Y102813D01*
X90536D01*
Y104388D01*
Y101239D01*
X89487Y104388D02*
X87388D01*
Y103863D01*
X89487Y101764D01*
Y101239D01*
X27288Y119064D02*
Y119806D01*
X28030Y120548D01*
X28772Y120548D01*
X30256Y119064D01*
Y118322D01*
X29514Y117580D01*
X28772Y117580D01*
X28401Y116466D02*
X27659Y115724D01*
X28030Y116095D01*
X25803Y118322D01*
X26545Y118322D01*
Y114611D02*
X25803Y113869D01*
X26174Y114240D01*
X23948Y116466D01*
X24690Y116466D01*
X85564Y115041D02*
X87663D01*
X88712Y116091D01*
X87663Y117140D01*
X85564D01*
X87138D01*
Y115041D01*
X85564Y118190D02*
X88712D01*
X85564Y120289D01*
X88712D01*
X85564Y121338D02*
Y122388D01*
Y121863D01*
X88712D01*
X88187Y121338D01*
X70932Y50546D02*
X71457Y51071D01*
X72507D01*
X73032Y50546D01*
Y50021D01*
X72507Y49496D01*
X71457D01*
X70932Y48972D01*
Y48447D01*
X71457Y47922D01*
X72507D01*
X73032Y48447D01*
X67784Y47922D02*
X69883D01*
X67784Y50021D01*
Y50546D01*
X68309Y51071D01*
X69358D01*
X69883Y50546D01*
X15449Y106372D02*
X18598D01*
Y107947D01*
X18073Y108471D01*
X17023D01*
X16499Y107947D01*
Y106372D01*
Y107422D02*
X15449Y108471D01*
X18598Y111620D02*
Y109521D01*
X17023D01*
X17548Y110570D01*
Y111095D01*
X17023Y111620D01*
X15974D01*
X15449Y111095D01*
Y110046D01*
X15974Y109521D01*
X89855Y32690D02*
X90380Y33215D01*
X91430D01*
X91954Y32690D01*
Y30591D01*
X91430Y30066D01*
X90380D01*
X89855Y30591D01*
X88806Y30066D02*
X87756D01*
X88281D01*
Y33215D01*
X88806Y32690D01*
X86182D02*
X85657Y33215D01*
X84608D01*
X84083Y32690D01*
Y30591D01*
X84608Y30066D01*
X85657D01*
X86182Y30591D01*
Y32690D01*
X71991Y75617D02*
X72516Y76141D01*
X73566D01*
X74090Y75617D01*
Y73518D01*
X73566Y72993D01*
X72516D01*
X71991Y73518D01*
X70942D02*
X70417Y72993D01*
X69367D01*
X68843Y73518D01*
Y75617D01*
X69367Y76141D01*
X70417D01*
X70942Y75617D01*
Y75092D01*
X70417Y74567D01*
X68843D01*
X17066Y46194D02*
X17590Y45669D01*
Y44619D01*
X17066Y44094D01*
X16541D01*
X16016Y44619D01*
Y45669D01*
X15491Y46194D01*
X14966D01*
X14442Y45669D01*
Y44619D01*
X14966Y44094D01*
X14442Y48817D02*
X17590D01*
X16016Y47243D01*
Y49342D01*
X17383Y4897D02*
Y1749D01*
X15808D01*
X15283Y2273D01*
Y4372D01*
X15808Y4897D01*
X17383D01*
X12660Y1749D02*
Y4897D01*
X14234Y3323D01*
X12135D01*
X84067Y14432D02*
Y17580D01*
X82493D01*
X81968Y17056D01*
Y16006D01*
X82493Y15481D01*
X84067D01*
X83018D02*
X81968Y14432D01*
X80919Y14956D02*
X80394Y14432D01*
X79345D01*
X78820Y14956D01*
Y17056D01*
X79345Y17580D01*
X80394D01*
X80919Y17056D01*
Y16531D01*
X80394Y16006D01*
X78820D01*
X109548Y74229D02*
X110073Y73704D01*
Y72654D01*
X109548Y72130D01*
X107449D01*
X106925Y72654D01*
Y73704D01*
X107449Y74229D01*
X106925Y75278D02*
Y76328D01*
Y75803D01*
X110073D01*
X109548Y75278D01*
X87686Y60974D02*
Y64122D01*
X86111D01*
X85586Y63598D01*
Y62548D01*
X86111Y62023D01*
X87686D01*
X86636D02*
X85586Y60974D01*
X82963D02*
Y64122D01*
X84537Y62548D01*
X82438D01*
X87652Y66147D02*
Y69296D01*
X86077D01*
X85553Y68771D01*
Y67721D01*
X86077Y67197D01*
X87652D01*
X86602D02*
X85553Y66147D01*
X82404D02*
X84503D01*
X82404Y68246D01*
Y68771D01*
X82929Y69296D01*
X83978D01*
X84503Y68771D01*
X85728Y54508D02*
Y57657D01*
X84154D01*
X83629Y57132D01*
Y56082D01*
X84154Y55557D01*
X85728D01*
X84679D02*
X83629Y54508D01*
X82580D02*
X81530D01*
X82055D01*
Y57657D01*
X82580Y57132D01*
X72901Y34326D02*
X73426Y34851D01*
X74475D01*
X75000Y34326D01*
Y32227D01*
X74475Y31702D01*
X73426D01*
X72901Y32227D01*
X71851Y34326D02*
X71327Y34851D01*
X70277D01*
X69752Y34326D01*
Y33801D01*
X70277Y33277D01*
X70802D01*
X70277D01*
X69752Y32752D01*
Y32227D01*
X70277Y31702D01*
X71327D01*
X71851Y32227D01*
X80283Y33332D02*
X80808Y33857D01*
X81857D01*
X82382Y33332D01*
Y31233D01*
X81857Y30709D01*
X80808D01*
X80283Y31233D01*
X77134Y30709D02*
X79233D01*
X77134Y32808D01*
Y33332D01*
X77659Y33857D01*
X78708D01*
X79233Y33332D01*
X30073Y29558D02*
X30532Y30017D01*
X31450D01*
X31909Y29558D01*
Y27721D01*
X31450Y27262D01*
X30532D01*
X30073Y27721D01*
X29155Y30017D02*
X27318D01*
Y29558D01*
X29155Y27721D01*
Y27262D01*
X26737Y32655D02*
Y35804D01*
X25162D01*
X24638Y35279D01*
Y34229D01*
X25162Y33705D01*
X26737D01*
X25687D02*
X24638Y32655D01*
X23588Y35279D02*
X23063Y35804D01*
X22014D01*
X21489Y35279D01*
Y34754D01*
X22014Y34229D01*
X22539D01*
X22014D01*
X21489Y33705D01*
Y33180D01*
X22014Y32655D01*
X23063D01*
X23588Y33180D01*
X96668Y94145D02*
X99816D01*
Y95719D01*
X99292Y96244D01*
X98242D01*
X97717Y95719D01*
Y94145D01*
Y95194D02*
X96668Y96244D01*
X99292Y97293D02*
X99816Y97818D01*
Y98867D01*
X99292Y99392D01*
X98767D01*
X98242Y98867D01*
X97717Y99392D01*
X97193D01*
X96668Y98867D01*
Y97818D01*
X97193Y97293D01*
X97717D01*
X98242Y97818D01*
X98767Y97293D01*
X99292D01*
X98242Y97818D02*
Y98867D01*
X90891Y93833D02*
X94040D01*
Y95407D01*
X93515Y95932D01*
X92466D01*
X91941Y95407D01*
Y93833D01*
Y94882D02*
X90891Y95932D01*
X94040Y96981D02*
Y99080D01*
X93515D01*
X91416Y96981D01*
X90891D01*
X89188Y28016D02*
X89713Y28541D01*
X90762D01*
X91287Y28016D01*
Y27491D01*
X90762Y26966D01*
X89713D01*
X89188Y26441D01*
Y25917D01*
X89713Y25392D01*
X90762D01*
X91287Y25917D01*
X88138Y25392D02*
X87089D01*
X87613D01*
Y28541D01*
X88138Y28016D01*
X122014Y86612D02*
X120965D01*
X121489D01*
Y83464D01*
X122014D01*
X120965D01*
X117291Y86088D02*
X117816Y86612D01*
X118866D01*
X119390Y86088D01*
Y83989D01*
X118866Y83464D01*
X117816D01*
X117291Y83989D01*
X116242Y86088D02*
X115717Y86612D01*
X114667D01*
X114143Y86088D01*
Y85563D01*
X114667Y85038D01*
X115192D01*
X114667D01*
X114143Y84513D01*
Y83989D01*
X114667Y83464D01*
X115717D01*
X116242Y83989D01*
D11*
X86630Y13897D02*
Y24297D01*
X91430D01*
Y13897D02*
Y24297D01*
X86630Y13897D02*
X91430D01*
X63055Y37578D02*
X66205Y41417D01*
X20142Y37578D02*
X66205D01*
Y87185D01*
X20142D02*
X66205D01*
X20142Y37578D02*
Y87185D01*
X13353Y25494D02*
X18865D01*
X13353D02*
Y42454D01*
X18865Y25494D02*
Y42454D01*
X13353D02*
X18865D01*
X41431Y34431D02*
X41825Y34038D01*
Y33250D01*
X41431Y32857D01*
X39857D01*
X39463Y33250D01*
Y34038D01*
X39857Y34431D01*
X41825Y36792D02*
X41431Y36005D01*
X40644Y35218D01*
X39857D01*
X39463Y35612D01*
Y36399D01*
X39857Y36792D01*
X40250D01*
X40644Y36399D01*
Y35218D01*
X41441Y25687D02*
X41834Y25293D01*
Y24506D01*
X41441Y24113D01*
X39867D01*
X39473Y24506D01*
Y25293D01*
X39867Y25687D01*
X41834Y28048D02*
Y26474D01*
X40654D01*
X41047Y27261D01*
Y27655D01*
X40654Y28048D01*
X39867D01*
X39473Y27655D01*
Y26868D01*
X39867Y26474D01*
X50022Y16531D02*
X50415Y16924D01*
X51202D01*
X51596Y16531D01*
Y14956D01*
X51202Y14563D01*
X50415D01*
X50022Y14956D01*
X48054Y14563D02*
Y16924D01*
X49235Y15743D01*
X47660D01*
D12*
X30016Y19231D02*
X32116Y21331D01*
X29816Y19231D02*
X30016D01*
X20416D02*
X32116D01*
X20416D02*
Y22231D01*
X32116D01*
Y19231D02*
Y22231D01*
X47000Y31426D02*
Y34826D01*
X48000Y31426D02*
Y34826D01*
X19197Y5079D02*
X31197D01*
X19197Y11079D02*
X31197D01*
X28597Y5079D02*
Y11079D01*
X18759Y116544D02*
Y117944D01*
X15359D02*
X18759D01*
X15359Y116544D02*
Y117944D01*
Y116544D02*
X18759D01*
X33152Y108030D02*
X35556Y110434D01*
X32444Y108738D02*
X34848Y111142D01*
X76264Y81461D02*
X79664D01*
X76264Y82461D02*
X79664D01*
X85100Y81461D02*
Y82461D01*
X82700Y81461D02*
Y82461D01*
Y81461D02*
X85100D01*
X82700Y82461D02*
X85100D01*
X91800Y89169D02*
X95200D01*
Y87769D02*
Y89169D01*
X91800Y87769D02*
X95200D01*
X91800D02*
Y89169D01*
X97800D02*
X101200D01*
Y87769D02*
Y89169D01*
X97800Y87769D02*
X101200D01*
X97800D02*
Y89169D01*
X33796Y31183D02*
Y34583D01*
X35196D01*
Y31183D02*
Y34583D01*
X33796Y31183D02*
X35196D01*
X74873Y54993D02*
Y58393D01*
X73473Y54993D02*
X74873D01*
X73473D02*
Y58393D01*
X74873D01*
X73452Y66447D02*
Y69847D01*
X74852D01*
Y66447D02*
Y69847D01*
X73452Y66447D02*
X74852D01*
X73485Y60774D02*
Y64174D01*
X74885D01*
Y60774D02*
Y64174D01*
X73485Y60774D02*
X74885D01*
X79670Y23997D02*
X83070D01*
Y22597D02*
Y23997D01*
X79670Y22597D02*
X83070D01*
X79670D02*
Y23997D01*
X69714Y81461D02*
X73114D01*
X69714Y82461D02*
X73114D01*
X14800Y19000D02*
X18200D01*
X14800Y20000D02*
X18200D01*
X72335Y24474D02*
Y27874D01*
X73335Y24474D02*
Y27874D01*
X46000Y19426D02*
Y22826D01*
X47000Y19426D02*
Y22826D01*
X60552Y24474D02*
Y27874D01*
X59552Y24474D02*
Y27874D01*
X34179Y25125D02*
X37579D01*
X34179Y24125D02*
X37579D01*
X60552Y31426D02*
Y34826D01*
X59552Y31426D02*
Y34826D01*
X47000Y25426D02*
Y28826D01*
X48000Y25426D02*
Y28826D01*
X106524Y82993D02*
X109924D01*
X106524Y83993D02*
X109924D01*
D14*
X48917Y18236D02*
X48918Y17548D01*
X93164Y82283D02*
X96923Y82283D01*
X93164Y77621D02*
Y82283D01*
X96923Y82283D02*
X103109Y82283D01*
Y78600D02*
Y82283D01*
X48887Y17579D02*
X48918Y17548D01*
X32770Y28700D02*
X33266Y26792D01*
X27653Y34383D02*
X29336Y34302D01*
X106858Y10538D02*
Y13038D01*
X105858Y10500D02*
X106858Y10538D01*
X105858Y8788D02*
Y10500D01*
X104500Y8788D02*
X105858D01*
X104500D02*
Y10500D01*
X103405D02*
X104500D01*
X103405D02*
Y13299D01*
X109350Y10421D02*
Y13220D01*
Y10421D02*
X110445D01*
Y8709D02*
Y10421D01*
Y8709D02*
X111803D01*
Y10421D01*
X112803Y10459D01*
Y12959D01*
X122845Y78600D02*
Y82283D01*
X116659Y82283D02*
X122845Y82283D01*
X112900Y77621D02*
Y82283D01*
X116659Y82283D01*
X34382Y2134D02*
X36129Y5906D01*
Y12250D01*
X109511Y15321D02*
X112660D01*
Y16896D01*
X112135Y17420D01*
X111085D01*
X110561Y16896D01*
Y15321D01*
Y16371D02*
X109511Y17420D01*
X112135Y20569D02*
X112660Y20044D01*
Y18995D01*
X112135Y18470D01*
X111610D01*
X111085Y18995D01*
Y20044D01*
X110561Y20569D01*
X110036D01*
X109511Y20044D01*
Y18995D01*
X110036Y18470D01*
X112660Y21619D02*
Y23718D01*
Y22668D01*
X109511D01*
X106752Y15321D02*
X103604D01*
Y16896D01*
X104129Y17420D01*
X104653D01*
X105178Y16896D01*
Y15321D01*
Y16896D01*
X105703Y17420D01*
X106228D01*
X106752Y16896D01*
Y15321D01*
Y20044D02*
Y18995D01*
X106228Y18470D01*
X104129D01*
X103604Y18995D01*
Y20044D01*
X104129Y20569D01*
X106228D01*
X106752Y20044D01*
Y23193D02*
Y22143D01*
X106228Y21619D01*
X104129D01*
X103604Y22143D01*
Y23193D01*
X104129Y23718D01*
X106228D01*
X106752Y23193D01*
Y24767D02*
Y26866D01*
Y25817D01*
X103604D01*
X15735Y13308D02*
X16195Y13768D01*
X17113D01*
X17572Y13308D01*
Y11472D01*
X17113Y11013D01*
X16195D01*
X15735Y11472D01*
X14817Y13308D02*
X14358Y13768D01*
X13439D01*
X12980Y13308D01*
Y12849D01*
X13439Y12390D01*
X12980Y11931D01*
Y11472D01*
X13439Y11013D01*
X14358D01*
X14817Y11472D01*
Y11931D01*
X14358Y12390D01*
X14817Y12849D01*
Y13308D01*
X14358Y12390D02*
X13439D01*
X23126Y24604D02*
Y25522D01*
Y25063D01*
X20371D01*
Y24604D01*
Y25522D01*
X22667Y28736D02*
X23126Y28277D01*
Y27359D01*
X22667Y26899D01*
X20830D01*
X20371Y27359D01*
Y28277D01*
X20830Y28736D01*
X20371Y31491D02*
Y29654D01*
X22207Y31491D01*
X22667D01*
X23126Y31032D01*
Y30114D01*
X22667Y29654D01*
D105*
X68468Y63956D02*
G03*
X68468Y63956I-492J0D01*
G01*
X41992Y88858D02*
G03*
X41992Y88858I-492J0D01*
G01*
X18960Y67106D02*
G03*
X18960Y67106I-492J0D01*
G01*
X32770Y36417D02*
G03*
X32770Y36417I-492J0D01*
G01*
D106*
X79331Y52362D02*
Y53150D01*
X74213Y52559D02*
X74606Y52953D01*
X74213Y53347D02*
X74606Y52953D01*
X74213Y52559D02*
Y53347D01*
X68602Y47047D02*
X69390D01*
X68602Y46260D02*
Y47047D01*
Y41929D02*
X69390D01*
X68602D02*
Y42717D01*
X74213Y36417D02*
Y37598D01*
Y36417D02*
X75000D01*
X77854D02*
X79232D01*
Y37598D01*
X74213Y52559D02*
X75000Y53347D01*
X75394D01*
X78543Y53150D02*
X79331D01*
X74213Y53347D02*
X75394D01*
D107*
X91349Y106181D02*
X93789D01*
X120384D02*
X122845D01*
Y113311D01*
X91349Y106181D02*
Y113311D01*
D108*
X72228Y108331D02*
X73028D01*
X72128Y108231D02*
X73328D01*
X72028Y108131D02*
X73628D01*
X71828Y108031D02*
X74228D01*
X71728Y107931D02*
X74528D01*
X71528Y107831D02*
X75128D01*
X71428Y107731D02*
X75528D01*
X71328Y107631D02*
X75728D01*
X71128Y107531D02*
X76328D01*
X71028Y107431D02*
X76728D01*
X70828Y107331D02*
X77228D01*
X70728Y107231D02*
X77628D01*
X70528Y107131D02*
X77928D01*
X70428Y107031D02*
X78428D01*
X70228Y106931D02*
X78828D01*
X70228Y106831D02*
X79128D01*
X70028Y106731D02*
X79728D01*
X69828Y106631D02*
X80028D01*
X69728Y106531D02*
X80528D01*
X69528Y106431D02*
X80928D01*
X69428Y106331D02*
X81228D01*
X69228Y106231D02*
X81828D01*
X69228Y106131D02*
X82128D01*
X69028Y106031D02*
X82128D01*
X68928Y105931D02*
X82128D01*
X68728Y105831D02*
X82028D01*
X68628Y105731D02*
X81828D01*
X68428Y105631D02*
X81628D01*
X68328Y105531D02*
X81528D01*
X68128Y105431D02*
X81428D01*
X68028Y105331D02*
X81328D01*
X67928Y105231D02*
X81128D01*
X67728Y105131D02*
X81028D01*
X67628Y105031D02*
X80828D01*
X67428Y104931D02*
X80728D01*
X67328Y104831D02*
X80528D01*
X67228Y104731D02*
X80428D01*
X67028Y104631D02*
X80228D01*
X66928Y104531D02*
X80128D01*
X66828Y104431D02*
X80028D01*
X66628Y104331D02*
X79828D01*
X66528Y104231D02*
X79728D01*
X66328Y104131D02*
X79528D01*
X66228Y104031D02*
X79428D01*
X66128Y103931D02*
X79328D01*
X65928Y103831D02*
X79128D01*
X65828Y103731D02*
X79028D01*
X65728Y103631D02*
X78828D01*
X65728Y103531D02*
X78728D01*
X65928Y103431D02*
X78628D01*
X66428Y103331D02*
X78428D01*
X66828Y103231D02*
X78328D01*
X67228Y103131D02*
X78228D01*
X67628Y103031D02*
X78028D01*
X68028Y102931D02*
X77928D01*
X80828Y102831D02*
X81028D01*
X68528D02*
X77728D01*
X80628Y102731D02*
X81328D01*
X68928D02*
X77628D01*
X80528Y102631D02*
X81628D01*
X69328D02*
X77528D01*
X80328Y102531D02*
X82128D01*
X69728D02*
X77328D01*
X80228Y102431D02*
X82128D01*
X70128D02*
X77228D01*
X80128Y102331D02*
X82128D01*
X70628D02*
X77028D01*
X80028Y102231D02*
X81928D01*
X71028D02*
X76928D01*
X79828Y102131D02*
X81828D01*
X71428D02*
X76828D01*
X79628Y102031D02*
X81628D01*
X71828D02*
X76628D01*
X79528Y101931D02*
X81528D01*
X72228D02*
X76528D01*
X79428Y101831D02*
X81428D01*
X72628D02*
X76428D01*
X79228Y101731D02*
X81228D01*
X73128D02*
X76228D01*
X79128Y101631D02*
X81128D01*
X73528D02*
X76128D01*
X79028Y101531D02*
X80928D01*
X73928D02*
X75928D01*
X78828Y101431D02*
X80828D01*
X74328D02*
X75828D01*
X78728Y101331D02*
X80728D01*
X74728D02*
X75728D01*
X78528Y101231D02*
X80528D01*
X75228D02*
X75528D01*
X78428Y101131D02*
X80428D01*
X78328Y101031D02*
X80328D01*
X78128Y100931D02*
X80128D01*
X78028Y100831D02*
X80028D01*
X77828Y100731D02*
X79828D01*
X77728Y100631D02*
X79728D01*
X77628Y100531D02*
X79628D01*
X77428Y100431D02*
X79428D01*
X77328Y100331D02*
X79328D01*
X77228Y100231D02*
X79228D01*
X51228D02*
X52028D01*
X77028Y100131D02*
X79028D01*
X51228D02*
X52028D01*
X76928Y100031D02*
X78928D01*
X51228D02*
X52028D01*
X76728Y99931D02*
X78728D01*
X56928D02*
X58028D01*
X51228D02*
X52028D01*
X76628Y99831D02*
X78628D01*
X70528D02*
X71928D01*
X67528D02*
X69228D01*
X64028D02*
X66928D01*
X60228D02*
X63728D01*
X56628D02*
X58328D01*
X51228D02*
X52028D01*
X76528Y99731D02*
X78528D01*
X70528D02*
X71928D01*
X67528D02*
X69228D01*
X64028D02*
X66928D01*
X60228D02*
X63728D01*
X56428D02*
X58528D01*
X51228D02*
X52028D01*
X76328Y99631D02*
X78328D01*
X70528D02*
X71928D01*
X67628D02*
X69328D01*
X64028D02*
X66928D01*
X60228D02*
X63728D01*
X56128D02*
X58828D01*
X51228D02*
X52028D01*
X76228Y99531D02*
X78228D01*
X70528D02*
X71928D01*
X67628D02*
X69428D01*
X64028D02*
X66928D01*
X60228D02*
X63728D01*
X56128D02*
X58928D01*
X51228D02*
X52028D01*
X80828Y99431D02*
X81028D01*
X76028D02*
X78028D01*
X70528D02*
X71928D01*
X67728D02*
X69428D01*
X64028D02*
X66928D01*
X60228D02*
X63728D01*
X56128D02*
X59028D01*
X51228D02*
X52028D01*
X80528Y99331D02*
X81528D01*
X75828D02*
X77928D01*
X70528D02*
X71928D01*
X67828D02*
X69628D01*
X64028D02*
X66928D01*
X60228D02*
X63728D01*
X56128D02*
X59128D01*
X51228D02*
X52028D01*
X80528Y99231D02*
X81828D01*
X75828D02*
X77828D01*
X70528D02*
X71928D01*
X67928D02*
X69628D01*
X64028D02*
X66928D01*
X60228D02*
X63728D01*
X56128D02*
X59228D01*
X51228D02*
X52028D01*
X80328Y99131D02*
X82128D01*
X75528D02*
X77628D01*
X70528D02*
X71928D01*
X68028D02*
X69728D01*
X64028D02*
X66928D01*
X60228D02*
X63728D01*
X56128D02*
X59428D01*
X51228D02*
X52028D01*
X80228Y99031D02*
X82128D01*
X75528D02*
X77528D01*
X70528D02*
X71928D01*
X68128D02*
X69828D01*
X64028D02*
X66928D01*
X60228D02*
X63728D01*
X57928D02*
X59428D01*
X56128D02*
X57028D01*
X51228D02*
X52028D01*
X80028Y98931D02*
X82028D01*
X75328D02*
X77328D01*
X70528D02*
X71928D01*
X68128D02*
X69928D01*
X64028D02*
X66928D01*
X60228D02*
X63728D01*
X58228D02*
X59528D01*
X56128D02*
X56828D01*
X51228D02*
X52028D01*
X79928Y98831D02*
X81828D01*
X75328D02*
X77228D01*
X70528D02*
X71928D01*
X68228D02*
X69928D01*
X64028D02*
X66928D01*
X60228D02*
X63728D01*
X58428D02*
X59628D01*
X56128D02*
X56528D01*
X51228D02*
X52028D01*
X79728Y98731D02*
X81828D01*
X75328D02*
X77128D01*
X70528D02*
X71928D01*
X68328D02*
X70028D01*
X64028D02*
X66928D01*
X60228D02*
X63728D01*
X58528D02*
X59728D01*
X56128D02*
X56428D01*
X51228D02*
X52028D01*
X79628Y98631D02*
X81628D01*
X75328D02*
X76928D01*
X70528D02*
X71928D01*
X68428D02*
X70128D01*
X65528D02*
X66928D01*
X61328D02*
X62728D01*
X58628D02*
X59728D01*
X51228D02*
X52028D01*
X79528Y98531D02*
X81428D01*
X75328D02*
X76828D01*
X70528D02*
X71928D01*
X68528D02*
X70228D01*
X65528D02*
X66928D01*
X61328D02*
X62728D01*
X58728D02*
X59828D01*
X51228D02*
X52028D01*
X79328Y98431D02*
X81328D01*
X75328D02*
X76628D01*
X70528D02*
X71928D01*
X68628D02*
X70228D01*
X65528D02*
X66928D01*
X61328D02*
X62728D01*
X58828D02*
X59828D01*
X51228D02*
X52028D01*
X79228Y98331D02*
X81128D01*
X75328D02*
X76528D01*
X70528D02*
X71928D01*
X68628D02*
X70328D01*
X65528D02*
X66928D01*
X61328D02*
X62728D01*
X58928D02*
X59928D01*
X51228D02*
X52028D01*
X79028Y98231D02*
X81028D01*
X75328D02*
X76328D01*
X70528D02*
X71928D01*
X68728D02*
X70428D01*
X65528D02*
X66928D01*
X61328D02*
X62728D01*
X58928D02*
X59928D01*
X51228D02*
X52028D01*
X78928Y98131D02*
X80928D01*
X75328D02*
X76228D01*
X68828D02*
X71928D01*
X65528D02*
X66928D01*
X61328D02*
X62728D01*
X59028D02*
X59928D01*
X51228D02*
X52028D01*
X50028D02*
X50528D01*
X46528D02*
X47028D01*
X78728Y98031D02*
X80728D01*
X75328D02*
X76028D01*
X68928D02*
X71928D01*
X65528D02*
X66928D01*
X61328D02*
X62728D01*
X59028D02*
X59928D01*
X54628D02*
X55528D01*
X52728D02*
X53628D01*
X51228D02*
X52028D01*
X49628D02*
X50928D01*
X46028D02*
X47528D01*
X78728Y97931D02*
X80628D01*
X75328D02*
X76028D01*
X68928D02*
X71928D01*
X64128D02*
X66928D01*
X61328D02*
X62728D01*
X59128D02*
X59928D01*
X54628D02*
X55528D01*
X52728D02*
X53628D01*
X51228D02*
X52028D01*
X49428D02*
X51028D01*
X45928D02*
X47728D01*
X78428Y97831D02*
X80528D01*
X75328D02*
X75828D01*
X69128D02*
X71928D01*
X64128D02*
X66928D01*
X61328D02*
X62728D01*
X59128D02*
X60028D01*
X54628D02*
X55528D01*
X52728D02*
X53628D01*
X49328D02*
X52028D01*
X45728D02*
X47828D01*
X78328Y97731D02*
X80328D01*
X75328D02*
X75628D01*
X69228D02*
X71928D01*
X64128D02*
X66928D01*
X61328D02*
X62728D01*
X59128D02*
X60028D01*
X54628D02*
X55528D01*
X52728D02*
X53628D01*
X49228D02*
X52028D01*
X45728D02*
X47928D01*
X78228Y97631D02*
X80228D01*
X75328D02*
X75528D01*
X69228D02*
X71928D01*
X64128D02*
X66928D01*
X61328D02*
X62728D01*
X59128D02*
X60028D01*
X54628D02*
X55528D01*
X52728D02*
X53628D01*
X49128D02*
X52028D01*
X45628D02*
X48028D01*
X78028Y97531D02*
X80028D01*
X69328D02*
X71928D01*
X64128D02*
X66928D01*
X61328D02*
X62728D01*
X59128D02*
X60028D01*
X54628D02*
X55528D01*
X52728D02*
X53628D01*
X49028D02*
X52028D01*
X45528D02*
X48128D01*
X77928Y97431D02*
X79928D01*
X69228D02*
X71928D01*
X64128D02*
X66928D01*
X61328D02*
X62728D01*
X59128D02*
X60028D01*
X54628D02*
X55528D01*
X52728D02*
X53628D01*
X49028D02*
X52028D01*
X45428D02*
X48128D01*
X77828Y97331D02*
X79828D01*
X69228D02*
X71928D01*
X64128D02*
X66928D01*
X61328D02*
X62728D01*
X59128D02*
X60028D01*
X54628D02*
X55528D01*
X52728D02*
X53628D01*
X50628D02*
X52028D01*
X48928D02*
X50228D01*
X47028D02*
X48228D01*
X45428D02*
X46628D01*
X77628Y97231D02*
X79628D01*
X69128D02*
X71928D01*
X64128D02*
X66928D01*
X61328D02*
X62728D01*
X59128D02*
X60028D01*
X54628D02*
X55528D01*
X52728D02*
X53628D01*
X50928D02*
X52028D01*
X48928D02*
X50028D01*
X47228D02*
X48228D01*
X45428D02*
X46328D01*
X77528Y97131D02*
X79528D01*
X69028D02*
X71928D01*
X64128D02*
X66928D01*
X61328D02*
X62728D01*
X59128D02*
X60028D01*
X54628D02*
X55528D01*
X52728D02*
X53628D01*
X51028D02*
X52028D01*
X48928D02*
X49928D01*
X47328D02*
X48228D01*
X45428D02*
X46228D01*
X77328Y97031D02*
X79328D01*
X68928D02*
X71928D01*
X64128D02*
X66928D01*
X61328D02*
X62728D01*
X59128D02*
X60028D01*
X54628D02*
X55528D01*
X52728D02*
X53628D01*
X51028D02*
X52028D01*
X48928D02*
X49828D01*
X47328D02*
X48328D01*
X45328D02*
X46228D01*
X77228Y96931D02*
X79228D01*
X68928D02*
X71928D01*
X64128D02*
X66928D01*
X61328D02*
X62728D01*
X59128D02*
X60028D01*
X54628D02*
X55528D01*
X52728D02*
X53628D01*
X51128D02*
X52028D01*
X48828D02*
X49728D01*
X45328D02*
X48328D01*
X77128Y96831D02*
X79128D01*
X68828D02*
X71928D01*
X64128D02*
X66928D01*
X61328D02*
X62728D01*
X59128D02*
X59928D01*
X54628D02*
X55528D01*
X52728D02*
X53628D01*
X51128D02*
X52028D01*
X48828D02*
X49728D01*
X45328D02*
X48328D01*
X76928Y96731D02*
X78928D01*
X68728D02*
X71928D01*
X65528D02*
X66928D01*
X61328D02*
X62728D01*
X59028D02*
X59928D01*
X54628D02*
X55528D01*
X52728D02*
X53628D01*
X51228D02*
X52028D01*
X48828D02*
X49728D01*
X45328D02*
X48328D01*
X76828Y96631D02*
X78828D01*
X70528D02*
X71928D01*
X68628D02*
X70428D01*
X65528D02*
X66928D01*
X61328D02*
X62728D01*
X59028D02*
X59928D01*
X54628D02*
X55528D01*
X52728D02*
X53628D01*
X51228D02*
X52028D01*
X48828D02*
X49728D01*
X45328D02*
X48328D01*
X76728Y96531D02*
X78728D01*
X70528D02*
X71928D01*
X68528D02*
X70328D01*
X65528D02*
X66928D01*
X61328D02*
X62728D01*
X58928D02*
X59928D01*
X54628D02*
X55528D01*
X52728D02*
X53628D01*
X51228D02*
X52028D01*
X48828D02*
X49728D01*
X45328D02*
X48328D01*
X76528Y96431D02*
X78528D01*
X70528D02*
X71928D01*
X68428D02*
X70228D01*
X65528D02*
X66928D01*
X61328D02*
X62728D01*
X58928D02*
X59928D01*
X54628D02*
X55528D01*
X52728D02*
X53628D01*
X51228D02*
X52028D01*
X48828D02*
X49728D01*
X45328D02*
X48328D01*
X76428Y96331D02*
X78428D01*
X70528D02*
X71928D01*
X68428D02*
X70228D01*
X65528D02*
X66928D01*
X61328D02*
X62728D01*
X58828D02*
X59828D01*
X54628D02*
X55528D01*
X52728D02*
X53628D01*
X51228D02*
X52028D01*
X48828D02*
X49728D01*
X45328D02*
X48328D01*
X76228Y96231D02*
X78228D01*
X70528D02*
X71928D01*
X68328D02*
X70028D01*
X65528D02*
X66928D01*
X61328D02*
X62728D01*
X58728D02*
X59828D01*
X54628D02*
X55528D01*
X52728D02*
X53628D01*
X51228D02*
X52028D01*
X48828D02*
X49728D01*
X47428D02*
X48328D01*
X76128Y96131D02*
X78128D01*
X70528D02*
X71928D01*
X68228D02*
X70028D01*
X65528D02*
X66928D01*
X61328D02*
X62728D01*
X58628D02*
X59728D01*
X56128D02*
X56328D01*
X54628D02*
X55528D01*
X52728D02*
X53628D01*
X51128D02*
X52028D01*
X48828D02*
X49728D01*
X47428D02*
X48328D01*
X45728D02*
X46028D01*
X76028Y96031D02*
X78028D01*
X70528D02*
X71928D01*
X68128D02*
X69928D01*
X64028D02*
X66928D01*
X61328D02*
X62728D01*
X58528D02*
X59728D01*
X56128D02*
X56428D01*
X54628D02*
X55528D01*
X52828D02*
X53628D01*
X51128D02*
X52028D01*
X48828D02*
X49728D01*
X47328D02*
X48328D01*
X45628D02*
X46128D01*
X75828Y95931D02*
X77828D01*
X70528D02*
X71928D01*
X68028D02*
X69828D01*
X64028D02*
X66928D01*
X61328D02*
X62728D01*
X58428D02*
X59628D01*
X56128D02*
X56628D01*
X54628D02*
X55528D01*
X52828D02*
X53628D01*
X51028D02*
X52028D01*
X48928D02*
X49828D01*
X47328D02*
X48328D01*
X45428D02*
X46228D01*
X75728Y95831D02*
X77728D01*
X70528D02*
X71928D01*
X67928D02*
X69728D01*
X64028D02*
X66928D01*
X61328D02*
X62728D01*
X58228D02*
X59528D01*
X56128D02*
X56828D01*
X54528D02*
X55528D01*
X52828D02*
X53728D01*
X51028D02*
X52028D01*
X48928D02*
X49928D01*
X47328D02*
X48228D01*
X45228D02*
X46228D01*
X75528Y95731D02*
X77528D01*
X70528D02*
X71928D01*
X67928D02*
X69728D01*
X64028D02*
X66928D01*
X61328D02*
X62728D01*
X57928D02*
X59428D01*
X56128D02*
X57028D01*
X54428D02*
X55428D01*
X52828D02*
X53728D01*
X50828D02*
X52028D01*
X48928D02*
X50028D01*
X47128D02*
X48228D01*
X45228D02*
X46328D01*
X75428Y95631D02*
X77428D01*
X70528D02*
X71928D01*
X67828D02*
X69628D01*
X64028D02*
X66928D01*
X61328D02*
X62728D01*
X56128D02*
X59428D01*
X54228D02*
X55428D01*
X52828D02*
X54028D01*
X50528D02*
X52028D01*
X48928D02*
X50328D01*
X46928D02*
X48128D01*
X45328D02*
X46628D01*
X75328Y95531D02*
X77328D01*
X70528D02*
X71928D01*
X67728D02*
X69528D01*
X64028D02*
X66928D01*
X61328D02*
X62728D01*
X56128D02*
X59328D01*
X52828D02*
X55428D01*
X49028D02*
X52028D01*
X45428D02*
X48128D01*
X75328Y95431D02*
X77128D01*
X70528D02*
X71928D01*
X67628D02*
X69428D01*
X64028D02*
X66928D01*
X61328D02*
X62728D01*
X56128D02*
X59128D01*
X52928D02*
X55328D01*
X49128D02*
X52028D01*
X45428D02*
X48028D01*
X75328Y95331D02*
X77028D01*
X70528D02*
X71928D01*
X67528D02*
X69428D01*
X64028D02*
X66928D01*
X61328D02*
X62728D01*
X56128D02*
X59128D01*
X53028D02*
X55228D01*
X49128D02*
X52028D01*
X45528D02*
X48028D01*
X75328Y95231D02*
X76828D01*
X70528D02*
X71928D01*
X67528D02*
X69328D01*
X64028D02*
X66928D01*
X61328D02*
X62728D01*
X56128D02*
X58928D01*
X53028D02*
X55228D01*
X49228D02*
X52028D01*
X45628D02*
X47928D01*
X75328Y95131D02*
X76728D01*
X70528D02*
X71928D01*
X67328D02*
X69228D01*
X64028D02*
X66928D01*
X61328D02*
X62728D01*
X56228D02*
X58728D01*
X53128D02*
X55028D01*
X49428D02*
X52028D01*
X45728D02*
X47728D01*
X75328Y95031D02*
X76528D01*
X70528D02*
X71928D01*
X67328D02*
X69228D01*
X64028D02*
X66928D01*
X61328D02*
X62728D01*
X56428D02*
X58628D01*
X53328D02*
X54928D01*
X51228D02*
X52028D01*
X49528D02*
X51028D01*
X45928D02*
X47628D01*
X75328Y94931D02*
X76428D01*
X70628D02*
X71828D01*
X67428D02*
X69028D01*
X64128D02*
X66828D01*
X61428D02*
X62628D01*
X56728D02*
X58328D01*
X53528D02*
X54728D01*
X51228D02*
X51928D01*
X49728D02*
X50828D01*
X46128D02*
X47428D01*
X75328Y94831D02*
X76328D01*
X57128D02*
X57828D01*
X53828D02*
X54428D01*
X50028D02*
X50528D01*
X46428D02*
X47128D01*
X75328Y94731D02*
X76228D01*
X75328Y94631D02*
X76028D01*
X75328Y94531D02*
X75928D01*
X75328Y94431D02*
X75728D01*
X75328Y94331D02*
X75628D01*
D109*
X67634Y2985D02*
X66060D01*
X66847D01*
Y624D01*
X65273D02*
Y2985D01*
X64092D01*
X63698Y2592D01*
Y1805D01*
X64092Y1411D01*
X65273D01*
X62911Y624D02*
X62124D01*
X62518D01*
Y2985D01*
X62911Y2592D01*
D110*
X33240Y3631D02*
Y876D01*
X31862D01*
X31403Y1335D01*
Y3172D01*
X31862Y3631D01*
X33240D01*
X30485D02*
X28648D01*
Y3172D01*
X30485Y1335D01*
Y876D01*
M02*
