G04*
G04 #@! TF.GenerationSoftware,Altium Limited,Altium Designer,21.4.1 (30)*
G04*
G04 Layer_Physical_Order=1*
G04 Layer_Color=255*
%FSLAX25Y25*%
%MOIN*%
G70*
G04*
G04 #@! TF.SameCoordinates,FDA7AB05-C33E-465C-AB53-71C79C1F0B70*
G04*
G04*
G04 #@! TF.FilePolarity,Positive*
G04*
G01*
G75*
%ADD10C,0.00787*%
%ADD12C,0.00800*%
%ADD15C,0.01000*%
%ADD16R,0.03150X0.03150*%
%ADD17C,0.03150*%
%ADD18R,0.04000X0.05591*%
%ADD25C,0.05512*%
%ADD31C,0.01575*%
%ADD32C,0.02000*%
%ADD33C,0.01500*%
%ADD34C,0.03150*%
%ADD35C,0.03937*%
%ADD36R,0.04000X0.05762*%
%ADD37R,0.04000X0.05153*%
%ADD38R,0.04000X0.04962*%
%ADD39O,0.04000X0.04724*%
%ADD40R,0.04000X0.04724*%
%ADD41C,0.05500*%
%ADD42R,0.05500X0.05500*%
%ADD43C,0.02362*%
G36*
X124379Y109744D02*
X106601D01*
Y95302D01*
X105801Y94875D01*
X105717Y94931D01*
X105026Y95068D01*
X104335Y94931D01*
X103749Y94539D01*
X103357Y93953D01*
X103220Y93262D01*
X103357Y92571D01*
X103749Y91984D01*
X104023Y91802D01*
Y88493D01*
X104057Y88321D01*
X103699Y87757D01*
X103493Y87576D01*
X102906Y87459D01*
X102320Y87068D01*
X101928Y86482D01*
X101791Y85790D01*
X101928Y85099D01*
X101975Y85029D01*
Y81284D01*
X101733Y80585D01*
X101175Y80585D01*
X95451D01*
X95052Y80585D01*
X94651Y81218D01*
Y82950D01*
X99740Y88039D01*
X100218Y88755D01*
X100386Y89600D01*
Y99767D01*
X100561Y99942D01*
X101040Y100658D01*
X101208Y101503D01*
X101040Y102348D01*
X100561Y103064D01*
X99845Y103543D01*
X99000Y103711D01*
X98155Y103543D01*
X97439Y103064D01*
X96618Y102243D01*
X96139Y101526D01*
X95971Y100681D01*
Y100054D01*
X95237Y99603D01*
X95171Y99603D01*
X94529Y99731D01*
X93838Y99593D01*
X93252Y99202D01*
X92860Y98615D01*
X92723Y97924D01*
X92809Y97488D01*
X92301Y96815D01*
X92258Y96782D01*
X91567Y96645D01*
X90981Y96253D01*
X90589Y95667D01*
X90452Y94976D01*
X90589Y94285D01*
X90891Y93833D01*
Y91905D01*
X86061Y87074D01*
X85765Y86631D01*
X85661Y86108D01*
Y52861D01*
X84784Y51985D01*
X84427Y52028D01*
X83871Y52203D01*
X83556Y52673D01*
X82970Y53065D01*
X82279Y53202D01*
X81956Y53138D01*
X81450Y53645D01*
X81124Y53862D01*
X80740Y53939D01*
X79453D01*
X78703Y54689D01*
X78824Y55363D01*
X78967Y55556D01*
X79258Y55561D01*
X79742Y55238D01*
X80433Y55100D01*
X81124Y55238D01*
X81710Y55629D01*
X82102Y56215D01*
X82239Y56907D01*
X82102Y57598D01*
X81710Y58184D01*
X81124Y58576D01*
X80433Y58713D01*
X79742Y58576D01*
X79156Y58184D01*
X78973Y57910D01*
X77706D01*
X76446Y59170D01*
X76120Y59388D01*
X75736Y59464D01*
X43975D01*
X28689Y74750D01*
X28753Y75073D01*
X28616Y75764D01*
X28954Y76504D01*
X29041Y76568D01*
X29276Y76513D01*
X29431Y76282D01*
X30017Y75890D01*
X30709Y75753D01*
X31400Y75890D01*
X31986Y76282D01*
X32377Y76868D01*
X32515Y77559D01*
X32377Y78250D01*
X31986Y78836D01*
X31400Y79228D01*
X30709Y79365D01*
X30017Y79228D01*
X29664Y78992D01*
X29460Y79032D01*
X24486D01*
X24102Y78956D01*
X23777Y78738D01*
X19656Y74618D01*
X18917Y74924D01*
Y75306D01*
X18841Y75690D01*
X18623Y76016D01*
X16961Y77678D01*
X16635Y77896D01*
X16251Y77972D01*
X14943D01*
X11829Y81086D01*
X11942Y81756D01*
X12058Y81988D01*
X12557Y82321D01*
X12948Y82907D01*
X13086Y83598D01*
X13047Y83793D01*
X14237Y84984D01*
X14237Y84984D01*
X14479Y85345D01*
X14563Y85770D01*
Y85963D01*
X15051Y86289D01*
X15442Y86875D01*
X15580Y87567D01*
X15442Y88258D01*
X15051Y88844D01*
X14465Y89235D01*
X13773Y89373D01*
X13082Y89235D01*
X12496Y88844D01*
X12105Y88258D01*
X11967Y87567D01*
X12105Y86875D01*
X12339Y86524D01*
Y86231D01*
X11958Y85849D01*
X11746Y85807D01*
X11418Y85589D01*
X10780Y86052D01*
X10739Y86113D01*
X10847Y86372D01*
X10961Y87244D01*
X10847Y88116D01*
X10510Y88929D01*
X9975Y89627D01*
X9277Y90162D01*
X8464Y90499D01*
X7592Y90614D01*
X6720Y90499D01*
X5907Y90162D01*
X5210Y89627D01*
X4674Y88929D01*
X4338Y88116D01*
X4223Y87244D01*
X4338Y86372D01*
X4674Y85560D01*
X5210Y84862D01*
X5907Y84326D01*
X6720Y83990D01*
X6994Y83954D01*
Y83499D01*
X7070Y83115D01*
X7287Y82789D01*
X8757Y81320D01*
X8383Y80562D01*
X7992Y80614D01*
X7120Y80499D01*
X6307Y80162D01*
X5610Y79627D01*
X5074Y78929D01*
X4737Y78116D01*
X4623Y77244D01*
X4737Y76372D01*
X5074Y75560D01*
X5610Y74862D01*
X6307Y74326D01*
X7120Y73990D01*
X7992Y73875D01*
X8864Y73990D01*
X9677Y74326D01*
X10374Y74862D01*
X10910Y75560D01*
X11133Y76097D01*
X11929Y76181D01*
X14002Y74108D01*
X14079Y73718D01*
X14471Y73132D01*
X14777Y72927D01*
X14983Y72002D01*
X12086Y69104D01*
X11868Y68779D01*
X11792Y68394D01*
Y59615D01*
X10992Y59344D01*
X10775Y59627D01*
X10077Y60162D01*
X9264Y60499D01*
X8392Y60614D01*
X7520Y60499D01*
X6707Y60162D01*
X6010Y59627D01*
X5474Y58929D01*
X5138Y58116D01*
X5023Y57244D01*
X5138Y56372D01*
X5474Y55560D01*
X6010Y54862D01*
X6707Y54326D01*
X7520Y53990D01*
X8392Y53875D01*
X9264Y53990D01*
X10077Y54326D01*
X10775Y54862D01*
X10992Y55145D01*
X11792Y54873D01*
Y45059D01*
X11868Y44675D01*
X12086Y44350D01*
X18458Y37978D01*
X18394Y37655D01*
X18531Y36963D01*
X18923Y36377D01*
X19509Y35986D01*
X20200Y35848D01*
X20891Y35986D01*
X21477Y36377D01*
X21869Y36963D01*
X22006Y37655D01*
X21869Y38346D01*
X21477Y38932D01*
X20891Y39323D01*
X20200Y39461D01*
X19877Y39397D01*
X13799Y45475D01*
Y61029D01*
X14599Y61457D01*
X14663Y61414D01*
X15354Y61276D01*
X16046Y61414D01*
X16632Y61805D01*
X17023Y62391D01*
X17161Y63083D01*
X17023Y63774D01*
X16632Y64360D01*
X16046Y64751D01*
X15354Y64889D01*
X15177Y65035D01*
Y67300D01*
X24551Y76674D01*
X24947Y76687D01*
X25140Y76456D01*
X25293Y75787D01*
X25278Y75764D01*
X25141Y75073D01*
X25278Y74382D01*
X25670Y73795D01*
X26256Y73404D01*
X26499Y73356D01*
Y72540D01*
X26474Y72535D01*
X25888Y72143D01*
X25496Y71557D01*
X25359Y70866D01*
X25496Y70175D01*
X25888Y69589D01*
X26474Y69197D01*
X27165Y69060D01*
X27857Y69197D01*
X28443Y69589D01*
X29266Y69385D01*
X42279Y56373D01*
X42604Y56156D01*
X42988Y56079D01*
X74474D01*
X78328Y52225D01*
X78654Y52008D01*
X79037Y51932D01*
X79790D01*
X80473Y51396D01*
X80610Y50705D01*
X81002Y50118D01*
X81472Y49804D01*
X81647Y49248D01*
X81690Y48891D01*
X73520Y40720D01*
X73230Y40778D01*
X72539Y40641D01*
X71953Y40249D01*
X71561Y39663D01*
X71424Y38972D01*
X71457Y38806D01*
X70841Y38113D01*
X70841Y38113D01*
X70150Y37976D01*
X69564Y37584D01*
X69512Y37506D01*
X68476Y37279D01*
X68472Y37280D01*
X68255Y37441D01*
Y43603D01*
X68523Y43782D01*
X68914Y44368D01*
X69052Y45059D01*
X68914Y45750D01*
X68523Y46336D01*
X67937Y46728D01*
X67246Y46865D01*
X66554Y46728D01*
X65968Y46336D01*
X65577Y45750D01*
X65439Y45059D01*
X65577Y44368D01*
X65968Y43782D01*
X66236Y43603D01*
Y36219D01*
X66312Y35833D01*
X66531Y35505D01*
X77541Y24495D01*
X77240Y24044D01*
X77103Y23353D01*
X77133Y23199D01*
X76407Y22748D01*
X76306Y22825D01*
X75676Y23086D01*
X75000Y23175D01*
X74324Y23086D01*
X73765Y22854D01*
X70985Y25634D01*
X70660Y25852D01*
X70276Y25928D01*
X60360D01*
X59268Y27020D01*
X59663Y27757D01*
X59842Y27721D01*
X60534Y27859D01*
X61120Y28250D01*
X61511Y28836D01*
X61649Y29528D01*
X61511Y30219D01*
X61120Y30805D01*
X60534Y31196D01*
X59842Y31334D01*
X59588Y31283D01*
X58788Y31791D01*
Y31791D01*
X54457D01*
Y28070D01*
X52292D01*
Y31791D01*
X47961D01*
Y30630D01*
X43713D01*
X42649Y31694D01*
X42650Y31702D01*
X42513Y32394D01*
X42121Y32980D01*
X41535Y33371D01*
X40844Y33509D01*
X40482Y33437D01*
X39682Y33946D01*
Y44254D01*
X39605Y44641D01*
X39386Y44969D01*
X35641Y48714D01*
X35313Y48933D01*
X34927Y49010D01*
X30627D01*
X29744Y49893D01*
X29806Y50209D01*
X29669Y50900D01*
X29277Y51486D01*
X28691Y51877D01*
X28000Y52015D01*
X27309Y51877D01*
X26723Y51486D01*
X26331Y50900D01*
X26194Y50209D01*
X26331Y49517D01*
X26723Y48931D01*
X27309Y48540D01*
X27552Y48491D01*
X27694Y48291D01*
X27712Y48164D01*
X27447Y47258D01*
X27218Y47106D01*
X27003Y46783D01*
X26482D01*
X26096Y46707D01*
X25768Y46488D01*
X23109Y43828D01*
X22835Y43883D01*
X22143Y43746D01*
X21557Y43354D01*
X21166Y42768D01*
X21028Y42077D01*
X21166Y41385D01*
X21557Y40799D01*
X22143Y40408D01*
X22835Y40270D01*
X23526Y40408D01*
X24112Y40799D01*
X24503Y41385D01*
X24641Y42077D01*
X24570Y42433D01*
X26429Y44292D01*
X27218Y44551D01*
X27804Y44159D01*
X28495Y44022D01*
X29187Y44159D01*
X29773Y44551D01*
X30060Y44982D01*
X30422Y45053D01*
X30588D01*
X30949Y44982D01*
X31237Y44551D01*
X31823Y44159D01*
X32514Y44022D01*
X32648Y43888D01*
X32576Y43525D01*
X32713Y42834D01*
X33105Y42248D01*
X33691Y41856D01*
X34382Y41719D01*
X34814Y40989D01*
Y27972D01*
X34890Y27588D01*
X35108Y27262D01*
X37923Y24447D01*
X38248Y24230D01*
X38632Y24153D01*
X45015D01*
X45567Y23601D01*
X45893Y23384D01*
X46277Y23307D01*
X51674D01*
X52409Y23153D01*
Y20317D01*
X52361Y20200D01*
Y14609D01*
X41876D01*
X33017Y23469D01*
X32300Y23947D01*
X31455Y24115D01*
X30611Y23947D01*
X29894Y23469D01*
X29416Y22752D01*
X29248Y21907D01*
X29416Y21063D01*
X29894Y20346D01*
X39400Y10840D01*
X40117Y10362D01*
X40962Y10194D01*
X60805D01*
X61650Y10362D01*
X61748Y10428D01*
X62728D01*
X63000Y9628D01*
X62613Y9331D01*
X62077Y8632D01*
X61740Y7818D01*
X61625Y6944D01*
X61740Y6071D01*
X62077Y5257D01*
X62613Y4558D01*
X63312Y4021D01*
X64126Y3684D01*
X65000Y3569D01*
X65874Y3684D01*
X66688Y4021D01*
X67387Y4558D01*
X67923Y5257D01*
X68260Y6071D01*
X68375Y6944D01*
X68260Y7818D01*
X68189Y7991D01*
X69030Y8833D01*
X75865D01*
X75959Y8364D01*
X76350Y7778D01*
X76936Y7386D01*
X77627Y7249D01*
X78319Y7386D01*
X78905Y7778D01*
X79296Y8364D01*
X79434Y9055D01*
X79320Y9628D01*
X79410Y9918D01*
X79776Y10469D01*
X80413Y10596D01*
X81129Y11074D01*
X94004Y23949D01*
X94422Y24574D01*
X94779Y24704D01*
X95320Y24777D01*
X95908Y24326D01*
X96720Y23990D01*
X97592Y23875D01*
X98464Y23990D01*
X99277Y24326D01*
X99975Y24862D01*
X100510Y25559D01*
X100847Y26372D01*
X100962Y27244D01*
X100848Y28106D01*
X101362Y28702D01*
X102304D01*
X102690Y28779D01*
X103018Y28998D01*
X105984Y31963D01*
X105984Y31963D01*
X106202Y32291D01*
X106241Y32485D01*
X106472Y32716D01*
X106690Y33042D01*
X106766Y33426D01*
Y38438D01*
X107505Y38744D01*
X108931Y37319D01*
X108866Y36996D01*
X109004Y36304D01*
X109395Y35718D01*
X109981Y35327D01*
X110673Y35189D01*
X111364Y35327D01*
X111950Y35718D01*
X112341Y36304D01*
X112479Y36996D01*
X112341Y37687D01*
X111950Y38273D01*
X111364Y38664D01*
X110673Y38802D01*
X110350Y38738D01*
X108144Y40944D01*
Y80336D01*
X114252D01*
Y73904D01*
X120933D01*
Y80336D01*
X124379D01*
Y1606D01*
X110046D01*
X109651Y2406D01*
X109679Y2441D01*
X110034Y3299D01*
X110155Y4218D01*
X110034Y5138D01*
X109679Y5995D01*
X109114Y6731D01*
X108378Y7296D01*
X107521Y7651D01*
X106601Y7772D01*
X105681Y7651D01*
X104824Y7296D01*
X104088Y6731D01*
X103523Y5995D01*
X103168Y5138D01*
X103047Y4218D01*
X103168Y3299D01*
X103523Y2441D01*
X103550Y2406D01*
X103156Y1606D01*
X94214D01*
Y3957D01*
X95014Y4267D01*
X95610Y3810D01*
X96566Y3414D01*
X97002Y3357D01*
Y7244D01*
Y11131D01*
X96566Y11074D01*
X95610Y10678D01*
X94789Y10048D01*
X94159Y9227D01*
X93762Y8270D01*
X93642Y7359D01*
X83062D01*
Y1606D01*
X40478Y1606D01*
Y6920D01*
X33299D01*
Y11446D01*
X17424D01*
Y6920D01*
X13583D01*
Y1606D01*
X1606D01*
X1606Y124379D01*
X20055D01*
X20387Y123579D01*
X20093Y122869D01*
X19972Y121949D01*
X20093Y121029D01*
X20448Y120172D01*
X21013Y119436D01*
X21749Y118871D01*
X22606Y118516D01*
X23526Y118395D01*
X24446Y118516D01*
X25303Y118871D01*
X26039Y119436D01*
X26604Y120172D01*
X26959Y121029D01*
X27080Y121949D01*
X26959Y122869D01*
X26665Y123579D01*
X26996Y124379D01*
X83000Y124379D01*
X124379D01*
Y109744D01*
D02*
G37*
G36*
X101175Y73904D02*
X101733Y73904D01*
X101975Y73204D01*
Y59309D01*
X101955Y59297D01*
X101175Y59105D01*
X100775Y59627D01*
X100077Y60162D01*
X99264Y60499D01*
X98392Y60614D01*
X97520Y60499D01*
X96708Y60162D01*
X96010Y59627D01*
X95474Y58929D01*
X95451Y58872D01*
X94651Y59031D01*
Y64331D01*
X94689Y64367D01*
X95451Y64677D01*
X95908Y64326D01*
X96720Y63990D01*
X97592Y63875D01*
X98464Y63990D01*
X99277Y64326D01*
X99975Y64862D01*
X100510Y65559D01*
X100847Y66372D01*
X100962Y67244D01*
X100847Y68116D01*
X100510Y68929D01*
X99975Y69627D01*
X99277Y70162D01*
X98464Y70499D01*
X97592Y70613D01*
X96720Y70499D01*
X95908Y70162D01*
X95451Y69811D01*
X94689Y70121D01*
X94651Y70157D01*
Y73270D01*
X95052Y73904D01*
X95451Y73904D01*
X101175D01*
D02*
G37*
G36*
X95474Y55559D02*
X96010Y54862D01*
X96708Y54326D01*
X97520Y53989D01*
X98392Y53875D01*
X99264Y53989D01*
X100077Y54326D01*
X100775Y54862D01*
X101175Y55384D01*
X101955Y55191D01*
X101975Y55179D01*
Y39309D01*
X101955Y39297D01*
X101175Y39105D01*
X100775Y39627D01*
X100077Y40162D01*
X99264Y40499D01*
X98392Y40613D01*
X97520Y40499D01*
X96708Y40162D01*
X96010Y39627D01*
X95474Y38929D01*
X95451Y38872D01*
X94651Y39031D01*
Y44331D01*
X94689Y44367D01*
X95451Y44677D01*
X95908Y44326D01*
X96720Y43990D01*
X97592Y43875D01*
X98464Y43990D01*
X99277Y44326D01*
X99975Y44862D01*
X100510Y45559D01*
X100847Y46372D01*
X100962Y47244D01*
X100847Y48116D01*
X100510Y48929D01*
X99975Y49627D01*
X99277Y50162D01*
X98464Y50499D01*
X97592Y50613D01*
X96720Y50499D01*
X95908Y50162D01*
X95451Y49812D01*
X94689Y50121D01*
X94651Y50157D01*
Y55457D01*
X95451Y55616D01*
X95474Y55559D01*
D02*
G37*
G36*
X90235Y49223D02*
Y26424D01*
X78654Y14843D01*
X77639D01*
Y20562D01*
X77601Y20655D01*
X77531Y21180D01*
X77663Y21332D01*
X78200Y21696D01*
X78218Y21684D01*
X78909Y21547D01*
X79600Y21684D01*
X80186Y22076D01*
X80578Y22662D01*
X80715Y23353D01*
X80578Y24044D01*
X80186Y24630D01*
X79600Y25022D01*
X79600Y25022D01*
X79560Y25225D01*
X79341Y25552D01*
X71147Y33746D01*
X71411Y34614D01*
X71533Y34638D01*
X71738Y34775D01*
X74176D01*
X74699Y34879D01*
X75142Y35175D01*
X89496Y49529D01*
X90235Y49223D01*
D02*
G37*
%LPC*%
G36*
X11733Y120585D02*
X5052D01*
Y115332D01*
X4188Y114469D01*
X3969Y114141D01*
X3893Y113755D01*
Y110669D01*
X3137Y109913D01*
X2919Y109586D01*
X2842Y109199D01*
Y105695D01*
X2919Y105308D01*
X3137Y104981D01*
X4232Y103886D01*
Y102959D01*
X3965Y102780D01*
X3573Y102194D01*
X3436Y101503D01*
X3573Y100812D01*
X3965Y100225D01*
X4551Y99834D01*
X5080Y99729D01*
X5379Y99242D01*
X5474Y98929D01*
X5138Y98116D01*
X5023Y97244D01*
X5138Y96372D01*
X5474Y95560D01*
X6010Y94862D01*
X6707Y94326D01*
X7520Y93990D01*
X8392Y93875D01*
X9264Y93990D01*
X10077Y94326D01*
X10775Y94862D01*
X11310Y95560D01*
X11647Y96372D01*
X11761Y97244D01*
X11647Y98116D01*
X11310Y98929D01*
X10775Y99627D01*
X10077Y100162D01*
X9264Y100499D01*
X8392Y100614D01*
X7604Y100510D01*
X7587Y100517D01*
X7328Y100725D01*
X6976Y101139D01*
X7048Y101503D01*
X6911Y102194D01*
X6519Y102780D01*
X6576Y103367D01*
X7292Y103914D01*
X7592Y103875D01*
X8464Y103990D01*
X9277Y104326D01*
X9500Y104498D01*
X9514Y104500D01*
X9842Y104719D01*
X9897Y104802D01*
X9975Y104862D01*
X10510Y105560D01*
X10847Y106372D01*
X10961Y107244D01*
X10847Y108116D01*
X10510Y108929D01*
X9975Y109627D01*
X9277Y110162D01*
X8464Y110499D01*
X7592Y110614D01*
X6720Y110499D01*
X6713Y110496D01*
X5912Y111030D01*
Y113336D01*
X6480Y113904D01*
X11733D01*
Y120585D01*
D02*
G37*
G36*
X63884Y89380D02*
X63192Y89243D01*
X62606Y88851D01*
X62215Y88265D01*
X62077Y87574D01*
X62215Y86883D01*
X62606Y86297D01*
X62709Y86228D01*
X62736Y86093D01*
X63041Y85637D01*
X65903Y82775D01*
X65996Y82309D01*
X66387Y81723D01*
X66973Y81331D01*
X67665Y81194D01*
X68356Y81331D01*
X68942Y81723D01*
X69333Y82309D01*
X69471Y83000D01*
X69333Y83691D01*
X68942Y84277D01*
X68356Y84669D01*
X67890Y84762D01*
X65588Y87063D01*
X65690Y87574D01*
X65552Y88265D01*
X65161Y88851D01*
X64575Y89243D01*
X63884Y89380D01*
D02*
G37*
G36*
X58788Y78659D02*
X54457D01*
Y74899D01*
X53140D01*
X52292Y75747D01*
Y78659D01*
X47961D01*
Y74328D01*
X50873D01*
X52015Y73186D01*
X52341Y72968D01*
X52725Y72892D01*
X57723D01*
X57980Y72632D01*
X57795Y72075D01*
X57550Y71832D01*
X53061D01*
X52677Y71755D01*
X52352Y71538D01*
X50873Y70059D01*
X47961D01*
Y65728D01*
X52292D01*
Y68640D01*
X53477Y69825D01*
X54457D01*
Y65728D01*
X58788D01*
Y65728D01*
X59074Y65963D01*
X59103Y65957D01*
X63906D01*
X64979Y64884D01*
Y64457D01*
X65055Y64073D01*
X65273Y63748D01*
X66108Y62913D01*
X66044Y62590D01*
X66181Y61898D01*
X66573Y61312D01*
X67159Y60921D01*
X67850Y60783D01*
X68541Y60921D01*
X69127Y61312D01*
X69519Y61898D01*
X69656Y62590D01*
X69519Y63281D01*
X69127Y63867D01*
X68541Y64259D01*
X67850Y64396D01*
X67527Y64332D01*
X66986Y64873D01*
Y65300D01*
X66909Y65684D01*
X66692Y66009D01*
X66640Y66062D01*
X67150Y66683D01*
X67456Y66478D01*
X68148Y66341D01*
X68839Y66478D01*
X69425Y66870D01*
X69817Y67456D01*
X69954Y68147D01*
X69817Y68838D01*
X69425Y69424D01*
X68839Y69816D01*
X68148Y69953D01*
X67456Y69816D01*
X66870Y69424D01*
X66816Y69342D01*
X64510D01*
X62849Y71004D01*
Y74792D01*
X62772Y75176D01*
X62555Y75502D01*
X61286Y76770D01*
X60961Y76988D01*
X60576Y77064D01*
X58788D01*
Y78659D01*
D02*
G37*
G36*
X80315Y74145D02*
X79624Y74007D01*
X79037Y73616D01*
X78646Y73030D01*
X78509Y72338D01*
X78646Y71647D01*
X79037Y71061D01*
X79311Y70878D01*
Y69468D01*
X79037Y69285D01*
X78646Y68699D01*
X78508Y68008D01*
X78646Y67316D01*
X79037Y66730D01*
X79624Y66339D01*
X80315Y66201D01*
X81006Y66339D01*
X81592Y66730D01*
X81984Y67316D01*
X82121Y68008D01*
X81984Y68699D01*
X81592Y69285D01*
X81318Y69468D01*
Y70878D01*
X81592Y71061D01*
X81984Y71647D01*
X82121Y72338D01*
X81984Y73030D01*
X81592Y73616D01*
X81006Y74007D01*
X80315Y74145D01*
D02*
G37*
G36*
X7592Y70614D02*
X6720Y70499D01*
X5907Y70162D01*
X5210Y69627D01*
X4674Y68929D01*
X4338Y68116D01*
X4223Y67244D01*
X4338Y66372D01*
X4674Y65560D01*
X5210Y64862D01*
X5907Y64326D01*
X6720Y63990D01*
X7592Y63875D01*
X8464Y63990D01*
X9277Y64326D01*
X9975Y64862D01*
X10510Y65560D01*
X10847Y66372D01*
X10961Y67244D01*
X10847Y68116D01*
X10510Y68929D01*
X9975Y69627D01*
X9277Y70162D01*
X8464Y70499D01*
X7592Y70614D01*
D02*
G37*
G36*
X118392Y70613D02*
X117520Y70499D01*
X116707Y70162D01*
X116010Y69627D01*
X115474Y68929D01*
X115138Y68116D01*
X115023Y67244D01*
X115138Y66372D01*
X115474Y65559D01*
X116010Y64862D01*
X116707Y64326D01*
X117520Y63990D01*
X118392Y63875D01*
X119264Y63990D01*
X120077Y64326D01*
X120775Y64862D01*
X121310Y65559D01*
X121647Y66372D01*
X121762Y67244D01*
X121647Y68116D01*
X121310Y68929D01*
X120775Y69627D01*
X120077Y70162D01*
X119264Y70499D01*
X118392Y70613D01*
D02*
G37*
G36*
X117592Y60614D02*
X116720Y60499D01*
X115907Y60162D01*
X115210Y59627D01*
X114674Y58929D01*
X114338Y58116D01*
X114223Y57244D01*
X114338Y56372D01*
X114674Y55559D01*
X115210Y54862D01*
X115907Y54326D01*
X116720Y53989D01*
X117592Y53875D01*
X118464Y53989D01*
X119277Y54326D01*
X119975Y54862D01*
X120510Y55559D01*
X120847Y56372D01*
X120961Y57244D01*
X120847Y58116D01*
X120510Y58929D01*
X119975Y59627D01*
X119277Y60162D01*
X118464Y60499D01*
X117592Y60614D01*
D02*
G37*
G36*
X7592Y50614D02*
X6720Y50499D01*
X5907Y50162D01*
X5210Y49627D01*
X4674Y48929D01*
X4338Y48116D01*
X4223Y47244D01*
X4338Y46372D01*
X4674Y45560D01*
X5210Y44862D01*
X5907Y44326D01*
X6720Y43990D01*
X7592Y43875D01*
X8464Y43990D01*
X9277Y44326D01*
X9975Y44862D01*
X10510Y45560D01*
X10847Y46372D01*
X10961Y47244D01*
X10847Y48116D01*
X10510Y48929D01*
X9975Y49627D01*
X9277Y50162D01*
X8464Y50499D01*
X7592Y50614D01*
D02*
G37*
G36*
X118392Y50613D02*
X117520Y50499D01*
X116707Y50162D01*
X116010Y49627D01*
X115474Y48929D01*
X115138Y48116D01*
X115023Y47244D01*
X115138Y46372D01*
X115474Y45559D01*
X116010Y44862D01*
X116707Y44326D01*
X117520Y43990D01*
X118392Y43875D01*
X119264Y43990D01*
X120077Y44326D01*
X120775Y44862D01*
X121310Y45559D01*
X121647Y46372D01*
X121762Y47244D01*
X121647Y48116D01*
X121310Y48929D01*
X120775Y49627D01*
X120077Y50162D01*
X119264Y50499D01*
X118392Y50613D01*
D02*
G37*
G36*
X8392Y40614D02*
X7520Y40499D01*
X6707Y40162D01*
X6010Y39627D01*
X5474Y38929D01*
X5138Y38116D01*
X5023Y37244D01*
X5138Y36372D01*
X5474Y35560D01*
X6010Y34862D01*
X6707Y34326D01*
X7520Y33990D01*
X8392Y33875D01*
X9264Y33990D01*
X10077Y34326D01*
X10775Y34862D01*
X11310Y35560D01*
X11647Y36372D01*
X11761Y37244D01*
X11647Y38116D01*
X11310Y38929D01*
X10775Y39627D01*
X10077Y40162D01*
X9264Y40499D01*
X8392Y40614D01*
D02*
G37*
G36*
X117592Y40613D02*
X116720Y40499D01*
X115907Y40162D01*
X115210Y39627D01*
X114674Y38929D01*
X114338Y38116D01*
X114223Y37244D01*
X114338Y36372D01*
X114674Y35559D01*
X115210Y34862D01*
X115907Y34326D01*
X116720Y33990D01*
X117592Y33875D01*
X118464Y33990D01*
X119277Y34326D01*
X119975Y34862D01*
X120510Y35559D01*
X120847Y36372D01*
X120961Y37244D01*
X120847Y38116D01*
X120510Y38929D01*
X119975Y39627D01*
X119277Y40162D01*
X118464Y40499D01*
X117592Y40613D01*
D02*
G37*
G36*
X7592Y30614D02*
X6720Y30499D01*
X5907Y30162D01*
X5210Y29627D01*
X4674Y28929D01*
X4338Y28116D01*
X4223Y27244D01*
X4338Y26372D01*
X4674Y25560D01*
X5210Y24862D01*
X5907Y24326D01*
X6720Y23990D01*
X7592Y23875D01*
X8464Y23990D01*
X9277Y24326D01*
X9975Y24862D01*
X10510Y25560D01*
X10847Y26372D01*
X10961Y27244D01*
X10847Y28116D01*
X10510Y28929D01*
X9975Y29627D01*
X9277Y30162D01*
X8464Y30499D01*
X7592Y30614D01*
D02*
G37*
G36*
X118392Y30613D02*
X117520Y30499D01*
X116707Y30162D01*
X116010Y29627D01*
X115474Y28929D01*
X115138Y28116D01*
X115023Y27244D01*
X115138Y26372D01*
X115474Y25559D01*
X116010Y24862D01*
X116707Y24326D01*
X117520Y23990D01*
X118392Y23875D01*
X119264Y23990D01*
X120077Y24326D01*
X120775Y24862D01*
X121310Y25559D01*
X121647Y26372D01*
X121762Y27244D01*
X121647Y28116D01*
X121310Y28929D01*
X120775Y29627D01*
X120077Y30162D01*
X119264Y30499D01*
X118392Y30613D01*
D02*
G37*
G36*
X117592Y20614D02*
X116720Y20499D01*
X115907Y20162D01*
X115210Y19627D01*
X114674Y18929D01*
X114338Y18116D01*
X114223Y17244D01*
X114338Y16372D01*
X114674Y15559D01*
X115210Y14862D01*
X115907Y14326D01*
X116720Y13990D01*
X117592Y13875D01*
X118464Y13990D01*
X119277Y14326D01*
X119975Y14862D01*
X120510Y15559D01*
X120847Y16372D01*
X120961Y17244D01*
X120847Y18116D01*
X120510Y18929D01*
X119975Y19627D01*
X119277Y20162D01*
X118464Y20499D01*
X117592Y20614D01*
D02*
G37*
G36*
X98392D02*
X97520Y20499D01*
X96708Y20162D01*
X96010Y19627D01*
X95474Y18929D01*
X95138Y18116D01*
X95023Y17244D01*
X95138Y16372D01*
X95474Y15559D01*
X96010Y14862D01*
X96708Y14326D01*
X97520Y13990D01*
X98392Y13875D01*
X99264Y13990D01*
X100077Y14326D01*
X100775Y14862D01*
X101310Y15559D01*
X101647Y16372D01*
X101762Y17244D01*
X101647Y18116D01*
X101310Y18929D01*
X100775Y19627D01*
X100077Y20162D01*
X99264Y20499D01*
X98392Y20614D01*
D02*
G37*
G36*
X8392Y20613D02*
X7520Y20498D01*
X6707Y20162D01*
X6010Y19626D01*
X5474Y18929D01*
X5138Y18116D01*
X5023Y17244D01*
X5138Y16372D01*
X5474Y15559D01*
X6010Y14861D01*
X6707Y14326D01*
X7520Y13989D01*
X8392Y13874D01*
X9264Y13989D01*
X10077Y14326D01*
X10775Y14861D01*
X11310Y15559D01*
X11647Y16372D01*
X11761Y17244D01*
X11647Y18116D01*
X11310Y18929D01*
X10775Y19626D01*
X10077Y20162D01*
X9264Y20498D01*
X8392Y20613D01*
D02*
G37*
G36*
X118983Y11131D02*
Y7835D01*
X122279D01*
X122222Y8270D01*
X121826Y9227D01*
X121196Y10048D01*
X120375Y10678D01*
X119418Y11074D01*
X118983Y11131D01*
D02*
G37*
G36*
X98183D02*
Y7835D01*
X101480D01*
X101422Y8270D01*
X101026Y9227D01*
X100396Y10048D01*
X99575Y10678D01*
X98619Y11074D01*
X98183Y11131D01*
D02*
G37*
G36*
X117802Y11131D02*
X117366Y11074D01*
X116410Y10678D01*
X115588Y10048D01*
X114958Y9227D01*
X114562Y8270D01*
X114505Y7835D01*
X117802D01*
Y11131D01*
D02*
G37*
G36*
X8183Y11131D02*
Y7835D01*
X11479D01*
X11422Y8270D01*
X11026Y9226D01*
X10396Y10048D01*
X9575Y10678D01*
X8618Y11074D01*
X8183Y11131D01*
D02*
G37*
G36*
X7002Y11131D02*
X6566Y11074D01*
X5610Y10678D01*
X4788Y10048D01*
X4158Y9226D01*
X3762Y8270D01*
X3705Y7835D01*
X7002D01*
Y11131D01*
D02*
G37*
G36*
X117802Y6654D02*
X114505D01*
X114562Y6218D01*
X114958Y5262D01*
X115588Y4440D01*
X116410Y3810D01*
X117366Y3414D01*
X117802Y3357D01*
Y6654D01*
D02*
G37*
G36*
X122279D02*
X118983D01*
Y3357D01*
X119418Y3414D01*
X120375Y3810D01*
X121196Y4440D01*
X121826Y5262D01*
X122222Y6218D01*
X122279Y6654D01*
D02*
G37*
G36*
X101480D02*
X98183D01*
Y3357D01*
X98619Y3414D01*
X99575Y3810D01*
X100396Y4440D01*
X101026Y5262D01*
X101422Y6218D01*
X101480Y6654D01*
D02*
G37*
G36*
X11479Y6653D02*
X8183D01*
Y3357D01*
X8618Y3414D01*
X9575Y3810D01*
X10396Y4440D01*
X11026Y5261D01*
X11422Y6218D01*
X11479Y6653D01*
D02*
G37*
G36*
X7002D02*
X3705D01*
X3762Y6218D01*
X4158Y5261D01*
X4788Y4440D01*
X5610Y3810D01*
X6566Y3414D01*
X7002Y3357D01*
Y6653D01*
D02*
G37*
%LPD*%
D10*
X69706Y19694D02*
X70000Y19400D01*
X69706Y19694D02*
Y22392D01*
X68552Y23547D02*
X69706Y22392D01*
X59356Y23547D02*
X68552D01*
X59945Y24924D02*
X70276D01*
X75000Y20200D01*
X107140Y40528D02*
Y88694D01*
Y40528D02*
X110424Y37244D01*
X105762Y33426D02*
Y87757D01*
X105026Y88493D02*
X105762Y87757D01*
X105270Y32933D02*
X105762Y33426D01*
X105270Y32677D02*
Y32933D01*
X107140Y88694D02*
X108314Y89867D01*
Y89942D01*
X110175Y36996D02*
X110673D01*
X105026Y88493D02*
Y93262D01*
X53061Y70828D02*
X58298D01*
X64094Y68339D02*
X67956D01*
X68148Y68147D01*
X58298Y70828D02*
X60000Y69126D01*
X61845Y70588D02*
Y74792D01*
Y70588D02*
X64094Y68339D01*
X60576Y76061D02*
X61845Y74792D01*
X57055Y76061D02*
X60576D01*
X50127Y76493D02*
X52725Y73895D01*
X59680D01*
X56623Y76493D02*
X57055Y76061D01*
X50127Y67893D02*
X53061Y70828D01*
X65982Y64457D02*
Y65300D01*
X56623Y67893D02*
X57370Y67146D01*
X58917D01*
X59103Y66961D01*
X64321D01*
X65982Y65300D01*
Y64457D02*
X67850Y62590D01*
X14173Y67716D02*
X24486Y78029D01*
X30407Y77860D02*
X30709Y77559D01*
X29460Y78029D02*
X29628Y77860D01*
X30407D01*
X24486Y78029D02*
X29460D01*
X80315Y68008D02*
Y72338D01*
X80315Y72338D01*
X57802Y27067D02*
X59945Y24924D01*
X7997Y83499D02*
X14527Y76969D01*
X16251D02*
X17913Y75306D01*
X14527Y76969D02*
X16251D01*
X7992Y85000D02*
X7997Y84995D01*
Y83499D02*
Y84995D01*
X12795Y68394D02*
X17913Y73513D01*
Y75306D01*
X12795Y45059D02*
Y68394D01*
Y45059D02*
X20200Y37655D01*
Y37655D02*
Y37655D01*
X77290Y56907D02*
X80433D01*
X75736Y58461D02*
X77290Y56907D01*
X74890Y57083D02*
X79037Y52935D01*
X42988Y57083D02*
X74890D01*
X41221Y31702D02*
X43298Y29626D01*
X50127D01*
X47618Y27067D02*
X57802D01*
X46772Y27913D02*
X47618Y27067D01*
X41313Y27913D02*
X46772D01*
X47047Y25689D02*
X57214D01*
X59356Y23547D01*
X35818Y27972D02*
Y42089D01*
X38632Y25157D02*
X45431D01*
X37196Y28542D02*
Y42177D01*
X39203Y26535D02*
X46202D01*
X35818Y27972D02*
X38632Y25157D01*
X37196Y28542D02*
X39203Y26535D01*
X58272Y22682D02*
Y22682D01*
X59134Y21497D02*
X60000Y20631D01*
X58272Y22682D02*
X59134Y21820D01*
Y21497D02*
Y21820D01*
X60000Y19400D02*
Y20631D01*
X40100Y28700D02*
X40526D01*
X41313Y27913D01*
X46202Y26535D02*
X47047Y25689D01*
X45431Y25157D02*
X46277Y24311D01*
X34382Y43525D02*
X35818Y42089D01*
X46277Y24311D02*
X56643D01*
X58272Y22682D01*
X37196Y42177D02*
X37288Y42270D01*
Y43681D01*
X40844Y31702D02*
X41221D01*
X55000Y20200D02*
X55441Y20641D01*
X35141Y45828D02*
X37288Y43681D01*
X32514Y45828D02*
X35141D01*
X43559Y58461D02*
X75736D01*
X80740Y52935D02*
X82279Y51396D01*
X79037Y52935D02*
X80740D01*
X15354Y63083D02*
Y63150D01*
X14173Y64331D02*
X15354Y63150D01*
X14173Y64331D02*
Y67716D01*
X29243Y70828D02*
X42988Y57083D01*
X27203Y70828D02*
X29243D01*
X26947Y75073D02*
X43559Y58461D01*
X27165Y70866D02*
X27203Y70828D01*
X56623Y29626D02*
X56721Y29528D01*
X14961Y5542D02*
Y2393D01*
Y3443D01*
X17060Y5542D01*
X15485Y3967D01*
X17060Y2393D01*
X20208Y5542D02*
X18109D01*
Y2393D01*
X20208D01*
X18109Y3967D02*
X19159D01*
X21258Y5542D02*
X23357D01*
X22307D01*
Y2393D01*
X26506Y5017D02*
X25981Y5542D01*
X24931D01*
X24406Y5017D01*
Y2918D01*
X24931Y2393D01*
X25981D01*
X26506Y2918D01*
X27555Y4492D02*
Y2918D01*
X28080Y2393D01*
X29654D01*
Y4492D01*
X30704Y5542D02*
Y2393D01*
X32278D01*
X32803Y2918D01*
Y3443D01*
Y3967D01*
X32278Y4492D01*
X30704D01*
X35427Y2393D02*
X34377D01*
X33852Y2918D01*
Y3967D01*
X34377Y4492D01*
X35427D01*
X35951Y3967D01*
Y3443D01*
X33852D01*
X39100Y2393D02*
X37001D01*
X39100Y4492D01*
Y5017D01*
X38575Y5542D01*
X37525D01*
X37001Y5017D01*
X21950Y9543D02*
X22475Y10068D01*
X23524D01*
X24049Y9543D01*
Y7444D01*
X23524Y6920D01*
X22475D01*
X21950Y7444D01*
Y9543D01*
X25099Y6920D02*
Y7444D01*
X25623D01*
Y6920D01*
X25099D01*
X29822D02*
X27722D01*
X29822Y9019D01*
Y9543D01*
X29297Y10068D01*
X28247D01*
X27722Y9543D01*
X30871Y10068D02*
X31920D01*
X31396D01*
Y6920D01*
X30871D01*
X31920D01*
X84440Y5981D02*
X86539D01*
X85490D01*
Y2832D01*
X89163Y5981D02*
X88114D01*
X87589Y5456D01*
Y3357D01*
X88114Y2832D01*
X89163D01*
X89688Y3357D01*
Y5456D01*
X89163Y5981D01*
X90737Y2832D02*
Y5981D01*
X92312D01*
X92836Y5456D01*
Y4407D01*
X92312Y3882D01*
X90737D01*
D12*
X28000Y50209D02*
X28000D01*
X30209Y48000D02*
X34927D01*
X28000Y50209D02*
X30209Y48000D01*
X4903Y113755D02*
X8392Y117244D01*
X4903Y110250D02*
Y113755D01*
X3852Y109199D02*
X4903Y110250D01*
X3852Y105695D02*
Y109199D01*
Y105695D02*
X5242Y104305D01*
Y101503D02*
Y104305D01*
X12294Y77244D02*
X14830Y74708D01*
X15449D01*
X15748Y74410D01*
X7992Y77244D02*
X12294D01*
X100922Y29712D02*
X102304D01*
X105270Y32677D02*
X105270D01*
X102304Y29712D02*
X105270Y32677D01*
X97592Y26969D02*
X98179D01*
X100922Y29712D01*
X7933Y105433D02*
X9127D01*
X7500Y105000D02*
X7933Y105433D01*
X11280Y83598D02*
Y84021D01*
X12133Y84874D01*
X66967Y8198D02*
X68612Y9843D01*
X76417D01*
X77205Y9055D02*
X77627D01*
X76417Y9843D02*
X77205Y9055D01*
X65000D02*
X65857Y8198D01*
X66967D01*
X64565Y8620D02*
X65000Y9055D01*
X38672Y30128D02*
X40100Y28700D01*
X38672Y30128D02*
Y44254D01*
X34927Y48000D02*
X38672Y44254D01*
X28440Y45774D02*
X28495Y45828D01*
X26482Y45774D02*
X28440D01*
X22835Y42126D02*
X26482Y45774D01*
X67246Y36219D02*
Y45059D01*
X78627Y23635D02*
X78909Y23353D01*
X78627Y23635D02*
Y24838D01*
X67246Y36219D02*
X78627Y24838D01*
X22835Y42077D02*
Y42126D01*
D15*
X11280Y83598D02*
X13451Y85770D01*
Y86876D01*
X13773Y87198D01*
Y87567D01*
D16*
X50127Y76493D02*
D03*
X56623D02*
D03*
Y67893D02*
D03*
X50127D02*
D03*
Y29626D02*
D03*
X56623D02*
D03*
D17*
X23526Y121949D02*
D03*
X106601Y4218D02*
D03*
D18*
X55000Y17405D02*
D03*
D25*
X65000Y6944D02*
D03*
D31*
X67665Y83000D02*
Y83000D01*
X64034Y86630D02*
Y87423D01*
Y86630D02*
X67665Y83000D01*
X63884Y87574D02*
X64034Y87423D01*
X7592Y6968D02*
X7654Y7031D01*
Y12107D01*
X64835Y7087D02*
X65000D01*
X56721Y29528D02*
X59842D01*
D32*
X101233Y31702D02*
X103597Y34066D01*
Y85790D01*
X96448Y31702D02*
X101233D01*
D33*
X87028Y52295D02*
Y86108D01*
X89328Y84872D02*
X94842Y90387D01*
X89328Y51294D02*
Y84872D01*
X74176Y36142D02*
X89328Y51294D01*
X74135Y39403D02*
X87028Y52295D01*
X73895Y39403D02*
X74135D01*
X71006Y36142D02*
X74176D01*
X73230Y38972D02*
X73463D01*
X73895Y39403D01*
X94529Y97924D02*
X94694Y97759D01*
Y97150D02*
Y97759D01*
Y97150D02*
X94842Y97001D01*
Y90387D02*
Y97001D01*
X87028Y86108D02*
X92258Y91338D01*
Y94976D01*
X70841Y36307D02*
X71006Y36142D01*
D34*
X92443Y25510D02*
Y83865D01*
X98179Y89600D01*
X79568Y12635D02*
X92443Y25510D01*
X61039Y12635D02*
X79568D01*
X98179Y100681D02*
X99000Y101503D01*
X98179Y89600D02*
Y100681D01*
X60805Y12402D02*
X61039Y12635D01*
X40962Y12402D02*
X60805D01*
X31455Y21907D02*
X40962Y12402D01*
D35*
X55000Y16535D02*
Y20200D01*
D36*
X75000Y17681D02*
D03*
X65000D02*
D03*
D37*
X70000Y17377D02*
D03*
D38*
X60000Y17281D02*
D03*
D39*
X70000Y19400D02*
D03*
X65000Y20200D02*
D03*
X75000D02*
D03*
X60000Y19400D02*
D03*
D40*
X55000Y20200D02*
D03*
D41*
X97592Y7244D02*
D03*
X98392Y17244D02*
D03*
X97592Y27244D02*
D03*
X98392Y37244D02*
D03*
X97592Y67244D02*
D03*
Y47244D02*
D03*
X98392Y57244D02*
D03*
X7592Y27244D02*
D03*
X8392Y37244D02*
D03*
X7592Y47244D02*
D03*
X8392Y57244D02*
D03*
X7592Y67244D02*
D03*
Y107244D02*
D03*
X8392Y97244D02*
D03*
X7592Y87244D02*
D03*
X7992Y77244D02*
D03*
X8392Y17244D02*
D03*
X7592Y7244D02*
D03*
X118392Y7244D02*
D03*
X117592Y17244D02*
D03*
X118392Y27244D02*
D03*
Y67244D02*
D03*
X117592Y57244D02*
D03*
X118392Y47244D02*
D03*
X117592Y37244D02*
D03*
D42*
X98392Y77244D02*
D03*
X8392Y117244D02*
D03*
X117592Y77244D02*
D03*
D43*
X35119Y117909D02*
D03*
X32035Y116570D02*
D03*
X29343Y114556D02*
D03*
X27258Y111919D02*
D03*
X25834Y108873D02*
D03*
X25243Y105563D02*
D03*
X25187Y102201D02*
D03*
Y98839D02*
D03*
Y95477D02*
D03*
Y92115D02*
D03*
Y88753D02*
D03*
X29454Y81044D02*
D03*
X32813Y89906D02*
D03*
Y93268D02*
D03*
Y96630D02*
D03*
Y99992D02*
D03*
Y103355D02*
D03*
X44745Y109804D02*
D03*
X48106Y109897D02*
D03*
X49645Y112886D02*
D03*
Y116248D02*
D03*
X67665Y83000D02*
D03*
X63884Y87574D02*
D03*
X100775Y81993D02*
D03*
X26472Y16493D02*
D03*
X19968Y33126D02*
D03*
X20150Y27244D02*
D03*
X5573Y32394D02*
D03*
X6047Y42000D02*
D03*
X4616Y70649D02*
D03*
X21936Y84626D02*
D03*
X33858Y79625D02*
D03*
X40667Y80585D02*
D03*
X81002Y81835D02*
D03*
X85166Y92291D02*
D03*
X105026Y93262D02*
D03*
X75134Y92291D02*
D03*
X67665Y79994D02*
D03*
X28000Y50209D02*
D03*
X15407Y53524D02*
D03*
X13773Y87567D02*
D03*
X2731Y111847D02*
D03*
X5242Y101503D02*
D03*
X14059Y108898D02*
D03*
X6047Y52539D02*
D03*
X5606Y62211D02*
D03*
X3705Y20562D02*
D03*
X80688Y92291D02*
D03*
X68698D02*
D03*
X83833Y73405D02*
D03*
X96042Y71816D02*
D03*
X83900Y68653D02*
D03*
X96010Y81993D02*
D03*
X89030Y47430D02*
D03*
X59680Y73895D02*
D03*
X60000Y69126D02*
D03*
X80315Y64494D02*
D03*
Y68008D02*
D03*
X80315Y72338D02*
D03*
X68148Y68147D02*
D03*
X66481Y27244D02*
D03*
X96448Y31702D02*
D03*
X92258Y122958D02*
D03*
X122835D02*
D03*
X83900Y54050D02*
D03*
X89030Y22097D02*
D03*
X103597Y85790D02*
D03*
X108314Y89942D02*
D03*
X111575Y78029D02*
D03*
X122370Y79825D02*
D03*
X105424Y96253D02*
D03*
X99000Y101503D02*
D03*
X105424Y29351D02*
D03*
X110673Y36996D02*
D03*
X11280Y83598D02*
D03*
X112073Y111137D02*
D03*
X80433Y56907D02*
D03*
X91323Y98032D02*
D03*
X94780Y101192D02*
D03*
X89514Y92618D02*
D03*
X92258Y94976D02*
D03*
X94529Y97924D02*
D03*
X96042Y113300D02*
D03*
X39764Y22410D02*
D03*
X17059Y80116D02*
D03*
X21557Y20000D02*
D03*
X77627Y9055D02*
D03*
X39562Y103987D02*
D03*
X40100Y28700D02*
D03*
X31909Y25456D02*
D03*
X31455Y21907D02*
D03*
X42606Y36537D02*
D03*
X40844Y31702D02*
D03*
X59842Y29528D02*
D03*
X34382Y43525D02*
D03*
X32514Y45828D02*
D03*
X28495D02*
D03*
X31496Y50863D02*
D03*
X82279Y51396D02*
D03*
X28022Y67827D02*
D03*
X20200Y37655D02*
D03*
X85243Y26498D02*
D03*
X77152Y34022D02*
D03*
X67246Y45059D02*
D03*
X66695Y33379D02*
D03*
X70841Y36307D02*
D03*
X78909Y23353D02*
D03*
X67398Y54508D02*
D03*
X94529Y20000D02*
D03*
X93838Y10768D02*
D03*
X55000Y15748D02*
D03*
X81628Y3386D02*
D03*
X15354Y63083D02*
D03*
X17959Y60478D02*
D03*
X85564Y97201D02*
D03*
X108770Y121949D02*
D03*
X85564Y103640D02*
D03*
X92443Y108255D02*
D03*
X28166Y32655D02*
D03*
X67850Y62590D02*
D03*
X122279Y61936D02*
D03*
X102362Y9449D02*
D03*
X115642Y12250D02*
D03*
X122047Y10856D02*
D03*
X3705Y10596D02*
D03*
X31496Y74016D02*
D03*
X35039Y71260D02*
D03*
X41339Y64173D02*
D03*
X51575Y60630D02*
D03*
X54724Y63779D02*
D03*
X39224Y120288D02*
D03*
X39622Y109449D02*
D03*
X85564Y122958D02*
D03*
Y116519D02*
D03*
X54787Y92030D02*
D03*
X73230Y38972D02*
D03*
X63779Y42126D02*
D03*
X26947Y75073D02*
D03*
X22835Y42077D02*
D03*
X27165Y70866D02*
D03*
X15748Y74410D02*
D03*
X33331Y36454D02*
D03*
X59957Y43681D02*
D03*
X56329Y80461D02*
D03*
X46847Y92030D02*
D03*
X96010Y61891D02*
D03*
X96042Y52008D02*
D03*
X95908Y41560D02*
D03*
X113100Y69718D02*
D03*
X30709Y77559D02*
D03*
X83071Y59055D02*
D03*
X82701Y40573D02*
D03*
X40087Y92030D02*
D03*
X39622Y98438D02*
D03*
X122468Y111406D02*
D03*
X31500Y60126D02*
D03*
X35000Y54126D02*
D03*
X45000Y74126D02*
D03*
Y60626D02*
D03*
X41500Y70626D02*
D03*
X34000Y62626D02*
D03*
X62731Y92030D02*
D03*
X46847Y88444D02*
D03*
X82676Y33351D02*
D03*
X51000Y72126D02*
D03*
X12919Y23223D02*
D03*
X122468Y32182D02*
D03*
X112904Y41804D02*
D03*
X122468Y21625D02*
D03*
X113100Y61891D02*
D03*
X113183Y52342D02*
D03*
X88530Y33167D02*
D03*
X51500Y51126D02*
D03*
X45000Y50626D02*
D03*
X54500Y53626D02*
D03*
X102886Y21176D02*
D03*
X41500Y54126D02*
D03*
X85564Y110079D02*
D03*
M02*
