G04*
G04 #@! TF.GenerationSoftware,Altium Limited,Altium Designer,18.1.9 (240)*
G04*
G04 Layer_Color=128*
%FSLAX25Y25*%
%MOIN*%
G70*
G01*
G75*
%ADD14R,0.06000X0.16000*%
%ADD32R,0.03000X0.03400*%
%ADD34R,0.03400X0.03000*%
%ADD47R,0.01968X0.03150*%
%ADD48R,0.03150X0.01968*%
%ADD49R,0.06299X0.06299*%
%ADD50R,0.02400X0.03400*%
G04:AMPARAMS|DCode=52|XSize=15.75mil|YSize=23.62mil|CornerRadius=3.94mil|HoleSize=0mil|Usage=FLASHONLY|Rotation=0.000|XOffset=0mil|YOffset=0mil|HoleType=Round|Shape=RoundedRectangle|*
%AMROUNDEDRECTD52*
21,1,0.01575,0.01575,0,0,0.0*
21,1,0.00787,0.02362,0,0,0.0*
1,1,0.00787,0.00394,-0.00787*
1,1,0.00787,-0.00394,-0.00787*
1,1,0.00787,-0.00394,0.00787*
1,1,0.00787,0.00394,0.00787*
%
%ADD52ROUNDEDRECTD52*%
%ADD53R,0.02400X0.03900*%
%ADD54R,0.02800X0.04800*%
%ADD55R,0.01575X0.05118*%
%ADD57R,0.04200X0.08700*%
%ADD58R,0.04200X0.04200*%
%ADD59R,0.06000X0.10000*%
%ADD60R,0.03900X0.04900*%
%ADD61R,0.03400X0.02400*%
%ADD82R,0.03937X0.05512*%
G36*
X92726Y109449D02*
Y107087D01*
X98632D01*
Y109449D01*
X92726D01*
D02*
G37*
G36*
X104144Y119685D02*
Y113780D01*
X111230D01*
Y119685D01*
X104144D01*
D02*
G37*
G36*
X116742Y109449D02*
Y107087D01*
X122648D01*
Y109449D01*
X116742D01*
D02*
G37*
D14*
X36900Y117500D02*
D03*
X16900D02*
D03*
D32*
X23000Y20000D02*
D03*
X29000D02*
D03*
X54000Y41200D02*
D03*
X60000D02*
D03*
X47000Y35000D02*
D03*
X41000D02*
D03*
X48000Y41000D02*
D03*
X42000D02*
D03*
X119000Y83000D02*
D03*
X113000D02*
D03*
D34*
X15100Y98500D02*
D03*
Y92500D02*
D03*
X28500Y32000D02*
D03*
Y26000D02*
D03*
D47*
X57996Y48012D02*
D03*
X54847D02*
D03*
X51697D02*
D03*
X48547D02*
D03*
X45398D02*
D03*
X42248D02*
D03*
X39098D02*
D03*
X35949D02*
D03*
X32799D02*
D03*
X29650D02*
D03*
X26500D02*
D03*
X23350D02*
D03*
Y92500D02*
D03*
X26500D02*
D03*
X29650D02*
D03*
X32799D02*
D03*
X35949D02*
D03*
X39098D02*
D03*
X42248D02*
D03*
X45398D02*
D03*
X48547D02*
D03*
X51697D02*
D03*
X54847D02*
D03*
X57996D02*
D03*
D48*
X20201Y52933D02*
D03*
Y56083D02*
D03*
Y59232D02*
D03*
Y62382D02*
D03*
Y65531D02*
D03*
Y68681D02*
D03*
Y71831D02*
D03*
Y74980D02*
D03*
Y78130D02*
D03*
Y81279D02*
D03*
Y84429D02*
D03*
Y87579D02*
D03*
X61146D02*
D03*
Y84429D02*
D03*
Y81279D02*
D03*
Y78130D02*
D03*
Y74980D02*
D03*
Y71831D02*
D03*
Y68681D02*
D03*
Y65531D02*
D03*
Y62382D02*
D03*
Y59232D02*
D03*
Y56083D02*
D03*
Y52933D02*
D03*
D49*
X40673Y70256D02*
D03*
Y80098D02*
D03*
X50516D02*
D03*
Y70256D02*
D03*
Y60413D02*
D03*
X40673D02*
D03*
X30830D02*
D03*
Y70256D02*
D03*
Y80098D02*
D03*
D50*
X67000Y28000D02*
D03*
X73000D02*
D03*
X28000Y38000D02*
D03*
X34000D02*
D03*
X74500Y69500D02*
D03*
X68500D02*
D03*
Y81000D02*
D03*
X74500D02*
D03*
X68500Y75500D02*
D03*
X74500D02*
D03*
D52*
X122937Y99512D02*
D03*
X119000D02*
D03*
X115063D02*
D03*
X122937Y88488D02*
D03*
X119000D02*
D03*
X115063D02*
D03*
D53*
X22700Y27000D02*
D03*
X15300D02*
D03*
X19000Y37000D02*
D03*
D54*
X15000Y5700D02*
D03*
Y20300D02*
D03*
D55*
X107687Y108150D02*
D03*
X105128D02*
D03*
X110247D02*
D03*
X102569D02*
D03*
X112805D02*
D03*
D57*
X33100Y119000D02*
D03*
X20550D02*
D03*
D58*
X26800Y112700D02*
D03*
D59*
X26900Y110500D02*
D03*
D60*
X40000Y29000D02*
D03*
X48000D02*
D03*
X62000Y35000D02*
D03*
X54000D02*
D03*
D61*
X85300Y90700D02*
D03*
Y84700D02*
D03*
X90300Y90700D02*
D03*
Y84700D02*
D03*
D82*
X121559Y94000D02*
D03*
X116342Y94000D02*
D03*
M02*
