G04*
G04 #@! TF.GenerationSoftware,Altium Limited,Altium Designer,18.1.9 (240)*
G04*
G04 Layer_Physical_Order=2*
G04 Layer_Color=16711680*
%FSLAX25Y25*%
%MOIN*%
G70*
G01*
G75*
%ADD10C,0.00787*%
%ADD11C,0.00800*%
%ADD14R,0.06000X0.16000*%
%ADD31R,0.03937X0.03937*%
%ADD32R,0.03000X0.03400*%
%ADD33C,0.03150*%
%ADD34R,0.03400X0.03000*%
%ADD36C,0.01000*%
%ADD37C,0.04000*%
%ADD38C,0.01500*%
%ADD39C,0.02000*%
%ADD40R,0.05500X0.05500*%
%ADD41C,0.05500*%
%ADD42O,0.04000X0.04724*%
%ADD43R,0.04000X0.04724*%
%ADD44C,0.07100*%
%ADD45O,0.03937X0.05906*%
%ADD46C,0.02362*%
%ADD47R,0.01968X0.03150*%
%ADD48R,0.03150X0.01968*%
%ADD49R,0.06299X0.06299*%
%ADD50R,0.02400X0.03400*%
%ADD51R,0.09449X0.05906*%
G04:AMPARAMS|DCode=52|XSize=15.75mil|YSize=23.62mil|CornerRadius=3.94mil|HoleSize=0mil|Usage=FLASHONLY|Rotation=0.000|XOffset=0mil|YOffset=0mil|HoleType=Round|Shape=RoundedRectangle|*
%AMROUNDEDRECTD52*
21,1,0.01575,0.01575,0,0,0.0*
21,1,0.00787,0.02362,0,0,0.0*
1,1,0.00787,0.00394,-0.00787*
1,1,0.00787,-0.00394,-0.00787*
1,1,0.00787,-0.00394,0.00787*
1,1,0.00787,0.00394,0.00787*
%
%ADD52ROUNDEDRECTD52*%
%ADD53R,0.02400X0.03900*%
%ADD54R,0.02800X0.04800*%
%ADD55R,0.01575X0.05118*%
%ADD56R,0.15354X0.08661*%
%ADD57R,0.04200X0.08700*%
%ADD58R,0.04200X0.04200*%
%ADD59R,0.06000X0.10000*%
%ADD60R,0.03900X0.04900*%
%ADD61R,0.03400X0.02400*%
%ADD62C,0.03937*%
%ADD63C,0.01968*%
%ADD64C,0.02500*%
%ADD65C,0.01600*%
%ADD66C,0.01181*%
G36*
X103160Y105436D02*
X102970Y105246D01*
X102843Y105162D01*
X99949Y102268D01*
X95797D01*
X95797Y105693D01*
X100793Y105693D01*
X101720Y106620D01*
X103160D01*
Y105436D01*
D02*
G37*
G36*
X123977Y105758D02*
X112790Y103866D01*
X112215Y104580D01*
Y111890D01*
X100601D01*
Y107237D01*
X100010Y106647D01*
Y106496D01*
X99859D01*
X99859Y106496D01*
X95797Y106496D01*
X95490Y106435D01*
X95229Y106261D01*
X95055Y106000D01*
X94994Y105693D01*
X94994Y103147D01*
X94194Y102720D01*
X93918Y102905D01*
X93150Y103058D01*
X92382Y102905D01*
X91730Y102470D01*
X91295Y101819D01*
X91142Y101050D01*
X91216Y100680D01*
X90607Y99990D01*
X90600Y99987D01*
X90500Y100007D01*
X89732Y99854D01*
X89383Y99621D01*
X88583Y100004D01*
X88583Y120993D01*
X123977D01*
Y105758D01*
D02*
G37*
G36*
X111272Y103610D02*
X110400Y103462D01*
X109862Y104182D01*
X109972Y104410D01*
X111205D01*
X111272Y103610D01*
D02*
G37*
G36*
X106200Y99418D02*
Y96563D01*
X105481Y95844D01*
X104681Y95881D01*
Y95881D01*
X102574D01*
X102210Y96622D01*
X102220Y96681D01*
X102684Y96992D01*
X104581Y98889D01*
X104666Y99015D01*
X105400Y99749D01*
X106200Y99418D01*
D02*
G37*
G36*
X43701Y95256D02*
X30020D01*
X29311Y96000D01*
Y104713D01*
X30687D01*
Y106811D01*
X30689Y106813D01*
X31126Y107868D01*
X31275Y109000D01*
X31126Y110132D01*
X30689Y111187D01*
X30687Y111189D01*
Y116287D01*
X30646Y116308D01*
X30064Y116933D01*
Y123958D01*
X43701D01*
X43701Y95256D01*
D02*
G37*
G36*
X23733Y116933D02*
X23148Y116305D01*
X23113Y116287D01*
Y111189D01*
X23111Y111187D01*
X22674Y110132D01*
X22525Y109000D01*
X22674Y107868D01*
X23111Y106813D01*
X23113Y106811D01*
Y104713D01*
X23689D01*
Y96000D01*
X22980Y95256D01*
X21185D01*
Y94965D01*
X20385Y94431D01*
X20000Y94507D01*
X19232Y94354D01*
X18781Y94053D01*
X18107Y94305D01*
X17981Y94407D01*
Y95181D01*
X13423D01*
Y101462D01*
X14625Y102663D01*
X14625Y102663D01*
X14887Y103056D01*
X14979Y103519D01*
Y106131D01*
X14887Y106595D01*
X14625Y106988D01*
X14625Y106988D01*
X14083Y107529D01*
X14107Y107650D01*
X13954Y108419D01*
X13519Y109070D01*
X12868Y109505D01*
X12100Y109658D01*
X11332Y109505D01*
X10967Y109261D01*
X10167Y109632D01*
Y111043D01*
X10075Y111507D01*
X9813Y111899D01*
X9813Y111899D01*
X8931Y112781D01*
Y118931D01*
X6718D01*
X6447Y119731D01*
X6629Y119871D01*
X7220Y120641D01*
X7591Y121538D01*
X7718Y122500D01*
X7631Y123158D01*
X8158Y123958D01*
X23733D01*
Y116933D01*
D02*
G37*
G36*
X86477Y94600D02*
X86641Y94360D01*
X86783Y93800D01*
X86673Y93689D01*
X86655Y93662D01*
X86074Y93081D01*
X82419D01*
Y92342D01*
X65720D01*
X65606Y92456D01*
X65214Y92718D01*
X64750Y92811D01*
X64750Y92811D01*
X60161D01*
Y94600D01*
X86477Y94600D01*
D02*
G37*
G36*
X100575Y91300D02*
X98700D01*
X99900Y92400D01*
X99900Y93500D01*
X98700Y94700D01*
X100575Y94700D01*
Y91300D01*
D02*
G37*
G36*
X99100Y93100D02*
Y92900D01*
X97499Y91299D01*
X97200D01*
Y94700D01*
X97500Y94700D01*
X99100Y93100D01*
D02*
G37*
G36*
X30240Y89744D02*
X40945D01*
X41602Y88944D01*
X41593Y88900D01*
X41746Y88132D01*
X41820Y88020D01*
X41392Y87221D01*
X36263D01*
X36155Y87242D01*
X36155Y87242D01*
X35304D01*
X35234Y87593D01*
X34799Y88244D01*
X34147Y88679D01*
X33379Y88832D01*
X32611Y88679D01*
X31960Y88244D01*
X31757Y87941D01*
X30805Y87762D01*
X30623Y87944D01*
X30233Y88205D01*
X29772Y88297D01*
X29772Y88297D01*
X25415D01*
X24707Y89005D01*
X25013Y89744D01*
X25516D01*
Y90138D01*
X27484D01*
Y89744D01*
X29059D01*
Y92500D01*
X30240D01*
Y89744D01*
D02*
G37*
G36*
X55648Y88893D02*
X56039Y88631D01*
X56500Y88540D01*
X56500Y88540D01*
X58390D01*
Y87079D01*
X56619D01*
X56619Y87079D01*
X56156Y86987D01*
X55763Y86725D01*
X55763Y86725D01*
X54375Y85337D01*
X54113Y84944D01*
X54021Y84481D01*
X53257Y84429D01*
X51106D01*
Y80098D01*
Y75767D01*
X54846D01*
X54846Y75767D01*
X55574Y75593D01*
X55646Y75232D01*
X56081Y74581D01*
X56384Y74378D01*
X56563Y73426D01*
X55953Y72815D01*
X55690Y72422D01*
X55646Y72202D01*
X54846Y72281D01*
Y74586D01*
X51106D01*
Y70256D01*
Y65925D01*
X54798D01*
X54846Y65925D01*
X55598Y65808D01*
Y64860D01*
X54846Y64744D01*
Y64744D01*
X51106D01*
Y60413D01*
X50516D01*
Y59823D01*
X46185D01*
Y56142D01*
X45004D01*
Y59823D01*
X40673D01*
X36342D01*
Y56142D01*
X35161D01*
Y59823D01*
X30830D01*
Y60413D01*
X30240D01*
Y64744D01*
X26500D01*
Y60119D01*
X25768Y59755D01*
X25211Y60121D01*
Y70941D01*
X25419Y71081D01*
X25700Y71501D01*
X26500Y71258D01*
Y70846D01*
X30830D01*
X35161D01*
Y73782D01*
X35174Y73909D01*
X35541Y74102D01*
X35543Y74102D01*
X36342Y73620D01*
Y70846D01*
X40082D01*
Y74586D01*
X37362D01*
X36959Y75386D01*
X37240Y75767D01*
X40082D01*
Y80098D01*
X40673D01*
Y80689D01*
X45004D01*
Y82797D01*
X45385Y83040D01*
X46185Y82601D01*
Y80689D01*
X49925D01*
Y84429D01*
X47472D01*
X47166Y85168D01*
X51742Y89744D01*
X54797D01*
X55648Y88893D01*
D02*
G37*
G36*
X100672Y83687D02*
X98798D01*
X99998Y84787D01*
X99998Y85887D01*
X98798Y87087D01*
X100672Y87087D01*
Y83687D01*
D02*
G37*
G36*
X99198Y85487D02*
Y85287D01*
X97597Y83687D01*
X97298D01*
Y87087D01*
X97598Y87087D01*
X99198Y85487D01*
D02*
G37*
G36*
X106028Y84183D02*
X106200Y84042D01*
Y83600D01*
X115023Y82620D01*
X115287Y81865D01*
X112245Y78822D01*
X104116D01*
X104068Y78854D01*
X103300Y79007D01*
X102532Y78854D01*
X101881Y78419D01*
X101741Y78211D01*
X100681D01*
X99098Y79794D01*
X98705Y80056D01*
X98242Y80148D01*
X98242Y80148D01*
X93064D01*
X91632Y81580D01*
X91939Y82319D01*
X93181D01*
Y82319D01*
X93417Y82506D01*
X98779D01*
X98779Y82506D01*
X99417D01*
Y82506D01*
X99579Y82506D01*
X104779D01*
Y84183D01*
X106028D01*
X106028Y84183D01*
D02*
G37*
G36*
X123977Y81625D02*
Y79712D01*
X123931Y78931D01*
X118881D01*
X118528Y79721D01*
X118844Y80119D01*
X121681D01*
Y81280D01*
X122277Y81814D01*
X123977Y81625D01*
D02*
G37*
G36*
X116069Y76446D02*
Y72781D01*
X112730Y69442D01*
X102270D01*
X98931Y72781D01*
Y75444D01*
X99716Y75881D01*
X100179Y75789D01*
X100179Y75789D01*
X101741D01*
X101881Y75581D01*
X102532Y75146D01*
X103300Y74993D01*
X104068Y75146D01*
X104116Y75178D01*
X113000D01*
X113000Y75178D01*
X113697Y75316D01*
X114289Y75711D01*
X115330Y76753D01*
X116069Y76446D01*
D02*
G37*
G36*
X123931Y71069D02*
X123977Y70288D01*
Y67589D01*
X123177Y67317D01*
X122804Y67804D01*
X121983Y68434D01*
X121026Y68830D01*
X120000Y68965D01*
X118974Y68830D01*
X118017Y68434D01*
X117196Y67804D01*
X116566Y66983D01*
X116170Y66026D01*
X116035Y65000D01*
X116102Y64488D01*
X115482Y63688D01*
X99518D01*
X98898Y64488D01*
X98965Y65000D01*
X98830Y66026D01*
X98434Y66983D01*
X97804Y67804D01*
X96983Y68434D01*
X96026Y68830D01*
X95000Y68965D01*
X93974Y68830D01*
X93202Y68510D01*
X91443Y70269D01*
X91775Y71069D01*
X97219D01*
X100912Y67375D01*
X100912Y67375D01*
X101305Y67113D01*
X101769Y67021D01*
X113231D01*
X113232Y67021D01*
X113695Y67113D01*
X114088Y67375D01*
X117781Y71069D01*
X123931D01*
D02*
G37*
G36*
X79881Y79513D02*
X80321Y78768D01*
X80168Y78000D01*
X80321Y77232D01*
X80756Y76581D01*
X81039Y76392D01*
Y68791D01*
X78392Y66144D01*
X78392Y66144D01*
X76892Y64644D01*
X76552Y64135D01*
X76433Y63535D01*
Y50285D01*
X74715Y48568D01*
X73150D01*
Y51850D01*
Y56519D01*
X73327Y57265D01*
X73361Y57293D01*
X74129Y57446D01*
X74780Y57881D01*
X75215Y58532D01*
X75368Y59300D01*
X75215Y60068D01*
X74780Y60719D01*
X74129Y61154D01*
X73361Y61307D01*
X73150Y61480D01*
Y62874D01*
X66850D01*
Y58293D01*
X66050Y57866D01*
X65768Y58054D01*
X65000Y58207D01*
X64702Y58148D01*
X64634Y58156D01*
X63917Y58711D01*
X63902Y58742D01*
Y63366D01*
Y64941D01*
X61146D01*
Y66122D01*
X63902D01*
Y67470D01*
X66119D01*
Y66619D01*
X70881D01*
Y72381D01*
X70881D01*
Y72619D01*
X70881D01*
Y78119D01*
Y83881D01*
X69056D01*
X68991Y83989D01*
X69444Y84789D01*
X74604D01*
X79881Y79513D01*
D02*
G37*
G36*
X3017Y71566D02*
X3974Y71170D01*
X5000Y71035D01*
X6026Y71170D01*
X6982Y71566D01*
X7144Y71691D01*
X8101Y71597D01*
X11873Y67825D01*
X11873Y67825D01*
X12266Y67563D01*
X12729Y67470D01*
X16792D01*
X16871Y66670D01*
X16768Y66650D01*
X16375Y66388D01*
X16375Y66387D01*
X7797Y57809D01*
X6982Y58434D01*
X6026Y58830D01*
X5000Y58965D01*
X3974Y58830D01*
X3017Y58434D01*
X2807Y58273D01*
X2007Y58667D01*
Y61333D01*
X2807Y61728D01*
X3017Y61567D01*
X3974Y61170D01*
X5000Y61035D01*
X6026Y61170D01*
X6982Y61567D01*
X7803Y62197D01*
X8433Y63018D01*
X8830Y63974D01*
X8965Y65000D01*
X8830Y66027D01*
X8433Y66983D01*
X7803Y67804D01*
X6982Y68434D01*
X6026Y68830D01*
X5000Y68965D01*
X3974Y68830D01*
X3017Y68434D01*
X2807Y68273D01*
X2007Y68667D01*
Y71333D01*
X2807Y71728D01*
X3017Y71566D01*
D02*
G37*
G36*
X88677Y76285D02*
Y70113D01*
X88677Y70113D01*
X88769Y69649D01*
X89031Y69257D01*
X91490Y66798D01*
X91170Y66026D01*
X91035Y65000D01*
X91170Y63974D01*
X91566Y63017D01*
X92196Y62196D01*
X93018Y61566D01*
X93974Y61170D01*
X95000Y61035D01*
X96026Y61170D01*
X96838Y61506D01*
X97060Y61359D01*
X97523Y61266D01*
X97523Y61266D01*
X117477D01*
X117477Y61266D01*
X117940Y61359D01*
X118162Y61506D01*
X118974Y61170D01*
X120000Y61035D01*
X121026Y61170D01*
X121983Y61566D01*
X122804Y62196D01*
X123177Y62683D01*
X123977Y62411D01*
Y57588D01*
X123177Y57317D01*
X122804Y57804D01*
X121983Y58434D01*
X121026Y58830D01*
X120000Y58965D01*
X118974Y58830D01*
X118017Y58434D01*
X117196Y57804D01*
X116566Y56982D01*
X116415Y56618D01*
X98585D01*
X98434Y56982D01*
X97804Y57804D01*
X96983Y58434D01*
X96026Y58830D01*
X95000Y58965D01*
X93974Y58830D01*
X93018Y58434D01*
X92196Y57804D01*
X91566Y56982D01*
X91170Y56026D01*
X91154Y55904D01*
X85463D01*
X85319Y56119D01*
X84668Y56554D01*
X83900Y56707D01*
X83132Y56554D01*
X82867Y56378D01*
X82068Y56805D01*
Y61851D01*
X86433Y66216D01*
X86773Y66725D01*
X86892Y67325D01*
Y76803D01*
X86947Y76884D01*
X87899Y77063D01*
X88677Y76285D01*
D02*
G37*
G36*
X25825Y56385D02*
X26500Y56082D01*
Y56082D01*
X29945D01*
X30276Y55282D01*
X28918Y53924D01*
X28500Y54007D01*
X27732Y53854D01*
X27081Y53419D01*
X26646Y52768D01*
X26493Y52000D01*
X26579Y51568D01*
X26067Y50768D01*
X23757D01*
X22957Y50768D01*
Y55702D01*
X23730Y56145D01*
X23757Y56141D01*
X24500Y55993D01*
X25268Y56146D01*
X25700Y56434D01*
X25825Y56385D01*
D02*
G37*
G36*
X91566Y53017D02*
X92196Y52196D01*
X93018Y51566D01*
X93974Y51170D01*
X95000Y51035D01*
X96026Y51170D01*
X96983Y51566D01*
X97804Y52196D01*
X98434Y53017D01*
X98585Y53382D01*
X116415D01*
X116566Y53017D01*
X117196Y52196D01*
X118017Y51566D01*
X118974Y51170D01*
X120000Y51035D01*
X121026Y51170D01*
X121983Y51566D01*
X122804Y52196D01*
X123177Y52683D01*
X123977Y52412D01*
Y47589D01*
X123177Y47317D01*
X122804Y47804D01*
X121983Y48434D01*
X121026Y48830D01*
X120000Y48965D01*
X118974Y48830D01*
X118017Y48434D01*
X117196Y47804D01*
X116566Y46982D01*
X116415Y46619D01*
X98585D01*
X98434Y46982D01*
X97804Y47804D01*
X96983Y48434D01*
X96026Y48830D01*
X95000Y48965D01*
X93974Y48830D01*
X93018Y48434D01*
X92196Y47804D01*
X91566Y46982D01*
X91244Y46204D01*
X89790D01*
X87357Y48637D01*
X87407Y48891D01*
X87254Y49659D01*
X86819Y50310D01*
X86168Y50745D01*
X85400Y50898D01*
X84632Y50745D01*
X83981Y50310D01*
X83546Y49659D01*
X83393Y48891D01*
X83546Y48123D01*
X83981Y47472D01*
X84632Y47037D01*
X85400Y46884D01*
X85654Y46934D01*
X88439Y44148D01*
X88439Y44148D01*
X88830Y43887D01*
X89291Y43796D01*
X89291Y43796D01*
X91244D01*
X91566Y43018D01*
X92196Y42196D01*
X93018Y41566D01*
X93974Y41170D01*
X95000Y41035D01*
X96026Y41170D01*
X96983Y41566D01*
X97804Y42196D01*
X98434Y43018D01*
X98585Y43382D01*
X116415D01*
X116566Y43018D01*
X117196Y42196D01*
X118017Y41566D01*
X118974Y41170D01*
X120000Y41035D01*
X121026Y41170D01*
X121983Y41566D01*
X122804Y42196D01*
X123177Y42683D01*
X123977Y42412D01*
Y37589D01*
X123177Y37317D01*
X122804Y37804D01*
X121983Y38434D01*
X121026Y38830D01*
X120000Y38965D01*
X118974Y38830D01*
X118017Y38434D01*
X117196Y37804D01*
X116566Y36983D01*
X116498Y36819D01*
X107021D01*
X106668Y37054D01*
X105900Y37207D01*
X105132Y37054D01*
X104779Y36819D01*
X98502D01*
X98434Y36983D01*
X97804Y37804D01*
X96983Y38434D01*
X96026Y38830D01*
X95000Y38965D01*
X93974Y38830D01*
X93018Y38434D01*
X92196Y37804D01*
X91566Y36983D01*
X91170Y36026D01*
X91035Y35000D01*
X91170Y33974D01*
X91566Y33018D01*
X92099Y32322D01*
X91974Y31852D01*
X91760Y31522D01*
X79900D01*
X79900Y31522D01*
X79203Y31384D01*
X78626Y30998D01*
X78563Y30986D01*
X77912Y30551D01*
X77477Y29900D01*
X77324Y29131D01*
X77477Y28363D01*
X77912Y27712D01*
X78563Y27277D01*
X79331Y27124D01*
X80100Y27277D01*
X80751Y27712D01*
X80861Y27878D01*
X91245D01*
X91639Y27078D01*
X91566Y26983D01*
X91170Y26026D01*
X91035Y25000D01*
X91170Y23974D01*
X91566Y23018D01*
X92196Y22196D01*
X93018Y21566D01*
X93974Y21170D01*
X95000Y21035D01*
X96026Y21170D01*
X96983Y21566D01*
X97804Y22196D01*
X98434Y23018D01*
X98585Y23381D01*
X116415D01*
X116566Y23018D01*
X117196Y22196D01*
X118017Y21566D01*
X118974Y21170D01*
X120000Y21035D01*
X121026Y21170D01*
X121983Y21566D01*
X122804Y22196D01*
X123177Y22683D01*
X123977Y22411D01*
Y17589D01*
X123177Y17317D01*
X122804Y17804D01*
X121983Y18434D01*
X121026Y18830D01*
X120000Y18965D01*
X118974Y18830D01*
X118017Y18434D01*
X117196Y17804D01*
X117178Y17780D01*
X97822D01*
X97804Y17804D01*
X96983Y18434D01*
X96026Y18830D01*
X95000Y18965D01*
X93974Y18830D01*
X93018Y18434D01*
X92196Y17804D01*
X91566Y16983D01*
X91500Y16822D01*
X90681D01*
Y17881D01*
X85319D01*
X85319Y17881D01*
X84681D01*
Y17881D01*
X84519Y17881D01*
X81650D01*
X81197Y18184D01*
X80500Y18322D01*
X80500Y18322D01*
X78816D01*
X78768Y18354D01*
X78000Y18507D01*
X77232Y18354D01*
X76581Y17919D01*
X76146Y17268D01*
X75993Y16500D01*
X76146Y15732D01*
X76581Y15081D01*
X77232Y14646D01*
X78000Y14493D01*
X78519Y14596D01*
X79258Y14161D01*
X79319Y14100D01*
Y12119D01*
X84519D01*
X84681Y12119D01*
X84681Y12119D01*
X85319Y12119D01*
Y12119D01*
X90681D01*
Y13178D01*
X91500D01*
X91566Y13017D01*
X92196Y12196D01*
X93018Y11566D01*
X93974Y11170D01*
X95000Y11035D01*
X96026Y11170D01*
X96983Y11566D01*
X97804Y12196D01*
X97822Y12220D01*
X117178D01*
X117196Y12196D01*
X118017Y11566D01*
X118974Y11170D01*
X120000Y11035D01*
X121026Y11170D01*
X121983Y11566D01*
X122804Y12196D01*
X123177Y12683D01*
X123977Y12411D01*
Y7588D01*
X123177Y7317D01*
X122804Y7804D01*
X121983Y8434D01*
X121026Y8830D01*
X120591Y8887D01*
Y5000D01*
X120000D01*
Y4409D01*
X116113D01*
X116170Y3974D01*
X116566Y3018D01*
X116728Y2807D01*
X116333Y2007D01*
X114858D01*
X114463Y2807D01*
X114720Y3141D01*
X115091Y4038D01*
X115218Y5000D01*
X115091Y5962D01*
X114720Y6859D01*
X114129Y7629D01*
X113359Y8219D01*
X112462Y8591D01*
X111500Y8718D01*
X110538Y8591D01*
X109641Y8219D01*
X108871Y7629D01*
X108280Y6859D01*
X107909Y5962D01*
X107782Y5000D01*
X107909Y4038D01*
X108280Y3141D01*
X108537Y2807D01*
X108142Y2007D01*
X98667D01*
X98272Y2807D01*
X98434Y3018D01*
X98830Y3974D01*
X98887Y4409D01*
X95000D01*
X91113D01*
X91170Y3974D01*
X91566Y3018D01*
X91728Y2807D01*
X91333Y2007D01*
X42775Y2007D01*
Y6323D01*
X31229D01*
Y2007D01*
X18335D01*
X17581Y2119D01*
Y9281D01*
X17077D01*
Y12320D01*
X35100D01*
X35819Y12415D01*
X36490Y12693D01*
X37066Y13135D01*
X48316Y24385D01*
X48728Y24922D01*
X49266Y25335D01*
X49300Y25369D01*
X51131D01*
X51319Y25119D01*
Y25119D01*
X56519D01*
X56681Y25119D01*
X56681Y25119D01*
X57319Y25119D01*
Y25119D01*
X62681D01*
Y30881D01*
X60822D01*
X60771Y31138D01*
X60376Y31729D01*
X60376Y31729D01*
X57131Y34974D01*
Y38631D01*
X56681D01*
Y42933D01*
X76400D01*
X77000Y43052D01*
X77508Y43392D01*
X81608Y47492D01*
X81948Y48000D01*
X82068Y48600D01*
Y52595D01*
X82867Y53022D01*
X83132Y52846D01*
X83900Y52693D01*
X84668Y52846D01*
X85319Y53281D01*
X85463Y53496D01*
X91368D01*
X91566Y53017D01*
D02*
G37*
G36*
X58390Y55325D02*
Y50768D01*
X57590Y50768D01*
X52287D01*
Y48012D01*
X51106D01*
Y50768D01*
X39689D01*
Y48012D01*
Y45256D01*
X42141D01*
X42830Y44567D01*
X42830Y44567D01*
X43685Y43712D01*
X43675Y43634D01*
X43769Y42914D01*
X44047Y42244D01*
X44220Y42018D01*
Y35000D01*
X44315Y34281D01*
X44319Y34271D01*
Y32119D01*
X44869D01*
Y28687D01*
X44385Y28315D01*
X33949Y17880D01*
X25681D01*
Y22881D01*
X20319D01*
Y20319D01*
X17581D01*
Y23869D01*
X17681D01*
Y30131D01*
X12919D01*
Y23881D01*
X12419D01*
Y17780D01*
X7822D01*
X7804Y17804D01*
X6983Y18434D01*
X6026Y18830D01*
X5000Y18965D01*
X3974Y18830D01*
X3018Y18434D01*
X2807Y18272D01*
X2007Y18667D01*
Y21333D01*
X2807Y21728D01*
X3017Y21566D01*
X3974Y21170D01*
X5000Y21035D01*
X6026Y21170D01*
X6982Y21566D01*
X7803Y22197D01*
X8433Y23018D01*
X8830Y23974D01*
X8965Y25000D01*
X8830Y26026D01*
X8433Y26983D01*
X7803Y27804D01*
X6982Y28434D01*
X6885Y28474D01*
X6698Y29418D01*
X10190Y32910D01*
X10190Y32910D01*
X10452Y33303D01*
X10544Y33766D01*
X10544Y33766D01*
Y40532D01*
X14956Y44944D01*
X14956Y44944D01*
X15218Y45337D01*
X15311Y45800D01*
X15311Y45800D01*
Y54399D01*
X15784Y54872D01*
X17445D01*
Y50768D01*
X20385D01*
X21185Y50768D01*
Y45256D01*
X38508D01*
Y48012D01*
Y50768D01*
X34476D01*
X34060Y51394D01*
X34409Y52146D01*
X53667D01*
X53667Y52146D01*
X54128Y52238D01*
X54519Y52499D01*
X57651Y55631D01*
X58390Y55325D01*
D02*
G37*
G36*
X66850Y48568D02*
X60161D01*
Y50768D01*
X60961Y50768D01*
X63902D01*
Y52221D01*
X66850D01*
Y48568D01*
D02*
G37*
G36*
X116566Y33018D02*
X117196Y32196D01*
X118017Y31566D01*
X118974Y31170D01*
X120000Y31035D01*
X121026Y31170D01*
X121983Y31566D01*
X122804Y32196D01*
X123177Y32683D01*
X123977Y32412D01*
Y27588D01*
X123177Y27317D01*
X122804Y27804D01*
X121983Y28434D01*
X121026Y28830D01*
X120000Y28965D01*
X118974Y28830D01*
X118017Y28434D01*
X117196Y27804D01*
X116566Y26983D01*
X116415Y26618D01*
X98958D01*
X98675Y27111D01*
X99092Y27878D01*
X101184D01*
X101232Y27846D01*
X102000Y27693D01*
X102768Y27846D01*
X103419Y28281D01*
X103854Y28932D01*
X104007Y29700D01*
X103854Y30468D01*
X103419Y31119D01*
X102768Y31554D01*
X102000Y31707D01*
X101232Y31554D01*
X101184Y31522D01*
X98240D01*
X98026Y31852D01*
X97900Y32322D01*
X98434Y33018D01*
X98667Y33582D01*
X104779D01*
X105132Y33346D01*
X105900Y33193D01*
X106668Y33346D01*
X107021Y33582D01*
X116333D01*
X116566Y33018D01*
D02*
G37*
G36*
X48553Y45223D02*
X49494Y44282D01*
X49478Y44200D01*
X49616Y43503D01*
X50011Y42911D01*
X51200Y41723D01*
Y38631D01*
X50869D01*
Y31369D01*
X51200D01*
Y29700D01*
X51200Y28162D01*
X50631Y27600D01*
X46077Y27659D01*
X45994Y27737D01*
X45790Y27998D01*
X45718Y28113D01*
X45680Y28209D01*
X45627Y28465D01*
X45631Y28483D01*
X45665Y28582D01*
X45661Y28635D01*
X45672Y28687D01*
Y28720D01*
X45807Y29400D01*
X45672Y30080D01*
Y32119D01*
X45611Y32426D01*
X45437Y32687D01*
X45176Y32861D01*
X45122Y32871D01*
Y34271D01*
X45108Y34340D01*
X45111Y34385D01*
X45023Y35053D01*
Y42018D01*
X45003Y42121D01*
X44996Y42226D01*
X44972Y42273D01*
X44962Y42325D01*
X44904Y42412D01*
X44857Y42507D01*
X44748Y42649D01*
X44681Y42811D01*
Y43881D01*
X44574D01*
X44133Y44544D01*
X44423Y45241D01*
X48553Y45223D01*
D02*
G37*
G36*
X56100Y28600D02*
X56100Y27500D01*
X57300Y26300D01*
X55425Y26300D01*
Y29700D01*
X57300D01*
X56100Y28600D01*
D02*
G37*
G36*
X58800Y26300D02*
X58500Y26300D01*
X56900Y27900D01*
Y28100D01*
X58501Y29700D01*
X58800D01*
Y26300D01*
D02*
G37*
G36*
X84100Y15600D02*
X84100Y14500D01*
X85300Y13300D01*
X83425Y13300D01*
Y16700D01*
X85300D01*
X84100Y15600D01*
D02*
G37*
G36*
X86800Y13300D02*
X86500Y13300D01*
X84900Y14900D01*
Y15100D01*
X86501Y16701D01*
X86800D01*
Y13300D01*
D02*
G37*
G36*
X12923Y9281D02*
X12419D01*
Y2807D01*
X11665Y2007D01*
X8667D01*
X8272Y2807D01*
X8434Y3018D01*
X8830Y3974D01*
X8887Y4409D01*
X5000D01*
Y5000D01*
X4409D01*
Y8887D01*
X3974Y8830D01*
X3018Y8434D01*
X2807Y8272D01*
X2007Y8667D01*
Y11333D01*
X2807Y11728D01*
X3018Y11566D01*
X3974Y11170D01*
X5000Y11035D01*
X6026Y11170D01*
X6983Y11566D01*
X7804Y12196D01*
X7822Y12220D01*
X12923D01*
Y9281D01*
D02*
G37*
%LPC*%
G36*
X49925Y79508D02*
X46185D01*
Y75767D01*
X49925D01*
Y79508D01*
D02*
G37*
G36*
X45004D02*
X41264D01*
Y75767D01*
X45004D01*
Y79508D01*
D02*
G37*
G36*
X41264Y74586D02*
Y70846D01*
X45004D01*
Y74586D01*
X41264D01*
D02*
G37*
G36*
X49925D02*
X46185D01*
Y70846D01*
X49925D01*
Y74586D01*
D02*
G37*
G36*
X45004Y69665D02*
X41264D01*
Y65925D01*
X45004D01*
Y69665D01*
D02*
G37*
G36*
X40082D02*
X36342D01*
Y65925D01*
X40082D01*
Y69665D01*
D02*
G37*
G36*
X35161D02*
X31421D01*
Y65925D01*
X35161D01*
Y69665D01*
D02*
G37*
G36*
X30240D02*
X26500D01*
Y65925D01*
X30240D01*
Y69665D01*
D02*
G37*
G36*
X49925D02*
X46185D01*
Y65925D01*
X49925D01*
Y69665D01*
D02*
G37*
G36*
X45004Y64744D02*
X41264D01*
Y61004D01*
X45004D01*
Y64744D01*
D02*
G37*
G36*
X35161D02*
X31421D01*
Y61004D01*
X35161D01*
Y64744D01*
D02*
G37*
G36*
X49925D02*
X46185D01*
Y61004D01*
X49925D01*
Y64744D01*
D02*
G37*
G36*
X40082D02*
X36342D01*
Y61004D01*
X40082D01*
Y64744D01*
D02*
G37*
G36*
X57000Y22571D02*
X56170Y22461D01*
X55981Y22383D01*
X55181Y22543D01*
Y22543D01*
X48819D01*
Y15457D01*
X55181D01*
X55796Y15009D01*
Y11363D01*
X55581Y11219D01*
X55146Y10568D01*
X54993Y9800D01*
X55146Y9032D01*
X55581Y8381D01*
X56232Y7946D01*
X57000Y7793D01*
X57768Y7946D01*
X58419Y8381D01*
X58854Y9032D01*
X59007Y9800D01*
X58854Y10568D01*
X58419Y11219D01*
X58204Y11363D01*
Y15693D01*
X58604Y15859D01*
X58925Y16105D01*
X59500Y16293D01*
X60075Y16105D01*
X60396Y15859D01*
X61170Y15539D01*
X61409Y15507D01*
Y19000D01*
Y22493D01*
X61170Y22461D01*
X60396Y22141D01*
X60075Y21895D01*
X59500Y21707D01*
X58925Y21895D01*
X58604Y22141D01*
X57830Y22461D01*
X57000Y22571D01*
D02*
G37*
G36*
X70000Y33007D02*
X69232Y32854D01*
X68581Y32419D01*
X68146Y31768D01*
X67993Y31000D01*
X67895Y30881D01*
X64619D01*
Y25119D01*
X69381D01*
Y28399D01*
X70000Y28993D01*
X70000Y28993D01*
X70619Y28486D01*
Y25119D01*
X70789D01*
Y22304D01*
X70396Y22141D01*
X70075Y21895D01*
X69500Y21707D01*
X68925Y21895D01*
X68604Y22141D01*
X67830Y22461D01*
X67000Y22571D01*
X66170Y22461D01*
X65396Y22141D01*
X65075Y21895D01*
X64500Y21707D01*
X63925Y21895D01*
X63604Y22141D01*
X62830Y22461D01*
X62590Y22493D01*
Y19000D01*
Y15507D01*
X62830Y15539D01*
X63604Y15859D01*
X63925Y16105D01*
X64036Y16142D01*
X64796Y15803D01*
Y10563D01*
X64581Y10419D01*
X64146Y9768D01*
X63993Y9000D01*
X64146Y8232D01*
X64581Y7581D01*
X65232Y7146D01*
X66000Y6993D01*
X66768Y7146D01*
X67419Y7581D01*
X67854Y8232D01*
X68007Y9000D01*
X67854Y9768D01*
X67419Y10419D01*
X67204Y10563D01*
Y15456D01*
X67830Y15539D01*
X68604Y15859D01*
X68925Y16105D01*
X69036Y16142D01*
X69796Y15803D01*
Y10563D01*
X69581Y10419D01*
X69146Y9768D01*
X68993Y9000D01*
X69146Y8232D01*
X69581Y7581D01*
X70232Y7146D01*
X71000Y6993D01*
X71768Y7146D01*
X72419Y7581D01*
X72854Y8232D01*
X73007Y9000D01*
X72854Y9768D01*
X72419Y10419D01*
X72204Y10563D01*
Y15456D01*
X72830Y15539D01*
X73604Y15859D01*
X74269Y16369D01*
X74779Y17033D01*
X75099Y17807D01*
X75209Y18638D01*
Y19362D01*
X75099Y20193D01*
X74779Y20967D01*
X74269Y21631D01*
X73604Y22141D01*
X73211Y22304D01*
Y25119D01*
X75381D01*
Y30881D01*
X72105D01*
X72007Y31000D01*
X71854Y31768D01*
X71419Y32419D01*
X70768Y32854D01*
X70000Y33007D01*
D02*
G37*
G36*
X95591Y8887D02*
Y5591D01*
X98887D01*
X98830Y6026D01*
X98434Y6983D01*
X97804Y7804D01*
X96983Y8434D01*
X96026Y8830D01*
X95591Y8887D01*
D02*
G37*
G36*
X119409D02*
X118974Y8830D01*
X118017Y8434D01*
X117196Y7804D01*
X116566Y6983D01*
X116170Y6026D01*
X116113Y5591D01*
X119409D01*
Y8887D01*
D02*
G37*
G36*
X94410D02*
X93974Y8830D01*
X93018Y8434D01*
X92196Y7804D01*
X91566Y6983D01*
X91170Y6026D01*
X91113Y5591D01*
X94410D01*
Y8887D01*
D02*
G37*
G36*
X36381Y40881D02*
X31619D01*
Y35790D01*
X31619Y35513D01*
X31585Y35300D01*
X31574Y35250D01*
X31501Y35036D01*
X31054Y34719D01*
X30760Y34681D01*
X30643Y34681D01*
X25619D01*
Y33619D01*
X23270D01*
X21381Y35508D01*
Y40131D01*
X16619D01*
Y33869D01*
X18442D01*
X21455Y30856D01*
X21981Y30505D01*
X22600Y30382D01*
X25619D01*
Y29319D01*
X29392D01*
X29678Y29033D01*
X29755Y28443D01*
X30036Y27765D01*
X30483Y27183D01*
X31288Y26377D01*
Y26100D01*
X31384Y25372D01*
X31665Y24694D01*
X32112Y24112D01*
X32694Y23665D01*
X33372Y23384D01*
X34100Y23289D01*
X34828Y23384D01*
X35506Y23665D01*
X36088Y24112D01*
X36535Y24694D01*
X36816Y25372D01*
X36911Y26100D01*
Y27542D01*
X36911Y27542D01*
X36816Y28270D01*
X36535Y28948D01*
X36088Y29530D01*
X36088Y29530D01*
X34459Y31159D01*
X33877Y31606D01*
X33199Y31887D01*
X32471Y31982D01*
X32181Y31944D01*
X31439Y32489D01*
X31381Y32603D01*
X31381Y34032D01*
X31381Y34287D01*
X31415Y34500D01*
X31426Y34550D01*
X31499Y34764D01*
X31946Y35081D01*
X32240Y35119D01*
X32357Y35119D01*
X36367D01*
X37000Y34993D01*
X37768Y35146D01*
X38419Y35581D01*
X38854Y36232D01*
X39007Y37000D01*
X38854Y37768D01*
X38419Y38419D01*
X37768Y38854D01*
X37000Y39007D01*
X36999Y39007D01*
X36381Y39514D01*
Y40881D01*
D02*
G37*
G36*
X5591Y8887D02*
Y5591D01*
X8887D01*
X8830Y6026D01*
X8434Y6983D01*
X7804Y7804D01*
X6983Y8434D01*
X6026Y8830D01*
X5591Y8887D01*
D02*
G37*
%LPD*%
D10*
X66500Y83000D02*
X68500Y81000D01*
X56500Y89744D02*
X63520D01*
X14900Y91500D02*
X15900Y92500D01*
X14500Y91900D02*
X14900Y91500D01*
X33379Y86825D02*
X34167Y86038D01*
X36155D01*
X36176Y86016D01*
X44066D01*
X15000Y86616D02*
X17500Y89116D01*
X15000Y80500D02*
Y86616D01*
X24592Y81268D02*
X25512D01*
X18128Y89744D02*
X22265D01*
X15900Y92500D02*
X20000D01*
X18122Y89738D02*
X18128Y89744D01*
X22265D02*
X24917Y87092D01*
X14500Y91900D02*
X15100Y92500D01*
X23213Y92638D02*
Y95787D01*
Y92638D02*
X23350Y92500D01*
X24510Y84500D02*
X25500D01*
X24917Y87092D02*
X29772D01*
X25027Y89744D02*
X28044D01*
X23350Y91420D02*
X25027Y89744D01*
X21431Y84429D02*
X24592Y81268D01*
X28044Y89744D02*
X29650Y91350D01*
X20201Y84429D02*
X21431D01*
X21306Y87703D02*
X24510Y84500D01*
X94200Y54800D02*
X94500Y54500D01*
X58390Y82956D02*
Y83500D01*
X60066Y81279D02*
X61146D01*
X58390Y82956D02*
X60066Y81279D01*
X29772Y87092D02*
X32407Y84457D01*
X33043D01*
X43600Y88900D02*
X44400D01*
X44066Y86016D02*
X48547Y90498D01*
X45398Y89898D02*
Y92500D01*
X44400Y88900D02*
X45398Y89898D01*
X33379Y86825D02*
Y86921D01*
X43682Y45418D02*
X45398Y45498D01*
X43682Y45418D02*
X45466Y43634D01*
X42248Y46852D02*
X43682Y45418D01*
X45466Y43634D02*
X46454D01*
X42248Y46852D02*
Y48012D01*
X45398Y45498D02*
Y48012D01*
X70000Y61000D02*
X71700Y59300D01*
X68500Y61300D02*
X70000D01*
X112000Y84000D02*
X112400Y84400D01*
X23350Y91420D02*
Y92500D01*
X29650Y91350D02*
Y92500D01*
X54847Y91398D02*
X56500Y89744D01*
X85300Y88300D02*
X87900D01*
X90300Y90700D01*
X96200Y88300D02*
X105200D01*
X95400D02*
X96200D01*
X93000Y90700D02*
X95400Y88300D01*
X90300Y90700D02*
X93000D01*
X85833Y91138D02*
X87529Y92833D01*
X48547Y90498D02*
Y92500D01*
X21268Y50768D02*
X23168D01*
X23400Y51000D01*
X83900Y54700D02*
X94100D01*
X94200Y54800D01*
X58390Y70200D02*
X60021Y71831D01*
X58390Y58073D02*
Y70200D01*
X71700Y59300D02*
X73361D01*
X70000Y61000D02*
Y61300D01*
X57600Y83500D02*
X58390D01*
X108300Y80700D02*
X110700D01*
X58232Y50768D02*
X60232D01*
X56800Y52200D02*
X58232Y50768D01*
X33200Y87100D02*
X33379Y86921D01*
X20325Y87703D02*
X21306D01*
X65000Y75000D02*
X68000D01*
X65000Y53431D02*
Y56200D01*
X105200Y88300D02*
X105400Y88100D01*
X110700Y80700D02*
X113000Y83000D01*
X20201Y87579D02*
X20325Y87703D01*
X113400Y90400D02*
X115000Y92000D01*
X111600Y90400D02*
X113400D01*
X102000Y84985D02*
X102402Y85387D01*
X102000Y84985D02*
Y86000D01*
X102098Y85387D02*
X102402D01*
X112000Y84000D02*
X113000Y83000D01*
X57000Y9800D02*
Y19000D01*
X34000Y38000D02*
X35000Y37000D01*
X37000D01*
X51697Y48012D02*
Y49242D01*
X22500Y96500D02*
X23213Y95787D01*
X29787Y92638D02*
Y95787D01*
X29650Y92500D02*
X29787Y92638D01*
X68000Y75000D02*
X68500Y75500D01*
X48547Y46932D02*
X50398Y45081D01*
X48547Y46932D02*
Y48012D01*
X54847Y91398D02*
Y92500D01*
X51500Y92303D02*
X51697Y92500D01*
X50398Y45081D02*
X50419D01*
X67000Y28000D02*
X70000Y31000D01*
X66000Y9000D02*
Y18000D01*
X67000Y19000D01*
X71000Y9000D02*
Y18000D01*
X72000Y19000D01*
X119000Y94000D02*
Y99512D01*
Y83000D02*
Y88488D01*
X115063Y87962D02*
Y88488D01*
X94500Y54500D02*
X95000Y55000D01*
X85400Y48891D02*
X89291Y45000D01*
X95000D01*
X32016Y51961D02*
X33406Y53350D01*
X53667D01*
X58390Y58073D01*
X60021Y71831D02*
X61146D01*
X50419Y45081D02*
X51300Y44200D01*
X108603Y87962D02*
X115063D01*
X102402Y85387D02*
X106028D01*
X108603Y87962D01*
X96098Y85387D02*
Y88198D01*
X96200Y88300D01*
X41200Y4749D02*
Y1600D01*
X39626D01*
X39101Y2125D01*
Y2650D01*
X39626Y3174D01*
X41200D01*
X39626D01*
X39101Y3699D01*
Y4224D01*
X39626Y4749D01*
X41200D01*
X36477D02*
X37527D01*
X38051Y4224D01*
Y2125D01*
X37527Y1600D01*
X36477D01*
X35952Y2125D01*
Y4224D01*
X36477Y4749D01*
X34903D02*
X32804D01*
X33853D01*
Y1600D01*
D11*
X56809Y71959D02*
X59662Y74813D01*
X56809Y58728D02*
Y71959D01*
X55231Y82519D02*
X57500Y80250D01*
X59662Y74813D02*
X60978D01*
X57500Y76000D02*
Y80250D01*
X75106Y86000D02*
X80737Y80369D01*
X65500Y86000D02*
X75106D01*
X63908Y84408D02*
X65500Y86000D01*
X61524Y87957D02*
X75394D01*
X64561Y89544D02*
X81877D01*
X64361Y89744D02*
X64561Y89544D01*
X65219Y91132D02*
X85827D01*
X64750Y91600D02*
X65219Y91132D01*
X75394Y87957D02*
X81394Y81956D01*
X58896Y91600D02*
X64750D01*
X63908Y79803D02*
Y84408D01*
X63520Y89744D02*
X64361D01*
X81877Y89544D02*
X83121Y88300D01*
X61146Y87579D02*
X61524Y87957D01*
X85827Y91132D02*
X85833Y91138D01*
X62234Y78130D02*
X63908Y79803D01*
X61146Y78130D02*
X62234D01*
X59969Y84429D02*
Y84481D01*
X55231Y82519D02*
Y84481D01*
X56619Y85869D01*
X58581D01*
X59969Y84481D01*
Y84429D02*
X61146D01*
X35522Y84435D02*
X44721D01*
X51500Y91215D01*
X35500Y84457D02*
X35522Y84435D01*
X25512Y76988D02*
X25962D01*
X17368Y77119D02*
Y79536D01*
X14750Y74500D02*
X17368Y77119D01*
Y79536D02*
X19112Y81279D01*
X25512Y77500D02*
Y77512D01*
X24000Y58500D02*
Y72500D01*
X23012D02*
X24000D01*
X25962Y76988D02*
X27189Y75761D01*
X12213Y73687D02*
Y101963D01*
Y73687D02*
X13769Y72132D01*
X10625Y73030D02*
X13111Y70544D01*
X10625Y73030D02*
Y103725D01*
X8957Y72453D02*
Y111043D01*
Y72453D02*
X12729Y68681D01*
X13769Y72132D02*
X15981D01*
X13111Y70544D02*
X16639D01*
X12729Y68681D02*
X20201D01*
X10625Y103725D02*
X11400Y104500D01*
X12213Y101963D02*
X13769Y103519D01*
X22963Y72451D02*
Y76456D01*
X24000Y58500D02*
X24500Y58000D01*
X22963Y72451D02*
X23012Y72500D01*
X17500Y89116D02*
X18122Y89738D01*
X19112Y81279D02*
X20201D01*
X21782Y77637D02*
X22963Y76456D01*
X21376Y77637D02*
X21782D01*
X17232Y65531D02*
X20201D01*
X6700Y55000D02*
X17232Y65531D01*
X16782Y62382D02*
X20201D01*
X10500Y56100D02*
X16782Y62382D01*
X33043Y84457D02*
X35500D01*
X36000Y83957D01*
Y76522D02*
Y83957D01*
X35239Y75761D02*
X36000Y76522D01*
X27189Y75761D02*
X35239D01*
X20883Y78130D02*
X21376Y77637D01*
X20201Y78130D02*
X20883D01*
X16639Y70544D02*
X17925Y71831D01*
X15981Y72132D02*
X17368Y73519D01*
Y73908D02*
X17860Y74400D01*
X17368Y73519D02*
Y73908D01*
X17925Y71831D02*
X20201D01*
X94987Y93087D02*
X96000Y94100D01*
X57996Y92500D02*
X58896Y91600D01*
X89463Y85613D02*
X91113D01*
X89463Y82037D02*
Y85000D01*
X53012Y54931D02*
X56809Y58728D01*
X83121Y88300D02*
X85300D01*
X87783Y93087D02*
X94987D01*
X87529Y92833D02*
X87783Y93087D01*
X81394Y81956D02*
X86963D01*
X51500Y91215D02*
Y92303D01*
X15283Y56083D02*
X20201D01*
X14100Y54900D02*
X15283Y56083D01*
X14100Y45800D02*
Y54900D01*
X16032Y59232D02*
X20201D01*
X12400Y55600D02*
X16032Y59232D01*
X12400Y46832D02*
Y55600D01*
X10500Y50501D02*
Y56100D01*
X86921Y85000D02*
X89463D01*
X5000Y115000D02*
X8957Y111043D01*
X60978Y74813D02*
X61146Y74980D01*
X19621Y74400D02*
X20201Y74980D01*
X17860Y74400D02*
X19621D01*
X65000Y53431D02*
X68500D01*
X61644D02*
X65000D01*
X61146Y52933D02*
X61644Y53431D01*
X68500D02*
Y54500D01*
X12100Y107650D02*
X12250D01*
X13769Y106131D01*
Y103519D02*
Y106131D01*
X5000Y29432D02*
X9334Y33766D01*
Y41034D02*
X14100Y45800D01*
X9334Y33766D02*
Y41034D01*
X5000Y25000D02*
Y29432D01*
Y55000D02*
X6700D01*
X98187Y90113D02*
X103992D01*
X96000Y92300D02*
X98187Y90113D01*
X103992D02*
X105779Y91900D01*
X105800D01*
X91569Y77350D02*
X92650D01*
X95000Y75000D01*
X92563Y78937D02*
X98242D01*
X89463Y82037D02*
X92563Y78937D01*
X80737Y80369D02*
X86306D01*
X89887Y76787D01*
X98242Y78937D02*
X100179Y77000D01*
X5000Y39432D02*
X12400Y46832D01*
X5000Y45000D02*
X10500Y50501D01*
X29648Y52942D02*
Y52942D01*
X28706Y52000D02*
X29648Y52942D01*
X5000Y35000D02*
Y39432D01*
X28500Y52000D02*
X28706D01*
X67681Y68681D02*
X68500Y69500D01*
X61146Y68681D02*
X67681D01*
X72000Y19000D02*
Y27000D01*
X73000Y28000D01*
X96000Y93000D02*
Y94100D01*
Y92300D02*
Y93000D01*
X102000D02*
X103300Y94300D01*
X95000Y75000D02*
X101769Y68231D01*
X113232D02*
X120000Y75000D01*
X89887Y70113D02*
X95000Y65000D01*
X97523Y62477D01*
X117477D01*
X120000Y65000D01*
X101769Y68231D02*
X113232D01*
X29648Y52942D02*
X31638Y54931D01*
X53012D01*
X103300Y94300D02*
X105650D01*
X110861Y99512D02*
X115063D01*
X105650Y94300D02*
X110861Y99512D01*
X86963Y81956D02*
X91569Y77350D01*
X89887Y70113D02*
Y76787D01*
X100179Y77000D02*
X103300D01*
D14*
X36900Y117500D02*
D03*
X16900D02*
D03*
D31*
X70000Y59724D02*
D03*
Y55000D02*
D03*
Y50276D02*
D03*
D32*
X82000Y15000D02*
D03*
X88000D02*
D03*
X96098Y85387D02*
D03*
X102098D02*
D03*
X102000Y93000D02*
D03*
X96000D02*
D03*
X23000Y20000D02*
D03*
X29000D02*
D03*
X54000Y41200D02*
D03*
X60000D02*
D03*
X47000Y35000D02*
D03*
X41000D02*
D03*
X48000Y41000D02*
D03*
X42000D02*
D03*
X60000Y28000D02*
D03*
X54000D02*
D03*
X119000Y83000D02*
D03*
X113000D02*
D03*
D33*
X4000Y122500D02*
D03*
X111500Y5000D02*
D03*
D34*
X15100Y98500D02*
D03*
Y92500D02*
D03*
X28500Y32000D02*
D03*
Y26000D02*
D03*
D36*
X82500Y84700D02*
X85300D01*
X80817Y86383D02*
X82500Y84700D01*
D37*
X26500Y108000D02*
X28000Y109500D01*
X26500Y96000D02*
Y108000D01*
X32471Y29171D02*
X34100Y27542D01*
Y26100D02*
Y27542D01*
D38*
X80500Y62500D02*
X85325Y67325D01*
X80500Y48600D02*
Y62500D01*
X76400Y44500D02*
X80500Y48600D01*
X78000Y63535D02*
X79500Y65035D01*
X78000Y49635D02*
Y63535D01*
X75365Y47000D02*
X78000Y49635D01*
X90500Y98000D02*
X91000D01*
X91100Y98100D01*
X93150Y101050D02*
X93406D01*
X93757Y100700D02*
X100598D01*
X93406Y101050D02*
X93757Y100700D01*
X91100Y98100D02*
X101576D01*
X103473Y99997D01*
X100598Y100700D02*
X103952Y104053D01*
X79500Y65035D02*
X82632Y68168D01*
X79500Y65035D02*
Y65035D01*
X104894Y104954D02*
Y104996D01*
X103993Y104053D02*
X104894Y104954D01*
X103952Y104053D02*
X103993D01*
X59008Y47000D02*
X70000D01*
Y50276D01*
X56000Y44500D02*
X76400D01*
X70000Y47000D02*
X75365D01*
X85325Y78000D02*
Y78213D01*
Y67325D02*
Y78000D01*
X105128Y105230D02*
Y108150D01*
X104894Y104996D02*
X105128Y105230D01*
X54847Y45654D02*
Y48012D01*
Y45654D02*
X56000Y44500D01*
X107687Y104253D02*
Y108150D01*
X107394Y103918D02*
Y103960D01*
X107687Y104253D01*
X105029Y101553D02*
X107394Y103918D01*
X104987Y101553D02*
X105029D01*
X103473Y99997D02*
Y100039D01*
X104987Y101553D01*
X82606Y68194D02*
Y77569D01*
Y68194D02*
X82632Y68168D01*
X82175Y78000D02*
X82606Y77569D01*
X57996Y48012D02*
X59008Y47000D01*
D39*
X47300Y27300D02*
X49700D01*
X49000Y28000D02*
X54000D01*
X48000Y29000D02*
X49000Y28000D01*
X51300Y44200D02*
X54500Y41000D01*
X54000Y35000D02*
X54528D01*
X59076Y28948D02*
X59087Y28936D01*
X59076Y28948D02*
X59087Y28960D01*
Y30440D01*
X54528Y35000D02*
X59087Y30440D01*
X59064Y28936D02*
X60000Y28000D01*
X59064Y28936D02*
X59087D01*
X46350Y26350D02*
X47300Y27300D01*
X98032Y104577D02*
X98308Y104300D01*
X99500D01*
X79900Y29700D02*
X102000D01*
X79331Y29131D02*
X79900Y29700D01*
X54500Y37309D02*
Y41000D01*
X53332Y36140D02*
X54500Y37309D01*
X88000Y15000D02*
X95000D01*
X113000Y77000D02*
X119000Y83000D01*
X103300Y77000D02*
X113000D01*
X78000Y16500D02*
X80500D01*
X82000Y15000D01*
D40*
X120000Y75000D02*
D03*
X95000D02*
D03*
X5000Y115000D02*
D03*
D41*
X120000Y55000D02*
D03*
Y45000D02*
D03*
Y65000D02*
D03*
Y35000D02*
D03*
Y25000D02*
D03*
Y15000D02*
D03*
Y5000D02*
D03*
X95000Y55000D02*
D03*
Y45000D02*
D03*
Y65000D02*
D03*
Y35000D02*
D03*
Y25000D02*
D03*
Y15000D02*
D03*
Y5000D02*
D03*
X5000Y105000D02*
D03*
Y95000D02*
D03*
Y65000D02*
D03*
Y85000D02*
D03*
Y75000D02*
D03*
Y55000D02*
D03*
X5000Y15000D02*
D03*
Y5000D02*
D03*
X5000Y45000D02*
D03*
Y35000D02*
D03*
Y25000D02*
D03*
D42*
X67000Y19000D02*
D03*
X62000D02*
D03*
X72000D02*
D03*
X57000D02*
D03*
D43*
X52000D02*
D03*
D44*
X26900Y109000D02*
D03*
D45*
X93475Y117500D02*
D03*
X121900D02*
D03*
D46*
X57500Y76000D02*
D03*
X66500Y83000D02*
D03*
X113000Y49500D02*
D03*
Y40000D02*
D03*
X101000Y20500D02*
D03*
X112000D02*
D03*
X75000Y4000D02*
D03*
X87500D02*
D03*
X14000Y66000D02*
D03*
X38500Y88500D02*
D03*
X15000Y80500D02*
D03*
X25512Y77500D02*
D03*
X24000Y72500D02*
D03*
X25512Y81268D02*
D03*
X14750Y74500D02*
D03*
X20000Y92500D02*
D03*
X25500Y84500D02*
D03*
X24500Y58000D02*
D03*
X29000Y68000D02*
D03*
X7500Y70000D02*
D03*
X49500Y59000D02*
D03*
X42500Y58500D02*
D03*
X39000Y62000D02*
D03*
Y78500D02*
D03*
X32500Y81500D02*
D03*
Y62000D02*
D03*
X29000Y59000D02*
D03*
X48500Y80000D02*
D03*
X42500Y68500D02*
D03*
X52000D02*
D03*
X52500Y62500D02*
D03*
X43600Y88900D02*
D03*
X32500Y71500D02*
D03*
X33379Y86825D02*
D03*
X80100Y87100D02*
D03*
X42500Y82000D02*
D03*
X90500Y98000D02*
D03*
X93100Y104200D02*
D03*
X90000Y102100D02*
D03*
X90158Y105118D02*
D03*
X93150Y101050D02*
D03*
X97300Y103500D02*
D03*
X99500Y104300D02*
D03*
X74800Y52200D02*
D03*
X83900Y54700D02*
D03*
X73361Y59300D02*
D03*
X57600Y83500D02*
D03*
X108300Y80700D02*
D03*
X64100Y50300D02*
D03*
X56800Y52200D02*
D03*
X17200Y48800D02*
D03*
X5300Y60000D02*
D03*
X64900Y65300D02*
D03*
X65000Y75000D02*
D03*
Y56200D02*
D03*
X12100Y107650D02*
D03*
X11400Y104500D02*
D03*
X120200Y112200D02*
D03*
X85325Y78000D02*
D03*
X82175D02*
D03*
X105400Y88100D02*
D03*
X105800Y91900D02*
D03*
X79331Y29131D02*
D03*
X123200Y80800D02*
D03*
X123400Y69200D02*
D03*
X111300Y73700D02*
D03*
X114500Y73600D02*
D03*
X99300Y81300D02*
D03*
X105900Y35200D02*
D03*
X111600Y90400D02*
D03*
X57000Y9800D02*
D03*
X32800Y107500D02*
D03*
X31800Y104900D02*
D03*
X93500Y111800D02*
D03*
X30500Y102500D02*
D03*
Y99500D02*
D03*
X30700Y96600D02*
D03*
X21200Y107800D02*
D03*
X21700Y105200D02*
D03*
X22200Y102300D02*
D03*
X22500Y99500D02*
D03*
Y96500D02*
D03*
X78000Y69500D02*
D03*
X25000Y54500D02*
D03*
X37000Y37000D02*
D03*
X32016Y51961D02*
D03*
X28500Y52000D02*
D03*
X42000Y23000D02*
D03*
X70000Y31000D02*
D03*
X66000Y9000D02*
D03*
X71000D02*
D03*
X78000Y16500D02*
D03*
Y78500D02*
D03*
X65000Y40000D02*
D03*
X66000Y34000D02*
D03*
X96000Y81400D02*
D03*
X100200Y65500D02*
D03*
X81800Y93500D02*
D03*
X66200D02*
D03*
X85400Y59500D02*
D03*
X114400Y65600D02*
D03*
X115000Y59800D02*
D03*
X102000Y81000D02*
D03*
X111400Y70600D02*
D03*
X100000Y60000D02*
D03*
X100200Y50000D02*
D03*
X98100Y40200D02*
D03*
X112800Y31000D02*
D03*
X85400Y48891D02*
D03*
X85000Y43900D02*
D03*
X85200Y33400D02*
D03*
X77600Y40300D02*
D03*
X102000Y29700D02*
D03*
X89400Y25000D02*
D03*
X83600Y19400D02*
D03*
X74600Y32100D02*
D03*
X74700Y22700D02*
D03*
X38600Y39900D02*
D03*
X24500Y37800D02*
D03*
X10300Y9400D02*
D03*
X20300Y11000D02*
D03*
X28200D02*
D03*
X19700Y26900D02*
D03*
X34100Y26100D02*
D03*
X11600Y122800D02*
D03*
X11500Y110800D02*
D03*
X42300Y123000D02*
D03*
X42100Y118300D02*
D03*
Y111200D02*
D03*
X37600Y107500D02*
D03*
X16800D02*
D03*
X32000Y123200D02*
D03*
X21700Y123300D02*
D03*
X33800Y96600D02*
D03*
X37100D02*
D03*
X40200D02*
D03*
X43500D02*
D03*
X19000Y23300D02*
D03*
X35800Y32500D02*
D03*
X43800Y29400D02*
D03*
X104724Y97244D02*
D03*
X115768Y104728D02*
D03*
X103300Y77000D02*
D03*
X100300Y74200D02*
D03*
X109500Y85500D02*
D03*
D47*
X57996Y48012D02*
D03*
X54847D02*
D03*
X51697D02*
D03*
X48547D02*
D03*
X45398D02*
D03*
X42248D02*
D03*
X39098D02*
D03*
X35949D02*
D03*
X32799D02*
D03*
X29650D02*
D03*
X26500D02*
D03*
X23350D02*
D03*
Y92500D02*
D03*
X26500D02*
D03*
X29650D02*
D03*
X32799D02*
D03*
X35949D02*
D03*
X39098D02*
D03*
X42248D02*
D03*
X45398D02*
D03*
X48547D02*
D03*
X51697D02*
D03*
X54847D02*
D03*
X57996D02*
D03*
D48*
X20201Y52933D02*
D03*
Y56083D02*
D03*
Y59232D02*
D03*
Y62382D02*
D03*
Y65531D02*
D03*
Y68681D02*
D03*
Y71831D02*
D03*
Y74980D02*
D03*
Y78130D02*
D03*
Y81279D02*
D03*
Y84429D02*
D03*
Y87579D02*
D03*
X61146D02*
D03*
Y84429D02*
D03*
Y81279D02*
D03*
Y78130D02*
D03*
Y74980D02*
D03*
Y71831D02*
D03*
Y68681D02*
D03*
Y65531D02*
D03*
Y62382D02*
D03*
Y59232D02*
D03*
Y56083D02*
D03*
Y52933D02*
D03*
D49*
X40673Y70256D02*
D03*
Y80098D02*
D03*
X50516D02*
D03*
Y70256D02*
D03*
Y60413D02*
D03*
X40673D02*
D03*
X30830D02*
D03*
Y70256D02*
D03*
Y80098D02*
D03*
D50*
X67000Y28000D02*
D03*
X73000D02*
D03*
X28000Y38000D02*
D03*
X34000D02*
D03*
X74500Y69500D02*
D03*
X68500D02*
D03*
Y81000D02*
D03*
X74500D02*
D03*
X68500Y75500D02*
D03*
X74500D02*
D03*
D51*
X119000Y94000D02*
D03*
D52*
X122937Y99512D02*
D03*
X119000D02*
D03*
X115063D02*
D03*
X122937Y88488D02*
D03*
X119000D02*
D03*
X115063D02*
D03*
D53*
X22700Y27000D02*
D03*
X15300D02*
D03*
X19000Y37000D02*
D03*
D54*
X15000Y5700D02*
D03*
Y20300D02*
D03*
D55*
X107687Y108150D02*
D03*
X105128D02*
D03*
X110247D02*
D03*
X102569D02*
D03*
X112805D02*
D03*
D56*
X107687Y116536D02*
D03*
D57*
X33100Y119000D02*
D03*
X20550D02*
D03*
D58*
X26800Y112700D02*
D03*
D59*
X26900Y110500D02*
D03*
D60*
X40000Y29000D02*
D03*
X48000D02*
D03*
X62000Y35000D02*
D03*
X54000D02*
D03*
D61*
X85300Y90700D02*
D03*
Y84700D02*
D03*
X90300Y90700D02*
D03*
Y84700D02*
D03*
D62*
X47000Y35000D02*
Y43088D01*
X35100Y15100D02*
X46350Y26350D01*
X47300Y27300D02*
X47831Y27832D01*
X95000Y15000D02*
X120000D01*
X46454Y43634D02*
X47000Y43088D01*
X15000Y15100D02*
X35100D01*
X5000Y15000D02*
X15000D01*
D63*
X112758Y102916D02*
X115364Y105522D01*
X111784Y102916D02*
X115364Y106496D01*
X26500Y92500D02*
Y96000D01*
X115364Y105522D02*
Y106496D01*
X109916Y102916D02*
X111784D01*
X112758D01*
X109916Y102874D02*
Y102916D01*
X109962Y101683D02*
X111526D01*
X112758Y102916D01*
X104724Y97244D02*
X105523D01*
X104724Y97682D02*
X109916Y102874D01*
X104724Y97244D02*
Y97682D01*
X105523Y97244D02*
X109962Y101683D01*
D64*
X102300Y80700D02*
X108300D01*
X102000Y81000D02*
X102300Y80700D01*
X15000Y6700D02*
Y15000D01*
D65*
X28500Y32000D02*
X29000D01*
X22600D02*
X28500D01*
X105900Y35200D02*
X119800D01*
X95200D02*
X105900D01*
X15300Y21600D02*
Y27000D01*
X29000Y32000D02*
X32150Y28850D01*
X19000Y35600D02*
X22600Y32000D01*
X19000Y35600D02*
Y37000D01*
X95000Y55000D02*
X120000D01*
X95000Y45000D02*
X120000D01*
X95000Y25000D02*
X120000D01*
X119800Y35200D02*
X120000Y35000D01*
X95000D02*
X95200Y35200D01*
X15000Y20300D02*
X16600Y18700D01*
X21700D01*
X23000Y20000D01*
D66*
X111300Y85500D02*
X112400Y84400D01*
X109500Y85500D02*
X111300D01*
M02*
