%TF.GenerationSoftware,Altium Limited,Altium Designer,18.1.6 (161)*%
G04 Layer_Color=128*
%FSLAX26Y26*%
%MOIN*%
%TF.FileFunction,Paste,Bot*%
%TF.Part,Single*%
G01*
G75*
%TA.AperFunction,SMDPad,CuDef*%
%ADD11R,0.030000X0.034000*%
%ADD13R,0.060000X0.160000*%
%TA.AperFunction,FiducialPad,Global*%
%ADD14C,0.031496*%
%TA.AperFunction,SMDPad,CuDef*%
%ADD15R,0.034000X0.030000*%
%ADD31R,0.019685X0.031496*%
%ADD32R,0.031496X0.019685*%
%TA.AperFunction,BGAPad,CuDef*%
%ADD33R,0.062992X0.062992*%
%TA.AperFunction,SMDPad,CuDef*%
%ADD34R,0.024000X0.034000*%
G04:AMPARAMS|DCode=36|XSize=15.748mil|YSize=23.622mil|CornerRadius=3.937mil|HoleSize=0mil|Usage=FLASHONLY|Rotation=0.000|XOffset=0mil|YOffset=0mil|HoleType=Round|Shape=RoundedRectangle|*
%AMROUNDEDRECTD36*
21,1,0.015748,0.015748,0,0,0.0*
21,1,0.007874,0.023622,0,0,0.0*
1,1,0.007874,0.003937,-0.007874*
1,1,0.007874,-0.003937,-0.007874*
1,1,0.007874,-0.003937,0.007874*
1,1,0.007874,0.003937,0.007874*
%
%ADD36ROUNDEDRECTD36*%
%ADD37R,0.024000X0.039000*%
%ADD38R,0.028000X0.048000*%
%ADD39R,0.015748X0.051181*%
%ADD41R,0.042000X0.087000*%
%ADD42R,0.042000X0.042000*%
%ADD43R,0.060000X0.100000*%
%ADD44R,0.039000X0.049000*%
%ADD45R,0.034000X0.024000*%
%TA.AperFunction,NonConductor*%
%ADD51R,0.039370X0.055118*%
G36*
X927263Y1094486D02*
Y1070866D01*
X986323D01*
Y1094486D01*
X927263D01*
D02*
G37*
G36*
X1041443Y1196846D02*
Y1137796D01*
X1112303D01*
Y1196846D01*
X1041443D01*
D02*
G37*
G36*
X1167423Y1094486D02*
Y1070866D01*
X1226483D01*
Y1094486D01*
X1167423D01*
D02*
G37*
D11*
X230000Y200000D02*
D03*
X290000D02*
D03*
X540000Y412000D02*
D03*
X600000D02*
D03*
X470000Y350000D02*
D03*
X410000D02*
D03*
X480000Y410000D02*
D03*
X420000D02*
D03*
X1190000Y830000D02*
D03*
X1130000D02*
D03*
D13*
X369000Y1175000D02*
D03*
X169000D02*
D03*
D14*
X40000Y1220000D02*
D03*
X1092824Y30000D02*
D03*
D15*
X151000Y985000D02*
D03*
Y925000D02*
D03*
X285000Y320000D02*
D03*
Y260000D02*
D03*
D31*
X579961Y480118D02*
D03*
X548465D02*
D03*
X516968D02*
D03*
X485472D02*
D03*
X453976D02*
D03*
X422480D02*
D03*
X390984D02*
D03*
X359488D02*
D03*
X327992D02*
D03*
X296496D02*
D03*
X265000D02*
D03*
X233504D02*
D03*
Y925000D02*
D03*
X265000D02*
D03*
X296496D02*
D03*
X327992D02*
D03*
X359488D02*
D03*
X390984D02*
D03*
X422480D02*
D03*
X453976D02*
D03*
X485472D02*
D03*
X516968D02*
D03*
X548465D02*
D03*
X579961D02*
D03*
D32*
X202008Y529331D02*
D03*
Y560827D02*
D03*
Y592323D02*
D03*
Y623819D02*
D03*
Y655315D02*
D03*
Y686811D02*
D03*
Y718307D02*
D03*
Y749803D02*
D03*
Y781299D02*
D03*
Y812795D02*
D03*
Y844291D02*
D03*
Y875787D02*
D03*
X611457D02*
D03*
Y844291D02*
D03*
Y812795D02*
D03*
Y781299D02*
D03*
Y749803D02*
D03*
Y718307D02*
D03*
Y686811D02*
D03*
Y655315D02*
D03*
Y623819D02*
D03*
Y592323D02*
D03*
Y560827D02*
D03*
Y529331D02*
D03*
D33*
X406730Y702557D02*
D03*
Y800982D02*
D03*
X505156D02*
D03*
Y702557D02*
D03*
Y604131D02*
D03*
X406730D02*
D03*
X308305D02*
D03*
Y702557D02*
D03*
Y800982D02*
D03*
D34*
X670000Y280000D02*
D03*
X730000D02*
D03*
X280000Y380000D02*
D03*
X340000D02*
D03*
X745000Y695000D02*
D03*
X685000D02*
D03*
Y810000D02*
D03*
X745000D02*
D03*
X685000Y755000D02*
D03*
X745000D02*
D03*
D36*
X1229370Y995118D02*
D03*
X1190000D02*
D03*
X1150630D02*
D03*
X1229370Y884882D02*
D03*
X1190000D02*
D03*
X1150630D02*
D03*
D37*
X227000Y270000D02*
D03*
X153000D02*
D03*
X190000Y370000D02*
D03*
D38*
X150000Y57000D02*
D03*
Y203000D02*
D03*
D39*
X1076874Y1081496D02*
D03*
X1051283D02*
D03*
X1102465D02*
D03*
X1025693D02*
D03*
X1128055D02*
D03*
D41*
X331000Y1190000D02*
D03*
X205500D02*
D03*
D42*
X268000Y1127000D02*
D03*
D43*
X269000Y1105000D02*
D03*
D44*
X400000Y290000D02*
D03*
X480000D02*
D03*
X620000Y350000D02*
D03*
X540000D02*
D03*
D45*
X853000Y907000D02*
D03*
Y847000D02*
D03*
X903000Y907000D02*
D03*
Y847000D02*
D03*
D51*
X1215589Y940000D02*
D03*
X1163425Y940000D02*
D03*
%TF.MD5,91725444c49a2ae30cdea966a21267d0*%
M02*
