%TF.GenerationSoftware,Altium Limited,Altium Designer,18.1.6 (161)*%
G04 Layer_Color=8388736*
%FSLAX26Y26*%
%MOIN*%
%TF.FileFunction,Soldermask,Top*%
%TF.Part,Single*%
G01*
G75*
%TA.AperFunction,NonConductor*%
%ADD56R,0.033000X0.042000*%
%ADD57R,0.047244X0.086614*%
%TA.AperFunction,FiducialPad,Global*%
%ADD63C,0.037795*%
%TA.AperFunction,SMDPad,CuDef*%
%ADD71R,0.066299X0.166299*%
%ADD74R,0.040299X0.036299*%
%ADD75R,0.036299X0.040299*%
%ADD77R,0.045669X0.045669*%
%TA.AperFunction,ComponentPad*%
%ADD78R,0.061299X0.061299*%
%ADD79C,0.061299*%
%ADD80O,0.046299X0.053543*%
%ADD81R,0.046299X0.053543*%
%ADD82C,0.077299*%
%ADD83O,0.045669X0.065354*%
%TA.AperFunction,ViaPad*%
%ADD84C,0.018110*%
%TA.AperFunction,NonConductor*%
%ADD85R,0.042000X0.033000*%
%TA.AperFunction,SMDPad,CuDef*%
%ADD86R,0.037795X0.037795*%
D56*
X685500Y869000D02*
D03*
X574500Y565000D02*
D03*
D57*
X231000Y723002D02*
D03*
D63*
X1092824Y30000D02*
D03*
X40000Y1220000D02*
D03*
D71*
X369000Y1175000D02*
D03*
X169000D02*
D03*
D74*
X159000Y980000D02*
D03*
Y1040000D02*
D03*
Y863000D02*
D03*
Y923000D02*
D03*
D75*
X717000Y869000D02*
D03*
X657000D02*
D03*
X606000Y565000D02*
D03*
X546000D02*
D03*
D77*
X231000Y675756D02*
D03*
Y723000D02*
D03*
Y770244D02*
D03*
D78*
X1200000Y750000D02*
D03*
X950000D02*
D03*
X49997Y1150003D02*
D03*
D79*
X1200000Y550000D02*
D03*
Y450000D02*
D03*
Y650000D02*
D03*
Y350000D02*
D03*
Y250000D02*
D03*
Y150000D02*
D03*
Y50000D02*
D03*
X950000Y550000D02*
D03*
Y450000D02*
D03*
Y650000D02*
D03*
Y350000D02*
D03*
Y250000D02*
D03*
Y150000D02*
D03*
Y50000D02*
D03*
X49997Y1050003D02*
D03*
Y950003D02*
D03*
Y650003D02*
D03*
Y850003D02*
D03*
Y750003D02*
D03*
Y550003D02*
D03*
X50000Y150000D02*
D03*
Y50000D02*
D03*
X49997Y450003D02*
D03*
Y350003D02*
D03*
Y250003D02*
D03*
D80*
X670000Y190000D02*
D03*
X620000D02*
D03*
X720000D02*
D03*
X570000D02*
D03*
D81*
X520000D02*
D03*
D82*
X269000Y1090000D02*
D03*
D83*
X934748Y1175000D02*
D03*
X1219000D02*
D03*
D84*
X333794Y868252D02*
D03*
X801000Y871000D02*
D03*
X436000Y889000D02*
D03*
X535000Y886000D02*
D03*
X575000Y869000D02*
D03*
X905000Y980000D02*
D03*
X931000Y1042000D02*
D03*
X900000Y1021000D02*
D03*
X901575Y1051181D02*
D03*
X931496Y1010504D02*
D03*
X973000Y1035000D02*
D03*
X995000Y1043000D02*
D03*
X145000Y825000D02*
D03*
X748000Y522000D02*
D03*
X839000Y547000D02*
D03*
X273000Y752000D02*
D03*
X145000Y776000D02*
D03*
X733608Y593000D02*
D03*
X572000Y763000D02*
D03*
X576000Y835000D02*
D03*
X1083000Y807000D02*
D03*
X641000Y503000D02*
D03*
X568000Y522000D02*
D03*
X172000Y488000D02*
D03*
X109000Y652000D02*
D03*
X53000Y600000D02*
D03*
X237441Y633000D02*
D03*
X456000Y800000D02*
D03*
X253000Y604000D02*
D03*
X305000Y884000D02*
D03*
X253000Y842000D02*
D03*
X250000Y810000D02*
D03*
X145000Y743894D02*
D03*
X649000Y653000D02*
D03*
X650000Y750000D02*
D03*
Y562000D02*
D03*
X121000Y1076504D02*
D03*
X114000Y1045000D02*
D03*
X1202000Y1122000D02*
D03*
X853248Y780000D02*
D03*
X821752D02*
D03*
X1054000Y881000D02*
D03*
X1058000Y919000D02*
D03*
X793315Y291315D02*
D03*
X1232000Y808000D02*
D03*
X1234000Y692000D02*
D03*
X1113000Y737000D02*
D03*
X1145000Y736000D02*
D03*
X993000Y813000D02*
D03*
X1059000Y352000D02*
D03*
X1116000Y904000D02*
D03*
X570000Y98000D02*
D03*
X328000Y1075000D02*
D03*
X318000Y1049000D02*
D03*
X935000Y1118000D02*
D03*
X305000Y1025000D02*
D03*
Y995000D02*
D03*
X307000Y966000D02*
D03*
X212000Y1078000D02*
D03*
X217000Y1052000D02*
D03*
X222000Y1023000D02*
D03*
X225000Y995000D02*
D03*
Y965000D02*
D03*
X780000Y700000D02*
D03*
X357000Y605000D02*
D03*
X250000Y545000D02*
D03*
X307000Y653000D02*
D03*
X504000Y655000D02*
D03*
X357000Y802000D02*
D03*
X405000Y750000D02*
D03*
X455000Y654000D02*
D03*
X370000Y370000D02*
D03*
X650000Y810000D02*
D03*
X320163Y519606D02*
D03*
X285000Y520000D02*
D03*
X420000Y230000D02*
D03*
X700000Y310000D02*
D03*
X660000Y90000D02*
D03*
X710000D02*
D03*
X780000Y165000D02*
D03*
Y760000D02*
D03*
X650000Y400000D02*
D03*
X660000Y340000D02*
D03*
X960000Y814000D02*
D03*
X1002000Y655000D02*
D03*
X818000Y935000D02*
D03*
X662000D02*
D03*
X854000Y595000D02*
D03*
X1144000Y656000D02*
D03*
X1150000Y598000D02*
D03*
X1020000Y810000D02*
D03*
X1114000Y706000D02*
D03*
X1000000Y600000D02*
D03*
X1002000Y500000D02*
D03*
X981000Y402000D02*
D03*
X1128000Y310000D02*
D03*
X854000Y488910D02*
D03*
X850000Y439000D02*
D03*
X852000Y334000D02*
D03*
X776000Y403000D02*
D03*
X1020000Y297000D02*
D03*
X894000Y250000D02*
D03*
X836000Y194000D02*
D03*
X746000Y321000D02*
D03*
X747000Y227000D02*
D03*
X386000Y399000D02*
D03*
X245000Y378000D02*
D03*
X103000Y94000D02*
D03*
X203000Y110000D02*
D03*
X282000D02*
D03*
X197000Y269000D02*
D03*
X341000Y261000D02*
D03*
X116000Y1228000D02*
D03*
X115000Y1108000D02*
D03*
X423000Y1230000D02*
D03*
X421000Y1183000D02*
D03*
Y1112000D02*
D03*
X376000Y1075000D02*
D03*
X168000D02*
D03*
X320000Y1232000D02*
D03*
X217000Y1233000D02*
D03*
X338000Y966000D02*
D03*
X371000D02*
D03*
X402000D02*
D03*
X435000D02*
D03*
X455000Y573000D02*
D03*
X544000Y655000D02*
D03*
X190000Y233000D02*
D03*
X358000Y325000D02*
D03*
X438000Y294000D02*
D03*
X1047244Y972441D02*
D03*
X1157675Y1047277D02*
D03*
X1033000Y770000D02*
D03*
X1003000Y742000D02*
D03*
X1095000Y855000D02*
D03*
D85*
X159000Y1011500D02*
D03*
Y891500D02*
D03*
D86*
X540242Y757675D02*
D03*
X477250D02*
D03*
X540242Y375000D02*
D03*
X477250D02*
D03*
X540242Y843675D02*
D03*
X477250D02*
D03*
%TF.MD5,f2fa2f939cfa9c2372b9a90590a94036*%
M02*
