%TF.GenerationSoftware,Altium Limited,Altium Designer,18.1.6 (161)*%
G04 Layer_Color=65535*
%FSLAX26Y26*%
%MOIN*%
%TF.FileFunction,Legend,Top*%
%TF.Part,Single*%
G01*
G75*
%TA.AperFunction,NonConductor*%
%ADD23C,0.007874*%
%ADD53C,0.005906*%
%ADD54C,0.008000*%
G36*
X1230605Y1115580D02*
X1169597D01*
X1169105Y1115482D01*
X1168514Y1115383D01*
X1167727Y1115088D01*
X1166940Y1114793D01*
X1166054Y1114301D01*
X1165169Y1113612D01*
X1165070Y1113514D01*
X1164874Y1113317D01*
X1164480Y1112923D01*
X1164086Y1112333D01*
X1163693Y1111742D01*
X1163299Y1110955D01*
X1163102Y1110168D01*
X1163004Y1109282D01*
Y1099836D01*
X1230605D01*
Y1087142D01*
X1163004D01*
Y1077598D01*
Y1077499D01*
Y1077302D01*
X1163102Y1077007D01*
Y1076614D01*
X1163398Y1075630D01*
X1163890Y1074547D01*
X1164283Y1073957D01*
X1164775Y1073465D01*
X1165267Y1072874D01*
X1165956Y1072481D01*
X1166842Y1072087D01*
X1167727Y1071792D01*
X1168810Y1071595D01*
X1170089Y1071497D01*
X1230605D01*
Y1059098D01*
X1169302D01*
X1168711Y1059197D01*
X1168022Y1059295D01*
X1167137Y1059394D01*
X1166251Y1059492D01*
X1165267Y1059787D01*
X1163004Y1060378D01*
X1160642Y1061263D01*
X1159462Y1061854D01*
X1158182Y1062542D01*
X1157100Y1063330D01*
X1155919Y1064215D01*
X1155821Y1064314D01*
X1155624Y1064412D01*
X1155329Y1064707D01*
X1155034Y1065199D01*
X1154542Y1065691D01*
X1154050Y1066282D01*
X1153558Y1067069D01*
X1152967Y1067856D01*
X1151885Y1069824D01*
X1150901Y1072087D01*
X1150606Y1073366D01*
X1150310Y1074646D01*
X1150114Y1076122D01*
X1150015Y1077598D01*
Y1109282D01*
Y1109381D01*
Y1109578D01*
Y1110070D01*
X1150114Y1110562D01*
X1150212Y1111250D01*
X1150310Y1112038D01*
X1150802Y1113809D01*
X1151491Y1115875D01*
X1151983Y1116958D01*
X1152574Y1118040D01*
X1153262Y1119122D01*
X1154148Y1120303D01*
X1155034Y1121287D01*
X1156116Y1122370D01*
X1156214Y1122468D01*
X1156411Y1122566D01*
X1156706Y1122862D01*
X1157198Y1123255D01*
X1157789Y1123649D01*
X1158478Y1124141D01*
X1159265Y1124633D01*
X1160150Y1125125D01*
X1162217Y1126109D01*
X1164578Y1126994D01*
X1167235Y1127683D01*
X1168613Y1127782D01*
X1170089Y1127880D01*
X1230605D01*
Y1115580D01*
D02*
G37*
G36*
X1143127D02*
X1082119D01*
X1081627Y1115482D01*
X1081037Y1115383D01*
X1080250Y1115088D01*
X1079462Y1114793D01*
X1078577Y1114301D01*
X1077691Y1113612D01*
X1077593Y1113514D01*
X1077396Y1113317D01*
X1077002Y1112923D01*
X1076609Y1112333D01*
X1076215Y1111742D01*
X1075822Y1110955D01*
X1075625Y1110168D01*
X1075526Y1109282D01*
Y1077598D01*
Y1077499D01*
Y1077302D01*
X1075625Y1077007D01*
Y1076614D01*
X1075920Y1075630D01*
X1076412Y1074547D01*
X1076806Y1073957D01*
X1077298Y1073465D01*
X1077790Y1072874D01*
X1078478Y1072481D01*
X1079364Y1072087D01*
X1080250Y1071792D01*
X1081332Y1071595D01*
X1082611Y1071497D01*
X1143127D01*
Y1059098D01*
X1081824D01*
X1081234Y1059197D01*
X1080545Y1059295D01*
X1079659Y1059394D01*
X1078774Y1059492D01*
X1077790Y1059787D01*
X1075526Y1060378D01*
X1073165Y1061263D01*
X1071984Y1061854D01*
X1070705Y1062542D01*
X1069622Y1063330D01*
X1068442Y1064215D01*
X1068343Y1064314D01*
X1068146Y1064412D01*
X1067851Y1064707D01*
X1067556Y1065199D01*
X1067064Y1065691D01*
X1066572Y1066282D01*
X1066080Y1067069D01*
X1065490Y1067856D01*
X1064407Y1069824D01*
X1063423Y1072087D01*
X1063128Y1073366D01*
X1062833Y1074646D01*
X1062636Y1076122D01*
X1062538Y1077598D01*
Y1109282D01*
Y1109381D01*
Y1109578D01*
Y1110070D01*
X1062636Y1110562D01*
X1062734Y1111250D01*
X1062833Y1112038D01*
X1063325Y1113809D01*
X1064014Y1115875D01*
X1064506Y1116958D01*
X1065096Y1118040D01*
X1065785Y1119122D01*
X1066670Y1120303D01*
X1067556Y1121287D01*
X1068638Y1122370D01*
X1068737Y1122468D01*
X1068934Y1122566D01*
X1069229Y1122862D01*
X1069721Y1123255D01*
X1070311Y1123649D01*
X1071000Y1124141D01*
X1071787Y1124633D01*
X1072673Y1125125D01*
X1074739Y1126109D01*
X1077101Y1126994D01*
X1079758Y1127683D01*
X1081135Y1127782D01*
X1082611Y1127880D01*
X1143127D01*
Y1115580D01*
D02*
G37*
G36*
X1054370Y1059098D02*
X1041382D01*
Y1127880D01*
X1054370D01*
Y1059098D01*
D02*
G37*
G36*
X1013239Y1127683D02*
X1014026Y1127585D01*
X1014814Y1127486D01*
X1015798Y1127388D01*
X1016782Y1127093D01*
X1019045Y1126502D01*
X1021406Y1125617D01*
X1022686Y1125026D01*
X1023866Y1124338D01*
X1025047Y1123452D01*
X1026130Y1122566D01*
X1026228Y1122468D01*
X1026425Y1122370D01*
X1026720Y1122074D01*
X1027015Y1121582D01*
X1027507Y1121090D01*
X1027999Y1120500D01*
X1028491Y1119811D01*
X1029082Y1118926D01*
X1030164Y1117056D01*
X1031148Y1114694D01*
X1031443Y1113415D01*
X1031738Y1112136D01*
X1031935Y1110660D01*
X1032034Y1109184D01*
Y1105543D01*
Y1105445D01*
Y1105248D01*
Y1104854D01*
X1031935Y1104362D01*
X1031837Y1103772D01*
X1031738Y1103083D01*
X1031443Y1101509D01*
X1030754Y1099639D01*
X1029869Y1097573D01*
X1029278Y1096490D01*
X1028590Y1095506D01*
X1027802Y1094424D01*
X1026917Y1093440D01*
X1027015Y1093342D01*
X1027114Y1093243D01*
X1027409Y1092948D01*
X1027704Y1092456D01*
X1028098Y1091964D01*
X1028491Y1091374D01*
X1029475Y1089898D01*
X1030459Y1088126D01*
X1031246Y1086060D01*
X1031837Y1083895D01*
X1031935Y1082616D01*
X1032034Y1081435D01*
Y1059098D01*
X1019045D01*
Y1081337D01*
Y1081435D01*
Y1081829D01*
X1018946Y1082321D01*
X1018750Y1082911D01*
X1018553Y1083600D01*
X1018159Y1084289D01*
X1017569Y1084978D01*
X1016880Y1085568D01*
X1016782Y1085666D01*
X1016486Y1085765D01*
X1016093Y1086060D01*
X1015404Y1086355D01*
X1014715Y1086552D01*
X1013830Y1086847D01*
X1012944Y1086946D01*
X1011862Y1087044D01*
X964826D01*
Y1099738D01*
X1012550D01*
X1012944Y1099836D01*
X1014125Y1100033D01*
X1015502Y1100426D01*
X1016782Y1101115D01*
X1017372Y1101607D01*
X1017962Y1102198D01*
X1018356Y1102788D01*
X1018750Y1103575D01*
X1018946Y1104461D01*
X1019045Y1105445D01*
Y1109184D01*
Y1109282D01*
Y1109479D01*
Y1109774D01*
X1018946Y1110168D01*
X1018651Y1111152D01*
X1018159Y1112333D01*
X1017766Y1112923D01*
X1017274Y1113514D01*
X1016683Y1114006D01*
X1015994Y1114498D01*
X1015207Y1114891D01*
X1014223Y1115186D01*
X1013141Y1115383D01*
X1011862Y1115482D01*
X960890D01*
Y1059098D01*
X948000D01*
Y1127782D01*
X1012649D01*
X1013239Y1127683D01*
D02*
G37*
D23*
X504809Y773423D02*
X512683D01*
X504809Y741927D02*
X512683D01*
X449691D02*
Y773423D01*
X424898Y1075000D02*
Y1235000D01*
X112898Y1075000D02*
Y1235000D01*
X504809Y390748D02*
X512683D01*
X504809Y359252D02*
X512683D01*
X449691D02*
Y390748D01*
X504809Y859423D02*
X512683D01*
X504809Y827927D02*
X512683D01*
X449691D02*
Y859423D01*
X199000Y975000D02*
X207000Y957000D01*
X107000Y737000D02*
X151000Y720209D01*
X115000Y630000D02*
X132000Y618000D01*
X112898Y1075000D02*
X190000D01*
X342008Y1074178D02*
X424898Y1075000D01*
X787874Y270277D02*
Y293892D01*
X799681Y305699D01*
X811488Y293892D01*
Y270277D01*
Y287988D01*
X787874D01*
X823296Y305699D02*
Y270277D01*
X841006D01*
X846910Y276181D01*
Y299796D01*
X841006Y305699D01*
X823296D01*
X858717Y270277D02*
Y293892D01*
X870524Y305699D01*
X882332Y293892D01*
Y270277D01*
Y287988D01*
X858717D01*
X787874Y208874D02*
Y244296D01*
X805585D01*
X811488Y238392D01*
Y226585D01*
X805585Y220681D01*
X787874D01*
X823296Y244296D02*
Y208874D01*
X841006D01*
X846910Y214778D01*
Y220681D01*
X841006Y226585D01*
X823296D01*
X841006D01*
X846910Y232488D01*
Y238392D01*
X841006Y244296D01*
X823296D01*
X858717Y214778D02*
X864621Y208874D01*
X876428D01*
X882332Y214778D01*
Y238392D01*
X876428Y244296D01*
X864621D01*
X858717Y238392D01*
Y232488D01*
X864621Y226585D01*
X882332D01*
X1148000Y850486D02*
Y819000D01*
Y834743D01*
X1168991D01*
Y850486D01*
Y819000D01*
X1179486Y845238D02*
X1184734Y850486D01*
X1195229D01*
X1200476Y845238D01*
Y839991D01*
X1195229Y834743D01*
X1200476Y829495D01*
Y824248D01*
X1195229Y819000D01*
X1184734D01*
X1179486Y824248D01*
Y829495D01*
X1184734Y834743D01*
X1179486Y839991D01*
Y845238D01*
X1184734Y834743D02*
X1195229D01*
X879000Y848486D02*
Y817000D01*
Y832743D01*
X899991D01*
Y848486D01*
Y817000D01*
X931476Y848486D02*
X910486D01*
Y832743D01*
X920981Y837991D01*
X926229D01*
X931476Y832743D01*
Y822248D01*
X926229Y817000D01*
X915734D01*
X910486Y822248D01*
X123000Y108486D02*
Y77000D01*
Y92743D01*
X143991D01*
Y108486D01*
Y77000D01*
X170229D02*
Y108486D01*
X154486Y92743D01*
X175476D01*
X424000Y140486D02*
Y109000D01*
Y124743D01*
X444991D01*
Y140486D01*
Y109000D01*
X455486Y135238D02*
X460734Y140486D01*
X471229D01*
X476476Y135238D01*
Y129991D01*
X471229Y124743D01*
X465981D01*
X471229D01*
X476476Y119495D01*
Y114248D01*
X471229Y109000D01*
X460734D01*
X455486Y114248D01*
X457008Y170000D02*
X467503D01*
X462256D01*
Y201486D01*
X457008Y196238D01*
X891000Y1052000D02*
X870009D01*
X859514Y1062495D01*
X870009Y1072991D01*
X891000D01*
X875257D01*
Y1052000D01*
X891000Y1083486D02*
X859514D01*
X891000Y1104476D01*
X859514D01*
X891000Y1114972D02*
Y1125467D01*
Y1120219D01*
X859514D01*
X864762Y1114972D01*
X294991Y739486D02*
X284495D01*
X289743D01*
Y713248D01*
X284495Y708000D01*
X279248D01*
X274000Y713248D01*
X305486D02*
X310734Y708000D01*
X321229D01*
X326476Y713248D01*
Y734238D01*
X321229Y739486D01*
X310734D01*
X305486Y734238D01*
Y728991D01*
X310734Y723743D01*
X326476D01*
X694991Y828486D02*
X684495D01*
X689743D01*
Y802248D01*
X684495Y797000D01*
X679248D01*
X674000Y802248D01*
X705486Y797000D02*
X715981D01*
X710734D01*
Y828486D01*
X705486Y823238D01*
X731724D02*
X736972Y828486D01*
X747467D01*
X752715Y823238D01*
Y802248D01*
X747467Y797000D01*
X736972D01*
X731724Y802248D01*
Y823238D01*
X482000Y728486D02*
Y707495D01*
X492495Y697000D01*
X502991Y707495D01*
Y728486D01*
X513486Y723238D02*
X518734Y728486D01*
X529229D01*
X534476Y723238D01*
Y717991D01*
X529229Y712743D01*
X523981D01*
X529229D01*
X534476Y707495D01*
Y702248D01*
X529229Y697000D01*
X518734D01*
X513486Y702248D01*
X482250Y439486D02*
Y418495D01*
X492745Y408000D01*
X503241Y418495D01*
Y439486D01*
X513736Y408000D02*
X524231D01*
X518984D01*
Y439486D01*
X513736Y434238D01*
X482000Y816486D02*
Y795495D01*
X492495Y785000D01*
X502991Y795495D01*
Y816486D01*
X534476Y785000D02*
X513486D01*
X534476Y805991D01*
Y811238D01*
X529229Y816486D01*
X518734D01*
X513486Y811238D01*
X216990Y945486D02*
X206495D01*
X211743D01*
Y919248D01*
X206495Y914000D01*
X201248D01*
X196000Y919248D01*
X227486Y914000D02*
X237981D01*
X232733D01*
Y945486D01*
X227486Y940238D01*
X216990Y888486D02*
X206495D01*
X211743D01*
Y862248D01*
X206495Y857000D01*
X201248D01*
X196000Y862248D01*
X227486Y888486D02*
X248476D01*
Y883238D01*
X227486Y862248D01*
Y857000D01*
X567991Y636486D02*
X557495D01*
X562743D01*
Y610248D01*
X557495Y605000D01*
X552248D01*
X547000Y610248D01*
X578486Y631238D02*
X583734Y636486D01*
X594229D01*
X599476Y631238D01*
Y625991D01*
X594229Y620743D01*
X599476Y615495D01*
Y610248D01*
X594229Y605000D01*
X583734D01*
X578486Y610248D01*
Y615495D01*
X583734Y620743D01*
X578486Y625991D01*
Y631238D01*
X583734Y620743D02*
X594229D01*
X711000Y257000D02*
Y288486D01*
X726743D01*
X731990Y283238D01*
Y272743D01*
X726743Y267495D01*
X711000D01*
X721495D02*
X731990Y257000D01*
X658500Y288486D02*
Y257000D01*
X674243D01*
X679490Y262248D01*
Y283238D01*
X674243Y288486D01*
X658500D01*
X574490Y283238D02*
X569243Y288486D01*
X558748D01*
X553500Y283238D01*
Y262248D01*
X558748Y257000D01*
X569243D01*
X574490Y262248D01*
X772000Y928486D02*
Y897000D01*
Y907495D01*
X792991Y928486D01*
X777248Y912743D01*
X792991Y897000D01*
X824476Y928486D02*
X803486D01*
Y897000D01*
X824476D01*
X803486Y912743D02*
X813981D01*
X834972Y928486D02*
X855962D01*
X845467D01*
Y897000D01*
X887448Y923238D02*
X882201Y928486D01*
X871705D01*
X866458Y923238D01*
Y902248D01*
X871705Y897000D01*
X882201D01*
X887448Y902248D01*
X897944Y917991D02*
Y902248D01*
X903191Y897000D01*
X918934D01*
Y917991D01*
X929429Y928486D02*
Y897000D01*
X945173D01*
X950420Y902248D01*
Y907495D01*
Y912743D01*
X945173Y917991D01*
X929429D01*
X976658Y897000D02*
X966163D01*
X960915Y902248D01*
Y912743D01*
X966163Y917991D01*
X976658D01*
X981906Y912743D01*
Y907495D01*
X960915D01*
X992401Y891752D02*
X1013392D01*
X1023887Y897000D02*
X1034382D01*
X1029135D01*
Y928486D01*
X1023887Y923238D01*
X1050126D02*
X1055373Y928486D01*
X1065869D01*
X1071116Y923238D01*
Y917991D01*
X1065869Y912743D01*
X1071116Y907495D01*
Y902248D01*
X1065869Y897000D01*
X1055373D01*
X1050126Y902248D01*
Y907495D01*
X1055373Y912743D01*
X1050126Y917991D01*
Y923238D01*
X1055373Y912743D02*
X1065869D01*
X1081611Y923238D02*
X1086859Y928486D01*
X1097354D01*
X1102602Y923238D01*
Y902248D01*
X1097354Y897000D01*
X1086859D01*
X1081611Y902248D01*
Y923238D01*
X1134088Y928486D02*
X1113097D01*
Y912743D01*
X1123593Y917991D01*
X1128840D01*
X1134088Y912743D01*
Y902248D01*
X1128840Y897000D01*
X1118345D01*
X1113097Y902248D01*
X1197060Y923238D02*
X1191812Y928486D01*
X1181317D01*
X1176069Y923238D01*
Y902248D01*
X1181317Y897000D01*
X1191812D01*
X1197060Y902248D01*
X1207555Y897000D02*
X1218050D01*
X1212803D01*
Y928486D01*
X1207555Y923238D01*
X606000Y265679D02*
X632238D01*
X501000Y267679D02*
X527238D01*
X514119Y280798D02*
Y254560D01*
X329000Y65000D02*
Y104357D01*
X348679D01*
X355238Y97798D01*
Y84679D01*
X348679Y78119D01*
X329000D01*
X368357Y91238D02*
Y65000D01*
Y78119D01*
X374917Y84679D01*
X381476Y91238D01*
X388036D01*
X414274Y65000D02*
X427394D01*
X433953Y71560D01*
Y84679D01*
X427394Y91238D01*
X414274D01*
X407715Y84679D01*
Y71560D01*
X414274Y65000D01*
X460191Y51881D02*
X466751D01*
X473310Y58440D01*
Y91238D01*
X453632D01*
X447072Y84679D01*
Y71560D01*
X453632Y65000D01*
X473310D01*
X675614Y363518D02*
X669711Y369422D01*
X657904D01*
X652000Y363518D01*
Y357614D01*
X657904Y351711D01*
X669711D01*
X675614Y345807D01*
Y339904D01*
X669711Y334000D01*
X657904D01*
X652000Y339904D01*
X711036Y363518D02*
X705132Y369422D01*
X693325D01*
X687422Y363518D01*
Y339904D01*
X693325Y334000D01*
X705132D01*
X711036Y339904D01*
X722843Y369422D02*
Y334000D01*
X746458D01*
X758265Y351711D02*
X781879D01*
X793686Y334000D02*
Y369422D01*
X811397D01*
X817301Y363518D01*
Y351711D01*
X811397Y345807D01*
X793686D01*
X829108Y369422D02*
Y334000D01*
X846819D01*
X852722Y339904D01*
Y345807D01*
X846819Y351711D01*
X829108D01*
X846819D01*
X852722Y357614D01*
Y363518D01*
X846819Y369422D01*
X829108D01*
X864530Y363518D02*
X870433Y369422D01*
X882240D01*
X888144Y363518D01*
Y357614D01*
X882240Y351711D01*
X888144Y345807D01*
Y339904D01*
X882240Y334000D01*
X870433D01*
X864530Y339904D01*
Y345807D01*
X870433Y351711D01*
X864530Y357614D01*
Y363518D01*
X870433Y351711D02*
X882240D01*
X121000Y570000D02*
Y605422D01*
X138711D01*
X144614Y599518D01*
Y587711D01*
X138711Y581807D01*
X121000D01*
X132807D02*
X144614Y570000D01*
X180036Y599518D02*
X174132Y605422D01*
X162325D01*
X156422Y599518D01*
Y593614D01*
X162325Y587711D01*
X174132D01*
X180036Y581807D01*
Y575904D01*
X174132Y570000D01*
X162325D01*
X156422Y575904D01*
X191843Y605422D02*
X215458D01*
X203650D01*
Y570000D01*
X227265Y587711D02*
X250879D01*
X262686Y570000D02*
Y605422D01*
X286301Y570000D01*
Y605422D01*
X298108Y570000D02*
Y605422D01*
X315819D01*
X321722Y599518D01*
Y587711D01*
X315819Y581807D01*
X298108D01*
X309915D02*
X321722Y570000D01*
X357144Y599518D02*
X351240Y605422D01*
X339433D01*
X333530Y599518D01*
Y593614D01*
X339433Y587711D01*
X351240D01*
X357144Y581807D01*
Y575904D01*
X351240Y570000D01*
X339433D01*
X333530Y575904D01*
X368951Y605422D02*
X392566D01*
X380758D01*
Y570000D01*
X193000Y638000D02*
X172009D01*
X161514Y648495D01*
X172009Y658991D01*
X193000D01*
X177257D01*
Y638000D01*
X193000Y669486D02*
X161514D01*
X193000Y690476D01*
X161514D01*
X177257Y700972D02*
Y721962D01*
X193000Y732458D02*
X161514D01*
Y748201D01*
X166762Y753448D01*
X177257D01*
X182505Y748201D01*
Y732458D01*
X193000Y763944D02*
X172009D01*
X161514Y774439D01*
X172009Y784934D01*
X193000D01*
X177257D01*
Y763944D01*
X193000Y811173D02*
X161514D01*
X177257Y795429D01*
Y816420D01*
X274000Y844000D02*
Y875486D01*
X289743D01*
X294991Y870238D01*
Y859743D01*
X289743Y854495D01*
X274000D01*
X305486Y844000D02*
Y864991D01*
X315981Y875486D01*
X326476Y864991D01*
Y844000D01*
Y859743D01*
X305486D01*
X357962Y875486D02*
X336972D01*
Y859743D01*
X347467Y864991D01*
X352715D01*
X357962Y859743D01*
Y849248D01*
X352715Y844000D01*
X342219D01*
X336972Y849248D01*
X368458Y844000D02*
X389448Y864991D01*
X399944Y870238D02*
X405191Y875486D01*
X415687D01*
X420934Y870238D01*
Y849248D01*
X415687Y844000D01*
X405191D01*
X399944Y849248D01*
Y870238D01*
X273000Y899000D02*
Y930486D01*
X288743D01*
X293991Y925238D01*
Y914743D01*
X288743Y909495D01*
X273000D01*
X304486Y899000D02*
Y919991D01*
X314981Y930486D01*
X325476Y919991D01*
Y899000D01*
Y914743D01*
X304486D01*
X335972Y925238D02*
X341219Y930486D01*
X351715D01*
X356962Y925238D01*
Y919991D01*
X351715Y914743D01*
X356962Y909495D01*
Y904248D01*
X351715Y899000D01*
X341219D01*
X335972Y904248D01*
Y909495D01*
X341219Y914743D01*
X335972Y919991D01*
Y925238D01*
X341219Y914743D02*
X351715D01*
X367458Y899000D02*
X388448Y919991D01*
X398944Y930486D02*
Y909495D01*
X409439Y899000D01*
X419934Y909495D01*
Y930486D01*
X430430Y919991D02*
Y899000D01*
Y909495D01*
X435677Y914743D01*
X440925Y919991D01*
X446173D01*
X477658Y899000D02*
X467163D01*
X461915Y904248D01*
Y914743D01*
X467163Y919991D01*
X477658D01*
X482906Y914743D01*
Y909495D01*
X461915D01*
X498649Y899000D02*
Y925238D01*
Y914743D01*
X493401D01*
X503897D01*
X498649D01*
Y925238D01*
X503897Y930486D01*
X273000Y954000D02*
Y985486D01*
X288743D01*
X293991Y980238D01*
Y969743D01*
X288743Y964495D01*
X273000D01*
X304486Y954000D02*
Y974991D01*
X314981Y985486D01*
X325476Y974991D01*
Y954000D01*
Y969743D01*
X304486D01*
X335972Y959248D02*
X341219Y954000D01*
X351715D01*
X356962Y959248D01*
Y980238D01*
X351715Y985486D01*
X341219D01*
X335972Y980238D01*
Y974991D01*
X341219Y969743D01*
X356962D01*
X273000Y1009000D02*
Y1040486D01*
X288743D01*
X293991Y1035238D01*
Y1024743D01*
X288743Y1019495D01*
X273000D01*
X304486Y1009000D02*
Y1029991D01*
X314981Y1040486D01*
X325476Y1029991D01*
Y1009000D01*
Y1024743D01*
X304486D01*
X335972Y1009000D02*
X346467D01*
X341219D01*
Y1040486D01*
X335972Y1035238D01*
X362210D02*
X367458Y1040486D01*
X377953D01*
X383201Y1035238D01*
Y1014248D01*
X377953Y1009000D01*
X367458D01*
X362210Y1014248D01*
Y1035238D01*
X142614Y536518D02*
X136711Y542422D01*
X124904D01*
X119000Y536518D01*
Y512904D01*
X124904Y507000D01*
X136711D01*
X142614Y512904D01*
X178036Y536518D02*
X172132Y542422D01*
X160325D01*
X154422Y536518D01*
Y530614D01*
X160325Y524711D01*
X172132D01*
X178036Y518807D01*
Y512904D01*
X172132Y507000D01*
X160325D01*
X154422Y512904D01*
X189843Y524711D02*
X213458D01*
X225265Y507000D02*
Y542422D01*
X242976D01*
X248879Y536518D01*
Y524711D01*
X242976Y518807D01*
X225265D01*
X260686Y542422D02*
Y507000D01*
X278397D01*
X284301Y512904D01*
Y518807D01*
X278397Y524711D01*
X260686D01*
X278397D01*
X284301Y530614D01*
Y536518D01*
X278397Y542422D01*
X260686D01*
X296108Y507000D02*
X307915D01*
X302012D01*
Y542422D01*
X296108Y536518D01*
X349240Y507000D02*
X325626D01*
X349240Y530614D01*
Y536518D01*
X343337Y542422D01*
X331530D01*
X325626Y536518D01*
X140614Y460518D02*
X134711Y466422D01*
X122904D01*
X117000Y460518D01*
Y454614D01*
X122904Y448711D01*
X134711D01*
X140614Y442807D01*
Y436904D01*
X134711Y431000D01*
X122904D01*
X117000Y436904D01*
X176036Y460518D02*
X170132Y466422D01*
X158325D01*
X152422Y460518D01*
Y436904D01*
X158325Y431000D01*
X170132D01*
X176036Y436904D01*
X187843Y466422D02*
Y431000D01*
Y442807D01*
X211458Y466422D01*
X193747Y448711D01*
X211458Y431000D01*
X223265Y448711D02*
X246879D01*
X258686Y431000D02*
Y466422D01*
X276397D01*
X282301Y460518D01*
Y448711D01*
X276397Y442807D01*
X258686D01*
X294108Y466422D02*
Y431000D01*
X311819D01*
X317722Y436904D01*
Y442807D01*
X311819Y448711D01*
X294108D01*
X311819D01*
X317722Y454614D01*
Y460518D01*
X311819Y466422D01*
X294108D01*
X329530Y431000D02*
X341337D01*
X335433D01*
Y466422D01*
X329530Y460518D01*
X359048D02*
X364951Y466422D01*
X376758D01*
X382662Y460518D01*
Y454614D01*
X376758Y448711D01*
X370855D01*
X376758D01*
X382662Y442807D01*
Y436904D01*
X376758Y431000D01*
X364951D01*
X359048Y436904D01*
X117000Y234000D02*
Y269422D01*
X128807Y257614D01*
X140614Y269422D01*
Y234000D01*
X170132Y269422D02*
X158325D01*
X152422Y263518D01*
Y239904D01*
X158325Y234000D01*
X170132D01*
X176036Y239904D01*
Y263518D01*
X170132Y269422D01*
X211458Y263518D02*
X205554Y269422D01*
X193747D01*
X187843Y263518D01*
Y257614D01*
X193747Y251711D01*
X205554D01*
X211458Y245807D01*
Y239904D01*
X205554Y234000D01*
X193747D01*
X187843Y239904D01*
X223265Y269422D02*
X235072D01*
X229168D01*
Y234000D01*
X223265D01*
X235072D01*
X252783Y251711D02*
X276397D01*
X288204Y234000D02*
Y269422D01*
X305915D01*
X311819Y263518D01*
Y251711D01*
X305915Y245807D01*
X288204D01*
X323626Y269422D02*
Y234000D01*
X341337D01*
X347240Y239904D01*
Y245807D01*
X341337Y251711D01*
X323626D01*
X341337D01*
X347240Y257614D01*
Y263518D01*
X341337Y269422D01*
X323626D01*
X359048Y234000D02*
X370855D01*
X364951D01*
Y269422D01*
X359048Y263518D01*
X412180Y269422D02*
X388566D01*
Y251711D01*
X400373Y257614D01*
X406276D01*
X412180Y251711D01*
Y239904D01*
X406276Y234000D01*
X394469D01*
X388566Y239904D01*
X117000Y333000D02*
Y368422D01*
X128807Y356614D01*
X140614Y368422D01*
Y333000D01*
X152422Y368422D02*
X164229D01*
X158325D01*
Y333000D01*
X152422D01*
X164229D01*
X205554Y362518D02*
X199650Y368422D01*
X187843D01*
X181940Y362518D01*
Y356614D01*
X187843Y350711D01*
X199650D01*
X205554Y344807D01*
Y338904D01*
X199650Y333000D01*
X187843D01*
X181940Y338904D01*
X235072Y368422D02*
X223265D01*
X217361Y362518D01*
Y338904D01*
X223265Y333000D01*
X235072D01*
X240976Y338904D01*
Y362518D01*
X235072Y368422D01*
X252783Y350711D02*
X276397D01*
X288204Y333000D02*
Y368422D01*
X305915D01*
X311819Y362518D01*
Y350711D01*
X305915Y344807D01*
X288204D01*
X323626Y368422D02*
Y333000D01*
X341337D01*
X347240Y338904D01*
Y344807D01*
X341337Y350711D01*
X323626D01*
X341337D01*
X347240Y356614D01*
Y362518D01*
X341337Y368422D01*
X323626D01*
X359048Y333000D02*
X370855D01*
X364951D01*
Y368422D01*
X359048Y362518D01*
X406276Y333000D02*
Y368422D01*
X388566Y350711D01*
X412180D01*
X657904Y665429D02*
X669711D01*
X663807D01*
Y630008D01*
X657904D01*
X669711D01*
X687422D02*
Y665429D01*
X711036Y630008D01*
Y665429D01*
X722843D02*
X746458D01*
X734650D01*
Y630008D01*
X758265Y647718D02*
X781879D01*
X793686Y630008D02*
Y665429D01*
X811397D01*
X817301Y659526D01*
Y647718D01*
X811397Y641815D01*
X793686D01*
X829108Y665429D02*
Y630008D01*
X846819D01*
X852722Y635911D01*
Y641815D01*
X846819Y647718D01*
X829108D01*
X846819D01*
X852722Y653622D01*
Y659526D01*
X846819Y665429D01*
X829108D01*
X864530D02*
X888144D01*
Y659526D01*
X864530Y635911D01*
Y630008D01*
X652000Y733000D02*
Y768422D01*
X669711D01*
X675614Y762518D01*
Y750711D01*
X669711Y744807D01*
X652000D01*
X687422Y768422D02*
Y733000D01*
X699229Y744807D01*
X711036Y733000D01*
Y768422D01*
X722843Y733000D02*
Y768422D01*
X734650Y756614D01*
X746458Y768422D01*
Y733000D01*
X758265Y750711D02*
X781879D01*
X793686Y733000D02*
Y768422D01*
X811397D01*
X817301Y762518D01*
Y750711D01*
X811397Y744807D01*
X793686D01*
X829108Y768422D02*
Y733000D01*
X846819D01*
X852722Y738904D01*
Y744807D01*
X846819Y750711D01*
X829108D01*
X846819D01*
X852722Y756614D01*
Y762518D01*
X846819Y768422D01*
X829108D01*
X888144Y733000D02*
X864530D01*
X888144Y756614D01*
Y762518D01*
X882240Y768422D01*
X870433D01*
X864530Y762518D01*
X688422Y530000D02*
Y565422D01*
X706132D01*
X712036Y559518D01*
Y547711D01*
X706132Y541807D01*
X688422D01*
X700229D02*
X712036Y530000D01*
X723843Y565422D02*
X747458Y530000D01*
Y565422D02*
X723843Y530000D01*
X759265Y547711D02*
X782879D01*
X794686Y530000D02*
Y565422D01*
X812397D01*
X818301Y559518D01*
Y547711D01*
X812397Y541807D01*
X794686D01*
X830108Y530000D02*
Y553614D01*
X841915Y565422D01*
X853722Y553614D01*
Y530000D01*
Y547711D01*
X830108D01*
X865530Y559518D02*
X871433Y565422D01*
X883240D01*
X889144Y559518D01*
Y553614D01*
X883240Y547711D01*
X877337D01*
X883240D01*
X889144Y541807D01*
Y535904D01*
X883240Y530000D01*
X871433D01*
X865530Y535904D01*
X687422Y467422D02*
X711036D01*
X699229D01*
Y432000D01*
X722843Y467422D02*
X746458Y432000D01*
Y467422D02*
X722843Y432000D01*
X758265Y449711D02*
X781879D01*
X793686Y432000D02*
Y467422D01*
X811397D01*
X817301Y461518D01*
Y449711D01*
X811397Y443807D01*
X793686D01*
X829108Y432000D02*
Y455614D01*
X840915Y467422D01*
X852722Y455614D01*
Y432000D01*
Y449711D01*
X829108D01*
X888144Y432000D02*
X864530D01*
X888144Y455614D01*
Y461518D01*
X882240Y467422D01*
X870433D01*
X864530Y461518D01*
X810614Y56518D02*
X804711Y62422D01*
X792904D01*
X787000Y56518D01*
Y32904D01*
X792904Y27000D01*
X804711D01*
X810614Y32904D01*
Y44711D01*
X798807D01*
X822422Y27000D02*
Y62422D01*
X846036Y27000D01*
Y62422D01*
X857843D02*
Y27000D01*
X875554D01*
X881458Y32904D01*
Y56518D01*
X875554Y62422D01*
X857843D01*
X1070614Y166422D02*
X1047000D01*
Y148711D01*
X1058807Y154614D01*
X1064711D01*
X1070614Y148711D01*
Y136904D01*
X1064711Y131000D01*
X1052904D01*
X1047000Y136904D01*
X1082422Y166422D02*
Y142807D01*
X1094229Y131000D01*
X1106036Y142807D01*
Y166422D01*
X117000Y160518D02*
X122904Y166422D01*
X134711D01*
X140614Y160518D01*
Y154614D01*
X134711Y148711D01*
X128807D01*
X134711D01*
X140614Y142807D01*
Y136904D01*
X134711Y131000D01*
X122904D01*
X117000Y136904D01*
X152422Y166422D02*
Y142807D01*
X164229Y131000D01*
X176036Y142807D01*
Y166422D01*
X187843Y160518D02*
X193747Y166422D01*
X205554D01*
X211458Y160518D01*
Y154614D01*
X205554Y148711D01*
X199650D01*
X205554D01*
X211458Y142807D01*
Y136904D01*
X205554Y131000D01*
X193747D01*
X187843Y136904D01*
X140614Y54518D02*
X134711Y60422D01*
X122904D01*
X117000Y54518D01*
Y30904D01*
X122904Y25000D01*
X134711D01*
X140614Y30904D01*
Y42711D01*
X128807D01*
X152422Y25000D02*
Y60422D01*
X176036Y25000D01*
Y60422D01*
X187843D02*
Y25000D01*
X205554D01*
X211458Y30904D01*
Y54518D01*
X205554Y60422D01*
X187843D01*
X842614Y153422D02*
X819000D01*
Y135711D01*
X830807Y141614D01*
X836711D01*
X842614Y135711D01*
Y123904D01*
X836711Y118000D01*
X824904D01*
X819000Y123904D01*
X854422Y153422D02*
Y129807D01*
X866229Y118000D01*
X878036Y129807D01*
Y153422D01*
X1049614Y92518D02*
X1043711Y98422D01*
X1031904D01*
X1026000Y92518D01*
Y68904D01*
X1031904Y63000D01*
X1043711D01*
X1049614Y68904D01*
Y80711D01*
X1037807D01*
X1061422Y63000D02*
Y98422D01*
X1085036Y63000D01*
Y98422D01*
X1096843D02*
Y63000D01*
X1114554D01*
X1120458Y68904D01*
Y92518D01*
X1114554Y98422D01*
X1096843D01*
D53*
X750000Y4000D02*
Y242000D01*
X489000D02*
X750000D01*
X489000Y4000D02*
X750000D01*
X489000D02*
Y242000D01*
X203441Y648197D02*
Y797803D01*
X258559D01*
Y648197D02*
Y797803D01*
X203441Y648197D02*
X258559D01*
X635000Y845000D02*
X739000D01*
Y893000D01*
X635000D02*
X739000D01*
X635000Y845000D02*
Y893000D01*
X135000Y958000D02*
Y1062000D01*
Y958000D02*
X183000D01*
Y1062000D01*
X135000D02*
X183000D01*
X135000Y841000D02*
X183000D01*
X135000D02*
Y945000D01*
X183000D01*
Y841000D02*
Y945000D01*
X524000Y541000D02*
X628000D01*
Y589000D01*
X524000D02*
X628000D01*
X524000Y541000D02*
Y589000D01*
D54*
X1250000Y0D02*
Y800000D01*
X1150000Y799997D02*
X1250000Y800000D01*
X1150000Y0D02*
X1250000D01*
X1150000D02*
Y800000D01*
X1000000Y0D02*
Y800000D01*
X900000Y799997D02*
X1000000Y800000D01*
X900000Y0D02*
X1000000D01*
X900000D02*
Y800000D01*
X99997Y3D02*
Y1188001D01*
X-3Y1187998D02*
X99997Y1188001D01*
X-3Y3D02*
X99997D01*
X-3D02*
Y1187998D01*
X820181Y1227795D02*
X839866Y1208110D01*
X599709Y1090000D02*
X717819D01*
X839866Y971890D02*
Y1208110D01*
X820181Y952205D02*
X839866Y971890D01*
X690260Y1090000D02*
X717819Y1062441D01*
X690260Y1090000D02*
X717819Y1117559D01*
X485535Y1227795D02*
X820181D01*
X485535Y1119528D02*
Y1227795D01*
X445000Y1119528D02*
X485535D01*
Y952205D02*
X820181D01*
X485535D02*
Y1060472D01*
X442000D02*
X485535D01*
X1119000Y756000D02*
X1128997D01*
X1123998D01*
Y785990D01*
X1119000Y780992D01*
X1019000Y738000D02*
X1028997D01*
X1023998D01*
Y767990D01*
X1019000Y762992D01*
X85000Y1212000D02*
X94997D01*
X89998D01*
Y1241990D01*
X85000Y1236992D01*
%TF.MD5,ad293c693712ab427309c0ad7a41d6e2*%
M02*
