%TF.GenerationSoftware,Altium Limited,Altium Designer,18.1.6 (161)*%
G04 Layer_Physical_Order=2*
G04 Layer_Color=16711680*
%FSLAX26Y26*%
%MOIN*%
%TF.FileFunction,Copper,L2,Bot,Signal*%
%TF.Part,Single*%
G01*
G75*
%TA.AperFunction,SMDPad,CuDef*%
%ADD10R,0.039370X0.039370*%
%ADD11R,0.030000X0.034000*%
%ADD13R,0.060000X0.160000*%
%TA.AperFunction,FiducialPad,Global*%
%ADD14C,0.031496*%
%TA.AperFunction,SMDPad,CuDef*%
%ADD15R,0.034000X0.030000*%
%TA.AperFunction,Conductor*%
%ADD16C,0.007874*%
%ADD18C,0.010000*%
%ADD19C,0.040000*%
%ADD20C,0.015000*%
%ADD21C,0.008000*%
%ADD22C,0.020000*%
%TA.AperFunction,NonConductor*%
%ADD23C,0.007874*%
%TA.AperFunction,ComponentPad*%
%ADD24R,0.055000X0.055000*%
%ADD25C,0.055000*%
%ADD26O,0.040000X0.047244*%
%ADD27R,0.040000X0.047244*%
%ADD28C,0.071000*%
%ADD29O,0.039370X0.059055*%
%TA.AperFunction,ViaPad*%
%ADD30C,0.023622*%
%TA.AperFunction,SMDPad,CuDef*%
%ADD31R,0.019685X0.031496*%
%ADD32R,0.031496X0.019685*%
%TA.AperFunction,BGAPad,CuDef*%
%ADD33R,0.062992X0.062992*%
%TA.AperFunction,SMDPad,CuDef*%
%ADD34R,0.024000X0.034000*%
%ADD35R,0.094488X0.059055*%
G04:AMPARAMS|DCode=36|XSize=15.748mil|YSize=23.622mil|CornerRadius=3.937mil|HoleSize=0mil|Usage=FLASHONLY|Rotation=0.000|XOffset=0mil|YOffset=0mil|HoleType=Round|Shape=RoundedRectangle|*
%AMROUNDEDRECTD36*
21,1,0.015748,0.015748,0,0,0.0*
21,1,0.007874,0.023622,0,0,0.0*
1,1,0.007874,0.003937,-0.007874*
1,1,0.007874,-0.003937,-0.007874*
1,1,0.007874,-0.003937,0.007874*
1,1,0.007874,0.003937,0.007874*
%
%ADD36ROUNDEDRECTD36*%
%ADD37R,0.024000X0.039000*%
%ADD38R,0.028000X0.048000*%
%ADD39R,0.015748X0.051181*%
%TA.AperFunction,SMDPad,SMDef*%
%ADD40R,0.153540X0.086610*%
%TA.AperFunction,SMDPad,CuDef*%
%ADD41R,0.042000X0.087000*%
%ADD42R,0.042000X0.042000*%
%ADD43R,0.060000X0.100000*%
%ADD44R,0.039000X0.049000*%
%ADD45R,0.034000X0.024000*%
%TA.AperFunction,Conductor*%
%ADD46C,0.039370*%
%ADD47C,0.019685*%
%ADD48C,0.025000*%
%ADD49C,0.016000*%
%ADD50C,0.011811*%
G36*
X1034000Y1056764D02*
X1029697Y1052462D01*
X1028431Y1051616D01*
X999490Y1022675D01*
X957971D01*
X957971Y1056928D01*
X1007927Y1056927D01*
X1017203Y1066203D01*
X1034000D01*
Y1056764D01*
D02*
G37*
G36*
X1249808Y1059276D02*
X1098323Y1033660D01*
X1097244Y1034277D01*
X1092743Y1040032D01*
X1094306Y1048032D01*
X1118213D01*
Y1114961D01*
X1009945D01*
Y1070743D01*
X1004158Y1064956D01*
X957971Y1064956D01*
X954899Y1064345D01*
X952294Y1062605D01*
X950554Y1060000D01*
X949943Y1056928D01*
X949943Y1031475D01*
X941943Y1027198D01*
X939177Y1029047D01*
X931496Y1030575D01*
X923815Y1029047D01*
X917304Y1024696D01*
X912953Y1018185D01*
X911425Y1010504D01*
X912161Y1006803D01*
X906074Y999901D01*
X906004Y999871D01*
X905000Y1000071D01*
X897319Y998543D01*
X893827Y996209D01*
X885827Y1000041D01*
X885827Y1219965D01*
X1249808D01*
Y1059276D01*
D02*
G37*
G36*
X1062000Y994180D02*
Y965626D01*
X1051481Y955107D01*
X1033001D01*
X1033000Y955107D01*
X1031830Y954874D01*
X1006524D01*
X1005748Y955028D01*
X987001Y955027D01*
X987000Y955027D01*
X982874Y954874D01*
X974997Y955029D01*
X974938Y955029D01*
X971998Y955028D01*
X971223Y954874D01*
X937126D01*
Y942981D01*
X892576D01*
X885827Y950981D01*
Y959959D01*
X893827Y963791D01*
X897319Y961457D01*
X905000Y959929D01*
X912681Y961457D01*
X918469Y965325D01*
X1015759D01*
X1021758Y966518D01*
X1026843Y969916D01*
X1045813Y988886D01*
X1046660Y990153D01*
X1054000Y997494D01*
X1062000Y994180D01*
D02*
G37*
G36*
X429677Y1249609D02*
X437008Y1241611D01*
X437008Y948622D01*
X318150D01*
Y952559D01*
X300204D01*
X293115Y960000D01*
Y1047126D01*
X306874D01*
Y1068109D01*
X306887Y1068126D01*
X311258Y1078677D01*
X312748Y1090000D01*
X311258Y1101323D01*
X306887Y1111874D01*
X306874Y1111891D01*
Y1162874D01*
X306461Y1163078D01*
X300635Y1169331D01*
Y1249611D01*
X429668D01*
X429677Y1249609D01*
D02*
G37*
G36*
X864766Y946000D02*
X866414Y943597D01*
X867834Y938000D01*
X866729Y936894D01*
X866546Y936620D01*
X856799Y926874D01*
X828126D01*
Y923420D01*
X648610D01*
X647744Y924287D01*
X647561Y924561D01*
X643633Y927185D01*
X639000Y928107D01*
X597677D01*
Y946000D01*
X864766Y946000D01*
D02*
G37*
G36*
X1005748Y913000D02*
X987001D01*
X998998Y923998D01*
X999000Y935001D01*
X987001Y946999D01*
X1005748Y947000D01*
Y913000D01*
D02*
G37*
G36*
X991000Y931000D02*
Y929000D01*
X974994Y912995D01*
X972000D01*
Y947000D01*
X974999Y947001D01*
X991000Y931000D01*
D02*
G37*
G36*
X237334Y1169331D02*
X231482Y1163051D01*
X231126Y1162874D01*
Y1111891D01*
X231113Y1111874D01*
X226742Y1101323D01*
X225252Y1090000D01*
X226742Y1078677D01*
X231113Y1068126D01*
X231126Y1068109D01*
Y1047126D01*
X236886D01*
Y960000D01*
X229796Y952559D01*
X211850D01*
Y930905D01*
X233504D01*
Y919095D01*
X211850D01*
Y909483D01*
X181279D01*
X181279Y909483D01*
X181042Y909715D01*
X175874Y916579D01*
Y947874D01*
X133422D01*
Y1013805D01*
X146245Y1026629D01*
X146246Y1026629D01*
X148870Y1030556D01*
X149792Y1035189D01*
X149792Y1035190D01*
Y1061315D01*
X148870Y1065948D01*
X146246Y1069876D01*
X146245Y1069876D01*
X140830Y1075292D01*
X141071Y1076504D01*
X139543Y1084185D01*
X135192Y1090696D01*
X128681Y1095047D01*
X121000Y1096575D01*
X113319Y1095047D01*
X109674Y1092611D01*
X101674Y1096316D01*
Y1110433D01*
X100752Y1115066D01*
X98128Y1118994D01*
X98127Y1118994D01*
X85371Y1131751D01*
Y1185377D01*
X68566D01*
X65851Y1193377D01*
X66287Y1193713D01*
X72195Y1201412D01*
X75909Y1210378D01*
X77176Y1220000D01*
X75909Y1229622D01*
X72195Y1238588D01*
X69876Y1241611D01*
X73821Y1249611D01*
X237334D01*
Y1169331D01*
D02*
G37*
G36*
X934638Y885332D02*
X938103Y878747D01*
X938103D01*
X938103Y878747D01*
Y828999D01*
X972178D01*
X972977Y828840D01*
X975970D01*
X976770Y828999D01*
X983851D01*
X983851Y828999D01*
X987629Y828852D01*
X987658Y828857D01*
X987978Y828845D01*
X1006725D01*
X1007501Y828999D01*
X1043851D01*
Y841831D01*
X1060279D01*
X1060279Y841831D01*
X1062000Y840418D01*
Y836000D01*
X1150227Y826197D01*
X1152875Y818648D01*
X1122451Y788224D01*
X1041158D01*
X1040681Y788543D01*
X1033000Y790071D01*
X1025319Y788543D01*
X1018808Y784192D01*
X1017414Y782107D01*
X1006807D01*
X990979Y797935D01*
X987051Y800559D01*
X982418Y801481D01*
X982418Y801481D01*
X930641D01*
X912995Y819126D01*
X916309Y827126D01*
X927874D01*
Y866874D01*
X916413D01*
X915759Y867311D01*
X911126Y868233D01*
X894626D01*
X892848Y867879D01*
X887961Y874050D01*
X887905Y874874D01*
X900157Y887126D01*
X927874D01*
Y887126D01*
X931388Y888582D01*
X934638Y885332D01*
D02*
G37*
G36*
X274843Y897441D02*
X281417D01*
X286012Y889441D01*
X284929Y884000D01*
X286457Y876319D01*
X290808Y869808D01*
X297319Y865457D01*
X301581Y864609D01*
X300793Y856609D01*
X288828D01*
X271300Y874137D01*
X267393Y876748D01*
X262784Y877664D01*
X262784Y877664D01*
X259455D01*
X247070Y890050D01*
X250131Y897441D01*
X255157D01*
Y901378D01*
X274843D01*
Y897441D01*
D02*
G37*
G36*
X556485Y888926D02*
X560392Y886315D01*
X565000Y885398D01*
X565000Y885399D01*
X587835D01*
Y860253D01*
X586999Y858902D01*
X584165Y856345D01*
X579835Y854308D01*
X576000Y855071D01*
X568319Y853543D01*
X561808Y849192D01*
X557457Y842681D01*
X556462Y837681D01*
X548462Y838469D01*
Y844289D01*
X511061D01*
Y806887D01*
X548462D01*
Y831531D01*
X556462Y832319D01*
X557457Y827319D01*
X561808Y820808D01*
X568319Y816457D01*
X576000Y814929D01*
X580583Y815841D01*
X582301Y814123D01*
X582301Y814122D01*
X586208Y811512D01*
X587835Y811188D01*
Y785847D01*
X581004Y781235D01*
X579681Y781543D01*
X572000Y783071D01*
X564319Y781543D01*
X557808Y777192D01*
X556462Y775179D01*
X548462Y777605D01*
Y795076D01*
X511061D01*
Y757675D01*
X546596D01*
X548462Y757675D01*
X554710Y753444D01*
X557808Y748808D01*
X560841Y746781D01*
X562631Y737257D01*
X559526Y734152D01*
X556902Y730224D01*
X556462Y728017D01*
X548462Y728805D01*
Y745864D01*
X511061D01*
Y702556D01*
Y659250D01*
X547980D01*
X548462Y659249D01*
X555980Y658085D01*
Y648603D01*
X548462Y647438D01*
Y647438D01*
X511061D01*
Y604131D01*
X505156D01*
Y598226D01*
X461849D01*
Y561422D01*
X450037D01*
Y598226D01*
X406730D01*
X363423D01*
Y561422D01*
X351612D01*
Y598226D01*
X308305D01*
X264998D01*
Y560824D01*
X299450D01*
X302764Y552824D01*
X289179Y539239D01*
X285000Y540071D01*
X277319Y538543D01*
X270808Y534192D01*
X266457Y527681D01*
X264929Y520000D01*
X266457Y512319D01*
X266844Y511740D01*
X262568Y503740D01*
X225934D01*
X225630Y511614D01*
X225630D01*
Y543110D01*
Y574606D01*
Y608328D01*
X233630Y613687D01*
X237441Y612929D01*
X245122Y614457D01*
X251633Y618808D01*
X255984Y625319D01*
X256998Y630418D01*
X264998Y629630D01*
Y610037D01*
X302400D01*
Y647438D01*
X264998D01*
Y636370D01*
X256998Y635582D01*
X255984Y640681D01*
X251633Y647192D01*
X245122Y651543D01*
X241737Y652216D01*
Y765370D01*
X241737Y765370D01*
X240815Y770003D01*
X238191Y773931D01*
X225630Y786491D01*
Y796641D01*
X233630Y799067D01*
X235808Y795808D01*
X242319Y791457D01*
X250000Y789929D01*
X256998Y791321D01*
X258094Y791189D01*
X264998Y786725D01*
Y757675D01*
X302400D01*
Y800981D01*
X308305D01*
Y806887D01*
X351612D01*
Y832460D01*
X363423D01*
Y806887D01*
X406730D01*
X450037D01*
Y828000D01*
X453849Y830362D01*
X461849Y825908D01*
Y806887D01*
X499250D01*
Y844289D01*
X474718D01*
X471656Y851680D01*
X521355Y901378D01*
X544032D01*
X556485Y888926D01*
D02*
G37*
G36*
X1006725Y836873D02*
X987978D01*
X999975Y847871D01*
X999977Y858874D01*
X987978Y870872D01*
X1006725Y870873D01*
Y836873D01*
D02*
G37*
G36*
X991977Y854873D02*
Y852873D01*
X975970Y836868D01*
X972977D01*
Y870873D01*
X975976Y870874D01*
X991977Y854873D01*
D02*
G37*
G36*
X1164626Y768400D02*
Y731747D01*
X1127300Y694422D01*
X1022700D01*
X985374Y731747D01*
Y758844D01*
X992765Y761906D01*
X993231Y761440D01*
X993232Y761439D01*
X997159Y758815D01*
X1001792Y757893D01*
X1001793Y757893D01*
X1017414D01*
X1018808Y755808D01*
X1025319Y751457D01*
X1033000Y749929D01*
X1040681Y751457D01*
X1041158Y751776D01*
X1129999D01*
X1130000Y751776D01*
X1136974Y753163D01*
X1142887Y757114D01*
X1157235Y771462D01*
X1164626Y768400D01*
D02*
G37*
G36*
X798809Y795125D02*
X803209Y787681D01*
X801681Y780000D01*
X803209Y772319D01*
X807560Y765808D01*
X810388Y763918D01*
Y687911D01*
X783916Y661439D01*
X783916Y661439D01*
X768916Y646439D01*
X765518Y641354D01*
X764325Y635355D01*
Y502848D01*
X747152Y485675D01*
X727559D01*
Y522441D01*
Y565976D01*
X733609Y572929D01*
X741289Y574457D01*
X747801Y578808D01*
X752151Y585319D01*
X753679Y593000D01*
X752151Y600681D01*
X747801Y607192D01*
X741289Y611543D01*
X733609Y613071D01*
X727559Y618035D01*
Y624803D01*
X701203D01*
X700000Y625042D01*
X685000D01*
X683797Y624803D01*
X672441D01*
Y578246D01*
X664441Y575820D01*
X664192Y576192D01*
X657681Y580543D01*
X650000Y582071D01*
X643079Y580694D01*
X641757Y580914D01*
X635079Y585327D01*
Y633662D01*
X639016D01*
Y649409D01*
X611457D01*
Y661220D01*
X639016D01*
Y674704D01*
X665126D01*
Y670126D01*
X704874D01*
Y719874D01*
X665126D01*
Y698918D01*
X635079D01*
Y726673D01*
X641757Y731086D01*
X643079Y731306D01*
X650000Y729929D01*
X657126Y731347D01*
X657623Y731325D01*
X665126Y730126D01*
Y730126D01*
X665126Y730126D01*
X704874D01*
Y779874D01*
X704874D01*
Y785126D01*
X704874D01*
Y834874D01*
X665126D01*
Y833190D01*
X657912Y828687D01*
X657126Y828653D01*
X650000Y830071D01*
X643079Y828694D01*
X641757Y828914D01*
X636401Y832453D01*
X635874Y840701D01*
X646067Y850893D01*
X743040D01*
X798809Y795125D01*
D02*
G37*
G36*
X1249808Y815133D02*
Y10035D01*
X1225633D01*
X1222917Y18035D01*
X1228037Y21963D01*
X1234338Y30175D01*
X1238299Y39738D01*
X1238873Y44094D01*
X1200000D01*
X1161127D01*
X1161701Y39738D01*
X1165662Y30175D01*
X1171963Y21963D01*
X1177083Y18035D01*
X1174367Y10035D01*
X1133108D01*
X1127763Y18035D01*
X1128733Y20378D01*
X1130000Y30000D01*
X1128733Y39622D01*
X1125019Y48588D01*
X1119111Y56288D01*
X1111412Y62196D01*
X1102446Y65909D01*
X1092824Y67176D01*
X1083202Y65909D01*
X1074236Y62196D01*
X1066536Y56288D01*
X1060628Y48588D01*
X1056914Y39622D01*
X1055648Y30000D01*
X1056914Y20378D01*
X1057885Y18035D01*
X1052540Y10035D01*
X975633D01*
X972917Y18035D01*
X978037Y21963D01*
X984338Y30175D01*
X988299Y39738D01*
X988873Y44094D01*
X950000D01*
X911127D01*
X911701Y39738D01*
X915662Y30175D01*
X921963Y21963D01*
X927083Y18035D01*
X924367Y10035D01*
X427748Y10035D01*
Y63234D01*
X312290D01*
Y10035D01*
X75633D01*
X72918Y18035D01*
X78037Y21963D01*
X84338Y30175D01*
X88299Y39738D01*
X88873Y44094D01*
X50000D01*
Y50000D01*
X44094D01*
Y88873D01*
X39738Y88299D01*
X30175Y84338D01*
X21963Y78037D01*
X18035Y72918D01*
X10035Y75633D01*
Y133143D01*
X18035Y134734D01*
X19101Y132160D01*
X24771Y124771D01*
X32160Y119101D01*
X40766Y115537D01*
X50000Y114321D01*
X59234Y115537D01*
X67840Y119101D01*
X71883Y122203D01*
X129227D01*
Y88874D01*
X128126D01*
Y25126D01*
X171874D01*
Y88874D01*
X170773D01*
Y123203D01*
X351000D01*
X358194Y124150D01*
X364898Y126927D01*
X370655Y131345D01*
X483155Y243845D01*
X487280Y249220D01*
X492655Y253345D01*
X494086Y254776D01*
X497000D01*
X503974Y256163D01*
X507374Y257626D01*
X515300Y257448D01*
X517126Y256548D01*
Y255126D01*
X553476D01*
X554252Y254972D01*
X572999Y254973D01*
X573000Y254973D01*
X577126Y255126D01*
X585003Y254971D01*
X585062Y254971D01*
X588002Y254972D01*
X588777Y255126D01*
X622874D01*
Y304874D01*
X609004D01*
X607710Y311378D01*
X603760Y317290D01*
X603759Y317290D01*
X567374Y353676D01*
Y382374D01*
X563224D01*
Y410000D01*
X562874Y411761D01*
Y429325D01*
X764000D01*
X769999Y430518D01*
X775084Y433916D01*
X816084Y474916D01*
X819482Y480001D01*
X820675Y486000D01*
Y525948D01*
X828675Y530224D01*
X831319Y528457D01*
X839000Y526929D01*
X846681Y528457D01*
X853192Y532808D01*
X854629Y534958D01*
X917942D01*
X919101Y532160D01*
X924771Y524771D01*
X932160Y519101D01*
X940765Y515537D01*
X950000Y514321D01*
X959235Y515537D01*
X967840Y519101D01*
X975229Y524771D01*
X980899Y532160D01*
X981585Y533815D01*
X1168416D01*
X1169101Y532160D01*
X1174771Y524771D01*
X1182160Y519101D01*
X1190765Y515537D01*
X1200000Y514321D01*
X1209235Y515537D01*
X1217840Y519101D01*
X1225229Y524771D01*
X1230899Y532160D01*
X1234464Y540765D01*
X1235679Y550000D01*
X1234464Y559235D01*
X1230899Y567840D01*
X1225229Y575229D01*
X1217840Y580899D01*
X1209235Y584463D01*
X1200000Y585679D01*
X1190765Y584463D01*
X1182160Y580899D01*
X1174771Y575229D01*
X1169101Y567840D01*
X1168416Y566185D01*
X981585D01*
X980899Y567840D01*
X975229Y575229D01*
X967840Y580899D01*
X959235Y584463D01*
X950000Y585679D01*
X940765Y584463D01*
X932160Y580899D01*
X924771Y575229D01*
X919101Y567840D01*
X915537Y559235D01*
X915511Y559042D01*
X854629D01*
X853192Y561192D01*
X846681Y565543D01*
X839000Y567071D01*
X831319Y565543D01*
X828675Y563776D01*
X820675Y568052D01*
Y618507D01*
X864332Y662164D01*
X867730Y667249D01*
X868923Y673248D01*
Y768028D01*
X869467Y768841D01*
X878991Y770631D01*
X886767Y762855D01*
Y701126D01*
X886767Y701126D01*
X887689Y696493D01*
X890313Y692565D01*
X917911Y664967D01*
X915537Y659235D01*
X914321Y650000D01*
X915537Y640765D01*
X919101Y632160D01*
X924771Y624771D01*
X932160Y619101D01*
X940765Y615537D01*
X950000Y614321D01*
X959235Y615537D01*
X964967Y617911D01*
X966668Y616210D01*
X970596Y613586D01*
X975229Y612664D01*
X975230Y612664D01*
X1174771D01*
X1174771Y612664D01*
X1179404Y613586D01*
X1183332Y616210D01*
X1185033Y617911D01*
X1190765Y615537D01*
X1200000Y614321D01*
X1209235Y615537D01*
X1217840Y619101D01*
X1225229Y624771D01*
X1230899Y632160D01*
X1234464Y640765D01*
X1235679Y650000D01*
X1234464Y659235D01*
X1230899Y667840D01*
X1225229Y675229D01*
X1217840Y680899D01*
X1209235Y684463D01*
X1200000Y685679D01*
X1190765Y684463D01*
X1182160Y680899D01*
X1174771Y675229D01*
X1169101Y667840D01*
X1165536Y659235D01*
X1164321Y650000D01*
X1164995Y644878D01*
X1159247Y636878D01*
X990753D01*
X985005Y644878D01*
X985679Y650000D01*
X984463Y659235D01*
X980899Y667840D01*
X975229Y675229D01*
X967840Y680899D01*
X959235Y684463D01*
X950000Y685679D01*
X940765Y684463D01*
X935033Y682089D01*
X910981Y706141D01*
Y708136D01*
X914626Y714626D01*
X968253D01*
X1009124Y673755D01*
X1009124Y673754D01*
X1013052Y671130D01*
X1017685Y670208D01*
X1132314D01*
X1132315Y670208D01*
X1136948Y671130D01*
X1140876Y673754D01*
X1181747Y714626D01*
X1235374D01*
Y785374D01*
X1181600D01*
X1178538Y792765D01*
X1190899Y805126D01*
X1212874D01*
Y813239D01*
X1218835Y818574D01*
X1249808Y815133D01*
D02*
G37*
G36*
X19098Y732164D02*
X24768Y724774D01*
X32157Y719104D01*
X40762Y715540D01*
X49997Y714324D01*
X59231Y715540D01*
X67836Y719104D01*
X69644Y720491D01*
X70199Y720522D01*
X78242Y717005D01*
X78382Y716300D01*
X81006Y712372D01*
X115128Y678251D01*
X115128Y678250D01*
X119056Y675626D01*
X123689Y674704D01*
X123689Y674704D01*
X167921D01*
X168709Y666704D01*
X167682Y666500D01*
X163754Y663876D01*
X163754Y663875D01*
X75161Y575282D01*
X67836Y580902D01*
X59231Y584467D01*
X49997Y585682D01*
X40762Y584467D01*
X32157Y580902D01*
X24768Y575232D01*
X19098Y567843D01*
X18035Y565277D01*
X10035Y566868D01*
Y633138D01*
X18035Y634730D01*
X19098Y632164D01*
X24768Y624774D01*
X32157Y619104D01*
X40762Y615540D01*
X49997Y614324D01*
X59231Y615540D01*
X67836Y619104D01*
X75226Y624774D01*
X80896Y632164D01*
X84460Y640769D01*
X85676Y650003D01*
X84460Y659238D01*
X80896Y667843D01*
X75226Y675232D01*
X67836Y680902D01*
X59231Y684467D01*
X49997Y685682D01*
X40762Y684467D01*
X32157Y680902D01*
X24768Y675232D01*
X19098Y667843D01*
X18035Y665277D01*
X10035Y666868D01*
Y733138D01*
X18035Y734730D01*
X19098Y732164D01*
D02*
G37*
G36*
X587835Y557183D02*
Y511614D01*
X587835D01*
X587531Y503740D01*
X538622D01*
Y507677D01*
X522874D01*
Y480118D01*
X511063D01*
Y507677D01*
X495315D01*
Y503740D01*
X412638D01*
Y507677D01*
X396890D01*
Y480118D01*
Y452559D01*
X412638D01*
Y452559D01*
X420638Y453332D01*
X428302Y445668D01*
X428302Y445668D01*
X436850Y437120D01*
X436746Y436336D01*
X437694Y429142D01*
X440471Y422438D01*
X442203Y420179D01*
Y350000D01*
X443150Y342806D01*
X445927Y336102D01*
X447126Y334539D01*
Y325126D01*
X452626Y322374D01*
Y291719D01*
X449220Y287280D01*
X443845Y283155D01*
X339486Y178797D01*
X252874D01*
Y224874D01*
X207126D01*
Y203185D01*
X172704D01*
X171874Y204015D01*
Y234874D01*
X171874D01*
X172473Y242626D01*
X172874D01*
Y297374D01*
X133126D01*
Y242626D01*
X133126D01*
X132527Y234874D01*
X128126D01*
Y177797D01*
X71883D01*
X67840Y180899D01*
X59234Y184464D01*
X50000Y185679D01*
X40766Y184464D01*
X32160Y180899D01*
X24771Y175229D01*
X19101Y167840D01*
X18035Y165266D01*
X10035Y166857D01*
Y233138D01*
X18035Y234730D01*
X19098Y232164D01*
X24768Y224774D01*
X32157Y219104D01*
X40762Y215540D01*
X49997Y214324D01*
X59231Y215540D01*
X67836Y219104D01*
X75226Y224774D01*
X80896Y232164D01*
X84460Y240769D01*
X85676Y250003D01*
X84460Y259238D01*
X80896Y267843D01*
X75226Y275232D01*
X67836Y280902D01*
X64484Y282291D01*
X63466Y290668D01*
X101899Y329101D01*
X101899Y329101D01*
X104523Y333029D01*
X105445Y337662D01*
X105445Y337662D01*
Y405324D01*
X149560Y449439D01*
X149561Y449439D01*
X152185Y453367D01*
X153107Y458000D01*
X153107Y458000D01*
Y543985D01*
X157841Y548720D01*
X178386D01*
Y511614D01*
X215483D01*
X215787Y503740D01*
X215787D01*
Y456496D01*
X369331D01*
Y452559D01*
X385079D01*
Y480118D01*
Y507677D01*
X369331D01*
Y503740D01*
X342858D01*
X338582Y511740D01*
X338706Y511926D01*
X340234Y519606D01*
X341756Y521462D01*
X536672D01*
X536673Y521462D01*
X541281Y522378D01*
X545188Y524989D01*
X580444Y560244D01*
X587835Y557183D01*
D02*
G37*
G36*
X672441Y485675D02*
X597677D01*
Y503740D01*
X597677D01*
X597981Y511614D01*
X635079D01*
Y522208D01*
X672441D01*
Y485675D01*
D02*
G37*
G36*
X485534Y452228D02*
X494939Y442823D01*
X494776Y442000D01*
X496163Y435026D01*
X500113Y429113D01*
X512000Y417227D01*
Y297000D01*
X512000Y281616D01*
X506306Y275996D01*
X460966Y276585D01*
X459895Y277742D01*
X457308Y284633D01*
X458995Y286832D01*
X459460Y287773D01*
X460043Y288646D01*
X460147Y289166D01*
X460381Y289641D01*
X460450Y290689D01*
X460654Y291719D01*
Y322374D01*
X460404Y323635D01*
X460243Y324910D01*
X460100Y325162D01*
X460043Y325446D01*
X459329Y326515D01*
X458693Y327632D01*
X458464Y327810D01*
X458303Y328051D01*
X457233Y328766D01*
X456219Y329553D01*
X455154Y330086D01*
Y334539D01*
X454950Y335569D01*
X454881Y336617D01*
X454647Y337092D01*
X454543Y337612D01*
X453960Y338485D01*
X453495Y339427D01*
X452940Y340150D01*
X450972Y344902D01*
X450231Y350526D01*
Y420179D01*
X450027Y421209D01*
X449958Y422257D01*
X449724Y422732D01*
X449620Y423252D01*
X449037Y424125D01*
X448572Y425067D01*
X447483Y426486D01*
X445515Y431238D01*
X444795Y436705D01*
X444878Y437120D01*
X444673Y438150D01*
X444604Y439198D01*
X444370Y439673D01*
X444267Y440192D01*
X443684Y441065D01*
X443219Y442007D01*
X442821Y442356D01*
X442526Y442797D01*
X440901Y444423D01*
X444229Y452408D01*
X485534Y452228D01*
D02*
G37*
G36*
X561002Y286002D02*
X561000Y274999D01*
X572999Y263001D01*
X554252Y263000D01*
Y297000D01*
X572999D01*
X561002Y286002D01*
D02*
G37*
G36*
X588000Y263000D02*
X585001Y262999D01*
X569000Y279000D01*
Y281000D01*
X585006Y297005D01*
X588000D01*
Y263000D01*
D02*
G37*
%LPC*%
G36*
X450037Y795076D02*
X412636D01*
Y757675D01*
X450037D01*
Y795076D01*
D02*
G37*
G36*
X400825D02*
X363423D01*
Y757675D01*
X400825D01*
Y795076D01*
D02*
G37*
G36*
X351612D02*
X314211D01*
Y757675D01*
X351612D01*
Y795076D01*
D02*
G37*
G36*
X499250D02*
X461849D01*
Y757675D01*
X499250D01*
Y795076D01*
D02*
G37*
G36*
X450037Y745864D02*
X412636D01*
Y708462D01*
X450037D01*
Y745864D01*
D02*
G37*
G36*
X351612D02*
X314211D01*
Y708462D01*
X351612D01*
Y745864D01*
D02*
G37*
G36*
X499250D02*
X461849D01*
Y708462D01*
X499250D01*
Y745864D01*
D02*
G37*
G36*
X400825D02*
X363423D01*
Y708462D01*
X400825D01*
Y745864D01*
D02*
G37*
G36*
X302400D02*
X264998D01*
Y708462D01*
X302400D01*
Y745864D01*
D02*
G37*
G36*
X450037Y696651D02*
X412636D01*
Y659250D01*
X450037D01*
Y696651D01*
D02*
G37*
G36*
X400825D02*
X363423D01*
Y659250D01*
X400825D01*
Y696651D01*
D02*
G37*
G36*
X351612D02*
X314211D01*
Y659250D01*
X351612D01*
Y696651D01*
D02*
G37*
G36*
X302400D02*
X264998D01*
Y659250D01*
X302400D01*
Y696651D01*
D02*
G37*
G36*
X499250D02*
X461849D01*
Y659250D01*
X499250D01*
Y696651D01*
D02*
G37*
G36*
X450037Y647438D02*
X412636D01*
Y610037D01*
X450037D01*
Y647438D01*
D02*
G37*
G36*
X351612D02*
X314211D01*
Y610037D01*
X351612D01*
Y647438D01*
D02*
G37*
G36*
X499250D02*
X461849D01*
Y610037D01*
X499250D01*
Y647438D01*
D02*
G37*
G36*
X400825D02*
X363423D01*
Y610037D01*
X400825D01*
Y647438D01*
D02*
G37*
G36*
X854000Y508981D02*
X846319Y507453D01*
X839808Y503102D01*
X835457Y496591D01*
X833929Y488910D01*
X835457Y481229D01*
X839808Y474718D01*
X846319Y470367D01*
X854000Y468839D01*
X856536Y469344D01*
X884394Y441485D01*
X884394Y441485D01*
X888301Y438874D01*
X892910Y437957D01*
X892910Y437958D01*
X916700D01*
X919101Y432160D01*
X924771Y424771D01*
X932160Y419101D01*
X940765Y415536D01*
X950000Y414321D01*
X959235Y415536D01*
X967840Y419101D01*
X975229Y424771D01*
X980899Y432160D01*
X981585Y433815D01*
X1168416D01*
X1169101Y432160D01*
X1174771Y424771D01*
X1182160Y419101D01*
X1190765Y415536D01*
X1200000Y414321D01*
X1209235Y415536D01*
X1217840Y419101D01*
X1225229Y424771D01*
X1230899Y432160D01*
X1234464Y440765D01*
X1235679Y450000D01*
X1234464Y459235D01*
X1230899Y467840D01*
X1225229Y475229D01*
X1217840Y480899D01*
X1209235Y484464D01*
X1200000Y485679D01*
X1190765Y484464D01*
X1182160Y480899D01*
X1174771Y475229D01*
X1169101Y467840D01*
X1168416Y466185D01*
X981585D01*
X980899Y467840D01*
X975229Y475229D01*
X967840Y480899D01*
X959235Y484464D01*
X950000Y485679D01*
X940765Y484464D01*
X932160Y480899D01*
X924771Y475229D01*
X919101Y467840D01*
X916700Y462042D01*
X897898D01*
X873566Y486374D01*
X874071Y488910D01*
X872543Y496591D01*
X868192Y503102D01*
X861681Y507453D01*
X854000Y508981D01*
D02*
G37*
G36*
X1200000Y385679D02*
X1190765Y384464D01*
X1182160Y380899D01*
X1174771Y375229D01*
X1169366Y368185D01*
X1070209D01*
X1066681Y370543D01*
X1059000Y372071D01*
X1051319Y370543D01*
X1047791Y368185D01*
X980634D01*
X975229Y375229D01*
X967840Y380899D01*
X959235Y384464D01*
X950000Y385679D01*
X940765Y384464D01*
X932160Y380899D01*
X924771Y375229D01*
X919101Y367840D01*
X915537Y359235D01*
X914321Y350000D01*
X915537Y340765D01*
X919101Y332160D01*
X924771Y324771D01*
X926787Y323224D01*
X924071Y315224D01*
X799000D01*
X799000Y315224D01*
X792026Y313837D01*
X786256Y309981D01*
X785634Y309858D01*
X779123Y305507D01*
X774772Y298996D01*
X773244Y291315D01*
X774772Y283634D01*
X779123Y277123D01*
X785634Y272772D01*
X793315Y271244D01*
X800996Y272772D01*
X807507Y277123D01*
X808611Y278776D01*
X917409D01*
X921354Y270776D01*
X919101Y267840D01*
X915537Y259235D01*
X914321Y250000D01*
X915537Y240766D01*
X919101Y232160D01*
X924771Y224771D01*
X932160Y219101D01*
X940765Y215536D01*
X950000Y214321D01*
X959235Y215536D01*
X967840Y219101D01*
X975229Y224771D01*
X980899Y232160D01*
X981585Y233815D01*
X1168416D01*
X1169101Y232160D01*
X1174771Y224771D01*
X1182160Y219101D01*
X1190765Y215536D01*
X1200000Y214321D01*
X1209235Y215536D01*
X1217840Y219101D01*
X1225229Y224771D01*
X1230899Y232160D01*
X1234464Y240766D01*
X1235679Y250000D01*
X1234464Y259235D01*
X1230899Y267840D01*
X1225229Y275229D01*
X1217840Y280899D01*
X1209235Y284464D01*
X1200000Y285679D01*
X1190765Y284464D01*
X1182160Y280899D01*
X1174771Y275229D01*
X1169101Y267840D01*
X1168416Y266185D01*
X984621D01*
X981435Y271255D01*
X985385Y278776D01*
X1011842D01*
X1012319Y278457D01*
X1020000Y276929D01*
X1027681Y278457D01*
X1034192Y282808D01*
X1038543Y289319D01*
X1040071Y297000D01*
X1038543Y304681D01*
X1034192Y311192D01*
X1027681Y315543D01*
X1020000Y317071D01*
X1012319Y315543D01*
X1011842Y315224D01*
X975929D01*
X973213Y323224D01*
X975229Y324771D01*
X980899Y332160D01*
X982413Y335815D01*
X1047791D01*
X1051319Y333457D01*
X1059000Y331929D01*
X1066681Y333457D01*
X1070209Y335815D01*
X1167587D01*
X1169101Y332160D01*
X1174771Y324771D01*
X1182160Y319101D01*
X1190765Y315536D01*
X1200000Y314321D01*
X1209235Y315536D01*
X1217840Y319101D01*
X1225229Y324771D01*
X1230899Y332160D01*
X1234464Y340765D01*
X1235679Y350000D01*
X1234464Y359235D01*
X1230899Y367840D01*
X1225229Y375229D01*
X1217840Y380899D01*
X1209235Y384464D01*
X1200000Y385679D01*
D02*
G37*
G36*
X614095Y224930D02*
X611696Y224614D01*
X603957Y221409D01*
X597625Y216550D01*
X592494Y213502D01*
X589880D01*
X584057Y217970D01*
X577277Y220779D01*
X570000Y221737D01*
X562723Y220779D01*
X555943Y217970D01*
X555874Y217917D01*
X547874Y221496D01*
Y221496D01*
X492126D01*
Y158504D01*
X547874D01*
Y158504D01*
X549957Y159436D01*
X557958Y154251D01*
Y113629D01*
X555808Y112192D01*
X551457Y105681D01*
X549929Y98000D01*
X551457Y90319D01*
X555808Y83808D01*
X562319Y79457D01*
X570000Y77929D01*
X577681Y79457D01*
X584192Y83808D01*
X588543Y90319D01*
X590071Y98000D01*
X588543Y105681D01*
X584192Y112192D01*
X582042Y113629D01*
Y161196D01*
X584057Y162030D01*
X589880Y166498D01*
X592494D01*
X597625Y163450D01*
X603957Y158591D01*
X611696Y155386D01*
X614095Y155070D01*
Y190000D01*
Y224930D01*
D02*
G37*
G36*
X700000Y330071D02*
X692319Y328543D01*
X685808Y324192D01*
X681457Y317681D01*
X679929Y310000D01*
X673275Y304874D01*
X650126D01*
Y255126D01*
X689874D01*
Y282843D01*
X697464Y290434D01*
X700000Y289929D01*
X702126Y290352D01*
X710126Y284202D01*
Y276595D01*
X708815Y274633D01*
X707893Y270000D01*
X707893Y270000D01*
Y218778D01*
X705943Y217970D01*
X700120Y213502D01*
X700042Y213400D01*
X689958D01*
X689880Y213502D01*
X684057Y217970D01*
X677277Y220779D01*
X670000Y221737D01*
X662723Y220779D01*
X655943Y217970D01*
X650120Y213502D01*
X647506D01*
X642375Y216550D01*
X636043Y221409D01*
X628304Y224614D01*
X625905Y224930D01*
Y190000D01*
Y155070D01*
X628304Y155386D01*
X636043Y158591D01*
X639958Y161595D01*
X647958Y158035D01*
Y105629D01*
X645808Y104192D01*
X641457Y97681D01*
X639929Y90000D01*
X641457Y82319D01*
X645808Y75808D01*
X652319Y71457D01*
X660000Y69929D01*
X667681Y71457D01*
X674192Y75808D01*
X678543Y82319D01*
X680071Y90000D01*
X678543Y97681D01*
X674192Y104192D01*
X672042Y105629D01*
Y158532D01*
X677277Y159221D01*
X684057Y162030D01*
X689880Y166498D01*
X689958Y166599D01*
X697958Y163883D01*
Y105629D01*
X695808Y104192D01*
X691457Y97681D01*
X689929Y90000D01*
X691457Y82319D01*
X695808Y75808D01*
X702319Y71457D01*
X710000Y69929D01*
X717681Y71457D01*
X724192Y75808D01*
X728543Y82319D01*
X730071Y90000D01*
X728543Y97681D01*
X724192Y104192D01*
X722042Y105629D01*
Y158532D01*
X727277Y159221D01*
X734057Y162030D01*
X739880Y166498D01*
X744348Y172321D01*
X747157Y179101D01*
X748115Y186378D01*
Y193622D01*
X747157Y200899D01*
X744348Y207679D01*
X739880Y213502D01*
X734057Y217970D01*
X732107Y218778D01*
Y255126D01*
X749874D01*
Y304874D01*
X724278D01*
X720071Y310000D01*
X718543Y317681D01*
X714192Y324192D01*
X707681Y328543D01*
X700000Y330071D01*
D02*
G37*
G36*
X1200000Y185679D02*
X1190765Y184464D01*
X1182160Y180899D01*
X1178117Y177797D01*
X971883D01*
X967840Y180899D01*
X959235Y184464D01*
X950000Y185679D01*
X940765Y184464D01*
X932160Y180899D01*
X924771Y175229D01*
X919396Y168224D01*
X902874D01*
Y174874D01*
X868799D01*
X868000Y175033D01*
X865006D01*
X864207Y174874D01*
X857126D01*
X857126Y174874D01*
X853348Y175021D01*
X853319Y175016D01*
X852999Y175028D01*
X834252D01*
X833476Y174874D01*
X820899D01*
X817886Y177887D01*
X811974Y181837D01*
X805000Y183224D01*
X805000Y183224D01*
X788158D01*
X787681Y183543D01*
X780000Y185071D01*
X772319Y183543D01*
X765808Y179192D01*
X761457Y172681D01*
X759929Y165000D01*
X761457Y157319D01*
X765808Y150808D01*
X772319Y146457D01*
X780000Y144929D01*
X787681Y146457D01*
X788158Y146776D01*
X797126D01*
Y125126D01*
X833476D01*
X834252Y124972D01*
X852999Y124973D01*
X853000Y124973D01*
X857126Y125126D01*
X865003Y124971D01*
X865062Y124971D01*
X868002Y124972D01*
X868777Y125126D01*
X902874D01*
Y131776D01*
X919396D01*
X924771Y124771D01*
X932160Y119101D01*
X940765Y115537D01*
X950000Y114321D01*
X959235Y115537D01*
X967840Y119101D01*
X971883Y122203D01*
X1178117D01*
X1182160Y119101D01*
X1190765Y115537D01*
X1200000Y114321D01*
X1209235Y115537D01*
X1217840Y119101D01*
X1225229Y124771D01*
X1230899Y132160D01*
X1234464Y140766D01*
X1235679Y150000D01*
X1234464Y159234D01*
X1230899Y167840D01*
X1225229Y175229D01*
X1217840Y180899D01*
X1209235Y184464D01*
X1200000Y185679D01*
D02*
G37*
G36*
X1205906Y88873D02*
Y55906D01*
X1238873D01*
X1238299Y60262D01*
X1234338Y69825D01*
X1228037Y78037D01*
X1219825Y84338D01*
X1210262Y88299D01*
X1205906Y88873D01*
D02*
G37*
G36*
X955905D02*
Y55906D01*
X988873D01*
X988299Y60262D01*
X984338Y69825D01*
X978037Y78037D01*
X969825Y84338D01*
X960262Y88299D01*
X955905Y88873D01*
D02*
G37*
G36*
X55906D02*
Y55906D01*
X88873D01*
X88299Y60262D01*
X84338Y69825D01*
X78037Y78037D01*
X69825Y84338D01*
X60262Y88299D01*
X55906Y88873D01*
D02*
G37*
G36*
X1194094D02*
X1189738Y88299D01*
X1180175Y84338D01*
X1171963Y78037D01*
X1165662Y69825D01*
X1161701Y60262D01*
X1161127Y55906D01*
X1194094D01*
Y88873D01*
D02*
G37*
G36*
X944095D02*
X939738Y88299D01*
X930175Y84338D01*
X921963Y78037D01*
X915662Y69825D01*
X911701Y60262D01*
X911127Y55906D01*
X944095D01*
Y88873D01*
D02*
G37*
%LPD*%
G36*
X841002Y156002D02*
X841000Y144999D01*
X852999Y133001D01*
X834252Y133000D01*
Y167000D01*
X852999D01*
X841002Y156002D01*
D02*
G37*
G36*
X868000Y133000D02*
X865001Y132999D01*
X849000Y149000D01*
Y151000D01*
X865006Y167005D01*
X868000D01*
Y133000D01*
D02*
G37*
%LPC*%
G36*
X359874Y404874D02*
X320126D01*
Y355126D01*
X356828D01*
X362319Y351457D01*
X370000Y349929D01*
X377681Y351457D01*
X384192Y355808D01*
X388543Y362319D01*
X390071Y370000D01*
X388543Y377681D01*
X384192Y384192D01*
X377681Y388543D01*
X370000Y390071D01*
X367874Y389648D01*
X359874Y395798D01*
Y404874D01*
D02*
G37*
G36*
X209874Y397374D02*
X170126D01*
Y342626D01*
X180485D01*
X214555Y308555D01*
X219806Y305047D01*
X226000Y303815D01*
X260126D01*
Y297126D01*
X289985D01*
X296776Y290335D01*
X297553Y284433D01*
X300362Y277653D01*
X304830Y271830D01*
X312885Y263774D01*
Y261000D01*
X313844Y253723D01*
X316652Y246943D01*
X321120Y241120D01*
X326943Y236652D01*
X333723Y233844D01*
X341000Y232886D01*
X348277Y233844D01*
X355057Y236652D01*
X360880Y241120D01*
X365348Y246943D01*
X368156Y253723D01*
X369115Y261000D01*
Y275419D01*
X369115Y275420D01*
X368156Y282696D01*
X365348Y289477D01*
X360880Y295300D01*
X360880Y295300D01*
X344590Y311590D01*
X338767Y316058D01*
X331986Y318866D01*
X324710Y319824D01*
X317433Y318866D01*
X315891Y318228D01*
X309874Y323172D01*
Y342874D01*
X260126D01*
Y336185D01*
X232704D01*
X209874Y359015D01*
Y397374D01*
D02*
G37*
%LPD*%
D10*
X700000Y597244D02*
D03*
Y550000D02*
D03*
Y502756D02*
D03*
D11*
X820000Y150000D02*
D03*
X880000D02*
D03*
X960977Y853873D02*
D03*
X1020977D02*
D03*
X1020000Y930000D02*
D03*
X960000D02*
D03*
X230000Y200000D02*
D03*
X290000D02*
D03*
X540000Y412000D02*
D03*
X600000D02*
D03*
X470000Y350000D02*
D03*
X410000D02*
D03*
X480000Y410000D02*
D03*
X420000D02*
D03*
X600000Y280000D02*
D03*
X540000D02*
D03*
X1190000Y830000D02*
D03*
X1130000D02*
D03*
D13*
X369000Y1175000D02*
D03*
X169000D02*
D03*
D14*
X40000Y1220000D02*
D03*
X1092824Y30000D02*
D03*
D15*
X151000Y985000D02*
D03*
Y925000D02*
D03*
X285000Y320000D02*
D03*
Y260000D02*
D03*
D16*
X436817Y454183D02*
X453976Y454976D01*
X436817Y454183D02*
X454664Y436336D01*
X422480Y468520D02*
X436817Y454183D01*
X454664Y436336D02*
X464543D01*
X422480Y468520D02*
Y480118D01*
X453976Y454976D02*
Y480118D01*
X700000Y610000D02*
X717000Y593000D01*
X685000Y613000D02*
X700000D01*
X430000Y895000D02*
X436000Y889000D01*
X319000Y895000D02*
X430000D01*
X308000Y884000D02*
X319000Y895000D01*
X333794Y868252D02*
X341046Y861000D01*
X333794Y868252D02*
Y869206D01*
X441495Y861000D02*
X485472Y904977D01*
X341046Y861000D02*
X441495D01*
X1120000Y840000D02*
X1124000Y844000D01*
X233504Y914202D02*
Y925000D01*
Y914202D02*
X250265Y897441D01*
X280441D02*
X296496Y913496D01*
X250265Y897441D02*
X280441D01*
X168622Y812656D02*
Y884784D01*
X145000Y789034D02*
X168622Y812656D01*
Y884784D02*
X175000Y891162D01*
X283840Y844567D02*
X310938D01*
X262784Y865622D02*
X283840Y844567D01*
X254467Y865622D02*
X262784D01*
X222648Y897441D02*
X254467Y865622D01*
X181279Y897441D02*
X222648D01*
X296496Y913496D02*
Y925000D01*
X565000Y897441D02*
X635199D01*
X548465Y913976D02*
X565000Y897441D01*
X643622Y911378D02*
X858334D01*
X639000Y916000D02*
X643622Y911378D01*
X853000Y883000D02*
X879000D01*
X903000Y907000D01*
X962000Y883000D02*
X1052000D01*
X954000D02*
X962000D01*
X930000Y907000D02*
X954000Y883000D01*
X903000Y907000D02*
X930000D01*
X858334Y911378D02*
X875289Y928334D01*
X441000Y889000D02*
X453976Y901976D01*
X436000Y889000D02*
X441000D01*
X485472Y904977D02*
Y925000D01*
X212677Y507677D02*
X231677D01*
X234000Y510000D01*
X145000Y919000D02*
X151000Y925000D01*
X145000Y825000D02*
Y919000D01*
X839000Y547000D02*
X941000D01*
X942000Y548000D01*
X945000Y545000D01*
X145000Y776000D02*
Y789034D01*
X583898Y702000D02*
X600205Y718307D01*
X583898Y580729D02*
Y702000D01*
X717000Y593000D02*
X733608D01*
X700000Y610000D02*
Y613000D01*
X580856Y763000D02*
X590376Y772520D01*
X572000Y763000D02*
X580856D01*
X583898Y829557D02*
Y835000D01*
X601614Y822638D02*
X611457Y812795D01*
X590816Y822638D02*
X601614D01*
X583898Y829557D02*
X590816Y822638D01*
X576000Y835000D02*
X583898D01*
X1083000Y807000D02*
X1107000D01*
X582323Y507677D02*
X602323D01*
X568000Y522000D02*
X582323Y507677D01*
X453976Y901976D02*
Y925000D01*
X602677Y772520D02*
X611457Y781299D01*
X590376Y772520D02*
X602677D01*
X305000Y884000D02*
X308000D01*
X332000Y871000D02*
X333794Y869206D01*
X248096Y842000D02*
X253000D01*
X214309Y844291D02*
X248600Y810000D01*
X213065Y877031D02*
X248096Y842000D01*
X203252Y877031D02*
X213065D01*
X202008Y844291D02*
X214309D01*
X248600Y810000D02*
X250000D01*
X181215Y897378D02*
X181279Y897441D01*
X650000Y750000D02*
X680000D01*
X650000Y534315D02*
Y562000D01*
X1052000Y883000D02*
X1054000Y881000D01*
X1107000Y807000D02*
X1130000Y830000D01*
X202008Y875787D02*
X203252Y877031D01*
X1134000Y904000D02*
X1150000Y920000D01*
X1116000Y904000D02*
X1134000D01*
X1020000Y849850D02*
X1024023Y853873D01*
X1020000Y849850D02*
Y860000D01*
X1020977Y853873D02*
X1024023D01*
X1120000Y840000D02*
X1130000Y830000D01*
X570000Y98000D02*
Y190000D01*
X340000Y380000D02*
X350000Y370000D01*
X370000D01*
X516968Y480118D02*
Y492419D01*
X225000Y965000D02*
X232126Y957874D01*
Y926378D02*
Y957874D01*
Y926378D02*
X233504Y925000D01*
X297874Y926378D02*
Y957874D01*
X296496Y925000D02*
X297874Y926378D01*
X680000Y750000D02*
X685000Y755000D01*
X650000Y810000D02*
X685000D01*
X485472Y469320D02*
X503982Y450811D01*
X485472Y469320D02*
Y480118D01*
X548465Y913976D02*
Y925000D01*
X515000Y923032D02*
X516968Y925000D01*
X503982Y450811D02*
X504189D01*
X670000Y280000D02*
X700000Y310000D01*
X660000Y90000D02*
Y180000D01*
X670000Y190000D01*
X710000Y90000D02*
Y180000D01*
X720000Y190000D01*
X1190000Y940000D02*
Y995118D01*
Y830000D02*
Y884882D01*
X1150630Y879622D02*
Y884882D01*
X945000Y545000D02*
X950000Y550000D01*
X854000Y488910D02*
X892910Y450000D01*
X950000D01*
X320163Y519606D02*
X334061Y533504D01*
X536673D01*
X583898Y580729D01*
X600205Y718307D02*
X611457D01*
X504189Y450811D02*
X513000Y442000D01*
X1086028Y879622D02*
X1150630D01*
X1024023Y853873D02*
X1060280D01*
X1086028Y879622D01*
X960977Y853873D02*
Y881977D01*
X962000Y883000D01*
D18*
X825000Y847000D02*
X853000D01*
X808172Y863828D02*
X825000Y847000D01*
D19*
X265000Y1080000D02*
X280000Y1095000D01*
X265000Y960000D02*
Y1080000D01*
X324710Y291710D02*
X341000Y275420D01*
Y261000D02*
Y275420D01*
D20*
X805000Y625000D02*
X853248Y673248D01*
X805000Y486000D02*
Y625000D01*
X764000Y445000D02*
X805000Y486000D01*
X780000Y635355D02*
X795000Y650355D01*
X780000Y496355D02*
Y635355D01*
X753645Y470000D02*
X780000Y496355D01*
X905000Y980000D02*
X910000D01*
X911000Y981000D01*
X931496Y1010504D02*
X934065D01*
X937569Y1007000D02*
X1005983D01*
X934065Y1010504D02*
X937569Y1007000D01*
X911000Y981000D02*
X1015759D01*
X1034729Y999970D01*
X1005983Y1007000D02*
X1039515Y1040532D01*
X795000Y650355D02*
X826322Y681678D01*
X795000Y650355D02*
Y650355D01*
X1048941Y1049537D02*
Y1049958D01*
X1039935Y1040532D02*
X1048941Y1049537D01*
X1039515Y1040532D02*
X1039935D01*
X590079Y470000D02*
X700000D01*
Y502756D01*
X560000Y445000D02*
X764000D01*
X700000Y470000D02*
X753645D01*
X853248Y780000D02*
Y782126D01*
Y673248D02*
Y780000D01*
X1051283Y1052300D02*
Y1081496D01*
X1048941Y1049958D02*
X1051283Y1052300D01*
X548465Y456535D02*
Y480118D01*
Y456535D02*
X560000Y445000D01*
X1076874Y1042535D02*
Y1081496D01*
X1073941Y1039182D02*
Y1039602D01*
X1076874Y1042535D01*
X1050290Y1015532D02*
X1073941Y1039182D01*
X1049870Y1015532D02*
X1050290D01*
X1034729Y999970D02*
Y1000390D01*
X1049870Y1015532D01*
X826063Y681937D02*
Y775689D01*
Y681937D02*
X826322Y681678D01*
X821752Y780000D02*
X826063Y775689D01*
X579961Y480118D02*
X590079Y470000D01*
D21*
X894626Y856126D02*
X911126D01*
X894626Y820374D02*
Y850000D01*
X568087Y725591D02*
X590622Y748126D01*
X568087Y587278D02*
Y725591D01*
X530124Y549315D02*
X568087Y587278D01*
X310938Y844567D02*
X447422D01*
X748055Y863000D02*
X807370Y803685D01*
X622343Y844291D02*
X641052Y863000D01*
X748055D01*
X611457Y844291D02*
X622343D01*
X635199Y897441D02*
X637892Y894748D01*
X614543Y878874D02*
X754630D01*
X611457Y875787D02*
X614543Y878874D01*
X819460Y894748D02*
X831208Y883000D01*
X637892Y894748D02*
X819460D01*
X754630Y878874D02*
X813945Y819559D01*
X831208Y883000D02*
X853000D01*
X877830Y930874D02*
X949874D01*
X875289Y928334D02*
X877830Y930874D01*
X949874D02*
X960000Y941000D01*
X813945Y819559D02*
X869634D01*
X447422Y844567D02*
X515000Y912145D01*
Y923032D01*
X588961Y916000D02*
X639000D01*
X152827Y560827D02*
X202008D01*
X141000Y549000D02*
X152827Y560827D01*
X141000Y458000D02*
Y549000D01*
X160323Y592323D02*
X202008D01*
X124000Y556000D02*
X160323Y592323D01*
X124000Y468323D02*
Y556000D01*
X167819Y623819D02*
X202008D01*
X105000Y561000D02*
X167819Y623819D01*
X105000Y505006D02*
Y561000D01*
X869208Y850000D02*
X894626D01*
X229630Y640811D02*
Y765370D01*
X213701Y781299D02*
X229630Y765370D01*
X202008Y781299D02*
X213701D01*
X229630Y640811D02*
X237441Y633000D01*
X191121Y812795D02*
X202008D01*
X172685Y794359D02*
X191121Y812795D01*
X121315Y734083D02*
Y1018819D01*
X105441Y727508D02*
Y1036441D01*
X89567Y720933D02*
Y1110433D01*
X49997Y1150003D02*
X89567Y1110433D01*
Y720933D02*
X123689Y686811D01*
X172685Y770189D02*
Y794359D01*
X146389Y743894D02*
X172685Y770189D01*
X145000Y743894D02*
X146389D01*
X590622Y748126D02*
X609780D01*
X175000Y891162D02*
X181215Y897378D01*
X609780Y748126D02*
X611457Y749803D01*
X196205Y744000D02*
X202008Y749803D01*
X178602Y744000D02*
X196205D01*
X154811Y720209D02*
X178602Y744000D01*
X105441Y727508D02*
X128614Y704335D01*
X105441Y1036441D02*
X114000Y1045000D01*
X121315Y734083D02*
X135189Y720209D01*
X121315Y1018819D02*
X137685Y1035189D01*
X123689Y686811D02*
X202008D01*
X175358Y718307D02*
X202008D01*
X161386Y704335D02*
X175358Y718307D01*
X128614Y704335D02*
X161386D01*
X135189Y720209D02*
X154811D01*
X172315Y655315D02*
X202008D01*
X67003Y550003D02*
X172315Y655315D01*
X650000Y534315D02*
X685000D01*
X616441D02*
X650000D01*
X611457Y529331D02*
X616441Y534315D01*
X685000D02*
Y545000D01*
X579961Y925000D02*
X588961Y916000D01*
X121000Y1076504D02*
X122496D01*
X137685Y1061315D01*
Y1035189D02*
Y1061315D01*
X49997Y294320D02*
X93338Y337662D01*
Y410338D02*
X141000Y458000D01*
X93338Y337662D02*
Y410338D01*
X49997Y250003D02*
Y294320D01*
Y550003D02*
X67003D01*
X981874Y901126D02*
X1039918D01*
X960000Y923000D02*
X981874Y901126D01*
X1039918D02*
X1057792Y919000D01*
X1058000D01*
X915693Y773500D02*
X926500D01*
X950000Y750000D01*
X925626Y789374D02*
X982418D01*
X894626Y820374D02*
X925626Y789374D01*
X807370Y803685D02*
X863059D01*
X898874Y767870D01*
X982418Y789374D02*
X1001792Y770000D01*
X49997Y394320D02*
X124000Y468323D01*
X49997Y450003D02*
X105000Y505006D01*
X296478Y529417D02*
Y529417D01*
X287061Y520000D02*
X296478Y529417D01*
X49997Y350003D02*
Y394320D01*
X285000Y520000D02*
X287061D01*
X676811Y686811D02*
X685000Y695000D01*
X611457Y686811D02*
X676811D01*
X720000Y190000D02*
Y270000D01*
X730000Y280000D01*
X960000Y930000D02*
Y941000D01*
Y923000D02*
Y930000D01*
X1020000D02*
X1033000Y943000D01*
X950000Y750000D02*
X1017685Y682315D01*
X1132315D02*
X1200000Y750000D01*
X898874Y701126D02*
X950000Y650000D01*
X975229Y624771D01*
X1174771D01*
X1200000Y650000D01*
X1017685Y682315D02*
X1132315D01*
X296478Y529417D02*
X316376Y549315D01*
X530124D01*
X1033000Y943000D02*
X1056496D01*
X1108614Y995118D02*
X1150630D01*
X1056496Y943000D02*
X1108614Y995118D01*
X869634Y819559D02*
X915693Y773500D01*
X898874Y701126D02*
Y767870D01*
X1001792Y770000D02*
X1033000D01*
D22*
X473000Y273000D02*
X497000D01*
X490000Y280000D02*
X540000D01*
X480000Y290000D02*
X490000Y280000D01*
X513000Y442000D02*
X545000Y410000D01*
X540000Y350000D02*
X545277D01*
X590756Y289479D02*
X590873Y289362D01*
X590756Y289479D02*
X590873Y289596D01*
Y304404D01*
X545277Y350000D02*
X590873Y304404D01*
X590638Y289362D02*
X600000Y280000D01*
X590638Y289362D02*
X590873D01*
X463500Y263500D02*
X473000Y273000D01*
X980315Y1045767D02*
X983082Y1043000D01*
X995000D01*
X799000Y297000D02*
X1020000D01*
X793315Y291315D02*
X799000Y297000D01*
X545000Y373090D02*
Y410000D01*
X533315Y361405D02*
X545000Y373090D01*
X880000Y150000D02*
X950000D01*
X1130000Y770000D02*
X1190000Y830000D01*
X1033000Y770000D02*
X1130000D01*
X780000Y165000D02*
X805000D01*
X820000Y150000D01*
D23*
X412000Y47486D02*
Y16000D01*
X396257D01*
X391009Y21248D01*
Y26495D01*
X396257Y31743D01*
X412000D01*
X396257D01*
X391009Y36991D01*
Y42238D01*
X396257Y47486D01*
X412000D01*
X364771D02*
X375266D01*
X380514Y42238D01*
Y21248D01*
X375266Y16000D01*
X364771D01*
X359524Y21248D01*
Y42238D01*
X364771Y47486D01*
X349028D02*
X328038D01*
X338533D01*
Y16000D01*
D24*
X1200000Y750000D02*
D03*
X950000D02*
D03*
X49997Y1150003D02*
D03*
D25*
X1200000Y550000D02*
D03*
Y450000D02*
D03*
Y650000D02*
D03*
Y350000D02*
D03*
Y250000D02*
D03*
Y150000D02*
D03*
Y50000D02*
D03*
X950000Y550000D02*
D03*
Y450000D02*
D03*
Y650000D02*
D03*
Y350000D02*
D03*
Y250000D02*
D03*
Y150000D02*
D03*
Y50000D02*
D03*
X49997Y1050003D02*
D03*
Y950003D02*
D03*
Y650003D02*
D03*
Y850003D02*
D03*
Y750003D02*
D03*
Y550003D02*
D03*
X50000Y150000D02*
D03*
Y50000D02*
D03*
X49997Y450003D02*
D03*
Y350003D02*
D03*
Y250003D02*
D03*
D26*
X670000Y190000D02*
D03*
X620000D02*
D03*
X720000D02*
D03*
X570000D02*
D03*
D27*
X520000D02*
D03*
D28*
X269000Y1090000D02*
D03*
D29*
X934748Y1175000D02*
D03*
X1219000D02*
D03*
D30*
X333794Y868252D02*
D03*
X801000Y871000D02*
D03*
X436000Y889000D02*
D03*
X535000Y886000D02*
D03*
X575000Y869000D02*
D03*
X905000Y980000D02*
D03*
X931000Y1042000D02*
D03*
X900000Y1021000D02*
D03*
X901575Y1051181D02*
D03*
X931496Y1010504D02*
D03*
X973000Y1035000D02*
D03*
X995000Y1043000D02*
D03*
X145000Y825000D02*
D03*
X748000Y522000D02*
D03*
X839000Y547000D02*
D03*
X273000Y752000D02*
D03*
X145000Y776000D02*
D03*
X733608Y593000D02*
D03*
X572000Y763000D02*
D03*
X576000Y835000D02*
D03*
X1083000Y807000D02*
D03*
X641000Y503000D02*
D03*
X568000Y522000D02*
D03*
X172000Y488000D02*
D03*
X109000Y652000D02*
D03*
X53000Y600000D02*
D03*
X237441Y633000D02*
D03*
X456000Y800000D02*
D03*
X253000Y604000D02*
D03*
X305000Y884000D02*
D03*
X253000Y842000D02*
D03*
X250000Y810000D02*
D03*
X145000Y743894D02*
D03*
X649000Y653000D02*
D03*
X650000Y750000D02*
D03*
Y562000D02*
D03*
X121000Y1076504D02*
D03*
X114000Y1045000D02*
D03*
X1202000Y1122000D02*
D03*
X853248Y780000D02*
D03*
X821752D02*
D03*
X1054000Y881000D02*
D03*
X1058000Y919000D02*
D03*
X793315Y291315D02*
D03*
X1232000Y808000D02*
D03*
X1234000Y692000D02*
D03*
X1113000Y737000D02*
D03*
X1145000Y736000D02*
D03*
X993000Y813000D02*
D03*
X1059000Y352000D02*
D03*
X1116000Y904000D02*
D03*
X570000Y98000D02*
D03*
X328000Y1075000D02*
D03*
X318000Y1049000D02*
D03*
X935000Y1118000D02*
D03*
X305000Y1025000D02*
D03*
Y995000D02*
D03*
X307000Y966000D02*
D03*
X212000Y1078000D02*
D03*
X217000Y1052000D02*
D03*
X222000Y1023000D02*
D03*
X225000Y995000D02*
D03*
Y965000D02*
D03*
X780000Y700000D02*
D03*
X357000Y605000D02*
D03*
X250000Y545000D02*
D03*
X307000Y653000D02*
D03*
X504000Y655000D02*
D03*
X357000Y802000D02*
D03*
X405000Y750000D02*
D03*
X455000Y654000D02*
D03*
X370000Y370000D02*
D03*
X650000Y810000D02*
D03*
X320163Y519606D02*
D03*
X285000Y520000D02*
D03*
X420000Y230000D02*
D03*
X700000Y310000D02*
D03*
X660000Y90000D02*
D03*
X710000D02*
D03*
X780000Y165000D02*
D03*
Y760000D02*
D03*
X650000Y400000D02*
D03*
X660000Y340000D02*
D03*
X960000Y814000D02*
D03*
X1002000Y655000D02*
D03*
X818000Y935000D02*
D03*
X662000D02*
D03*
X854000Y595000D02*
D03*
X1144000Y656000D02*
D03*
X1150000Y598000D02*
D03*
X1020000Y810000D02*
D03*
X1114000Y706000D02*
D03*
X1000000Y600000D02*
D03*
X1002000Y500000D02*
D03*
X981000Y402000D02*
D03*
X1128000Y310000D02*
D03*
X854000Y488910D02*
D03*
X850000Y439000D02*
D03*
X852000Y334000D02*
D03*
X776000Y403000D02*
D03*
X1020000Y297000D02*
D03*
X894000Y250000D02*
D03*
X836000Y194000D02*
D03*
X746000Y321000D02*
D03*
X747000Y227000D02*
D03*
X386000Y399000D02*
D03*
X245000Y378000D02*
D03*
X103000Y94000D02*
D03*
X203000Y110000D02*
D03*
X282000D02*
D03*
X197000Y269000D02*
D03*
X341000Y261000D02*
D03*
X116000Y1228000D02*
D03*
X115000Y1108000D02*
D03*
X423000Y1230000D02*
D03*
X421000Y1183000D02*
D03*
Y1112000D02*
D03*
X376000Y1075000D02*
D03*
X168000D02*
D03*
X320000Y1232000D02*
D03*
X217000Y1233000D02*
D03*
X338000Y966000D02*
D03*
X371000D02*
D03*
X402000D02*
D03*
X435000D02*
D03*
X455000Y573000D02*
D03*
X544000Y655000D02*
D03*
X190000Y233000D02*
D03*
X358000Y325000D02*
D03*
X438000Y294000D02*
D03*
X1047244Y972441D02*
D03*
X1157675Y1047277D02*
D03*
X1033000Y770000D02*
D03*
X1003000Y742000D02*
D03*
X1095000Y855000D02*
D03*
D31*
X579961Y480118D02*
D03*
X548465D02*
D03*
X516968D02*
D03*
X485472D02*
D03*
X453976D02*
D03*
X422480D02*
D03*
X390984D02*
D03*
X359488D02*
D03*
X327992D02*
D03*
X296496D02*
D03*
X265000D02*
D03*
X233504D02*
D03*
Y925000D02*
D03*
X265000D02*
D03*
X296496D02*
D03*
X327992D02*
D03*
X359488D02*
D03*
X390984D02*
D03*
X422480D02*
D03*
X453976D02*
D03*
X485472D02*
D03*
X516968D02*
D03*
X548465D02*
D03*
X579961D02*
D03*
D32*
X202008Y529331D02*
D03*
Y560827D02*
D03*
Y592323D02*
D03*
Y623819D02*
D03*
Y655315D02*
D03*
Y686811D02*
D03*
Y718307D02*
D03*
Y749803D02*
D03*
Y781299D02*
D03*
Y812795D02*
D03*
Y844291D02*
D03*
Y875787D02*
D03*
X611457D02*
D03*
Y844291D02*
D03*
Y812795D02*
D03*
Y781299D02*
D03*
Y749803D02*
D03*
Y718307D02*
D03*
Y686811D02*
D03*
Y655315D02*
D03*
Y623819D02*
D03*
Y592323D02*
D03*
Y560827D02*
D03*
Y529331D02*
D03*
D33*
X406730Y702557D02*
D03*
Y800982D02*
D03*
X505156D02*
D03*
Y702557D02*
D03*
Y604131D02*
D03*
X406730D02*
D03*
X308305D02*
D03*
Y702557D02*
D03*
Y800982D02*
D03*
D34*
X670000Y280000D02*
D03*
X730000D02*
D03*
X280000Y380000D02*
D03*
X340000D02*
D03*
X745000Y695000D02*
D03*
X685000D02*
D03*
Y810000D02*
D03*
X745000D02*
D03*
X685000Y755000D02*
D03*
X745000D02*
D03*
D35*
X1190000Y940000D02*
D03*
D36*
X1229370Y995118D02*
D03*
X1190000D02*
D03*
X1150630D02*
D03*
X1229370Y884882D02*
D03*
X1190000D02*
D03*
X1150630D02*
D03*
D37*
X227000Y270000D02*
D03*
X153000D02*
D03*
X190000Y370000D02*
D03*
D38*
X150000Y57000D02*
D03*
Y203000D02*
D03*
D39*
X1076874Y1081496D02*
D03*
X1051283D02*
D03*
X1102465D02*
D03*
X1025693D02*
D03*
X1128055D02*
D03*
D40*
X1076873Y1165356D02*
D03*
D41*
X331000Y1190000D02*
D03*
X205500D02*
D03*
D42*
X268000Y1127000D02*
D03*
D43*
X269000Y1105000D02*
D03*
D44*
X400000Y290000D02*
D03*
X480000D02*
D03*
X620000Y350000D02*
D03*
X540000D02*
D03*
D45*
X853000Y907000D02*
D03*
Y847000D02*
D03*
X903000Y907000D02*
D03*
Y847000D02*
D03*
D46*
X470000Y350000D02*
Y430879D01*
X351000Y151000D02*
X463500Y263500D01*
X473000Y273000D02*
X478315Y278315D01*
X950000Y150000D02*
X1200000D01*
X464543Y436336D02*
X470000Y430879D01*
X150000Y151000D02*
X351000D01*
X50000Y150000D02*
X150000D01*
D47*
X1127583Y1029157D02*
X1153643Y1055218D01*
X1117844Y1029157D02*
X1153643Y1064956D01*
X265000Y925000D02*
Y960000D01*
X1153643Y1055218D02*
Y1064956D01*
X1099157Y1029157D02*
X1117844D01*
X1127583D01*
X1099157Y1028737D02*
Y1029157D01*
X1099619Y1016835D02*
X1115260D01*
X1127583Y1029157D01*
X1047244Y972441D02*
X1055225D01*
X1047244Y976824D02*
X1099157Y1028737D01*
X1047244Y972441D02*
Y976824D01*
X1055225Y972441D02*
X1099619Y1016835D01*
D48*
X1023000Y807000D02*
X1083000D01*
X1020000Y810000D02*
X1023000Y807000D01*
X150000Y67000D02*
Y150000D01*
D49*
X285000Y320000D02*
X290000D01*
X226000D02*
X285000D01*
X1059000Y352000D02*
X1198000D01*
X952000D02*
X1059000D01*
X153000Y216000D02*
Y270000D01*
X290000Y320000D02*
X321500Y288500D01*
X190000Y356000D02*
X226000Y320000D01*
X190000Y356000D02*
Y370000D01*
X950000Y550000D02*
X1200000D01*
X950000Y450000D02*
X1200000D01*
X950000Y250000D02*
X1200000D01*
X1198000Y352000D02*
X1200000Y350000D01*
X950000D02*
X952000Y352000D01*
X150000Y203000D02*
X166000Y187000D01*
X217000D01*
X230000Y200000D01*
D50*
X1113000Y855000D02*
X1124000Y844000D01*
X1095000Y855000D02*
X1113000D01*
%TF.MD5,b04a0ff0f71671101738e0d107318ee0*%
M02*
