G04*
G04 #@! TF.GenerationSoftware,Altium Limited,Altium Designer,18.1.7 (191)*
G04*
G04 Layer_Physical_Order=2*
G04 Layer_Color=16711680*
%FSLAX25Y25*%
%MOIN*%
G70*
G01*
G75*
%ADD11R,0.03937X0.03937*%
%ADD12R,0.03000X0.03400*%
%ADD13R,0.06000X0.16000*%
%ADD14C,0.03150*%
%ADD15R,0.03400X0.03000*%
%ADD16C,0.00787*%
%ADD17C,0.00800*%
%ADD19C,0.01000*%
%ADD20C,0.04000*%
%ADD21C,0.01500*%
%ADD22C,0.02000*%
%ADD23C,0.03937*%
%ADD24R,0.05500X0.05500*%
%ADD25C,0.05500*%
%ADD26O,0.04000X0.04724*%
%ADD27R,0.04000X0.04724*%
%ADD28C,0.07100*%
%ADD29O,0.03937X0.05906*%
%ADD30C,0.02362*%
%ADD31R,0.01968X0.03150*%
%ADD32R,0.03150X0.01968*%
%ADD33R,0.06299X0.06299*%
%ADD34R,0.02400X0.03400*%
%ADD35R,0.09449X0.05906*%
G04:AMPARAMS|DCode=36|XSize=15.75mil|YSize=23.62mil|CornerRadius=3.94mil|HoleSize=0mil|Usage=FLASHONLY|Rotation=0.000|XOffset=0mil|YOffset=0mil|HoleType=Round|Shape=RoundedRectangle|*
%AMROUNDEDRECTD36*
21,1,0.01575,0.01575,0,0,0.0*
21,1,0.00787,0.02362,0,0,0.0*
1,1,0.00787,0.00394,-0.00787*
1,1,0.00787,-0.00394,-0.00787*
1,1,0.00787,-0.00394,0.00787*
1,1,0.00787,0.00394,0.00787*
%
%ADD36ROUNDEDRECTD36*%
%ADD37R,0.02400X0.03900*%
%ADD38R,0.02800X0.04800*%
%ADD39R,0.01575X0.05118*%
%ADD40R,0.15354X0.08661*%
%ADD41R,0.04200X0.08700*%
%ADD42R,0.04200X0.04200*%
%ADD43R,0.06000X0.10000*%
%ADD44R,0.03900X0.04900*%
%ADD45R,0.03400X0.02400*%
%ADD46C,0.03937*%
%ADD47C,0.01968*%
%ADD48C,0.02500*%
%ADD49C,0.01600*%
%ADD50C,0.01181*%
G36*
X113160Y520677D02*
X112970Y520486D01*
X112843Y520402D01*
X109949Y517508D01*
X105797D01*
X105797Y520933D01*
X110793Y520933D01*
X111720Y521861D01*
X113160D01*
Y520677D01*
D02*
G37*
G36*
X134780Y521134D02*
X122790Y519106D01*
X122215Y519820D01*
Y527130D01*
X110601D01*
Y522478D01*
X110010Y521887D01*
Y521736D01*
X109859D01*
X109859Y521736D01*
X105797Y521736D01*
X105490Y521675D01*
X105229Y521501D01*
X105055Y521240D01*
X104994Y520933D01*
X104994Y518388D01*
X104194Y517960D01*
X103918Y518145D01*
X103150Y518298D01*
X102382Y518145D01*
X101730Y517710D01*
X101295Y517059D01*
X101143Y516291D01*
X101216Y515920D01*
X100607Y515230D01*
X100600Y515227D01*
X100500Y515247D01*
X99732Y515095D01*
X99383Y514861D01*
X98583Y515244D01*
X98583Y537036D01*
X134780D01*
Y521134D01*
D02*
G37*
G36*
X121272Y518850D02*
X120400Y518702D01*
X119861Y519422D01*
X119972Y519650D01*
X121205D01*
X121272Y518850D01*
D02*
G37*
G36*
X116200Y514658D02*
Y511803D01*
X115481Y511084D01*
X114681Y511121D01*
Y511121D01*
X112574D01*
X112210Y511862D01*
X112220Y511921D01*
X112684Y512232D01*
X114581Y514129D01*
X114666Y514256D01*
X115400Y514990D01*
X116200Y514658D01*
D02*
G37*
G36*
X53701Y538330D02*
X53254Y537987D01*
X52749Y537329D01*
X52431Y536562D01*
X52323Y535740D01*
X52431Y534918D01*
X52749Y534152D01*
X53254Y533494D01*
X53701Y533151D01*
X53701Y510496D01*
X40020D01*
X39312Y511240D01*
Y519953D01*
X40687D01*
Y522051D01*
X40689Y522053D01*
X41126Y523108D01*
X41275Y524240D01*
X41126Y525373D01*
X40689Y526428D01*
X40687Y526429D01*
Y531528D01*
X40646Y531548D01*
X40064Y532173D01*
Y540001D01*
X53701D01*
Y538330D01*
D02*
G37*
G36*
X33733Y532173D02*
X33148Y531545D01*
X33113Y531528D01*
Y526429D01*
X33111Y526428D01*
X32674Y525373D01*
X32525Y524240D01*
X32674Y523108D01*
X33111Y522053D01*
X33113Y522051D01*
Y519953D01*
X33689D01*
Y511240D01*
X32980Y510496D01*
X31185D01*
Y510205D01*
X30385Y509671D01*
X30000Y509747D01*
X29232Y509594D01*
X28781Y509293D01*
X28107Y509545D01*
X27981Y509648D01*
Y510421D01*
X23423D01*
Y516702D01*
X24624Y517903D01*
X24625Y517903D01*
X24887Y518296D01*
X24979Y518759D01*
Y521372D01*
X24887Y521835D01*
X24625Y522228D01*
X24624Y522228D01*
X24083Y522769D01*
X24107Y522891D01*
X23954Y523659D01*
X23519Y524310D01*
X22868Y524745D01*
X22100Y524898D01*
X21332Y524745D01*
X20967Y524501D01*
X20167Y524872D01*
Y526284D01*
X20075Y526747D01*
X19813Y527140D01*
X19813Y527140D01*
X18931Y528022D01*
Y534172D01*
X16718D01*
X16446Y534972D01*
X16629Y535112D01*
X17220Y535881D01*
X17591Y536778D01*
X17718Y537740D01*
X17591Y538702D01*
X17385Y539201D01*
X17863Y540001D01*
X33733D01*
Y532173D01*
D02*
G37*
G36*
X96477Y509840D02*
X96641Y509600D01*
X96783Y509040D01*
X96673Y508930D01*
X96655Y508902D01*
X96074Y508321D01*
X92419D01*
Y507582D01*
X75720D01*
X75607Y507696D01*
X75214Y507959D01*
X74750Y508051D01*
X74750Y508051D01*
X70161D01*
Y509840D01*
X96477Y509840D01*
D02*
G37*
G36*
X110575Y506540D02*
X108700D01*
X109900Y507640D01*
X109900Y508740D01*
X108700Y509940D01*
X110575Y509940D01*
Y506540D01*
D02*
G37*
G36*
X109100Y508340D02*
Y508140D01*
X107499Y506540D01*
X107200D01*
Y509940D01*
X107500Y509940D01*
X109100Y508340D01*
D02*
G37*
G36*
X40240Y504984D02*
X50945D01*
X51602Y504184D01*
X51593Y504140D01*
X51746Y503372D01*
X51820Y503261D01*
X51393Y502461D01*
X46263D01*
X46155Y502482D01*
X46155Y502482D01*
X45303D01*
X45234Y502834D01*
X44799Y503485D01*
X44147Y503920D01*
X43379Y504073D01*
X42611Y503920D01*
X41960Y503485D01*
X41757Y503181D01*
X40805Y503002D01*
X40623Y503184D01*
X40233Y503445D01*
X39772Y503537D01*
X39772Y503537D01*
X35415D01*
X34707Y504245D01*
X35013Y504984D01*
X35516D01*
Y505378D01*
X37484D01*
Y504984D01*
X39059D01*
Y507740D01*
X40240D01*
Y504984D01*
D02*
G37*
G36*
X65649Y504133D02*
X66039Y503872D01*
X66500Y503780D01*
X66500Y503780D01*
X68390D01*
Y502319D01*
X66619D01*
X66619Y502319D01*
X66156Y502227D01*
X65763Y501965D01*
X65763Y501965D01*
X64375Y500577D01*
X64113Y500185D01*
X64021Y499721D01*
X63257Y499669D01*
X61106D01*
Y495338D01*
Y491008D01*
X64846D01*
X64846Y491008D01*
X65574Y490833D01*
X65646Y490472D01*
X66081Y489821D01*
X66384Y489618D01*
X66563Y488666D01*
X65953Y488055D01*
X65690Y487663D01*
X65646Y487442D01*
X64846Y487521D01*
Y489827D01*
X61106D01*
Y485496D01*
Y481165D01*
X64798D01*
X64846Y481165D01*
X65598Y481049D01*
Y480101D01*
X64846Y479984D01*
Y479984D01*
X61106D01*
Y475653D01*
X60515D01*
Y475063D01*
X56185D01*
Y471382D01*
X55004D01*
Y475063D01*
X50673D01*
X46342D01*
Y471382D01*
X45161D01*
Y475063D01*
X40830D01*
Y475653D01*
X40240D01*
Y479984D01*
X36500D01*
Y475360D01*
X35768Y474995D01*
X35211Y475361D01*
Y486182D01*
X35419Y486321D01*
X35700Y486741D01*
X36500Y486498D01*
Y486086D01*
X40830D01*
X45161D01*
Y489022D01*
X45174Y489149D01*
X45541Y489342D01*
X45543Y489342D01*
X46342Y488860D01*
Y486086D01*
X50082D01*
Y489827D01*
X47362D01*
X46959Y490627D01*
X47240Y491008D01*
X50082D01*
Y495338D01*
X50673D01*
Y495929D01*
X55004D01*
Y498038D01*
X55385Y498280D01*
X56185Y497841D01*
Y495929D01*
X59925D01*
Y499669D01*
X57472D01*
X57166Y500408D01*
X61742Y504984D01*
X64797D01*
X65649Y504133D01*
D02*
G37*
G36*
X110672Y498927D02*
X108798D01*
X109997Y500027D01*
X109998Y501128D01*
X108798Y502327D01*
X110672Y502327D01*
Y498927D01*
D02*
G37*
G36*
X109198Y500728D02*
Y500527D01*
X107597Y498927D01*
X107298D01*
Y502327D01*
X107598Y502328D01*
X109198Y500728D01*
D02*
G37*
G36*
X116028Y499423D02*
X116200Y499282D01*
Y498840D01*
X125023Y497860D01*
X125287Y497105D01*
X122245Y494063D01*
X114116D01*
X114068Y494095D01*
X113300Y494247D01*
X112532Y494095D01*
X111881Y493659D01*
X111741Y493451D01*
X110681D01*
X109098Y495034D01*
X108705Y495296D01*
X108242Y495388D01*
X108242Y495388D01*
X103064D01*
X101632Y496820D01*
X101938Y497559D01*
X103181D01*
Y497559D01*
X103417Y497746D01*
X108779D01*
X108779Y497746D01*
X109417D01*
Y497746D01*
X109579Y497746D01*
X114779D01*
Y499423D01*
X116028D01*
X116028Y499423D01*
D02*
G37*
G36*
X126069Y491687D02*
Y488021D01*
X122730Y484682D01*
X112270D01*
X108931Y488021D01*
Y490684D01*
X109716Y491122D01*
X110179Y491030D01*
X110179Y491030D01*
X111741D01*
X111881Y490821D01*
X112532Y490386D01*
X113300Y490233D01*
X114068Y490386D01*
X114116Y490418D01*
X123000D01*
X123000Y490418D01*
X123697Y490556D01*
X124289Y490952D01*
X125330Y491993D01*
X126069Y491687D01*
D02*
G37*
G36*
X134780Y496776D02*
Y416444D01*
X132825D01*
X132553Y417244D01*
X132804Y417437D01*
X133434Y418258D01*
X133830Y419214D01*
X133887Y419650D01*
X130000D01*
X126113D01*
X126170Y419214D01*
X126566Y418258D01*
X127196Y417437D01*
X127447Y417244D01*
X127175Y416444D01*
X123922D01*
X123650Y417244D01*
X124129Y417612D01*
X124720Y418381D01*
X125091Y419278D01*
X125218Y420240D01*
X125091Y421202D01*
X124720Y422099D01*
X124129Y422869D01*
X123359Y423460D01*
X122462Y423831D01*
X121500Y423958D01*
X120538Y423831D01*
X119641Y423460D01*
X118871Y422869D01*
X118280Y422099D01*
X117909Y421202D01*
X117782Y420240D01*
X117909Y419278D01*
X118280Y418381D01*
X118871Y417612D01*
X119350Y417244D01*
X119078Y416444D01*
X117531D01*
X116997Y417244D01*
X117069Y417418D01*
X117177Y418240D01*
X117069Y419062D01*
X116751Y419829D01*
X116246Y420487D01*
X115588Y420991D01*
X114822Y421309D01*
X114000Y421417D01*
X113178Y421309D01*
X112412Y420991D01*
X111754Y420487D01*
X111249Y419829D01*
X110932Y419062D01*
X110823Y418240D01*
X110932Y417418D01*
X111003Y417244D01*
X110469Y416444D01*
X107825D01*
X107553Y417244D01*
X107804Y417437D01*
X108434Y418258D01*
X108830Y419214D01*
X108887Y419650D01*
X105000D01*
X101113D01*
X101170Y419214D01*
X101566Y418258D01*
X102196Y417437D01*
X102447Y417244D01*
X102175Y416444D01*
X52775Y416444D01*
Y421564D01*
X41229D01*
Y416444D01*
X17825D01*
X17553Y417244D01*
X17804Y417437D01*
X18434Y418258D01*
X18830Y419214D01*
X18887Y419650D01*
X15000D01*
Y420240D01*
X14410D01*
Y424127D01*
X13974Y424070D01*
X13017Y423674D01*
X12196Y423044D01*
X12004Y422794D01*
X11204Y423065D01*
Y427415D01*
X12004Y427687D01*
X12196Y427436D01*
X13017Y426806D01*
X13974Y426410D01*
X15000Y426275D01*
X16026Y426410D01*
X16983Y426806D01*
X17804Y427436D01*
X17822Y427461D01*
X22923D01*
Y424521D01*
X22419D01*
Y417359D01*
X27581D01*
Y424521D01*
X27077D01*
Y427561D01*
X45100D01*
X45819Y427655D01*
X46490Y427933D01*
X47065Y428375D01*
X58315Y439625D01*
X58728Y440162D01*
X59266Y440575D01*
X59300Y440609D01*
X61131D01*
X61319Y440359D01*
Y440359D01*
X66519D01*
X66681Y440359D01*
X66681Y440359D01*
X67319Y440359D01*
Y440359D01*
X72681D01*
Y446121D01*
X70822D01*
X70771Y446378D01*
X70376Y446969D01*
X70376Y446969D01*
X67131Y450214D01*
Y453871D01*
X66681D01*
Y458173D01*
X86400D01*
X87000Y458292D01*
X87508Y458632D01*
X91608Y462732D01*
X91948Y463240D01*
X92067Y463840D01*
Y467835D01*
X92867Y468263D01*
X93132Y468086D01*
X93900Y467933D01*
X94668Y468086D01*
X95319Y468521D01*
X95463Y468736D01*
X101368D01*
X101566Y468258D01*
X102196Y467437D01*
X103017Y466806D01*
X103974Y466410D01*
X105000Y466275D01*
X106026Y466410D01*
X106983Y466806D01*
X107804Y467437D01*
X108434Y468258D01*
X108585Y468622D01*
X126415D01*
X126566Y468258D01*
X127196Y467437D01*
X128017Y466806D01*
X128974Y466410D01*
X130000Y466275D01*
X131026Y466410D01*
X131983Y466806D01*
X132804Y467437D01*
X133434Y468258D01*
X133830Y469214D01*
X133965Y470240D01*
X133830Y471267D01*
X133434Y472223D01*
X132804Y473044D01*
X131983Y473674D01*
X131026Y474070D01*
X130000Y474205D01*
X128974Y474070D01*
X128017Y473674D01*
X127196Y473044D01*
X126566Y472223D01*
X126415Y471859D01*
X108585D01*
X108434Y472223D01*
X107804Y473044D01*
X106983Y473674D01*
X106026Y474070D01*
X105000Y474205D01*
X103974Y474070D01*
X103017Y473674D01*
X102196Y473044D01*
X101566Y472223D01*
X101170Y471267D01*
X101154Y471144D01*
X95463D01*
X95319Y471359D01*
X94668Y471795D01*
X93900Y471947D01*
X93132Y471795D01*
X92867Y471618D01*
X92067Y472046D01*
Y477091D01*
X96433Y481457D01*
X96773Y481965D01*
X96892Y482565D01*
Y492043D01*
X96947Y492124D01*
X97899Y492303D01*
X98677Y491526D01*
Y485353D01*
X98677Y485353D01*
X98769Y484890D01*
X99031Y484497D01*
X101490Y482038D01*
X101170Y481266D01*
X101035Y480240D01*
X101170Y479214D01*
X101566Y478258D01*
X102196Y477436D01*
X103017Y476806D01*
X103974Y476410D01*
X105000Y476275D01*
X106026Y476410D01*
X106838Y476747D01*
X107060Y476599D01*
X107523Y476507D01*
X107523Y476507D01*
X127477D01*
X127477Y476507D01*
X127940Y476599D01*
X128162Y476747D01*
X128974Y476410D01*
X130000Y476275D01*
X131026Y476410D01*
X131983Y476806D01*
X132804Y477436D01*
X133434Y478258D01*
X133830Y479214D01*
X133965Y480240D01*
X133830Y481266D01*
X133434Y482223D01*
X132804Y483044D01*
X131983Y483674D01*
X131026Y484070D01*
X130000Y484205D01*
X128974Y484070D01*
X128017Y483674D01*
X127196Y483044D01*
X126566Y482223D01*
X126170Y481266D01*
X126035Y480240D01*
X126102Y479728D01*
X125482Y478928D01*
X109518D01*
X108898Y479728D01*
X108965Y480240D01*
X108830Y481266D01*
X108434Y482223D01*
X107804Y483044D01*
X106983Y483674D01*
X106026Y484070D01*
X105000Y484205D01*
X103974Y484070D01*
X103202Y483750D01*
X101443Y485509D01*
X101775Y486309D01*
X107219D01*
X110912Y482616D01*
X110912Y482616D01*
X111305Y482353D01*
X111768Y482261D01*
X123231D01*
X123231Y482261D01*
X123695Y482353D01*
X124088Y482616D01*
X127781Y486309D01*
X133931D01*
Y494171D01*
X128881D01*
X128528Y494961D01*
X128844Y495359D01*
X131681D01*
Y496520D01*
X132277Y497054D01*
X134780Y496776D01*
D02*
G37*
G36*
X89881Y494753D02*
X90321Y494008D01*
X90168Y493240D01*
X90321Y492472D01*
X90756Y491821D01*
X91039Y491632D01*
Y484031D01*
X88392Y481384D01*
X88392Y481384D01*
X86892Y479884D01*
X86552Y479376D01*
X86432Y478776D01*
Y465525D01*
X84715Y463808D01*
X83150D01*
Y467091D01*
Y471760D01*
X83327Y472505D01*
X83361Y472533D01*
X84129Y472686D01*
X84780Y473121D01*
X85215Y473772D01*
X85368Y474540D01*
X85215Y475308D01*
X84780Y475959D01*
X84129Y476395D01*
X83361Y476547D01*
X83150Y476721D01*
Y478114D01*
X76850D01*
Y473533D01*
X76555Y473285D01*
X76050Y473106D01*
X75768Y473294D01*
X75000Y473447D01*
X74702Y473388D01*
X74634Y473396D01*
X73917Y473951D01*
X73902Y473982D01*
Y478606D01*
Y480181D01*
X71146D01*
Y481362D01*
X73902D01*
Y482711D01*
X76119D01*
Y481859D01*
X80881D01*
Y487621D01*
X80881D01*
Y487859D01*
X80881D01*
Y493359D01*
Y499121D01*
X79056D01*
X78991Y499230D01*
X79444Y500030D01*
X84604D01*
X89881Y494753D01*
D02*
G37*
G36*
X12196Y487437D02*
X13017Y486807D01*
X13973Y486411D01*
X15000Y486275D01*
X16026Y486411D01*
X16982Y486807D01*
X17144Y486931D01*
X18101Y486838D01*
X21873Y483065D01*
X21873Y483065D01*
X22266Y482803D01*
X22729Y482711D01*
X26792D01*
X26871Y481911D01*
X26768Y481890D01*
X26375Y481628D01*
X26375Y481628D01*
X17797Y473049D01*
X16982Y473674D01*
X16026Y474071D01*
X15000Y474206D01*
X13973Y474071D01*
X13017Y473674D01*
X12196Y473044D01*
X12004Y472794D01*
X11204Y473066D01*
Y477415D01*
X12004Y477687D01*
X12196Y477437D01*
X13017Y476807D01*
X13973Y476411D01*
X15000Y476275D01*
X16026Y476411D01*
X16982Y476807D01*
X17803Y477437D01*
X18433Y478258D01*
X18830Y479214D01*
X18965Y480241D01*
X18830Y481267D01*
X18433Y482223D01*
X17803Y483044D01*
X16982Y483674D01*
X16026Y484070D01*
X15000Y484206D01*
X13973Y484070D01*
X13017Y483674D01*
X12196Y483044D01*
X12004Y482794D01*
X11204Y483066D01*
Y487415D01*
X12004Y487687D01*
X12196Y487437D01*
D02*
G37*
G36*
X35825Y471625D02*
X36500Y471323D01*
Y471323D01*
X39945D01*
X40276Y470523D01*
X38918Y469164D01*
X38500Y469247D01*
X37732Y469095D01*
X37081Y468659D01*
X36646Y468008D01*
X36493Y467240D01*
X36579Y466808D01*
X36067Y466008D01*
X33757D01*
X32957Y466008D01*
Y470942D01*
X33730Y471385D01*
X33757Y471381D01*
X34500Y471233D01*
X35268Y471386D01*
X35700Y471674D01*
X35825Y471625D01*
D02*
G37*
G36*
X68390Y470565D02*
Y466008D01*
X67590Y466008D01*
X62287D01*
Y463252D01*
X61106D01*
Y466008D01*
X49689D01*
Y463252D01*
Y460496D01*
X52141D01*
X52830Y459807D01*
X52830Y459807D01*
X53685Y458952D01*
X53675Y458874D01*
X53769Y458154D01*
X54047Y457484D01*
X54220Y457258D01*
Y450240D01*
X54315Y449521D01*
X54319Y449511D01*
Y447359D01*
X54869D01*
Y443927D01*
X54384Y443556D01*
X43949Y433120D01*
X35681D01*
Y438121D01*
X30319D01*
Y435559D01*
X27581D01*
Y439109D01*
X27681D01*
Y445371D01*
X22919D01*
Y439121D01*
X22419D01*
Y433020D01*
X17822D01*
X17804Y433044D01*
X16983Y433674D01*
X16026Y434070D01*
X15000Y434205D01*
X13974Y434070D01*
X13017Y433674D01*
X12196Y433044D01*
X12004Y432794D01*
X11204Y433065D01*
Y437415D01*
X12004Y437687D01*
X12196Y437437D01*
X13017Y436807D01*
X13973Y436411D01*
X15000Y436275D01*
X16026Y436411D01*
X16982Y436807D01*
X17803Y437437D01*
X18433Y438258D01*
X18830Y439214D01*
X18965Y440241D01*
X18830Y441267D01*
X18433Y442223D01*
X17803Y443044D01*
X16982Y443674D01*
X16885Y443715D01*
X16698Y444658D01*
X20190Y448150D01*
X20190Y448150D01*
X20452Y448543D01*
X20545Y449006D01*
X20545Y449007D01*
Y455773D01*
X24956Y460184D01*
X24956Y460184D01*
X25218Y460577D01*
X25311Y461040D01*
X25311Y461040D01*
Y469639D01*
X25784Y470112D01*
X27445D01*
Y466008D01*
X30385D01*
X31185Y466008D01*
Y460496D01*
X48508D01*
Y463252D01*
Y466008D01*
X44476D01*
X44061Y466634D01*
X44409Y467386D01*
X63667D01*
X63667Y467386D01*
X64128Y467478D01*
X64519Y467739D01*
X67651Y470871D01*
X68390Y470565D01*
D02*
G37*
G36*
X76850Y463808D02*
X70161D01*
Y466008D01*
X70961Y466008D01*
X73902D01*
Y467461D01*
X76850D01*
Y463808D01*
D02*
G37*
G36*
X58553Y460463D02*
X59494Y459522D01*
X59478Y459440D01*
X59616Y458743D01*
X60011Y458152D01*
X61200Y456963D01*
Y453871D01*
X60869D01*
Y446609D01*
X61200D01*
Y444940D01*
X61200Y443402D01*
X60631Y442840D01*
X56077Y442899D01*
X55994Y442978D01*
X55790Y443238D01*
X55718Y443354D01*
X55680Y443449D01*
X55627Y443705D01*
X55631Y443723D01*
X55665Y443823D01*
X55661Y443876D01*
X55672Y443927D01*
Y443960D01*
X55807Y444640D01*
X55672Y445321D01*
Y447359D01*
X55611Y447666D01*
X55437Y447927D01*
X55176Y448101D01*
X55122Y448112D01*
Y449511D01*
X55108Y449580D01*
X55111Y449626D01*
X55023Y450293D01*
Y457258D01*
X55003Y457361D01*
X54996Y457466D01*
X54972Y457514D01*
X54962Y457565D01*
X54904Y457653D01*
X54857Y457747D01*
X54748Y457889D01*
X54681Y458051D01*
Y459121D01*
X54574D01*
X54133Y459785D01*
X54423Y460481D01*
X58553Y460463D01*
D02*
G37*
G36*
X66100Y443840D02*
X66100Y442740D01*
X67300Y441540D01*
X65425Y441540D01*
Y444940D01*
X67300D01*
X66100Y443840D01*
D02*
G37*
G36*
X68800Y441540D02*
X68500Y441540D01*
X66900Y443140D01*
Y443340D01*
X68501Y444941D01*
X68800D01*
Y441540D01*
D02*
G37*
G36*
X113160Y385263D02*
X112970Y385073D01*
X112843Y384988D01*
X109949Y382094D01*
X105797D01*
X105797Y385520D01*
X110793Y385520D01*
X111720Y386447D01*
X113160D01*
Y385263D01*
D02*
G37*
G36*
X134780Y385720D02*
X122790Y383693D01*
X122215Y384407D01*
Y391717D01*
X110601D01*
Y387064D01*
X110010Y386474D01*
Y386322D01*
X109859D01*
X109859Y386322D01*
X105797Y386322D01*
X105490Y386261D01*
X105229Y386087D01*
X105055Y385827D01*
X104994Y385520D01*
X104994Y382974D01*
X104194Y382547D01*
X103918Y382732D01*
X103150Y382884D01*
X102382Y382732D01*
X101730Y382296D01*
X101295Y381645D01*
X101143Y380877D01*
X101216Y380507D01*
X100607Y379817D01*
X100600Y379814D01*
X100500Y379834D01*
X99732Y379681D01*
X99383Y379448D01*
X98583Y379831D01*
X98583Y401623D01*
X134780D01*
Y385720D01*
D02*
G37*
G36*
X121272Y383436D02*
X120400Y383289D01*
X119861Y384009D01*
X119972Y384236D01*
X121205D01*
X121272Y383436D01*
D02*
G37*
G36*
X116200Y379245D02*
Y376389D01*
X115481Y375671D01*
X114681Y375708D01*
Y375708D01*
X112574D01*
X112210Y376449D01*
X112220Y376508D01*
X112684Y376818D01*
X114581Y378715D01*
X114666Y378842D01*
X115400Y379576D01*
X116200Y379245D01*
D02*
G37*
G36*
X53701Y402916D02*
X53254Y402573D01*
X52749Y401915D01*
X52431Y401149D01*
X52323Y400327D01*
X52431Y399505D01*
X52749Y398738D01*
X53254Y398080D01*
X53701Y397737D01*
X53701Y375083D01*
X40020D01*
X39312Y375827D01*
Y384539D01*
X40687D01*
Y386638D01*
X40689Y386639D01*
X41126Y387695D01*
X41275Y388827D01*
X41126Y389959D01*
X40689Y391014D01*
X40687Y391016D01*
Y396114D01*
X40646Y396135D01*
X40064Y396760D01*
Y404587D01*
X53701D01*
Y402916D01*
D02*
G37*
G36*
X33733Y396760D02*
X33148Y396132D01*
X33113Y396114D01*
Y391016D01*
X33111Y391014D01*
X32674Y389959D01*
X32525Y388827D01*
X32674Y387695D01*
X33111Y386639D01*
X33113Y386638D01*
Y384539D01*
X33689D01*
Y375827D01*
X32980Y375083D01*
X31185D01*
Y374791D01*
X30385Y374257D01*
X30000Y374334D01*
X29232Y374181D01*
X28781Y373880D01*
X28107Y374132D01*
X27981Y374234D01*
Y375008D01*
X23423D01*
Y381288D01*
X24624Y382490D01*
X24625Y382490D01*
X24887Y382882D01*
X24979Y383346D01*
Y385958D01*
X24887Y386422D01*
X24625Y386814D01*
X24624Y386814D01*
X24083Y387356D01*
X24107Y387477D01*
X23954Y388245D01*
X23519Y388896D01*
X22868Y389332D01*
X22100Y389484D01*
X21332Y389332D01*
X20967Y389088D01*
X20167Y389458D01*
Y390870D01*
X20075Y391333D01*
X19813Y391726D01*
X19813Y391726D01*
X18931Y392608D01*
Y398758D01*
X16718D01*
X16446Y399558D01*
X16629Y399698D01*
X17220Y400468D01*
X17591Y401365D01*
X17718Y402327D01*
X17591Y403289D01*
X17385Y403787D01*
X17863Y404587D01*
X33733D01*
Y396760D01*
D02*
G37*
G36*
X96477Y374427D02*
X96641Y374186D01*
X96783Y373627D01*
X96673Y373516D01*
X96655Y373489D01*
X96074Y372908D01*
X92419D01*
Y372169D01*
X75720D01*
X75607Y372283D01*
X75214Y372545D01*
X74750Y372638D01*
X74750Y372638D01*
X70161D01*
Y374427D01*
X96477Y374427D01*
D02*
G37*
G36*
X110575Y371127D02*
X108700D01*
X109900Y372227D01*
X109900Y373327D01*
X108700Y374527D01*
X110575Y374527D01*
Y371127D01*
D02*
G37*
G36*
X109100Y372927D02*
Y372727D01*
X107499Y371126D01*
X107200D01*
Y374527D01*
X107500Y374527D01*
X109100Y372927D01*
D02*
G37*
G36*
X40240Y369571D02*
X50945D01*
X51602Y368771D01*
X51593Y368727D01*
X51746Y367959D01*
X51820Y367847D01*
X51393Y367047D01*
X46263D01*
X46155Y367069D01*
X46155Y367069D01*
X45303D01*
X45234Y367420D01*
X44799Y368071D01*
X44147Y368506D01*
X43379Y368659D01*
X42611Y368506D01*
X41960Y368071D01*
X41757Y367768D01*
X40805Y367589D01*
X40623Y367771D01*
X40233Y368032D01*
X39772Y368123D01*
X39772Y368123D01*
X35415D01*
X34707Y368832D01*
X35013Y369571D01*
X35516D01*
Y369965D01*
X37484D01*
Y369571D01*
X39059D01*
Y372327D01*
X40240D01*
Y369571D01*
D02*
G37*
G36*
X65649Y368719D02*
X66039Y368458D01*
X66500Y368367D01*
X66500Y368367D01*
X68390D01*
Y366906D01*
X66619D01*
X66619Y366906D01*
X66156Y366814D01*
X65763Y366551D01*
X65763Y366551D01*
X64375Y365164D01*
X64113Y364771D01*
X64021Y364308D01*
X63257Y364256D01*
X61106D01*
Y359925D01*
Y355594D01*
X64846D01*
X64846Y355594D01*
X65574Y355420D01*
X65646Y355059D01*
X66081Y354408D01*
X66384Y354205D01*
X66563Y353253D01*
X65953Y352642D01*
X65690Y352249D01*
X65646Y352028D01*
X64846Y352107D01*
Y354413D01*
X61106D01*
Y350082D01*
Y345752D01*
X64798D01*
X64846Y345752D01*
X65598Y345635D01*
Y344687D01*
X64846Y344571D01*
Y344571D01*
X61106D01*
Y340240D01*
X60515D01*
Y339649D01*
X56185D01*
Y335969D01*
X55004D01*
Y339649D01*
X50673D01*
X46342D01*
Y335969D01*
X45161D01*
Y339649D01*
X40830D01*
Y340240D01*
X40240D01*
Y344571D01*
X36500D01*
Y339946D01*
X35768Y339582D01*
X35211Y339948D01*
Y350768D01*
X35419Y350908D01*
X35700Y351328D01*
X36500Y351085D01*
Y350673D01*
X40830D01*
X45161D01*
Y353608D01*
X45174Y353735D01*
X45541Y353929D01*
X45543Y353929D01*
X46342Y353447D01*
Y350673D01*
X50082D01*
Y354413D01*
X47362D01*
X46959Y355213D01*
X47240Y355594D01*
X50082D01*
Y359925D01*
X50673D01*
Y360515D01*
X55004D01*
Y362624D01*
X55385Y362867D01*
X56185Y362427D01*
Y360515D01*
X59925D01*
Y364256D01*
X57472D01*
X57166Y364995D01*
X61742Y369571D01*
X64797D01*
X65649Y368719D01*
D02*
G37*
G36*
X110672Y363514D02*
X108798D01*
X109997Y364614D01*
X109998Y365714D01*
X108798Y366914D01*
X110672Y366914D01*
Y363514D01*
D02*
G37*
G36*
X109198Y365314D02*
Y365114D01*
X107597Y363514D01*
X107298D01*
Y366914D01*
X107598Y366914D01*
X109198Y365314D01*
D02*
G37*
G36*
X116028Y364010D02*
X116200Y363869D01*
Y363427D01*
X125023Y362446D01*
X125287Y361692D01*
X122245Y358649D01*
X114116D01*
X114068Y358681D01*
X113300Y358834D01*
X112532Y358681D01*
X111881Y358246D01*
X111741Y358037D01*
X110681D01*
X109098Y359620D01*
X108705Y359883D01*
X108242Y359975D01*
X108242Y359975D01*
X103064D01*
X101632Y361407D01*
X101938Y362146D01*
X103181D01*
Y362146D01*
X103417Y362333D01*
X108779D01*
X108779Y362333D01*
X109417D01*
Y362333D01*
X109579Y362333D01*
X114779D01*
Y364010D01*
X116028D01*
X116028Y364010D01*
D02*
G37*
G36*
X126069Y356273D02*
Y352608D01*
X122730Y349269D01*
X112270D01*
X108931Y352608D01*
Y355271D01*
X109716Y355708D01*
X110179Y355616D01*
X110179Y355616D01*
X111741D01*
X111881Y355408D01*
X112532Y354973D01*
X113300Y354820D01*
X114068Y354973D01*
X114116Y355004D01*
X123000D01*
X123000Y355004D01*
X123697Y355143D01*
X124289Y355538D01*
X125330Y356579D01*
X126069Y356273D01*
D02*
G37*
G36*
X134780Y361362D02*
Y281031D01*
X132825D01*
X132553Y281831D01*
X132804Y282023D01*
X133434Y282844D01*
X133830Y283801D01*
X133887Y284236D01*
X130000D01*
X126113D01*
X126170Y283801D01*
X126566Y282844D01*
X127196Y282023D01*
X127447Y281831D01*
X127175Y281031D01*
X123922D01*
X123650Y281831D01*
X124129Y282198D01*
X124720Y282968D01*
X125091Y283865D01*
X125218Y284827D01*
X125091Y285789D01*
X124720Y286686D01*
X124129Y287456D01*
X123359Y288046D01*
X122462Y288418D01*
X121500Y288545D01*
X120538Y288418D01*
X119641Y288046D01*
X118871Y287456D01*
X118280Y286686D01*
X117909Y285789D01*
X117782Y284827D01*
X117909Y283865D01*
X118280Y282968D01*
X118871Y282198D01*
X119350Y281831D01*
X119078Y281031D01*
X117531D01*
X116997Y281831D01*
X117069Y282005D01*
X117177Y282827D01*
X117069Y283649D01*
X116751Y284415D01*
X116246Y285073D01*
X115588Y285578D01*
X114822Y285895D01*
X114000Y286004D01*
X113178Y285895D01*
X112412Y285578D01*
X111754Y285073D01*
X111249Y284415D01*
X110932Y283649D01*
X110823Y282827D01*
X110932Y282005D01*
X111003Y281831D01*
X110469Y281031D01*
X107825D01*
X107553Y281831D01*
X107804Y282023D01*
X108434Y282844D01*
X108830Y283801D01*
X108887Y284236D01*
X105000D01*
X101113D01*
X101170Y283801D01*
X101566Y282844D01*
X102196Y282023D01*
X102447Y281831D01*
X102175Y281031D01*
X52775Y281031D01*
Y286150D01*
X41229D01*
Y281031D01*
X17825D01*
X17553Y281831D01*
X17804Y282023D01*
X18434Y282844D01*
X18830Y283801D01*
X18887Y284236D01*
X15000D01*
Y284827D01*
X14410D01*
Y288714D01*
X13974Y288657D01*
X13017Y288261D01*
X12196Y287631D01*
X12004Y287380D01*
X11204Y287652D01*
Y292002D01*
X12004Y292273D01*
X12196Y292023D01*
X13017Y291393D01*
X13974Y290997D01*
X15000Y290862D01*
X16026Y290997D01*
X16983Y291393D01*
X17804Y292023D01*
X17822Y292047D01*
X22923D01*
Y289108D01*
X22419D01*
Y281946D01*
X27581D01*
Y289108D01*
X27077D01*
Y292147D01*
X45100D01*
X45819Y292242D01*
X46490Y292520D01*
X47065Y292961D01*
X58315Y304211D01*
X58728Y304749D01*
X59266Y305161D01*
X59300Y305196D01*
X61131D01*
X61319Y304946D01*
Y304946D01*
X66519D01*
X66681Y304946D01*
X66681Y304946D01*
X67319Y304946D01*
Y304946D01*
X72681D01*
Y310708D01*
X70822D01*
X70771Y310965D01*
X70376Y311556D01*
X70376Y311556D01*
X67131Y314801D01*
Y318458D01*
X66681D01*
Y322759D01*
X86400D01*
X87000Y322879D01*
X87508Y323218D01*
X91608Y327318D01*
X91948Y327827D01*
X92067Y328427D01*
Y332422D01*
X92867Y332849D01*
X93132Y332673D01*
X93900Y332520D01*
X94668Y332673D01*
X95319Y333108D01*
X95463Y333323D01*
X101368D01*
X101566Y332844D01*
X102196Y332023D01*
X103017Y331393D01*
X103974Y330997D01*
X105000Y330862D01*
X106026Y330997D01*
X106983Y331393D01*
X107804Y332023D01*
X108434Y332844D01*
X108585Y333208D01*
X126415D01*
X126566Y332844D01*
X127196Y332023D01*
X128017Y331393D01*
X128974Y330997D01*
X130000Y330862D01*
X131026Y330997D01*
X131983Y331393D01*
X132804Y332023D01*
X133434Y332844D01*
X133830Y333801D01*
X133965Y334827D01*
X133830Y335853D01*
X133434Y336809D01*
X132804Y337631D01*
X131983Y338261D01*
X131026Y338657D01*
X130000Y338792D01*
X128974Y338657D01*
X128017Y338261D01*
X127196Y337631D01*
X126566Y336809D01*
X126415Y336445D01*
X108585D01*
X108434Y336809D01*
X107804Y337631D01*
X106983Y338261D01*
X106026Y338657D01*
X105000Y338792D01*
X103974Y338657D01*
X103017Y338261D01*
X102196Y337631D01*
X101566Y336809D01*
X101170Y335853D01*
X101154Y335731D01*
X95463D01*
X95319Y335946D01*
X94668Y336381D01*
X93900Y336534D01*
X93132Y336381D01*
X92867Y336204D01*
X92067Y336632D01*
Y341678D01*
X96433Y346043D01*
X96773Y346552D01*
X96892Y347152D01*
Y356630D01*
X96947Y356711D01*
X97899Y356890D01*
X98677Y356112D01*
Y349939D01*
X98677Y349939D01*
X98769Y349476D01*
X99031Y349083D01*
X101490Y346625D01*
X101170Y345853D01*
X101035Y344827D01*
X101170Y343801D01*
X101566Y342844D01*
X102196Y342023D01*
X103017Y341393D01*
X103974Y340997D01*
X105000Y340862D01*
X106026Y340997D01*
X106838Y341333D01*
X107060Y341185D01*
X107523Y341093D01*
X107523Y341093D01*
X127477D01*
X127477Y341093D01*
X127940Y341185D01*
X128162Y341333D01*
X128974Y340997D01*
X130000Y340862D01*
X131026Y340997D01*
X131983Y341393D01*
X132804Y342023D01*
X133434Y342844D01*
X133830Y343801D01*
X133965Y344827D01*
X133830Y345853D01*
X133434Y346809D01*
X132804Y347631D01*
X131983Y348261D01*
X131026Y348657D01*
X130000Y348792D01*
X128974Y348657D01*
X128017Y348261D01*
X127196Y347631D01*
X126566Y346809D01*
X126170Y345853D01*
X126035Y344827D01*
X126102Y344315D01*
X125482Y343515D01*
X109518D01*
X108898Y344315D01*
X108965Y344827D01*
X108830Y345853D01*
X108434Y346809D01*
X107804Y347631D01*
X106983Y348261D01*
X106026Y348657D01*
X105000Y348792D01*
X103974Y348657D01*
X103202Y348337D01*
X101443Y350096D01*
X101775Y350896D01*
X107219D01*
X110912Y347202D01*
X110912Y347202D01*
X111305Y346940D01*
X111768Y346848D01*
X123231D01*
X123231Y346848D01*
X123695Y346940D01*
X124088Y347202D01*
X127781Y350896D01*
X133931D01*
Y358758D01*
X128881D01*
X128528Y359547D01*
X128844Y359946D01*
X131681D01*
Y361107D01*
X132277Y361641D01*
X134780Y361362D01*
D02*
G37*
G36*
X89881Y359339D02*
X90321Y358595D01*
X90168Y357827D01*
X90321Y357059D01*
X90756Y356408D01*
X91039Y356219D01*
Y348618D01*
X88392Y345971D01*
X88392Y345971D01*
X86892Y344471D01*
X86552Y343962D01*
X86432Y343362D01*
Y330112D01*
X84715Y328394D01*
X83150D01*
Y331677D01*
Y336346D01*
X83327Y337092D01*
X83361Y337120D01*
X84129Y337273D01*
X84780Y337708D01*
X85215Y338359D01*
X85368Y339127D01*
X85215Y339895D01*
X84780Y340546D01*
X84129Y340981D01*
X83361Y341134D01*
X83150Y341307D01*
Y342701D01*
X76850D01*
Y338120D01*
X76555Y337872D01*
X76050Y337692D01*
X75768Y337881D01*
X75000Y338034D01*
X74702Y337975D01*
X74634Y337983D01*
X73917Y338538D01*
X73902Y338569D01*
Y343193D01*
Y344768D01*
X71146D01*
Y345949D01*
X73902D01*
Y347297D01*
X76119D01*
Y346446D01*
X80881D01*
Y352208D01*
X80881D01*
Y352446D01*
X80881D01*
Y357946D01*
Y363708D01*
X79056D01*
X78991Y363816D01*
X79444Y364616D01*
X84604D01*
X89881Y359339D01*
D02*
G37*
G36*
X12196Y352024D02*
X13017Y351393D01*
X13973Y350997D01*
X15000Y350862D01*
X16026Y350997D01*
X16982Y351393D01*
X17144Y351518D01*
X18101Y351424D01*
X21873Y347652D01*
X21873Y347652D01*
X22266Y347389D01*
X22729Y347297D01*
X26792D01*
X26871Y346497D01*
X26768Y346477D01*
X26375Y346214D01*
X26375Y346214D01*
X17797Y337636D01*
X16982Y338261D01*
X16026Y338657D01*
X15000Y338792D01*
X13973Y338657D01*
X13017Y338261D01*
X12196Y337631D01*
X12004Y337381D01*
X11204Y337652D01*
Y342002D01*
X12004Y342273D01*
X12196Y342023D01*
X13017Y341393D01*
X13973Y340997D01*
X15000Y340862D01*
X16026Y340997D01*
X16982Y341393D01*
X17803Y342023D01*
X18433Y342845D01*
X18830Y343801D01*
X18965Y344827D01*
X18830Y345853D01*
X18433Y346810D01*
X17803Y347631D01*
X16982Y348261D01*
X16026Y348657D01*
X15000Y348792D01*
X13973Y348657D01*
X13017Y348261D01*
X12196Y347631D01*
X12004Y347381D01*
X11204Y347653D01*
Y352002D01*
X12004Y352273D01*
X12196Y352024D01*
D02*
G37*
G36*
X35825Y336212D02*
X36500Y335909D01*
Y335909D01*
X39945D01*
X40276Y335109D01*
X38918Y333751D01*
X38500Y333834D01*
X37732Y333681D01*
X37081Y333246D01*
X36646Y332595D01*
X36493Y331827D01*
X36579Y331395D01*
X36067Y330594D01*
X33757D01*
X32957Y330595D01*
Y335528D01*
X33730Y335971D01*
X33757Y335968D01*
X34500Y335820D01*
X35268Y335972D01*
X35700Y336261D01*
X35825Y336212D01*
D02*
G37*
G36*
X68390Y335151D02*
Y330595D01*
X67590Y330594D01*
X62287D01*
Y327839D01*
X61106D01*
Y330594D01*
X49689D01*
Y327839D01*
Y325083D01*
X52141D01*
X52830Y324394D01*
X52830Y324394D01*
X53685Y323539D01*
X53675Y323460D01*
X53769Y322741D01*
X54047Y322071D01*
X54220Y321845D01*
Y314827D01*
X54315Y314107D01*
X54319Y314098D01*
Y311946D01*
X54869D01*
Y308514D01*
X54384Y308142D01*
X43949Y297707D01*
X35681D01*
Y302708D01*
X30319D01*
Y300145D01*
X27581D01*
Y303696D01*
X27681D01*
Y309958D01*
X22919D01*
Y303708D01*
X22419D01*
Y297606D01*
X17822D01*
X17804Y297631D01*
X16983Y298261D01*
X16026Y298657D01*
X15000Y298792D01*
X13974Y298657D01*
X13017Y298261D01*
X12196Y297631D01*
X12004Y297380D01*
X11204Y297652D01*
Y302002D01*
X12004Y302273D01*
X12196Y302024D01*
X13017Y301393D01*
X13973Y300997D01*
X15000Y300862D01*
X16026Y300997D01*
X16982Y301393D01*
X17803Y302024D01*
X18433Y302845D01*
X18830Y303801D01*
X18965Y304827D01*
X18830Y305853D01*
X18433Y306810D01*
X17803Y307631D01*
X16982Y308261D01*
X16885Y308301D01*
X16698Y309245D01*
X20190Y312737D01*
X20190Y312737D01*
X20452Y313130D01*
X20545Y313593D01*
X20545Y313593D01*
Y320359D01*
X24956Y324771D01*
X24956Y324771D01*
X25218Y325164D01*
X25311Y325627D01*
X25311Y325627D01*
Y334225D01*
X25784Y334699D01*
X27445D01*
Y330594D01*
X30385D01*
X31185Y330594D01*
Y325083D01*
X48508D01*
Y327839D01*
Y330594D01*
X44476D01*
X44061Y331221D01*
X44409Y331973D01*
X63667D01*
X63667Y331973D01*
X64128Y332065D01*
X64519Y332326D01*
X67651Y335458D01*
X68390Y335151D01*
D02*
G37*
G36*
X76850Y328394D02*
X70161D01*
Y330594D01*
X70961Y330594D01*
X73902D01*
Y332048D01*
X76850D01*
Y328394D01*
D02*
G37*
G36*
X58553Y325050D02*
X59494Y324109D01*
X59478Y324027D01*
X59616Y323329D01*
X60011Y322738D01*
X61200Y321550D01*
Y318458D01*
X60869D01*
Y311196D01*
X61200D01*
Y309527D01*
X61200Y307988D01*
X60631Y307426D01*
X56077Y307486D01*
X55994Y307564D01*
X55790Y307825D01*
X55718Y307940D01*
X55680Y308036D01*
X55627Y308292D01*
X55631Y308310D01*
X55665Y308409D01*
X55661Y308462D01*
X55672Y308514D01*
Y308546D01*
X55807Y309227D01*
X55672Y309907D01*
Y311946D01*
X55611Y312253D01*
X55437Y312513D01*
X55176Y312687D01*
X55122Y312698D01*
Y314098D01*
X55108Y314167D01*
X55111Y314212D01*
X55023Y314879D01*
Y321845D01*
X55003Y321948D01*
X54996Y322053D01*
X54972Y322100D01*
X54962Y322152D01*
X54904Y322239D01*
X54857Y322334D01*
X54748Y322476D01*
X54681Y322638D01*
Y323708D01*
X54574D01*
X54133Y324371D01*
X54423Y325068D01*
X58553Y325050D01*
D02*
G37*
G36*
X66100Y308427D02*
X66100Y307327D01*
X67300Y306127D01*
X65425Y306127D01*
Y309527D01*
X67300D01*
X66100Y308427D01*
D02*
G37*
G36*
X68800Y306127D02*
X68500Y306127D01*
X66900Y307727D01*
Y307927D01*
X68501Y309527D01*
X68800D01*
Y306127D01*
D02*
G37*
G36*
X113160Y249850D02*
X112970Y249660D01*
X112843Y249575D01*
X109949Y246681D01*
X105797D01*
X105797Y250106D01*
X110793Y250106D01*
X111720Y251034D01*
X113160D01*
Y249850D01*
D02*
G37*
G36*
X134780Y250307D02*
X122790Y248280D01*
X122215Y248994D01*
Y256303D01*
X110601D01*
Y251651D01*
X110010Y251060D01*
Y250909D01*
X109859D01*
X109859Y250909D01*
X105797Y250909D01*
X105490Y250848D01*
X105229Y250674D01*
X105055Y250413D01*
X104994Y250106D01*
X104994Y247561D01*
X104194Y247133D01*
X103918Y247318D01*
X103150Y247471D01*
X102382Y247318D01*
X101730Y246883D01*
X101295Y246232D01*
X101143Y245464D01*
X101216Y245094D01*
X100607Y244404D01*
X100600Y244401D01*
X100500Y244421D01*
X99732Y244268D01*
X99383Y244034D01*
X98583Y244418D01*
X98583Y266209D01*
X134780D01*
Y250307D01*
D02*
G37*
G36*
X121272Y248023D02*
X120400Y247875D01*
X119861Y248596D01*
X119972Y248823D01*
X121205D01*
X121272Y248023D01*
D02*
G37*
G36*
X116200Y243831D02*
Y240976D01*
X115481Y240257D01*
X114681Y240295D01*
Y240295D01*
X112574D01*
X112210Y241035D01*
X112220Y241094D01*
X112684Y241405D01*
X114581Y243302D01*
X114666Y243429D01*
X115400Y244163D01*
X116200Y243831D01*
D02*
G37*
G36*
X53701Y267503D02*
X53254Y267160D01*
X52749Y266502D01*
X52431Y265736D01*
X52323Y264913D01*
X52431Y264091D01*
X52749Y263325D01*
X53254Y262667D01*
X53701Y262324D01*
X53701Y239669D01*
X40020D01*
X39312Y240413D01*
Y249126D01*
X40687D01*
Y251224D01*
X40689Y251226D01*
X41126Y252281D01*
X41275Y253413D01*
X41126Y254546D01*
X40689Y255601D01*
X40687Y255603D01*
Y260701D01*
X40646Y260721D01*
X40064Y261347D01*
Y269174D01*
X53701D01*
Y267503D01*
D02*
G37*
G36*
X33733Y261347D02*
X33148Y260718D01*
X33113Y260701D01*
Y255603D01*
X33111Y255601D01*
X32674Y254546D01*
X32525Y253413D01*
X32674Y252281D01*
X33111Y251226D01*
X33113Y251224D01*
Y249126D01*
X33689D01*
Y240413D01*
X32980Y239669D01*
X31185D01*
Y239378D01*
X30385Y238844D01*
X30000Y238920D01*
X29232Y238768D01*
X28781Y238467D01*
X28107Y238719D01*
X27981Y238821D01*
Y239595D01*
X23423D01*
Y245875D01*
X24624Y247076D01*
X24625Y247076D01*
X24887Y247469D01*
X24979Y247932D01*
Y250545D01*
X24887Y251008D01*
X24625Y251401D01*
X24624Y251401D01*
X24083Y251943D01*
X24107Y252064D01*
X23954Y252832D01*
X23519Y253483D01*
X22868Y253918D01*
X22100Y254071D01*
X21332Y253918D01*
X20967Y253675D01*
X20167Y254045D01*
Y255457D01*
X20075Y255920D01*
X19813Y256313D01*
X19813Y256313D01*
X18931Y257195D01*
Y263345D01*
X16718D01*
X16446Y264145D01*
X16629Y264285D01*
X17220Y265055D01*
X17591Y265951D01*
X17718Y266913D01*
X17591Y267876D01*
X17385Y268374D01*
X17863Y269174D01*
X33733D01*
Y261347D01*
D02*
G37*
G36*
X96477Y239013D02*
X96641Y238773D01*
X96783Y238213D01*
X96673Y238103D01*
X96655Y238075D01*
X96074Y237494D01*
X92419D01*
Y236756D01*
X75720D01*
X75607Y236870D01*
X75214Y237132D01*
X74750Y237224D01*
X74750Y237224D01*
X70161D01*
Y239013D01*
X96477Y239013D01*
D02*
G37*
G36*
X110575Y235713D02*
X108700D01*
X109900Y236813D01*
X109900Y237913D01*
X108700Y239113D01*
X110575Y239113D01*
Y235713D01*
D02*
G37*
G36*
X109100Y237513D02*
Y237313D01*
X107499Y235713D01*
X107200D01*
Y239113D01*
X107500Y239113D01*
X109100Y237513D01*
D02*
G37*
G36*
X40240Y234157D02*
X50945D01*
X51602Y233358D01*
X51593Y233313D01*
X51746Y232545D01*
X51820Y232434D01*
X51393Y231634D01*
X46263D01*
X46155Y231656D01*
X46155Y231656D01*
X45303D01*
X45234Y232007D01*
X44799Y232658D01*
X44147Y233093D01*
X43379Y233246D01*
X42611Y233093D01*
X41960Y232658D01*
X41757Y232354D01*
X40805Y232175D01*
X40623Y232357D01*
X40233Y232618D01*
X39772Y232710D01*
X39772Y232710D01*
X35415D01*
X34707Y233418D01*
X35013Y234157D01*
X35516D01*
Y234551D01*
X37484D01*
Y234157D01*
X39059D01*
Y236913D01*
X40240D01*
Y234157D01*
D02*
G37*
G36*
X65649Y233306D02*
X66039Y233045D01*
X66500Y232953D01*
X66500Y232953D01*
X68390D01*
Y231493D01*
X66619D01*
X66619Y231493D01*
X66156Y231400D01*
X65763Y231138D01*
X65763Y231138D01*
X64375Y229751D01*
X64113Y229358D01*
X64021Y228894D01*
X63257Y228842D01*
X61106D01*
Y224512D01*
Y220181D01*
X64846D01*
X64846Y220181D01*
X65574Y220006D01*
X65646Y219645D01*
X66081Y218994D01*
X66384Y218792D01*
X66563Y217839D01*
X65953Y217229D01*
X65690Y216836D01*
X65646Y216615D01*
X64846Y216694D01*
Y219000D01*
X61106D01*
Y214669D01*
Y210338D01*
X64798D01*
X64846Y210338D01*
X65598Y210222D01*
Y209274D01*
X64846Y209157D01*
Y209157D01*
X61106D01*
Y204826D01*
X60515D01*
Y204236D01*
X56185D01*
Y200556D01*
X55004D01*
Y204236D01*
X50673D01*
X46342D01*
Y200556D01*
X45161D01*
Y204236D01*
X40830D01*
Y204826D01*
X40240D01*
Y209157D01*
X36500D01*
Y204533D01*
X35768Y204168D01*
X35211Y204534D01*
Y215355D01*
X35419Y215494D01*
X35700Y215914D01*
X36500Y215671D01*
Y215260D01*
X40830D01*
X45161D01*
Y218195D01*
X45174Y218322D01*
X45541Y218516D01*
X45543Y218516D01*
X46342Y218033D01*
Y215260D01*
X50082D01*
Y219000D01*
X47362D01*
X46959Y219800D01*
X47240Y220181D01*
X50082D01*
Y224512D01*
X50673D01*
Y225102D01*
X55004D01*
Y227211D01*
X55385Y227453D01*
X56185Y227014D01*
Y225102D01*
X59925D01*
Y228842D01*
X57472D01*
X57166Y229581D01*
X61742Y234157D01*
X64797D01*
X65649Y233306D01*
D02*
G37*
G36*
X110672Y228101D02*
X108798D01*
X109997Y229201D01*
X109998Y230301D01*
X108798Y231501D01*
X110672Y231501D01*
Y228101D01*
D02*
G37*
G36*
X109198Y229901D02*
Y229701D01*
X107597Y228100D01*
X107298D01*
Y231501D01*
X107598Y231501D01*
X109198Y229901D01*
D02*
G37*
G36*
X116028Y228596D02*
X116200Y228455D01*
Y228013D01*
X125023Y227033D01*
X125287Y226278D01*
X122245Y223236D01*
X114116D01*
X114068Y223268D01*
X113300Y223421D01*
X112532Y223268D01*
X111881Y222833D01*
X111741Y222624D01*
X110681D01*
X109098Y224207D01*
X108705Y224469D01*
X108242Y224562D01*
X108242Y224562D01*
X103064D01*
X101632Y225993D01*
X101938Y226732D01*
X103181D01*
Y226732D01*
X103417Y226920D01*
X108779D01*
X108779Y226920D01*
X109417D01*
Y226920D01*
X109579Y226920D01*
X114779D01*
Y228596D01*
X116028D01*
X116028Y228596D01*
D02*
G37*
G36*
X126069Y220860D02*
Y217195D01*
X122730Y213856D01*
X112270D01*
X108931Y217195D01*
Y219857D01*
X109716Y220295D01*
X110179Y220203D01*
X110179Y220203D01*
X111741D01*
X111881Y219994D01*
X112532Y219559D01*
X113300Y219406D01*
X114068Y219559D01*
X114116Y219591D01*
X123000D01*
X123000Y219591D01*
X123697Y219730D01*
X124289Y220125D01*
X125330Y221166D01*
X126069Y220860D01*
D02*
G37*
G36*
X134780Y225949D02*
Y145618D01*
X132825D01*
X132553Y146418D01*
X132804Y146610D01*
X133434Y147431D01*
X133830Y148387D01*
X133887Y148823D01*
X130000D01*
X126113D01*
X126170Y148387D01*
X126566Y147431D01*
X127196Y146610D01*
X127447Y146418D01*
X127175Y145618D01*
X123922D01*
X123650Y146418D01*
X124129Y146785D01*
X124720Y147555D01*
X125091Y148451D01*
X125218Y149413D01*
X125091Y150376D01*
X124720Y151272D01*
X124129Y152042D01*
X123359Y152633D01*
X122462Y153004D01*
X121500Y153131D01*
X120538Y153004D01*
X119641Y152633D01*
X118871Y152042D01*
X118280Y151272D01*
X117909Y150376D01*
X117782Y149413D01*
X117909Y148451D01*
X118280Y147555D01*
X118871Y146785D01*
X119350Y146418D01*
X119078Y145618D01*
X117531D01*
X116997Y146418D01*
X117069Y146591D01*
X117177Y147413D01*
X117069Y148236D01*
X116751Y149002D01*
X116246Y149660D01*
X115588Y150165D01*
X114822Y150482D01*
X114000Y150590D01*
X113178Y150482D01*
X112412Y150165D01*
X111754Y149660D01*
X111249Y149002D01*
X110932Y148236D01*
X110823Y147413D01*
X110932Y146591D01*
X111003Y146418D01*
X110469Y145618D01*
X107825D01*
X107553Y146418D01*
X107804Y146610D01*
X108434Y147431D01*
X108830Y148387D01*
X108887Y148823D01*
X105000D01*
X101113D01*
X101170Y148387D01*
X101566Y147431D01*
X102196Y146610D01*
X102447Y146418D01*
X102175Y145618D01*
X52775Y145618D01*
Y150737D01*
X41229D01*
Y145618D01*
X17825D01*
X17553Y146418D01*
X17804Y146610D01*
X18434Y147431D01*
X18830Y148387D01*
X18887Y148823D01*
X15000D01*
Y149413D01*
X14410D01*
Y153301D01*
X13974Y153243D01*
X13017Y152847D01*
X12196Y152217D01*
X12004Y151967D01*
X11204Y152238D01*
Y156588D01*
X12004Y156860D01*
X12196Y156610D01*
X13017Y155980D01*
X13974Y155584D01*
X15000Y155448D01*
X16026Y155584D01*
X16983Y155980D01*
X17804Y156610D01*
X17822Y156634D01*
X22923D01*
Y153694D01*
X22419D01*
Y146532D01*
X27581D01*
Y153694D01*
X27077D01*
Y156734D01*
X45100D01*
X45819Y156828D01*
X46490Y157106D01*
X47065Y157548D01*
X58315Y168798D01*
X58728Y169335D01*
X59266Y169748D01*
X59300Y169782D01*
X61131D01*
X61319Y169532D01*
Y169532D01*
X66519D01*
X66681Y169532D01*
X66681Y169532D01*
X67319Y169532D01*
Y169532D01*
X72681D01*
Y175294D01*
X70822D01*
X70771Y175551D01*
X70376Y176142D01*
X70376Y176143D01*
X67131Y179387D01*
Y183045D01*
X66681D01*
Y187346D01*
X86400D01*
X87000Y187465D01*
X87508Y187805D01*
X91608Y191905D01*
X91948Y192414D01*
X92067Y193013D01*
Y197008D01*
X92867Y197436D01*
X93132Y197259D01*
X93900Y197106D01*
X94668Y197259D01*
X95319Y197694D01*
X95463Y197909D01*
X101368D01*
X101566Y197431D01*
X102196Y196610D01*
X103017Y195980D01*
X103974Y195583D01*
X105000Y195448D01*
X106026Y195583D01*
X106983Y195980D01*
X107804Y196610D01*
X108434Y197431D01*
X108585Y197795D01*
X126415D01*
X126566Y197431D01*
X127196Y196610D01*
X128017Y195980D01*
X128974Y195583D01*
X130000Y195448D01*
X131026Y195583D01*
X131983Y195980D01*
X132804Y196610D01*
X133434Y197431D01*
X133830Y198387D01*
X133965Y199413D01*
X133830Y200440D01*
X133434Y201396D01*
X132804Y202217D01*
X131983Y202847D01*
X131026Y203243D01*
X130000Y203378D01*
X128974Y203243D01*
X128017Y202847D01*
X127196Y202217D01*
X126566Y201396D01*
X126415Y201032D01*
X108585D01*
X108434Y201396D01*
X107804Y202217D01*
X106983Y202847D01*
X106026Y203243D01*
X105000Y203378D01*
X103974Y203243D01*
X103017Y202847D01*
X102196Y202217D01*
X101566Y201396D01*
X101170Y200440D01*
X101154Y200318D01*
X95463D01*
X95319Y200533D01*
X94668Y200968D01*
X93900Y201120D01*
X93132Y200968D01*
X92867Y200791D01*
X92067Y201219D01*
Y206264D01*
X96433Y210630D01*
X96773Y211138D01*
X96892Y211738D01*
Y221216D01*
X96947Y221298D01*
X97899Y221477D01*
X98677Y220699D01*
Y214526D01*
X98677Y214526D01*
X98769Y214063D01*
X99031Y213670D01*
X101490Y211211D01*
X101170Y210440D01*
X101035Y209413D01*
X101170Y208387D01*
X101566Y207431D01*
X102196Y206610D01*
X103017Y205980D01*
X103974Y205584D01*
X105000Y205448D01*
X106026Y205584D01*
X106838Y205920D01*
X107060Y205772D01*
X107523Y205680D01*
X107523Y205680D01*
X127477D01*
X127477Y205680D01*
X127940Y205772D01*
X128162Y205920D01*
X128974Y205584D01*
X130000Y205448D01*
X131026Y205584D01*
X131983Y205980D01*
X132804Y206610D01*
X133434Y207431D01*
X133830Y208387D01*
X133965Y209413D01*
X133830Y210440D01*
X133434Y211396D01*
X132804Y212217D01*
X131983Y212847D01*
X131026Y213243D01*
X130000Y213378D01*
X128974Y213243D01*
X128017Y212847D01*
X127196Y212217D01*
X126566Y211396D01*
X126170Y210440D01*
X126035Y209413D01*
X126102Y208901D01*
X125482Y208101D01*
X109518D01*
X108898Y208901D01*
X108965Y209413D01*
X108830Y210440D01*
X108434Y211396D01*
X107804Y212217D01*
X106983Y212847D01*
X106026Y213243D01*
X105000Y213378D01*
X103974Y213243D01*
X103202Y212924D01*
X101443Y214682D01*
X101775Y215482D01*
X107219D01*
X110912Y211789D01*
X110912Y211789D01*
X111305Y211526D01*
X111768Y211434D01*
X123231D01*
X123231Y211434D01*
X123695Y211526D01*
X124088Y211789D01*
X127781Y215482D01*
X133931D01*
Y223344D01*
X128881D01*
X128528Y224134D01*
X128844Y224532D01*
X131681D01*
Y225693D01*
X132277Y226227D01*
X134780Y225949D01*
D02*
G37*
G36*
X89881Y223926D02*
X90321Y223182D01*
X90168Y222413D01*
X90321Y221645D01*
X90756Y220994D01*
X91039Y220805D01*
Y213205D01*
X88392Y210557D01*
X88392Y210557D01*
X86892Y209057D01*
X86552Y208549D01*
X86432Y207949D01*
Y194698D01*
X84715Y192981D01*
X83150D01*
Y196264D01*
Y200933D01*
X83327Y201678D01*
X83361Y201706D01*
X84129Y201859D01*
X84780Y202294D01*
X85215Y202945D01*
X85368Y203713D01*
X85215Y204482D01*
X84780Y205133D01*
X84129Y205568D01*
X83361Y205720D01*
X83150Y205894D01*
Y207287D01*
X76850D01*
Y202707D01*
X76555Y202458D01*
X76050Y202279D01*
X75768Y202468D01*
X75000Y202621D01*
X74702Y202561D01*
X74634Y202570D01*
X73917Y203124D01*
X73902Y203156D01*
Y207780D01*
Y209354D01*
X71146D01*
Y210536D01*
X73902D01*
Y211884D01*
X76119D01*
Y211032D01*
X80881D01*
Y216794D01*
X80881D01*
Y217032D01*
X80881D01*
Y222532D01*
Y228294D01*
X79056D01*
X78991Y228403D01*
X79444Y229203D01*
X84604D01*
X89881Y223926D01*
D02*
G37*
G36*
X12196Y216610D02*
X13017Y215980D01*
X13973Y215584D01*
X15000Y215449D01*
X16026Y215584D01*
X16982Y215980D01*
X17144Y216104D01*
X18101Y216011D01*
X21873Y212239D01*
X21873Y212239D01*
X22266Y211976D01*
X22729Y211884D01*
X26792D01*
X26871Y211084D01*
X26768Y211063D01*
X26375Y210801D01*
X26375Y210801D01*
X17797Y202222D01*
X16982Y202848D01*
X16026Y203244D01*
X15000Y203379D01*
X13973Y203244D01*
X13017Y202848D01*
X12196Y202217D01*
X12004Y201968D01*
X11204Y202239D01*
Y206588D01*
X12004Y206860D01*
X12196Y206610D01*
X13017Y205980D01*
X13973Y205584D01*
X15000Y205449D01*
X16026Y205584D01*
X16982Y205980D01*
X17803Y206610D01*
X18433Y207431D01*
X18830Y208387D01*
X18965Y209414D01*
X18830Y210440D01*
X18433Y211396D01*
X17803Y212217D01*
X16982Y212848D01*
X16026Y213244D01*
X15000Y213379D01*
X13973Y213244D01*
X13017Y212848D01*
X12196Y212217D01*
X12004Y211967D01*
X11204Y212239D01*
Y216588D01*
X12004Y216860D01*
X12196Y216610D01*
D02*
G37*
G36*
X35825Y200798D02*
X36500Y200496D01*
Y200496D01*
X39945D01*
X40276Y199696D01*
X38918Y198337D01*
X38500Y198421D01*
X37732Y198268D01*
X37081Y197833D01*
X36646Y197181D01*
X36493Y196413D01*
X36579Y195981D01*
X36067Y195181D01*
X33757D01*
X32957Y195181D01*
Y200115D01*
X33730Y200558D01*
X33757Y200554D01*
X34500Y200406D01*
X35268Y200559D01*
X35700Y200848D01*
X35825Y200798D01*
D02*
G37*
G36*
X68390Y199738D02*
Y195181D01*
X67590Y195181D01*
X62287D01*
Y192425D01*
X61106D01*
Y195181D01*
X49689D01*
Y192425D01*
Y189669D01*
X52141D01*
X52830Y188980D01*
X52830Y188980D01*
X53685Y188125D01*
X53675Y188047D01*
X53769Y187328D01*
X54047Y186657D01*
X54220Y186431D01*
Y179413D01*
X54315Y178694D01*
X54319Y178685D01*
Y176532D01*
X54869D01*
Y173101D01*
X54384Y172729D01*
X43949Y162293D01*
X35681D01*
Y167295D01*
X30319D01*
Y164732D01*
X27581D01*
Y168282D01*
X27681D01*
Y174545D01*
X22919D01*
Y168295D01*
X22419D01*
Y162193D01*
X17822D01*
X17804Y162217D01*
X16983Y162847D01*
X16026Y163243D01*
X15000Y163378D01*
X13974Y163243D01*
X13017Y162847D01*
X12196Y162217D01*
X12004Y161967D01*
X11204Y162238D01*
Y166588D01*
X12004Y166860D01*
X12196Y166610D01*
X13017Y165980D01*
X13973Y165584D01*
X15000Y165449D01*
X16026Y165584D01*
X16982Y165980D01*
X17803Y166610D01*
X18433Y167431D01*
X18830Y168387D01*
X18965Y169414D01*
X18830Y170440D01*
X18433Y171396D01*
X17803Y172217D01*
X16982Y172848D01*
X16885Y172888D01*
X16698Y173831D01*
X20190Y177323D01*
X20190Y177323D01*
X20452Y177716D01*
X20545Y178180D01*
X20545Y178180D01*
Y184946D01*
X24956Y189357D01*
X24956Y189357D01*
X25218Y189750D01*
X25311Y190213D01*
X25311Y190214D01*
Y198812D01*
X25784Y199285D01*
X27445D01*
Y195181D01*
X30385D01*
X31185Y195181D01*
Y189669D01*
X48508D01*
Y192425D01*
Y195181D01*
X44476D01*
X44061Y195807D01*
X44409Y196560D01*
X63667D01*
X63667Y196560D01*
X64128Y196651D01*
X64519Y196912D01*
X67651Y200044D01*
X68390Y199738D01*
D02*
G37*
G36*
X76850Y192981D02*
X70161D01*
Y195181D01*
X70961Y195181D01*
X73902D01*
Y196634D01*
X76850D01*
Y192981D01*
D02*
G37*
G36*
X58553Y189636D02*
X59494Y188696D01*
X59478Y188613D01*
X59616Y187916D01*
X60011Y187325D01*
X61200Y186136D01*
Y183045D01*
X60869D01*
Y175782D01*
X61200D01*
Y174113D01*
X61200Y172575D01*
X60631Y172013D01*
X56077Y172072D01*
X55994Y172151D01*
X55790Y172411D01*
X55718Y172527D01*
X55680Y172623D01*
X55627Y172878D01*
X55631Y172896D01*
X55665Y172996D01*
X55661Y173049D01*
X55672Y173101D01*
Y173133D01*
X55807Y173813D01*
X55672Y174494D01*
Y176532D01*
X55611Y176840D01*
X55437Y177100D01*
X55176Y177274D01*
X55122Y177285D01*
Y178685D01*
X55108Y178753D01*
X55111Y178799D01*
X55023Y179466D01*
Y186431D01*
X55003Y186534D01*
X54996Y186639D01*
X54972Y186687D01*
X54962Y186739D01*
X54904Y186826D01*
X54857Y186920D01*
X54748Y187062D01*
X54681Y187224D01*
Y188294D01*
X54574D01*
X54133Y188958D01*
X54423Y189654D01*
X58553Y189636D01*
D02*
G37*
G36*
X66100Y173014D02*
X66100Y171913D01*
X67300Y170713D01*
X65425Y170713D01*
Y174113D01*
X67300D01*
X66100Y173014D01*
D02*
G37*
G36*
X68800Y170713D02*
X68500Y170713D01*
X66900Y172313D01*
Y172513D01*
X68501Y174114D01*
X68800D01*
Y170713D01*
D02*
G37*
G36*
X113160Y114436D02*
X112970Y114246D01*
X112843Y114162D01*
X109949Y111267D01*
X105797D01*
X105797Y114693D01*
X110793Y114693D01*
X111720Y115620D01*
X113160D01*
Y114436D01*
D02*
G37*
G36*
X134780Y114894D02*
X122790Y112866D01*
X122215Y113580D01*
Y120890D01*
X110601D01*
Y116237D01*
X110010Y115647D01*
Y115496D01*
X109859D01*
X109859Y115496D01*
X105797Y115496D01*
X105490Y115435D01*
X105229Y115261D01*
X105055Y115000D01*
X104994Y114693D01*
X104994Y112147D01*
X104194Y111720D01*
X103918Y111905D01*
X103150Y112057D01*
X102382Y111905D01*
X101730Y111470D01*
X101295Y110819D01*
X101143Y110050D01*
X101216Y109680D01*
X100607Y108990D01*
X100600Y108987D01*
X100500Y109007D01*
X99732Y108854D01*
X99383Y108621D01*
X98583Y109004D01*
X98583Y130796D01*
X134780D01*
Y114894D01*
D02*
G37*
G36*
X121272Y112610D02*
X120400Y112462D01*
X119861Y113182D01*
X119972Y113409D01*
X121205D01*
X121272Y112610D01*
D02*
G37*
G36*
X116200Y108418D02*
Y105563D01*
X115481Y104844D01*
X114681Y104881D01*
Y104881D01*
X112574D01*
X112210Y105622D01*
X112220Y105681D01*
X112684Y105992D01*
X114581Y107889D01*
X114666Y108015D01*
X115400Y108749D01*
X116200Y108418D01*
D02*
G37*
G36*
X53701Y132089D02*
X53254Y131746D01*
X52749Y131088D01*
X52431Y130322D01*
X52323Y129500D01*
X52431Y128678D01*
X52749Y127912D01*
X53254Y127254D01*
X53701Y126911D01*
X53701Y104256D01*
X40020D01*
X39312Y105000D01*
Y113713D01*
X40687D01*
Y115811D01*
X40689Y115813D01*
X41126Y116868D01*
X41275Y118000D01*
X41126Y119132D01*
X40689Y120187D01*
X40687Y120189D01*
Y125287D01*
X40646Y125308D01*
X40064Y125933D01*
Y133760D01*
X53701D01*
Y132089D01*
D02*
G37*
G36*
X33733Y125933D02*
X33148Y125305D01*
X33113Y125287D01*
Y120189D01*
X33111Y120187D01*
X32674Y119132D01*
X32525Y118000D01*
X32674Y116868D01*
X33111Y115813D01*
X33113Y115811D01*
Y113713D01*
X33689D01*
Y105000D01*
X32980Y104256D01*
X31185D01*
Y103965D01*
X30385Y103430D01*
X30000Y103507D01*
X29232Y103354D01*
X28781Y103053D01*
X28107Y103305D01*
X27981Y103407D01*
Y104181D01*
X23423D01*
Y110462D01*
X24624Y111663D01*
X24625Y111663D01*
X24887Y112056D01*
X24979Y112519D01*
Y115131D01*
X24887Y115595D01*
X24625Y115988D01*
X24624Y115988D01*
X24083Y116529D01*
X24107Y116650D01*
X23954Y117419D01*
X23519Y118070D01*
X22868Y118505D01*
X22100Y118658D01*
X21332Y118505D01*
X20967Y118261D01*
X20167Y118632D01*
Y120043D01*
X20075Y120507D01*
X19813Y120899D01*
X19813Y120899D01*
X18931Y121781D01*
Y127931D01*
X16718D01*
X16446Y128731D01*
X16629Y128871D01*
X17220Y129641D01*
X17591Y130538D01*
X17718Y131500D01*
X17591Y132462D01*
X17385Y132960D01*
X17863Y133760D01*
X33733D01*
Y125933D01*
D02*
G37*
G36*
X96477Y103600D02*
X96641Y103360D01*
X96783Y102800D01*
X96673Y102690D01*
X96655Y102662D01*
X96074Y102081D01*
X92419D01*
Y101342D01*
X75720D01*
X75607Y101456D01*
X75214Y101718D01*
X74750Y101811D01*
X74750Y101811D01*
X70161D01*
Y103600D01*
X96477Y103600D01*
D02*
G37*
G36*
X110575Y100300D02*
X108700D01*
X109900Y101400D01*
X109900Y102500D01*
X108700Y103700D01*
X110575Y103700D01*
Y100300D01*
D02*
G37*
G36*
X109100Y102100D02*
Y101900D01*
X107499Y100300D01*
X107200D01*
Y103700D01*
X107500Y103700D01*
X109100Y102100D01*
D02*
G37*
G36*
X40240Y98744D02*
X50945D01*
X51602Y97944D01*
X51593Y97900D01*
X51746Y97132D01*
X51820Y97021D01*
X51393Y96220D01*
X46263D01*
X46155Y96242D01*
X46155Y96242D01*
X45303D01*
X45234Y96593D01*
X44799Y97244D01*
X44147Y97680D01*
X43379Y97832D01*
X42611Y97680D01*
X41960Y97244D01*
X41757Y96941D01*
X40805Y96762D01*
X40623Y96944D01*
X40233Y97205D01*
X39772Y97297D01*
X39772Y97297D01*
X35415D01*
X34707Y98005D01*
X35013Y98744D01*
X35516D01*
Y99138D01*
X37484D01*
Y98744D01*
X39059D01*
Y101500D01*
X40240D01*
Y98744D01*
D02*
G37*
G36*
X65649Y97893D02*
X66039Y97632D01*
X66500Y97540D01*
X66500Y97540D01*
X68390D01*
Y96079D01*
X66619D01*
X66619Y96079D01*
X66156Y95987D01*
X65763Y95725D01*
X65763Y95724D01*
X64375Y94337D01*
X64113Y93944D01*
X64021Y93481D01*
X63257Y93429D01*
X61106D01*
Y89098D01*
Y84768D01*
X64846D01*
X64846Y84768D01*
X65574Y84593D01*
X65646Y84232D01*
X66081Y83581D01*
X66384Y83378D01*
X66563Y82426D01*
X65953Y81815D01*
X65690Y81422D01*
X65646Y81202D01*
X64846Y81280D01*
Y83586D01*
X61106D01*
Y79256D01*
Y74925D01*
X64798D01*
X64846Y74925D01*
X65598Y74809D01*
Y73860D01*
X64846Y73744D01*
Y73744D01*
X61106D01*
Y69413D01*
X60515D01*
Y68823D01*
X56185D01*
Y65142D01*
X55004D01*
Y68823D01*
X50673D01*
X46342D01*
Y65142D01*
X45161D01*
Y68823D01*
X40830D01*
Y69413D01*
X40240D01*
Y73744D01*
X36500D01*
Y69119D01*
X35768Y68755D01*
X35211Y69121D01*
Y79941D01*
X35419Y80081D01*
X35700Y80501D01*
X36500Y80258D01*
Y79846D01*
X40830D01*
X45161D01*
Y82781D01*
X45174Y82909D01*
X45541Y83102D01*
X45543Y83102D01*
X46342Y82620D01*
Y79846D01*
X50082D01*
Y83586D01*
X47362D01*
X46959Y84386D01*
X47240Y84768D01*
X50082D01*
Y89098D01*
X50673D01*
Y89689D01*
X55004D01*
Y91797D01*
X55385Y92040D01*
X56185Y91601D01*
Y89689D01*
X59925D01*
Y93429D01*
X57472D01*
X57166Y94168D01*
X61742Y98744D01*
X64797D01*
X65649Y97893D01*
D02*
G37*
G36*
X110672Y92687D02*
X108798D01*
X109997Y93787D01*
X109998Y94887D01*
X108798Y96087D01*
X110672Y96087D01*
Y92687D01*
D02*
G37*
G36*
X109198Y94487D02*
Y94287D01*
X107597Y92687D01*
X107298D01*
Y96087D01*
X107598Y96087D01*
X109198Y94487D01*
D02*
G37*
G36*
X116028Y93183D02*
X116200Y93042D01*
Y92600D01*
X125023Y91620D01*
X125287Y90865D01*
X122245Y87822D01*
X114116D01*
X114068Y87854D01*
X113300Y88007D01*
X112532Y87854D01*
X111881Y87419D01*
X111741Y87211D01*
X110681D01*
X109098Y88793D01*
X108705Y89056D01*
X108242Y89148D01*
X108242Y89148D01*
X103064D01*
X101632Y90580D01*
X101938Y91319D01*
X103181D01*
Y91319D01*
X103417Y91506D01*
X108779D01*
X108779Y91506D01*
X109417D01*
Y91506D01*
X109579Y91506D01*
X114779D01*
Y93183D01*
X116028D01*
X116028Y93183D01*
D02*
G37*
G36*
X126069Y85446D02*
Y81781D01*
X122730Y78442D01*
X112270D01*
X108931Y81781D01*
Y84444D01*
X109716Y84882D01*
X110179Y84789D01*
X110179Y84789D01*
X111741D01*
X111881Y84581D01*
X112532Y84146D01*
X113300Y83993D01*
X114068Y84146D01*
X114116Y84178D01*
X123000D01*
X123000Y84178D01*
X123697Y84316D01*
X124289Y84711D01*
X125330Y85752D01*
X126069Y85446D01*
D02*
G37*
G36*
X134780Y90536D02*
Y10204D01*
X132825D01*
X132553Y11004D01*
X132804Y11196D01*
X133434Y12017D01*
X133830Y12974D01*
X133887Y13409D01*
X130000D01*
X126113D01*
X126170Y12974D01*
X126566Y12017D01*
X127196Y11196D01*
X127447Y11004D01*
X127175Y10204D01*
X123922D01*
X123650Y11004D01*
X124129Y11371D01*
X124720Y12141D01*
X125091Y13038D01*
X125218Y14000D01*
X125091Y14962D01*
X124720Y15859D01*
X124129Y16629D01*
X123359Y17220D01*
X122462Y17591D01*
X121500Y17718D01*
X120538Y17591D01*
X119641Y17220D01*
X118871Y16629D01*
X118280Y15859D01*
X117909Y14962D01*
X117782Y14000D01*
X117909Y13038D01*
X118280Y12141D01*
X118871Y11371D01*
X119350Y11004D01*
X119078Y10204D01*
X117531D01*
X116997Y11004D01*
X117069Y11178D01*
X117177Y12000D01*
X117069Y12822D01*
X116751Y13588D01*
X116246Y14246D01*
X115588Y14751D01*
X114822Y15068D01*
X114000Y15177D01*
X113178Y15068D01*
X112412Y14751D01*
X111754Y14246D01*
X111249Y13588D01*
X110932Y12822D01*
X110823Y12000D01*
X110932Y11178D01*
X111003Y11004D01*
X110469Y10204D01*
X107825D01*
X107553Y11004D01*
X107804Y11196D01*
X108434Y12017D01*
X108830Y12974D01*
X108887Y13409D01*
X105000D01*
X101113D01*
X101170Y12974D01*
X101566Y12017D01*
X102196Y11196D01*
X102447Y11004D01*
X102175Y10204D01*
X52775Y10204D01*
Y15323D01*
X41229D01*
Y10204D01*
X17825D01*
X17553Y11004D01*
X17804Y11196D01*
X18434Y12017D01*
X18830Y12974D01*
X18887Y13409D01*
X15000D01*
Y14000D01*
X14410D01*
Y17887D01*
X13974Y17830D01*
X13017Y17434D01*
X12196Y16804D01*
X12004Y16553D01*
X11204Y16825D01*
Y21175D01*
X12004Y21447D01*
X12196Y21196D01*
X13017Y20566D01*
X13974Y20170D01*
X15000Y20035D01*
X16026Y20170D01*
X16983Y20566D01*
X17804Y21196D01*
X17822Y21220D01*
X22923D01*
Y18281D01*
X22419D01*
Y11119D01*
X27581D01*
Y18281D01*
X27077D01*
Y21320D01*
X45100D01*
X45819Y21415D01*
X46490Y21693D01*
X47065Y22135D01*
X58315Y33384D01*
X58728Y33922D01*
X59266Y34334D01*
X59300Y34369D01*
X61131D01*
X61319Y34119D01*
Y34119D01*
X66519D01*
X66681Y34119D01*
X66681Y34119D01*
X67319Y34119D01*
Y34119D01*
X72681D01*
Y39881D01*
X70822D01*
X70771Y40138D01*
X70376Y40729D01*
X70376Y40729D01*
X67131Y43974D01*
Y47631D01*
X66681D01*
Y51933D01*
X86400D01*
X87000Y52052D01*
X87508Y52392D01*
X91608Y56492D01*
X91948Y57000D01*
X92067Y57600D01*
Y61595D01*
X92867Y62022D01*
X93132Y61846D01*
X93900Y61693D01*
X94668Y61846D01*
X95319Y62281D01*
X95463Y62496D01*
X101368D01*
X101566Y62018D01*
X102196Y61196D01*
X103017Y60566D01*
X103974Y60170D01*
X105000Y60035D01*
X106026Y60170D01*
X106983Y60566D01*
X107804Y61196D01*
X108434Y62018D01*
X108585Y62382D01*
X126415D01*
X126566Y62018D01*
X127196Y61196D01*
X128017Y60566D01*
X128974Y60170D01*
X130000Y60035D01*
X131026Y60170D01*
X131983Y60566D01*
X132804Y61196D01*
X133434Y62018D01*
X133830Y62974D01*
X133965Y64000D01*
X133830Y65026D01*
X133434Y65983D01*
X132804Y66804D01*
X131983Y67434D01*
X131026Y67830D01*
X130000Y67965D01*
X128974Y67830D01*
X128017Y67434D01*
X127196Y66804D01*
X126566Y65983D01*
X126415Y65618D01*
X108585D01*
X108434Y65983D01*
X107804Y66804D01*
X106983Y67434D01*
X106026Y67830D01*
X105000Y67965D01*
X103974Y67830D01*
X103017Y67434D01*
X102196Y66804D01*
X101566Y65983D01*
X101170Y65026D01*
X101154Y64904D01*
X95463D01*
X95319Y65119D01*
X94668Y65554D01*
X93900Y65707D01*
X93132Y65554D01*
X92867Y65378D01*
X92067Y65805D01*
Y70851D01*
X96433Y75216D01*
X96773Y75725D01*
X96892Y76325D01*
Y85803D01*
X96947Y85884D01*
X97899Y86063D01*
X98677Y85286D01*
Y79113D01*
X98677Y79113D01*
X98769Y78649D01*
X99031Y78256D01*
X101490Y75798D01*
X101170Y75026D01*
X101035Y74000D01*
X101170Y72974D01*
X101566Y72018D01*
X102196Y71196D01*
X103017Y70566D01*
X103974Y70170D01*
X105000Y70035D01*
X106026Y70170D01*
X106838Y70507D01*
X107060Y70359D01*
X107523Y70266D01*
X107523Y70266D01*
X127477D01*
X127477Y70266D01*
X127940Y70359D01*
X128162Y70507D01*
X128974Y70170D01*
X130000Y70035D01*
X131026Y70170D01*
X131983Y70566D01*
X132804Y71196D01*
X133434Y72018D01*
X133830Y72974D01*
X133965Y74000D01*
X133830Y75026D01*
X133434Y75982D01*
X132804Y76804D01*
X131983Y77434D01*
X131026Y77830D01*
X130000Y77965D01*
X128974Y77830D01*
X128017Y77434D01*
X127196Y76804D01*
X126566Y75982D01*
X126170Y75026D01*
X126035Y74000D01*
X126102Y73488D01*
X125482Y72688D01*
X109518D01*
X108898Y73488D01*
X108965Y74000D01*
X108830Y75026D01*
X108434Y75982D01*
X107804Y76804D01*
X106983Y77434D01*
X106026Y77830D01*
X105000Y77965D01*
X103974Y77830D01*
X103202Y77510D01*
X101443Y79269D01*
X101775Y80069D01*
X107219D01*
X110912Y76376D01*
X110912Y76375D01*
X111305Y76113D01*
X111768Y76021D01*
X123231D01*
X123231Y76021D01*
X123695Y76113D01*
X124088Y76375D01*
X127781Y80069D01*
X133931D01*
Y87931D01*
X128881D01*
X128528Y88721D01*
X128844Y89119D01*
X131681D01*
Y90280D01*
X132277Y90814D01*
X134780Y90536D01*
D02*
G37*
G36*
X89881Y88512D02*
X90321Y87768D01*
X90168Y87000D01*
X90321Y86232D01*
X90756Y85581D01*
X91039Y85392D01*
Y77791D01*
X88392Y75144D01*
X88392Y75144D01*
X86892Y73644D01*
X86552Y73135D01*
X86432Y72536D01*
Y59285D01*
X84715Y57568D01*
X83150D01*
Y60850D01*
Y65519D01*
X83327Y66265D01*
X83361Y66293D01*
X84129Y66446D01*
X84780Y66881D01*
X85215Y67532D01*
X85368Y68300D01*
X85215Y69068D01*
X84780Y69719D01*
X84129Y70154D01*
X83361Y70307D01*
X83150Y70480D01*
Y71874D01*
X76850D01*
Y67293D01*
X76555Y67045D01*
X76050Y66866D01*
X75768Y67054D01*
X75000Y67207D01*
X74702Y67148D01*
X74634Y67156D01*
X73917Y67711D01*
X73902Y67742D01*
Y72366D01*
Y73941D01*
X71146D01*
Y75122D01*
X73902D01*
Y76471D01*
X76119D01*
Y75619D01*
X80881D01*
Y81381D01*
X80881D01*
Y81619D01*
X80881D01*
Y87119D01*
Y92881D01*
X79056D01*
X78991Y92989D01*
X79444Y93789D01*
X84604D01*
X89881Y88512D01*
D02*
G37*
G36*
X12196Y81197D02*
X13017Y80567D01*
X13973Y80170D01*
X15000Y80035D01*
X16026Y80170D01*
X16982Y80567D01*
X17144Y80691D01*
X18101Y80597D01*
X21873Y76825D01*
X21873Y76825D01*
X22266Y76563D01*
X22729Y76471D01*
X26792D01*
X26871Y75670D01*
X26768Y75650D01*
X26375Y75388D01*
X26375Y75388D01*
X17797Y66809D01*
X16982Y67434D01*
X16026Y67830D01*
X15000Y67965D01*
X13973Y67830D01*
X13017Y67434D01*
X12196Y66804D01*
X12004Y66554D01*
X11204Y66826D01*
Y71175D01*
X12004Y71447D01*
X12196Y71197D01*
X13017Y70566D01*
X13973Y70170D01*
X15000Y70035D01*
X16026Y70170D01*
X16982Y70566D01*
X17803Y71197D01*
X18433Y72018D01*
X18830Y72974D01*
X18965Y74000D01*
X18830Y75027D01*
X18433Y75983D01*
X17803Y76804D01*
X16982Y77434D01*
X16026Y77830D01*
X15000Y77965D01*
X13973Y77830D01*
X13017Y77434D01*
X12196Y76804D01*
X12004Y76554D01*
X11204Y76826D01*
Y81175D01*
X12004Y81447D01*
X12196Y81197D01*
D02*
G37*
G36*
X35825Y65385D02*
X36500Y65082D01*
Y65082D01*
X39945D01*
X40276Y64282D01*
X38918Y62924D01*
X38500Y63007D01*
X37732Y62854D01*
X37081Y62419D01*
X36646Y61768D01*
X36493Y61000D01*
X36579Y60568D01*
X36067Y59768D01*
X33757D01*
X32957Y59768D01*
Y64702D01*
X33730Y65145D01*
X33757Y65141D01*
X34500Y64993D01*
X35268Y65146D01*
X35700Y65434D01*
X35825Y65385D01*
D02*
G37*
G36*
X68390Y64325D02*
Y59768D01*
X67590Y59768D01*
X62287D01*
Y57012D01*
X61106D01*
Y59768D01*
X49689D01*
Y57012D01*
Y54256D01*
X52141D01*
X52830Y53567D01*
X52830Y53567D01*
X53685Y52712D01*
X53675Y52634D01*
X53769Y51914D01*
X54047Y51244D01*
X54220Y51018D01*
Y44000D01*
X54315Y43281D01*
X54319Y43271D01*
Y41119D01*
X54869D01*
Y37687D01*
X54384Y37315D01*
X43949Y26880D01*
X35681D01*
Y31881D01*
X30319D01*
Y29318D01*
X27581D01*
Y32869D01*
X27681D01*
Y39131D01*
X22919D01*
Y32881D01*
X22419D01*
Y26780D01*
X17822D01*
X17804Y26804D01*
X16983Y27434D01*
X16026Y27830D01*
X15000Y27965D01*
X13974Y27830D01*
X13017Y27434D01*
X12196Y26804D01*
X12004Y26553D01*
X11204Y26825D01*
Y31175D01*
X12004Y31447D01*
X12196Y31197D01*
X13017Y30566D01*
X13973Y30170D01*
X15000Y30035D01*
X16026Y30170D01*
X16982Y30566D01*
X17803Y31197D01*
X18433Y32018D01*
X18830Y32974D01*
X18965Y34000D01*
X18830Y35026D01*
X18433Y35983D01*
X17803Y36804D01*
X16982Y37434D01*
X16885Y37474D01*
X16698Y38418D01*
X20190Y41910D01*
X20190Y41910D01*
X20452Y42303D01*
X20545Y42766D01*
X20545Y42766D01*
Y49532D01*
X24956Y53944D01*
X24956Y53944D01*
X25218Y54337D01*
X25311Y54800D01*
X25311Y54800D01*
Y63398D01*
X25784Y63872D01*
X27445D01*
Y59768D01*
X30385D01*
X31185Y59768D01*
Y54256D01*
X48508D01*
Y57012D01*
Y59768D01*
X44476D01*
X44061Y60394D01*
X44409Y61146D01*
X63667D01*
X63667Y61146D01*
X64128Y61238D01*
X64519Y61499D01*
X67651Y64631D01*
X68390Y64325D01*
D02*
G37*
G36*
X76850Y57568D02*
X70161D01*
Y59768D01*
X70961Y59768D01*
X73902D01*
Y61221D01*
X76850D01*
Y57568D01*
D02*
G37*
G36*
X58553Y54223D02*
X59494Y53282D01*
X59478Y53200D01*
X59616Y52503D01*
X60011Y51911D01*
X61200Y50723D01*
Y47631D01*
X60869D01*
Y40369D01*
X61200D01*
Y38700D01*
X61200Y37162D01*
X60631Y36600D01*
X56077Y36659D01*
X55994Y36737D01*
X55790Y36998D01*
X55718Y37113D01*
X55680Y37209D01*
X55627Y37465D01*
X55631Y37483D01*
X55665Y37582D01*
X55661Y37635D01*
X55672Y37687D01*
Y37720D01*
X55807Y38400D01*
X55672Y39080D01*
Y41119D01*
X55611Y41426D01*
X55437Y41687D01*
X55176Y41861D01*
X55122Y41871D01*
Y43271D01*
X55108Y43340D01*
X55111Y43385D01*
X55023Y44053D01*
Y51018D01*
X55003Y51121D01*
X54996Y51226D01*
X54972Y51273D01*
X54962Y51325D01*
X54904Y51412D01*
X54857Y51507D01*
X54748Y51649D01*
X54681Y51811D01*
Y52881D01*
X54574D01*
X54133Y53544D01*
X54423Y54241D01*
X58553Y54223D01*
D02*
G37*
G36*
X66100Y37600D02*
X66100Y36500D01*
X67300Y35300D01*
X65425Y35300D01*
Y38700D01*
X67300D01*
X66100Y37600D01*
D02*
G37*
G36*
X68800Y35300D02*
X68500Y35300D01*
X66900Y36900D01*
Y37100D01*
X68501Y38701D01*
X68800D01*
Y35300D01*
D02*
G37*
%LPC*%
G36*
X59925Y494748D02*
X56185D01*
Y491008D01*
X59925D01*
Y494748D01*
D02*
G37*
G36*
X55004D02*
X51264D01*
Y491008D01*
X55004D01*
Y494748D01*
D02*
G37*
G36*
X51264Y489827D02*
Y486086D01*
X55004D01*
Y489827D01*
X51264D01*
D02*
G37*
G36*
X59925D02*
X56185D01*
Y486086D01*
X59925D01*
Y489827D01*
D02*
G37*
G36*
X55004Y484905D02*
X51264D01*
Y481165D01*
X55004D01*
Y484905D01*
D02*
G37*
G36*
X50082D02*
X46342D01*
Y481165D01*
X50082D01*
Y484905D01*
D02*
G37*
G36*
X45161D02*
X41421D01*
Y481165D01*
X45161D01*
Y484905D01*
D02*
G37*
G36*
X40240D02*
X36500D01*
Y481165D01*
X40240D01*
Y484905D01*
D02*
G37*
G36*
X59925D02*
X56185D01*
Y481165D01*
X59925D01*
Y484905D01*
D02*
G37*
G36*
X55004Y479984D02*
X51264D01*
Y476244D01*
X55004D01*
Y479984D01*
D02*
G37*
G36*
X45161D02*
X41421D01*
Y476244D01*
X45161D01*
Y479984D01*
D02*
G37*
G36*
X59925D02*
X56185D01*
Y476244D01*
X59925D01*
Y479984D01*
D02*
G37*
G36*
X50082D02*
X46342D01*
Y476244D01*
X50082D01*
Y479984D01*
D02*
G37*
G36*
X95400Y466138D02*
X94632Y465985D01*
X93981Y465550D01*
X93546Y464899D01*
X93393Y464131D01*
X93546Y463363D01*
X93981Y462712D01*
X94632Y462277D01*
X95400Y462124D01*
X95654Y462175D01*
X98439Y459389D01*
X98439Y459389D01*
X98830Y459128D01*
X99291Y459036D01*
X99291Y459036D01*
X101244D01*
X101566Y458258D01*
X102196Y457437D01*
X103017Y456806D01*
X103974Y456410D01*
X105000Y456275D01*
X106026Y456410D01*
X106983Y456806D01*
X107804Y457437D01*
X108434Y458258D01*
X108585Y458622D01*
X126415D01*
X126566Y458258D01*
X127196Y457437D01*
X128017Y456806D01*
X128974Y456410D01*
X130000Y456275D01*
X131026Y456410D01*
X131983Y456806D01*
X132804Y457437D01*
X133434Y458258D01*
X133830Y459214D01*
X133965Y460240D01*
X133830Y461267D01*
X133434Y462223D01*
X132804Y463044D01*
X131983Y463674D01*
X131026Y464070D01*
X130000Y464205D01*
X128974Y464070D01*
X128017Y463674D01*
X127196Y463044D01*
X126566Y462223D01*
X126415Y461859D01*
X108585D01*
X108434Y462223D01*
X107804Y463044D01*
X106983Y463674D01*
X106026Y464070D01*
X105000Y464205D01*
X103974Y464070D01*
X103017Y463674D01*
X102196Y463044D01*
X101566Y462223D01*
X101244Y461445D01*
X99790D01*
X97357Y463878D01*
X97407Y464131D01*
X97254Y464899D01*
X96819Y465550D01*
X96168Y465985D01*
X95400Y466138D01*
D02*
G37*
G36*
X130000Y454205D02*
X128974Y454070D01*
X128017Y453674D01*
X127196Y453044D01*
X126566Y452223D01*
X126498Y452059D01*
X117021D01*
X116668Y452294D01*
X115900Y452447D01*
X115132Y452294D01*
X114779Y452059D01*
X108502D01*
X108434Y452223D01*
X107804Y453044D01*
X106983Y453674D01*
X106026Y454070D01*
X105000Y454205D01*
X103974Y454070D01*
X103017Y453674D01*
X102196Y453044D01*
X101566Y452223D01*
X101170Y451266D01*
X101035Y450240D01*
X101170Y449214D01*
X101566Y448258D01*
X102100Y447563D01*
X101974Y447092D01*
X101760Y446763D01*
X89900D01*
X89900Y446763D01*
X89203Y446624D01*
X88626Y446238D01*
X88563Y446226D01*
X87912Y445791D01*
X87477Y445140D01*
X87324Y444372D01*
X87477Y443604D01*
X87912Y442952D01*
X88563Y442518D01*
X89332Y442365D01*
X90100Y442518D01*
X90751Y442952D01*
X90861Y443118D01*
X101245D01*
X101639Y442318D01*
X101566Y442223D01*
X101170Y441266D01*
X101035Y440240D01*
X101170Y439214D01*
X101566Y438258D01*
X102196Y437436D01*
X103017Y436806D01*
X103974Y436410D01*
X105000Y436275D01*
X106026Y436410D01*
X106983Y436806D01*
X107804Y437436D01*
X108434Y438258D01*
X108585Y438622D01*
X126415D01*
X126566Y438258D01*
X127196Y437436D01*
X128017Y436806D01*
X128974Y436410D01*
X130000Y436275D01*
X131026Y436410D01*
X131983Y436806D01*
X132804Y437436D01*
X133434Y438258D01*
X133830Y439214D01*
X133965Y440240D01*
X133830Y441266D01*
X133434Y442223D01*
X132804Y443044D01*
X131983Y443674D01*
X131026Y444070D01*
X130000Y444205D01*
X128974Y444070D01*
X128017Y443674D01*
X127196Y443044D01*
X126566Y442223D01*
X126415Y441859D01*
X108958D01*
X108675Y442351D01*
X109092Y443118D01*
X111184D01*
X111232Y443086D01*
X112000Y442933D01*
X112768Y443086D01*
X113419Y443521D01*
X113854Y444172D01*
X114007Y444940D01*
X113854Y445708D01*
X113419Y446359D01*
X112768Y446795D01*
X112000Y446947D01*
X111232Y446795D01*
X111184Y446763D01*
X108240D01*
X108026Y447092D01*
X107901Y447563D01*
X108434Y448258D01*
X108667Y448822D01*
X114779D01*
X115132Y448586D01*
X115900Y448433D01*
X116668Y448586D01*
X117021Y448822D01*
X126333D01*
X126566Y448258D01*
X127196Y447437D01*
X128017Y446806D01*
X128974Y446410D01*
X130000Y446275D01*
X131026Y446410D01*
X131983Y446806D01*
X132804Y447437D01*
X133434Y448258D01*
X133830Y449214D01*
X133965Y450240D01*
X133830Y451266D01*
X133434Y452223D01*
X132804Y453044D01*
X131983Y453674D01*
X131026Y454070D01*
X130000Y454205D01*
D02*
G37*
G36*
X67000Y437811D02*
X66170Y437702D01*
X65981Y437624D01*
X65181Y437784D01*
Y437783D01*
X58819D01*
Y430697D01*
X65181D01*
X65796Y430250D01*
Y426603D01*
X65581Y426460D01*
X65146Y425808D01*
X64993Y425040D01*
X65146Y424272D01*
X65581Y423621D01*
X66232Y423186D01*
X67000Y423033D01*
X67768Y423186D01*
X68419Y423621D01*
X68854Y424272D01*
X69007Y425040D01*
X68854Y425808D01*
X68419Y426460D01*
X68204Y426603D01*
Y430934D01*
X68604Y431099D01*
X68925Y431346D01*
X69500Y431534D01*
X70075Y431346D01*
X70396Y431099D01*
X71170Y430779D01*
X71409Y430747D01*
Y434240D01*
Y437733D01*
X71170Y437702D01*
X70396Y437381D01*
X70075Y437135D01*
X69500Y436947D01*
X68925Y437135D01*
X68604Y437381D01*
X67830Y437702D01*
X67000Y437811D01*
D02*
G37*
G36*
X80000Y448247D02*
X79232Y448095D01*
X78581Y447659D01*
X78146Y447008D01*
X77993Y446240D01*
X77895Y446121D01*
X74619D01*
Y440359D01*
X79381D01*
Y443639D01*
X80000Y444233D01*
X80001Y444233D01*
X80619Y443726D01*
Y440359D01*
X80789D01*
Y437544D01*
X80396Y437381D01*
X80075Y437135D01*
X79500Y436947D01*
X78925Y437135D01*
X78604Y437381D01*
X77830Y437702D01*
X77000Y437811D01*
X76170Y437702D01*
X75396Y437381D01*
X75075Y437135D01*
X74500Y436947D01*
X73925Y437135D01*
X73604Y437381D01*
X72830Y437702D01*
X72591Y437733D01*
Y434240D01*
Y430747D01*
X72830Y430779D01*
X73604Y431099D01*
X73925Y431346D01*
X74036Y431382D01*
X74796Y431044D01*
Y425803D01*
X74581Y425660D01*
X74146Y425008D01*
X73993Y424240D01*
X74146Y423472D01*
X74581Y422821D01*
X75232Y422386D01*
X76000Y422233D01*
X76768Y422386D01*
X77419Y422821D01*
X77854Y423472D01*
X78007Y424240D01*
X77854Y425008D01*
X77419Y425660D01*
X77204Y425803D01*
Y430696D01*
X77830Y430779D01*
X78604Y431099D01*
X78925Y431346D01*
X79036Y431382D01*
X79796Y431044D01*
Y425803D01*
X79581Y425660D01*
X79146Y425008D01*
X78993Y424240D01*
X79146Y423472D01*
X79581Y422821D01*
X80232Y422386D01*
X81000Y422233D01*
X81768Y422386D01*
X82419Y422821D01*
X82854Y423472D01*
X83007Y424240D01*
X82854Y425008D01*
X82419Y425660D01*
X82204Y425803D01*
Y430696D01*
X82830Y430779D01*
X83604Y431099D01*
X84269Y431609D01*
X84779Y432274D01*
X85099Y433048D01*
X85209Y433878D01*
Y434602D01*
X85099Y435433D01*
X84779Y436207D01*
X84269Y436871D01*
X83604Y437381D01*
X83211Y437544D01*
Y440359D01*
X85381D01*
Y446121D01*
X82105D01*
X82007Y446240D01*
X81854Y447008D01*
X81419Y447659D01*
X80768Y448095D01*
X80000Y448247D01*
D02*
G37*
G36*
X130000Y434205D02*
X128974Y434070D01*
X128017Y433674D01*
X127196Y433044D01*
X127178Y433020D01*
X107822D01*
X107804Y433044D01*
X106983Y433674D01*
X106026Y434070D01*
X105000Y434205D01*
X103974Y434070D01*
X103017Y433674D01*
X102196Y433044D01*
X101566Y432223D01*
X101500Y432063D01*
X100681D01*
Y433121D01*
X95319D01*
X95319Y433121D01*
X94681D01*
Y433121D01*
X94519Y433121D01*
X91650D01*
X91197Y433424D01*
X90500Y433563D01*
X90500Y433563D01*
X88816D01*
X88768Y433595D01*
X88000Y433747D01*
X87232Y433595D01*
X86581Y433159D01*
X86146Y432508D01*
X85993Y431740D01*
X86146Y430972D01*
X86581Y430321D01*
X87232Y429886D01*
X88000Y429733D01*
X88519Y429836D01*
X89258Y429401D01*
X89319Y429340D01*
Y427359D01*
X94519D01*
X94681Y427359D01*
X94681Y427359D01*
X95319Y427359D01*
Y427359D01*
X100681D01*
Y428418D01*
X101500D01*
X101566Y428258D01*
X102196Y427436D01*
X103017Y426806D01*
X103974Y426410D01*
X105000Y426275D01*
X106026Y426410D01*
X106983Y426806D01*
X107804Y427436D01*
X107822Y427461D01*
X127178D01*
X127196Y427436D01*
X128017Y426806D01*
X128974Y426410D01*
X130000Y426275D01*
X131026Y426410D01*
X131983Y426806D01*
X132804Y427436D01*
X133434Y428258D01*
X133830Y429214D01*
X133965Y430240D01*
X133830Y431266D01*
X133434Y432223D01*
X132804Y433044D01*
X131983Y433674D01*
X131026Y434070D01*
X130000Y434205D01*
D02*
G37*
G36*
X130591Y424127D02*
Y420831D01*
X133887D01*
X133830Y421267D01*
X133434Y422223D01*
X132804Y423044D01*
X131983Y423674D01*
X131026Y424070D01*
X130591Y424127D01*
D02*
G37*
G36*
X105591D02*
Y420831D01*
X108887D01*
X108830Y421267D01*
X108434Y422223D01*
X107804Y423044D01*
X106983Y423674D01*
X106026Y424070D01*
X105591Y424127D01*
D02*
G37*
G36*
X15590D02*
Y420831D01*
X18887D01*
X18830Y421267D01*
X18434Y422223D01*
X17804Y423044D01*
X16983Y423674D01*
X16026Y424070D01*
X15590Y424127D01*
D02*
G37*
G36*
X129409D02*
X128974Y424070D01*
X128017Y423674D01*
X127196Y423044D01*
X126566Y422223D01*
X126170Y421267D01*
X126113Y420831D01*
X129409D01*
Y424127D01*
D02*
G37*
G36*
X104409D02*
X103974Y424070D01*
X103017Y423674D01*
X102196Y423044D01*
X101566Y422223D01*
X101170Y421267D01*
X101113Y420831D01*
X104409D01*
Y424127D01*
D02*
G37*
%LPD*%
G36*
X94100Y430840D02*
X94100Y429740D01*
X95300Y428540D01*
X93425Y428540D01*
Y431940D01*
X95300D01*
X94100Y430840D01*
D02*
G37*
G36*
X96800Y428540D02*
X96500Y428540D01*
X94900Y430140D01*
Y430340D01*
X96501Y431941D01*
X96800D01*
Y428540D01*
D02*
G37*
%LPC*%
G36*
X46381Y456121D02*
X41619D01*
Y451031D01*
X41619Y450753D01*
X41585Y450540D01*
X41574Y450490D01*
X41501Y450276D01*
X41054Y449959D01*
X40760Y449921D01*
X40643Y449921D01*
X35619D01*
Y448859D01*
X33270D01*
X31381Y450748D01*
Y455371D01*
X26619D01*
Y449109D01*
X28442D01*
X31455Y446096D01*
X31981Y445745D01*
X32600Y445622D01*
X35619D01*
Y444559D01*
X39392D01*
X39678Y444274D01*
X39755Y443684D01*
X40036Y443006D01*
X40483Y442423D01*
X41289Y441618D01*
Y441340D01*
X41384Y440613D01*
X41665Y439934D01*
X42112Y439352D01*
X42694Y438905D01*
X43372Y438625D01*
X44100Y438529D01*
X44828Y438625D01*
X45506Y438905D01*
X46088Y439352D01*
X46535Y439934D01*
X46816Y440613D01*
X46911Y441340D01*
Y442782D01*
X46911Y442782D01*
X46816Y443510D01*
X46535Y444188D01*
X46088Y444770D01*
X46088Y444770D01*
X44459Y446399D01*
X43877Y446846D01*
X43199Y447127D01*
X42471Y447223D01*
X42181Y447185D01*
X41439Y447729D01*
X41381Y447843D01*
X41381Y449272D01*
X41381Y449527D01*
X41415Y449740D01*
X41426Y449790D01*
X41499Y450004D01*
X41946Y450321D01*
X42240Y450359D01*
X42357Y450359D01*
X46367D01*
X47000Y450233D01*
X47768Y450386D01*
X48419Y450821D01*
X48854Y451472D01*
X49007Y452240D01*
X48854Y453008D01*
X48419Y453659D01*
X47768Y454095D01*
X47000Y454247D01*
X46999Y454247D01*
X46381Y454755D01*
Y456121D01*
D02*
G37*
G36*
X59925Y359334D02*
X56185D01*
Y355594D01*
X59925D01*
Y359334D01*
D02*
G37*
G36*
X55004D02*
X51264D01*
Y355594D01*
X55004D01*
Y359334D01*
D02*
G37*
G36*
X51264Y354413D02*
Y350673D01*
X55004D01*
Y354413D01*
X51264D01*
D02*
G37*
G36*
X59925D02*
X56185D01*
Y350673D01*
X59925D01*
Y354413D01*
D02*
G37*
G36*
X55004Y349492D02*
X51264D01*
Y345752D01*
X55004D01*
Y349492D01*
D02*
G37*
G36*
X50082D02*
X46342D01*
Y345752D01*
X50082D01*
Y349492D01*
D02*
G37*
G36*
X45161D02*
X41421D01*
Y345752D01*
X45161D01*
Y349492D01*
D02*
G37*
G36*
X40240D02*
X36500D01*
Y345752D01*
X40240D01*
Y349492D01*
D02*
G37*
G36*
X59925D02*
X56185D01*
Y345752D01*
X59925D01*
Y349492D01*
D02*
G37*
G36*
X55004Y344571D02*
X51264D01*
Y340830D01*
X55004D01*
Y344571D01*
D02*
G37*
G36*
X45161D02*
X41421D01*
Y340830D01*
X45161D01*
Y344571D01*
D02*
G37*
G36*
X59925D02*
X56185D01*
Y340830D01*
X59925D01*
Y344571D01*
D02*
G37*
G36*
X50082D02*
X46342D01*
Y340830D01*
X50082D01*
Y344571D01*
D02*
G37*
G36*
X95400Y330725D02*
X94632Y330572D01*
X93981Y330137D01*
X93546Y329486D01*
X93393Y328718D01*
X93546Y327950D01*
X93981Y327299D01*
X94632Y326864D01*
X95400Y326711D01*
X95654Y326761D01*
X98439Y323975D01*
X98439Y323975D01*
X98830Y323714D01*
X99291Y323623D01*
X99291Y323623D01*
X101244D01*
X101566Y322844D01*
X102196Y322023D01*
X103017Y321393D01*
X103974Y320997D01*
X105000Y320862D01*
X106026Y320997D01*
X106983Y321393D01*
X107804Y322023D01*
X108434Y322844D01*
X108585Y323208D01*
X126415D01*
X126566Y322844D01*
X127196Y322023D01*
X128017Y321393D01*
X128974Y320997D01*
X130000Y320862D01*
X131026Y320997D01*
X131983Y321393D01*
X132804Y322023D01*
X133434Y322844D01*
X133830Y323801D01*
X133965Y324827D01*
X133830Y325853D01*
X133434Y326809D01*
X132804Y327630D01*
X131983Y328261D01*
X131026Y328657D01*
X130000Y328792D01*
X128974Y328657D01*
X128017Y328261D01*
X127196Y327630D01*
X126566Y326809D01*
X126415Y326445D01*
X108585D01*
X108434Y326809D01*
X107804Y327630D01*
X106983Y328261D01*
X106026Y328657D01*
X105000Y328792D01*
X103974Y328657D01*
X103017Y328261D01*
X102196Y327630D01*
X101566Y326809D01*
X101244Y326031D01*
X99790D01*
X97357Y328464D01*
X97407Y328718D01*
X97254Y329486D01*
X96819Y330137D01*
X96168Y330572D01*
X95400Y330725D01*
D02*
G37*
G36*
X130000Y318792D02*
X128974Y318657D01*
X128017Y318261D01*
X127196Y317631D01*
X126566Y316809D01*
X126498Y316645D01*
X117021D01*
X116668Y316881D01*
X115900Y317034D01*
X115132Y316881D01*
X114779Y316645D01*
X108502D01*
X108434Y316809D01*
X107804Y317631D01*
X106983Y318261D01*
X106026Y318657D01*
X105000Y318792D01*
X103974Y318657D01*
X103017Y318261D01*
X102196Y317631D01*
X101566Y316809D01*
X101170Y315853D01*
X101035Y314827D01*
X101170Y313801D01*
X101566Y312844D01*
X102100Y312149D01*
X101974Y311679D01*
X101760Y311349D01*
X89900D01*
X89900Y311349D01*
X89203Y311210D01*
X88626Y310825D01*
X88563Y310813D01*
X87912Y310378D01*
X87477Y309726D01*
X87324Y308958D01*
X87477Y308190D01*
X87912Y307539D01*
X88563Y307104D01*
X89332Y306951D01*
X90100Y307104D01*
X90751Y307539D01*
X90861Y307704D01*
X101245D01*
X101639Y306904D01*
X101566Y306809D01*
X101170Y305853D01*
X101035Y304827D01*
X101170Y303801D01*
X101566Y302844D01*
X102196Y302023D01*
X103017Y301393D01*
X103974Y300997D01*
X105000Y300862D01*
X106026Y300997D01*
X106983Y301393D01*
X107804Y302023D01*
X108434Y302844D01*
X108585Y303208D01*
X126415D01*
X126566Y302844D01*
X127196Y302023D01*
X128017Y301393D01*
X128974Y300997D01*
X130000Y300862D01*
X131026Y300997D01*
X131983Y301393D01*
X132804Y302023D01*
X133434Y302844D01*
X133830Y303801D01*
X133965Y304827D01*
X133830Y305853D01*
X133434Y306809D01*
X132804Y307630D01*
X131983Y308261D01*
X131026Y308657D01*
X130000Y308792D01*
X128974Y308657D01*
X128017Y308261D01*
X127196Y307630D01*
X126566Y306809D01*
X126415Y306445D01*
X108958D01*
X108675Y306938D01*
X109092Y307704D01*
X111184D01*
X111232Y307673D01*
X112000Y307520D01*
X112768Y307673D01*
X113419Y308108D01*
X113854Y308759D01*
X114007Y309527D01*
X113854Y310295D01*
X113419Y310946D01*
X112768Y311381D01*
X112000Y311534D01*
X111232Y311381D01*
X111184Y311349D01*
X108240D01*
X108026Y311679D01*
X107901Y312149D01*
X108434Y312844D01*
X108667Y313408D01*
X114779D01*
X115132Y313173D01*
X115900Y313020D01*
X116668Y313173D01*
X117021Y313408D01*
X126333D01*
X126566Y312844D01*
X127196Y312023D01*
X128017Y311393D01*
X128974Y310997D01*
X130000Y310862D01*
X131026Y310997D01*
X131983Y311393D01*
X132804Y312023D01*
X133434Y312844D01*
X133830Y313801D01*
X133965Y314827D01*
X133830Y315853D01*
X133434Y316809D01*
X132804Y317631D01*
X131983Y318261D01*
X131026Y318657D01*
X130000Y318792D01*
D02*
G37*
G36*
X67000Y302398D02*
X66170Y302288D01*
X65981Y302210D01*
X65181Y302370D01*
Y302370D01*
X58819D01*
Y295284D01*
X65181D01*
X65796Y294836D01*
Y291190D01*
X65581Y291046D01*
X65146Y290395D01*
X64993Y289627D01*
X65146Y288859D01*
X65581Y288208D01*
X66232Y287772D01*
X67000Y287620D01*
X67768Y287772D01*
X68419Y288208D01*
X68854Y288859D01*
X69007Y289627D01*
X68854Y290395D01*
X68419Y291046D01*
X68204Y291190D01*
Y295520D01*
X68604Y295686D01*
X68925Y295932D01*
X69500Y296120D01*
X70075Y295932D01*
X70396Y295686D01*
X71170Y295365D01*
X71409Y295334D01*
Y298827D01*
Y302320D01*
X71170Y302288D01*
X70396Y301968D01*
X70075Y301722D01*
X69500Y301534D01*
X68925Y301722D01*
X68604Y301968D01*
X67830Y302288D01*
X67000Y302398D01*
D02*
G37*
G36*
X80000Y312834D02*
X79232Y312681D01*
X78581Y312246D01*
X78146Y311595D01*
X77993Y310827D01*
X77895Y310708D01*
X74619D01*
Y304946D01*
X79381D01*
Y308225D01*
X80000Y308820D01*
X80001Y308820D01*
X80619Y308312D01*
Y304946D01*
X80789D01*
Y302131D01*
X80396Y301968D01*
X80075Y301722D01*
X79500Y301534D01*
X78925Y301722D01*
X78604Y301968D01*
X77830Y302288D01*
X77000Y302398D01*
X76170Y302288D01*
X75396Y301968D01*
X75075Y301722D01*
X74500Y301534D01*
X73925Y301722D01*
X73604Y301968D01*
X72830Y302288D01*
X72591Y302320D01*
Y298827D01*
Y295334D01*
X72830Y295365D01*
X73604Y295686D01*
X73925Y295932D01*
X74036Y295968D01*
X74796Y295630D01*
Y290390D01*
X74581Y290246D01*
X74146Y289595D01*
X73993Y288827D01*
X74146Y288059D01*
X74581Y287408D01*
X75232Y286972D01*
X76000Y286820D01*
X76768Y286972D01*
X77419Y287408D01*
X77854Y288059D01*
X78007Y288827D01*
X77854Y289595D01*
X77419Y290246D01*
X77204Y290390D01*
Y295283D01*
X77830Y295365D01*
X78604Y295686D01*
X78925Y295932D01*
X79036Y295968D01*
X79796Y295630D01*
Y290390D01*
X79581Y290246D01*
X79146Y289595D01*
X78993Y288827D01*
X79146Y288059D01*
X79581Y287408D01*
X80232Y286972D01*
X81000Y286820D01*
X81768Y286972D01*
X82419Y287408D01*
X82854Y288059D01*
X83007Y288827D01*
X82854Y289595D01*
X82419Y290246D01*
X82204Y290390D01*
Y295283D01*
X82830Y295365D01*
X83604Y295686D01*
X84269Y296196D01*
X84779Y296860D01*
X85099Y297634D01*
X85209Y298465D01*
Y299189D01*
X85099Y300020D01*
X84779Y300793D01*
X84269Y301458D01*
X83604Y301968D01*
X83211Y302131D01*
Y304946D01*
X85381D01*
Y310708D01*
X82105D01*
X82007Y310827D01*
X81854Y311595D01*
X81419Y312246D01*
X80768Y312681D01*
X80000Y312834D01*
D02*
G37*
G36*
X130000Y298792D02*
X128974Y298657D01*
X128017Y298261D01*
X127196Y297631D01*
X127178Y297606D01*
X107822D01*
X107804Y297631D01*
X106983Y298261D01*
X106026Y298657D01*
X105000Y298792D01*
X103974Y298657D01*
X103017Y298261D01*
X102196Y297631D01*
X101566Y296809D01*
X101500Y296649D01*
X100681D01*
Y297708D01*
X95319D01*
X95319Y297708D01*
X94681D01*
Y297708D01*
X94519Y297708D01*
X91650D01*
X91197Y298010D01*
X90500Y298149D01*
X90500Y298149D01*
X88816D01*
X88768Y298181D01*
X88000Y298334D01*
X87232Y298181D01*
X86581Y297746D01*
X86146Y297095D01*
X85993Y296327D01*
X86146Y295559D01*
X86581Y294908D01*
X87232Y294473D01*
X88000Y294320D01*
X88519Y294423D01*
X89258Y293988D01*
X89319Y293927D01*
Y291946D01*
X94519D01*
X94681Y291946D01*
X94681Y291946D01*
X95319Y291946D01*
Y291946D01*
X100681D01*
Y293004D01*
X101500D01*
X101566Y292844D01*
X102196Y292023D01*
X103017Y291393D01*
X103974Y290997D01*
X105000Y290862D01*
X106026Y290997D01*
X106983Y291393D01*
X107804Y292023D01*
X107822Y292047D01*
X127178D01*
X127196Y292023D01*
X128017Y291393D01*
X128974Y290997D01*
X130000Y290862D01*
X131026Y290997D01*
X131983Y291393D01*
X132804Y292023D01*
X133434Y292844D01*
X133830Y293801D01*
X133965Y294827D01*
X133830Y295853D01*
X133434Y296809D01*
X132804Y297631D01*
X131983Y298261D01*
X131026Y298657D01*
X130000Y298792D01*
D02*
G37*
G36*
X130591Y288714D02*
Y285417D01*
X133887D01*
X133830Y285853D01*
X133434Y286809D01*
X132804Y287631D01*
X131983Y288261D01*
X131026Y288657D01*
X130591Y288714D01*
D02*
G37*
G36*
X105591D02*
Y285417D01*
X108887D01*
X108830Y285853D01*
X108434Y286809D01*
X107804Y287631D01*
X106983Y288261D01*
X106026Y288657D01*
X105591Y288714D01*
D02*
G37*
G36*
X15590D02*
Y285417D01*
X18887D01*
X18830Y285853D01*
X18434Y286809D01*
X17804Y287631D01*
X16983Y288261D01*
X16026Y288657D01*
X15590Y288714D01*
D02*
G37*
G36*
X129409D02*
X128974Y288657D01*
X128017Y288261D01*
X127196Y287631D01*
X126566Y286809D01*
X126170Y285853D01*
X126113Y285417D01*
X129409D01*
Y288714D01*
D02*
G37*
G36*
X104409D02*
X103974Y288657D01*
X103017Y288261D01*
X102196Y287631D01*
X101566Y286809D01*
X101170Y285853D01*
X101113Y285417D01*
X104409D01*
Y288714D01*
D02*
G37*
%LPD*%
G36*
X94100Y295427D02*
X94100Y294327D01*
X95300Y293127D01*
X93425Y293127D01*
Y296527D01*
X95300D01*
X94100Y295427D01*
D02*
G37*
G36*
X96800Y293127D02*
X96500Y293127D01*
X94900Y294727D01*
Y294927D01*
X96501Y296527D01*
X96800D01*
Y293127D01*
D02*
G37*
%LPC*%
G36*
X46381Y320708D02*
X41619D01*
Y315617D01*
X41619Y315340D01*
X41585Y315127D01*
X41574Y315077D01*
X41501Y314862D01*
X41054Y314546D01*
X40760Y314508D01*
X40643Y314508D01*
X35619D01*
Y313445D01*
X33270D01*
X31381Y315335D01*
Y319958D01*
X26619D01*
Y313696D01*
X28442D01*
X31455Y310682D01*
X31981Y310332D01*
X32600Y310208D01*
X35619D01*
Y309146D01*
X39392D01*
X39678Y308860D01*
X39755Y308270D01*
X40036Y307592D01*
X40483Y307010D01*
X41289Y306204D01*
Y305927D01*
X41384Y305199D01*
X41665Y304521D01*
X42112Y303939D01*
X42694Y303492D01*
X43372Y303211D01*
X44100Y303115D01*
X44828Y303211D01*
X45506Y303492D01*
X46088Y303939D01*
X46535Y304521D01*
X46816Y305199D01*
X46911Y305927D01*
Y307369D01*
X46911Y307369D01*
X46816Y308097D01*
X46535Y308774D01*
X46088Y309357D01*
X46088Y309357D01*
X44459Y310986D01*
X43877Y311433D01*
X43199Y311714D01*
X42471Y311809D01*
X42181Y311771D01*
X41439Y312316D01*
X41381Y312429D01*
X41381Y313858D01*
X41381Y314114D01*
X41415Y314327D01*
X41426Y314377D01*
X41499Y314591D01*
X41946Y314908D01*
X42240Y314946D01*
X42357Y314946D01*
X46367D01*
X47000Y314820D01*
X47768Y314972D01*
X48419Y315408D01*
X48854Y316059D01*
X49007Y316827D01*
X48854Y317595D01*
X48419Y318246D01*
X47768Y318681D01*
X47000Y318834D01*
X46999Y318834D01*
X46381Y319341D01*
Y320708D01*
D02*
G37*
G36*
X59925Y223921D02*
X56185D01*
Y220181D01*
X59925D01*
Y223921D01*
D02*
G37*
G36*
X55004D02*
X51264D01*
Y220181D01*
X55004D01*
Y223921D01*
D02*
G37*
G36*
X51264Y219000D02*
Y215260D01*
X55004D01*
Y219000D01*
X51264D01*
D02*
G37*
G36*
X59925D02*
X56185D01*
Y215260D01*
X59925D01*
Y219000D01*
D02*
G37*
G36*
X55004Y214078D02*
X51264D01*
Y210338D01*
X55004D01*
Y214078D01*
D02*
G37*
G36*
X50082D02*
X46342D01*
Y210338D01*
X50082D01*
Y214078D01*
D02*
G37*
G36*
X45161D02*
X41421D01*
Y210338D01*
X45161D01*
Y214078D01*
D02*
G37*
G36*
X40240D02*
X36500D01*
Y210338D01*
X40240D01*
Y214078D01*
D02*
G37*
G36*
X59925D02*
X56185D01*
Y210338D01*
X59925D01*
Y214078D01*
D02*
G37*
G36*
X55004Y209157D02*
X51264D01*
Y205417D01*
X55004D01*
Y209157D01*
D02*
G37*
G36*
X45161D02*
X41421D01*
Y205417D01*
X45161D01*
Y209157D01*
D02*
G37*
G36*
X59925D02*
X56185D01*
Y205417D01*
X59925D01*
Y209157D01*
D02*
G37*
G36*
X50082D02*
X46342D01*
Y205417D01*
X50082D01*
Y209157D01*
D02*
G37*
G36*
X95400Y195311D02*
X94632Y195159D01*
X93981Y194724D01*
X93546Y194072D01*
X93393Y193304D01*
X93546Y192536D01*
X93981Y191885D01*
X94632Y191450D01*
X95400Y191297D01*
X95654Y191348D01*
X98439Y188562D01*
X98439Y188562D01*
X98830Y188301D01*
X99291Y188209D01*
X99291Y188209D01*
X101244D01*
X101566Y187431D01*
X102196Y186610D01*
X103017Y185980D01*
X103974Y185583D01*
X105000Y185448D01*
X106026Y185583D01*
X106983Y185980D01*
X107804Y186610D01*
X108434Y187431D01*
X108585Y187795D01*
X126415D01*
X126566Y187431D01*
X127196Y186610D01*
X128017Y185980D01*
X128974Y185583D01*
X130000Y185448D01*
X131026Y185583D01*
X131983Y185980D01*
X132804Y186610D01*
X133434Y187431D01*
X133830Y188387D01*
X133965Y189413D01*
X133830Y190440D01*
X133434Y191396D01*
X132804Y192217D01*
X131983Y192847D01*
X131026Y193243D01*
X130000Y193378D01*
X128974Y193243D01*
X128017Y192847D01*
X127196Y192217D01*
X126566Y191396D01*
X126415Y191032D01*
X108585D01*
X108434Y191396D01*
X107804Y192217D01*
X106983Y192847D01*
X106026Y193243D01*
X105000Y193378D01*
X103974Y193243D01*
X103017Y192847D01*
X102196Y192217D01*
X101566Y191396D01*
X101244Y190618D01*
X99790D01*
X97357Y193051D01*
X97407Y193304D01*
X97254Y194072D01*
X96819Y194724D01*
X96168Y195159D01*
X95400Y195311D01*
D02*
G37*
G36*
X130000Y183378D02*
X128974Y183243D01*
X128017Y182847D01*
X127196Y182217D01*
X126566Y181396D01*
X126498Y181232D01*
X117021D01*
X116668Y181468D01*
X115900Y181621D01*
X115132Y181468D01*
X114779Y181232D01*
X108502D01*
X108434Y181396D01*
X107804Y182217D01*
X106983Y182847D01*
X106026Y183243D01*
X105000Y183378D01*
X103974Y183243D01*
X103017Y182847D01*
X102196Y182217D01*
X101566Y181396D01*
X101170Y180440D01*
X101035Y179413D01*
X101170Y178387D01*
X101566Y177431D01*
X102100Y176736D01*
X101974Y176265D01*
X101760Y175936D01*
X89900D01*
X89900Y175936D01*
X89203Y175797D01*
X88626Y175412D01*
X88563Y175399D01*
X87912Y174964D01*
X87477Y174313D01*
X87324Y173545D01*
X87477Y172777D01*
X87912Y172126D01*
X88563Y171691D01*
X89332Y171538D01*
X90100Y171691D01*
X90751Y172126D01*
X90861Y172291D01*
X101245D01*
X101639Y171491D01*
X101566Y171396D01*
X101170Y170440D01*
X101035Y169413D01*
X101170Y168387D01*
X101566Y167431D01*
X102196Y166610D01*
X103017Y165980D01*
X103974Y165584D01*
X105000Y165448D01*
X106026Y165584D01*
X106983Y165980D01*
X107804Y166610D01*
X108434Y167431D01*
X108585Y167795D01*
X126415D01*
X126566Y167431D01*
X127196Y166610D01*
X128017Y165980D01*
X128974Y165584D01*
X130000Y165448D01*
X131026Y165584D01*
X131983Y165980D01*
X132804Y166610D01*
X133434Y167431D01*
X133830Y168387D01*
X133965Y169413D01*
X133830Y170440D01*
X133434Y171396D01*
X132804Y172217D01*
X131983Y172847D01*
X131026Y173243D01*
X130000Y173378D01*
X128974Y173243D01*
X128017Y172847D01*
X127196Y172217D01*
X126566Y171396D01*
X126415Y171032D01*
X108958D01*
X108675Y171524D01*
X109092Y172291D01*
X111184D01*
X111232Y172259D01*
X112000Y172106D01*
X112768Y172259D01*
X113419Y172694D01*
X113854Y173345D01*
X114007Y174113D01*
X113854Y174881D01*
X113419Y175533D01*
X112768Y175968D01*
X112000Y176120D01*
X111232Y175968D01*
X111184Y175936D01*
X108240D01*
X108026Y176265D01*
X107901Y176736D01*
X108434Y177431D01*
X108667Y177995D01*
X114779D01*
X115132Y177759D01*
X115900Y177606D01*
X116668Y177759D01*
X117021Y177995D01*
X126333D01*
X126566Y177431D01*
X127196Y176610D01*
X128017Y175980D01*
X128974Y175584D01*
X130000Y175448D01*
X131026Y175584D01*
X131983Y175980D01*
X132804Y176610D01*
X133434Y177431D01*
X133830Y178387D01*
X133965Y179413D01*
X133830Y180440D01*
X133434Y181396D01*
X132804Y182217D01*
X131983Y182847D01*
X131026Y183243D01*
X130000Y183378D01*
D02*
G37*
G36*
X67000Y166984D02*
X66170Y166875D01*
X65981Y166797D01*
X65181Y166957D01*
Y166957D01*
X58819D01*
Y159870D01*
X65181D01*
X65796Y159423D01*
Y155776D01*
X65581Y155633D01*
X65146Y154982D01*
X64993Y154213D01*
X65146Y153445D01*
X65581Y152794D01*
X66232Y152359D01*
X67000Y152206D01*
X67768Y152359D01*
X68419Y152794D01*
X68854Y153445D01*
X69007Y154213D01*
X68854Y154982D01*
X68419Y155633D01*
X68204Y155776D01*
Y160107D01*
X68604Y160273D01*
X68925Y160519D01*
X69500Y160707D01*
X70075Y160519D01*
X70396Y160273D01*
X71170Y159952D01*
X71409Y159920D01*
Y163413D01*
Y166906D01*
X71170Y166875D01*
X70396Y166554D01*
X70075Y166308D01*
X69500Y166120D01*
X68925Y166308D01*
X68604Y166554D01*
X67830Y166875D01*
X67000Y166984D01*
D02*
G37*
G36*
X80000Y177420D02*
X79232Y177268D01*
X78581Y176833D01*
X78146Y176181D01*
X77993Y175413D01*
X77895Y175294D01*
X74619D01*
Y169532D01*
X79381D01*
Y172812D01*
X80000Y173406D01*
X80001Y173406D01*
X80619Y172899D01*
Y169532D01*
X80789D01*
Y166717D01*
X80396Y166554D01*
X80075Y166308D01*
X79500Y166120D01*
X78925Y166308D01*
X78604Y166554D01*
X77830Y166875D01*
X77000Y166984D01*
X76170Y166875D01*
X75396Y166554D01*
X75075Y166308D01*
X74500Y166120D01*
X73925Y166308D01*
X73604Y166554D01*
X72830Y166875D01*
X72591Y166906D01*
Y163413D01*
Y159920D01*
X72830Y159952D01*
X73604Y160273D01*
X73925Y160519D01*
X74036Y160555D01*
X74796Y160217D01*
Y154976D01*
X74581Y154833D01*
X74146Y154182D01*
X73993Y153413D01*
X74146Y152645D01*
X74581Y151994D01*
X75232Y151559D01*
X76000Y151406D01*
X76768Y151559D01*
X77419Y151994D01*
X77854Y152645D01*
X78007Y153413D01*
X77854Y154182D01*
X77419Y154833D01*
X77204Y154976D01*
Y159870D01*
X77830Y159952D01*
X78604Y160273D01*
X78925Y160519D01*
X79036Y160555D01*
X79796Y160217D01*
Y154976D01*
X79581Y154833D01*
X79146Y154182D01*
X78993Y153413D01*
X79146Y152645D01*
X79581Y151994D01*
X80232Y151559D01*
X81000Y151406D01*
X81768Y151559D01*
X82419Y151994D01*
X82854Y152645D01*
X83007Y153413D01*
X82854Y154182D01*
X82419Y154833D01*
X82204Y154976D01*
Y159870D01*
X82830Y159952D01*
X83604Y160273D01*
X84269Y160782D01*
X84779Y161447D01*
X85099Y162221D01*
X85209Y163051D01*
Y163776D01*
X85099Y164606D01*
X84779Y165380D01*
X84269Y166044D01*
X83604Y166554D01*
X83211Y166717D01*
Y169532D01*
X85381D01*
Y175294D01*
X82105D01*
X82007Y175413D01*
X81854Y176181D01*
X81419Y176833D01*
X80768Y177268D01*
X80000Y177420D01*
D02*
G37*
G36*
X130000Y163378D02*
X128974Y163243D01*
X128017Y162847D01*
X127196Y162217D01*
X127178Y162193D01*
X107822D01*
X107804Y162217D01*
X106983Y162847D01*
X106026Y163243D01*
X105000Y163378D01*
X103974Y163243D01*
X103017Y162847D01*
X102196Y162217D01*
X101566Y161396D01*
X101500Y161236D01*
X100681D01*
Y162294D01*
X95319D01*
X95319Y162294D01*
X94681D01*
Y162294D01*
X94519Y162294D01*
X91650D01*
X91197Y162597D01*
X90500Y162736D01*
X90500Y162736D01*
X88816D01*
X88768Y162768D01*
X88000Y162920D01*
X87232Y162768D01*
X86581Y162333D01*
X86146Y161681D01*
X85993Y160913D01*
X86146Y160145D01*
X86581Y159494D01*
X87232Y159059D01*
X88000Y158906D01*
X88519Y159010D01*
X89258Y158574D01*
X89319Y158514D01*
Y156532D01*
X94519D01*
X94681Y156532D01*
X94681Y156532D01*
X95319Y156532D01*
Y156532D01*
X100681D01*
Y157591D01*
X101500D01*
X101566Y157431D01*
X102196Y156610D01*
X103017Y155980D01*
X103974Y155584D01*
X105000Y155448D01*
X106026Y155584D01*
X106983Y155980D01*
X107804Y156610D01*
X107822Y156634D01*
X127178D01*
X127196Y156610D01*
X128017Y155980D01*
X128974Y155584D01*
X130000Y155448D01*
X131026Y155584D01*
X131983Y155980D01*
X132804Y156610D01*
X133434Y157431D01*
X133830Y158387D01*
X133965Y159413D01*
X133830Y160440D01*
X133434Y161396D01*
X132804Y162217D01*
X131983Y162847D01*
X131026Y163243D01*
X130000Y163378D01*
D02*
G37*
G36*
X130591Y153301D02*
Y150004D01*
X133887D01*
X133830Y150440D01*
X133434Y151396D01*
X132804Y152217D01*
X131983Y152847D01*
X131026Y153243D01*
X130591Y153301D01*
D02*
G37*
G36*
X105591D02*
Y150004D01*
X108887D01*
X108830Y150440D01*
X108434Y151396D01*
X107804Y152217D01*
X106983Y152847D01*
X106026Y153243D01*
X105591Y153301D01*
D02*
G37*
G36*
X15590D02*
Y150004D01*
X18887D01*
X18830Y150440D01*
X18434Y151396D01*
X17804Y152217D01*
X16983Y152847D01*
X16026Y153243D01*
X15590Y153301D01*
D02*
G37*
G36*
X129409D02*
X128974Y153243D01*
X128017Y152847D01*
X127196Y152217D01*
X126566Y151396D01*
X126170Y150440D01*
X126113Y150004D01*
X129409D01*
Y153301D01*
D02*
G37*
G36*
X104409D02*
X103974Y153243D01*
X103017Y152847D01*
X102196Y152217D01*
X101566Y151396D01*
X101170Y150440D01*
X101113Y150004D01*
X104409D01*
Y153301D01*
D02*
G37*
%LPD*%
G36*
X94100Y160014D02*
X94100Y158913D01*
X95300Y157713D01*
X93425Y157713D01*
Y161113D01*
X95300D01*
X94100Y160014D01*
D02*
G37*
G36*
X96800Y157713D02*
X96500Y157713D01*
X94900Y159313D01*
Y159513D01*
X96501Y161114D01*
X96800D01*
Y157713D01*
D02*
G37*
%LPC*%
G36*
X46381Y185294D02*
X41619D01*
Y180204D01*
X41619Y179926D01*
X41585Y179714D01*
X41574Y179663D01*
X41501Y179449D01*
X41054Y179132D01*
X40760Y179095D01*
X40643Y179095D01*
X35619D01*
Y178032D01*
X33270D01*
X31381Y179921D01*
Y184545D01*
X26619D01*
Y178282D01*
X28442D01*
X31455Y175269D01*
X31981Y174918D01*
X32600Y174795D01*
X35619D01*
Y173732D01*
X39392D01*
X39678Y173447D01*
X39755Y172857D01*
X40036Y172179D01*
X40483Y171596D01*
X41289Y170791D01*
Y170513D01*
X41384Y169786D01*
X41665Y169108D01*
X42112Y168525D01*
X42694Y168079D01*
X43372Y167798D01*
X44100Y167702D01*
X44828Y167798D01*
X45506Y168079D01*
X46088Y168525D01*
X46535Y169108D01*
X46816Y169786D01*
X46911Y170513D01*
Y171955D01*
X46911Y171955D01*
X46816Y172683D01*
X46535Y173361D01*
X46088Y173943D01*
X46088Y173943D01*
X44459Y175572D01*
X43877Y176019D01*
X43199Y176300D01*
X42471Y176396D01*
X42181Y176358D01*
X41439Y176902D01*
X41381Y177016D01*
X41381Y178445D01*
X41381Y178700D01*
X41415Y178913D01*
X41426Y178963D01*
X41499Y179178D01*
X41946Y179495D01*
X42240Y179532D01*
X42357Y179532D01*
X46367D01*
X47000Y179406D01*
X47768Y179559D01*
X48419Y179994D01*
X48854Y180645D01*
X49007Y181413D01*
X48854Y182182D01*
X48419Y182833D01*
X47768Y183268D01*
X47000Y183421D01*
X46999Y183420D01*
X46381Y183928D01*
Y185294D01*
D02*
G37*
G36*
X59925Y88508D02*
X56185D01*
Y84768D01*
X59925D01*
Y88508D01*
D02*
G37*
G36*
X55004D02*
X51264D01*
Y84768D01*
X55004D01*
Y88508D01*
D02*
G37*
G36*
X51264Y83586D02*
Y79846D01*
X55004D01*
Y83586D01*
X51264D01*
D02*
G37*
G36*
X59925D02*
X56185D01*
Y79846D01*
X59925D01*
Y83586D01*
D02*
G37*
G36*
X55004Y78665D02*
X51264D01*
Y74925D01*
X55004D01*
Y78665D01*
D02*
G37*
G36*
X50082D02*
X46342D01*
Y74925D01*
X50082D01*
Y78665D01*
D02*
G37*
G36*
X45161D02*
X41421D01*
Y74925D01*
X45161D01*
Y78665D01*
D02*
G37*
G36*
X40240D02*
X36500D01*
Y74925D01*
X40240D01*
Y78665D01*
D02*
G37*
G36*
X59925D02*
X56185D01*
Y74925D01*
X59925D01*
Y78665D01*
D02*
G37*
G36*
X55004Y73744D02*
X51264D01*
Y70004D01*
X55004D01*
Y73744D01*
D02*
G37*
G36*
X45161D02*
X41421D01*
Y70004D01*
X45161D01*
Y73744D01*
D02*
G37*
G36*
X59925D02*
X56185D01*
Y70004D01*
X59925D01*
Y73744D01*
D02*
G37*
G36*
X50082D02*
X46342D01*
Y70004D01*
X50082D01*
Y73744D01*
D02*
G37*
G36*
X95400Y59898D02*
X94632Y59745D01*
X93981Y59310D01*
X93546Y58659D01*
X93393Y57891D01*
X93546Y57123D01*
X93981Y56472D01*
X94632Y56037D01*
X95400Y55884D01*
X95654Y55934D01*
X98439Y53149D01*
X98439Y53149D01*
X98830Y52887D01*
X99291Y52796D01*
X99291Y52796D01*
X101244D01*
X101566Y52017D01*
X102196Y51196D01*
X103017Y50566D01*
X103974Y50170D01*
X105000Y50035D01*
X106026Y50170D01*
X106983Y50566D01*
X107804Y51196D01*
X108434Y52017D01*
X108585Y52381D01*
X126415D01*
X126566Y52017D01*
X127196Y51196D01*
X128017Y50566D01*
X128974Y50170D01*
X130000Y50035D01*
X131026Y50170D01*
X131983Y50566D01*
X132804Y51196D01*
X133434Y52017D01*
X133830Y52974D01*
X133965Y54000D01*
X133830Y55026D01*
X133434Y55983D01*
X132804Y56804D01*
X131983Y57434D01*
X131026Y57830D01*
X130000Y57965D01*
X128974Y57830D01*
X128017Y57434D01*
X127196Y56804D01*
X126566Y55983D01*
X126415Y55619D01*
X108585D01*
X108434Y55983D01*
X107804Y56804D01*
X106983Y57434D01*
X106026Y57830D01*
X105000Y57965D01*
X103974Y57830D01*
X103017Y57434D01*
X102196Y56804D01*
X101566Y55983D01*
X101244Y55204D01*
X99790D01*
X97357Y57637D01*
X97407Y57891D01*
X97254Y58659D01*
X96819Y59310D01*
X96168Y59745D01*
X95400Y59898D01*
D02*
G37*
G36*
X130000Y47965D02*
X128974Y47830D01*
X128017Y47434D01*
X127196Y46804D01*
X126566Y45983D01*
X126498Y45818D01*
X117021D01*
X116668Y46054D01*
X115900Y46207D01*
X115132Y46054D01*
X114779Y45818D01*
X108502D01*
X108434Y45983D01*
X107804Y46804D01*
X106983Y47434D01*
X106026Y47830D01*
X105000Y47965D01*
X103974Y47830D01*
X103017Y47434D01*
X102196Y46804D01*
X101566Y45983D01*
X101170Y45026D01*
X101035Y44000D01*
X101170Y42974D01*
X101566Y42017D01*
X102100Y41322D01*
X101974Y40852D01*
X101760Y40522D01*
X89900D01*
X89900Y40522D01*
X89203Y40384D01*
X88626Y39998D01*
X88563Y39986D01*
X87912Y39551D01*
X87477Y38900D01*
X87324Y38131D01*
X87477Y37363D01*
X87912Y36712D01*
X88563Y36277D01*
X89332Y36124D01*
X90100Y36277D01*
X90751Y36712D01*
X90861Y36878D01*
X101245D01*
X101639Y36078D01*
X101566Y35982D01*
X101170Y35026D01*
X101035Y34000D01*
X101170Y32974D01*
X101566Y32017D01*
X102196Y31196D01*
X103017Y30566D01*
X103974Y30170D01*
X105000Y30035D01*
X106026Y30170D01*
X106983Y30566D01*
X107804Y31196D01*
X108434Y32017D01*
X108585Y32381D01*
X126415D01*
X126566Y32017D01*
X127196Y31196D01*
X128017Y30566D01*
X128974Y30170D01*
X130000Y30035D01*
X131026Y30170D01*
X131983Y30566D01*
X132804Y31196D01*
X133434Y32017D01*
X133830Y32974D01*
X133965Y34000D01*
X133830Y35026D01*
X133434Y35982D01*
X132804Y36804D01*
X131983Y37434D01*
X131026Y37830D01*
X130000Y37965D01*
X128974Y37830D01*
X128017Y37434D01*
X127196Y36804D01*
X126566Y35982D01*
X126415Y35618D01*
X108958D01*
X108675Y36111D01*
X109092Y36878D01*
X111184D01*
X111232Y36846D01*
X112000Y36693D01*
X112768Y36846D01*
X113419Y37281D01*
X113854Y37932D01*
X114007Y38700D01*
X113854Y39468D01*
X113419Y40119D01*
X112768Y40554D01*
X112000Y40707D01*
X111232Y40554D01*
X111184Y40522D01*
X108240D01*
X108026Y40852D01*
X107901Y41322D01*
X108434Y42017D01*
X108667Y42581D01*
X114779D01*
X115132Y42346D01*
X115900Y42193D01*
X116668Y42346D01*
X117021Y42581D01*
X126333D01*
X126566Y42017D01*
X127196Y41196D01*
X128017Y40566D01*
X128974Y40170D01*
X130000Y40035D01*
X131026Y40170D01*
X131983Y40566D01*
X132804Y41196D01*
X133434Y42017D01*
X133830Y42974D01*
X133965Y44000D01*
X133830Y45026D01*
X133434Y45983D01*
X132804Y46804D01*
X131983Y47434D01*
X131026Y47830D01*
X130000Y47965D01*
D02*
G37*
G36*
X67000Y31571D02*
X66170Y31461D01*
X65981Y31383D01*
X65181Y31543D01*
Y31543D01*
X58819D01*
Y24457D01*
X65181D01*
X65796Y24009D01*
Y20363D01*
X65581Y20219D01*
X65146Y19568D01*
X64993Y18800D01*
X65146Y18032D01*
X65581Y17381D01*
X66232Y16946D01*
X67000Y16793D01*
X67768Y16946D01*
X68419Y17381D01*
X68854Y18032D01*
X69007Y18800D01*
X68854Y19568D01*
X68419Y20219D01*
X68204Y20363D01*
Y24693D01*
X68604Y24859D01*
X68925Y25105D01*
X69500Y25293D01*
X70075Y25105D01*
X70396Y24859D01*
X71170Y24539D01*
X71409Y24507D01*
Y28000D01*
Y31493D01*
X71170Y31461D01*
X70396Y31141D01*
X70075Y30895D01*
X69500Y30707D01*
X68925Y30895D01*
X68604Y31141D01*
X67830Y31461D01*
X67000Y31571D01*
D02*
G37*
G36*
X80000Y42007D02*
X79232Y41854D01*
X78581Y41419D01*
X78146Y40768D01*
X77993Y40000D01*
X77895Y39881D01*
X74619D01*
Y34119D01*
X79381D01*
Y37399D01*
X80000Y37993D01*
X80001Y37993D01*
X80619Y37486D01*
Y34119D01*
X80789D01*
Y31304D01*
X80396Y31141D01*
X80075Y30895D01*
X79500Y30707D01*
X78925Y30895D01*
X78604Y31141D01*
X77830Y31461D01*
X77000Y31571D01*
X76170Y31461D01*
X75396Y31141D01*
X75075Y30895D01*
X74500Y30707D01*
X73925Y30895D01*
X73604Y31141D01*
X72830Y31461D01*
X72591Y31493D01*
Y28000D01*
Y24507D01*
X72830Y24539D01*
X73604Y24859D01*
X73925Y25105D01*
X74036Y25142D01*
X74796Y24803D01*
Y19563D01*
X74581Y19419D01*
X74146Y18768D01*
X73993Y18000D01*
X74146Y17232D01*
X74581Y16581D01*
X75232Y16146D01*
X76000Y15993D01*
X76768Y16146D01*
X77419Y16581D01*
X77854Y17232D01*
X78007Y18000D01*
X77854Y18768D01*
X77419Y19419D01*
X77204Y19563D01*
Y24456D01*
X77830Y24539D01*
X78604Y24859D01*
X78925Y25105D01*
X79036Y25142D01*
X79796Y24803D01*
Y19563D01*
X79581Y19419D01*
X79146Y18768D01*
X78993Y18000D01*
X79146Y17232D01*
X79581Y16581D01*
X80232Y16146D01*
X81000Y15993D01*
X81768Y16146D01*
X82419Y16581D01*
X82854Y17232D01*
X83007Y18000D01*
X82854Y18768D01*
X82419Y19419D01*
X82204Y19563D01*
Y24456D01*
X82830Y24539D01*
X83604Y24859D01*
X84269Y25369D01*
X84779Y26033D01*
X85099Y26807D01*
X85209Y27638D01*
Y28362D01*
X85099Y29193D01*
X84779Y29967D01*
X84269Y30631D01*
X83604Y31141D01*
X83211Y31304D01*
Y34119D01*
X85381D01*
Y39881D01*
X82105D01*
X82007Y40000D01*
X81854Y40768D01*
X81419Y41419D01*
X80768Y41854D01*
X80000Y42007D01*
D02*
G37*
G36*
X130000Y27965D02*
X128974Y27830D01*
X128017Y27434D01*
X127196Y26804D01*
X127178Y26780D01*
X107822D01*
X107804Y26804D01*
X106983Y27434D01*
X106026Y27830D01*
X105000Y27965D01*
X103974Y27830D01*
X103017Y27434D01*
X102196Y26804D01*
X101566Y25982D01*
X101500Y25822D01*
X100681D01*
Y26881D01*
X95319D01*
X95319Y26881D01*
X94681D01*
Y26881D01*
X94519Y26881D01*
X91650D01*
X91197Y27184D01*
X90500Y27322D01*
X90500Y27322D01*
X88816D01*
X88768Y27354D01*
X88000Y27507D01*
X87232Y27354D01*
X86581Y26919D01*
X86146Y26268D01*
X85993Y25500D01*
X86146Y24732D01*
X86581Y24081D01*
X87232Y23646D01*
X88000Y23493D01*
X88519Y23596D01*
X89258Y23161D01*
X89319Y23100D01*
Y21119D01*
X94519D01*
X94681Y21119D01*
X94681Y21119D01*
X95319Y21119D01*
Y21119D01*
X100681D01*
Y22178D01*
X101500D01*
X101566Y22017D01*
X102196Y21196D01*
X103017Y20566D01*
X103974Y20170D01*
X105000Y20035D01*
X106026Y20170D01*
X106983Y20566D01*
X107804Y21196D01*
X107822Y21220D01*
X127178D01*
X127196Y21196D01*
X128017Y20566D01*
X128974Y20170D01*
X130000Y20035D01*
X131026Y20170D01*
X131983Y20566D01*
X132804Y21196D01*
X133434Y22017D01*
X133830Y22974D01*
X133965Y24000D01*
X133830Y25026D01*
X133434Y25982D01*
X132804Y26804D01*
X131983Y27434D01*
X131026Y27830D01*
X130000Y27965D01*
D02*
G37*
G36*
X130591Y17887D02*
Y14591D01*
X133887D01*
X133830Y15026D01*
X133434Y15982D01*
X132804Y16804D01*
X131983Y17434D01*
X131026Y17830D01*
X130591Y17887D01*
D02*
G37*
G36*
X105591D02*
Y14591D01*
X108887D01*
X108830Y15026D01*
X108434Y15982D01*
X107804Y16804D01*
X106983Y17434D01*
X106026Y17830D01*
X105591Y17887D01*
D02*
G37*
G36*
X15590D02*
Y14591D01*
X18887D01*
X18830Y15026D01*
X18434Y15982D01*
X17804Y16804D01*
X16983Y17434D01*
X16026Y17830D01*
X15590Y17887D01*
D02*
G37*
G36*
X129409D02*
X128974Y17830D01*
X128017Y17434D01*
X127196Y16804D01*
X126566Y15982D01*
X126170Y15026D01*
X126113Y14591D01*
X129409D01*
Y17887D01*
D02*
G37*
G36*
X104409D02*
X103974Y17830D01*
X103017Y17434D01*
X102196Y16804D01*
X101566Y15982D01*
X101170Y15026D01*
X101113Y14591D01*
X104409D01*
Y17887D01*
D02*
G37*
%LPD*%
G36*
X94100Y24600D02*
X94100Y23500D01*
X95300Y22300D01*
X93425Y22300D01*
Y25700D01*
X95300D01*
X94100Y24600D01*
D02*
G37*
G36*
X96800Y22300D02*
X96500Y22300D01*
X94900Y23900D01*
Y24100D01*
X96501Y25701D01*
X96800D01*
Y22300D01*
D02*
G37*
%LPC*%
G36*
X46381Y49881D02*
X41619D01*
Y44790D01*
X41619Y44513D01*
X41585Y44300D01*
X41574Y44250D01*
X41501Y44036D01*
X41054Y43719D01*
X40760Y43681D01*
X40643Y43681D01*
X35619D01*
Y42619D01*
X33270D01*
X31381Y44508D01*
Y49131D01*
X26619D01*
Y42869D01*
X28442D01*
X31455Y39856D01*
X31981Y39505D01*
X32600Y39382D01*
X35619D01*
Y38319D01*
X39392D01*
X39678Y38034D01*
X39755Y37443D01*
X40036Y36765D01*
X40483Y36183D01*
X41289Y35377D01*
Y35100D01*
X41384Y34372D01*
X41665Y33694D01*
X42112Y33112D01*
X42694Y32665D01*
X43372Y32384D01*
X44100Y32289D01*
X44828Y32384D01*
X45506Y32665D01*
X46088Y33112D01*
X46535Y33694D01*
X46816Y34372D01*
X46911Y35100D01*
Y36542D01*
X46911Y36542D01*
X46816Y37270D01*
X46535Y37948D01*
X46088Y38530D01*
X46088Y38530D01*
X44459Y40159D01*
X43877Y40606D01*
X43199Y40887D01*
X42471Y40982D01*
X42181Y40944D01*
X41439Y41489D01*
X41381Y41603D01*
X41381Y43031D01*
X41381Y43287D01*
X41415Y43500D01*
X41426Y43550D01*
X41499Y43764D01*
X41946Y44081D01*
X42240Y44119D01*
X42357Y44119D01*
X46367D01*
X47000Y43993D01*
X47768Y44146D01*
X48419Y44581D01*
X48854Y45232D01*
X49007Y46000D01*
X48854Y46768D01*
X48419Y47419D01*
X47768Y47854D01*
X47000Y48007D01*
X46999Y48007D01*
X46381Y48515D01*
Y49881D01*
D02*
G37*
%LPD*%
D11*
X80000Y68724D02*
D03*
Y64000D02*
D03*
Y59276D02*
D03*
Y204138D02*
D03*
Y199413D02*
D03*
Y194689D02*
D03*
Y339551D02*
D03*
Y334827D02*
D03*
Y330102D02*
D03*
Y474965D02*
D03*
Y470240D02*
D03*
Y465516D02*
D03*
D12*
X92000Y24000D02*
D03*
X98000D02*
D03*
X106098Y94387D02*
D03*
X112098D02*
D03*
X112000Y102000D02*
D03*
X106000D02*
D03*
X33000Y29000D02*
D03*
X39000D02*
D03*
X64000Y50200D02*
D03*
X70000D02*
D03*
X57000Y44000D02*
D03*
X51000D02*
D03*
X58000Y50000D02*
D03*
X52000D02*
D03*
X70000Y37000D02*
D03*
X64000D02*
D03*
X129000Y92000D02*
D03*
X123000D02*
D03*
X92000Y159413D02*
D03*
X98000D02*
D03*
X106098Y229801D02*
D03*
X112098D02*
D03*
X112000Y237413D02*
D03*
X106000D02*
D03*
X33000Y164413D02*
D03*
X39000D02*
D03*
X64000Y185613D02*
D03*
X70000D02*
D03*
X57000Y179413D02*
D03*
X51000D02*
D03*
X58000Y185413D02*
D03*
X52000D02*
D03*
X70000Y172413D02*
D03*
X64000D02*
D03*
X129000Y227413D02*
D03*
X123000D02*
D03*
X92000Y294827D02*
D03*
X98000D02*
D03*
X106098Y365214D02*
D03*
X112098D02*
D03*
X112000Y372827D02*
D03*
X106000D02*
D03*
X33000Y299827D02*
D03*
X39000D02*
D03*
X64000Y321027D02*
D03*
X70000D02*
D03*
X57000Y314827D02*
D03*
X51000D02*
D03*
X58000Y320827D02*
D03*
X52000D02*
D03*
X70000Y307827D02*
D03*
X64000D02*
D03*
X129000Y362827D02*
D03*
X123000D02*
D03*
X92000Y430240D02*
D03*
X98000D02*
D03*
X106098Y500628D02*
D03*
X112098D02*
D03*
X112000Y508240D02*
D03*
X106000D02*
D03*
X33000Y435240D02*
D03*
X39000D02*
D03*
X64000Y456440D02*
D03*
X70000D02*
D03*
X57000Y450240D02*
D03*
X51000D02*
D03*
X58000Y456240D02*
D03*
X52000D02*
D03*
X70000Y443240D02*
D03*
X64000D02*
D03*
X129000Y498240D02*
D03*
X123000D02*
D03*
D13*
X46900Y126500D02*
D03*
X26900D02*
D03*
X46900Y261913D02*
D03*
X26900D02*
D03*
X46900Y397327D02*
D03*
X26900D02*
D03*
X46900Y532740D02*
D03*
X26900D02*
D03*
D14*
X14000Y131500D02*
D03*
X121500Y14000D02*
D03*
X14000Y266913D02*
D03*
X121500Y149413D02*
D03*
X14000Y402327D02*
D03*
X121500Y284827D02*
D03*
X14000Y537740D02*
D03*
X121500Y420240D02*
D03*
D15*
X25100Y107500D02*
D03*
Y101500D02*
D03*
X38500Y41000D02*
D03*
Y35000D02*
D03*
X25100Y242913D02*
D03*
Y236913D02*
D03*
X38500Y176413D02*
D03*
Y170413D02*
D03*
X25100Y378327D02*
D03*
Y372327D02*
D03*
X38500Y311827D02*
D03*
Y305827D02*
D03*
X25100Y513740D02*
D03*
Y507740D02*
D03*
X38500Y447240D02*
D03*
Y441240D02*
D03*
D16*
X76500Y92000D02*
X78500Y90000D01*
X66500Y98744D02*
X73520D01*
X24900Y100500D02*
X25900Y101500D01*
X24500Y100900D02*
X24900Y100500D01*
X43379Y95825D02*
X44167Y95038D01*
X46155D01*
X46176Y95016D01*
X54066D01*
X25000Y95616D02*
X27500Y98116D01*
X25000Y89500D02*
Y95616D01*
X34592Y90268D02*
X35512D01*
X28128Y98744D02*
X32265D01*
X25900Y101500D02*
X30000D01*
X28122Y98738D02*
X28128Y98744D01*
X32265D02*
X34917Y96092D01*
X24500Y100900D02*
X25100Y101500D01*
X33213Y101638D02*
Y104787D01*
Y101638D02*
X33350Y101500D01*
X34510Y93500D02*
X35500D01*
X34917Y96092D02*
X39772D01*
X35026Y98744D02*
X38044D01*
X33350Y100420D02*
X35026Y98744D01*
X31431Y93429D02*
X34592Y90268D01*
X38044Y98744D02*
X39650Y100350D01*
X30201Y93429D02*
X31431D01*
X31306Y96703D02*
X34510Y93500D01*
X104200Y63800D02*
X104500Y63500D01*
X68390Y91956D02*
Y92500D01*
X70066Y90280D02*
X71146D01*
X68390Y91956D02*
X70066Y90280D01*
X39772Y96092D02*
X42407Y93457D01*
X43043D01*
X53600Y97900D02*
X54400D01*
X54066Y95016D02*
X58547Y99498D01*
X55398Y98898D02*
Y101500D01*
X54400Y97900D02*
X55398Y98898D01*
X43379Y95825D02*
Y95921D01*
X53682Y54418D02*
X55398Y54498D01*
X53682Y54418D02*
X55466Y52634D01*
X52248Y55852D02*
X53682Y54418D01*
X55466Y52634D02*
X56454D01*
X52248Y55852D02*
Y57012D01*
X55398Y54498D02*
Y57012D01*
X80000Y70000D02*
X81700Y68300D01*
X78500Y70300D02*
X80000D01*
X122000Y93000D02*
X122400Y93400D01*
X33350Y100420D02*
Y101500D01*
X39650Y100350D02*
Y101500D01*
X64846Y100398D02*
X66500Y98744D01*
X95300Y97300D02*
X97900D01*
X100300Y99700D01*
X106200Y97300D02*
X115200D01*
X105400D02*
X106200D01*
X103000Y99700D02*
X105400Y97300D01*
X100300Y99700D02*
X103000D01*
X95833Y100138D02*
X97529Y101833D01*
X58547Y99498D02*
Y101500D01*
X31268Y59768D02*
X33168D01*
X33400Y60000D01*
X93900Y63700D02*
X104100D01*
X104200Y63800D01*
X68390Y79200D02*
X70021Y80831D01*
X68390Y67073D02*
Y79200D01*
X81700Y68300D02*
X83361D01*
X80000Y70000D02*
Y70300D01*
X67600Y92500D02*
X68390D01*
X118300Y89700D02*
X120700D01*
X68232Y59768D02*
X70232D01*
X66800Y61200D02*
X68232Y59768D01*
X43200Y96100D02*
X43379Y95921D01*
X30325Y96703D02*
X31306D01*
X75000Y84000D02*
X78000D01*
X75000Y62432D02*
Y65200D01*
X115200Y97300D02*
X115400Y97100D01*
X120700Y89700D02*
X123000Y92000D01*
X30201Y96579D02*
X30325Y96703D01*
X123400Y99400D02*
X125000Y101000D01*
X121600Y99400D02*
X123400D01*
X112000Y93985D02*
X112402Y94387D01*
X112000Y93985D02*
Y95000D01*
X112098Y94387D02*
X112402D01*
X122000Y93000D02*
X123000Y92000D01*
X67000Y18800D02*
Y28000D01*
X44000Y47000D02*
X45000Y46000D01*
X47000D01*
X61697Y57012D02*
Y58242D01*
X32500Y105500D02*
X33213Y104787D01*
X39787Y101638D02*
Y104787D01*
X39650Y101500D02*
X39787Y101638D01*
X78000Y84000D02*
X78500Y84500D01*
X58547Y55932D02*
X60398Y54081D01*
X58547Y55932D02*
Y57012D01*
X64846Y100398D02*
Y101500D01*
X61500Y101303D02*
X61697Y101500D01*
X60398Y54081D02*
X60419D01*
X77000Y37000D02*
X80000Y40000D01*
X76000Y18000D02*
Y27000D01*
X77000Y28000D01*
X81000Y18000D02*
Y27000D01*
X82000Y28000D01*
X129000Y103000D02*
Y108512D01*
Y92000D02*
Y97488D01*
X125063Y96962D02*
Y97488D01*
X104500Y63500D02*
X105000Y64000D01*
X95400Y57891D02*
X99291Y54000D01*
X105000D01*
X42016Y60961D02*
X43406Y62350D01*
X63667D01*
X68390Y67073D01*
X70021Y80831D02*
X71146D01*
X60419Y54081D02*
X61300Y53200D01*
X118603Y96962D02*
X125063D01*
X112402Y94387D02*
X116028D01*
X118603Y96962D01*
X106098Y94387D02*
Y97198D01*
X106200Y97300D01*
X51200Y13749D02*
Y10600D01*
X49626D01*
X49101Y11125D01*
Y11649D01*
X49626Y12174D01*
X51200D01*
X49626D01*
X49101Y12699D01*
Y13224D01*
X49626Y13749D01*
X51200D01*
X46477D02*
X47527D01*
X48051Y13224D01*
Y11125D01*
X47527Y10600D01*
X46477D01*
X45952Y11125D01*
Y13224D01*
X46477Y13749D01*
X44903D02*
X42804D01*
X43853D01*
Y10600D01*
X76500Y227413D02*
X78500Y225413D01*
X66500Y234157D02*
X73520D01*
X24900Y235913D02*
X25900Y236913D01*
X24500Y236313D02*
X24900Y235913D01*
X43379Y231239D02*
X44167Y230451D01*
X46155D01*
X46176Y230430D01*
X54066D01*
X25000Y231030D02*
X27500Y233530D01*
X25000Y224913D02*
Y231030D01*
X34592Y225682D02*
X35512D01*
X28128Y234157D02*
X32265D01*
X25900Y236913D02*
X30000D01*
X28122Y234151D02*
X28128Y234157D01*
X32265D02*
X34917Y231506D01*
X24500Y236313D02*
X25100Y236913D01*
X33213Y237051D02*
Y240201D01*
Y237051D02*
X33350Y236913D01*
X34510Y228913D02*
X35500D01*
X34917Y231506D02*
X39772D01*
X35026Y234157D02*
X38044D01*
X33350Y235834D02*
X35026Y234157D01*
X31431Y228842D02*
X34592Y225682D01*
X38044Y234157D02*
X39650Y235763D01*
X30201Y228842D02*
X31431D01*
X31306Y232117D02*
X34510Y228913D01*
X104200Y199213D02*
X104500Y198913D01*
X68390Y227369D02*
Y227913D01*
X70066Y225693D02*
X71146D01*
X68390Y227369D02*
X70066Y225693D01*
X39772Y231506D02*
X42407Y228870D01*
X43043D01*
X53600Y233313D02*
X54400D01*
X54066Y230430D02*
X58547Y234911D01*
X55398Y234311D02*
Y236913D01*
X54400Y233313D02*
X55398Y234311D01*
X43379Y231239D02*
Y231334D01*
X53682Y189832D02*
X55398Y189911D01*
X53682Y189832D02*
X55466Y188047D01*
X52248Y191265D02*
X53682Y189832D01*
X55466Y188047D02*
X56454D01*
X52248Y191265D02*
Y192425D01*
X55398Y189911D02*
Y192425D01*
X80000Y205413D02*
X81700Y203713D01*
X78500Y205713D02*
X80000D01*
X122000Y228413D02*
X122400Y228813D01*
X33350Y235834D02*
Y236913D01*
X39650Y235763D02*
Y236913D01*
X64846Y235811D02*
X66500Y234157D01*
X95300Y232713D02*
X97900D01*
X100300Y235113D01*
X106200Y232713D02*
X115200D01*
X105400D02*
X106200D01*
X103000Y235113D02*
X105400Y232713D01*
X100300Y235113D02*
X103000D01*
X95833Y235551D02*
X97529Y237247D01*
X58547Y234911D02*
Y236913D01*
X31268Y195181D02*
X33168D01*
X33400Y195413D01*
X93900Y199113D02*
X104100D01*
X104200Y199213D01*
X68390Y214613D02*
X70021Y216244D01*
X68390Y202486D02*
Y214613D01*
X81700Y203713D02*
X83361D01*
X80000Y205413D02*
Y205713D01*
X67600Y227913D02*
X68390D01*
X118300Y225113D02*
X120700D01*
X68232Y195181D02*
X70232D01*
X66800Y196613D02*
X68232Y195181D01*
X43200Y231513D02*
X43379Y231334D01*
X30325Y232117D02*
X31306D01*
X75000Y219413D02*
X78000D01*
X75000Y197845D02*
Y200613D01*
X115200Y232713D02*
X115400Y232513D01*
X120700Y225113D02*
X123000Y227413D01*
X30201Y231992D02*
X30325Y232117D01*
X123400Y234813D02*
X125000Y236413D01*
X121600Y234813D02*
X123400D01*
X112000Y229398D02*
X112402Y229801D01*
X112000Y229398D02*
Y230413D01*
X112098Y229801D02*
X112402D01*
X122000Y228413D02*
X123000Y227413D01*
X67000Y154213D02*
Y163413D01*
X44000Y182413D02*
X45000Y181413D01*
X47000D01*
X61697Y192425D02*
Y193655D01*
X32500Y240913D02*
X33213Y240201D01*
X39787Y237051D02*
Y240201D01*
X39650Y236913D02*
X39787Y237051D01*
X78000Y219413D02*
X78500Y219913D01*
X58547Y191346D02*
X60398Y189495D01*
X58547Y191346D02*
Y192425D01*
X64846Y235811D02*
Y236913D01*
X61500Y236717D02*
X61697Y236913D01*
X60398Y189495D02*
X60419D01*
X77000Y172413D02*
X80000Y175413D01*
X76000Y153413D02*
Y162413D01*
X77000Y163413D01*
X81000Y153413D02*
Y162413D01*
X82000Y163413D01*
X129000Y238413D02*
Y243925D01*
Y227413D02*
Y232902D01*
X125063Y232376D02*
Y232902D01*
X104500Y198913D02*
X105000Y199413D01*
X95400Y193304D02*
X99291Y189413D01*
X105000D01*
X42016Y196374D02*
X43406Y197764D01*
X63667D01*
X68390Y202486D01*
X70021Y216244D02*
X71146D01*
X60419Y189495D02*
X61300Y188613D01*
X118603Y232376D02*
X125063D01*
X112402Y229801D02*
X116028D01*
X118603Y232376D01*
X106098Y229801D02*
Y232611D01*
X106200Y232713D01*
X51200Y149162D02*
Y146013D01*
X49626D01*
X49101Y146538D01*
Y147063D01*
X49626Y147588D01*
X51200D01*
X49626D01*
X49101Y148112D01*
Y148637D01*
X49626Y149162D01*
X51200D01*
X46477D02*
X47527D01*
X48051Y148637D01*
Y146538D01*
X47527Y146013D01*
X46477D01*
X45952Y146538D01*
Y148637D01*
X46477Y149162D01*
X44903D02*
X42804D01*
X43853D01*
Y146013D01*
X76500Y362827D02*
X78500Y360827D01*
X66500Y369571D02*
X73520D01*
X24900Y371327D02*
X25900Y372327D01*
X24500Y371727D02*
X24900Y371327D01*
X43379Y366652D02*
X44167Y365865D01*
X46155D01*
X46176Y365843D01*
X54066D01*
X25000Y366443D02*
X27500Y368943D01*
X25000Y360327D02*
Y366443D01*
X34592Y361095D02*
X35512D01*
X28128Y369571D02*
X32265D01*
X25900Y372327D02*
X30000D01*
X28122Y369565D02*
X28128Y369571D01*
X32265D02*
X34917Y366919D01*
X24500Y371727D02*
X25100Y372327D01*
X33213Y372465D02*
Y375614D01*
Y372465D02*
X33350Y372327D01*
X34510Y364327D02*
X35500D01*
X34917Y366919D02*
X39772D01*
X35026Y369571D02*
X38044D01*
X33350Y371247D02*
X35026Y369571D01*
X31431Y364256D02*
X34592Y361095D01*
X38044Y369571D02*
X39650Y371176D01*
X30201Y364256D02*
X31431D01*
X31306Y367530D02*
X34510Y364327D01*
X104200Y334627D02*
X104500Y334327D01*
X68390Y362783D02*
Y363327D01*
X70066Y361106D02*
X71146D01*
X68390Y362783D02*
X70066Y361106D01*
X39772Y366919D02*
X42407Y364283D01*
X43043D01*
X53600Y368727D02*
X54400D01*
X54066Y365843D02*
X58547Y370324D01*
X55398Y369724D02*
Y372327D01*
X54400Y368727D02*
X55398Y369724D01*
X43379Y366652D02*
Y366747D01*
X53682Y325245D02*
X55398Y325325D01*
X53682Y325245D02*
X55466Y323460D01*
X52248Y326679D02*
X53682Y325245D01*
X55466Y323460D02*
X56454D01*
X52248Y326679D02*
Y327839D01*
X55398Y325325D02*
Y327839D01*
X80000Y340827D02*
X81700Y339127D01*
X78500Y341127D02*
X80000D01*
X122000Y363827D02*
X122400Y364227D01*
X33350Y371247D02*
Y372327D01*
X39650Y371176D02*
Y372327D01*
X64846Y371224D02*
X66500Y369571D01*
X95300Y368127D02*
X97900D01*
X100300Y370527D01*
X106200Y368127D02*
X115200D01*
X105400D02*
X106200D01*
X103000Y370527D02*
X105400Y368127D01*
X100300Y370527D02*
X103000D01*
X95833Y370965D02*
X97529Y372660D01*
X58547Y370324D02*
Y372327D01*
X31268Y330594D02*
X33168D01*
X33400Y330827D01*
X93900Y334527D02*
X104100D01*
X104200Y334627D01*
X68390Y350027D02*
X70021Y351658D01*
X68390Y337900D02*
Y350027D01*
X81700Y339127D02*
X83361D01*
X80000Y340827D02*
Y341127D01*
X67600Y363327D02*
X68390D01*
X118300Y360527D02*
X120700D01*
X68232Y330594D02*
X70232D01*
X66800Y332027D02*
X68232Y330594D01*
X43200Y366927D02*
X43379Y366747D01*
X30325Y367530D02*
X31306D01*
X75000Y354827D02*
X78000D01*
X75000Y333258D02*
Y336027D01*
X115200Y368127D02*
X115400Y367927D01*
X120700Y360527D02*
X123000Y362827D01*
X30201Y367406D02*
X30325Y367530D01*
X123400Y370227D02*
X125000Y371827D01*
X121600Y370227D02*
X123400D01*
X112000Y364812D02*
X112402Y365214D01*
X112000Y364812D02*
Y365827D01*
X112098Y365214D02*
X112402D01*
X122000Y363827D02*
X123000Y362827D01*
X67000Y289627D02*
Y298827D01*
X44000Y317827D02*
X45000Y316827D01*
X47000D01*
X61697Y327839D02*
Y329069D01*
X32500Y376327D02*
X33213Y375614D01*
X39787Y372465D02*
Y375614D01*
X39650Y372327D02*
X39787Y372465D01*
X78000Y354827D02*
X78500Y355327D01*
X58547Y326759D02*
X60398Y324908D01*
X58547Y326759D02*
Y327839D01*
X64846Y371224D02*
Y372327D01*
X61500Y372130D02*
X61697Y372327D01*
X60398Y324908D02*
X60419D01*
X77000Y307827D02*
X80000Y310827D01*
X76000Y288827D02*
Y297827D01*
X77000Y298827D01*
X81000Y288827D02*
Y297827D01*
X82000Y298827D01*
X129000Y373827D02*
Y379339D01*
Y362827D02*
Y368315D01*
X125063Y367789D02*
Y368315D01*
X104500Y334327D02*
X105000Y334827D01*
X95400Y328718D02*
X99291Y324827D01*
X105000D01*
X42016Y331787D02*
X43406Y333177D01*
X63667D01*
X68390Y337900D01*
X70021Y351658D02*
X71146D01*
X60419Y324908D02*
X61300Y324027D01*
X118603Y367789D02*
X125063D01*
X112402Y365214D02*
X116028D01*
X118603Y367789D01*
X106098Y365214D02*
Y368024D01*
X106200Y368127D01*
X51200Y284575D02*
Y281427D01*
X49626D01*
X49101Y281952D01*
Y282476D01*
X49626Y283001D01*
X51200D01*
X49626D01*
X49101Y283526D01*
Y284051D01*
X49626Y284575D01*
X51200D01*
X46477D02*
X47527D01*
X48051Y284051D01*
Y281952D01*
X47527Y281427D01*
X46477D01*
X45952Y281952D01*
Y284051D01*
X46477Y284575D01*
X44903D02*
X42804D01*
X43853D01*
Y281427D01*
X76500Y498240D02*
X78500Y496240D01*
X66500Y504984D02*
X73520D01*
X24900Y506740D02*
X25900Y507740D01*
X24500Y507140D02*
X24900Y506740D01*
X43379Y502065D02*
X44167Y501278D01*
X46155D01*
X46176Y501257D01*
X54066D01*
X25000Y501857D02*
X27500Y504356D01*
X25000Y495740D02*
Y501857D01*
X34592Y496509D02*
X35512D01*
X28128Y504984D02*
X32265D01*
X25900Y507740D02*
X30000D01*
X28122Y504978D02*
X28128Y504984D01*
X32265D02*
X34917Y502332D01*
X24500Y507140D02*
X25100Y507740D01*
X33213Y507878D02*
Y511028D01*
Y507878D02*
X33350Y507740D01*
X34510Y499740D02*
X35500D01*
X34917Y502332D02*
X39772D01*
X35026Y504984D02*
X38044D01*
X33350Y506661D02*
X35026Y504984D01*
X31431Y499669D02*
X34592Y496509D01*
X38044Y504984D02*
X39650Y506590D01*
X30201Y499669D02*
X31431D01*
X31306Y502943D02*
X34510Y499740D01*
X104200Y470040D02*
X104500Y469740D01*
X68390Y498196D02*
Y498740D01*
X70066Y496520D02*
X71146D01*
X68390Y498196D02*
X70066Y496520D01*
X39772Y502332D02*
X42407Y499697D01*
X43043D01*
X53600Y504140D02*
X54400D01*
X54066Y501257D02*
X58547Y505738D01*
X55398Y505138D02*
Y507740D01*
X54400Y504140D02*
X55398Y505138D01*
X43379Y502065D02*
Y502161D01*
X53682Y460659D02*
X55398Y460738D01*
X53682Y460659D02*
X55466Y458874D01*
X52248Y462092D02*
X53682Y460659D01*
X55466Y458874D02*
X56454D01*
X52248Y462092D02*
Y463252D01*
X55398Y460738D02*
Y463252D01*
X80000Y476240D02*
X81700Y474540D01*
X78500Y476540D02*
X80000D01*
X122000Y499240D02*
X122400Y499640D01*
X33350Y506661D02*
Y507740D01*
X39650Y506590D02*
Y507740D01*
X64846Y506638D02*
X66500Y504984D01*
X95300Y503540D02*
X97900D01*
X100300Y505940D01*
X106200Y503540D02*
X115200D01*
X105400D02*
X106200D01*
X103000Y505940D02*
X105400Y503540D01*
X100300Y505940D02*
X103000D01*
X95833Y506378D02*
X97529Y508074D01*
X58547Y505738D02*
Y507740D01*
X31268Y466008D02*
X33168D01*
X33400Y466240D01*
X93900Y469940D02*
X104100D01*
X104200Y470040D01*
X68390Y485440D02*
X70021Y487071D01*
X68390Y473313D02*
Y485440D01*
X81700Y474540D02*
X83361D01*
X80000Y476240D02*
Y476540D01*
X67600Y498740D02*
X68390D01*
X118300Y495940D02*
X120700D01*
X68232Y466008D02*
X70232D01*
X66800Y467440D02*
X68232Y466008D01*
X43200Y502340D02*
X43379Y502161D01*
X30325Y502943D02*
X31306D01*
X75000Y490240D02*
X78000D01*
X75000Y468672D02*
Y471440D01*
X115200Y503540D02*
X115400Y503340D01*
X120700Y495940D02*
X123000Y498240D01*
X30201Y502819D02*
X30325Y502943D01*
X123400Y505640D02*
X125000Y507240D01*
X121600Y505640D02*
X123400D01*
X112000Y500225D02*
X112402Y500628D01*
X112000Y500225D02*
Y501240D01*
X112098Y500628D02*
X112402D01*
X122000Y499240D02*
X123000Y498240D01*
X67000Y425040D02*
Y434240D01*
X44000Y453240D02*
X45000Y452240D01*
X47000D01*
X61697Y463252D02*
Y464482D01*
X32500Y511740D02*
X33213Y511028D01*
X39787Y507878D02*
Y511028D01*
X39650Y507740D02*
X39787Y507878D01*
X78000Y490240D02*
X78500Y490740D01*
X58547Y462172D02*
X60398Y460321D01*
X58547Y462172D02*
Y463252D01*
X64846Y506638D02*
Y507740D01*
X61500Y507543D02*
X61697Y507740D01*
X60398Y460321D02*
X60419D01*
X77000Y443240D02*
X80000Y446240D01*
X76000Y424240D02*
Y433240D01*
X77000Y434240D01*
X81000Y424240D02*
Y433240D01*
X82000Y434240D01*
X129000Y509240D02*
Y514752D01*
Y498240D02*
Y503728D01*
X125063Y503202D02*
Y503728D01*
X104500Y469740D02*
X105000Y470240D01*
X95400Y464131D02*
X99291Y460240D01*
X105000D01*
X42016Y467201D02*
X43406Y468591D01*
X63667D01*
X68390Y473313D01*
X70021Y487071D02*
X71146D01*
X60419Y460321D02*
X61300Y459440D01*
X118603Y503202D02*
X125063D01*
X112402Y500628D02*
X116028D01*
X118603Y503202D01*
X106098Y500628D02*
Y503438D01*
X106200Y503540D01*
X51200Y419989D02*
Y416840D01*
X49626D01*
X49101Y417365D01*
Y417890D01*
X49626Y418414D01*
X51200D01*
X49626D01*
X49101Y418939D01*
Y419464D01*
X49626Y419989D01*
X51200D01*
X46477D02*
X47527D01*
X48051Y419464D01*
Y417365D01*
X47527Y416840D01*
X46477D01*
X45952Y417365D01*
Y419464D01*
X46477Y419989D01*
X44903D02*
X42804D01*
X43853D01*
Y416840D01*
D17*
X66809Y80959D02*
X69662Y83813D01*
X66809Y67728D02*
Y80959D01*
X65232Y91519D02*
X67500Y89250D01*
X69662Y83813D02*
X70978D01*
X67500Y85000D02*
Y89250D01*
X85106Y95000D02*
X90737Y89368D01*
X75500Y95000D02*
X85106D01*
X73908Y93408D02*
X75500Y95000D01*
X71524Y96957D02*
X85394D01*
X74561Y98544D02*
X91877D01*
X74361Y98744D02*
X74561Y98544D01*
X75219Y100131D02*
X95827D01*
X74750Y100600D02*
X75219Y100131D01*
X85394Y96957D02*
X91395Y90956D01*
X68896Y100600D02*
X74750D01*
X73908Y88803D02*
Y93408D01*
X73520Y98744D02*
X74361D01*
X91877Y98544D02*
X93121Y97300D01*
X71146Y96579D02*
X71524Y96957D01*
X95827Y100131D02*
X95833Y100138D01*
X72234Y87130D02*
X73908Y88803D01*
X71146Y87130D02*
X72234D01*
X69968Y93429D02*
Y93481D01*
X65232Y91519D02*
Y93481D01*
X66619Y94868D01*
X68581D01*
X69968Y93481D01*
Y93429D02*
X71146D01*
X45522Y93435D02*
X54721D01*
X61500Y100215D01*
X45500Y93457D02*
X45522Y93435D01*
X35512Y85988D02*
X35962D01*
X27369Y86119D02*
Y88536D01*
X24750Y83500D02*
X27369Y86119D01*
Y88536D02*
X29112Y90280D01*
X35512Y86500D02*
Y86512D01*
X34000Y67500D02*
Y81500D01*
X33012D02*
X34000D01*
X35962Y85988D02*
X37189Y84761D01*
X22213Y82687D02*
Y110963D01*
Y82687D02*
X23768Y81132D01*
X20625Y82030D02*
X23111Y79544D01*
X20625Y82030D02*
Y112725D01*
X18957Y81454D02*
Y120043D01*
Y81454D02*
X22729Y77681D01*
X23768Y81132D02*
X25981D01*
X23111Y79544D02*
X26639D01*
X22729Y77681D02*
X30201D01*
X20625Y112725D02*
X21400Y113500D01*
X22213Y110963D02*
X23768Y112519D01*
X32963Y81451D02*
Y85456D01*
X34000Y67500D02*
X34500Y67000D01*
X32963Y81451D02*
X33012Y81500D01*
X27500Y98116D02*
X28122Y98738D01*
X29112Y90280D02*
X30201D01*
X31782Y86637D02*
X32963Y85456D01*
X31376Y86637D02*
X31782D01*
X27231Y74532D02*
X30201D01*
X16700Y64000D02*
X27231Y74532D01*
X26782Y71382D02*
X30201D01*
X20500Y65100D02*
X26782Y71382D01*
X43043Y93457D02*
X45500D01*
X46000Y92957D01*
Y85522D02*
Y92957D01*
X45239Y84761D02*
X46000Y85522D01*
X37189Y84761D02*
X45239D01*
X30883Y87130D02*
X31376Y86637D01*
X30201Y87130D02*
X30883D01*
X26639Y79544D02*
X27925Y80831D01*
X25981Y81132D02*
X27369Y82519D01*
Y82908D02*
X27860Y83400D01*
X27369Y82519D02*
Y82908D01*
X27925Y80831D02*
X30201D01*
X104987Y102087D02*
X106000Y103100D01*
X67996Y101500D02*
X68896Y100600D01*
X99463Y94613D02*
X101113D01*
X99463Y91037D02*
Y94000D01*
X63012Y63932D02*
X66809Y67728D01*
X93121Y97300D02*
X95300D01*
X97783Y102087D02*
X104987D01*
X97529Y101833D02*
X97783Y102087D01*
X91395Y90956D02*
X96963D01*
X61500Y100215D02*
Y101303D01*
X25283Y65083D02*
X30201D01*
X24100Y63900D02*
X25283Y65083D01*
X24100Y54800D02*
Y63900D01*
X26032Y68232D02*
X30201D01*
X22400Y64600D02*
X26032Y68232D01*
X22400Y55832D02*
Y64600D01*
X20500Y59501D02*
Y65100D01*
X96921Y94000D02*
X99463D01*
X15000Y124000D02*
X18957Y120043D01*
X70978Y83813D02*
X71146Y83980D01*
X29621Y83400D02*
X30201Y83980D01*
X27860Y83400D02*
X29621D01*
X75000Y62432D02*
X78500D01*
X71644D02*
X75000D01*
X71146Y61933D02*
X71644Y62432D01*
X78500D02*
Y63500D01*
X22100Y116650D02*
X22250D01*
X23768Y115131D01*
Y112519D02*
Y115131D01*
X15000Y38432D02*
X19334Y42766D01*
Y50034D02*
X24100Y54800D01*
X19334Y42766D02*
Y50034D01*
X15000Y34000D02*
Y38432D01*
Y64000D02*
X16700D01*
X108187Y99113D02*
X113992D01*
X106000Y101300D02*
X108187Y99113D01*
X113992D02*
X115779Y100900D01*
X115800D01*
X101569Y86350D02*
X102650D01*
X105000Y84000D01*
X102563Y87937D02*
X108242D01*
X99463Y91037D02*
X102563Y87937D01*
X90737Y89368D02*
X96306D01*
X99887Y85787D01*
X108242Y87937D02*
X110179Y86000D01*
X15000Y48432D02*
X22400Y55832D01*
X15000Y54000D02*
X20500Y59501D01*
X39648Y61942D02*
Y61942D01*
X38706Y61000D02*
X39648Y61942D01*
X15000Y44000D02*
Y48432D01*
X38500Y61000D02*
X38706D01*
X77681Y77681D02*
X78500Y78500D01*
X71146Y77681D02*
X77681D01*
X82000Y28000D02*
Y36000D01*
X83000Y37000D01*
X106000Y102000D02*
Y103100D01*
Y101300D02*
Y102000D01*
X112000D02*
X113300Y103300D01*
X105000Y84000D02*
X111768Y77232D01*
X123231D02*
X130000Y84000D01*
X99887Y79113D02*
X105000Y74000D01*
X107523Y71477D01*
X127477D01*
X130000Y74000D01*
X111768Y77232D02*
X123231D01*
X39648Y61942D02*
X41638Y63932D01*
X63012D01*
X113300Y103300D02*
X115650D01*
X120861Y108512D02*
X125063D01*
X115650Y103300D02*
X120861Y108512D01*
X96963Y90956D02*
X101569Y86350D01*
X99887Y79113D02*
Y85787D01*
X110179Y86000D02*
X113300D01*
X66809Y216372D02*
X69662Y219226D01*
X66809Y203141D02*
Y216372D01*
X65232Y226932D02*
X67500Y224664D01*
X69662Y219226D02*
X70978D01*
X67500Y220413D02*
Y224664D01*
X85106Y230413D02*
X90737Y224782D01*
X75500Y230413D02*
X85106D01*
X73908Y228821D02*
X75500Y230413D01*
X71524Y232370D02*
X85394D01*
X74561Y233958D02*
X91877D01*
X74361Y234157D02*
X74561Y233958D01*
X75219Y235545D02*
X95827D01*
X74750Y236013D02*
X75219Y235545D01*
X85394Y232370D02*
X91395Y226369D01*
X68896Y236013D02*
X74750D01*
X73908Y224217D02*
Y228821D01*
X73520Y234157D02*
X74361D01*
X91877Y233958D02*
X93121Y232713D01*
X71146Y231992D02*
X71524Y232370D01*
X95827Y235545D02*
X95833Y235551D01*
X72234Y222543D02*
X73908Y224217D01*
X71146Y222543D02*
X72234D01*
X69968Y228842D02*
Y228894D01*
X65232Y226932D02*
Y228894D01*
X66619Y230282D01*
X68581D01*
X69968Y228894D01*
Y228842D02*
X71146D01*
X45522Y228849D02*
X54721D01*
X61500Y235628D01*
X45500Y228870D02*
X45522Y228849D01*
X35512Y221402D02*
X35962D01*
X27369Y221532D02*
Y223949D01*
X24750Y218913D02*
X27369Y221532D01*
Y223949D02*
X29112Y225693D01*
X35512Y221913D02*
Y221925D01*
X34000Y202913D02*
Y216913D01*
X33012D02*
X34000D01*
X35962Y221402D02*
X37189Y220175D01*
X22213Y218101D02*
Y246376D01*
Y218101D02*
X23768Y216545D01*
X20625Y217443D02*
X23111Y214957D01*
X20625Y217443D02*
Y248139D01*
X18957Y216867D02*
Y255457D01*
Y216867D02*
X22729Y213094D01*
X23768Y216545D02*
X25981D01*
X23111Y214957D02*
X26639D01*
X22729Y213094D02*
X30201D01*
X20625Y248139D02*
X21400Y248913D01*
X22213Y246376D02*
X23768Y247932D01*
X32963Y216865D02*
Y220870D01*
X34000Y202913D02*
X34500Y202413D01*
X32963Y216865D02*
X33012Y216913D01*
X27500Y233530D02*
X28122Y234151D01*
X29112Y225693D02*
X30201D01*
X31782Y222050D02*
X32963Y220870D01*
X31376Y222050D02*
X31782D01*
X27231Y209945D02*
X30201D01*
X16700Y199414D02*
X27231Y209945D01*
X26782Y206795D02*
X30201D01*
X20500Y200513D02*
X26782Y206795D01*
X43043Y228870D02*
X45500D01*
X46000Y228370D01*
Y220936D02*
Y228370D01*
X45239Y220175D02*
X46000Y220936D01*
X37189Y220175D02*
X45239D01*
X30883Y222543D02*
X31376Y222050D01*
X30201Y222543D02*
X30883D01*
X26639Y214957D02*
X27925Y216244D01*
X25981Y216545D02*
X27369Y217932D01*
Y218322D02*
X27860Y218813D01*
X27369Y217932D02*
Y218322D01*
X27925Y216244D02*
X30201D01*
X104987Y237501D02*
X106000Y238513D01*
X67996Y236913D02*
X68896Y236013D01*
X99463Y230026D02*
X101113D01*
X99463Y226451D02*
Y229413D01*
X63012Y199345D02*
X66809Y203141D01*
X93121Y232713D02*
X95300D01*
X97783Y237501D02*
X104987D01*
X97529Y237247D02*
X97783Y237501D01*
X91395Y226369D02*
X96963D01*
X61500Y235628D02*
Y236717D01*
X25283Y200496D02*
X30201D01*
X24100Y199313D02*
X25283Y200496D01*
X24100Y190213D02*
Y199313D01*
X26032Y203646D02*
X30201D01*
X22400Y200013D02*
X26032Y203646D01*
X22400Y191246D02*
Y200013D01*
X20500Y194914D02*
Y200513D01*
X96921Y229413D02*
X99463D01*
X15000Y259414D02*
X18957Y255457D01*
X70978Y219226D02*
X71146Y219394D01*
X29621Y218813D02*
X30201Y219394D01*
X27860Y218813D02*
X29621D01*
X75000Y197845D02*
X78500D01*
X71644D02*
X75000D01*
X71146Y197346D02*
X71644Y197845D01*
X78500D02*
Y198913D01*
X22100Y252064D02*
X22250D01*
X23768Y250545D01*
Y247932D02*
Y250545D01*
X15000Y173845D02*
X19334Y178180D01*
Y185447D02*
X24100Y190213D01*
X19334Y178180D02*
Y185447D01*
X15000Y169414D02*
Y173845D01*
Y199414D02*
X16700D01*
X108187Y234526D02*
X113992D01*
X106000Y236713D02*
X108187Y234526D01*
X113992D02*
X115779Y236313D01*
X115800D01*
X101569Y221763D02*
X102650D01*
X105000Y219413D01*
X102563Y223351D02*
X108242D01*
X99463Y226451D02*
X102563Y223351D01*
X90737Y224782D02*
X96306D01*
X99887Y221200D01*
X108242Y223351D02*
X110179Y221413D01*
X15000Y183845D02*
X22400Y191246D01*
X15000Y189414D02*
X20500Y194914D01*
X39648Y197355D02*
Y197355D01*
X38706Y196413D02*
X39648Y197355D01*
X15000Y179414D02*
Y183845D01*
X38500Y196413D02*
X38706D01*
X77681Y213094D02*
X78500Y213913D01*
X71146Y213094D02*
X77681D01*
X82000Y163413D02*
Y171413D01*
X83000Y172413D01*
X106000Y237413D02*
Y238513D01*
Y236713D02*
Y237413D01*
X112000D02*
X113300Y238713D01*
X105000Y219413D02*
X111768Y212645D01*
X123231D02*
X130000Y219413D01*
X99887Y214526D02*
X105000Y209413D01*
X107523Y206891D01*
X127477D01*
X130000Y209413D01*
X111768Y212645D02*
X123231D01*
X39648Y197355D02*
X41638Y199345D01*
X63012D01*
X113300Y238713D02*
X115650D01*
X120861Y243925D02*
X125063D01*
X115650Y238713D02*
X120861Y243925D01*
X96963Y226369D02*
X101569Y221763D01*
X99887Y214526D02*
Y221200D01*
X110179Y221413D02*
X113300D01*
X66809Y351786D02*
X69662Y354639D01*
X66809Y338555D02*
Y351786D01*
X65232Y362346D02*
X67500Y360077D01*
X69662Y354639D02*
X70978D01*
X67500Y355827D02*
Y360077D01*
X85106Y365827D02*
X90737Y360195D01*
X75500Y365827D02*
X85106D01*
X73908Y364235D02*
X75500Y365827D01*
X71524Y367783D02*
X85394D01*
X74561Y369371D02*
X91877D01*
X74361Y369571D02*
X74561Y369371D01*
X75219Y370958D02*
X95827D01*
X74750Y371427D02*
X75219Y370958D01*
X85394Y367783D02*
X91395Y361783D01*
X68896Y371427D02*
X74750D01*
X73908Y359630D02*
Y364235D01*
X73520Y369571D02*
X74361D01*
X91877Y369371D02*
X93121Y368127D01*
X71146Y367406D02*
X71524Y367783D01*
X95827Y370958D02*
X95833Y370965D01*
X72234Y357957D02*
X73908Y359630D01*
X71146Y357957D02*
X72234D01*
X69968Y364256D02*
Y364308D01*
X65232Y362346D02*
Y364308D01*
X66619Y365695D01*
X68581D01*
X69968Y364308D01*
Y364256D02*
X71146D01*
X45522Y364262D02*
X54721D01*
X61500Y371041D01*
X45500Y364283D02*
X45522Y364262D01*
X35512Y356815D02*
X35962D01*
X27369Y356946D02*
Y359363D01*
X24750Y354327D02*
X27369Y356946D01*
Y359363D02*
X29112Y361106D01*
X35512Y357327D02*
Y357339D01*
X34000Y338327D02*
Y352327D01*
X33012D02*
X34000D01*
X35962Y356815D02*
X37189Y355588D01*
X22213Y353514D02*
Y381790D01*
Y353514D02*
X23768Y351958D01*
X20625Y352857D02*
X23111Y350371D01*
X20625Y352857D02*
Y383552D01*
X18957Y352280D02*
Y390870D01*
Y352280D02*
X22729Y348508D01*
X23768Y351958D02*
X25981D01*
X23111Y350371D02*
X26639D01*
X22729Y348508D02*
X30201D01*
X20625Y383552D02*
X21400Y384327D01*
X22213Y381790D02*
X23768Y383346D01*
X32963Y352278D02*
Y356283D01*
X34000Y338327D02*
X34500Y337827D01*
X32963Y352278D02*
X33012Y352327D01*
X27500Y368943D02*
X28122Y369565D01*
X29112Y361106D02*
X30201D01*
X31782Y357464D02*
X32963Y356283D01*
X31376Y357464D02*
X31782D01*
X27231Y345358D02*
X30201D01*
X16700Y334827D02*
X27231Y345358D01*
X26782Y342209D02*
X30201D01*
X20500Y335927D02*
X26782Y342209D01*
X43043Y364283D02*
X45500D01*
X46000Y363784D01*
Y356349D02*
Y363784D01*
X45239Y355588D02*
X46000Y356349D01*
X37189Y355588D02*
X45239D01*
X30883Y357957D02*
X31376Y357464D01*
X30201Y357957D02*
X30883D01*
X26639Y350371D02*
X27925Y351658D01*
X25981Y351958D02*
X27369Y353346D01*
Y353735D02*
X27860Y354227D01*
X27369Y353346D02*
Y353735D01*
X27925Y351658D02*
X30201D01*
X104987Y372914D02*
X106000Y373927D01*
X67996Y372327D02*
X68896Y371427D01*
X99463Y365439D02*
X101113D01*
X99463Y361864D02*
Y364827D01*
X63012Y334758D02*
X66809Y338555D01*
X93121Y368127D02*
X95300D01*
X97783Y372914D02*
X104987D01*
X97529Y372660D02*
X97783Y372914D01*
X91395Y361783D02*
X96963D01*
X61500Y371041D02*
Y372130D01*
X25283Y335910D02*
X30201D01*
X24100Y334727D02*
X25283Y335910D01*
X24100Y325627D02*
Y334727D01*
X26032Y339059D02*
X30201D01*
X22400Y335427D02*
X26032Y339059D01*
X22400Y326659D02*
Y335427D01*
X20500Y330328D02*
Y335927D01*
X96921Y364827D02*
X99463D01*
X15000Y394827D02*
X18957Y390870D01*
X70978Y354639D02*
X71146Y354807D01*
X29621Y354227D02*
X30201Y354807D01*
X27860Y354227D02*
X29621D01*
X75000Y333258D02*
X78500D01*
X71644D02*
X75000D01*
X71146Y332760D02*
X71644Y333258D01*
X78500D02*
Y334327D01*
X22100Y387477D02*
X22250D01*
X23768Y385958D01*
Y383346D02*
Y385958D01*
X15000Y309259D02*
X19334Y313593D01*
Y320861D02*
X24100Y325627D01*
X19334Y313593D02*
Y320861D01*
X15000Y304827D02*
Y309259D01*
Y334827D02*
X16700D01*
X108187Y369939D02*
X113992D01*
X106000Y372127D02*
X108187Y369939D01*
X113992D02*
X115779Y371727D01*
X115800D01*
X101569Y357177D02*
X102650D01*
X105000Y354827D01*
X102563Y358764D02*
X108242D01*
X99463Y361864D02*
X102563Y358764D01*
X90737Y360195D02*
X96306D01*
X99887Y356614D01*
X108242Y358764D02*
X110179Y356827D01*
X15000Y319259D02*
X22400Y326659D01*
X15000Y324827D02*
X20500Y330328D01*
X39648Y332769D02*
Y332769D01*
X38706Y331827D02*
X39648Y332769D01*
X15000Y314827D02*
Y319259D01*
X38500Y331827D02*
X38706D01*
X77681Y348508D02*
X78500Y349327D01*
X71146Y348508D02*
X77681D01*
X82000Y298827D02*
Y306827D01*
X83000Y307827D01*
X106000Y372827D02*
Y373927D01*
Y372127D02*
Y372827D01*
X112000D02*
X113300Y374127D01*
X105000Y354827D02*
X111768Y348058D01*
X123231D02*
X130000Y354827D01*
X99887Y349939D02*
X105000Y344827D01*
X107523Y342304D01*
X127477D01*
X130000Y344827D01*
X111768Y348058D02*
X123231D01*
X39648Y332769D02*
X41638Y334758D01*
X63012D01*
X113300Y374127D02*
X115650D01*
X120861Y379339D02*
X125063D01*
X115650Y374127D02*
X120861Y379339D01*
X96963Y361783D02*
X101569Y357177D01*
X99887Y349939D02*
Y356614D01*
X110179Y356827D02*
X113300D01*
X66809Y487199D02*
X69662Y490053D01*
X66809Y473968D02*
Y487199D01*
X65232Y497759D02*
X67500Y495491D01*
X69662Y490053D02*
X70978D01*
X67500Y491240D02*
Y495491D01*
X85106Y501240D02*
X90737Y495609D01*
X75500Y501240D02*
X85106D01*
X73908Y499648D02*
X75500Y501240D01*
X71524Y503197D02*
X85394D01*
X74561Y504784D02*
X91877D01*
X74361Y504984D02*
X74561Y504784D01*
X75219Y506372D02*
X95827D01*
X74750Y506840D02*
X75219Y506372D01*
X85394Y503197D02*
X91395Y497196D01*
X68896Y506840D02*
X74750D01*
X73908Y495044D02*
Y499648D01*
X73520Y504984D02*
X74361D01*
X91877Y504784D02*
X93121Y503540D01*
X71146Y502819D02*
X71524Y503197D01*
X95827Y506372D02*
X95833Y506378D01*
X72234Y493370D02*
X73908Y495044D01*
X71146Y493370D02*
X72234D01*
X69968Y499669D02*
Y499721D01*
X65232Y497759D02*
Y499721D01*
X66619Y501109D01*
X68581D01*
X69968Y499721D01*
Y499669D02*
X71146D01*
X45522Y499675D02*
X54721D01*
X61500Y506455D01*
X45500Y499697D02*
X45522Y499675D01*
X35512Y492228D02*
X35962D01*
X27369Y492359D02*
Y494776D01*
X24750Y489740D02*
X27369Y492359D01*
Y494776D02*
X29112Y496520D01*
X35512Y492740D02*
Y492752D01*
X34000Y473740D02*
Y487740D01*
X33012D02*
X34000D01*
X35962Y492228D02*
X37189Y491001D01*
X22213Y488928D02*
Y517203D01*
Y488928D02*
X23768Y487372D01*
X20625Y488270D02*
X23111Y485784D01*
X20625Y488270D02*
Y518965D01*
X18957Y487694D02*
Y526284D01*
Y487694D02*
X22729Y483921D01*
X23768Y487372D02*
X25981D01*
X23111Y485784D02*
X26639D01*
X22729Y483921D02*
X30201D01*
X20625Y518965D02*
X21400Y519740D01*
X22213Y517203D02*
X23768Y518759D01*
X32963Y487692D02*
Y491697D01*
X34000Y473740D02*
X34500Y473240D01*
X32963Y487692D02*
X33012Y487740D01*
X27500Y504356D02*
X28122Y504978D01*
X29112Y496520D02*
X30201D01*
X31782Y492877D02*
X32963Y491697D01*
X31376Y492877D02*
X31782D01*
X27231Y480772D02*
X30201D01*
X16700Y470241D02*
X27231Y480772D01*
X26782Y477622D02*
X30201D01*
X20500Y471340D02*
X26782Y477622D01*
X43043Y499697D02*
X45500D01*
X46000Y499197D01*
Y491763D02*
Y499197D01*
X45239Y491001D02*
X46000Y491763D01*
X37189Y491001D02*
X45239D01*
X30883Y493370D02*
X31376Y492877D01*
X30201Y493370D02*
X30883D01*
X26639Y485784D02*
X27925Y487071D01*
X25981Y487372D02*
X27369Y488759D01*
Y489149D02*
X27860Y489640D01*
X27369Y488759D02*
Y489149D01*
X27925Y487071D02*
X30201D01*
X104987Y508328D02*
X106000Y509340D01*
X67996Y507740D02*
X68896Y506840D01*
X99463Y500853D02*
X101113D01*
X99463Y497278D02*
Y500240D01*
X63012Y470172D02*
X66809Y473968D01*
X93121Y503540D02*
X95300D01*
X97783Y508328D02*
X104987D01*
X97529Y508074D02*
X97783Y508328D01*
X91395Y497196D02*
X96963D01*
X61500Y506455D02*
Y507543D01*
X25283Y471323D02*
X30201D01*
X24100Y470140D02*
X25283Y471323D01*
X24100Y461040D02*
Y470140D01*
X26032Y474473D02*
X30201D01*
X22400Y470840D02*
X26032Y474473D01*
X22400Y462073D02*
Y470840D01*
X20500Y465741D02*
Y471340D01*
X96921Y500240D02*
X99463D01*
X15000Y530241D02*
X18957Y526284D01*
X70978Y490053D02*
X71146Y490221D01*
X29621Y489640D02*
X30201Y490221D01*
X27860Y489640D02*
X29621D01*
X75000Y468672D02*
X78500D01*
X71644D02*
X75000D01*
X71146Y468173D02*
X71644Y468672D01*
X78500D02*
Y469740D01*
X22100Y522891D02*
X22250D01*
X23768Y521372D01*
Y518759D02*
Y521372D01*
X15000Y444672D02*
X19334Y449006D01*
Y456274D02*
X24100Y461040D01*
X19334Y449006D02*
Y456274D01*
X15000Y440241D02*
Y444672D01*
Y470241D02*
X16700D01*
X108187Y505353D02*
X113992D01*
X106000Y507540D02*
X108187Y505353D01*
X113992D02*
X115779Y507140D01*
X115800D01*
X101569Y492590D02*
X102650D01*
X105000Y490240D01*
X102563Y494178D02*
X108242D01*
X99463Y497278D02*
X102563Y494178D01*
X90737Y495609D02*
X96306D01*
X99887Y492027D01*
X108242Y494178D02*
X110179Y492240D01*
X15000Y454672D02*
X22400Y462073D01*
X15000Y460241D02*
X20500Y465741D01*
X39648Y468182D02*
Y468182D01*
X38706Y467240D02*
X39648Y468182D01*
X15000Y450241D02*
Y454672D01*
X38500Y467240D02*
X38706D01*
X77681Y483921D02*
X78500Y484740D01*
X71146Y483921D02*
X77681D01*
X82000Y434240D02*
Y442240D01*
X83000Y443240D01*
X106000Y508240D02*
Y509340D01*
Y507540D02*
Y508240D01*
X112000D02*
X113300Y509540D01*
X105000Y490240D02*
X111768Y483472D01*
X123231D02*
X130000Y490240D01*
X99887Y485353D02*
X105000Y480240D01*
X107523Y477717D01*
X127477D01*
X130000Y480240D01*
X111768Y483472D02*
X123231D01*
X39648Y468182D02*
X41638Y470172D01*
X63012D01*
X113300Y509540D02*
X115650D01*
X120861Y514752D02*
X125063D01*
X115650Y509540D02*
X120861Y514752D01*
X96963Y497196D02*
X101569Y492590D01*
X99887Y485353D02*
Y492027D01*
X110179Y492240D02*
X113300D01*
D19*
X92500Y93700D02*
X95300D01*
X90817Y95383D02*
X92500Y93700D01*
Y229113D02*
X95300D01*
X90817Y230796D02*
X92500Y229113D01*
Y364527D02*
X95300D01*
X90817Y366210D02*
X92500Y364527D01*
Y499940D02*
X95300D01*
X90817Y501623D02*
X92500Y499940D01*
D20*
X36500Y117000D02*
X38000Y118500D01*
X36500Y105000D02*
Y117000D01*
X42471Y38171D02*
X44100Y36542D01*
Y35100D02*
Y36542D01*
X36500Y252413D02*
X38000Y253913D01*
X36500Y240413D02*
Y252413D01*
X42471Y173584D02*
X44100Y171955D01*
Y170513D02*
Y171955D01*
X36500Y387827D02*
X38000Y389327D01*
X36500Y375827D02*
Y387827D01*
X42471Y308998D02*
X44100Y307369D01*
Y305927D02*
Y307369D01*
X36500Y523240D02*
X38000Y524740D01*
X36500Y511240D02*
Y523240D01*
X42471Y444411D02*
X44100Y442782D01*
Y441340D02*
Y442782D01*
D21*
X90500Y71500D02*
X95325Y76325D01*
X90500Y57600D02*
Y71500D01*
X86400Y53500D02*
X90500Y57600D01*
X88000Y72536D02*
X89500Y74036D01*
X88000Y58635D02*
Y72536D01*
X85365Y56000D02*
X88000Y58635D01*
X100500Y107000D02*
X101000D01*
X101100Y107100D01*
X103150Y110050D02*
X103407D01*
X103757Y109700D02*
X110598D01*
X103407Y110050D02*
X103757Y109700D01*
X101100Y107100D02*
X111576D01*
X113473Y108997D01*
X110598Y109700D02*
X113952Y113053D01*
X89500Y74036D02*
X92632Y77168D01*
X89500Y74036D02*
Y74036D01*
X114894Y113954D02*
Y113996D01*
X113994Y113053D02*
X114894Y113954D01*
X113952Y113053D02*
X113994D01*
X69008Y56000D02*
X80000D01*
Y59276D01*
X66000Y53500D02*
X86400D01*
X80000Y56000D02*
X85365D01*
X95325Y87000D02*
Y87213D01*
Y76325D02*
Y87000D01*
X115128Y114230D02*
Y117150D01*
X114894Y113996D02*
X115128Y114230D01*
X64846Y54654D02*
Y57012D01*
Y54654D02*
X66000Y53500D01*
X117687Y113254D02*
Y117150D01*
X117394Y112918D02*
Y112960D01*
X117687Y113254D01*
X115029Y110553D02*
X117394Y112918D01*
X114987Y110553D02*
X115029D01*
X113473Y108997D02*
Y109039D01*
X114987Y110553D01*
X92606Y77194D02*
Y86569D01*
Y77194D02*
X92632Y77168D01*
X92175Y87000D02*
X92606Y86569D01*
X67996Y57012D02*
X69008Y56000D01*
X90500Y206913D02*
X95325Y211738D01*
X90500Y193013D02*
Y206913D01*
X86400Y188913D02*
X90500Y193013D01*
X88000Y207949D02*
X89500Y209449D01*
X88000Y194049D02*
Y207949D01*
X85365Y191413D02*
X88000Y194049D01*
X100500Y242413D02*
X101000D01*
X101100Y242513D01*
X103150Y245464D02*
X103407D01*
X103757Y245113D02*
X110598D01*
X103407Y245464D02*
X103757Y245113D01*
X101100Y242513D02*
X111576D01*
X113473Y244410D01*
X110598Y245113D02*
X113952Y248467D01*
X89500Y209449D02*
X92632Y212581D01*
X89500Y209449D02*
Y209449D01*
X114894Y249367D02*
Y249409D01*
X113994Y248467D02*
X114894Y249367D01*
X113952Y248467D02*
X113994D01*
X69008Y191413D02*
X80000D01*
Y194689D01*
X66000Y188913D02*
X86400D01*
X80000Y191413D02*
X85365D01*
X95325Y222413D02*
Y222626D01*
Y211738D02*
Y222413D01*
X115128Y249643D02*
Y252563D01*
X114894Y249409D02*
X115128Y249643D01*
X64846Y190067D02*
Y192425D01*
Y190067D02*
X66000Y188913D01*
X117687Y248667D02*
Y252563D01*
X117394Y248332D02*
Y248374D01*
X117687Y248667D01*
X115029Y245967D02*
X117394Y248332D01*
X114987Y245967D02*
X115029D01*
X113473Y244410D02*
Y244453D01*
X114987Y245967D01*
X92606Y212607D02*
Y221982D01*
Y212607D02*
X92632Y212581D01*
X92175Y222413D02*
X92606Y221982D01*
X67996Y192425D02*
X69008Y191413D01*
X90500Y342327D02*
X95325Y347152D01*
X90500Y328427D02*
Y342327D01*
X86400Y324327D02*
X90500Y328427D01*
X88000Y343362D02*
X89500Y344862D01*
X88000Y329462D02*
Y343362D01*
X85365Y326827D02*
X88000Y329462D01*
X100500Y377827D02*
X101000D01*
X101100Y377927D01*
X103150Y380877D02*
X103407D01*
X103757Y380527D02*
X110598D01*
X103407Y380877D02*
X103757Y380527D01*
X101100Y377927D02*
X111576D01*
X113473Y379824D01*
X110598Y380527D02*
X113952Y383880D01*
X89500Y344862D02*
X92632Y347995D01*
X89500Y344862D02*
Y344862D01*
X114894Y384781D02*
Y384823D01*
X113994Y383880D02*
X114894Y384781D01*
X113952Y383880D02*
X113994D01*
X69008Y326827D02*
X80000D01*
Y330102D01*
X66000Y324327D02*
X86400D01*
X80000Y326827D02*
X85365D01*
X95325Y357827D02*
Y358039D01*
Y347152D02*
Y357827D01*
X115128Y385057D02*
Y387976D01*
X114894Y384823D02*
X115128Y385057D01*
X64846Y325480D02*
Y327839D01*
Y325480D02*
X66000Y324327D01*
X117687Y384080D02*
Y387976D01*
X117394Y383745D02*
Y383787D01*
X117687Y384080D01*
X115029Y381380D02*
X117394Y383745D01*
X114987Y381380D02*
X115029D01*
X113473Y379824D02*
Y379866D01*
X114987Y381380D01*
X92606Y348021D02*
Y357396D01*
Y348021D02*
X92632Y347995D01*
X92175Y357827D02*
X92606Y357396D01*
X67996Y327839D02*
X69008Y326827D01*
X90500Y477740D02*
X95325Y482565D01*
X90500Y463840D02*
Y477740D01*
X86400Y459740D02*
X90500Y463840D01*
X88000Y478776D02*
X89500Y480276D01*
X88000Y464876D02*
Y478776D01*
X85365Y462240D02*
X88000Y464876D01*
X100500Y513240D02*
X101000D01*
X101100Y513340D01*
X103150Y516291D02*
X103407D01*
X103757Y515940D02*
X110598D01*
X103407Y516291D02*
X103757Y515940D01*
X101100Y513340D02*
X111576D01*
X113473Y515237D01*
X110598Y515940D02*
X113952Y519293D01*
X89500Y480276D02*
X92632Y483408D01*
X89500Y480276D02*
Y480276D01*
X114894Y520194D02*
Y520236D01*
X113994Y519293D02*
X114894Y520194D01*
X113952Y519293D02*
X113994D01*
X69008Y462240D02*
X80000D01*
Y465516D01*
X66000Y459740D02*
X86400D01*
X80000Y462240D02*
X85365D01*
X95325Y493240D02*
Y493453D01*
Y482565D02*
Y493240D01*
X115128Y520470D02*
Y523390D01*
X114894Y520236D02*
X115128Y520470D01*
X64846Y460894D02*
Y463252D01*
Y460894D02*
X66000Y459740D01*
X117687Y519494D02*
Y523390D01*
X117394Y519158D02*
Y519201D01*
X117687Y519494D01*
X115029Y516793D02*
X117394Y519158D01*
X114987Y516793D02*
X115029D01*
X113473Y515237D02*
Y515279D01*
X114987Y516793D01*
X92606Y483434D02*
Y492809D01*
Y483434D02*
X92632Y483408D01*
X92175Y493240D02*
X92606Y492809D01*
X67996Y463252D02*
X69008Y462240D01*
D22*
X57300Y36300D02*
X59700D01*
X59000Y37000D02*
X64000D01*
X58000Y38000D02*
X59000Y37000D01*
X61300Y53200D02*
X64500Y50000D01*
X64000Y44000D02*
X64528D01*
X69076Y37948D02*
X69087Y37936D01*
X69076Y37948D02*
X69087Y37960D01*
Y39440D01*
X64528Y44000D02*
X69087Y39440D01*
X69064Y37936D02*
X70000Y37000D01*
X69064Y37936D02*
X69087D01*
X56350Y35350D02*
X57300Y36300D01*
X108031Y113577D02*
X108308Y113300D01*
X109500D01*
X89900Y38700D02*
X112000D01*
X89332Y38131D02*
X89900Y38700D01*
X64500Y46309D02*
Y50000D01*
X63332Y45140D02*
X64500Y46309D01*
X98000Y24000D02*
X105000D01*
X123000Y86000D02*
X129000Y92000D01*
X113300Y86000D02*
X123000D01*
X88000Y25500D02*
X90500D01*
X92000Y24000D01*
X57300Y171713D02*
X59700D01*
X59000Y172413D02*
X64000D01*
X58000Y173413D02*
X59000Y172413D01*
X61300Y188613D02*
X64500Y185413D01*
X64000Y179413D02*
X64528D01*
X69076Y173361D02*
X69087Y173350D01*
X69076Y173361D02*
X69087Y173373D01*
Y174854D01*
X64528Y179413D02*
X69087Y174854D01*
X69064Y173350D02*
X70000Y172413D01*
X69064Y173350D02*
X69087D01*
X56350Y170763D02*
X57300Y171713D01*
X108031Y248990D02*
X108308Y248713D01*
X109500D01*
X89900Y174113D02*
X112000D01*
X89332Y173545D02*
X89900Y174113D01*
X64500Y181722D02*
Y185413D01*
X63332Y180554D02*
X64500Y181722D01*
X98000Y159413D02*
X105000D01*
X123000Y221413D02*
X129000Y227413D01*
X113300Y221413D02*
X123000D01*
X88000Y160913D02*
X90500D01*
X92000Y159413D01*
X57300Y307127D02*
X59700D01*
X59000Y307827D02*
X64000D01*
X58000Y308827D02*
X59000Y307827D01*
X61300Y324027D02*
X64500Y320827D01*
X64000Y314827D02*
X64528D01*
X69076Y308775D02*
X69087Y308763D01*
X69076Y308775D02*
X69087Y308787D01*
Y310267D01*
X64528Y314827D02*
X69087Y310267D01*
X69064Y308763D02*
X70000Y307827D01*
X69064Y308763D02*
X69087D01*
X56350Y306177D02*
X57300Y307127D01*
X108031Y384403D02*
X108308Y384127D01*
X109500D01*
X89900Y309527D02*
X112000D01*
X89332Y308958D02*
X89900Y309527D01*
X64500Y317136D02*
Y320827D01*
X63332Y315967D02*
X64500Y317136D01*
X98000Y294827D02*
X105000D01*
X123000Y356827D02*
X129000Y362827D01*
X113300Y356827D02*
X123000D01*
X88000Y296327D02*
X90500D01*
X92000Y294827D01*
X57300Y442540D02*
X59700D01*
X59000Y443240D02*
X64000D01*
X58000Y444240D02*
X59000Y443240D01*
X61300Y459440D02*
X64500Y456240D01*
X64000Y450240D02*
X64528D01*
X69076Y444188D02*
X69087Y444176D01*
X69076Y444188D02*
X69087Y444200D01*
Y445681D01*
X64528Y450240D02*
X69087Y445681D01*
X69064Y444176D02*
X70000Y443240D01*
X69064Y444176D02*
X69087D01*
X56350Y441590D02*
X57300Y442540D01*
X108031Y519817D02*
X108308Y519540D01*
X109500D01*
X89900Y444940D02*
X112000D01*
X89332Y444372D02*
X89900Y444940D01*
X64500Y452549D02*
Y456240D01*
X63332Y451381D02*
X64500Y452549D01*
X98000Y430240D02*
X105000D01*
X123000Y492240D02*
X129000Y498240D01*
X113300Y492240D02*
X123000D01*
X88000Y431740D02*
X90500D01*
X92000Y430240D01*
D23*
X55500Y129500D02*
D03*
X114000Y12000D02*
D03*
X55500Y264913D02*
D03*
X114000Y147413D02*
D03*
X55500Y400327D02*
D03*
X114000Y282827D02*
D03*
X55500Y535740D02*
D03*
X114000Y418240D02*
D03*
D24*
X130000Y84000D02*
D03*
X105000D02*
D03*
X15000Y124000D02*
D03*
X130000Y219413D02*
D03*
X105000D02*
D03*
X15000Y259414D02*
D03*
X130000Y354827D02*
D03*
X105000D02*
D03*
X15000Y394827D02*
D03*
X130000Y490240D02*
D03*
X105000D02*
D03*
X15000Y530241D02*
D03*
D25*
X130000Y64000D02*
D03*
Y54000D02*
D03*
Y74000D02*
D03*
Y44000D02*
D03*
Y34000D02*
D03*
Y24000D02*
D03*
Y14000D02*
D03*
X105000Y64000D02*
D03*
Y54000D02*
D03*
Y74000D02*
D03*
Y44000D02*
D03*
Y34000D02*
D03*
Y24000D02*
D03*
Y14000D02*
D03*
X15000Y114000D02*
D03*
Y104000D02*
D03*
Y74000D02*
D03*
Y94000D02*
D03*
Y84000D02*
D03*
Y64000D02*
D03*
X15000Y24000D02*
D03*
Y14000D02*
D03*
X15000Y54000D02*
D03*
Y44000D02*
D03*
Y34000D02*
D03*
X130000Y199413D02*
D03*
Y189413D02*
D03*
Y209413D02*
D03*
Y179413D02*
D03*
Y169413D02*
D03*
Y159413D02*
D03*
Y149413D02*
D03*
X105000Y199413D02*
D03*
Y189413D02*
D03*
Y209413D02*
D03*
Y179413D02*
D03*
Y169413D02*
D03*
Y159413D02*
D03*
Y149413D02*
D03*
X15000Y249414D02*
D03*
Y239414D02*
D03*
Y209414D02*
D03*
Y229414D02*
D03*
Y219414D02*
D03*
Y199414D02*
D03*
X15000Y159413D02*
D03*
Y149413D02*
D03*
X15000Y189414D02*
D03*
Y179414D02*
D03*
Y169414D02*
D03*
X130000Y334827D02*
D03*
Y324827D02*
D03*
Y344827D02*
D03*
Y314827D02*
D03*
Y304827D02*
D03*
Y294827D02*
D03*
Y284827D02*
D03*
X105000Y334827D02*
D03*
Y324827D02*
D03*
Y344827D02*
D03*
Y314827D02*
D03*
Y304827D02*
D03*
Y294827D02*
D03*
Y284827D02*
D03*
X15000Y384827D02*
D03*
Y374827D02*
D03*
Y344827D02*
D03*
Y364827D02*
D03*
Y354827D02*
D03*
Y334827D02*
D03*
X15000Y294827D02*
D03*
Y284827D02*
D03*
X15000Y324827D02*
D03*
Y314827D02*
D03*
Y304827D02*
D03*
X130000Y470240D02*
D03*
Y460240D02*
D03*
Y480240D02*
D03*
Y450240D02*
D03*
Y440240D02*
D03*
Y430240D02*
D03*
Y420240D02*
D03*
X105000Y470240D02*
D03*
Y460240D02*
D03*
Y480240D02*
D03*
Y450240D02*
D03*
Y440240D02*
D03*
Y430240D02*
D03*
Y420240D02*
D03*
X15000Y520241D02*
D03*
Y510241D02*
D03*
Y480241D02*
D03*
Y500241D02*
D03*
Y490241D02*
D03*
Y470241D02*
D03*
X15000Y430240D02*
D03*
Y420240D02*
D03*
X15000Y460241D02*
D03*
Y450241D02*
D03*
Y440241D02*
D03*
D26*
X77000Y28000D02*
D03*
X72000D02*
D03*
X82000D02*
D03*
X67000D02*
D03*
X77000Y163413D02*
D03*
X72000D02*
D03*
X82000D02*
D03*
X67000D02*
D03*
X77000Y298827D02*
D03*
X72000D02*
D03*
X82000D02*
D03*
X67000D02*
D03*
X77000Y434240D02*
D03*
X72000D02*
D03*
X82000D02*
D03*
X67000D02*
D03*
D27*
X62000Y28000D02*
D03*
Y163413D02*
D03*
Y298827D02*
D03*
Y434240D02*
D03*
D28*
X36900Y118000D02*
D03*
Y253413D02*
D03*
Y388827D02*
D03*
Y524240D02*
D03*
D29*
X103475Y126500D02*
D03*
X131900D02*
D03*
X103475Y261913D02*
D03*
X131900D02*
D03*
X103475Y397327D02*
D03*
X131900D02*
D03*
X103475Y532740D02*
D03*
X131900D02*
D03*
D30*
X67500Y85000D02*
D03*
X76500Y92000D02*
D03*
X123000Y58500D02*
D03*
Y49000D02*
D03*
X111000Y29500D02*
D03*
X122000D02*
D03*
X85000Y13000D02*
D03*
X97500D02*
D03*
X24000Y75000D02*
D03*
X48500Y97500D02*
D03*
X25000Y89500D02*
D03*
X35512Y86500D02*
D03*
X34000Y81500D02*
D03*
X35512Y90268D02*
D03*
X24750Y83500D02*
D03*
X30000Y101500D02*
D03*
X35500Y93500D02*
D03*
X34500Y67000D02*
D03*
X39000Y77000D02*
D03*
X17500Y79000D02*
D03*
X59500Y68000D02*
D03*
X52500Y67500D02*
D03*
X49000Y71000D02*
D03*
Y87500D02*
D03*
X42500Y90500D02*
D03*
Y71000D02*
D03*
X39000Y68000D02*
D03*
X58500Y89000D02*
D03*
X52500Y77500D02*
D03*
X62000D02*
D03*
X62500Y71500D02*
D03*
X53600Y97900D02*
D03*
X42500Y80500D02*
D03*
X43379Y95825D02*
D03*
X90100Y96100D02*
D03*
X52500Y91000D02*
D03*
X100500Y107000D02*
D03*
X103100Y113200D02*
D03*
X100000Y111100D02*
D03*
X100157Y114118D02*
D03*
X103150Y110050D02*
D03*
X107300Y112500D02*
D03*
X109500Y113300D02*
D03*
X84800Y61200D02*
D03*
X93900Y63700D02*
D03*
X83361Y68300D02*
D03*
X67600Y92500D02*
D03*
X118300Y89700D02*
D03*
X74100Y59300D02*
D03*
X66800Y61200D02*
D03*
X27200Y57800D02*
D03*
X15300Y69000D02*
D03*
X74900Y74300D02*
D03*
X75000Y84000D02*
D03*
Y65200D02*
D03*
X22100Y116650D02*
D03*
X21400Y113500D02*
D03*
X130200Y121200D02*
D03*
X95325Y87000D02*
D03*
X92175D02*
D03*
X115400Y97100D02*
D03*
X115800Y100900D02*
D03*
X89332Y38131D02*
D03*
X133200Y89800D02*
D03*
X133400Y78200D02*
D03*
X121300Y82700D02*
D03*
X124500Y82600D02*
D03*
X109300Y90300D02*
D03*
X115900Y44200D02*
D03*
X121600Y99400D02*
D03*
X67000Y18800D02*
D03*
X42800Y116500D02*
D03*
X41800Y113900D02*
D03*
X103500Y120800D02*
D03*
X40500Y111500D02*
D03*
Y108500D02*
D03*
X40700Y105600D02*
D03*
X31200Y116800D02*
D03*
X31700Y114200D02*
D03*
X32200Y111300D02*
D03*
X32500Y108500D02*
D03*
Y105500D02*
D03*
X88000Y78500D02*
D03*
X35000Y63500D02*
D03*
X47000Y46000D02*
D03*
X42016Y60961D02*
D03*
X38500Y61000D02*
D03*
X52000Y32000D02*
D03*
X80000Y40000D02*
D03*
X76000Y18000D02*
D03*
X81000D02*
D03*
X88000Y25500D02*
D03*
Y87500D02*
D03*
X75000Y49000D02*
D03*
X76000Y43000D02*
D03*
X106000Y90400D02*
D03*
X110200Y74500D02*
D03*
X91800Y102500D02*
D03*
X76200D02*
D03*
X95400Y68500D02*
D03*
X124400Y74600D02*
D03*
X125000Y68800D02*
D03*
X112000Y90000D02*
D03*
X121400Y79600D02*
D03*
X110000Y69000D02*
D03*
X110200Y59000D02*
D03*
X108100Y49200D02*
D03*
X122800Y40000D02*
D03*
X95400Y57891D02*
D03*
X95000Y52900D02*
D03*
X95200Y42400D02*
D03*
X87600Y49300D02*
D03*
X112000Y38700D02*
D03*
X99400Y34000D02*
D03*
X93600Y28400D02*
D03*
X84600Y41100D02*
D03*
X84700Y31700D02*
D03*
X48600Y48900D02*
D03*
X34500Y46800D02*
D03*
X20300Y18400D02*
D03*
X30300Y20000D02*
D03*
X38200D02*
D03*
X29700Y35900D02*
D03*
X44100Y35100D02*
D03*
X21600Y131800D02*
D03*
X21500Y119800D02*
D03*
X52300Y132000D02*
D03*
X52100Y127300D02*
D03*
Y120200D02*
D03*
X47600Y116500D02*
D03*
X26800D02*
D03*
X42000Y132200D02*
D03*
X31700Y132300D02*
D03*
X43800Y105600D02*
D03*
X47100D02*
D03*
X50200D02*
D03*
X53500D02*
D03*
X29000Y32300D02*
D03*
X45800Y41500D02*
D03*
X53800Y38400D02*
D03*
X114724Y106244D02*
D03*
X125768Y113728D02*
D03*
X113300Y86000D02*
D03*
X110300Y83200D02*
D03*
X119500Y94500D02*
D03*
X67500Y220413D02*
D03*
X76500Y227413D02*
D03*
X123000Y193913D02*
D03*
Y184413D02*
D03*
X111000Y164913D02*
D03*
X122000D02*
D03*
X85000Y148413D02*
D03*
X97500D02*
D03*
X24000Y210413D02*
D03*
X48500Y232913D02*
D03*
X25000Y224913D02*
D03*
X35512Y221913D02*
D03*
X34000Y216913D02*
D03*
X35512Y225682D02*
D03*
X24750Y218913D02*
D03*
X30000Y236913D02*
D03*
X35500Y228913D02*
D03*
X34500Y202413D02*
D03*
X39000Y212413D02*
D03*
X17500Y214413D02*
D03*
X59500Y203413D02*
D03*
X52500Y202913D02*
D03*
X49000Y206413D02*
D03*
Y222913D02*
D03*
X42500Y225913D02*
D03*
Y206413D02*
D03*
X39000Y203413D02*
D03*
X58500Y224413D02*
D03*
X52500Y212913D02*
D03*
X62000D02*
D03*
X62500Y206913D02*
D03*
X53600Y233313D02*
D03*
X42500Y215913D02*
D03*
X43379Y231239D02*
D03*
X90100Y231513D02*
D03*
X52500Y226413D02*
D03*
X100500Y242413D02*
D03*
X103100Y248613D02*
D03*
X100000Y246513D02*
D03*
X100157Y249532D02*
D03*
X103150Y245464D02*
D03*
X107300Y247913D02*
D03*
X109500Y248713D02*
D03*
X84800Y196613D02*
D03*
X93900Y199113D02*
D03*
X83361Y203713D02*
D03*
X67600Y227913D02*
D03*
X118300Y225113D02*
D03*
X74100Y194713D02*
D03*
X66800Y196613D02*
D03*
X27200Y193213D02*
D03*
X15300Y204413D02*
D03*
X74900Y209713D02*
D03*
X75000Y219413D02*
D03*
Y200613D02*
D03*
X22100Y252064D02*
D03*
X21400Y248913D02*
D03*
X130200Y256613D02*
D03*
X95325Y222413D02*
D03*
X92175D02*
D03*
X115400Y232513D02*
D03*
X115800Y236313D02*
D03*
X89332Y173545D02*
D03*
X133200Y225213D02*
D03*
X133400Y213613D02*
D03*
X121300Y218113D02*
D03*
X124500Y218013D02*
D03*
X109300Y225713D02*
D03*
X115900Y179613D02*
D03*
X121600Y234813D02*
D03*
X67000Y154213D02*
D03*
X42800Y251913D02*
D03*
X41800Y249313D02*
D03*
X103500Y256213D02*
D03*
X40500Y246913D02*
D03*
Y243913D02*
D03*
X40700Y241013D02*
D03*
X31200Y252213D02*
D03*
X31700Y249613D02*
D03*
X32200Y246713D02*
D03*
X32500Y243913D02*
D03*
Y240913D02*
D03*
X88000Y213913D02*
D03*
X35000Y198913D02*
D03*
X47000Y181413D02*
D03*
X42016Y196374D02*
D03*
X38500Y196413D02*
D03*
X52000Y167413D02*
D03*
X80000Y175413D02*
D03*
X76000Y153413D02*
D03*
X81000D02*
D03*
X88000Y160913D02*
D03*
Y222913D02*
D03*
X75000Y184413D02*
D03*
X76000Y178413D02*
D03*
X106000Y225813D02*
D03*
X110200Y209913D02*
D03*
X91800Y237913D02*
D03*
X76200D02*
D03*
X95400Y203913D02*
D03*
X124400Y210013D02*
D03*
X125000Y204213D02*
D03*
X112000Y225413D02*
D03*
X121400Y215013D02*
D03*
X110000Y204413D02*
D03*
X110200Y194413D02*
D03*
X108100Y184613D02*
D03*
X122800Y175413D02*
D03*
X95400Y193304D02*
D03*
X95000Y188313D02*
D03*
X95200Y177813D02*
D03*
X87600Y184713D02*
D03*
X112000Y174113D02*
D03*
X99400Y169413D02*
D03*
X93600Y163813D02*
D03*
X84600Y176513D02*
D03*
X84700Y167113D02*
D03*
X48600Y184313D02*
D03*
X34500Y182213D02*
D03*
X20300Y153813D02*
D03*
X30300Y155413D02*
D03*
X38200D02*
D03*
X29700Y171313D02*
D03*
X44100Y170513D02*
D03*
X21600Y267213D02*
D03*
X21500Y255213D02*
D03*
X52300Y267413D02*
D03*
X52100Y262713D02*
D03*
Y255613D02*
D03*
X47600Y251913D02*
D03*
X26800D02*
D03*
X42000Y267613D02*
D03*
X31700Y267713D02*
D03*
X43800Y241013D02*
D03*
X47100D02*
D03*
X50200D02*
D03*
X53500D02*
D03*
X29000Y167713D02*
D03*
X45800Y176913D02*
D03*
X53800Y173813D02*
D03*
X114724Y241657D02*
D03*
X125768Y249141D02*
D03*
X113300Y221413D02*
D03*
X110300Y218613D02*
D03*
X119500Y229913D02*
D03*
X67500Y355827D02*
D03*
X76500Y362827D02*
D03*
X123000Y329327D02*
D03*
Y319827D02*
D03*
X111000Y300327D02*
D03*
X122000D02*
D03*
X85000Y283827D02*
D03*
X97500D02*
D03*
X24000Y345827D02*
D03*
X48500Y368327D02*
D03*
X25000Y360327D02*
D03*
X35512Y357327D02*
D03*
X34000Y352327D02*
D03*
X35512Y361095D02*
D03*
X24750Y354327D02*
D03*
X30000Y372327D02*
D03*
X35500Y364327D02*
D03*
X34500Y337827D02*
D03*
X39000Y347827D02*
D03*
X17500Y349827D02*
D03*
X59500Y338827D02*
D03*
X52500Y338327D02*
D03*
X49000Y341827D02*
D03*
Y358327D02*
D03*
X42500Y361327D02*
D03*
Y341827D02*
D03*
X39000Y338827D02*
D03*
X58500Y359827D02*
D03*
X52500Y348327D02*
D03*
X62000D02*
D03*
X62500Y342327D02*
D03*
X53600Y368727D02*
D03*
X42500Y351327D02*
D03*
X43379Y366652D02*
D03*
X90100Y366927D02*
D03*
X52500Y361827D02*
D03*
X100500Y377827D02*
D03*
X103100Y384027D02*
D03*
X100000Y381927D02*
D03*
X100157Y384945D02*
D03*
X103150Y380877D02*
D03*
X107300Y383327D02*
D03*
X109500Y384127D02*
D03*
X84800Y332027D02*
D03*
X93900Y334527D02*
D03*
X83361Y339127D02*
D03*
X67600Y363327D02*
D03*
X118300Y360527D02*
D03*
X74100Y330127D02*
D03*
X66800Y332027D02*
D03*
X27200Y328627D02*
D03*
X15300Y339827D02*
D03*
X74900Y345127D02*
D03*
X75000Y354827D02*
D03*
Y336027D02*
D03*
X22100Y387477D02*
D03*
X21400Y384327D02*
D03*
X130200Y392027D02*
D03*
X95325Y357827D02*
D03*
X92175D02*
D03*
X115400Y367927D02*
D03*
X115800Y371727D02*
D03*
X89332Y308958D02*
D03*
X133200Y360627D02*
D03*
X133400Y349027D02*
D03*
X121300Y353527D02*
D03*
X124500Y353427D02*
D03*
X109300Y361127D02*
D03*
X115900Y315027D02*
D03*
X121600Y370227D02*
D03*
X67000Y289627D02*
D03*
X42800Y387327D02*
D03*
X41800Y384727D02*
D03*
X103500Y391627D02*
D03*
X40500Y382327D02*
D03*
Y379327D02*
D03*
X40700Y376427D02*
D03*
X31200Y387627D02*
D03*
X31700Y385027D02*
D03*
X32200Y382127D02*
D03*
X32500Y379327D02*
D03*
Y376327D02*
D03*
X88000Y349327D02*
D03*
X35000Y334327D02*
D03*
X47000Y316827D02*
D03*
X42016Y331787D02*
D03*
X38500Y331827D02*
D03*
X52000Y302827D02*
D03*
X80000Y310827D02*
D03*
X76000Y288827D02*
D03*
X81000D02*
D03*
X88000Y296327D02*
D03*
Y358327D02*
D03*
X75000Y319827D02*
D03*
X76000Y313827D02*
D03*
X106000Y361227D02*
D03*
X110200Y345327D02*
D03*
X91800Y373327D02*
D03*
X76200D02*
D03*
X95400Y339327D02*
D03*
X124400Y345427D02*
D03*
X125000Y339627D02*
D03*
X112000Y360827D02*
D03*
X121400Y350427D02*
D03*
X110000Y339827D02*
D03*
X110200Y329827D02*
D03*
X108100Y320027D02*
D03*
X122800Y310827D02*
D03*
X95400Y328718D02*
D03*
X95000Y323727D02*
D03*
X95200Y313227D02*
D03*
X87600Y320127D02*
D03*
X112000Y309527D02*
D03*
X99400Y304827D02*
D03*
X93600Y299227D02*
D03*
X84600Y311927D02*
D03*
X84700Y302527D02*
D03*
X48600Y319727D02*
D03*
X34500Y317627D02*
D03*
X20300Y289227D02*
D03*
X30300Y290827D02*
D03*
X38200D02*
D03*
X29700Y306727D02*
D03*
X44100Y305927D02*
D03*
X21600Y402627D02*
D03*
X21500Y390627D02*
D03*
X52300Y402827D02*
D03*
X52100Y398127D02*
D03*
Y391027D02*
D03*
X47600Y387327D02*
D03*
X26800D02*
D03*
X42000Y403027D02*
D03*
X31700Y403127D02*
D03*
X43800Y376427D02*
D03*
X47100D02*
D03*
X50200D02*
D03*
X53500D02*
D03*
X29000Y303127D02*
D03*
X45800Y312327D02*
D03*
X53800Y309227D02*
D03*
X114724Y377071D02*
D03*
X125768Y384555D02*
D03*
X113300Y356827D02*
D03*
X110300Y354027D02*
D03*
X119500Y365327D02*
D03*
X67500Y491240D02*
D03*
X76500Y498240D02*
D03*
X123000Y464740D02*
D03*
Y455240D02*
D03*
X111000Y435740D02*
D03*
X122000D02*
D03*
X85000Y419240D02*
D03*
X97500D02*
D03*
X24000Y481240D02*
D03*
X48500Y503740D02*
D03*
X25000Y495740D02*
D03*
X35512Y492740D02*
D03*
X34000Y487740D02*
D03*
X35512Y496509D02*
D03*
X24750Y489740D02*
D03*
X30000Y507740D02*
D03*
X35500Y499740D02*
D03*
X34500Y473240D02*
D03*
X39000Y483240D02*
D03*
X17500Y485240D02*
D03*
X59500Y474240D02*
D03*
X52500Y473740D02*
D03*
X49000Y477240D02*
D03*
Y493740D02*
D03*
X42500Y496740D02*
D03*
Y477240D02*
D03*
X39000Y474240D02*
D03*
X58500Y495240D02*
D03*
X52500Y483740D02*
D03*
X62000D02*
D03*
X62500Y477740D02*
D03*
X53600Y504140D02*
D03*
X42500Y486740D02*
D03*
X43379Y502065D02*
D03*
X90100Y502340D02*
D03*
X52500Y497240D02*
D03*
X100500Y513240D02*
D03*
X103100Y519440D02*
D03*
X100000Y517340D02*
D03*
X100157Y520358D02*
D03*
X103150Y516291D02*
D03*
X107300Y518740D02*
D03*
X109500Y519540D02*
D03*
X84800Y467440D02*
D03*
X93900Y469940D02*
D03*
X83361Y474540D02*
D03*
X67600Y498740D02*
D03*
X118300Y495940D02*
D03*
X74100Y465540D02*
D03*
X66800Y467440D02*
D03*
X27200Y464040D02*
D03*
X15300Y475240D02*
D03*
X74900Y480540D02*
D03*
X75000Y490240D02*
D03*
Y471440D02*
D03*
X22100Y522891D02*
D03*
X21400Y519740D02*
D03*
X130200Y527440D02*
D03*
X95325Y493240D02*
D03*
X92175D02*
D03*
X115400Y503340D02*
D03*
X115800Y507140D02*
D03*
X89332Y444372D02*
D03*
X133200Y496040D02*
D03*
X133400Y484440D02*
D03*
X121300Y488940D02*
D03*
X124500Y488840D02*
D03*
X109300Y496540D02*
D03*
X115900Y450440D02*
D03*
X121600Y505640D02*
D03*
X67000Y425040D02*
D03*
X42800Y522740D02*
D03*
X41800Y520140D02*
D03*
X103500Y527040D02*
D03*
X40500Y517740D02*
D03*
Y514740D02*
D03*
X40700Y511840D02*
D03*
X31200Y523040D02*
D03*
X31700Y520440D02*
D03*
X32200Y517540D02*
D03*
X32500Y514740D02*
D03*
Y511740D02*
D03*
X88000Y484740D02*
D03*
X35000Y469740D02*
D03*
X47000Y452240D02*
D03*
X42016Y467201D02*
D03*
X38500Y467240D02*
D03*
X52000Y438240D02*
D03*
X80000Y446240D02*
D03*
X76000Y424240D02*
D03*
X81000D02*
D03*
X88000Y431740D02*
D03*
Y493740D02*
D03*
X75000Y455240D02*
D03*
X76000Y449240D02*
D03*
X106000Y496640D02*
D03*
X110200Y480740D02*
D03*
X91800Y508740D02*
D03*
X76200D02*
D03*
X95400Y474740D02*
D03*
X124400Y480840D02*
D03*
X125000Y475040D02*
D03*
X112000Y496240D02*
D03*
X121400Y485840D02*
D03*
X110000Y475240D02*
D03*
X110200Y465240D02*
D03*
X108100Y455440D02*
D03*
X122800Y446240D02*
D03*
X95400Y464131D02*
D03*
X95000Y459140D02*
D03*
X95200Y448640D02*
D03*
X87600Y455540D02*
D03*
X112000Y444940D02*
D03*
X99400Y440240D02*
D03*
X93600Y434640D02*
D03*
X84600Y447340D02*
D03*
X84700Y437940D02*
D03*
X48600Y455140D02*
D03*
X34500Y453040D02*
D03*
X20300Y424640D02*
D03*
X30300Y426240D02*
D03*
X38200D02*
D03*
X29700Y442140D02*
D03*
X44100Y441340D02*
D03*
X21600Y538040D02*
D03*
X21500Y526040D02*
D03*
X52300Y538240D02*
D03*
X52100Y533540D02*
D03*
Y526440D02*
D03*
X47600Y522740D02*
D03*
X26800D02*
D03*
X42000Y538440D02*
D03*
X31700Y538540D02*
D03*
X43800Y511840D02*
D03*
X47100D02*
D03*
X50200D02*
D03*
X53500D02*
D03*
X29000Y438540D02*
D03*
X45800Y447740D02*
D03*
X53800Y444640D02*
D03*
X114724Y512484D02*
D03*
X125768Y519968D02*
D03*
X113300Y492240D02*
D03*
X110300Y489440D02*
D03*
X119500Y500740D02*
D03*
D31*
X67996Y57012D02*
D03*
X64846D02*
D03*
X61697D02*
D03*
X58547D02*
D03*
X55398D02*
D03*
X52248D02*
D03*
X49098D02*
D03*
X45949D02*
D03*
X42799D02*
D03*
X39650D02*
D03*
X36500D02*
D03*
X33350D02*
D03*
Y101500D02*
D03*
X36500D02*
D03*
X39650D02*
D03*
X42799D02*
D03*
X45949D02*
D03*
X49098D02*
D03*
X52248D02*
D03*
X55398D02*
D03*
X58547D02*
D03*
X61697D02*
D03*
X64846D02*
D03*
X67996D02*
D03*
Y192425D02*
D03*
X64846D02*
D03*
X61697D02*
D03*
X58547D02*
D03*
X55398D02*
D03*
X52248D02*
D03*
X49098D02*
D03*
X45949D02*
D03*
X42799D02*
D03*
X39650D02*
D03*
X36500D02*
D03*
X33350D02*
D03*
Y236913D02*
D03*
X36500D02*
D03*
X39650D02*
D03*
X42799D02*
D03*
X45949D02*
D03*
X49098D02*
D03*
X52248D02*
D03*
X55398D02*
D03*
X58547D02*
D03*
X61697D02*
D03*
X64846D02*
D03*
X67996D02*
D03*
Y327839D02*
D03*
X64846D02*
D03*
X61697D02*
D03*
X58547D02*
D03*
X55398D02*
D03*
X52248D02*
D03*
X49098D02*
D03*
X45949D02*
D03*
X42799D02*
D03*
X39650D02*
D03*
X36500D02*
D03*
X33350D02*
D03*
Y372327D02*
D03*
X36500D02*
D03*
X39650D02*
D03*
X42799D02*
D03*
X45949D02*
D03*
X49098D02*
D03*
X52248D02*
D03*
X55398D02*
D03*
X58547D02*
D03*
X61697D02*
D03*
X64846D02*
D03*
X67996D02*
D03*
Y463252D02*
D03*
X64846D02*
D03*
X61697D02*
D03*
X58547D02*
D03*
X55398D02*
D03*
X52248D02*
D03*
X49098D02*
D03*
X45949D02*
D03*
X42799D02*
D03*
X39650D02*
D03*
X36500D02*
D03*
X33350D02*
D03*
Y507740D02*
D03*
X36500D02*
D03*
X39650D02*
D03*
X42799D02*
D03*
X45949D02*
D03*
X49098D02*
D03*
X52248D02*
D03*
X55398D02*
D03*
X58547D02*
D03*
X61697D02*
D03*
X64846D02*
D03*
X67996D02*
D03*
D32*
X30201Y61933D02*
D03*
Y65083D02*
D03*
Y68232D02*
D03*
Y71382D02*
D03*
Y74532D02*
D03*
Y77681D02*
D03*
Y80831D02*
D03*
Y83980D02*
D03*
Y87130D02*
D03*
Y90280D02*
D03*
Y93429D02*
D03*
Y96579D02*
D03*
X71146D02*
D03*
Y93429D02*
D03*
Y90280D02*
D03*
Y87130D02*
D03*
Y83980D02*
D03*
Y80831D02*
D03*
Y77681D02*
D03*
Y74532D02*
D03*
Y71382D02*
D03*
Y68232D02*
D03*
Y65083D02*
D03*
Y61933D02*
D03*
X30201Y197346D02*
D03*
Y200496D02*
D03*
Y203646D02*
D03*
Y206795D02*
D03*
Y209945D02*
D03*
Y213094D02*
D03*
Y216244D02*
D03*
Y219394D02*
D03*
Y222543D02*
D03*
Y225693D02*
D03*
Y228842D02*
D03*
Y231992D02*
D03*
X71146D02*
D03*
Y228842D02*
D03*
Y225693D02*
D03*
Y222543D02*
D03*
Y219394D02*
D03*
Y216244D02*
D03*
Y213094D02*
D03*
Y209945D02*
D03*
Y206795D02*
D03*
Y203646D02*
D03*
Y200496D02*
D03*
Y197346D02*
D03*
X30201Y332760D02*
D03*
Y335910D02*
D03*
Y339059D02*
D03*
Y342209D02*
D03*
Y345358D02*
D03*
Y348508D02*
D03*
Y351658D02*
D03*
Y354807D02*
D03*
Y357957D02*
D03*
Y361106D02*
D03*
Y364256D02*
D03*
Y367406D02*
D03*
X71146D02*
D03*
Y364256D02*
D03*
Y361106D02*
D03*
Y357957D02*
D03*
Y354807D02*
D03*
Y351658D02*
D03*
Y348508D02*
D03*
Y345358D02*
D03*
Y342209D02*
D03*
Y339059D02*
D03*
Y335910D02*
D03*
Y332760D02*
D03*
X30201Y468173D02*
D03*
Y471323D02*
D03*
Y474473D02*
D03*
Y477622D02*
D03*
Y480772D02*
D03*
Y483921D02*
D03*
Y487071D02*
D03*
Y490221D02*
D03*
Y493370D02*
D03*
Y496520D02*
D03*
Y499669D02*
D03*
Y502819D02*
D03*
X71146D02*
D03*
Y499669D02*
D03*
Y496520D02*
D03*
Y493370D02*
D03*
Y490221D02*
D03*
Y487071D02*
D03*
Y483921D02*
D03*
Y480772D02*
D03*
Y477622D02*
D03*
Y474473D02*
D03*
Y471323D02*
D03*
Y468173D02*
D03*
D33*
X50673Y79256D02*
D03*
Y89098D02*
D03*
X60515D02*
D03*
Y79256D02*
D03*
Y69413D02*
D03*
X50673D02*
D03*
X40830D02*
D03*
Y79256D02*
D03*
Y89098D02*
D03*
X50673Y214669D02*
D03*
Y224512D02*
D03*
X60515D02*
D03*
Y214669D02*
D03*
Y204826D02*
D03*
X50673D02*
D03*
X40830D02*
D03*
Y214669D02*
D03*
Y224512D02*
D03*
X50673Y350082D02*
D03*
Y359925D02*
D03*
X60515D02*
D03*
Y350082D02*
D03*
Y340240D02*
D03*
X50673D02*
D03*
X40830D02*
D03*
Y350082D02*
D03*
Y359925D02*
D03*
X50673Y485496D02*
D03*
Y495338D02*
D03*
X60515D02*
D03*
Y485496D02*
D03*
Y475653D02*
D03*
X50673D02*
D03*
X40830D02*
D03*
Y485496D02*
D03*
Y495338D02*
D03*
D34*
X77000Y37000D02*
D03*
X83000D02*
D03*
X38000Y47000D02*
D03*
X44000D02*
D03*
X84500Y78500D02*
D03*
X78500D02*
D03*
Y90000D02*
D03*
X84500D02*
D03*
X78500Y84500D02*
D03*
X84500D02*
D03*
X77000Y172413D02*
D03*
X83000D02*
D03*
X38000Y182413D02*
D03*
X44000D02*
D03*
X84500Y213913D02*
D03*
X78500D02*
D03*
Y225413D02*
D03*
X84500D02*
D03*
X78500Y219913D02*
D03*
X84500D02*
D03*
X77000Y307827D02*
D03*
X83000D02*
D03*
X38000Y317827D02*
D03*
X44000D02*
D03*
X84500Y349327D02*
D03*
X78500D02*
D03*
Y360827D02*
D03*
X84500D02*
D03*
X78500Y355327D02*
D03*
X84500D02*
D03*
X77000Y443240D02*
D03*
X83000D02*
D03*
X38000Y453240D02*
D03*
X44000D02*
D03*
X84500Y484740D02*
D03*
X78500D02*
D03*
Y496240D02*
D03*
X84500D02*
D03*
X78500Y490740D02*
D03*
X84500D02*
D03*
D35*
X129000Y103000D02*
D03*
Y238413D02*
D03*
Y373827D02*
D03*
Y509240D02*
D03*
D36*
X132937Y108512D02*
D03*
X129000D02*
D03*
X125063D02*
D03*
X132937Y97488D02*
D03*
X129000D02*
D03*
X125063D02*
D03*
X132937Y243925D02*
D03*
X129000D02*
D03*
X125063D02*
D03*
X132937Y232902D02*
D03*
X129000D02*
D03*
X125063D02*
D03*
X132937Y379339D02*
D03*
X129000D02*
D03*
X125063D02*
D03*
X132937Y368315D02*
D03*
X129000D02*
D03*
X125063D02*
D03*
X132937Y514752D02*
D03*
X129000D02*
D03*
X125063D02*
D03*
X132937Y503728D02*
D03*
X129000D02*
D03*
X125063D02*
D03*
D37*
X32700Y36000D02*
D03*
X25300D02*
D03*
X29000Y46000D02*
D03*
X32700Y171413D02*
D03*
X25300D02*
D03*
X29000Y181413D02*
D03*
X32700Y306827D02*
D03*
X25300D02*
D03*
X29000Y316827D02*
D03*
X32700Y442240D02*
D03*
X25300D02*
D03*
X29000Y452240D02*
D03*
D38*
X25000Y14700D02*
D03*
Y29300D02*
D03*
Y150113D02*
D03*
Y164713D02*
D03*
Y285527D02*
D03*
Y300127D02*
D03*
Y420940D02*
D03*
Y435540D02*
D03*
D39*
X117687Y117150D02*
D03*
X115128D02*
D03*
X120247D02*
D03*
X112569D02*
D03*
X122806D02*
D03*
X117687Y252563D02*
D03*
X115128D02*
D03*
X120247D02*
D03*
X112569D02*
D03*
X122806D02*
D03*
X117687Y387976D02*
D03*
X115128D02*
D03*
X120247D02*
D03*
X112569D02*
D03*
X122806D02*
D03*
X117687Y523390D02*
D03*
X115128D02*
D03*
X120247D02*
D03*
X112569D02*
D03*
X122806D02*
D03*
D40*
X117687Y125536D02*
D03*
Y260949D02*
D03*
Y396362D02*
D03*
Y531776D02*
D03*
D41*
X43100Y128000D02*
D03*
X30550D02*
D03*
X43100Y263413D02*
D03*
X30550D02*
D03*
X43100Y398827D02*
D03*
X30550D02*
D03*
X43100Y534240D02*
D03*
X30550D02*
D03*
D42*
X36800Y121700D02*
D03*
Y257113D02*
D03*
Y392527D02*
D03*
Y527940D02*
D03*
D43*
X36900Y119500D02*
D03*
Y254913D02*
D03*
Y390327D02*
D03*
Y525740D02*
D03*
D44*
X50000Y38000D02*
D03*
X58000D02*
D03*
X72000Y44000D02*
D03*
X64000D02*
D03*
X50000Y173413D02*
D03*
X58000D02*
D03*
X72000Y179413D02*
D03*
X64000D02*
D03*
X50000Y308827D02*
D03*
X58000D02*
D03*
X72000Y314827D02*
D03*
X64000D02*
D03*
X50000Y444240D02*
D03*
X58000D02*
D03*
X72000Y450240D02*
D03*
X64000D02*
D03*
D45*
X95300Y99700D02*
D03*
Y93700D02*
D03*
X100300Y99700D02*
D03*
Y93700D02*
D03*
X95300Y235113D02*
D03*
Y229113D02*
D03*
X100300Y235113D02*
D03*
Y229113D02*
D03*
X95300Y370527D02*
D03*
Y364527D02*
D03*
X100300Y370527D02*
D03*
Y364527D02*
D03*
X95300Y505940D02*
D03*
Y499940D02*
D03*
X100300Y505940D02*
D03*
Y499940D02*
D03*
D46*
X57000Y44000D02*
Y52088D01*
X45100Y24100D02*
X56350Y35350D01*
X57300Y36300D02*
X57832Y36832D01*
X105000Y24000D02*
X130000D01*
X56454Y52634D02*
X57000Y52088D01*
X25000Y24100D02*
X45100D01*
X15000Y24000D02*
X25000D01*
X57000Y179413D02*
Y187501D01*
X45100Y159513D02*
X56350Y170763D01*
X57300Y171713D02*
X57832Y172245D01*
X105000Y159413D02*
X130000D01*
X56454Y188047D02*
X57000Y187501D01*
X25000Y159513D02*
X45100D01*
X15000Y159413D02*
X25000D01*
X57000Y314827D02*
Y322915D01*
X45100Y294927D02*
X56350Y306177D01*
X57300Y307127D02*
X57832Y307658D01*
X105000Y294827D02*
X130000D01*
X56454Y323460D02*
X57000Y322915D01*
X25000Y294927D02*
X45100D01*
X15000Y294827D02*
X25000D01*
X57000Y450240D02*
Y458328D01*
X45100Y430340D02*
X56350Y441590D01*
X57300Y442540D02*
X57832Y443072D01*
X105000Y430240D02*
X130000D01*
X56454Y458874D02*
X57000Y458328D01*
X25000Y430340D02*
X45100D01*
X15000Y430240D02*
X25000D01*
D47*
X122758Y111916D02*
X125364Y114522D01*
X121784Y111916D02*
X125364Y115496D01*
X36500Y101500D02*
Y105000D01*
X125364Y114522D02*
Y115496D01*
X119916Y111916D02*
X121784D01*
X122758D01*
X119916Y111874D02*
Y111916D01*
X119962Y110684D02*
X121526D01*
X122758Y111916D01*
X114724Y106244D02*
X115523D01*
X114724Y106682D02*
X119916Y111874D01*
X114724Y106244D02*
Y106682D01*
X115523Y106244D02*
X119962Y110684D01*
X122758Y247329D02*
X125364Y249935D01*
X121784Y247329D02*
X125364Y250909D01*
X36500Y236913D02*
Y240413D01*
X125364Y249935D02*
Y250909D01*
X119916Y247329D02*
X121784D01*
X122758D01*
X119916Y247287D02*
Y247329D01*
X119962Y246097D02*
X121526D01*
X122758Y247329D01*
X114724Y241657D02*
X115523D01*
X114724Y242096D02*
X119916Y247287D01*
X114724Y241657D02*
Y242096D01*
X115523Y241657D02*
X119962Y246097D01*
X122758Y382743D02*
X125364Y385349D01*
X121784Y382743D02*
X125364Y386322D01*
X36500Y372327D02*
Y375827D01*
X125364Y385349D02*
Y386322D01*
X119916Y382743D02*
X121784D01*
X122758D01*
X119916Y382700D02*
Y382743D01*
X119962Y381510D02*
X121526D01*
X122758Y382743D01*
X114724Y377071D02*
X115523D01*
X114724Y377509D02*
X119916Y382700D01*
X114724Y377071D02*
Y377509D01*
X115523Y377071D02*
X119962Y381510D01*
X122758Y518156D02*
X125364Y520762D01*
X121784Y518156D02*
X125364Y521736D01*
X36500Y507740D02*
Y511240D01*
X125364Y520762D02*
Y521736D01*
X119916Y518156D02*
X121784D01*
X122758D01*
X119916Y518114D02*
Y518156D01*
X119962Y516924D02*
X121526D01*
X122758Y518156D01*
X114724Y512484D02*
X115523D01*
X114724Y512923D02*
X119916Y518114D01*
X114724Y512484D02*
Y512923D01*
X115523Y512484D02*
X119962Y516924D01*
D48*
X112300Y89700D02*
X118300D01*
X112000Y90000D02*
X112300Y89700D01*
X25000Y15700D02*
Y24000D01*
X112300Y225113D02*
X118300D01*
X112000Y225413D02*
X112300Y225113D01*
X25000Y151113D02*
Y159413D01*
X112300Y360527D02*
X118300D01*
X112000Y360827D02*
X112300Y360527D01*
X25000Y286527D02*
Y294827D01*
X112300Y495940D02*
X118300D01*
X112000Y496240D02*
X112300Y495940D01*
X25000Y421940D02*
Y430240D01*
D49*
X38500Y41000D02*
X39000D01*
X32600D02*
X38500D01*
X115900Y44200D02*
X129800D01*
X105200D02*
X115900D01*
X25300Y30600D02*
Y36000D01*
X39000Y41000D02*
X42150Y37850D01*
X29000Y44600D02*
X32600Y41000D01*
X29000Y44600D02*
Y46000D01*
X105000Y64000D02*
X130000D01*
X105000Y54000D02*
X130000D01*
X105000Y34000D02*
X130000D01*
X129800Y44200D02*
X130000Y44000D01*
X105000D02*
X105200Y44200D01*
X25000Y29300D02*
X26600Y27700D01*
X31700D01*
X33000Y29000D01*
X38500Y176413D02*
X39000D01*
X32600D02*
X38500D01*
X115900Y179613D02*
X129800D01*
X105200D02*
X115900D01*
X25300Y166013D02*
Y171413D01*
X39000Y176413D02*
X42150Y173263D01*
X29000Y180013D02*
X32600Y176413D01*
X29000Y180013D02*
Y181413D01*
X105000Y199413D02*
X130000D01*
X105000Y189413D02*
X130000D01*
X105000Y169413D02*
X130000D01*
X129800Y179613D02*
X130000Y179413D01*
X105000D02*
X105200Y179613D01*
X25000Y164713D02*
X26600Y163113D01*
X31700D01*
X33000Y164413D01*
X38500Y311827D02*
X39000D01*
X32600D02*
X38500D01*
X115900Y315027D02*
X129800D01*
X105200D02*
X115900D01*
X25300Y301427D02*
Y306827D01*
X39000Y311827D02*
X42150Y308677D01*
X29000Y315427D02*
X32600Y311827D01*
X29000Y315427D02*
Y316827D01*
X105000Y334827D02*
X130000D01*
X105000Y324827D02*
X130000D01*
X105000Y304827D02*
X130000D01*
X129800Y315027D02*
X130000Y314827D01*
X105000D02*
X105200Y315027D01*
X25000Y300127D02*
X26600Y298527D01*
X31700D01*
X33000Y299827D01*
X38500Y447240D02*
X39000D01*
X32600D02*
X38500D01*
X115900Y450440D02*
X129800D01*
X105200D02*
X115900D01*
X25300Y436840D02*
Y442240D01*
X39000Y447240D02*
X42150Y444090D01*
X29000Y450840D02*
X32600Y447240D01*
X29000Y450840D02*
Y452240D01*
X105000Y470240D02*
X130000D01*
X105000Y460240D02*
X130000D01*
X105000Y440240D02*
X130000D01*
X129800Y450440D02*
X130000Y450240D01*
X105000D02*
X105200Y450440D01*
X25000Y435540D02*
X26600Y433940D01*
X31700D01*
X33000Y435240D01*
D50*
X121300Y94500D02*
X122400Y93400D01*
X119500Y94500D02*
X121300D01*
Y229913D02*
X122400Y228813D01*
X119500Y229913D02*
X121300D01*
Y365327D02*
X122400Y364227D01*
X119500Y365327D02*
X121300D01*
Y500740D02*
X122400Y499640D01*
X119500Y500740D02*
X121300D01*
M02*
