G04*
G04 #@! TF.GenerationSoftware,Altium Limited,Altium Designer,18.1.7 (191)*
G04*
G04 Layer_Color=8421504*
%FSLAX25Y25*%
%MOIN*%
G70*
G01*
G75*
%ADD10R,0.03150X0.03150*%
%ADD13R,0.06000X0.16000*%
%ADD47C,0.01968*%
D10*
X57627Y93367D02*
D03*
X64123D02*
D03*
X57627Y46500D02*
D03*
X64123D02*
D03*
X57627Y84768D02*
D03*
X64123D02*
D03*
X57627Y228781D02*
D03*
X64123D02*
D03*
X57627Y181913D02*
D03*
X64123D02*
D03*
X57627Y220181D02*
D03*
X64123D02*
D03*
X57627Y364194D02*
D03*
X64123D02*
D03*
X57627Y317327D02*
D03*
X64123D02*
D03*
X57627Y355594D02*
D03*
X64123D02*
D03*
X57627Y499608D02*
D03*
X64123D02*
D03*
X57627Y452740D02*
D03*
X64123D02*
D03*
X57627Y491008D02*
D03*
X64123D02*
D03*
D13*
X46900Y126500D02*
D03*
X26900D02*
D03*
X46900Y261913D02*
D03*
X26900D02*
D03*
X46900Y397327D02*
D03*
X26900D02*
D03*
X46900Y532740D02*
D03*
X26900D02*
D03*
D47*
X56484Y129500D02*
G03*
X56484Y129500I-984J0D01*
G01*
X114984Y12000D02*
G03*
X114984Y12000I-984J0D01*
G01*
X56484Y264913D02*
G03*
X56484Y264913I-984J0D01*
G01*
X114984Y147413D02*
G03*
X114984Y147413I-984J0D01*
G01*
X56484Y400327D02*
G03*
X56484Y400327I-984J0D01*
G01*
X114984Y282827D02*
G03*
X114984Y282827I-984J0D01*
G01*
X56484Y535740D02*
G03*
X56484Y535740I-984J0D01*
G01*
X114984Y418240D02*
G03*
X114984Y418240I-984J0D01*
G01*
M02*
