G04*
G04 #@! TF.GenerationSoftware,Altium Limited,Altium Designer,18.1.7 (191)*
G04*
G04 Layer_Color=128*
%FSLAX25Y25*%
%MOIN*%
G70*
G01*
G75*
%ADD12R,0.03000X0.03400*%
%ADD13R,0.06000X0.16000*%
%ADD15R,0.03400X0.03000*%
%ADD31R,0.01968X0.03150*%
%ADD32R,0.03150X0.01968*%
%ADD33R,0.06299X0.06299*%
%ADD34R,0.02400X0.03400*%
G04:AMPARAMS|DCode=36|XSize=15.75mil|YSize=23.62mil|CornerRadius=3.94mil|HoleSize=0mil|Usage=FLASHONLY|Rotation=0.000|XOffset=0mil|YOffset=0mil|HoleType=Round|Shape=RoundedRectangle|*
%AMROUNDEDRECTD36*
21,1,0.01575,0.01575,0,0,0.0*
21,1,0.00787,0.02362,0,0,0.0*
1,1,0.00787,0.00394,-0.00787*
1,1,0.00787,-0.00394,-0.00787*
1,1,0.00787,-0.00394,0.00787*
1,1,0.00787,0.00394,0.00787*
%
%ADD36ROUNDEDRECTD36*%
%ADD37R,0.02400X0.03900*%
%ADD38R,0.02800X0.04800*%
%ADD39R,0.01575X0.05118*%
%ADD41R,0.04200X0.08700*%
%ADD42R,0.04200X0.04200*%
%ADD43R,0.06000X0.10000*%
%ADD44R,0.03900X0.04900*%
%ADD45R,0.03400X0.02400*%
%ADD47C,0.01968*%
%ADD84R,0.03937X0.05512*%
G36*
X121230Y529020D02*
X114144D01*
Y534925D01*
X121230D01*
Y529020D01*
D02*
G37*
G36*
X132648Y522327D02*
X126742D01*
Y524689D01*
X132648D01*
Y522327D01*
D02*
G37*
G36*
X108632D02*
X102726D01*
Y524689D01*
X108632D01*
Y522327D01*
D02*
G37*
G36*
X121230Y393606D02*
X114144D01*
Y399511D01*
X121230D01*
Y393606D01*
D02*
G37*
G36*
X132648Y386913D02*
X126742D01*
Y389275D01*
X132648D01*
Y386913D01*
D02*
G37*
G36*
X108632D02*
X102726D01*
Y389275D01*
X108632D01*
Y386913D01*
D02*
G37*
G36*
X121230Y258193D02*
X114144D01*
Y264098D01*
X121230D01*
Y258193D01*
D02*
G37*
G36*
X132648Y251500D02*
X126742D01*
Y253862D01*
X132648D01*
Y251500D01*
D02*
G37*
G36*
X108632D02*
X102726D01*
Y253862D01*
X108632D01*
Y251500D01*
D02*
G37*
G36*
X121230Y122780D02*
X114144D01*
Y128685D01*
X121230D01*
Y122780D01*
D02*
G37*
G36*
X132648Y116087D02*
X126742D01*
Y118449D01*
X132648D01*
Y116087D01*
D02*
G37*
G36*
X108632D02*
X102726D01*
Y118449D01*
X108632D01*
Y116087D01*
D02*
G37*
D12*
X33000Y29000D02*
D03*
X39000D02*
D03*
X64000Y50200D02*
D03*
X70000D02*
D03*
X57000Y44000D02*
D03*
X51000D02*
D03*
X58000Y50000D02*
D03*
X52000D02*
D03*
X129000Y92000D02*
D03*
X123000D02*
D03*
X33000Y164413D02*
D03*
X39000D02*
D03*
X64000Y185613D02*
D03*
X70000D02*
D03*
X57000Y179413D02*
D03*
X51000D02*
D03*
X58000Y185413D02*
D03*
X52000D02*
D03*
X129000Y227413D02*
D03*
X123000D02*
D03*
X33000Y299827D02*
D03*
X39000D02*
D03*
X64000Y321027D02*
D03*
X70000D02*
D03*
X57000Y314827D02*
D03*
X51000D02*
D03*
X58000Y320827D02*
D03*
X52000D02*
D03*
X129000Y362827D02*
D03*
X123000D02*
D03*
X33000Y435240D02*
D03*
X39000D02*
D03*
X64000Y456440D02*
D03*
X70000D02*
D03*
X57000Y450240D02*
D03*
X51000D02*
D03*
X58000Y456240D02*
D03*
X52000D02*
D03*
X129000Y498240D02*
D03*
X123000D02*
D03*
D13*
X46900Y126500D02*
D03*
X26900D02*
D03*
X46900Y261913D02*
D03*
X26900D02*
D03*
X46900Y397327D02*
D03*
X26900D02*
D03*
X46900Y532740D02*
D03*
X26900D02*
D03*
D15*
X25100Y107500D02*
D03*
Y101500D02*
D03*
X38500Y41000D02*
D03*
Y35000D02*
D03*
X25100Y242913D02*
D03*
Y236913D02*
D03*
X38500Y176413D02*
D03*
Y170413D02*
D03*
X25100Y378327D02*
D03*
Y372327D02*
D03*
X38500Y311827D02*
D03*
Y305827D02*
D03*
X25100Y513740D02*
D03*
Y507740D02*
D03*
X38500Y447240D02*
D03*
Y441240D02*
D03*
D31*
X67996Y57012D02*
D03*
X64846D02*
D03*
X61697D02*
D03*
X58547D02*
D03*
X55398D02*
D03*
X52248D02*
D03*
X49098D02*
D03*
X45949D02*
D03*
X42799D02*
D03*
X39650D02*
D03*
X36500D02*
D03*
X33350D02*
D03*
Y101500D02*
D03*
X36500D02*
D03*
X39650D02*
D03*
X42799D02*
D03*
X45949D02*
D03*
X49098D02*
D03*
X52248D02*
D03*
X55398D02*
D03*
X58547D02*
D03*
X61697D02*
D03*
X64846D02*
D03*
X67996D02*
D03*
Y192425D02*
D03*
X64846D02*
D03*
X61697D02*
D03*
X58547D02*
D03*
X55398D02*
D03*
X52248D02*
D03*
X49098D02*
D03*
X45949D02*
D03*
X42799D02*
D03*
X39650D02*
D03*
X36500D02*
D03*
X33350D02*
D03*
Y236913D02*
D03*
X36500D02*
D03*
X39650D02*
D03*
X42799D02*
D03*
X45949D02*
D03*
X49098D02*
D03*
X52248D02*
D03*
X55398D02*
D03*
X58547D02*
D03*
X61697D02*
D03*
X64846D02*
D03*
X67996D02*
D03*
Y327839D02*
D03*
X64846D02*
D03*
X61697D02*
D03*
X58547D02*
D03*
X55398D02*
D03*
X52248D02*
D03*
X49098D02*
D03*
X45949D02*
D03*
X42799D02*
D03*
X39650D02*
D03*
X36500D02*
D03*
X33350D02*
D03*
Y372327D02*
D03*
X36500D02*
D03*
X39650D02*
D03*
X42799D02*
D03*
X45949D02*
D03*
X49098D02*
D03*
X52248D02*
D03*
X55398D02*
D03*
X58547D02*
D03*
X61697D02*
D03*
X64846D02*
D03*
X67996D02*
D03*
Y463252D02*
D03*
X64846D02*
D03*
X61697D02*
D03*
X58547D02*
D03*
X55398D02*
D03*
X52248D02*
D03*
X49098D02*
D03*
X45949D02*
D03*
X42799D02*
D03*
X39650D02*
D03*
X36500D02*
D03*
X33350D02*
D03*
Y507740D02*
D03*
X36500D02*
D03*
X39650D02*
D03*
X42799D02*
D03*
X45949D02*
D03*
X49098D02*
D03*
X52248D02*
D03*
X55398D02*
D03*
X58547D02*
D03*
X61697D02*
D03*
X64846D02*
D03*
X67996D02*
D03*
D32*
X30201Y61933D02*
D03*
Y65083D02*
D03*
Y68232D02*
D03*
Y71382D02*
D03*
Y74532D02*
D03*
Y77681D02*
D03*
Y80831D02*
D03*
Y83980D02*
D03*
Y87130D02*
D03*
Y90280D02*
D03*
Y93429D02*
D03*
Y96579D02*
D03*
X71146D02*
D03*
Y93429D02*
D03*
Y90280D02*
D03*
Y87130D02*
D03*
Y83980D02*
D03*
Y80831D02*
D03*
Y77681D02*
D03*
Y74532D02*
D03*
Y71382D02*
D03*
Y68232D02*
D03*
Y65083D02*
D03*
Y61933D02*
D03*
X30201Y197346D02*
D03*
Y200496D02*
D03*
Y203646D02*
D03*
Y206795D02*
D03*
Y209945D02*
D03*
Y213094D02*
D03*
Y216244D02*
D03*
Y219394D02*
D03*
Y222543D02*
D03*
Y225693D02*
D03*
Y228842D02*
D03*
Y231992D02*
D03*
X71146D02*
D03*
Y228842D02*
D03*
Y225693D02*
D03*
Y222543D02*
D03*
Y219394D02*
D03*
Y216244D02*
D03*
Y213094D02*
D03*
Y209945D02*
D03*
Y206795D02*
D03*
Y203646D02*
D03*
Y200496D02*
D03*
Y197346D02*
D03*
X30201Y332760D02*
D03*
Y335910D02*
D03*
Y339059D02*
D03*
Y342209D02*
D03*
Y345358D02*
D03*
Y348508D02*
D03*
Y351658D02*
D03*
Y354807D02*
D03*
Y357957D02*
D03*
Y361106D02*
D03*
Y364256D02*
D03*
Y367406D02*
D03*
X71146D02*
D03*
Y364256D02*
D03*
Y361106D02*
D03*
Y357957D02*
D03*
Y354807D02*
D03*
Y351658D02*
D03*
Y348508D02*
D03*
Y345358D02*
D03*
Y342209D02*
D03*
Y339059D02*
D03*
Y335910D02*
D03*
Y332760D02*
D03*
X30201Y468173D02*
D03*
Y471323D02*
D03*
Y474473D02*
D03*
Y477622D02*
D03*
Y480772D02*
D03*
Y483921D02*
D03*
Y487071D02*
D03*
Y490221D02*
D03*
Y493370D02*
D03*
Y496520D02*
D03*
Y499669D02*
D03*
Y502819D02*
D03*
X71146D02*
D03*
Y499669D02*
D03*
Y496520D02*
D03*
Y493370D02*
D03*
Y490221D02*
D03*
Y487071D02*
D03*
Y483921D02*
D03*
Y480772D02*
D03*
Y477622D02*
D03*
Y474473D02*
D03*
Y471323D02*
D03*
Y468173D02*
D03*
D33*
X50673Y79256D02*
D03*
Y89098D02*
D03*
X60515D02*
D03*
Y79256D02*
D03*
Y69413D02*
D03*
X50673D02*
D03*
X40830D02*
D03*
Y79256D02*
D03*
Y89098D02*
D03*
X50673Y214669D02*
D03*
Y224512D02*
D03*
X60515D02*
D03*
Y214669D02*
D03*
Y204826D02*
D03*
X50673D02*
D03*
X40830D02*
D03*
Y214669D02*
D03*
Y224512D02*
D03*
X50673Y350082D02*
D03*
Y359925D02*
D03*
X60515D02*
D03*
Y350082D02*
D03*
Y340240D02*
D03*
X50673D02*
D03*
X40830D02*
D03*
Y350082D02*
D03*
Y359925D02*
D03*
X50673Y485496D02*
D03*
Y495338D02*
D03*
X60515D02*
D03*
Y485496D02*
D03*
Y475653D02*
D03*
X50673D02*
D03*
X40830D02*
D03*
Y485496D02*
D03*
Y495338D02*
D03*
D34*
X77000Y37000D02*
D03*
X83000D02*
D03*
X38000Y47000D02*
D03*
X44000D02*
D03*
X84500Y78500D02*
D03*
X78500D02*
D03*
Y90000D02*
D03*
X84500D02*
D03*
X78500Y84500D02*
D03*
X84500D02*
D03*
X77000Y172413D02*
D03*
X83000D02*
D03*
X38000Y182413D02*
D03*
X44000D02*
D03*
X84500Y213913D02*
D03*
X78500D02*
D03*
Y225413D02*
D03*
X84500D02*
D03*
X78500Y219913D02*
D03*
X84500D02*
D03*
X77000Y307827D02*
D03*
X83000D02*
D03*
X38000Y317827D02*
D03*
X44000D02*
D03*
X84500Y349327D02*
D03*
X78500D02*
D03*
Y360827D02*
D03*
X84500D02*
D03*
X78500Y355327D02*
D03*
X84500D02*
D03*
X77000Y443240D02*
D03*
X83000D02*
D03*
X38000Y453240D02*
D03*
X44000D02*
D03*
X84500Y484740D02*
D03*
X78500D02*
D03*
Y496240D02*
D03*
X84500D02*
D03*
X78500Y490740D02*
D03*
X84500D02*
D03*
D36*
X132937Y108512D02*
D03*
X129000D02*
D03*
X125063D02*
D03*
X132937Y97488D02*
D03*
X129000D02*
D03*
X125063D02*
D03*
X132937Y243925D02*
D03*
X129000D02*
D03*
X125063D02*
D03*
X132937Y232902D02*
D03*
X129000D02*
D03*
X125063D02*
D03*
X132937Y379339D02*
D03*
X129000D02*
D03*
X125063D02*
D03*
X132937Y368315D02*
D03*
X129000D02*
D03*
X125063D02*
D03*
X132937Y514752D02*
D03*
X129000D02*
D03*
X125063D02*
D03*
X132937Y503728D02*
D03*
X129000D02*
D03*
X125063D02*
D03*
D37*
X32700Y36000D02*
D03*
X25300D02*
D03*
X29000Y46000D02*
D03*
X32700Y171413D02*
D03*
X25300D02*
D03*
X29000Y181413D02*
D03*
X32700Y306827D02*
D03*
X25300D02*
D03*
X29000Y316827D02*
D03*
X32700Y442240D02*
D03*
X25300D02*
D03*
X29000Y452240D02*
D03*
D38*
X25000Y14700D02*
D03*
Y29300D02*
D03*
Y150113D02*
D03*
Y164713D02*
D03*
Y285527D02*
D03*
Y300127D02*
D03*
Y420940D02*
D03*
Y435540D02*
D03*
D39*
X117687Y117150D02*
D03*
X115128D02*
D03*
X120247D02*
D03*
X112569D02*
D03*
X122806D02*
D03*
X117687Y252563D02*
D03*
X115128D02*
D03*
X120247D02*
D03*
X112569D02*
D03*
X122806D02*
D03*
X117687Y387976D02*
D03*
X115128D02*
D03*
X120247D02*
D03*
X112569D02*
D03*
X122806D02*
D03*
X117687Y523390D02*
D03*
X115128D02*
D03*
X120247D02*
D03*
X112569D02*
D03*
X122806D02*
D03*
D41*
X43100Y128000D02*
D03*
X30550D02*
D03*
X43100Y263413D02*
D03*
X30550D02*
D03*
X43100Y398827D02*
D03*
X30550D02*
D03*
X43100Y534240D02*
D03*
X30550D02*
D03*
D42*
X36800Y121700D02*
D03*
Y257113D02*
D03*
Y392527D02*
D03*
Y527940D02*
D03*
D43*
X36900Y119500D02*
D03*
Y254913D02*
D03*
Y390327D02*
D03*
Y525740D02*
D03*
D44*
X50000Y38000D02*
D03*
X58000D02*
D03*
X72000Y44000D02*
D03*
X64000D02*
D03*
X50000Y173413D02*
D03*
X58000D02*
D03*
X72000Y179413D02*
D03*
X64000D02*
D03*
X50000Y308827D02*
D03*
X58000D02*
D03*
X72000Y314827D02*
D03*
X64000D02*
D03*
X50000Y444240D02*
D03*
X58000D02*
D03*
X72000Y450240D02*
D03*
X64000D02*
D03*
D45*
X95300Y99700D02*
D03*
Y93700D02*
D03*
X100300Y99700D02*
D03*
Y93700D02*
D03*
X95300Y235113D02*
D03*
Y229113D02*
D03*
X100300Y235113D02*
D03*
Y229113D02*
D03*
X95300Y370527D02*
D03*
Y364527D02*
D03*
X100300Y370527D02*
D03*
Y364527D02*
D03*
X95300Y505940D02*
D03*
Y499940D02*
D03*
X100300Y505940D02*
D03*
Y499940D02*
D03*
D47*
X56484Y129500D02*
G03*
X56484Y129500I-984J0D01*
G01*
X114984Y12000D02*
G03*
X114984Y12000I-984J0D01*
G01*
X56484Y264913D02*
G03*
X56484Y264913I-984J0D01*
G01*
X114984Y147413D02*
G03*
X114984Y147413I-984J0D01*
G01*
X56484Y400327D02*
G03*
X56484Y400327I-984J0D01*
G01*
X114984Y282827D02*
G03*
X114984Y282827I-984J0D01*
G01*
X56484Y535740D02*
G03*
X56484Y535740I-984J0D01*
G01*
X114984Y418240D02*
G03*
X114984Y418240I-984J0D01*
G01*
D84*
X131559Y103000D02*
D03*
X126342Y103000D02*
D03*
X131559Y238414D02*
D03*
X126342Y238414D02*
D03*
X131559Y373827D02*
D03*
X126342Y373827D02*
D03*
X131559Y509240D02*
D03*
X126342Y509240D02*
D03*
M02*
