M48
;Layer_Color=9474304
;FILE_FORMAT=2:5
INCH,LZ
;TYPE=PLATED
T1F00S00C0.01181
T3F00S00C0.02756
T4F00S00C0.03500
T5F00S00C0.04800
%
T01
X0052Y0032
X00538Y00384
X0076Y0043
X008Y004
X00846Y00411
X0089332Y0038131
X00952Y00424
X0095Y00529
X00954Y0057891
X01102Y0059
X01081Y00492
X01159Y00442
X0112Y00387
X0111Y00295
X0122
X01228Y004
X0123Y0049
Y00585
X00876Y00493
X0075Y0049
X00741Y00593
X00847Y00317
X0088Y00255
X00936Y00284
X00994Y0034
X00975Y0013
X0085
X0081Y0018
X0076
X0067Y00188
X00382Y002
X00303
X00203Y00184
X0029Y00323
X00297Y00359
X00441Y00351
X00458Y00415
X0047Y0046
X00486Y00489
X00345Y00468
X00272Y00578
X0035Y00635
X00345Y0067
X0039Y0068
X00425Y0071
X0049
X0039Y0077
X00425Y00805
X0034Y00815
X0035512Y00865
Y0090268
X00355Y00935
X00425Y00905
X0043379Y0095825
X00485Y00975
X00471Y01056
X00502
X00438
X00407
X00405Y01085
Y01115
X00418Y01139
X00428Y01165
X00476
X00312Y01168
X00317Y01142
X00322Y01113
X00325Y01085
Y01055
X003Y01015
X0025Y00895
X002475Y00835
X0024Y0075
X00175Y0079
X00153Y0069
X00385Y0061
X0042016Y0060961
X0049Y00875
X00268Y01165
X00221Y011665
X00215Y01198
X00214Y01135
X00216Y01318
X00317Y01323
X0042Y01322
X00382Y0155413
X00303
X00203Y0153813
X0029Y0167713
X00297Y0171313
X00441Y0170513
X00458Y0176913
X0047Y0181413
X00486Y0184313
X00345Y0182213
X0035Y0198913
X00345Y0202413
X0039Y0203413
X00425Y0206413
X0049
X0039Y0212413
X00425Y0215913
X0042016Y0196374
X00385Y0196413
X00272Y0193213
X0024Y0210413
X00175Y0214413
X00153Y0204413
X00525Y0202913
X00595Y0203413
X00625Y0206913
X0062Y0212913
X00525
X00749Y0209713
X0075Y0200613
X00741Y0194713
X00668Y0196613
X00848
X0083361Y0203713
X00954Y0203913
X00939Y0199113
X00954Y0193304
X0095Y0188313
X00952Y0177813
X0089332Y0173545
X00846Y0176513
X008Y0175413
X0076Y0178413
X0075Y0184413
X00876Y0184713
X00847Y0167113
X0088Y0160913
X00936Y0163813
X00994Y0169413
X0111Y0164913
X0112Y0174113
X01159Y0179613
X01228Y0175413
X0123Y0184413
Y0193913
X0125Y0204213
X01244Y0210013
X01214Y0215013
X01334Y0213613
X01102Y0209913
X011Y0204413
X01102Y0194413
X01081Y0184613
X0122Y0164913
X00975Y0148413
X0085
X0081Y0153413
X0076
X0067Y0154213
X0052Y0167413
X00538Y0173813
X00523Y0132
X00521Y01273
Y01202
X00535Y01056
X00536Y00979
X00525Y0091
X00585Y0089
X00676Y00925
X00675Y0085
X0075Y0084
X00765Y0092
X00762Y01025
X00918
X00901Y00961
X0088Y00875
X0092175Y0087
X0095325
X0106Y00904
X01093Y00903
X0112Y009
X01133Y0086
X01103Y00832
X01102Y00745
X011Y0069
X00954Y00685
X00939Y00637
X00848Y00612
X0083361Y00683
X0075Y00652
X00749Y00743
X00625Y00715
X00595Y0068
X00525Y00675
Y00775
X0062
X00668Y00612
X0088Y00785
X01214Y00796
X01213Y00827
X01245Y00826
X01244Y00746
X0125Y00688
X01334Y00782
X01332Y00898
X01183Y00897
X01195Y00945
X01154Y00971
X01158Y01009
X0114724Y0106244
X01095Y01133
X01073Y01125
X01031Y01132
X010315Y011005
X01Y01111
X0100157Y0114118
X01005Y0107
X01035Y01208
X01302Y01212
X0125768Y0113728
X01216Y00994
X0088Y0213913
Y0222913
X0092175Y0222413
X0095325
X0106Y0225813
X01093Y0225713
X0112Y0225413
X01133Y0221413
X01103Y0218613
X01213Y0218113
X01245Y0218013
X01183Y0225113
X01195Y0229913
X01154Y0232513
X01158Y0236313
X0114724Y0241657
X01095Y0248713
X01073Y0247913
X01031Y0248613
X010315Y0245464
X01Y0246513
X0100157Y0249532
X01005Y0242413
X00918Y0237913
X00901Y0231513
X00765Y0227413
X00676Y0227913
X00675Y0220413
X0075Y0219413
X00762Y0237913
X00535Y0241013
X00536Y0233313
X00525Y0226413
X00585Y0224413
X00521Y0255613
Y0262713
X00523Y0267413
X0052Y0302827
X00538Y0309227
X0076Y0313827
X008Y0310827
X00846Y0311927
X0089332Y0308958
X00952Y0313227
X0095Y0323727
X00954Y0328718
X00939Y0334527
X00954Y0339327
X0083361Y0339127
X00848Y0332027
X00741Y0330127
X0075Y0336027
X00749Y0345127
X0075Y0354827
X00675Y0355827
X00676Y0363327
X00765Y0362827
X0088Y0358327
X0092175Y0357827
X0095325
X0106Y0361227
X01093Y0361127
X0112Y0360827
X01133Y0356827
X01103Y0354027
X01102Y0345327
X011Y0339827
X01102Y0329827
X01081Y0320027
X01159Y0315027
X0112Y0309527
X0111Y0300327
X0122
X01228Y0310827
X0123Y0319827
Y0329327
X0125Y0339627
X01244Y0345427
X01214Y0350427
X01213Y0353527
X01245Y0353427
X01183Y0360527
X01195Y0365327
X01154Y0367927
X01158Y0371727
X01216Y0370227
X01332Y0360627
X01334Y0349027
X0088Y0349327
X00901Y0366927
X00536Y0368727
X00525Y0361827
X00585Y0359827
X0062Y0348327
X00625Y0342327
X00595Y0338827
X00525Y0338327
Y0348327
X00668Y0332027
X0075Y0319827
X00876Y0320127
X00847Y0302527
X0088Y0296327
X00936Y0299227
X00994Y0304827
X00975Y0283827
X0085
X0081Y0288827
X0076
X0067Y0289627
X01035Y0256213
X01302Y0256613
X0125768Y0249141
X01216Y0234813
X01332Y0225213
X0049Y0222913
X00425Y0225913
X0043379Y0231239
X00485Y0232913
X00471Y0241013
X00502
X00438
X00407
X00405Y0243913
Y0246913
X00418Y0249313
X00428Y0251913
X00476
X00312Y0252213
X00317Y0249613
X00322Y0246713
X00325Y0243913
Y0240913
X003Y0236913
X00355Y0228913
X0035512Y0225682
Y0221913
X0034Y0216913
X002475Y0218913
X0025Y0224913
X00214Y0248913
X00221Y0252064
X00215Y0255213
X00268Y0251913
X00216Y0267213
X00317Y0267713
X0042Y0267613
X00382Y0290827
X00303
X00203Y0289227
X0029Y0303127
X00297Y0306727
X00441Y0305927
X00458Y0312327
X0047Y0316827
X00486Y0319727
X00345Y0317627
X0035Y0334327
X00345Y0337827
X0039Y0338827
X00425Y0341827
X0049
X0039Y0347827
X00425Y0351327
X0034Y0352327
X0035512Y0357327
Y0361095
X00355Y0364327
X00425Y0361327
X0043379Y0366652
X00485Y0368327
X0049Y0358327
X0025Y0360327
X002475Y0354327
X0024Y0345827
X00175Y0349827
X00153Y0339827
X00272Y0328627
X00385Y0331827
X0042016Y0331787
X003Y0372327
X00325Y0376327
Y0379327
X00322Y0382127
X00317Y0385027
X00312Y0387627
X00268Y0387327
X00221Y0387477
X00215Y0390627
X00214Y0384327
X00216Y0402627
X00317Y0403127
X0042Y0403027
X00428Y0387327
X00418Y0384727
X00405Y0382327
Y0379327
X00407Y0376427
X00438
X00471
X00502
X00476Y0387327
X00382Y042624
X00303
X00203Y042464
X0029Y043854
X00297Y044214
X00441Y044134
X00458Y044774
X0047Y045224
X00486Y045514
X00345Y045304
X0035Y046974
X00345Y047324
X0039Y047424
X00425Y047724
X0049
X0039Y048324
X00425Y048674
X0034Y048774
X0035512Y049274
Y0496509
X00355Y049974
X00425Y049674
X0043379Y0502065
X00485Y050374
X00471Y051184
X00502
X00438
X00407
X00405Y051474
Y051774
X00418Y052014
X00428Y052274
X00476
X00312Y052304
X00317Y052044
X00322Y051754
X00325Y051474
Y051174
X003Y050774
X0025Y049574
X002475Y048974
X0024Y048124
X00175Y048524
X00153Y047524
X00272Y046404
X00385Y046724
X0042016Y0467201
X0049Y049374
X00268Y052274
X00221Y0522891
X00215Y052604
X00214Y051974
X00521Y052644
X00535Y051184
X00536Y050414
X00525Y049724
X00585Y049524
X00676Y049874
X00675Y049124
X0075Y049024
X00765Y049824
X00762Y050874
X00918
X00901Y050234
X0088Y049374
X0092175Y049324
X0095325
X0106Y049664
X01093Y049654
X0112Y049624
X01133Y049224
X01103Y048944
X01102Y048074
X011Y047524
X01102Y046524
X01081Y045544
X01159Y045044
X0112Y044494
X0111Y043574
X0122
X01228Y044624
X0123Y045524
Y046474
X0125Y047504
X01244Y048084
X01214Y048584
X01213Y048894
X01245Y048884
X01183Y049594
X01195Y050074
X01154Y050334
X01158Y050714
X0114724Y0512484
X01095Y051954
X01073Y051874
X01031Y051944
X010315Y0516291
X01Y051734
X0100157Y0520358
X01005Y051324
X01035Y052704
X01302Y052744
X0125768Y0519968
X01216Y050564
X01332Y049604
X01334Y048444
X0088Y048474
X0083361Y047454
X00848Y046744
X00939Y046994
X00954Y047474
Y0464131
X0095Y045914
X00952Y044864
X0089332Y0444372
X00846Y044734
X008Y044624
X0076Y044924
X0075Y045524
X00741Y046554
X0075Y047144
X00749Y048054
X00625Y047774
X00595Y047424
X00525Y047374
Y048374
X0062
X00668Y046744
X00876Y045554
X00847Y043794
X0088Y043174
X00936Y043464
X00994Y044024
X00975Y041924
X0085
X0081Y042424
X0076
X0067Y042504
X0052Y043824
X00538Y044464
X00523Y0402827
X00521Y0398127
Y0391027
X00535Y0376427
X00762Y0373327
X00918
X01005Y0377827
X01Y0381927
X0100157Y0384945
X01031Y0384027
X010315Y0380877
X01073Y0383327
X01095Y0384127
X0114724Y0377071
X0125768Y0384555
X01302Y0392027
X01035Y0391627
X00521Y053354
X00523Y053824
X0042Y053844
X00317Y053854
X00216Y053804
T03
X0062Y0028
X0067
X0072
X0077
X0082
Y0163413
X0077
X0072
X0067
X0062
Y0298827
X0067
X0072
X0077
X0082
Y043424
X0077
X0072
X0067
X0062
T04
X0105Y0014
Y0024
Y0034
Y0044
Y0054
X013
Y0044
Y0034
Y0024
Y0014
X0015
Y0024
X0015Y0034
Y0044
Y0054
Y0064
Y0074
Y0084
Y0094
Y0104
Y0114
Y0124
X0015Y0149413
Y0159413
X0015Y0169414
Y0179414
Y0189414
Y0199414
Y0209414
X0105Y0209413
Y0199413
Y0189413
Y0179413
Y0169413
Y0159413
Y0149413
X013
Y0159413
Y0169413
Y0179413
Y0189413
Y0199413
Y0209413
Y0084
Y0074
Y0064
X0105
Y0074
Y0084
Y0219413
X013
Y0284827
Y0294827
Y0304827
Y0314827
Y0324827
Y0334827
Y0344827
Y0354827
X0105
Y0344827
Y0334827
Y0324827
Y0314827
Y0304827
Y0294827
Y0284827
X0015
Y0294827
X0015Y0304827
Y0314827
Y0324827
Y0334827
Y0344827
Y0354827
Y0364827
Y0259414
Y0249414
Y0239414
Y0229414
Y0219414
Y0374827
Y0384827
Y0394827
X0015Y042024
Y043024
X0015Y0440241
Y0450241
Y0460241
Y0470241
Y0480241
Y0490241
Y0500241
Y0510241
Y0520241
X0105Y049024
Y048024
Y047024
Y046024
Y045024
Y044024
Y043024
Y042024
X013
Y043024
Y044024
Y045024
Y046024
Y047024
Y048024
Y049024
X0015Y0530241
T05
X00369Y0118
Y0253413
Y0388827
Y052424
M30
