G04*
G04 #@! TF.GenerationSoftware,Altium Limited,Altium Designer,20.2.6 (244)*
G04*
G04 Layer_Color=128*
%FSLAX25Y25*%
%MOIN*%
G70*
G04*
G04 #@! TF.SameCoordinates,A3B400B8-C857-4583-85C6-9FA4B9C7ABCD*
G04*
G04*
G04 #@! TF.FilePolarity,Positive*
G04*
G01*
G75*
%ADD16R,0.03150X0.03150*%
%ADD46R,0.05512X0.04134*%
%ADD47R,0.05610X0.06102*%
%ADD49R,0.07087X0.07480*%
%ADD50R,0.06496X0.05118*%
%ADD51R,0.03937X0.07480*%
%ADD52R,0.04800X0.02800*%
%ADD53R,0.03400X0.03000*%
%ADD54R,0.02400X0.03900*%
G04:AMPARAMS|DCode=56|XSize=15.75mil|YSize=23.62mil|CornerRadius=3.94mil|HoleSize=0mil|Usage=FLASHONLY|Rotation=0.000|XOffset=0mil|YOffset=0mil|HoleType=Round|Shape=RoundedRectangle|*
%AMROUNDEDRECTD56*
21,1,0.01575,0.01575,0,0,0.0*
21,1,0.00787,0.02362,0,0,0.0*
1,1,0.00787,0.00394,-0.00787*
1,1,0.00787,-0.00394,-0.00787*
1,1,0.00787,-0.00394,0.00787*
1,1,0.00787,0.00394,0.00787*
%
%ADD56ROUNDEDRECTD56*%
%ADD57R,0.03000X0.03400*%
%ADD58R,0.01968X0.03150*%
%ADD59R,0.03150X0.01968*%
%ADD60R,0.06299X0.06299*%
%ADD63R,0.03400X0.02400*%
%ADD64R,0.06693X0.05709*%
%ADD65R,0.06693X0.12598*%
G04:AMPARAMS|DCode=66|XSize=30mil|YSize=34mil|CornerRadius=0mil|HoleSize=0mil|Usage=FLASHONLY|Rotation=135.000|XOffset=0mil|YOffset=0mil|HoleType=Round|Shape=Rectangle|*
%AMROTATEDRECTD66*
4,1,4,0.02263,0.00141,-0.00141,-0.02263,-0.02263,-0.00141,0.00141,0.02263,0.02263,0.00141,0.0*
%
%ADD66ROTATEDRECTD66*%

%ADD67R,0.02400X0.03400*%
%ADD96R,0.03937X0.05512*%
%ADD97R,0.01142X0.04803*%
D16*
X71555Y62204D02*
D03*
X78051D02*
D03*
X42788Y16035D02*
D03*
X36292D02*
D03*
X78051Y79134D02*
D03*
X71555D02*
D03*
D46*
X40157Y3839D02*
D03*
X54331D02*
D03*
X40157Y9547D02*
D03*
X54331D02*
D03*
X72441Y3839D02*
D03*
X86614D02*
D03*
X72441Y9547D02*
D03*
X86614D02*
D03*
D47*
X116880Y106535D02*
D03*
X97304D02*
D03*
D49*
X102559Y117441D02*
D03*
D50*
X93789D02*
D03*
X120384D02*
D03*
D51*
X113189D02*
D03*
D52*
X17897Y8079D02*
D03*
X32497D02*
D03*
D53*
X16142Y84130D02*
D03*
Y90130D02*
D03*
X16500Y16500D02*
D03*
Y22500D02*
D03*
X35879Y27625D02*
D03*
Y21625D02*
D03*
D54*
X29916Y15631D02*
D03*
X22516D02*
D03*
X26216Y25631D02*
D03*
D56*
X120385Y100787D02*
D03*
X116448D02*
D03*
X112511D02*
D03*
X120385Y89764D02*
D03*
X116448D02*
D03*
X112511D02*
D03*
D57*
X50500Y33126D02*
D03*
X44500D02*
D03*
X69835Y26174D02*
D03*
X75835D02*
D03*
X43500Y21126D02*
D03*
X49500D02*
D03*
X63052Y26174D02*
D03*
X57052D02*
D03*
X63052Y33126D02*
D03*
X57052D02*
D03*
X44500Y27126D02*
D03*
X50500D02*
D03*
X118500Y84700D02*
D03*
X112500D02*
D03*
D58*
X60496Y40138D02*
D03*
X57346D02*
D03*
X54197D02*
D03*
X51047D02*
D03*
X47898D02*
D03*
X44748D02*
D03*
X41598D02*
D03*
X38449D02*
D03*
X35299D02*
D03*
X32150D02*
D03*
X29000D02*
D03*
X25850D02*
D03*
Y84626D02*
D03*
X29000D02*
D03*
X32150D02*
D03*
X35299D02*
D03*
X38449D02*
D03*
X41598D02*
D03*
X44748D02*
D03*
X47898D02*
D03*
X51047D02*
D03*
X54197D02*
D03*
X57346D02*
D03*
X60496D02*
D03*
D59*
X22701Y45059D02*
D03*
Y48209D02*
D03*
Y51358D02*
D03*
Y54508D02*
D03*
Y57657D02*
D03*
Y60807D02*
D03*
Y63957D02*
D03*
Y67106D02*
D03*
Y70256D02*
D03*
Y73405D02*
D03*
Y76555D02*
D03*
Y79705D02*
D03*
X63646D02*
D03*
Y76555D02*
D03*
Y73405D02*
D03*
Y70256D02*
D03*
Y67106D02*
D03*
Y63957D02*
D03*
Y60807D02*
D03*
Y57657D02*
D03*
Y54508D02*
D03*
Y51358D02*
D03*
Y48209D02*
D03*
Y45059D02*
D03*
D60*
X43173Y62382D02*
D03*
Y72224D02*
D03*
X53016D02*
D03*
Y62382D02*
D03*
Y52539D02*
D03*
X43173D02*
D03*
X33331D02*
D03*
Y62382D02*
D03*
Y72224D02*
D03*
D63*
X16142Y95819D02*
D03*
Y101819D02*
D03*
X81370Y26297D02*
D03*
Y20297D02*
D03*
X93500Y83500D02*
D03*
Y89500D02*
D03*
X99500Y83500D02*
D03*
Y89500D02*
D03*
D64*
X44291Y114665D02*
D03*
Y121555D02*
D03*
D65*
X80118Y118110D02*
D03*
D66*
X31879Y111707D02*
D03*
X36121Y107465D02*
D03*
D67*
X37496Y32883D02*
D03*
X31496D02*
D03*
X71173Y56693D02*
D03*
X77173D02*
D03*
X77114Y73622D02*
D03*
X71114D02*
D03*
X77114Y67979D02*
D03*
X71114D02*
D03*
D96*
X119006Y95276D02*
D03*
X113790Y95276D02*
D03*
D97*
X112214Y106181D02*
D03*
X101979D02*
D03*
X109656D02*
D03*
X104538D02*
D03*
X107097D02*
D03*
M02*
