G04*
G04 #@! TF.GenerationSoftware,Altium Limited,Altium Designer,20.2.6 (244)*
G04*
G04 Layer_Color=65535*
%FSLAX25Y25*%
%MOIN*%
G70*
G04*
G04 #@! TF.SameCoordinates,A3B400B8-C857-4583-85C6-9FA4B9C7ABCD*
G04*
G04*
G04 #@! TF.FilePolarity,Positive*
G04*
G01*
G75*
%ADD10C,0.00787*%
%ADD11C,0.00591*%
%ADD12C,0.00800*%
%ADD13C,0.00100*%
%ADD14C,0.00709*%
%ADD15C,0.01000*%
D10*
X47371Y74919D02*
Y78068D01*
X52981Y78068D02*
X53768D01*
X52981Y74919D02*
X53768D01*
X47371Y66319D02*
Y69468D01*
X52981Y69468D02*
X53768D01*
X52981Y66319D02*
X53768D01*
X52981Y28051D02*
X53768D01*
X52981Y31201D02*
X53768D01*
X47371Y28051D02*
Y31201D01*
X80649Y29880D02*
X80058Y30470D01*
X78878D01*
X78287Y29880D01*
Y29289D01*
X78878Y28699D01*
X80058D01*
X80649Y28109D01*
Y27518D01*
X80058Y26928D01*
X78878D01*
X78287Y27518D01*
X81830Y30470D02*
Y26928D01*
X83601D01*
X84191Y27518D01*
Y29880D01*
X83601Y30470D01*
X81830D01*
X85372Y26928D02*
Y29289D01*
X86552Y30470D01*
X87733Y29289D01*
Y26928D01*
Y28699D01*
X85372D01*
X88914Y26928D02*
X91275Y29289D01*
X81830Y20787D02*
Y24330D01*
X83601D01*
X84191Y23739D01*
Y22558D01*
X83601Y21968D01*
X81830D01*
X85372Y24330D02*
Y20787D01*
X87143D01*
X87733Y21378D01*
Y21968D01*
X87143Y22558D01*
X85372D01*
X87143D01*
X87733Y23149D01*
Y23739D01*
X87143Y24330D01*
X85372D01*
X88914Y21378D02*
X89504Y20787D01*
X90685D01*
X91275Y21378D01*
Y23739D01*
X90685Y24330D01*
X89504D01*
X88914Y23739D01*
Y23149D01*
X89504Y22558D01*
X91275D01*
X16535Y84842D02*
Y87991D01*
X18110D01*
X18634Y87466D01*
Y86417D01*
X18110Y85892D01*
X16535D01*
X19684Y84842D02*
Y86942D01*
X20733Y87991D01*
X21783Y86942D01*
Y84842D01*
Y86417D01*
X19684D01*
X22833Y87991D02*
X24932D01*
Y87466D01*
X22833Y85367D01*
Y84842D01*
X25981D02*
X28080Y86942D01*
X29130Y84842D02*
Y87991D01*
X31229Y84842D01*
Y87991D01*
X32278Y84842D02*
Y87991D01*
X33853D01*
X34377Y87466D01*
Y86417D01*
X33853Y85892D01*
X32278D01*
X33328D02*
X34377Y84842D01*
X37526Y87466D02*
X37001Y87991D01*
X35952D01*
X35427Y87466D01*
Y86942D01*
X35952Y86417D01*
X37001D01*
X37526Y85892D01*
Y85367D01*
X37001Y84842D01*
X35952D01*
X35427Y85367D01*
X38576Y87991D02*
X40675D01*
X39625D01*
Y84842D01*
X49500Y19426D02*
X50550D01*
X50025D01*
Y22575D01*
X49500Y22050D01*
X73230Y24409D02*
Y27558D01*
X74804D01*
X75329Y27033D01*
Y25984D01*
X74804Y25459D01*
X73230D01*
X74280D02*
X75329Y24409D01*
X69000Y27558D02*
Y24409D01*
X70574D01*
X71099Y24934D01*
Y27033D01*
X70574Y27558D01*
X69000D01*
X60957Y27033D02*
X60433Y27558D01*
X59383D01*
X58858Y27033D01*
Y24934D01*
X59383Y24409D01*
X60433D01*
X60957Y24934D01*
X63779Y27952D02*
X66403D01*
X52981Y25368D02*
X55605D01*
X54293Y26680D02*
Y24056D01*
X41008Y8364D02*
Y12300D01*
X42976D01*
X43632Y11644D01*
Y10332D01*
X42976Y9676D01*
X41008D01*
X44944Y10988D02*
Y8364D01*
Y9676D01*
X45600Y10332D01*
X46255Y10988D01*
X46911D01*
X49535Y8364D02*
X50847D01*
X51503Y9020D01*
Y10332D01*
X50847Y10988D01*
X49535D01*
X48879Y10332D01*
Y9020D01*
X49535Y8364D01*
X54127Y7052D02*
X54783D01*
X55439Y7708D01*
Y10988D01*
X53471D01*
X52815Y10332D01*
Y9020D01*
X53471Y8364D01*
X55439D01*
X70061Y36352D02*
X69471Y36942D01*
X68290D01*
X67700Y36352D01*
Y35761D01*
X68290Y35171D01*
X69471D01*
X70061Y34581D01*
Y33990D01*
X69471Y33400D01*
X68290D01*
X67700Y33990D01*
X73604Y36352D02*
X73013Y36942D01*
X71833D01*
X71242Y36352D01*
Y33990D01*
X71833Y33400D01*
X73013D01*
X73604Y33990D01*
X74784Y36942D02*
Y33400D01*
X77146D01*
X78326Y35171D02*
X80688D01*
X81869Y33400D02*
Y36942D01*
X83640D01*
X84230Y36352D01*
Y35171D01*
X83640Y34581D01*
X81869D01*
X85411Y36942D02*
Y33400D01*
X87182D01*
X87772Y33990D01*
Y34581D01*
X87182Y35171D01*
X85411D01*
X87182D01*
X87772Y35761D01*
Y36352D01*
X87182Y36942D01*
X85411D01*
X88953Y36352D02*
X89543Y36942D01*
X90724D01*
X91314Y36352D01*
Y35761D01*
X90724Y35171D01*
X91314Y34581D01*
Y33990D01*
X90724Y33400D01*
X89543D01*
X88953Y33990D01*
Y34581D01*
X89543Y35171D01*
X88953Y35761D01*
Y36352D01*
X89543Y35171D02*
X90724D01*
X18110Y73300D02*
Y75399D01*
X19160Y76449D01*
X20209Y75399D01*
Y73300D01*
Y74874D01*
X18110D01*
X21259Y73300D02*
Y76449D01*
X23358Y73300D01*
Y76449D01*
X24407Y74874D02*
X26507D01*
X27556Y73300D02*
Y76449D01*
X29130D01*
X29655Y75924D01*
Y74874D01*
X29130Y74349D01*
X27556D01*
X30705Y73300D02*
Y75399D01*
X31754Y76449D01*
X32804Y75399D01*
Y73300D01*
Y74874D01*
X30705D01*
X35427Y73300D02*
Y76449D01*
X33853Y74874D01*
X35952D01*
X17126Y62992D02*
Y66141D01*
X18700D01*
X19225Y65616D01*
Y64566D01*
X18700Y64042D01*
X17126D01*
X20275Y62992D02*
Y65091D01*
X21324Y66141D01*
X22374Y65091D01*
Y62992D01*
Y64566D01*
X20275D01*
X23423Y65616D02*
X23948Y66141D01*
X24997D01*
X25522Y65616D01*
Y63517D01*
X24997Y62992D01*
X23948D01*
X23423Y63517D01*
Y65616D01*
X14500Y93307D02*
Y96456D01*
X16074D01*
X16599Y95931D01*
Y94881D01*
X16074Y94357D01*
X14500D01*
X17649Y93307D02*
Y95406D01*
X18698Y96456D01*
X19748Y95406D01*
Y93307D01*
Y94881D01*
X17649D01*
X20797Y95931D02*
X21322Y96456D01*
X22372D01*
X22896Y95931D01*
Y95406D01*
X22372Y94881D01*
X22896Y94357D01*
Y93832D01*
X22372Y93307D01*
X21322D01*
X20797Y93832D01*
Y94357D01*
X21322Y94881D01*
X20797Y95406D01*
Y95931D01*
X21322Y94881D02*
X22372D01*
X14500Y103800D02*
Y106949D01*
X16074D01*
X16599Y106424D01*
Y105374D01*
X16074Y104850D01*
X14500D01*
X17649Y103800D02*
Y105899D01*
X18698Y106949D01*
X19748Y105899D01*
Y103800D01*
Y105374D01*
X17649D01*
X20797Y104325D02*
X21322Y103800D01*
X22372D01*
X22896Y104325D01*
Y106424D01*
X22372Y106949D01*
X21322D01*
X20797Y106424D01*
Y105899D01*
X21322Y105374D01*
X22896D01*
X14500Y115000D02*
Y118149D01*
X16074D01*
X16599Y117624D01*
Y116575D01*
X16074Y116050D01*
X14500D01*
X17649Y115000D02*
Y117099D01*
X18698Y118149D01*
X19748Y117099D01*
Y115000D01*
Y116575D01*
X17649D01*
X20797Y115000D02*
X21847D01*
X21322D01*
Y118149D01*
X20797Y117624D01*
X23421D02*
X23946Y118149D01*
X24995D01*
X25520Y117624D01*
Y115525D01*
X24995Y115000D01*
X23946D01*
X23421Y115525D01*
Y117624D01*
X16861Y56452D02*
X16271Y57042D01*
X15090D01*
X14500Y56452D01*
Y54090D01*
X15090Y53500D01*
X16271D01*
X16861Y54090D01*
X20404Y56452D02*
X19813Y57042D01*
X18632D01*
X18042Y56452D01*
Y55861D01*
X18632Y55271D01*
X19813D01*
X20404Y54681D01*
Y54090D01*
X19813Y53500D01*
X18632D01*
X18042Y54090D01*
X21584Y55271D02*
X23946D01*
X25126Y53500D02*
Y57042D01*
X26898D01*
X27488Y56452D01*
Y55271D01*
X26898Y54681D01*
X25126D01*
X28669Y57042D02*
Y53500D01*
X30440D01*
X31030Y54090D01*
Y54681D01*
X30440Y55271D01*
X28669D01*
X30440D01*
X31030Y55861D01*
Y56452D01*
X30440Y57042D01*
X28669D01*
X32211Y53500D02*
X33391D01*
X32801D01*
Y57042D01*
X32211Y56452D01*
X37524Y53500D02*
X35163D01*
X37524Y55861D01*
Y56452D01*
X36934Y57042D01*
X35753D01*
X35163Y56452D01*
X16561Y46052D02*
X15971Y46642D01*
X14790D01*
X14200Y46052D01*
Y45461D01*
X14790Y44871D01*
X15971D01*
X16561Y44281D01*
Y43690D01*
X15971Y43100D01*
X14790D01*
X14200Y43690D01*
X20104Y46052D02*
X19513Y46642D01*
X18332D01*
X17742Y46052D01*
Y43690D01*
X18332Y43100D01*
X19513D01*
X20104Y43690D01*
X21284Y46642D02*
Y43100D01*
Y44281D01*
X23646Y46642D01*
X21875Y44871D01*
X23646Y43100D01*
X24826Y44871D02*
X27188D01*
X28369Y43100D02*
Y46642D01*
X30140D01*
X30730Y46052D01*
Y44871D01*
X30140Y44281D01*
X28369D01*
X31911Y46642D02*
Y43100D01*
X33682D01*
X34272Y43690D01*
Y44281D01*
X33682Y44871D01*
X31911D01*
X33682D01*
X34272Y45461D01*
Y46052D01*
X33682Y46642D01*
X31911D01*
X35453Y43100D02*
X36634D01*
X36043D01*
Y46642D01*
X35453Y46052D01*
X38405D02*
X38995Y46642D01*
X40176D01*
X40766Y46052D01*
Y45461D01*
X40176Y44871D01*
X39586D01*
X40176D01*
X40766Y44281D01*
Y43690D01*
X40176Y43100D01*
X38995D01*
X38405Y43690D01*
X14200Y23400D02*
Y26942D01*
X15381Y25761D01*
X16561Y26942D01*
Y23400D01*
X19513Y26942D02*
X18332D01*
X17742Y26352D01*
Y23990D01*
X18332Y23400D01*
X19513D01*
X20104Y23990D01*
Y26352D01*
X19513Y26942D01*
X23646Y26352D02*
X23055Y26942D01*
X21875D01*
X21284Y26352D01*
Y25761D01*
X21875Y25171D01*
X23055D01*
X23646Y24581D01*
Y23990D01*
X23055Y23400D01*
X21875D01*
X21284Y23990D01*
X24826Y26942D02*
X26007D01*
X25417D01*
Y23400D01*
X24826D01*
X26007D01*
X27778Y25171D02*
X30140D01*
X31320Y23400D02*
Y26942D01*
X33092D01*
X33682Y26352D01*
Y25171D01*
X33092Y24581D01*
X31320D01*
X34863Y26942D02*
Y23400D01*
X36634D01*
X37224Y23990D01*
Y24581D01*
X36634Y25171D01*
X34863D01*
X36634D01*
X37224Y25761D01*
Y26352D01*
X36634Y26942D01*
X34863D01*
X38405Y23400D02*
X39586D01*
X38995D01*
Y26942D01*
X38405Y26352D01*
X43718Y26942D02*
X41357D01*
Y25171D01*
X42537Y25761D01*
X43128D01*
X43718Y25171D01*
Y23990D01*
X43128Y23400D01*
X41947D01*
X41357Y23990D01*
X14200Y33300D02*
Y36842D01*
X15381Y35661D01*
X16561Y36842D01*
Y33300D01*
X17742Y36842D02*
X18923D01*
X18332D01*
Y33300D01*
X17742D01*
X18923D01*
X23055Y36252D02*
X22465Y36842D01*
X21284D01*
X20694Y36252D01*
Y35661D01*
X21284Y35071D01*
X22465D01*
X23055Y34481D01*
Y33890D01*
X22465Y33300D01*
X21284D01*
X20694Y33890D01*
X26007Y36842D02*
X24826D01*
X24236Y36252D01*
Y33890D01*
X24826Y33300D01*
X26007D01*
X26598Y33890D01*
Y36252D01*
X26007Y36842D01*
X27778Y35071D02*
X30140D01*
X31320Y33300D02*
Y36842D01*
X33092D01*
X33682Y36252D01*
Y35071D01*
X33092Y34481D01*
X31320D01*
X34863Y36842D02*
Y33300D01*
X36634D01*
X37224Y33890D01*
Y34481D01*
X36634Y35071D01*
X34863D01*
X36634D01*
X37224Y35661D01*
Y36252D01*
X36634Y36842D01*
X34863D01*
X38405Y33300D02*
X39586D01*
X38995D01*
Y36842D01*
X38405Y36252D01*
X43128Y33300D02*
Y36842D01*
X41357Y35071D01*
X43718D01*
X68290Y66543D02*
X69471D01*
X68881D01*
Y63001D01*
X68290D01*
X69471D01*
X71242D02*
Y66543D01*
X73604Y63001D01*
Y66543D01*
X74784D02*
X77146D01*
X75965D01*
Y63001D01*
X78326Y64772D02*
X80688D01*
X81869Y63001D02*
Y66543D01*
X83640D01*
X84230Y65953D01*
Y64772D01*
X83640Y64182D01*
X81869D01*
X85411Y66543D02*
Y63001D01*
X87182D01*
X87772Y63591D01*
Y64182D01*
X87182Y64772D01*
X85411D01*
X87182D01*
X87772Y65362D01*
Y65953D01*
X87182Y66543D01*
X85411D01*
X88953D02*
X91314D01*
Y65953D01*
X88953Y63591D01*
Y63001D01*
X67700Y73300D02*
Y76842D01*
X69471D01*
X70061Y76252D01*
Y75071D01*
X69471Y74481D01*
X67700D01*
X71242Y76842D02*
Y73300D01*
X72423Y74481D01*
X73604Y73300D01*
Y76842D01*
X74784Y73300D02*
Y76842D01*
X75965Y75661D01*
X77146Y76842D01*
Y73300D01*
X78326Y75071D02*
X80688D01*
X81869Y73300D02*
Y76842D01*
X83640D01*
X84230Y76252D01*
Y75071D01*
X83640Y74481D01*
X81869D01*
X85411Y76842D02*
Y73300D01*
X87182D01*
X87772Y73890D01*
Y74481D01*
X87182Y75071D01*
X85411D01*
X87182D01*
X87772Y75661D01*
Y76252D01*
X87182Y76842D01*
X85411D01*
X91314Y73300D02*
X88953D01*
X91314Y75661D01*
Y76252D01*
X90724Y76842D01*
X89543D01*
X88953Y76252D01*
X71342Y53000D02*
Y56542D01*
X73113D01*
X73704Y55952D01*
Y54771D01*
X73113Y54181D01*
X71342D01*
X72523D02*
X73704Y53000D01*
X74884Y56542D02*
X77246Y53000D01*
Y56542D02*
X74884Y53000D01*
X78426Y54771D02*
X80788D01*
X81969Y53000D02*
Y56542D01*
X83740D01*
X84330Y55952D01*
Y54771D01*
X83740Y54181D01*
X81969D01*
X85511Y53000D02*
Y55361D01*
X86691Y56542D01*
X87872Y55361D01*
Y53000D01*
Y54771D01*
X85511D01*
X89053Y55952D02*
X89643Y56542D01*
X90824D01*
X91414Y55952D01*
Y55361D01*
X90824Y54771D01*
X90234D01*
X90824D01*
X91414Y54181D01*
Y53590D01*
X90824Y53000D01*
X89643D01*
X89053Y53590D01*
X71342Y44585D02*
X73704D01*
X72523D01*
Y41043D01*
X74884Y44585D02*
X77246Y41043D01*
Y44585D02*
X74884Y41043D01*
X78426Y42814D02*
X80788D01*
X81969Y41043D02*
Y44585D01*
X83740D01*
X84330Y43995D01*
Y42814D01*
X83740Y42224D01*
X81969D01*
X85511Y41043D02*
Y43405D01*
X86691Y44585D01*
X87872Y43405D01*
Y41043D01*
Y42814D01*
X85511D01*
X91414Y41043D02*
X89053D01*
X91414Y43405D01*
Y43995D01*
X90824Y44585D01*
X89643D01*
X89053Y43995D01*
X83167Y7952D02*
X82576Y8542D01*
X81396D01*
X80805Y7952D01*
Y5590D01*
X81396Y5000D01*
X82576D01*
X83167Y5590D01*
Y6771D01*
X81986D01*
X84347Y5000D02*
Y8542D01*
X86709Y5000D01*
Y8542D01*
X87889D02*
Y5000D01*
X89661D01*
X90251Y5590D01*
Y7952D01*
X89661Y8542D01*
X87889D01*
X14200Y16052D02*
X14790Y16642D01*
X15971D01*
X16561Y16052D01*
Y15461D01*
X15971Y14871D01*
X15381D01*
X15971D01*
X16561Y14281D01*
Y13690D01*
X15971Y13100D01*
X14790D01*
X14200Y13690D01*
X17742Y16642D02*
Y14281D01*
X18923Y13100D01*
X20104Y14281D01*
Y16642D01*
X21284Y16052D02*
X21875Y16642D01*
X23055D01*
X23646Y16052D01*
Y15461D01*
X23055Y14871D01*
X22465D01*
X23055D01*
X23646Y14281D01*
Y13690D01*
X23055Y13100D01*
X21875D01*
X21284Y13690D01*
X16561Y5452D02*
X15971Y6042D01*
X14790D01*
X14200Y5452D01*
Y3090D01*
X14790Y2500D01*
X15971D01*
X16561Y3090D01*
Y4271D01*
X15381D01*
X17742Y2500D02*
Y6042D01*
X20104Y2500D01*
Y6042D01*
X21284D02*
Y2500D01*
X23055D01*
X23646Y3090D01*
Y5452D01*
X23055Y6042D01*
X21284D01*
X86361Y16542D02*
X84000D01*
Y14771D01*
X85181Y15361D01*
X85771D01*
X86361Y14771D01*
Y13590D01*
X85771Y13000D01*
X84590D01*
X84000Y13590D01*
X87542Y16542D02*
Y14181D01*
X88723Y13000D01*
X89904Y14181D01*
Y16542D01*
X95500Y85038D02*
Y81890D01*
Y83464D01*
X97599D01*
Y85038D01*
Y81890D01*
X100748Y85038D02*
X98649D01*
Y83464D01*
X99698Y83989D01*
X100223D01*
X100748Y83464D01*
Y82415D01*
X100223Y81890D01*
X99173D01*
X98649Y82415D01*
X44221Y17067D02*
Y13918D01*
Y15493D01*
X46320D01*
Y17067D01*
Y13918D01*
X47370Y16542D02*
X47894Y17067D01*
X48944D01*
X49469Y16542D01*
Y16017D01*
X48944Y15493D01*
X48419D01*
X48944D01*
X49469Y14968D01*
Y14443D01*
X48944Y13918D01*
X47894D01*
X47370Y14443D01*
X57087Y64172D02*
Y61024D01*
X58661D01*
X59186Y61548D01*
Y63648D01*
X58661Y64172D01*
X57087D01*
X60235Y63648D02*
X60760Y64172D01*
X61809D01*
X62334Y63648D01*
Y63123D01*
X61809Y62598D01*
X61285D01*
X61809D01*
X62334Y62073D01*
Y61548D01*
X61809Y61024D01*
X60760D01*
X60235Y61548D01*
X56693Y82676D02*
Y79528D01*
X58267D01*
X58792Y80052D01*
Y82151D01*
X58267Y82676D01*
X56693D01*
X61941Y79528D02*
X59842D01*
X61941Y81627D01*
Y82151D01*
X61416Y82676D01*
X60366D01*
X59842Y82151D01*
X50725Y36075D02*
Y32926D01*
X52299D01*
X52824Y33451D01*
Y35550D01*
X52299Y36075D01*
X50725D01*
X53874Y32926D02*
X54923D01*
X54398D01*
Y36075D01*
X53874Y35550D01*
D11*
X51900Y13543D02*
Y23400D01*
Y13543D02*
X78000D01*
X51900Y23400D02*
X78000D01*
Y13543D02*
Y23400D01*
D12*
X102992Y1000D02*
Y80000D01*
X92992Y80000D02*
X102992Y80000D01*
X92992Y1000D02*
X102992D01*
X92992D02*
Y80000D01*
X12992Y1000D02*
Y117700D01*
X3937Y1000D02*
Y117700D01*
Y1000D02*
X12992D01*
X113779D02*
X121966D01*
X113779D02*
Y80000D01*
X121966Y1000D02*
Y80000D01*
X113779Y80000D02*
X121966Y80000D01*
X105100Y76772D02*
X106100D01*
X105600D01*
Y79771D01*
X105100Y79271D01*
X1500Y114700D02*
X2500D01*
X2000D01*
Y117699D01*
X1500Y117199D01*
X111723Y74382D02*
X112723D01*
X112223D01*
Y77381D01*
X111723Y76881D01*
D13*
X54767Y119300D02*
X55567D01*
X54467Y119200D02*
X55667D01*
X54167Y119100D02*
X55767D01*
X53567Y119000D02*
X55967D01*
X53267Y118900D02*
X56067D01*
X52667Y118800D02*
X56267D01*
X52267Y118700D02*
X56367D01*
X52067Y118600D02*
X56467D01*
X51467Y118500D02*
X56667D01*
X51067Y118400D02*
X56767D01*
X50567Y118300D02*
X56967D01*
X50167Y118200D02*
X57067D01*
X49867Y118100D02*
X57267D01*
X49367Y118000D02*
X57367D01*
X48967Y117900D02*
X57567D01*
X48667Y117800D02*
X57567D01*
X48067Y117700D02*
X57767D01*
X47767Y117600D02*
X57967D01*
X47267Y117500D02*
X58067D01*
X46867Y117400D02*
X58267D01*
X46567Y117300D02*
X58367D01*
X45967Y117200D02*
X58567D01*
X45667Y117100D02*
X58567D01*
X45667Y117000D02*
X58767D01*
X45667Y116900D02*
X58867D01*
X45767Y116800D02*
X59067D01*
X45967Y116700D02*
X59167D01*
X46167Y116600D02*
X59367D01*
X46267Y116500D02*
X59467D01*
X46367Y116400D02*
X59667D01*
X46467Y116300D02*
X59767D01*
X46667Y116200D02*
X59867D01*
X46767Y116100D02*
X60067D01*
X46967Y116000D02*
X60167D01*
X47067Y115900D02*
X60367D01*
X47267Y115800D02*
X60467D01*
X47367Y115700D02*
X60567D01*
X47567Y115600D02*
X60767D01*
X47667Y115500D02*
X60867D01*
X47767Y115400D02*
X60967D01*
X47967Y115300D02*
X61167D01*
X48067Y115200D02*
X61267D01*
X48267Y115100D02*
X61467D01*
X48367Y115000D02*
X61567D01*
X48467Y114900D02*
X61667D01*
X48667Y114800D02*
X61867D01*
X48767Y114700D02*
X61967D01*
X48967Y114600D02*
X62067D01*
X49067Y114500D02*
X62067D01*
X49167Y114400D02*
X61867D01*
X49367Y114300D02*
X61367D01*
X49467Y114200D02*
X60967D01*
X49567Y114100D02*
X60567D01*
X49767Y114000D02*
X60167D01*
X49867Y113900D02*
X59767D01*
X46767Y113800D02*
X46967D01*
X50067D02*
X59267D01*
X46467Y113700D02*
X47167D01*
X50167D02*
X58867D01*
X46167Y113600D02*
X47267D01*
X50267D02*
X58467D01*
X45667Y113500D02*
X47467D01*
X50467D02*
X58067D01*
X45667Y113400D02*
X47567D01*
X50567D02*
X57667D01*
X45667Y113300D02*
X47667D01*
X50767D02*
X57167D01*
X45867Y113200D02*
X47767D01*
X50867D02*
X56767D01*
X45967Y113100D02*
X47967D01*
X50967D02*
X56367D01*
X46167Y113000D02*
X48167D01*
X51167D02*
X55967D01*
X46267Y112900D02*
X48267D01*
X51267D02*
X55567D01*
X46367Y112800D02*
X48367D01*
X51367D02*
X55167D01*
X46567Y112700D02*
X48567D01*
X51567D02*
X54667D01*
X46667Y112600D02*
X48667D01*
X51667D02*
X54267D01*
X46867Y112500D02*
X48767D01*
X51867D02*
X53867D01*
X46967Y112400D02*
X48967D01*
X51967D02*
X53467D01*
X47067Y112300D02*
X49067D01*
X52067D02*
X53067D01*
X47267Y112200D02*
X49267D01*
X52267D02*
X52567D01*
X47367Y112100D02*
X49367D01*
X47467Y112000D02*
X49467D01*
X47667Y111900D02*
X49667D01*
X47767Y111800D02*
X49767D01*
X47967Y111700D02*
X49967D01*
X48067Y111600D02*
X50067D01*
X48167Y111500D02*
X50167D01*
X48367Y111400D02*
X50367D01*
X48467Y111300D02*
X50467D01*
X48567Y111200D02*
X50567D01*
X75767D02*
X76567D01*
X48767Y111100D02*
X50767D01*
X75767D02*
X76567D01*
X48867Y111000D02*
X50867D01*
X75767D02*
X76567D01*
X49067Y110900D02*
X51067D01*
X69767D02*
X70867D01*
X75767D02*
X76567D01*
X49167Y110800D02*
X51167D01*
X55867D02*
X57267D01*
X58567D02*
X60267D01*
X60867D02*
X63767D01*
X64067D02*
X67567D01*
X69467D02*
X71167D01*
X75767D02*
X76567D01*
X49267Y110700D02*
X51267D01*
X55867D02*
X57267D01*
X58567D02*
X60267D01*
X60867D02*
X63767D01*
X64067D02*
X67567D01*
X69267D02*
X71367D01*
X75767D02*
X76567D01*
X49467Y110600D02*
X51467D01*
X55867D02*
X57267D01*
X58467D02*
X60167D01*
X60867D02*
X63767D01*
X64067D02*
X67567D01*
X68967D02*
X71667D01*
X75767D02*
X76567D01*
X49567Y110500D02*
X51567D01*
X55867D02*
X57267D01*
X58367D02*
X60167D01*
X60867D02*
X63767D01*
X64067D02*
X67567D01*
X68867D02*
X71667D01*
X75767D02*
X76567D01*
X46767Y110400D02*
X46967D01*
X49767D02*
X51767D01*
X55867D02*
X57267D01*
X58367D02*
X60067D01*
X60867D02*
X63767D01*
X64067D02*
X67567D01*
X68767D02*
X71667D01*
X75767D02*
X76567D01*
X46267Y110300D02*
X47267D01*
X49867D02*
X51967D01*
X55867D02*
X57267D01*
X58167D02*
X59967D01*
X60867D02*
X63767D01*
X64067D02*
X67567D01*
X68667D02*
X71667D01*
X75767D02*
X76567D01*
X45967Y110200D02*
X47267D01*
X49967D02*
X51967D01*
X55867D02*
X57267D01*
X58167D02*
X59867D01*
X60867D02*
X63767D01*
X64067D02*
X67567D01*
X68567D02*
X71667D01*
X75767D02*
X76567D01*
X45667Y110100D02*
X47467D01*
X50167D02*
X52267D01*
X55867D02*
X57267D01*
X58067D02*
X59767D01*
X60867D02*
X63767D01*
X64067D02*
X67567D01*
X68367D02*
X71667D01*
X75767D02*
X76567D01*
X45667Y110000D02*
X47567D01*
X50267D02*
X52267D01*
X55867D02*
X57267D01*
X57967D02*
X59667D01*
X60867D02*
X63767D01*
X64067D02*
X67567D01*
X68367D02*
X69867D01*
X70767D02*
X71667D01*
X75767D02*
X76567D01*
X45767Y109900D02*
X47767D01*
X50467D02*
X52467D01*
X55867D02*
X57267D01*
X57867D02*
X59667D01*
X60867D02*
X63767D01*
X64067D02*
X67567D01*
X68267D02*
X69567D01*
X70967D02*
X71667D01*
X75767D02*
X76567D01*
X45967Y109800D02*
X47867D01*
X50567D02*
X52467D01*
X55867D02*
X57267D01*
X57867D02*
X59567D01*
X60867D02*
X63767D01*
X64067D02*
X67567D01*
X68167D02*
X69367D01*
X71267D02*
X71667D01*
X75767D02*
X76567D01*
X45967Y109700D02*
X48067D01*
X50667D02*
X52467D01*
X55867D02*
X57267D01*
X57767D02*
X59467D01*
X60867D02*
X63767D01*
X64067D02*
X67567D01*
X68067D02*
X69267D01*
X71367D02*
X71667D01*
X75767D02*
X76567D01*
X46167Y109600D02*
X48167D01*
X50867D02*
X52467D01*
X55867D02*
X57267D01*
X57667D02*
X59367D01*
X60867D02*
X62267D01*
X65067D02*
X66467D01*
X68067D02*
X69167D01*
X75767D02*
X76567D01*
X46367Y109500D02*
X48267D01*
X50967D02*
X52467D01*
X55867D02*
X57267D01*
X57567D02*
X59267D01*
X60867D02*
X62267D01*
X65067D02*
X66467D01*
X67967D02*
X69067D01*
X75767D02*
X76567D01*
X46467Y109400D02*
X48467D01*
X51167D02*
X52467D01*
X55867D02*
X57267D01*
X57567D02*
X59167D01*
X60867D02*
X62267D01*
X65067D02*
X66467D01*
X67967D02*
X68967D01*
X75767D02*
X76567D01*
X46667Y109300D02*
X48567D01*
X51267D02*
X52467D01*
X55867D02*
X57267D01*
X57467D02*
X59167D01*
X60867D02*
X62267D01*
X65067D02*
X66467D01*
X67867D02*
X68867D01*
X75767D02*
X76567D01*
X46767Y109200D02*
X48767D01*
X51467D02*
X52467D01*
X55867D02*
X57267D01*
X57367D02*
X59067D01*
X60867D02*
X62267D01*
X65067D02*
X66467D01*
X67867D02*
X68867D01*
X75767D02*
X76567D01*
X46867Y109100D02*
X48867D01*
X51567D02*
X52467D01*
X55867D02*
X58967D01*
X60867D02*
X62267D01*
X65067D02*
X66467D01*
X67867D02*
X68767D01*
X75767D02*
X76567D01*
X77267D02*
X77767D01*
X80767D02*
X81267D01*
X47067Y109000D02*
X49067D01*
X51767D02*
X52467D01*
X55867D02*
X58867D01*
X60867D02*
X62267D01*
X65067D02*
X66467D01*
X67867D02*
X68767D01*
X72267D02*
X73167D01*
X74167D02*
X75067D01*
X75767D02*
X76567D01*
X76867D02*
X78167D01*
X80267D02*
X81767D01*
X47167Y108900D02*
X49067D01*
X51767D02*
X52467D01*
X55867D02*
X58867D01*
X60867D02*
X63667D01*
X65067D02*
X66467D01*
X67867D02*
X68667D01*
X72267D02*
X73167D01*
X74167D02*
X75067D01*
X75767D02*
X76567D01*
X76767D02*
X78367D01*
X80067D02*
X81867D01*
X47267Y108800D02*
X49367D01*
X51967D02*
X52467D01*
X55867D02*
X58667D01*
X60867D02*
X63667D01*
X65067D02*
X66467D01*
X67767D02*
X68667D01*
X72267D02*
X73167D01*
X74167D02*
X75067D01*
X75767D02*
X78467D01*
X79967D02*
X82067D01*
X47467Y108700D02*
X49467D01*
X52167D02*
X52467D01*
X55867D02*
X58567D01*
X60867D02*
X63667D01*
X65067D02*
X66467D01*
X67767D02*
X68667D01*
X72267D02*
X73167D01*
X74167D02*
X75067D01*
X75767D02*
X78567D01*
X79867D02*
X82067D01*
X47567Y108600D02*
X49567D01*
X52267D02*
X52467D01*
X55867D02*
X58567D01*
X60867D02*
X63667D01*
X65067D02*
X66467D01*
X67767D02*
X68667D01*
X72267D02*
X73167D01*
X74167D02*
X75067D01*
X75767D02*
X78667D01*
X79767D02*
X82167D01*
X47767Y108500D02*
X49767D01*
X55867D02*
X58467D01*
X60867D02*
X63667D01*
X65067D02*
X66467D01*
X67767D02*
X68667D01*
X72267D02*
X73167D01*
X74167D02*
X75067D01*
X75767D02*
X78767D01*
X79667D02*
X82267D01*
X47867Y108400D02*
X49867D01*
X55867D02*
X58567D01*
X60867D02*
X63667D01*
X65067D02*
X66467D01*
X67767D02*
X68667D01*
X72267D02*
X73167D01*
X74167D02*
X75067D01*
X75767D02*
X78767D01*
X79667D02*
X82367D01*
X47967Y108300D02*
X49967D01*
X55867D02*
X58567D01*
X60867D02*
X63667D01*
X65067D02*
X66467D01*
X67767D02*
X68667D01*
X72267D02*
X73167D01*
X74167D02*
X75067D01*
X75767D02*
X77167D01*
X77567D02*
X78867D01*
X79567D02*
X80767D01*
X81167D02*
X82367D01*
X48167Y108200D02*
X50167D01*
X55867D02*
X58667D01*
X60867D02*
X63667D01*
X65067D02*
X66467D01*
X67767D02*
X68667D01*
X72267D02*
X73167D01*
X74167D02*
X75067D01*
X75767D02*
X76867D01*
X77767D02*
X78867D01*
X79567D02*
X80567D01*
X81467D02*
X82367D01*
X48267Y108100D02*
X50267D01*
X55867D02*
X58767D01*
X60867D02*
X63667D01*
X65067D02*
X66467D01*
X67767D02*
X68667D01*
X72267D02*
X73167D01*
X74167D02*
X75067D01*
X75767D02*
X76767D01*
X77867D02*
X78867D01*
X79567D02*
X80467D01*
X81567D02*
X82367D01*
X48467Y108000D02*
X50467D01*
X55867D02*
X58867D01*
X60867D02*
X63667D01*
X65067D02*
X66467D01*
X67767D02*
X68667D01*
X72267D02*
X73167D01*
X74167D02*
X75067D01*
X75767D02*
X76767D01*
X77967D02*
X78867D01*
X79467D02*
X80467D01*
X81567D02*
X82467D01*
X48567Y107900D02*
X50567D01*
X55867D02*
X58867D01*
X60867D02*
X63667D01*
X65067D02*
X66467D01*
X67767D02*
X68667D01*
X72267D02*
X73167D01*
X74167D02*
X75067D01*
X75767D02*
X76667D01*
X78067D02*
X78967D01*
X79467D02*
X82467D01*
X48667Y107800D02*
X50667D01*
X55867D02*
X58967D01*
X60867D02*
X63667D01*
X65067D02*
X66467D01*
X67867D02*
X68667D01*
X72267D02*
X73167D01*
X74167D02*
X75067D01*
X75767D02*
X76667D01*
X78067D02*
X78967D01*
X79467D02*
X82467D01*
X48867Y107700D02*
X50867D01*
X55867D02*
X59067D01*
X60867D02*
X62267D01*
X65067D02*
X66467D01*
X67867D02*
X68767D01*
X72267D02*
X73167D01*
X74167D02*
X75067D01*
X75767D02*
X76567D01*
X78067D02*
X78967D01*
X79467D02*
X82467D01*
X48967Y107600D02*
X50967D01*
X55867D02*
X57267D01*
X57367D02*
X59167D01*
X60867D02*
X62267D01*
X65067D02*
X66467D01*
X67867D02*
X68767D01*
X72267D02*
X73167D01*
X74167D02*
X75067D01*
X75767D02*
X76567D01*
X78067D02*
X78967D01*
X79467D02*
X82467D01*
X49067Y107500D02*
X51067D01*
X55867D02*
X57267D01*
X57467D02*
X59267D01*
X60867D02*
X62267D01*
X65067D02*
X66467D01*
X67867D02*
X68867D01*
X72267D02*
X73167D01*
X74167D02*
X75067D01*
X75767D02*
X76567D01*
X78067D02*
X78967D01*
X79467D02*
X82467D01*
X49267Y107400D02*
X51267D01*
X55867D02*
X57267D01*
X57567D02*
X59367D01*
X60867D02*
X62267D01*
X65067D02*
X66467D01*
X67867D02*
X68867D01*
X72267D02*
X73167D01*
X74167D02*
X75067D01*
X75767D02*
X76567D01*
X78067D02*
X78967D01*
X79467D02*
X82467D01*
X49367Y107300D02*
X51367D01*
X55867D02*
X57267D01*
X57567D02*
X59367D01*
X60867D02*
X62267D01*
X65067D02*
X66467D01*
X67967D02*
X68967D01*
X72267D02*
X73167D01*
X74167D02*
X75067D01*
X75767D02*
X76567D01*
X78067D02*
X78967D01*
X79467D02*
X82467D01*
X49567Y107200D02*
X51567D01*
X55867D02*
X57267D01*
X57767D02*
X59467D01*
X60867D02*
X62267D01*
X65067D02*
X66467D01*
X67967D02*
X69067D01*
X72267D02*
X73167D01*
X74167D02*
X75067D01*
X75767D02*
X76567D01*
X78067D02*
X78967D01*
X79467D02*
X80367D01*
X49667Y107100D02*
X51667D01*
X55867D02*
X57267D01*
X57767D02*
X59567D01*
X60867D02*
X62267D01*
X65067D02*
X66467D01*
X68067D02*
X69167D01*
X71467D02*
X71667D01*
X72267D02*
X73167D01*
X74167D02*
X75067D01*
X75767D02*
X76667D01*
X78067D02*
X78967D01*
X79467D02*
X80367D01*
X81767D02*
X82067D01*
X49767Y107000D02*
X51767D01*
X55867D02*
X57267D01*
X57867D02*
X59667D01*
X60867D02*
X63767D01*
X65067D02*
X66467D01*
X68067D02*
X69267D01*
X71367D02*
X71667D01*
X72267D02*
X73167D01*
X74167D02*
X74967D01*
X75767D02*
X76667D01*
X78067D02*
X78967D01*
X79467D02*
X80467D01*
X81667D02*
X82167D01*
X49967Y106900D02*
X51967D01*
X55867D02*
X57267D01*
X57967D02*
X59767D01*
X60867D02*
X63767D01*
X65067D02*
X66467D01*
X68167D02*
X69367D01*
X71167D02*
X71667D01*
X72267D02*
X73167D01*
X74167D02*
X74967D01*
X75767D02*
X76767D01*
X77967D02*
X78867D01*
X79467D02*
X80467D01*
X81567D02*
X82367D01*
X50067Y106800D02*
X52067D01*
X55867D02*
X57267D01*
X58067D02*
X59867D01*
X60867D02*
X63767D01*
X65067D02*
X66467D01*
X68267D02*
X69567D01*
X70967D02*
X71667D01*
X72267D02*
X73267D01*
X74067D02*
X74967D01*
X75767D02*
X76767D01*
X77867D02*
X78867D01*
X79567D02*
X80467D01*
X81567D02*
X82567D01*
X50267Y106700D02*
X52267D01*
X55867D02*
X57267D01*
X58067D02*
X59867D01*
X60867D02*
X63767D01*
X65067D02*
X66467D01*
X68367D02*
X69867D01*
X70767D02*
X71667D01*
X72367D02*
X73367D01*
X74067D02*
X74967D01*
X75767D02*
X76967D01*
X77767D02*
X78867D01*
X79567D02*
X80667D01*
X81467D02*
X82567D01*
X50367Y106600D02*
X52367D01*
X55867D02*
X57267D01*
X58167D02*
X59967D01*
X60867D02*
X63767D01*
X65067D02*
X66467D01*
X68367D02*
X71667D01*
X72367D02*
X73567D01*
X73767D02*
X74967D01*
X75767D02*
X77267D01*
X77467D02*
X78867D01*
X79667D02*
X80867D01*
X81167D02*
X82467D01*
X50467Y106500D02*
X52467D01*
X55867D02*
X57267D01*
X58267D02*
X60067D01*
X60867D02*
X63767D01*
X65067D02*
X66467D01*
X68467D02*
X71667D01*
X72367D02*
X74967D01*
X75767D02*
X78767D01*
X79667D02*
X82367D01*
X50667Y106400D02*
X52467D01*
X55867D02*
X57267D01*
X58367D02*
X60167D01*
X60867D02*
X63767D01*
X65067D02*
X66467D01*
X68667D02*
X71667D01*
X72467D02*
X74867D01*
X75767D02*
X78667D01*
X79767D02*
X82367D01*
X50767Y106300D02*
X52467D01*
X55867D02*
X57267D01*
X58367D02*
X60267D01*
X60867D02*
X63767D01*
X65067D02*
X66467D01*
X68667D02*
X71667D01*
X72567D02*
X74767D01*
X75767D02*
X78667D01*
X79767D02*
X82267D01*
X50967Y106200D02*
X52467D01*
X55867D02*
X57267D01*
X58467D02*
X60267D01*
X60867D02*
X63767D01*
X65067D02*
X66467D01*
X68867D02*
X71667D01*
X72567D02*
X74767D01*
X75767D02*
X78567D01*
X79867D02*
X82167D01*
X51067Y106100D02*
X52467D01*
X55867D02*
X57267D01*
X58567D02*
X60467D01*
X60867D02*
X63767D01*
X65067D02*
X66467D01*
X69067D02*
X71567D01*
X72767D02*
X74667D01*
X75767D02*
X78367D01*
X80067D02*
X82067D01*
X51267Y106000D02*
X52467D01*
X55867D02*
X57267D01*
X58567D02*
X60467D01*
X60867D02*
X63767D01*
X65067D02*
X66467D01*
X69167D02*
X71367D01*
X72867D02*
X74467D01*
X75767D02*
X76567D01*
X76767D02*
X78267D01*
X80167D02*
X81867D01*
X51367Y105900D02*
X52467D01*
X55967D02*
X57167D01*
X58767D02*
X60367D01*
X60967D02*
X63667D01*
X65167D02*
X66367D01*
X69467D02*
X71067D01*
X73067D02*
X74267D01*
X75867D02*
X76567D01*
X76967D02*
X78067D01*
X80367D02*
X81667D01*
X51467Y105800D02*
X52467D01*
X69967D02*
X70667D01*
X73367D02*
X73967D01*
X77267D02*
X77767D01*
X80667D02*
X81367D01*
X51567Y105700D02*
X52467D01*
X51767Y105600D02*
X52467D01*
X51867Y105500D02*
X52467D01*
X52067Y105400D02*
X52467D01*
X52167Y105300D02*
X52467D01*
D14*
X43757Y1303D02*
Y4451D01*
X45331D01*
X45856Y3926D01*
Y2877D01*
X45331Y2352D01*
X43757D01*
X44807D02*
X45856Y1303D01*
X49005Y3926D02*
X48480Y4451D01*
X47430D01*
X46906Y3926D01*
Y3402D01*
X47430Y2877D01*
X48480D01*
X49005Y2352D01*
Y1827D01*
X48480Y1303D01*
X47430D01*
X46906Y1827D01*
X50054Y4451D02*
X52153D01*
X51104D01*
Y1303D01*
X68087Y4179D02*
Y1030D01*
X69661D01*
X70186Y1555D01*
Y2079D01*
X69661Y2604D01*
X68087D01*
X69661D01*
X70186Y3129D01*
Y3654D01*
X69661Y4179D01*
X68087D01*
X72810D02*
X71760D01*
X71235Y3654D01*
Y1555D01*
X71760Y1030D01*
X72810D01*
X73334Y1555D01*
Y3654D01*
X72810Y4179D01*
X75958D02*
X74909D01*
X74384Y3654D01*
Y1555D01*
X74909Y1030D01*
X75958D01*
X76483Y1555D01*
Y3654D01*
X75958Y4179D01*
X77533D02*
X79632D01*
X78582D01*
Y1030D01*
D15*
X114900Y85038D02*
Y81890D01*
Y83464D01*
X116999D01*
Y85038D01*
Y81890D01*
X118049Y84514D02*
X118573Y85038D01*
X119623D01*
X120148Y84514D01*
Y83989D01*
X119623Y83464D01*
X120148Y82939D01*
Y82415D01*
X119623Y81890D01*
X118573D01*
X118049Y82415D01*
Y82939D01*
X118573Y83464D01*
X118049Y83989D01*
Y84514D01*
X118573Y83464D02*
X119623D01*
X15354Y124015D02*
Y120866D01*
Y122440D01*
X17453D01*
Y124015D01*
Y120866D01*
X20077D02*
Y124015D01*
X18503Y122440D01*
X20602D01*
M02*
