G04*
G04 #@! TF.GenerationSoftware,Altium Limited,Altium Designer,20.2.6 (244)*
G04*
G04 Layer_Physical_Order=2*
G04 Layer_Color=16711680*
%FSLAX25Y25*%
%MOIN*%
G70*
G04*
G04 #@! TF.SameCoordinates,A3B400B8-C857-4583-85C6-9FA4B9C7ABCD*
G04*
G04*
G04 #@! TF.FilePolarity,Positive*
G04*
G01*
G75*
%ADD10C,0.00787*%
%ADD12C,0.00800*%
%ADD15C,0.01000*%
%ADD16R,0.03150X0.03150*%
%ADD24C,0.05512*%
%ADD30C,0.03150*%
%ADD31C,0.01575*%
%ADD32C,0.03150*%
%ADD34C,0.01500*%
%ADD35C,0.03937*%
%ADD36C,0.02000*%
%ADD40O,0.04000X0.04724*%
%ADD41R,0.04000X0.04724*%
%ADD42R,0.05500X0.05500*%
%ADD43C,0.05500*%
%ADD44C,0.02362*%
%ADD45C,0.05653*%
%ADD46R,0.05512X0.04134*%
%ADD47R,0.05610X0.06102*%
%ADD48R,0.01772X0.05433*%
%ADD49R,0.07087X0.07480*%
%ADD50R,0.06496X0.05118*%
%ADD51R,0.03937X0.07480*%
%ADD52R,0.04800X0.02800*%
%ADD53R,0.03400X0.03000*%
%ADD54R,0.02400X0.03900*%
%ADD55R,0.09449X0.05906*%
G04:AMPARAMS|DCode=56|XSize=15.75mil|YSize=23.62mil|CornerRadius=3.94mil|HoleSize=0mil|Usage=FLASHONLY|Rotation=0.000|XOffset=0mil|YOffset=0mil|HoleType=Round|Shape=RoundedRectangle|*
%AMROUNDEDRECTD56*
21,1,0.01575,0.01575,0,0,0.0*
21,1,0.00787,0.02362,0,0,0.0*
1,1,0.00787,0.00394,-0.00787*
1,1,0.00787,-0.00394,-0.00787*
1,1,0.00787,-0.00394,0.00787*
1,1,0.00787,0.00394,0.00787*
%
%ADD56ROUNDEDRECTD56*%
%ADD57R,0.03000X0.03400*%
%ADD58R,0.01968X0.03150*%
%ADD59R,0.03150X0.01968*%
%ADD60R,0.06299X0.06299*%
%ADD61R,0.04000X0.04000*%
%ADD62C,0.04000*%
%ADD63R,0.03400X0.02400*%
%ADD64R,0.06693X0.05709*%
%ADD65R,0.06693X0.12598*%
G04:AMPARAMS|DCode=66|XSize=30mil|YSize=34mil|CornerRadius=0mil|HoleSize=0mil|Usage=FLASHONLY|Rotation=135.000|XOffset=0mil|YOffset=0mil|HoleType=Round|Shape=Rectangle|*
%AMROTATEDRECTD66*
4,1,4,0.02263,0.00141,-0.00141,-0.02263,-0.02263,-0.00141,0.00141,0.02263,0.02263,0.00141,0.0*
%
%ADD66ROTATEDRECTD66*%

%ADD67R,0.02400X0.03400*%
%ADD68C,0.01968*%
%ADD69C,0.01181*%
%ADD70C,0.02953*%
%ADD71C,0.01600*%
G36*
X40945Y118311D02*
X37574D01*
Y118317D01*
X35651Y118166D01*
X33776Y117716D01*
X31995Y116978D01*
X30351Y115970D01*
X28884Y114718D01*
X27632Y113252D01*
X26624Y111608D01*
X25886Y109826D01*
X25436Y107951D01*
X25285Y106029D01*
X25292D01*
Y89272D01*
X25416Y88328D01*
X25477Y88182D01*
X24942Y87382D01*
X23685D01*
Y85216D01*
X25850D01*
Y84626D01*
X26441D01*
Y82221D01*
X26664Y82172D01*
X26942Y81982D01*
X26757Y81870D01*
X27105D01*
X26942Y81982D01*
X27402Y82260D01*
X28016Y82263D01*
Y82264D01*
X29984D01*
Y81870D01*
X31559D01*
Y84626D01*
X32740D01*
Y81870D01*
X34315D01*
Y82461D01*
X36874Y82461D01*
X37674Y82461D01*
X40024Y82461D01*
X40824Y82461D01*
X43878D01*
X44118Y82150D01*
X44368Y81661D01*
X44256Y81102D01*
X44394Y80411D01*
X44786Y79825D01*
X44532Y79032D01*
X38559D01*
X38174Y78956D01*
X37849Y78738D01*
X36472Y77362D01*
X32677D01*
X32515Y77559D01*
X32377Y78250D01*
X31986Y78836D01*
X31400Y79228D01*
X30709Y79365D01*
X30017Y79228D01*
X29431Y78836D01*
X29177Y78456D01*
X28280Y78221D01*
X26166Y80335D01*
X25841Y80552D01*
X25457Y80629D01*
X25432D01*
X25134Y80927D01*
X25058Y81200D01*
X25260Y81456D01*
Y84035D01*
X23685D01*
Y81870D01*
X23179Y81279D01*
X20535D01*
Y78930D01*
X20535Y78130D01*
X20535D01*
Y78130D01*
X20535D01*
Y74425D01*
X17551D01*
X17417Y75101D01*
X17025Y75687D01*
X16439Y76078D01*
X15748Y76216D01*
X15386Y76144D01*
X14586Y76653D01*
Y80825D01*
X14510Y81212D01*
X14290Y81539D01*
X13826Y82003D01*
X13686Y82214D01*
X12555Y83345D01*
Y88253D01*
X12478Y88639D01*
X12259Y88967D01*
X10047Y91180D01*
X10031Y91199D01*
X10030Y91201D01*
X10063Y91818D01*
X10189Y92168D01*
X10775Y92618D01*
X11310Y93316D01*
X11647Y94128D01*
X11761Y95000D01*
X11647Y95872D01*
X11310Y96685D01*
X10775Y97383D01*
X10077Y97918D01*
X9264Y98255D01*
X8557Y98348D01*
X8609Y99148D01*
X10967D01*
X11000Y99141D01*
X11386Y99218D01*
X11714Y99437D01*
X13051Y100775D01*
X13851Y100726D01*
Y100028D01*
X18432D01*
Y103609D01*
X13851D01*
X13602Y104306D01*
Y110400D01*
X13525Y110787D01*
X13306Y111114D01*
X12187Y112233D01*
X12163Y112299D01*
X11852Y112631D01*
X11756Y112749D01*
X11733Y112782D01*
Y112840D01*
X11760Y112882D01*
X11733Y113004D01*
Y118341D01*
X11733D01*
X11844Y119095D01*
X19578D01*
Y124379D01*
X40945D01*
Y118311D01*
D02*
G37*
G36*
X11067Y112949D02*
X11030Y112890D01*
X11020Y112815D01*
X11037Y112725D01*
X11080Y112619D01*
X11150Y112498D01*
X11247Y112362D01*
X11370Y112211D01*
X11696Y111862D01*
X10730Y111697D01*
X10584Y111837D01*
X10314Y112062D01*
X10190Y112146D01*
X10073Y112212D01*
X9963Y112259D01*
X9861Y112288D01*
X9766Y112298D01*
X9679Y112289D01*
X9599Y112262D01*
X11130Y112993D01*
X11067Y112949D01*
D02*
G37*
G36*
X3752Y119000D02*
X4411Y118727D01*
X5052Y118341D01*
X5052Y117886D01*
Y111660D01*
X9385D01*
X9386Y111660D01*
X9387Y111660D01*
X9721D01*
X9742Y111653D01*
X9752Y111654D01*
X9788Y111639D01*
X9852Y111603D01*
X9929Y111551D01*
X10157Y111360D01*
X10287Y111236D01*
X10334Y111217D01*
X10361Y111175D01*
X10397Y111166D01*
X11582Y109982D01*
Y106188D01*
X10782Y106029D01*
X10510Y106685D01*
X9975Y107383D01*
X9277Y107918D01*
X8464Y108255D01*
X7592Y108370D01*
X6720Y108255D01*
X5907Y107918D01*
X5210Y107383D01*
X4674Y106685D01*
X4338Y105872D01*
X4223Y105000D01*
X4338Y104128D01*
X4674Y103315D01*
X5210Y102618D01*
X5907Y102082D01*
X6251Y101940D01*
X6169Y101108D01*
X6051Y101084D01*
X5723Y100865D01*
X3267Y98409D01*
X2467Y98719D01*
Y119044D01*
X3267Y119372D01*
X3752Y119000D01*
D02*
G37*
G36*
X102400Y105693D02*
X102462Y105631D01*
X103062D01*
Y102874D01*
X103201D01*
Y101781D01*
X103084Y101664D01*
X102032D01*
X101509Y101560D01*
X101066Y101264D01*
X100602Y100800D01*
X98297D01*
X98297Y102894D01*
X100699D01*
Y105693D01*
X102400Y105693D01*
D02*
G37*
G36*
X124379Y109488D02*
X111132D01*
Y109488D01*
X100503D01*
Y106250D01*
X100247Y106145D01*
X100060Y105693D01*
Y103533D01*
X98297D01*
X97845Y103346D01*
X97658Y102894D01*
Y102479D01*
X97606Y102469D01*
X97020Y102077D01*
X96628Y101491D01*
X96491Y100800D01*
X96628Y100109D01*
X97020Y99523D01*
X97606Y99131D01*
X97769Y99099D01*
X98032Y98231D01*
X97100Y97298D01*
X95872D01*
X95806Y97395D01*
X95220Y97787D01*
X94529Y97924D01*
X93838Y97787D01*
X93252Y97395D01*
X92860Y96809D01*
X92723Y96118D01*
X92826Y95598D01*
X92791Y95505D01*
X92496Y95187D01*
X92194Y94989D01*
X91567Y95113D01*
X90876Y94976D01*
X90290Y94584D01*
X89898Y93998D01*
X89761Y93307D01*
X89898Y92616D01*
X90290Y92030D01*
X90623Y91807D01*
X91209Y91290D01*
X91209Y90818D01*
Y89710D01*
X74316D01*
X74284Y89716D01*
X73045D01*
X72728Y89928D01*
X72342Y90005D01*
X68918D01*
X68532Y89928D01*
X68204Y89709D01*
X64131Y85636D01*
X62071D01*
Y86791D01*
X56572D01*
X55772Y86791D01*
Y86791D01*
X55772D01*
Y86791D01*
X53422D01*
X52622Y86791D01*
Y86791D01*
X52622D01*
Y86791D01*
X47123D01*
X46323Y86791D01*
Y86791D01*
X46323D01*
Y86791D01*
X40824D01*
X40024Y86791D01*
X39224Y86791D01*
X36874Y86791D01*
X36074Y86791D01*
X34315D01*
Y87382D01*
X32932D01*
X32397Y88182D01*
X32458Y88328D01*
X32582Y89272D01*
Y106029D01*
X32570Y106120D01*
X32729Y107327D01*
X33230Y108536D01*
X34027Y109575D01*
X35066Y110372D01*
X36276Y110873D01*
X37482Y111032D01*
X37574Y111020D01*
X40945D01*
Y93505D01*
X83465D01*
Y124379D01*
X124379D01*
Y109488D01*
D02*
G37*
G36*
X107568Y97706D02*
X107615Y95616D01*
X105148Y93148D01*
X105083Y93124D01*
X104985Y93033D01*
X104903Y92967D01*
X104820Y92911D01*
X104735Y92863D01*
X104649Y92823D01*
X104560Y92790D01*
X104466Y92765D01*
X104368Y92746D01*
X104263Y92734D01*
X104130Y92729D01*
X104066Y92700D01*
X100666D01*
X100360Y93440D01*
X103169Y96249D01*
X103441Y96430D01*
X104686D01*
X105209Y96535D01*
X105652Y96831D01*
X106825Y98004D01*
X107568Y97706D01*
D02*
G37*
G36*
X9266Y92382D02*
X9166Y92320D01*
X9079Y92246D01*
X9003Y92161D01*
X8938Y92064D01*
X8886Y91955D01*
X8845Y91835D01*
X8816Y91704D01*
X8798Y91561D01*
X8792Y91406D01*
X7992D01*
X7986Y91561D01*
X7969Y91704D01*
X7940Y91835D01*
X7898Y91955D01*
X7846Y92064D01*
X7782Y92161D01*
X7705Y92246D01*
X7618Y92320D01*
X7518Y92382D01*
X7407Y92433D01*
X9377D01*
X9266Y92382D01*
D02*
G37*
G36*
X106249Y92256D02*
X106148Y92143D01*
X106069Y92030D01*
X106012Y91917D01*
X105978Y91804D01*
X105967Y91690D01*
X105978Y91577D01*
X106012Y91464D01*
X106026Y91436D01*
X106055Y91421D01*
X106152Y91381D01*
X106253Y91351D01*
X106357Y91330D01*
X106465Y91317D01*
X106576Y91314D01*
X106692Y91320D01*
X105616Y90064D01*
X105605Y90182D01*
X105586Y90297D01*
X105561Y90407D01*
X105528Y90512D01*
X105489Y90614D01*
X105442Y90711D01*
X105389Y90804D01*
X105329Y90891D01*
X105282Y90929D01*
X105158Y91013D01*
X105028Y91087D01*
X104894Y91149D01*
X104755Y91200D01*
X104611Y91240D01*
X104463Y91268D01*
X104310Y91285D01*
X104152Y91290D01*
Y92090D01*
X104310Y92096D01*
X104463Y92113D01*
X104611Y92141D01*
X104755Y92181D01*
X104894Y92232D01*
X105028Y92294D01*
X105158Y92368D01*
X105282Y92453D01*
X105403Y92549D01*
X105518Y92656D01*
X106249Y92256D01*
D02*
G37*
G36*
X109395Y88432D02*
X109317Y88347D01*
X109253Y88261D01*
X109201Y88175D01*
X109163Y88087D01*
X109138Y87999D01*
X109127Y87911D01*
X109128Y87821D01*
X109143Y87731D01*
X109172Y87640D01*
X109213Y87549D01*
X107668Y88070D01*
X107764Y88118D01*
X107964Y88238D01*
X108068Y88310D01*
X108285Y88476D01*
X108514Y88674D01*
X108753Y88903D01*
X109395Y88432D01*
D02*
G37*
G36*
X107324Y86173D02*
X107238Y86256D01*
X107149Y86329D01*
X107057Y86394D01*
X106963Y86450D01*
X106867Y86498D01*
X106768Y86537D01*
X106666Y86567D01*
X106562Y86589D01*
X106455Y86602D01*
X106345Y86606D01*
Y87394D01*
X106455Y87398D01*
X106562Y87411D01*
X106666Y87433D01*
X106768Y87463D01*
X106867Y87502D01*
X106963Y87550D01*
X107057Y87606D01*
X107149Y87671D01*
X107238Y87744D01*
X107324Y87827D01*
Y86173D01*
D02*
G37*
G36*
X71828Y86128D02*
X71859Y86115D01*
X71903Y86103D01*
X71960Y86093D01*
X72030Y86085D01*
X72316Y86069D01*
X72572Y86066D01*
X72287Y84491D01*
X71594Y84503D01*
X71811Y86142D01*
X71828Y86128D01*
D02*
G37*
G36*
X108162Y83013D02*
X107863Y82997D01*
X107595Y82950D01*
X107359Y82871D01*
X107154Y82761D01*
X106981Y82619D01*
X106839Y82446D01*
X106729Y82241D01*
X106650Y82005D01*
X106603Y81737D01*
X106587Y81438D01*
X105013D01*
X104997Y81737D01*
X104950Y82005D01*
X104871Y82241D01*
X104761Y82446D01*
X104619Y82619D01*
X104446Y82761D01*
X104241Y82871D01*
X104005Y82950D01*
X103737Y82997D01*
X103438Y83013D01*
X105800Y84587D01*
X108162Y83013D01*
D02*
G37*
G36*
X47462Y82371D02*
X47385Y82287D01*
X47320Y82201D01*
X47266Y82112D01*
X47224Y82021D01*
X47192Y81927D01*
X47172Y81830D01*
X47162Y81730D01*
X47164Y81628D01*
X47177Y81523D01*
X47202Y81415D01*
X45773Y82247D01*
X45892Y82280D01*
X46115Y82359D01*
X46220Y82404D01*
X46319Y82455D01*
X46414Y82509D01*
X46505Y82568D01*
X46591Y82631D01*
X46672Y82698D01*
X46748Y82770D01*
X47462Y82371D01*
D02*
G37*
G36*
X11900Y80142D02*
X11884Y80040D01*
X11880Y79940D01*
X11887Y79843D01*
X11907Y79748D01*
X11937Y79655D01*
X11980Y79564D01*
X12033Y79476D01*
X12099Y79389D01*
X12176Y79305D01*
X11426Y78924D01*
X11349Y78996D01*
X11269Y79065D01*
X11184Y79129D01*
X11095Y79189D01*
X11001Y79245D01*
X10801Y79346D01*
X10695Y79390D01*
X10469Y79466D01*
X11927Y80246D01*
X11900Y80142D01*
D02*
G37*
G36*
X106627Y77843D02*
X104973D01*
X104981Y77858D01*
X104987Y77886D01*
X104993Y77927D01*
X105003Y78049D01*
X105012Y78454D01*
X105013Y78589D01*
X106587D01*
X106627Y77843D01*
D02*
G37*
G36*
X31846Y77219D02*
X31847Y77167D01*
X31858Y77112D01*
X31878Y77053D01*
X31907Y76992D01*
X31945Y76927D01*
X31992Y76859D01*
X32048Y76788D01*
X32188Y76636D01*
X31631Y76080D01*
X31554Y76154D01*
X31409Y76276D01*
X31341Y76323D01*
X31276Y76361D01*
X31214Y76390D01*
X31156Y76409D01*
X31101Y76420D01*
X31049Y76422D01*
X31000Y76414D01*
X31853Y77268D01*
X31846Y77219D01*
D02*
G37*
G36*
X79710Y76789D02*
X79792Y76719D01*
X79879Y76654D01*
X79968Y76595D01*
X80061Y76540D01*
X80158Y76492D01*
X80257Y76448D01*
X80360Y76410D01*
X80466Y76376D01*
X80576Y76349D01*
X79184Y75538D01*
X79209Y75638D01*
X79224Y75735D01*
X79228Y75831D01*
X79221Y75923D01*
X79203Y76013D01*
X79175Y76101D01*
X79136Y76186D01*
X79086Y76269D01*
X79025Y76349D01*
X78954Y76427D01*
X79630Y76864D01*
X79710Y76789D01*
D02*
G37*
G36*
X26127Y76451D02*
X26261Y76336D01*
X26321Y76292D01*
X26377Y76255D01*
X26430Y76227D01*
X26478Y76208D01*
X26523Y76198D01*
X26563Y76196D01*
X26600Y76202D01*
X25818Y75420D01*
X25824Y75456D01*
X25822Y75497D01*
X25811Y75541D01*
X25792Y75590D01*
X25764Y75642D01*
X25728Y75699D01*
X25683Y75759D01*
X25630Y75824D01*
X25498Y75965D01*
X26055Y76521D01*
X26127Y76451D01*
D02*
G37*
G36*
X58342Y81183D02*
X58361Y81156D01*
X58688Y80937D01*
X59075Y80860D01*
X61480D01*
Y79741D01*
X61081Y79004D01*
X59119D01*
X58732Y78928D01*
X58405Y78709D01*
X57017Y77321D01*
X56798Y76994D01*
X56722Y76607D01*
Y76555D01*
X53606D01*
Y72224D01*
Y67893D01*
X55742D01*
X56188Y67093D01*
X55953Y66712D01*
X53606D01*
Y62382D01*
Y58051D01*
X56466D01*
Y56870D01*
X53606D01*
Y52539D01*
X53016D01*
Y51949D01*
X48685D01*
Y49015D01*
X47504D01*
Y51949D01*
X43173D01*
X38842D01*
Y49015D01*
X37661D01*
Y51949D01*
X33331D01*
X29000D01*
Y48208D01*
X28503Y47648D01*
X28451Y47626D01*
X27804Y47497D01*
X27660Y47401D01*
X26860Y47829D01*
Y54843D01*
X27660Y55352D01*
X28022Y55280D01*
X28200Y55316D01*
X29000Y54720D01*
Y53130D01*
X32740D01*
Y56870D01*
X30465D01*
X30257Y57309D01*
X30766Y58051D01*
X32740D01*
Y62382D01*
X33331D01*
Y62972D01*
X37661D01*
Y66712D01*
X37661D01*
X37452Y67217D01*
X38067Y67833D01*
X38842Y67893D01*
X38842Y67893D01*
X38842Y67893D01*
X42582D01*
Y72224D01*
X43173D01*
Y72815D01*
X47504D01*
Y75634D01*
X48685D01*
Y72815D01*
X52425D01*
Y76555D01*
X51367D01*
X51061Y77294D01*
X54714Y80947D01*
X54933Y81275D01*
X55010Y81661D01*
Y82368D01*
X55772Y82461D01*
Y82461D01*
X57065D01*
X58342Y81183D01*
D02*
G37*
G36*
X69040Y74366D02*
X69129Y74293D01*
X69220Y74228D01*
X69314Y74172D01*
X69411Y74124D01*
X69510Y74085D01*
X69611Y74055D01*
X69716Y74033D01*
X69823Y74020D01*
X69932Y74016D01*
Y73228D01*
X69823Y73224D01*
X69716Y73211D01*
X69611Y73189D01*
X69510Y73159D01*
X69411Y73120D01*
X69314Y73072D01*
X69220Y73016D01*
X69129Y72951D01*
X69040Y72877D01*
X68954Y72795D01*
Y74449D01*
X69040Y74366D01*
D02*
G37*
G36*
X116029Y72262D02*
X115984Y72274D01*
X115929Y72271D01*
X115865Y72252D01*
X115792Y72218D01*
X115710Y72169D01*
X115619Y72105D01*
X115518Y72026D01*
X115290Y71821D01*
X115162Y71696D01*
X114445Y72111D01*
X114560Y72229D01*
X114805Y72519D01*
X114854Y72595D01*
X114887Y72661D01*
X114903Y72717D01*
X114903Y72762D01*
X114887Y72797D01*
X114854Y72821D01*
X116029Y72262D01*
D02*
G37*
G36*
X101146Y72260D02*
X101163Y72256D01*
X101181Y72248D01*
X101201Y72238D01*
X101223Y72224D01*
X101246Y72208D01*
X101297Y72166D01*
X101325Y72140D01*
X101355Y72111D01*
X100638Y71696D01*
X100528Y71804D01*
X100228Y72058D01*
X100138Y72121D01*
X100054Y72171D01*
X99975Y72211D01*
X99902Y72239D01*
X99834Y72256D01*
X99771Y72262D01*
X101130D01*
X101146Y72260D01*
D02*
G37*
G36*
X28732Y71876D02*
X28658Y71796D01*
X28591Y71711D01*
X28533Y71622D01*
X28482Y71528D01*
X28440Y71431D01*
X28405Y71329D01*
X28378Y71222D01*
X28360Y71112D01*
X28349Y70997D01*
X28346Y70878D01*
X27177Y72047D01*
X27296Y72050D01*
X27411Y72061D01*
X27522Y72079D01*
X27628Y72106D01*
X27730Y72141D01*
X27828Y72183D01*
X27921Y72234D01*
X28010Y72292D01*
X28095Y72359D01*
X28175Y72433D01*
X28732Y71876D01*
D02*
G37*
G36*
X89751Y82842D02*
X90207Y82537D01*
X90744Y82430D01*
X91209D01*
Y81709D01*
X95790D01*
Y82095D01*
X97209D01*
Y81709D01*
X101790D01*
Y82395D01*
X103299D01*
X103312Y82386D01*
X103359Y82395D01*
X103361D01*
X103404Y82374D01*
X103665Y82361D01*
X103847Y82328D01*
X103987Y82282D01*
X104088Y82227D01*
X104165Y82165D01*
X104227Y82089D01*
X104282Y81986D01*
X104328Y81847D01*
X104361Y81664D01*
X104374Y81404D01*
X104395Y81361D01*
Y78643D01*
X104373Y78591D01*
X104373Y78463D01*
X104364Y78081D01*
X104360Y78035D01*
X104131Y77691D01*
X103994Y77000D01*
X104131Y76309D01*
X104523Y75723D01*
X105109Y75331D01*
X105800Y75194D01*
X106491Y75331D01*
X107077Y75723D01*
X107469Y76309D01*
X107606Y77000D01*
X107469Y77691D01*
X107258Y78006D01*
X107226Y78623D01*
X107205Y78666D01*
Y81004D01*
X107636Y81093D01*
X108005Y81155D01*
X124379Y80898D01*
Y1606D01*
X121651D01*
X121356Y2406D01*
X121826Y3018D01*
X122222Y3974D01*
X122279Y4409D01*
X118392D01*
X114505D01*
X114562Y3974D01*
X114958Y3018D01*
X115428Y2406D01*
X115133Y1606D01*
X113185D01*
X112791Y2406D01*
X113048Y2740D01*
X113399Y3589D01*
X113519Y4500D01*
X113399Y5411D01*
X113048Y6260D01*
X112488Y6988D01*
X111759Y7548D01*
X110911Y7899D01*
X110000Y8019D01*
X109089Y7899D01*
X108240Y7548D01*
X107512Y6988D01*
X106952Y6260D01*
X106601Y5411D01*
X106481Y4500D01*
X106601Y3589D01*
X106952Y2740D01*
X107209Y2406D01*
X106815Y1606D01*
X100851D01*
X100557Y2406D01*
X101026Y3018D01*
X101422Y3974D01*
X101480Y4409D01*
X97592D01*
X93705D01*
X93762Y3974D01*
X94159Y3018D01*
X94628Y2406D01*
X94333Y1606D01*
X57677Y1606D01*
Y3644D01*
X57890Y3786D01*
X59443Y5339D01*
X61570D01*
X62060Y4700D01*
X62759Y4163D01*
X63573Y3826D01*
X64447Y3711D01*
X65320Y3826D01*
X66134Y4163D01*
X66833Y4700D01*
X67370Y5399D01*
X67707Y6213D01*
X67822Y7087D01*
X67707Y7960D01*
X67370Y8774D01*
X66833Y9473D01*
X66134Y10010D01*
X65320Y10347D01*
X64447Y10462D01*
X64103Y10768D01*
X64125Y12307D01*
X64124Y12309D01*
X64125Y12312D01*
X64034Y12537D01*
X63945Y12761D01*
X63942Y12762D01*
X63942Y12765D01*
X63112Y13606D01*
X63110Y13607D01*
X63109Y13610D01*
X62885Y13702D01*
X62662Y13797D01*
X62590Y14536D01*
Y16669D01*
X63390Y17063D01*
X63396Y17059D01*
X64170Y16739D01*
X64409Y16707D01*
Y20200D01*
Y23693D01*
X64170Y23661D01*
X63396Y23341D01*
X62731Y22831D01*
X62221Y22166D01*
X61307Y22025D01*
X61298Y22028D01*
X60676Y22286D01*
X60331Y22332D01*
X60012Y23144D01*
X61413Y24545D01*
X61601Y24997D01*
Y27825D01*
X61694D01*
X62146Y28013D01*
X62160Y28047D01*
X73744D01*
Y23884D01*
X73744Y23884D01*
X73909Y23337D01*
X73958Y23083D01*
X73955Y23038D01*
X73942Y22946D01*
X73937Y22926D01*
X73694Y22825D01*
X73152Y22410D01*
X72737Y21869D01*
X72709Y21801D01*
X71930Y21628D01*
X71784Y21658D01*
X71306Y22025D01*
X70676Y22286D01*
X70000Y22375D01*
X69324Y22286D01*
X68702Y22028D01*
X68693Y22025D01*
X67779Y22166D01*
X67269Y22831D01*
X66604Y23341D01*
X65830Y23661D01*
X65591Y23693D01*
Y20200D01*
Y16707D01*
X65830Y16739D01*
X66604Y17059D01*
X66609Y17063D01*
X67409Y16669D01*
Y13158D01*
X73160D01*
Y12205D01*
X69095D01*
Y6890D01*
X74215D01*
X75108Y5997D01*
X75468Y5756D01*
X75894Y5672D01*
X75894Y5672D01*
X83161D01*
X83161Y5672D01*
X83587Y5756D01*
X83948Y5997D01*
X84840Y6890D01*
X89961D01*
Y12205D01*
X83268D01*
Y8462D01*
X82701Y7895D01*
X79872D01*
X79362Y8695D01*
X79434Y9055D01*
X79296Y9746D01*
X79213Y9871D01*
X79258Y10098D01*
Y15609D01*
X80065Y16416D01*
X82676D01*
X83063Y16493D01*
X83390Y16712D01*
X83848Y17170D01*
X83867Y17174D01*
X84194Y17392D01*
X84775Y17973D01*
X84994Y18301D01*
X85071Y18687D01*
Y21907D01*
X84994Y22294D01*
X84775Y22622D01*
X83681Y23715D01*
X83661Y24507D01*
X83661Y24507D01*
Y28047D01*
X94761D01*
X94967Y27742D01*
X95106Y27247D01*
X94674Y26685D01*
X94338Y25872D01*
X94223Y25000D01*
X94338Y24128D01*
X94674Y23315D01*
X95210Y22617D01*
X95908Y22082D01*
X96720Y21745D01*
X97592Y21631D01*
X98464Y21745D01*
X99277Y22082D01*
X99941Y22592D01*
X100000Y22615D01*
X100208Y22815D01*
X100401Y22980D01*
X100592Y23123D01*
X100780Y23244D01*
X100966Y23343D01*
X101149Y23423D01*
X101330Y23483D01*
X101511Y23526D01*
X101691Y23552D01*
X101903Y23562D01*
X101947Y23582D01*
X114037D01*
X114081Y23562D01*
X114293Y23552D01*
X114474Y23526D01*
X114654Y23483D01*
X114835Y23423D01*
X115018Y23343D01*
X115204Y23244D01*
X115393Y23123D01*
X115584Y22980D01*
X115777Y22815D01*
X115984Y22615D01*
X116043Y22592D01*
X116707Y22082D01*
X117520Y21745D01*
X118392Y21631D01*
X119264Y21745D01*
X120077Y22082D01*
X120775Y22617D01*
X121310Y23315D01*
X121647Y24128D01*
X121762Y25000D01*
X121647Y25872D01*
X121310Y26685D01*
X120775Y27382D01*
X120077Y27918D01*
X119264Y28255D01*
X118392Y28369D01*
X117520Y28255D01*
X116707Y27918D01*
X116043Y27408D01*
X115984Y27385D01*
X115777Y27185D01*
X115584Y27020D01*
X115392Y26877D01*
X115204Y26757D01*
X115018Y26657D01*
X114835Y26577D01*
X114654Y26517D01*
X114474Y26474D01*
X114293Y26448D01*
X114081Y26439D01*
X114037Y26418D01*
X101947D01*
X101903Y26439D01*
X101691Y26448D01*
X101511Y26474D01*
X101330Y26517D01*
X101149Y26577D01*
X100966Y26657D01*
X100780Y26757D01*
X100592Y26877D01*
X100401Y27020D01*
X100208Y27185D01*
X100000Y27385D01*
X99941Y27408D01*
X99277Y27918D01*
X98464Y28255D01*
X97715Y28353D01*
X97456Y28697D01*
X97274Y29134D01*
X97338Y29230D01*
X97476Y29921D01*
X97338Y30612D01*
X97022Y31086D01*
X97216Y31506D01*
X97451Y31774D01*
X97520Y31745D01*
X98392Y31631D01*
X99264Y31745D01*
X100077Y32082D01*
X100755Y32602D01*
X100808Y32623D01*
X101015Y32824D01*
X101207Y32989D01*
X101398Y33132D01*
X101585Y33253D01*
X101770Y33353D01*
X101953Y33432D01*
X102134Y33493D01*
X102314Y33536D01*
X102494Y33561D01*
X102706Y33571D01*
X102750Y33592D01*
X108864D01*
X108915Y33571D01*
X109270Y33569D01*
X109480Y33562D01*
X109796Y33351D01*
X110487Y33213D01*
X111179Y33351D01*
X111479Y33551D01*
X112076Y33571D01*
X112123Y33592D01*
X113234D01*
X113278Y33571D01*
X113490Y33561D01*
X113671Y33536D01*
X113851Y33493D01*
X114032Y33432D01*
X114214Y33353D01*
X114399Y33253D01*
X114587Y33132D01*
X114777Y32990D01*
X114969Y32824D01*
X115176Y32623D01*
X115229Y32602D01*
X115907Y32082D01*
X116720Y31745D01*
X117592Y31631D01*
X118464Y31745D01*
X119277Y32082D01*
X119975Y32618D01*
X120510Y33315D01*
X120847Y34128D01*
X120961Y35000D01*
X120847Y35872D01*
X120510Y36685D01*
X119975Y37383D01*
X119277Y37918D01*
X118464Y38255D01*
X117592Y38369D01*
X116720Y38255D01*
X115907Y37918D01*
X115256Y37418D01*
X115193Y37394D01*
X114984Y37194D01*
X114790Y37029D01*
X114598Y36887D01*
X114409Y36766D01*
X114223Y36667D01*
X114039Y36587D01*
X113857Y36526D01*
X113677Y36484D01*
X113496Y36458D01*
X113284Y36448D01*
X113240Y36428D01*
X112131D01*
X112081Y36449D01*
X112081Y36449D01*
X112080Y36449D01*
X111635Y36454D01*
X111522Y36459D01*
X111179Y36689D01*
X110487Y36826D01*
X109796Y36689D01*
X109473Y36472D01*
X108875Y36448D01*
X108830Y36428D01*
X102744D01*
X102700Y36448D01*
X102488Y36458D01*
X102308Y36484D01*
X102127Y36526D01*
X101945Y36587D01*
X101762Y36667D01*
X101575Y36766D01*
X101386Y36887D01*
X101194Y37029D01*
X101000Y37194D01*
X100791Y37394D01*
X100728Y37418D01*
X100077Y37918D01*
X99264Y38255D01*
X98392Y38369D01*
X97520Y38255D01*
X96708Y37918D01*
X96010Y37383D01*
X95474Y36685D01*
X95138Y35872D01*
X95023Y35000D01*
X95138Y34128D01*
X95474Y33315D01*
X96010Y32618D01*
X96259Y32426D01*
X95920Y31678D01*
X95669Y31728D01*
X94978Y31590D01*
X94529Y31290D01*
X82401D01*
X82372Y31305D01*
X82350Y31298D01*
X82328Y31308D01*
X81973Y31315D01*
X81393Y31372D01*
X81200Y31413D01*
X81053Y31460D01*
X81008Y31482D01*
X80957Y32248D01*
X80954Y32593D01*
X80925Y32662D01*
Y45930D01*
X80848Y46315D01*
X80631Y46640D01*
X78914Y48357D01*
Y49260D01*
X78885Y49331D01*
Y49579D01*
X78865Y49676D01*
Y52776D01*
X74284D01*
Y49377D01*
X74236Y49260D01*
Y47785D01*
X74301Y47627D01*
X73883Y46827D01*
X73872D01*
X73681Y46749D01*
X72882Y47147D01*
Y52690D01*
X74295Y54104D01*
X74513Y54430D01*
X74589Y54813D01*
Y56982D01*
X76249Y58642D01*
X80034D01*
X80418Y58718D01*
X80743Y58936D01*
X82989Y61181D01*
X83206Y61507D01*
X83283Y61891D01*
Y66933D01*
X83206Y67317D01*
X82989Y67643D01*
X82375Y68256D01*
X82351Y68321D01*
X82294Y68383D01*
X82261Y68426D01*
X82232Y68470D01*
X82207Y68515D01*
X82186Y68564D01*
X82168Y68616D01*
X82154Y68672D01*
X82144Y68735D01*
X82137Y68804D01*
X82135Y68901D01*
X82109Y68960D01*
X82049Y69259D01*
X82558Y70059D01*
X86002D01*
X86472Y69589D01*
X86491Y69561D01*
X91766Y64286D01*
X92094Y64067D01*
X92480Y63990D01*
X93117D01*
X93170Y63963D01*
X93312Y63951D01*
X93429Y63924D01*
X93574Y63872D01*
X93745Y63791D01*
X93938Y63678D01*
X94151Y63533D01*
X94377Y63359D01*
X94898Y62898D01*
X95179Y62620D01*
X95236Y62597D01*
X95908Y62082D01*
X96720Y61745D01*
X97592Y61631D01*
X98464Y61745D01*
X99277Y62082D01*
X99432Y62201D01*
X99536Y62223D01*
X99536Y62224D01*
X99536Y62224D01*
X99900Y62474D01*
X100549Y62890D01*
X101094Y63194D01*
X101314Y63299D01*
X101507Y63378D01*
X101663Y63428D01*
X101776Y63453D01*
X101894Y63463D01*
X101947Y63490D01*
X114038D01*
X114090Y63463D01*
X114209Y63453D01*
X114321Y63428D01*
X114478Y63378D01*
X114670Y63299D01*
X114880Y63199D01*
X116092Y62469D01*
X116448Y62224D01*
X116449Y62224D01*
X116449Y62223D01*
X116552Y62201D01*
X116707Y62082D01*
X117520Y61745D01*
X118392Y61631D01*
X119264Y61745D01*
X120077Y62082D01*
X120775Y62617D01*
X121310Y63315D01*
X121647Y64128D01*
X121762Y65000D01*
X121647Y65872D01*
X121310Y66685D01*
X120775Y67383D01*
X120077Y67918D01*
X119264Y68255D01*
X118392Y68369D01*
X117520Y68255D01*
X116707Y67918D01*
X116010Y67383D01*
X115694Y66971D01*
X115589Y66904D01*
X115378Y66607D01*
X115182Y66356D01*
X114992Y66140D01*
X114811Y65960D01*
X114641Y65816D01*
X114483Y65706D01*
X114339Y65627D01*
X114211Y65577D01*
X114098Y65550D01*
X113943Y65537D01*
X113911Y65521D01*
X113876Y65528D01*
X113848Y65510D01*
X102136D01*
X102108Y65528D01*
X102073Y65521D01*
X102042Y65537D01*
X101887Y65550D01*
X101773Y65577D01*
X101645Y65627D01*
X101502Y65706D01*
X101344Y65816D01*
X101173Y65960D01*
X100999Y66133D01*
X100601Y66614D01*
X100396Y66904D01*
X100291Y66971D01*
X99975Y67383D01*
X99277Y67918D01*
X98464Y68255D01*
X97592Y68369D01*
X96720Y68255D01*
X95908Y67918D01*
X95236Y67403D01*
X95179Y67380D01*
X94898Y67102D01*
X94377Y66641D01*
X94151Y66467D01*
X93938Y66322D01*
X93745Y66209D01*
X93574Y66128D01*
X93429Y66075D01*
X93312Y66049D01*
X93170Y66037D01*
X93117Y66010D01*
X92899D01*
X87919Y70990D01*
X87892Y71008D01*
X87127Y71772D01*
X86801Y71990D01*
X86418Y72066D01*
X78906D01*
X78522Y71990D01*
X78449Y71942D01*
X72905D01*
Y75913D01*
X71377D01*
Y76968D01*
X73721D01*
Y80689D01*
X75076D01*
X75886Y79880D01*
Y76968D01*
X78229D01*
Y76705D01*
X78305Y76321D01*
X78399Y76182D01*
X78417Y76080D01*
X78463Y76048D01*
X78482Y75995D01*
X78533Y75940D01*
X78555Y75911D01*
X78569Y75887D01*
X78578Y75868D01*
X78583Y75853D01*
X78586Y75837D01*
X78587Y75819D01*
X78586Y75795D01*
X78582Y75763D01*
X78564Y75694D01*
X78583Y75569D01*
X78508Y75197D01*
X78646Y74505D01*
X79037Y73919D01*
X79624Y73528D01*
X80315Y73390D01*
X81006Y73528D01*
X81592Y73919D01*
X81984Y74505D01*
X82121Y75197D01*
X81984Y75888D01*
X81592Y76474D01*
X81006Y76866D01*
X80824Y76902D01*
X80739Y76967D01*
X80236Y77530D01*
Y77953D01*
X80216Y78050D01*
Y79112D01*
X81016Y79336D01*
X81234Y79191D01*
X81620Y79114D01*
X82371D01*
X84850Y76636D01*
X85177Y76417D01*
X85564Y76340D01*
X95052D01*
Y71659D01*
X99648D01*
X99679Y71636D01*
X99705Y71630D01*
X99713Y71625D01*
X99718Y71625D01*
X99745Y71612D01*
X99790Y71584D01*
X99837Y71551D01*
X100097Y71330D01*
X100192Y71238D01*
X100261Y71211D01*
X100357Y71114D01*
X100685Y70895D01*
X101072Y70818D01*
X114728D01*
X115115Y70895D01*
X115443Y71114D01*
X115540Y71211D01*
X115609Y71239D01*
X115727Y71354D01*
X115930Y71536D01*
X116001Y71592D01*
X116058Y71632D01*
X116091Y71652D01*
X116108Y71657D01*
X116111Y71659D01*
X120933D01*
Y72014D01*
X121133Y72313D01*
X121210Y72700D01*
Y74747D01*
X121185Y74874D01*
X121210Y75000D01*
X121133Y75387D01*
X120933Y75686D01*
Y78341D01*
X114252D01*
Y72854D01*
X114238Y72838D01*
X101733D01*
Y78341D01*
X96140D01*
X96042Y78360D01*
X85982D01*
X83503Y80839D01*
X83176Y81058D01*
X82789Y81134D01*
X82038D01*
X80100Y83073D01*
X80431Y83873D01*
X88719D01*
X89751Y82842D01*
D02*
G37*
G36*
X60404Y70836D02*
X60417Y70728D01*
X60438Y70624D01*
X60468Y70522D01*
X60507Y70423D01*
X60554Y70327D01*
X60609Y70233D01*
X60673Y70142D01*
X60746Y70055D01*
X60827Y69969D01*
X59173D01*
X59254Y70055D01*
X59327Y70142D01*
X59391Y70233D01*
X59446Y70327D01*
X59493Y70423D01*
X59532Y70522D01*
X59562Y70624D01*
X59583Y70728D01*
X59596Y70836D01*
X59600Y70946D01*
X60400D01*
X60404Y70836D01*
D02*
G37*
G36*
X28960Y69109D02*
X29000Y69072D01*
Y67893D01*
X29000D01*
X29214Y67376D01*
X28424Y66586D01*
X28207Y66260D01*
X28130Y65876D01*
Y59438D01*
X27579Y59134D01*
X26860Y59572D01*
Y67917D01*
X26783Y68303D01*
X26770Y68322D01*
X27025Y68797D01*
X27231Y69073D01*
X27857Y69197D01*
X28200Y69427D01*
X28960Y69109D01*
D02*
G37*
G36*
X81499Y68767D02*
X81509Y68652D01*
X81528Y68541D01*
X81555Y68435D01*
X81589Y68333D01*
X81632Y68235D01*
X81682Y68142D01*
X81741Y68053D01*
X81807Y67968D01*
X81882Y67887D01*
X81325Y67331D01*
X81244Y67405D01*
X81160Y67471D01*
X81071Y67530D01*
X80977Y67580D01*
X80879Y67623D01*
X80777Y67658D01*
X80671Y67684D01*
X80561Y67703D01*
X80446Y67714D01*
X80327Y67716D01*
X81496Y68886D01*
X81499Y68767D01*
D02*
G37*
G36*
X68708Y68840D02*
X68797Y68766D01*
X68888Y68701D01*
X68982Y68645D01*
X69079Y68597D01*
X69178Y68558D01*
X69280Y68528D01*
X69384Y68506D01*
X69491Y68493D01*
X69601Y68489D01*
Y67701D01*
X69491Y67697D01*
X69384Y67684D01*
X69280Y67662D01*
X69178Y67632D01*
X69079Y67593D01*
X68982Y67545D01*
X68888Y67489D01*
X68797Y67424D01*
X68708Y67351D01*
X68622Y67268D01*
Y68922D01*
X68708Y68840D01*
D02*
G37*
G36*
X5463Y69912D02*
X5791Y69693D01*
X6178Y69616D01*
X10464D01*
X13276Y66804D01*
X12945Y66004D01*
X12069D01*
X12016Y66031D01*
X11875Y66043D01*
X11759Y66069D01*
X11614Y66122D01*
X11444Y66203D01*
X11251Y66317D01*
X11037Y66463D01*
X10811Y66637D01*
X10287Y67101D01*
X10006Y67380D01*
X9948Y67403D01*
X9277Y67918D01*
X8464Y68255D01*
X7592Y68370D01*
X6720Y68255D01*
X5907Y67918D01*
X5210Y67383D01*
X4674Y66685D01*
X4338Y65872D01*
X4223Y65000D01*
X4338Y64128D01*
X4674Y63315D01*
X5210Y62618D01*
X5907Y62082D01*
X6720Y61746D01*
X7592Y61631D01*
X8464Y61746D01*
X9277Y62082D01*
X9948Y62597D01*
X10006Y62621D01*
X10287Y62899D01*
X10811Y63363D01*
X11037Y63538D01*
X11251Y63683D01*
X11444Y63797D01*
X11614Y63879D01*
X11759Y63931D01*
X11875Y63958D01*
X12016Y63969D01*
X12069Y63997D01*
X13021D01*
X13294Y63724D01*
X13318Y63659D01*
X13375Y63598D01*
X13409Y63554D01*
X13438Y63510D01*
X13462Y63465D01*
X13483Y63416D01*
X13501Y63365D01*
X13515Y63308D01*
X13526Y63245D01*
X13532Y63177D01*
X13534Y63080D01*
X13560Y63021D01*
X13686Y62391D01*
X14077Y61805D01*
X14663Y61414D01*
X15354Y61276D01*
X16046Y61414D01*
X16632Y61805D01*
X16837Y62112D01*
X17762Y62318D01*
X19680Y60399D01*
X20008Y60180D01*
X20395Y60104D01*
X20535D01*
Y58667D01*
X20256D01*
X19869Y58591D01*
X19542Y58372D01*
X17180Y56010D01*
X12867D01*
X12814Y56037D01*
X12672Y56049D01*
X12555Y56076D01*
X12410Y56128D01*
X12240Y56209D01*
X12047Y56322D01*
X11834Y56467D01*
X11608Y56641D01*
X11086Y57102D01*
X10805Y57380D01*
X10748Y57403D01*
X10077Y57918D01*
X9264Y58255D01*
X8392Y58369D01*
X7520Y58255D01*
X6707Y57918D01*
X6010Y57383D01*
X5474Y56685D01*
X5138Y55872D01*
X5023Y55000D01*
X5138Y54128D01*
X5474Y53316D01*
X6010Y52618D01*
X6707Y52082D01*
X7520Y51746D01*
X8392Y51631D01*
X9264Y51746D01*
X10077Y52082D01*
X10748Y52597D01*
X10805Y52621D01*
X11086Y52898D01*
X11608Y53360D01*
X11833Y53533D01*
X12047Y53678D01*
X12240Y53791D01*
X12410Y53872D01*
X12555Y53925D01*
X12672Y53952D01*
X12814Y53963D01*
X12867Y53990D01*
X16477D01*
X16783Y53251D01*
X11023Y47491D01*
X10965Y47472D01*
X10835Y47359D01*
X10750Y47306D01*
X10672Y47276D01*
X10593Y47261D01*
X10501Y47261D01*
X10387Y47280D01*
X10247Y47325D01*
X10081Y47403D01*
X9892Y47517D01*
X9664Y47682D01*
X9657Y47683D01*
X9654Y47689D01*
X9544Y47713D01*
X9277Y47918D01*
X8464Y48255D01*
X7592Y48370D01*
X6720Y48255D01*
X5907Y47918D01*
X5210Y47383D01*
X4674Y46685D01*
X4338Y45872D01*
X4223Y45000D01*
X4338Y44128D01*
X4674Y43316D01*
X5210Y42618D01*
X5907Y42082D01*
X6720Y41746D01*
X7592Y41631D01*
X8464Y41746D01*
X9152Y42030D01*
X9952Y41712D01*
Y38690D01*
X9504Y38391D01*
X9151Y38270D01*
X8392Y38370D01*
X7520Y38255D01*
X6707Y37918D01*
X6010Y37383D01*
X5474Y36685D01*
X5138Y35872D01*
X5023Y35000D01*
X5138Y34128D01*
X5474Y33316D01*
X6010Y32618D01*
X6707Y32082D01*
X7520Y31746D01*
X8392Y31631D01*
X9264Y31746D01*
X10077Y32082D01*
X10745Y32595D01*
X10883Y32574D01*
X11545Y32307D01*
Y30381D01*
X10042Y28879D01*
X9986Y28861D01*
X9877Y28768D01*
X9775Y28704D01*
X9636Y28639D01*
X9458Y28576D01*
X9241Y28519D01*
X8988Y28471D01*
X8706Y28434D01*
X8010Y28392D01*
X7616Y28389D01*
X7559Y28365D01*
X6720Y28255D01*
X5907Y27918D01*
X5210Y27383D01*
X4674Y26685D01*
X4338Y25872D01*
X4223Y25000D01*
X4338Y24128D01*
X4674Y23315D01*
X5210Y22618D01*
X5907Y22082D01*
X6720Y21746D01*
X7592Y21631D01*
X8464Y21746D01*
X9277Y22082D01*
X9975Y22618D01*
X10510Y23315D01*
X10847Y24128D01*
X10957Y24967D01*
X10981Y25024D01*
X10983Y25418D01*
X11026Y26114D01*
X11063Y26396D01*
X11111Y26649D01*
X11168Y26866D01*
X11231Y27044D01*
X11296Y27183D01*
X11360Y27285D01*
X11453Y27394D01*
X11471Y27451D01*
X13019Y28998D01*
X13819Y28667D01*
Y25864D01*
X18400D01*
Y28964D01*
X18419Y29061D01*
Y29105D01*
X37571D01*
X37927Y28749D01*
X37951Y28685D01*
X38080Y28545D01*
X38122Y28493D01*
X38226Y28351D01*
X38262Y28295D01*
X38399Y28043D01*
X38437Y27959D01*
X38508Y27893D01*
X38823Y27423D01*
X39409Y27031D01*
X40100Y26894D01*
X40791Y27031D01*
X41377Y27423D01*
X41769Y28009D01*
X41906Y28700D01*
X41914Y28731D01*
X42575Y29438D01*
X45981D01*
Y21899D01*
X45973Y21860D01*
Y19628D01*
X44564Y18219D01*
X43969D01*
X43872Y18200D01*
X40623D01*
Y15340D01*
X40623Y14950D01*
X40604Y14853D01*
X39838Y14601D01*
X38458D01*
Y18200D01*
X34127D01*
Y14601D01*
X31706D01*
X31254Y14413D01*
X31067Y13961D01*
Y13730D01*
X28764D01*
Y13961D01*
X28577Y14413D01*
X28125Y14601D01*
X24355D01*
Y18000D01*
X24306Y18117D01*
Y18172D01*
X24284D01*
X24168Y18452D01*
X23716Y18639D01*
X14809D01*
X14692Y18590D01*
X14209Y18591D01*
X14170Y18000D01*
X14170Y17807D01*
X14170Y15000D01*
X14209Y14904D01*
Y14410D01*
X14275D01*
X14905Y13779D01*
Y12318D01*
X14105Y11986D01*
X12692Y13399D01*
X12692Y13400D01*
X12690Y13401D01*
X12648Y13444D01*
X12642Y13458D01*
X12440Y13666D01*
X12109Y14041D01*
X11991Y14195D01*
X11896Y14333D01*
X11827Y14450D01*
X11784Y14540D01*
X11765Y14597D01*
X11761Y14616D01*
X11762Y14668D01*
X11729Y14750D01*
X11761Y15000D01*
X11647Y15872D01*
X11310Y16684D01*
X10775Y17382D01*
X10077Y17918D01*
X9264Y18254D01*
X8392Y18369D01*
X7520Y18254D01*
X6707Y17918D01*
X6010Y17382D01*
X5474Y16684D01*
X5138Y15872D01*
X5023Y15000D01*
X5138Y14128D01*
X5474Y13315D01*
X6010Y12617D01*
X6707Y12082D01*
X7520Y11745D01*
X7904Y11695D01*
X7985Y11639D01*
X8019Y11631D01*
X8038Y11624D01*
X8100Y11590D01*
X8195Y11529D01*
X8303Y11450D01*
X9001Y10834D01*
X9209Y10629D01*
X9224Y10623D01*
X10539Y9307D01*
X10501Y8494D01*
X9766Y8287D01*
X9575Y8434D01*
X8618Y8830D01*
X8418Y8856D01*
X8425Y8806D01*
X8482Y8569D01*
X8562Y8335D01*
X8664Y8101D01*
X8789Y7870D01*
X8937Y7641D01*
X9108Y7413D01*
X9301Y7188D01*
X9517Y6964D01*
X8183D01*
Y5000D01*
X7592D01*
Y4409D01*
X5143D01*
X5270Y3526D01*
X5223Y3582D01*
X5156Y3632D01*
X5069Y3677D01*
X4962Y3715D01*
X4835Y3747D01*
X4689Y3774D01*
X4522Y3794D01*
X4130Y3818D01*
X3904Y3821D01*
Y4409D01*
X3705D01*
X3762Y3974D01*
X4158Y3017D01*
X4628Y2406D01*
X4333Y1606D01*
X2467D01*
X2467Y71798D01*
X3267Y72108D01*
X5463Y69912D01*
D02*
G37*
G36*
X14425Y64575D02*
X14510Y64509D01*
X14599Y64450D01*
X14692Y64400D01*
X14790Y64357D01*
X14892Y64323D01*
X14998Y64296D01*
X15109Y64277D01*
X15223Y64267D01*
X15342Y64264D01*
X14173Y63095D01*
X14171Y63214D01*
X14160Y63328D01*
X14141Y63439D01*
X14115Y63545D01*
X14080Y63647D01*
X14037Y63745D01*
X13987Y63838D01*
X13928Y63928D01*
X13862Y64012D01*
X13787Y64093D01*
X14344Y64650D01*
X14425Y64575D01*
D02*
G37*
G36*
X9850Y66634D02*
X10403Y66144D01*
X10662Y65945D01*
X10909Y65777D01*
X11143Y65639D01*
X11366Y65532D01*
X11577Y65455D01*
X11777Y65409D01*
X11964Y65394D01*
Y64606D01*
X11777Y64591D01*
X11577Y64545D01*
X11366Y64469D01*
X11143Y64362D01*
X10909Y64224D01*
X10662Y64055D01*
X10403Y63856D01*
X9850Y63366D01*
X9556Y63075D01*
Y66925D01*
X9850Y66634D01*
D02*
G37*
G36*
X95628Y63075D02*
X95335Y63365D01*
X94784Y63853D01*
X94526Y64051D01*
X94279Y64219D01*
X94044Y64356D01*
X93821Y64463D01*
X93610Y64539D01*
X93410Y64585D01*
X93221Y64600D01*
Y65400D01*
X93410Y65415D01*
X93610Y65461D01*
X93821Y65537D01*
X94044Y65644D01*
X94279Y65781D01*
X94526Y65949D01*
X94784Y66147D01*
X95335Y66635D01*
X95628Y66925D01*
Y63075D01*
D02*
G37*
G36*
X116811Y62750D02*
X116438Y63007D01*
X115184Y63762D01*
X114929Y63884D01*
X114697Y63978D01*
X114489Y64046D01*
X114305Y64087D01*
X114144Y64100D01*
X113994Y64900D01*
X114198Y64916D01*
X114404Y64965D01*
X114611Y65047D01*
X114820Y65162D01*
X115031Y65309D01*
X115244Y65489D01*
X115458Y65702D01*
X115674Y65947D01*
X115892Y66225D01*
X116111Y66536D01*
X116811Y62750D01*
D02*
G37*
G36*
X100093Y66225D02*
X100527Y65702D01*
X100741Y65489D01*
X100953Y65309D01*
X101164Y65162D01*
X101373Y65047D01*
X101581Y64965D01*
X101786Y64916D01*
X101990Y64900D01*
X101841Y64100D01*
X101680Y64087D01*
X101495Y64046D01*
X101287Y63978D01*
X101056Y63884D01*
X100801Y63762D01*
X100220Y63438D01*
X99546Y63007D01*
X99173Y62750D01*
X99874Y66536D01*
X100093Y66225D01*
D02*
G37*
G36*
X78003Y69913D02*
X78556Y69134D01*
X78508Y68897D01*
X78646Y68206D01*
X79037Y67620D01*
X79624Y67229D01*
X80253Y67103D01*
X80312Y67077D01*
X80409Y67075D01*
X80477Y67069D01*
X80540Y67058D01*
X80597Y67044D01*
X80649Y67026D01*
X80697Y67005D01*
X80742Y66981D01*
X80786Y66952D01*
X80830Y66918D01*
X80891Y66861D01*
X80956Y66837D01*
X81276Y66517D01*
Y62712D01*
X81016Y62519D01*
X80216Y62920D01*
Y64370D01*
X75886D01*
Y62040D01*
X74931D01*
X74544Y61963D01*
X74520Y61947D01*
X73721Y62332D01*
Y64370D01*
X72285D01*
Y65689D01*
X72905D01*
Y69934D01*
X77961D01*
X78003Y69913D01*
D02*
G37*
G36*
X68388Y63357D02*
X68316Y63269D01*
X68252Y63179D01*
X68196Y63085D01*
X68149Y62989D01*
X68111Y62890D01*
X68081Y62788D01*
X68059Y62684D01*
X68047Y62576D01*
X68042Y62466D01*
X67242D01*
X67238Y62576D01*
X67225Y62684D01*
X67204Y62788D01*
X67174Y62890D01*
X67136Y62989D01*
X67089Y63085D01*
X67033Y63179D01*
X66969Y63269D01*
X66897Y63357D01*
X66816Y63442D01*
X68469D01*
X68388Y63357D01*
D02*
G37*
G36*
X29182Y58116D02*
X29134Y58066D01*
X29025Y57938D01*
X29001Y57903D01*
X28984Y57871D01*
X28972Y57844D01*
X28967Y57819D01*
X28969Y57799D01*
X28976Y57782D01*
X28156Y58260D01*
X28170Y58263D01*
X28191Y58275D01*
X28220Y58295D01*
X28256Y58323D01*
X28407Y58460D01*
X28626Y58673D01*
X29182Y58116D01*
D02*
G37*
G36*
X10649Y56635D02*
X11201Y56147D01*
X11459Y55949D01*
X11705Y55781D01*
X11940Y55644D01*
X12163Y55537D01*
X12375Y55461D01*
X12575Y55415D01*
X12763Y55400D01*
Y54600D01*
X12575Y54585D01*
X12375Y54539D01*
X12163Y54463D01*
X11940Y54356D01*
X11705Y54219D01*
X11459Y54051D01*
X11201Y53853D01*
X10649Y53365D01*
X10356Y53075D01*
Y56925D01*
X10649Y56635D01*
D02*
G37*
G36*
X68248Y57279D02*
X68576Y57060D01*
X68962Y56983D01*
X69383D01*
Y55990D01*
X69363Y55893D01*
Y50850D01*
X68842Y50426D01*
X68044Y50624D01*
X67847Y50918D01*
X66698Y52068D01*
X66372Y52285D01*
X66242Y52311D01*
X65811Y52933D01*
Y55492D01*
X66402D01*
Y57067D01*
X63646D01*
Y58248D01*
X66808D01*
X67141Y58386D01*
X68248Y57279D01*
D02*
G37*
G36*
X78275Y47785D02*
X77875D01*
X77175Y48585D01*
X76075Y48585D01*
X75175Y47785D01*
X74875D01*
Y49260D01*
X78275D01*
Y47785D01*
D02*
G37*
G36*
X30068Y46826D02*
X29994Y46745D01*
X29926Y46660D01*
X29868Y46571D01*
X29816Y46477D01*
X29773Y46380D01*
X29738Y46279D01*
X29711Y46174D01*
X29691Y46064D01*
X29680Y45950D01*
X29676Y45833D01*
X28514Y47009D01*
X28632Y47011D01*
X28745Y47022D01*
X28854Y47040D01*
X28960Y47066D01*
X29061Y47101D01*
X29158Y47144D01*
X29251Y47194D01*
X29340Y47253D01*
X29425Y47320D01*
X29506Y47395D01*
X30068Y46826D01*
D02*
G37*
G36*
X67908Y46745D02*
X67911Y46639D01*
X67921Y46533D01*
X67938Y46427D01*
X67961Y46322D01*
X67991Y46217D01*
X68027Y46112D01*
X68070Y46008D01*
X68120Y45904D01*
X68239Y45698D01*
X66627Y46065D01*
X66718Y46127D01*
X66800Y46195D01*
X66872Y46268D01*
X66935Y46347D01*
X66988Y46432D01*
X67031Y46522D01*
X67065Y46619D01*
X67089Y46720D01*
X67103Y46828D01*
X67108Y46941D01*
X67908Y46745D01*
D02*
G37*
G36*
X9539Y46983D02*
X9780Y46838D01*
X10012Y46729D01*
X10235Y46657D01*
X10449Y46622D01*
X10654Y46622D01*
X10850Y46659D01*
X11037Y46732D01*
X11214Y46842D01*
X11383Y46988D01*
X11502Y45976D01*
X11448Y45913D01*
X11371Y45810D01*
X10835Y45003D01*
X9935Y43561D01*
X9289Y47164D01*
X9539Y46983D01*
D02*
G37*
G36*
X35938Y44556D02*
X35864Y44475D01*
X35797Y44390D01*
X35739Y44301D01*
X35689Y44208D01*
X35648Y44110D01*
X35614Y44008D01*
X35589Y43903D01*
X35572Y43792D01*
X35563Y43678D01*
X35562Y43559D01*
X34371Y44706D01*
X34491Y44711D01*
X34606Y44723D01*
X34717Y44744D01*
X34823Y44772D01*
X34925Y44808D01*
X35023Y44851D01*
X35116Y44902D01*
X35205Y44961D01*
X35290Y45028D01*
X35370Y45102D01*
X35938Y44556D01*
D02*
G37*
G36*
X73872Y44588D02*
Y44388D01*
X72271Y42788D01*
X71972D01*
Y46188D01*
X72272Y46188D01*
X73872Y44588D01*
D02*
G37*
G36*
X78275Y46184D02*
Y45885D01*
X75346D01*
Y43260D01*
X78275D01*
Y41785D01*
X77875D01*
X77175Y42585D01*
X76075Y42585D01*
X75175Y41785D01*
X74875D01*
Y42788D01*
X73872D01*
Y43188D01*
X74672Y43888D01*
X74672Y44988D01*
X73872Y45888D01*
Y46188D01*
X74878D01*
X76475Y47785D01*
X76675D01*
X78275Y46184D01*
D02*
G37*
G36*
X21991Y41250D02*
X21906Y41331D01*
X21818Y41404D01*
X21727Y41468D01*
X21634Y41523D01*
X21538Y41570D01*
X21439Y41608D01*
X21337Y41638D01*
X21232Y41660D01*
X21125Y41673D01*
X21015Y41677D01*
Y42477D01*
X21125Y42481D01*
X21232Y42494D01*
X21337Y42515D01*
X21439Y42545D01*
X21538Y42583D01*
X21634Y42630D01*
X21727Y42686D01*
X21818Y42750D01*
X21906Y42822D01*
X21991Y42904D01*
Y41250D01*
D02*
G37*
G36*
X61480Y45855D02*
Y43484D01*
X64349D01*
X64371Y43453D01*
X66453Y41370D01*
X66122Y40570D01*
X62076D01*
X62071Y40573D01*
Y42303D01*
X56362D01*
Y42894D01*
X54787D01*
Y40138D01*
X53606D01*
Y42894D01*
X52031D01*
Y42303D01*
X46323D01*
Y42303D01*
X45523Y42303D01*
X43764D01*
Y42894D01*
X42189D01*
Y40138D01*
Y37382D01*
X43629D01*
X43647Y37292D01*
X43951Y36836D01*
X46919Y33869D01*
Y32182D01*
X46523Y31445D01*
X43415D01*
X42650Y31702D01*
X42513Y32394D01*
X42121Y32980D01*
X41535Y33371D01*
X40844Y33509D01*
X40572Y33455D01*
X40563Y33460D01*
X40540Y33476D01*
X40437Y33564D01*
X40377Y33622D01*
X40242Y33675D01*
X40039Y33811D01*
X39655Y33887D01*
X39287D01*
Y35174D01*
X35706D01*
Y31113D01*
X18518D01*
X18400Y31864D01*
X18448Y32454D01*
X18448Y32454D01*
X18448Y32455D01*
X18448Y32754D01*
X18400Y32872D01*
Y34964D01*
X18419Y35061D01*
Y35309D01*
X18448Y35379D01*
Y35803D01*
X19048Y36294D01*
X19509Y35986D01*
X20200Y35848D01*
X20891Y35986D01*
X21477Y36377D01*
X21869Y36963D01*
X22006Y37655D01*
X21869Y38346D01*
X21477Y38932D01*
X20891Y39323D01*
X20200Y39461D01*
X19509Y39323D01*
X19200Y39117D01*
X18400Y39480D01*
Y40617D01*
X18850Y41067D01*
X20927D01*
X20990Y41038D01*
X21075Y41035D01*
X21130Y41028D01*
X21183Y41017D01*
X21233Y41003D01*
X21282Y40984D01*
X21330Y40960D01*
X21380Y40931D01*
X21430Y40895D01*
X21482Y40853D01*
X21550Y40787D01*
X21610Y40764D01*
X22143Y40408D01*
X22835Y40270D01*
X23476Y40398D01*
X23543Y40397D01*
X24276Y39947D01*
Y37972D01*
X27425Y37972D01*
X28225Y37972D01*
X30575Y37972D01*
X31375Y37972D01*
X36074D01*
X36874Y37972D01*
Y37972D01*
X36874D01*
Y37972D01*
X39433D01*
Y37382D01*
X41008D01*
Y40138D01*
Y42894D01*
X39433D01*
Y42303D01*
X37674D01*
X36874Y42303D01*
D01*
X36874D01*
X36283Y42807D01*
X36104Y43103D01*
X36188Y43523D01*
X36202Y43556D01*
X36202Y43652D01*
X36207Y43719D01*
X36217Y43779D01*
X36230Y43834D01*
X36246Y43885D01*
X36266Y43931D01*
X36290Y43976D01*
X36318Y44019D01*
X36351Y44061D01*
X36408Y44123D01*
X36432Y44187D01*
X36471Y44227D01*
X58305D01*
X58689Y44303D01*
X59015Y44521D01*
X60680Y46187D01*
X61480Y45855D01*
D02*
G37*
G36*
X78275Y40184D02*
Y39885D01*
X74875D01*
X74875Y40185D01*
X76475Y41785D01*
X76675D01*
X78275Y40184D01*
D02*
G37*
G36*
X74242Y39601D02*
X74319Y39522D01*
X74401Y39451D01*
X74488Y39391D01*
X74578Y39339D01*
X74673Y39297D01*
X74772Y39264D01*
X74875Y39241D01*
X74940Y39232D01*
X75231Y39224D01*
X75512Y39222D01*
Y38435D01*
X75231Y38433D01*
X74677Y38401D01*
X74672Y38400D01*
X74568Y38373D01*
X74465Y38338D01*
X74363Y38296D01*
X74262Y38246D01*
X74163Y38188D01*
X74064Y38122D01*
X73967Y38049D01*
X74003Y38344D01*
X73944Y38324D01*
X73904Y38298D01*
Y39359D01*
X73944Y39333D01*
X74012Y39310D01*
X74106Y39289D01*
X74118Y39287D01*
X74168Y39690D01*
X74242Y39601D01*
D02*
G37*
G36*
X72453Y38083D02*
X72435Y38092D01*
X72405Y38100D01*
X72361Y38107D01*
X72305Y38113D01*
X72057Y38126D01*
X71692Y38131D01*
X71541Y39631D01*
X71675Y39632D01*
X72159Y39667D01*
X72219Y39680D01*
X72267Y39695D01*
X72302Y39712D01*
X72325Y39731D01*
X72453Y38083D01*
D02*
G37*
G36*
X51638Y37382D02*
X53200D01*
X53200Y37382D01*
X56213Y37382D01*
X56276Y37066D01*
X56572Y36623D01*
X57259Y35936D01*
X57702Y35640D01*
X58225Y35536D01*
X58845D01*
X60961Y33975D01*
Y30835D01*
X61137D01*
X61694Y30279D01*
X61694Y28465D01*
X60961D01*
Y24997D01*
X58909Y22944D01*
X58181Y23245D01*
Y23743D01*
X55590D01*
Y20200D01*
Y17850D01*
X56988D01*
X56910Y17829D01*
X56839Y17766D01*
X56777Y17661D01*
X56724Y17514D01*
X56678Y17324D01*
X56641Y17093D01*
X56612Y16820D01*
X56604Y16657D01*
X57000D01*
Y14334D01*
X57409D01*
Y13158D01*
X62657D01*
X63486Y12316D01*
X63456Y10299D01*
X62759Y10010D01*
X62060Y9473D01*
X61523Y8774D01*
X61431Y8550D01*
X58778D01*
X58163Y8428D01*
X57642Y8080D01*
X57642Y8080D01*
X56086Y6524D01*
X55947Y6496D01*
X50984D01*
Y4531D01*
X43504D01*
Y6496D01*
X36811D01*
Y1606D01*
X11142D01*
Y7969D01*
X13814Y10640D01*
X14905Y10188D01*
X14905Y7269D01*
X14905Y6679D01*
X14906Y6089D01*
X15427Y6089D01*
X15544Y6040D01*
X15544Y6040D01*
X15821Y6040D01*
X19975D01*
X20093Y6089D01*
X20887D01*
Y6687D01*
X24168Y9967D01*
X24355Y10419D01*
Y13961D01*
X28125D01*
Y13091D01*
X31706D01*
Y13961D01*
X40623D01*
X40623Y13869D01*
X41607Y13850D01*
X41704Y13869D01*
X41804Y13869D01*
X44954D01*
Y13961D01*
X46000D01*
X46000Y16817D01*
X47686Y18503D01*
X47903Y18828D01*
X47980Y19212D01*
Y21828D01*
X47988Y21868D01*
Y29980D01*
X47911Y30365D01*
X47694Y30690D01*
X47233Y31151D01*
X47128Y31221D01*
X47482Y31880D01*
X47498Y32037D01*
X47558Y32182D01*
Y33869D01*
X47371Y34321D01*
X46933Y34758D01*
X46591Y35416D01*
X46591D01*
X46000Y36103D01*
X46000Y37382D01*
X47307D01*
Y40138D01*
X48488D01*
Y37382D01*
X50457D01*
Y40138D01*
X51638D01*
Y37382D01*
D02*
G37*
G36*
X11244Y37071D02*
X11146Y36967D01*
X11063Y36864D01*
X10993Y36763D01*
X10938Y36664D01*
X10898Y36566D01*
X10872Y36470D01*
X10860Y36376D01*
X10863Y36283D01*
X10880Y36192D01*
X10911Y36103D01*
X9767Y37382D01*
X9851Y37341D01*
X9937Y37315D01*
X10024Y37304D01*
X10113Y37307D01*
X10203Y37326D01*
X10295Y37358D01*
X10389Y37406D01*
X10484Y37468D01*
X10580Y37545D01*
X10679Y37637D01*
X11244Y37071D01*
D02*
G37*
G36*
X19211Y37009D02*
X19201Y37016D01*
X19182Y37021D01*
X19152Y37026D01*
X19112Y37030D01*
X18929Y37038D01*
X18654Y37041D01*
Y37829D01*
X18725Y37829D01*
X18939Y37845D01*
X18975Y37852D01*
X19003Y37861D01*
X19024Y37870D01*
X19037Y37881D01*
X19043Y37894D01*
X19211Y37009D01*
D02*
G37*
G36*
X17809Y38454D02*
X16209Y36854D01*
X16009D01*
X14409Y38455D01*
Y38754D01*
X17809D01*
X17809Y38454D01*
D02*
G37*
G36*
X17809Y35379D02*
X14409D01*
Y36854D01*
X14809D01*
X15509Y36055D01*
X16609Y36054D01*
X17509Y36854D01*
X17809D01*
Y35379D01*
D02*
G37*
G36*
X70477Y37430D02*
X69696Y36019D01*
X69682Y36044D01*
X69656Y36067D01*
X69616Y36087D01*
X69562Y36105D01*
X69495Y36119D01*
X69415Y36131D01*
X69215Y36147D01*
X68962Y36153D01*
X69113Y37653D01*
X70477Y37430D01*
D02*
G37*
G36*
X74255Y36677D02*
X74284Y36621D01*
Y36595D01*
X78865D01*
X78918Y35816D01*
Y32662D01*
X78888Y32593D01*
X78885Y32239D01*
X78861Y31635D01*
X78847Y31488D01*
X78790Y31460D01*
X78643Y31413D01*
X78440Y31370D01*
X78184Y31336D01*
X77879Y31315D01*
X77514Y31308D01*
X77493Y31298D01*
X77470Y31305D01*
X77442Y31290D01*
X61601D01*
Y33975D01*
X61581Y34022D01*
X61593Y34071D01*
X61490Y34242D01*
X61413Y34427D01*
X61367Y34447D01*
X61341Y34490D01*
X60953Y34776D01*
X61203Y35536D01*
X68862D01*
X68897Y35517D01*
X68923Y35525D01*
X68948Y35514D01*
X69183Y35509D01*
X69247Y35504D01*
X69564Y35030D01*
X70150Y34638D01*
X70841Y34500D01*
X71533Y34638D01*
X72119Y35030D01*
X72510Y35616D01*
X72648Y36307D01*
X72615Y36472D01*
X73230Y37165D01*
X73230Y37165D01*
X73484Y37216D01*
X74255Y36677D01*
D02*
G37*
G36*
X111350Y35834D02*
X111376Y35829D01*
X111416Y35824D01*
X111616Y35815D01*
X112074Y35810D01*
X112056Y34210D01*
X111324Y34186D01*
X111337Y35839D01*
X111350Y35834D01*
D02*
G37*
G36*
X109651Y34186D02*
X109639Y34190D01*
X109614Y34194D01*
X109575Y34198D01*
X109282Y34208D01*
X108919Y34210D01*
X108901Y35810D01*
X109637Y35839D01*
X109651Y34186D01*
D02*
G37*
G36*
X115621Y33082D02*
X115401Y33296D01*
X115178Y33488D01*
X114952Y33657D01*
X114724Y33804D01*
X114494Y33928D01*
X114262Y34029D01*
X114027Y34108D01*
X113790Y34165D01*
X113550Y34199D01*
X113308Y34210D01*
X113314Y35810D01*
X113556Y35821D01*
X113795Y35855D01*
X114032Y35911D01*
X114268Y35989D01*
X114501Y36090D01*
X114732Y36214D01*
X114961Y36360D01*
X115188Y36528D01*
X115412Y36719D01*
X115635Y36932D01*
X115621Y33082D01*
D02*
G37*
G36*
X100572Y36719D02*
X100797Y36528D01*
X101023Y36360D01*
X101252Y36214D01*
X101484Y36090D01*
X101717Y35989D01*
X101952Y35911D01*
X102189Y35855D01*
X102429Y35821D01*
X102670Y35810D01*
X102676Y34210D01*
X102434Y34199D01*
X102195Y34165D01*
X101957Y34108D01*
X101723Y34029D01*
X101490Y33928D01*
X101260Y33804D01*
X101032Y33657D01*
X100807Y33488D01*
X100584Y33296D01*
X100363Y33082D01*
X100349Y36932D01*
X100572Y36719D01*
D02*
G37*
G36*
X40008Y33090D02*
X40147Y32972D01*
X40211Y32926D01*
X40271Y32890D01*
X40327Y32862D01*
X40380Y32842D01*
X40430Y32832D01*
X40476Y32830D01*
X40518Y32838D01*
X39706Y32018D01*
X39712Y32060D01*
X39710Y32106D01*
X39700Y32156D01*
X39680Y32209D01*
X39651Y32266D01*
X39614Y32326D01*
X39568Y32390D01*
X39513Y32458D01*
X39377Y32605D01*
X39933Y33162D01*
X40008Y33090D01*
D02*
G37*
G36*
X17809Y32454D02*
X16209Y30854D01*
X16009D01*
X14409Y32455D01*
Y32754D01*
X17809D01*
X17809Y32454D01*
D02*
G37*
G36*
X42003Y31440D02*
X42005Y31364D01*
X42018Y31288D01*
X42040Y31210D01*
X42071Y31131D01*
X42113Y31051D01*
X42164Y30970D01*
X42225Y30888D01*
X42295Y30805D01*
X42375Y30720D01*
X41818Y30163D01*
X41734Y30244D01*
X41650Y30315D01*
X41567Y30376D01*
X41486Y30428D01*
X41405Y30470D01*
X41326Y30502D01*
X41248Y30525D01*
X41172Y30538D01*
X41096Y30541D01*
X41022Y30535D01*
X42010Y31514D01*
X42003Y31440D01*
D02*
G37*
G36*
X17809Y29379D02*
X14409D01*
Y30854D01*
X14809D01*
X15509Y30055D01*
X16609Y30054D01*
X17509Y30854D01*
X17809D01*
Y29379D01*
D02*
G37*
G36*
X80318Y32224D02*
X80386Y31192D01*
X80395Y31172D01*
X80495Y31054D01*
X80635Y30952D01*
X80815Y30865D01*
X81035Y30795D01*
X81295Y30739D01*
X81935Y30676D01*
X82315Y30669D01*
X79921Y28668D01*
X77528Y30669D01*
X77908Y30676D01*
X78248Y30700D01*
X78548Y30739D01*
X78808Y30795D01*
X79028Y30865D01*
X79208Y30952D01*
X79348Y31054D01*
X79448Y31172D01*
X79461Y31202D01*
X79499Y31591D01*
X79524Y32224D01*
X79528Y32588D01*
X80315D01*
X80318Y32224D01*
D02*
G37*
G36*
X38778Y29882D02*
X38864Y29817D01*
X38951Y29765D01*
X39039Y29726D01*
X39128Y29700D01*
X39219Y29688D01*
X39310Y29688D01*
X39403Y29701D01*
X39496Y29727D01*
X39591Y29766D01*
X39018Y28226D01*
X38971Y28329D01*
X38812Y28621D01*
X38754Y28711D01*
X38629Y28884D01*
X38562Y28965D01*
X38421Y29118D01*
X38693Y29959D01*
X38778Y29882D01*
D02*
G37*
G36*
X10966Y27808D02*
X10843Y27664D01*
X10734Y27490D01*
X10639Y27287D01*
X10556Y27053D01*
X10487Y26790D01*
X10431Y26497D01*
X10389Y26175D01*
X10344Y25440D01*
X10342Y25028D01*
X7620Y27750D01*
X8032Y27752D01*
X8767Y27797D01*
X9089Y27839D01*
X9382Y27895D01*
X9646Y27964D01*
X9879Y28047D01*
X10082Y28142D01*
X10256Y28251D01*
X10400Y28374D01*
X10966Y27808D01*
D02*
G37*
G36*
X116428Y23075D02*
X116207Y23289D01*
X115983Y23480D01*
X115756Y23649D01*
X115528Y23795D01*
X115298Y23919D01*
X115065Y24020D01*
X114830Y24099D01*
X114592Y24155D01*
X114353Y24189D01*
X114111Y24200D01*
Y25800D01*
X114353Y25811D01*
X114592Y25845D01*
X114830Y25901D01*
X115065Y25980D01*
X115298Y26081D01*
X115528Y26205D01*
X115756Y26351D01*
X115983Y26520D01*
X116207Y26711D01*
X116428Y26925D01*
Y23075D01*
D02*
G37*
G36*
X99778Y26711D02*
X100002Y26520D01*
X100228Y26351D01*
X100456Y26205D01*
X100687Y26081D01*
X100920Y25980D01*
X101155Y25901D01*
X101392Y25845D01*
X101632Y25811D01*
X101873Y25800D01*
Y24200D01*
X101632Y24189D01*
X101392Y24155D01*
X101155Y24099D01*
X100920Y24020D01*
X100687Y23919D01*
X100456Y23795D01*
X100228Y23649D01*
X100002Y23480D01*
X99778Y23289D01*
X99556Y23075D01*
Y26925D01*
X99778Y26711D01*
D02*
G37*
G36*
X79837Y24099D02*
X79925Y24026D01*
X80016Y23962D01*
X80109Y23907D01*
X80206Y23860D01*
X80305Y23821D01*
X80406Y23791D01*
X80511Y23770D01*
X80619Y23757D01*
X80729Y23753D01*
Y22953D01*
X80619Y22949D01*
X80511Y22936D01*
X80406Y22915D01*
X80305Y22885D01*
X80206Y22846D01*
X80109Y22799D01*
X80016Y22744D01*
X79925Y22680D01*
X79837Y22607D01*
X79752Y22526D01*
Y24180D01*
X79837Y24099D01*
D02*
G37*
G36*
X75398Y23127D02*
X75429Y22831D01*
X75456Y22710D01*
X75491Y22608D01*
X75534Y22525D01*
X75584Y22460D01*
X75643Y22414D01*
X75709Y22386D01*
X75783Y22377D01*
X74217D01*
X74291Y22386D01*
X74357Y22414D01*
X74416Y22460D01*
X74466Y22525D01*
X74509Y22608D01*
X74544Y22710D01*
X74571Y22831D01*
X74591Y22970D01*
X74602Y23127D01*
X74606Y23303D01*
X75394D01*
X75398Y23127D01*
D02*
G37*
G36*
X76946Y20911D02*
X76971Y20845D01*
X77014Y20786D01*
X77074Y20735D01*
X77150Y20692D01*
X77244Y20656D01*
X77354Y20629D01*
X77482Y20609D01*
X77627Y20598D01*
X77788Y20594D01*
Y19806D01*
X77627Y19802D01*
X77482Y19791D01*
X77354Y19771D01*
X77244Y19744D01*
X77150Y19708D01*
X77074Y19665D01*
X77014Y19614D01*
X76971Y19555D01*
X76946Y19489D01*
X76937Y19414D01*
Y20986D01*
X76946Y20911D01*
D02*
G37*
G36*
X11122Y14560D02*
X11145Y14435D01*
X11191Y14299D01*
X11262Y14151D01*
X11356Y13990D01*
X11474Y13818D01*
X11616Y13634D01*
X11970Y13232D01*
X12184Y13013D01*
X9657Y11085D01*
X9437Y11302D01*
X8703Y11949D01*
X8557Y12056D01*
X8426Y12141D01*
X8309Y12203D01*
X8207Y12244D01*
X8120Y12263D01*
X11123Y14673D01*
X11122Y14560D01*
D02*
G37*
G36*
X23716Y10419D02*
X19975Y6679D01*
X15544D01*
X15544Y14265D01*
X14809Y15000D01*
X14809Y18000D01*
X23716D01*
Y10419D01*
D02*
G37*
%LPC*%
G36*
X18432Y97610D02*
X13851D01*
Y94028D01*
X15138D01*
Y92220D01*
X13851D01*
Y89610D01*
X13814Y89555D01*
X13730Y89130D01*
X13814Y88704D01*
X13851Y88649D01*
Y88039D01*
X14734D01*
X14842Y88018D01*
X14949Y88039D01*
X17051D01*
X17127Y88024D01*
X17420Y87732D01*
X17745Y87514D01*
X17981Y87467D01*
X18114Y87409D01*
X18210Y87406D01*
X18278Y87401D01*
X18333Y87393D01*
X18373Y87384D01*
X18399Y87376D01*
X18403Y87375D01*
X18408Y87372D01*
X18418Y87362D01*
X18430Y87357D01*
X18432Y87357D01*
X18445Y87324D01*
X18508Y87297D01*
X18605Y87151D01*
X19191Y86760D01*
X19883Y86623D01*
X20574Y86760D01*
X21160Y87151D01*
X21552Y87738D01*
X21689Y88429D01*
X21552Y89120D01*
X21160Y89706D01*
X20574Y90098D01*
X19883Y90235D01*
X19232Y90106D01*
X19182Y90104D01*
X18432Y90553D01*
Y92220D01*
X17145D01*
Y94028D01*
X18432D01*
Y97610D01*
D02*
G37*
%LPD*%
G36*
X18901Y87771D02*
X18860Y87824D01*
X18811Y87871D01*
X18754Y87912D01*
X18689Y87948D01*
X18616Y87979D01*
X18535Y88003D01*
X18445Y88023D01*
X18348Y88037D01*
X18243Y88045D01*
X18129Y88048D01*
Y88835D01*
X18244Y88838D01*
X18351Y88846D01*
X18450Y88859D01*
X18541Y88879D01*
X18624Y88903D01*
X18698Y88933D01*
X18765Y88968D01*
X18823Y89009D01*
X18873Y89055D01*
X18915Y89107D01*
X18901Y87771D01*
D02*
G37*
%LPC*%
G36*
X52425Y71634D02*
X48685D01*
Y67893D01*
X52425D01*
Y71634D01*
D02*
G37*
G36*
X47504D02*
X43764D01*
Y67893D01*
X47504D01*
Y71634D01*
D02*
G37*
G36*
Y66712D02*
X43764D01*
Y62972D01*
X47504D01*
Y66712D01*
D02*
G37*
G36*
X52425D02*
X48685D01*
Y62972D01*
X52425D01*
Y66712D01*
D02*
G37*
G36*
X42582D02*
X38842D01*
Y62972D01*
X42582D01*
Y66712D01*
D02*
G37*
G36*
X52425Y61791D02*
X48685D01*
Y58051D01*
X52425D01*
Y61791D01*
D02*
G37*
G36*
X47504D02*
X43764D01*
Y58051D01*
X47504D01*
Y61791D01*
D02*
G37*
G36*
X42582D02*
X38842D01*
Y58051D01*
X42582D01*
Y61791D01*
D02*
G37*
G36*
X37661D02*
X33921D01*
Y58051D01*
X37661D01*
Y61791D01*
D02*
G37*
G36*
X47504Y56870D02*
X43764D01*
Y53130D01*
X47504D01*
Y56870D01*
D02*
G37*
G36*
X37661D02*
X33921D01*
Y53130D01*
X37661D01*
Y56870D01*
D02*
G37*
G36*
X52425D02*
X48685D01*
Y53130D01*
X52425D01*
Y56870D01*
D02*
G37*
G36*
X42582D02*
X38842D01*
Y53130D01*
X42582D01*
Y56870D01*
D02*
G37*
G36*
X117592Y58369D02*
X116720Y58255D01*
X115907Y57918D01*
X115243Y57408D01*
X115184Y57385D01*
X114977Y57185D01*
X114784Y57020D01*
X114593Y56877D01*
X114404Y56757D01*
X114218Y56657D01*
X114035Y56577D01*
X113854Y56517D01*
X113674Y56474D01*
X113493Y56448D01*
X113281Y56438D01*
X113237Y56418D01*
X102747D01*
X102703Y56438D01*
X102491Y56448D01*
X102311Y56474D01*
X102130Y56516D01*
X101949Y56577D01*
X101766Y56657D01*
X101580Y56757D01*
X101392Y56877D01*
X101201Y57020D01*
X101008Y57185D01*
X100800Y57385D01*
X100741Y57408D01*
X100077Y57918D01*
X99264Y58255D01*
X98392Y58369D01*
X97520Y58255D01*
X96708Y57918D01*
X96103Y57454D01*
X96022Y57423D01*
X95733Y57146D01*
X95197Y56686D01*
X94965Y56512D01*
X94747Y56366D01*
X94550Y56253D01*
X94377Y56171D01*
X94231Y56119D01*
X94116Y56092D01*
X93976Y56081D01*
X93923Y56054D01*
X82362D01*
X82301Y56082D01*
X82299Y56082D01*
X82298Y56083D01*
X82214Y56086D01*
X82162Y56093D01*
X82113Y56103D01*
X82067Y56117D01*
X82022Y56136D01*
X81977Y56159D01*
X81932Y56188D01*
X81885Y56224D01*
X81836Y56267D01*
X81771Y56335D01*
X81726Y56354D01*
X81710Y56378D01*
X81124Y56769D01*
X80433Y56907D01*
X79742Y56769D01*
X79156Y56378D01*
X78764Y55792D01*
X78627Y55100D01*
X78764Y54409D01*
X79156Y53823D01*
X79742Y53431D01*
X80433Y53294D01*
X80542Y53316D01*
X80814Y52936D01*
X80939Y52579D01*
X80610Y52087D01*
X80473Y51396D01*
X80610Y50705D01*
X81002Y50118D01*
X81588Y49727D01*
X81598Y49725D01*
X81628Y49696D01*
X81725Y49658D01*
X81906Y49574D01*
X81972Y49539D01*
X82125Y49445D01*
X82177Y49408D01*
X82303Y49305D01*
X82360Y49251D01*
X82427Y49225D01*
X87361Y44290D01*
X87687Y44073D01*
X88071Y43997D01*
X93115D01*
X93169Y43969D01*
X93310Y43958D01*
X93426Y43931D01*
X93570Y43878D01*
X93740Y43797D01*
X93934Y43683D01*
X94147Y43538D01*
X94374Y43363D01*
X94897Y42899D01*
X95179Y42621D01*
X95236Y42597D01*
X95908Y42082D01*
X96720Y41745D01*
X97592Y41631D01*
X98464Y41745D01*
X99277Y42082D01*
X99941Y42592D01*
X100000Y42615D01*
X100208Y42815D01*
X100401Y42980D01*
X100592Y43123D01*
X100780Y43244D01*
X100966Y43343D01*
X101149Y43423D01*
X101330Y43483D01*
X101511Y43526D01*
X101691Y43552D01*
X101903Y43562D01*
X101947Y43582D01*
X114037D01*
X114081Y43562D01*
X114293Y43552D01*
X114474Y43526D01*
X114654Y43483D01*
X114835Y43423D01*
X115018Y43343D01*
X115204Y43244D01*
X115393Y43123D01*
X115584Y42980D01*
X115777Y42815D01*
X115984Y42615D01*
X116043Y42592D01*
X116707Y42082D01*
X117520Y41745D01*
X118392Y41631D01*
X119264Y41745D01*
X120077Y42082D01*
X120775Y42617D01*
X121310Y43315D01*
X121647Y44128D01*
X121762Y45000D01*
X121647Y45872D01*
X121310Y46685D01*
X120775Y47383D01*
X120077Y47918D01*
X119264Y48255D01*
X118392Y48369D01*
X117520Y48255D01*
X116707Y47918D01*
X116043Y47408D01*
X115984Y47385D01*
X115777Y47185D01*
X115584Y47020D01*
X115392Y46877D01*
X115204Y46757D01*
X115018Y46657D01*
X114835Y46577D01*
X114654Y46517D01*
X114474Y46474D01*
X114293Y46448D01*
X114081Y46439D01*
X114037Y46418D01*
X101947D01*
X101903Y46439D01*
X101691Y46448D01*
X101511Y46474D01*
X101330Y46516D01*
X101149Y46577D01*
X100966Y46657D01*
X100780Y46757D01*
X100592Y46877D01*
X100401Y47020D01*
X100208Y47185D01*
X100000Y47385D01*
X99941Y47408D01*
X99277Y47918D01*
X98464Y48255D01*
X97592Y48369D01*
X96720Y48255D01*
X95908Y47918D01*
X95236Y47403D01*
X95179Y47379D01*
X94897Y47101D01*
X94374Y46637D01*
X94147Y46463D01*
X93934Y46317D01*
X93740Y46203D01*
X93570Y46121D01*
X93426Y46069D01*
X93309Y46042D01*
X93168Y46031D01*
X93115Y46003D01*
X88486D01*
X84086Y50404D01*
X84063Y50468D01*
X84006Y50530D01*
X83981Y50564D01*
X83965Y50590D01*
X83957Y50608D01*
X83953Y50621D01*
X83951Y50630D01*
X83951Y50642D01*
X83953Y50659D01*
X83958Y50685D01*
X83981Y50751D01*
X83975Y50841D01*
X84086Y51396D01*
X83948Y52087D01*
X83556Y52673D01*
X82970Y53065D01*
X82941Y53071D01*
X82573Y53960D01*
X82631Y54047D01*
X93909D01*
X93962Y54019D01*
X94104Y54008D01*
X94221Y53981D01*
X94363Y53929D01*
X94531Y53847D01*
X94721Y53733D01*
X94930Y53587D01*
X95152Y53412D01*
X95662Y52945D01*
X95936Y52665D01*
X95992Y52641D01*
X96010Y52618D01*
X96708Y52082D01*
X97520Y51745D01*
X98392Y51631D01*
X99264Y51745D01*
X100077Y52082D01*
X100742Y52592D01*
X100800Y52615D01*
X101008Y52815D01*
X101201Y52980D01*
X101392Y53123D01*
X101580Y53243D01*
X101766Y53343D01*
X101949Y53423D01*
X102130Y53483D01*
X102311Y53526D01*
X102491Y53552D01*
X102703Y53562D01*
X102747Y53582D01*
X113237D01*
X113281Y53562D01*
X113493Y53552D01*
X113674Y53526D01*
X113854Y53483D01*
X114035Y53423D01*
X114218Y53343D01*
X114404Y53243D01*
X114593Y53123D01*
X114784Y52980D01*
X114977Y52815D01*
X115184Y52615D01*
X115243Y52592D01*
X115907Y52082D01*
X116720Y51745D01*
X117592Y51631D01*
X118464Y51745D01*
X119277Y52082D01*
X119975Y52618D01*
X120510Y53315D01*
X120847Y54128D01*
X120961Y55000D01*
X120847Y55872D01*
X120510Y56685D01*
X119975Y57383D01*
X119277Y57918D01*
X118464Y58255D01*
X117592Y58369D01*
D02*
G37*
G36*
X92051Y24252D02*
X87470D01*
Y20854D01*
X87422Y20736D01*
Y19262D01*
X87508Y19052D01*
X87470Y18252D01*
X87421Y17661D01*
X87421Y17661D01*
X87421Y17661D01*
X87422Y17361D01*
X87470Y17244D01*
Y14071D01*
X90304D01*
X90461Y14040D01*
X93951D01*
X93988Y14023D01*
X94231Y14013D01*
X94429Y13989D01*
X94607Y13949D01*
X94767Y13896D01*
X94911Y13831D01*
X95041Y13752D01*
X95161Y13660D01*
X95272Y13552D01*
X95375Y13425D01*
X95489Y13252D01*
X95559Y13205D01*
X96010Y12618D01*
X96708Y12082D01*
X97520Y11745D01*
X98392Y11631D01*
X99264Y11745D01*
X100077Y12082D01*
X100516Y12419D01*
X115469D01*
X115907Y12082D01*
X116720Y11745D01*
X117592Y11631D01*
X118464Y11745D01*
X119277Y12082D01*
X119975Y12618D01*
X120510Y13315D01*
X120847Y14128D01*
X120961Y15000D01*
X120847Y15872D01*
X120510Y16685D01*
X119975Y17382D01*
X119277Y17918D01*
X118464Y18255D01*
X117592Y18369D01*
X116720Y18255D01*
X115907Y17918D01*
X115469Y17581D01*
X100516D01*
X100077Y17918D01*
X99264Y18255D01*
X98392Y18369D01*
X97520Y18255D01*
X96708Y17918D01*
X96686Y17901D01*
X96628Y17894D01*
X96421Y17773D01*
X96226Y17674D01*
X96028Y17586D01*
X95828Y17511D01*
X95624Y17447D01*
X95418Y17394D01*
X95207Y17354D01*
X94993Y17324D01*
X94774Y17307D01*
X94534Y17300D01*
X94495Y17283D01*
X92153D01*
X92100Y17361D01*
X92100Y17661D01*
X92051Y18252D01*
X92013Y19052D01*
X92100Y19262D01*
Y20736D01*
X92051Y20854D01*
Y24252D01*
D02*
G37*
G36*
X118983Y8887D02*
Y5590D01*
X122279D01*
X122222Y6026D01*
X121826Y6983D01*
X121196Y7804D01*
X120375Y8434D01*
X119418Y8830D01*
X118983Y8887D01*
D02*
G37*
G36*
X98183D02*
Y5590D01*
X101480D01*
X101422Y6026D01*
X101026Y6983D01*
X100396Y7804D01*
X99575Y8434D01*
X98619Y8830D01*
X98183Y8887D01*
D02*
G37*
G36*
X117802Y8887D02*
X117366Y8830D01*
X116410Y8434D01*
X115588Y7804D01*
X114958Y6983D01*
X114562Y6026D01*
X114505Y5590D01*
X117802D01*
Y8887D01*
D02*
G37*
G36*
X97002D02*
X96566Y8830D01*
X95610Y8434D01*
X94789Y7804D01*
X94159Y6983D01*
X93762Y6026D01*
X93705Y5590D01*
X97002D01*
Y8887D01*
D02*
G37*
%LPD*%
G36*
X81393Y55806D02*
X81478Y55730D01*
X81566Y55663D01*
X81658Y55605D01*
X81752Y55556D01*
X81850Y55515D01*
X81951Y55484D01*
X82055Y55462D01*
X82162Y55448D01*
X82272Y55444D01*
X82236Y54656D01*
X82127Y54652D01*
X82021Y54640D01*
X81916Y54619D01*
X81813Y54590D01*
X81713Y54552D01*
X81614Y54506D01*
X81518Y54452D01*
X81423Y54389D01*
X81331Y54318D01*
X81241Y54238D01*
X81311Y55891D01*
X81393Y55806D01*
D02*
G37*
G36*
X96394Y53111D02*
X96107Y53405D01*
X95566Y53899D01*
X95312Y54100D01*
X95069Y54270D01*
X94836Y54409D01*
X94614Y54517D01*
X94403Y54595D01*
X94203Y54641D01*
X94014Y54656D01*
X94028Y55444D01*
X94214Y55459D01*
X94412Y55505D01*
X94623Y55580D01*
X94847Y55686D01*
X95084Y55823D01*
X95334Y55990D01*
X95597Y56187D01*
X96162Y56672D01*
X96464Y56960D01*
X96394Y53111D01*
D02*
G37*
G36*
X115628Y53075D02*
X115407Y53289D01*
X115183Y53480D01*
X114956Y53649D01*
X114728Y53795D01*
X114498Y53919D01*
X114265Y54020D01*
X114030Y54099D01*
X113792Y54155D01*
X113553Y54189D01*
X113311Y54200D01*
Y55800D01*
X113553Y55811D01*
X113792Y55845D01*
X114030Y55901D01*
X114265Y55980D01*
X114498Y56081D01*
X114728Y56205D01*
X114956Y56351D01*
X115183Y56520D01*
X115407Y56711D01*
X115628Y56925D01*
Y53075D01*
D02*
G37*
G36*
X100578Y56711D02*
X100802Y56520D01*
X101028Y56351D01*
X101256Y56205D01*
X101487Y56081D01*
X101720Y55980D01*
X101955Y55901D01*
X102192Y55845D01*
X102432Y55811D01*
X102673Y55800D01*
Y54200D01*
X102432Y54189D01*
X102192Y54155D01*
X101955Y54099D01*
X101720Y54020D01*
X101487Y53919D01*
X101256Y53795D01*
X101028Y53649D01*
X100802Y53480D01*
X100578Y53289D01*
X100356Y53075D01*
Y56925D01*
X100578Y56711D01*
D02*
G37*
G36*
X83342Y50858D02*
X83320Y50759D01*
X83311Y50663D01*
X83314Y50568D01*
X83329Y50475D01*
X83357Y50384D01*
X83397Y50294D01*
X83449Y50207D01*
X83514Y50121D01*
X83591Y50036D01*
X82800Y49714D01*
X82726Y49784D01*
X82565Y49916D01*
X82478Y49978D01*
X82291Y50094D01*
X82190Y50147D01*
X81976Y50245D01*
X81863Y50291D01*
X83376Y50958D01*
X83342Y50858D01*
D02*
G37*
G36*
X116428Y43075D02*
X116207Y43289D01*
X115983Y43480D01*
X115756Y43649D01*
X115528Y43795D01*
X115298Y43919D01*
X115065Y44020D01*
X114830Y44099D01*
X114592Y44155D01*
X114353Y44189D01*
X114111Y44200D01*
Y45800D01*
X114353Y45811D01*
X114592Y45845D01*
X114830Y45901D01*
X115065Y45980D01*
X115298Y46081D01*
X115528Y46205D01*
X115756Y46351D01*
X115983Y46520D01*
X116207Y46711D01*
X116428Y46925D01*
Y43075D01*
D02*
G37*
G36*
X99778Y46711D02*
X100002Y46520D01*
X100228Y46351D01*
X100456Y46205D01*
X100687Y46081D01*
X100920Y45980D01*
X101155Y45901D01*
X101392Y45845D01*
X101632Y45811D01*
X101873Y45800D01*
Y44200D01*
X101632Y44189D01*
X101392Y44155D01*
X101155Y44099D01*
X100920Y44020D01*
X100687Y43919D01*
X100456Y43795D01*
X100228Y43649D01*
X100002Y43480D01*
X99778Y43289D01*
X99556Y43075D01*
Y46925D01*
X99778Y46711D01*
D02*
G37*
G36*
X95628Y43075D02*
X95334Y43366D01*
X94781Y43856D01*
X94523Y44055D01*
X94276Y44223D01*
X94041Y44361D01*
X93818Y44469D01*
X93607Y44545D01*
X93408Y44591D01*
X93221Y44606D01*
Y45394D01*
X93408Y45409D01*
X93607Y45455D01*
X93818Y45531D01*
X94041Y45639D01*
X94276Y45777D01*
X94523Y45945D01*
X94781Y46144D01*
X95334Y46634D01*
X95628Y46925D01*
Y43075D01*
D02*
G37*
G36*
X91461Y19262D02*
X91061D01*
X90361Y20061D01*
X89261Y20062D01*
X88361Y19262D01*
X88061D01*
Y20736D01*
X91461D01*
Y19262D01*
D02*
G37*
G36*
X91461Y17661D02*
Y17361D01*
X88061D01*
X88061Y17661D01*
X89661Y19262D01*
X89861D01*
X91461Y17661D01*
D02*
G37*
G36*
X96023Y13604D02*
X95891Y13805D01*
X95743Y13985D01*
X95580Y14143D01*
X95402Y14281D01*
X95209Y14397D01*
X95000Y14492D01*
X94776Y14566D01*
X94537Y14619D01*
X94283Y14651D01*
X94013Y14661D01*
X94551Y16661D01*
X94808Y16668D01*
X95062Y16689D01*
X95311Y16723D01*
X95557Y16770D01*
X95799Y16831D01*
X96036Y16906D01*
X96271Y16994D01*
X96501Y17096D01*
X96727Y17212D01*
X96949Y17341D01*
X96023Y13604D01*
D02*
G37*
%LPC*%
G36*
X28006Y28172D02*
X24425D01*
Y25469D01*
X24383Y25256D01*
X24425Y25043D01*
Y23091D01*
X25634D01*
X28378Y20346D01*
X29095Y19868D01*
X29940Y19700D01*
X30439D01*
X30611Y19585D01*
X31455Y19417D01*
X35879D01*
X36468Y19534D01*
X38170D01*
Y23715D01*
X36468D01*
X35879Y23833D01*
X32472D01*
X32300Y23947D01*
X31455Y24115D01*
X30854D01*
X28527Y26443D01*
X28526Y26443D01*
X28152Y26818D01*
X28006Y26915D01*
Y28172D01*
D02*
G37*
G36*
X6766Y8856D02*
X6566Y8830D01*
X5610Y8434D01*
X4788Y7803D01*
X4158Y6982D01*
X3762Y6026D01*
X3705Y5590D01*
X4831D01*
X4874Y5628D01*
X4920Y5690D01*
X4949Y5759D01*
X4973Y5590D01*
X7002D01*
Y6964D01*
X5667D01*
X5883Y7188D01*
X6077Y7413D01*
X6247Y7641D01*
X6395Y7870D01*
X6520Y8101D01*
X6623Y8335D01*
X6702Y8569D01*
X6759Y8806D01*
X6766Y8856D01*
D02*
G37*
G36*
X54409Y23743D02*
X51819D01*
Y20790D01*
X54409D01*
Y23743D01*
D02*
G37*
G36*
Y19610D02*
X51819D01*
Y18236D01*
Y16657D01*
X53388D01*
X53359Y17093D01*
X53322Y17324D01*
X53276Y17514D01*
X53223Y17661D01*
X53161Y17766D01*
X53091Y17829D01*
X53012Y17850D01*
X54409D01*
Y19610D01*
D02*
G37*
%LPD*%
D10*
X60334Y47260D02*
Y63495D01*
X58305Y45230D02*
X60334Y47260D01*
X60795Y63957D02*
X63646D01*
X60334Y63495D02*
X60795Y63957D01*
X16042Y90130D02*
X17148Y89023D01*
X17547D01*
X18129Y88441D01*
X19870D01*
X19883Y88429D01*
X36292Y11777D02*
Y16035D01*
X36129Y11614D02*
X36292Y11777D01*
X16142Y90299D02*
X16311Y90130D01*
X114579Y85917D02*
X116448Y87786D01*
Y90219D01*
X113606Y85917D02*
X114579D01*
X112500Y84811D02*
X113606Y85917D01*
X108469Y88062D02*
X110625Y90219D01*
X112511D01*
X102500Y87000D02*
X108167D01*
X108469Y87301D02*
Y88062D01*
X108167Y87000D02*
X108469Y87301D01*
X118468Y89006D02*
X118500Y88974D01*
Y84700D02*
Y88974D01*
X116448Y95731D02*
X118468Y93710D01*
Y89006D02*
Y93710D01*
X44980Y17216D02*
X46976Y19212D01*
X43969Y17216D02*
X44980D01*
X42788Y16035D02*
X43969Y17216D01*
X41607Y14853D02*
X42788Y16035D01*
X46976Y19212D02*
Y21860D01*
X46984Y21868D01*
Y29980D01*
X46523Y30442D02*
X46984Y29980D01*
X42097Y30442D02*
X46523D01*
X40667Y31872D02*
X42097Y30442D01*
X16142Y90299D02*
Y95819D01*
X71878Y53106D02*
X73586Y54813D01*
Y57397D01*
X75834Y59645D01*
X55000Y13360D02*
Y15748D01*
X37987Y30109D02*
X39396Y28700D01*
X40100D01*
X17415Y29061D02*
Y29648D01*
X17877Y30109D01*
X37987D01*
X16309Y27954D02*
X17415Y29061D01*
X16109Y27954D02*
X16309D01*
X40667Y31872D02*
X40836Y31702D01*
X39655Y32883D02*
X40667Y31872D01*
X37496Y32883D02*
X39655D01*
X40836Y31702D02*
X40844D01*
X67439Y41804D02*
X72679D01*
X75000Y20774D02*
Y25150D01*
X75835Y25984D01*
X81273Y20200D02*
X81370Y20297D01*
X75574Y20200D02*
X81273D01*
X34382Y43557D02*
X36056Y45230D01*
X34382Y43525D02*
Y43557D01*
X36056Y45230D02*
X58305D01*
X97450Y55050D02*
X97500Y55000D01*
X80483Y55050D02*
X97450D01*
X80433Y55100D02*
X80483Y55050D01*
X82279Y50792D02*
X88071Y45000D01*
X82279Y50792D02*
Y51396D01*
X28022Y57513D02*
X28904Y58395D01*
X28022Y57087D02*
Y57513D01*
X28904Y58432D02*
X29134Y58661D01*
X28904Y58395D02*
Y58432D01*
X17415Y35061D02*
Y36197D01*
X18654Y37435D02*
X19980D01*
X17415Y36197D02*
X18654Y37435D01*
X19980D02*
X20200Y37655D01*
X16109Y33954D02*
X16309D01*
X17415Y35061D01*
X6437Y100151D02*
X11000D01*
X41607Y14853D02*
X42788Y16035D01*
X36292D02*
X36388Y15939D01*
X65080Y44162D02*
X67439Y41804D01*
X65080Y44162D02*
Y44215D01*
X64236Y45059D02*
X65080Y44215D01*
X67138Y49028D02*
Y50209D01*
X66142Y48031D02*
X67138Y49028D01*
X63823Y48031D02*
X66142D01*
X65988Y51358D02*
X67138Y50209D01*
X71878Y45594D02*
Y53106D01*
X81407Y20797D02*
X82370D01*
X82676Y21103D01*
X60100Y75626D02*
X60401Y75325D01*
Y74198D02*
Y75325D01*
X61194Y73405D02*
X63646D01*
X60401Y74198D02*
X61194Y73405D01*
X63646D02*
X64236Y73996D01*
X65422D01*
X67600Y76174D01*
X68110Y73622D02*
X70386D01*
X70779Y73228D02*
X71173Y73622D01*
X70386Y73622D02*
X70779Y73228D01*
X63646Y70256D02*
X66013D01*
X66695Y70938D01*
X13437Y65000D02*
X15354Y63083D01*
X7992Y65000D02*
X13437D01*
X73374Y38828D02*
X76078D01*
X100000Y89500D02*
X102500Y87000D01*
X23185Y79220D02*
X23590Y79625D01*
X38559Y78029D02*
X47566D01*
X36888Y76358D02*
X38559Y78029D01*
X31909Y76358D02*
X36888D01*
X30709Y77559D02*
X31909Y76358D01*
X47566Y78029D02*
X51047Y81510D01*
X66199Y57586D02*
X67237Y56548D01*
X64909Y57586D02*
X66199D01*
X25850Y81870D02*
X31559D01*
X7592Y85000D02*
X7992D01*
X32945Y87637D02*
X33858Y88550D01*
X32945Y87612D02*
Y87637D01*
X32150Y86816D02*
X32945Y87612D01*
X32150Y84626D02*
Y86816D01*
X25850Y84626D02*
Y86690D01*
X24929Y87612D02*
X25850Y86690D01*
X24929Y87612D02*
Y88063D01*
X24016Y88976D02*
X24929Y88063D01*
X33858Y88550D02*
Y88763D01*
X80034Y59645D02*
X82279Y61891D01*
Y66933D01*
X80315Y68897D02*
X82279Y66933D01*
X67779Y68095D02*
X69977D01*
X70779Y68897D01*
Y67716D02*
Y68897D01*
X77854Y78937D02*
X78248D01*
X75834Y59645D02*
X80034D01*
X64838Y57657D02*
X64909Y57586D01*
X63646Y57657D02*
X64838D01*
X25457Y79625D02*
X29112Y75970D01*
X23590Y79625D02*
X25457D01*
X46063Y81102D02*
Y81528D01*
X47307Y82772D01*
Y84035D01*
X47898Y84626D01*
X51047Y81510D02*
Y84626D01*
X25776Y76243D02*
X26947Y75073D01*
X23013Y76243D02*
X25776D01*
X22701Y76555D02*
X23013Y76243D01*
X63646Y45059D02*
X64236D01*
X79921Y29669D02*
Y45930D01*
X77881Y47971D02*
X79921Y45930D01*
X77881Y47971D02*
Y49579D01*
X76775Y50685D02*
X77881Y49579D01*
X76575Y50685D02*
X76775D01*
X70772Y44488D02*
X71878Y45594D01*
X78906Y71063D02*
X86418D01*
X78781Y70938D02*
X78906Y71063D01*
X66695Y70938D02*
X78781D01*
X72679Y41804D02*
X74856Y43981D01*
X29112Y72813D02*
Y75970D01*
X27165Y70866D02*
X29112Y72813D01*
X57346Y83598D02*
X59075Y81870D01*
X57346Y83598D02*
Y84626D01*
X68701Y81693D02*
X75492D01*
X67600Y80593D02*
X68701Y81693D01*
X67600Y76174D02*
Y80593D01*
X70374Y77953D02*
X71555Y79134D01*
X70374Y74421D02*
Y77953D01*
Y74421D02*
X71173Y73622D01*
X80315Y75197D02*
Y75623D01*
X79232Y76705D02*
X80315Y75623D01*
X79232Y76705D02*
Y77953D01*
X78248Y78937D02*
X79232Y77953D01*
X75492Y81693D02*
X78051Y79134D01*
X86418Y71063D02*
X87205Y70276D01*
X29134Y65876D02*
X30580Y67323D01*
X29134Y58661D02*
Y65876D01*
X79921Y29537D02*
Y29669D01*
X81370Y29411D02*
X81496Y29537D01*
X59957Y43668D02*
Y43681D01*
X73708Y87316D02*
X96816D01*
X7992Y65000D02*
X7992Y65000D01*
X99000Y89500D02*
X99500D01*
X100000D01*
X81370Y26297D02*
Y29411D01*
X63646Y48209D02*
X63823Y48031D01*
X63646Y51358D02*
X65988D01*
X88071Y45000D02*
X97500D01*
X25850Y81870D02*
Y84626D01*
X96816Y87316D02*
X99000Y89500D01*
X116448Y95731D02*
Y101242D01*
X59957Y43668D02*
X60732Y42894D01*
X32150Y83476D02*
Y84626D01*
X60732Y42894D02*
X62732D01*
X54197Y40138D02*
Y41368D01*
X54000Y84429D02*
X54197Y84626D01*
X18200Y123621D02*
Y120472D01*
X16626D01*
X16101Y120997D01*
Y121522D01*
X16626Y122047D01*
X18200D01*
X16626D01*
X16101Y122572D01*
Y123096D01*
X16626Y123621D01*
X18200D01*
X13477D02*
X14527D01*
X15051Y123096D01*
Y120997D01*
X14527Y120472D01*
X13477D01*
X12952Y120997D01*
Y123096D01*
X13477Y123621D01*
X11903D02*
X9804D01*
X10853D01*
Y120472D01*
D12*
X96191Y91690D02*
X105118D01*
X94000Y89500D02*
X96191Y91690D01*
X112511Y100849D02*
Y101242D01*
X82789Y80124D02*
X85564Y77350D01*
X96042D01*
X78667Y83077D02*
X81620Y80124D01*
X67609Y83077D02*
X78667D01*
X81620Y80124D02*
X82789D01*
X12555Y42131D02*
X18633Y48209D01*
X12555Y29963D02*
Y42131D01*
X18633Y48209D02*
X22701D01*
X30683Y48005D02*
X57007D01*
X57476Y66602D02*
X60000Y69126D01*
X57476Y48474D02*
Y66602D01*
X57007Y48005D02*
X57476Y48474D01*
X58866Y47749D02*
Y65165D01*
X33723Y46615D02*
X57732D01*
X58866Y65165D02*
X60639Y66939D01*
X57732Y46615D02*
X58866Y47749D01*
X20101Y63957D02*
X22701D01*
X12186Y71872D02*
Y78730D01*
Y71872D02*
X20101Y63957D01*
X11545Y82926D02*
Y88253D01*
X12972Y81430D02*
X13576Y80825D01*
X12972Y81430D02*
Y81499D01*
X8392Y91406D02*
X11545Y88253D01*
Y82926D02*
X12972Y81499D01*
X8392Y91406D02*
Y95000D01*
X108719Y99221D02*
X109959Y100461D01*
X108719Y95291D02*
Y99221D01*
X109959Y100461D02*
X112123D01*
X112511Y100849D01*
X105118Y91690D02*
X108719Y95291D01*
X78248Y10098D02*
Y16027D01*
X79647Y17426D02*
X82676D01*
X78248Y16027D02*
X79647Y17426D01*
X77627Y9055D02*
Y9478D01*
X78248Y10098D01*
X13576Y73106D02*
Y80825D01*
Y73106D02*
X19576Y67106D01*
X10800Y80116D02*
X12186Y78730D01*
X10800Y80116D02*
Y80600D01*
X82676Y17426D02*
X83357Y18107D01*
X83480D01*
X84061Y18687D01*
Y21907D01*
X3762Y73041D02*
X6178Y70626D01*
X3762Y97476D02*
X6437Y100151D01*
X3762Y73041D02*
Y97476D01*
X10961Y42680D02*
X19640Y51358D01*
X10961Y37354D02*
Y42680D01*
X7837Y35000D02*
X8608D01*
X10961Y37354D01*
X32514Y45828D02*
X32937D01*
X33723Y46615D01*
X28495Y45828D02*
X28501Y45834D01*
X28511D01*
X25850Y44204D02*
X26472Y43582D01*
X23511Y70256D02*
X25850Y67917D01*
Y44204D02*
Y67917D01*
X11000Y100151D02*
X12592Y101743D01*
X7992Y115000D02*
X12592Y110400D01*
Y101743D02*
Y110400D01*
Y102134D02*
X12907Y101819D01*
X16142D01*
X6178Y70626D02*
X10882D01*
X20395Y61114D01*
X67508Y47440D02*
X70373Y50305D01*
X67246Y45059D02*
X67508Y45322D01*
Y47440D01*
X82615Y23353D02*
X84061Y21907D01*
X70373Y55893D02*
X71173Y56693D01*
X78909Y23353D02*
X82615D01*
X68962Y57993D02*
X70373D01*
Y50305D02*
Y55893D01*
Y57993D02*
X71173Y57193D01*
Y56693D02*
Y57193D01*
X67642Y61567D02*
Y64286D01*
Y61567D02*
X69570Y59639D01*
X28511Y45834D02*
X30683Y48005D01*
X48983Y76644D02*
X54000Y81661D01*
X39893Y76644D02*
X48983D01*
X54000Y81661D02*
Y84429D01*
X63646Y60807D02*
X66148D01*
X68962Y57993D01*
X31076Y43582D02*
X32150Y42509D01*
X26472Y43582D02*
X31076D01*
X32150Y40138D02*
Y42509D01*
X20395Y61114D02*
X22394D01*
X22701Y60807D01*
X93500Y89500D02*
X94000D01*
X106665Y90143D02*
X106795D01*
X105118Y91690D02*
X106665Y90143D01*
X101072Y71828D02*
X114728D01*
X98100Y74800D02*
X101072Y71828D01*
X114728D02*
X115600Y72700D01*
X7592Y25000D02*
X12555Y29963D01*
X73540Y59639D02*
X74931Y61030D01*
X76876D01*
X78051Y62204D01*
X96042Y77350D02*
X98392Y75000D01*
X117592D02*
X117992D01*
X115600Y72700D02*
X120200D01*
X97361Y65000D02*
X97561Y65200D01*
X97592Y65169D02*
X98261Y64500D01*
X69570Y59639D02*
X73540D01*
X61081Y77995D02*
X62520Y76555D01*
X59119Y77995D02*
X61081D01*
X57731Y76607D02*
X59119Y77995D01*
X57731Y74645D02*
Y76607D01*
Y74645D02*
X60000Y72376D01*
X30580Y67323D02*
X36129D01*
X38011Y69205D01*
Y74762D01*
X39893Y76644D01*
X59075Y81870D02*
X63760D01*
X117992Y65000D02*
X118392D01*
X16309Y39954D02*
X18431Y42077D01*
X22835D01*
X8392Y55000D02*
X17599D01*
X20256Y57657D02*
X22701D01*
X17599Y55000D02*
X20256Y57657D01*
X7592Y45000D02*
X7992D01*
X19468Y54508D02*
X22701D01*
X9961Y45000D02*
X19468Y54508D01*
X7992Y45000D02*
X9961D01*
X19640Y51358D02*
X22701D01*
X19576Y67106D02*
X22701D01*
X15748Y74410D02*
X16742Y73415D01*
X7592Y105000D02*
X7992D01*
X68918Y88995D02*
X72342D01*
X64549Y84626D02*
X68918Y88995D01*
X60496Y84626D02*
X64549D01*
X69494Y87604D02*
X71766D01*
X63760Y81870D02*
X69494Y87604D01*
X16742Y73415D02*
X22691D01*
X22701Y70256D02*
X23511D01*
X60639Y66939D02*
X63478D01*
X64236Y79705D02*
X67609Y83077D01*
X117992Y75000D02*
X120200D01*
X74284Y88706D02*
X74290Y88700D01*
X72630Y88706D02*
X74284D01*
X72342Y88995D02*
X72630Y88706D01*
X72054Y87316D02*
X73708D01*
X71766Y87604D02*
X72054Y87316D01*
X92700Y88700D02*
X93500Y89500D01*
X74290Y88700D02*
X92700D01*
X16109Y39954D02*
X16309D01*
X87205Y70276D02*
X92480Y65000D01*
X22691Y73415D02*
X22701Y73405D01*
X92480Y65000D02*
X97361D01*
X63646Y79705D02*
X64236D01*
X120200Y72792D02*
Y74747D01*
Y72700D02*
Y72792D01*
X116815Y65515D02*
X117330Y65000D01*
X117992D01*
X115800Y64500D02*
X116815Y65515D01*
X97592Y65000D02*
Y65169D01*
X97561Y65200D02*
X97592Y65169D01*
X117992Y75000D02*
X120200Y72792D01*
X98261Y64500D02*
X115800D01*
X63478Y66939D02*
X63646Y67106D01*
X62520Y76555D02*
X63646D01*
X60000Y69126D02*
Y72376D01*
D15*
X73524Y9154D02*
X75894Y6784D01*
X85532Y9154D02*
X86614D01*
X83161Y6784D02*
X85532Y9154D01*
X75894Y6784D02*
X83161D01*
X72705Y9154D02*
X73524D01*
X15842Y90130D02*
X16042D01*
X14842Y89130D02*
X15842Y90130D01*
X75000Y19626D02*
Y20200D01*
X74272Y15020D02*
X75000Y15748D01*
X72705Y9154D02*
X74272Y10721D01*
Y15020D01*
X71173Y67441D02*
Y67979D01*
X70504Y67441D02*
X71173D01*
Y63082D02*
Y67441D01*
X97500Y45000D02*
X97592D01*
X65000Y14500D02*
Y15748D01*
X22701Y79705D02*
X23185Y79220D01*
D16*
X71555Y62204D02*
D03*
X78051D02*
D03*
X42788Y16035D02*
D03*
X36292D02*
D03*
X78051Y79134D02*
D03*
X71555D02*
D03*
D24*
X64447Y7087D02*
D03*
D30*
X5512Y122047D02*
D03*
X110000Y4500D02*
D03*
D31*
X112214Y106181D02*
Y110710D01*
X112524Y111020D01*
X99676Y100951D02*
X102082Y103356D01*
X98448Y100951D02*
X99676D01*
X98297Y100800D02*
X98448Y100951D01*
X105800Y77000D02*
Y83800D01*
X99800D02*
X105800D01*
X111787D01*
X112500Y84676D02*
Y84700D01*
Y84513D02*
Y84676D01*
X111787Y83800D02*
X112500Y84513D01*
X99500Y83500D02*
X99800Y83800D01*
X48685Y32980D02*
Y34090D01*
X7592Y5000D02*
Y10230D01*
X7545Y10278D02*
X7592Y10230D01*
X7200Y4608D02*
X7592Y5000D01*
X3904Y4608D02*
X7200D01*
X3705Y4409D02*
X3904Y4608D01*
X29000Y84626D02*
Y87965D01*
X70866Y85433D02*
X71017Y85282D01*
X71573D01*
X71578Y85278D01*
X89302D01*
X93165Y83835D02*
X93500Y83500D01*
X90744Y83835D02*
X93165D01*
X89302Y85278D02*
X90744Y83835D01*
X93500Y83500D02*
X99500D01*
X44945Y37830D02*
Y39941D01*
X44748Y40138D02*
X44945Y39941D01*
Y37830D02*
X48685Y34090D01*
X47898Y35828D02*
Y40138D01*
X51047Y37207D02*
Y39058D01*
D32*
X29940Y21907D02*
X31455D01*
X26966Y24882D02*
X29940Y21907D01*
X26965Y24882D02*
X26966D01*
X26590Y25256D02*
X26965Y24882D01*
X49575Y26583D02*
X50425Y27434D01*
X26472Y8079D02*
X32497D01*
X21936Y3543D02*
X26472Y8079D01*
X15407Y3543D02*
X21936D01*
X8392Y14577D02*
X12901Y10068D01*
Y6049D02*
Y10068D01*
Y6049D02*
X15407Y3543D01*
X8392Y14577D02*
Y15000D01*
X31455Y21625D02*
X35879D01*
X55000Y20000D02*
X55000Y20000D01*
Y15748D02*
Y20000D01*
X55000Y15748D02*
X55000Y15748D01*
X50500Y27559D02*
Y33126D01*
X49575Y21251D02*
Y26583D01*
X50425Y27434D02*
Y27484D01*
X50500Y27559D01*
D34*
X97666Y95931D02*
X102032Y100297D01*
X95326Y95931D02*
X97666D01*
X102032Y100297D02*
X103650D01*
X102466Y97478D02*
X102596D01*
X91691Y93431D02*
X98418D01*
X102466Y97478D01*
X102915Y97797D02*
X104686D01*
X102596Y97478D02*
X102915Y97797D01*
X107068Y100179D02*
Y104215D01*
X107170Y104317D01*
Y106181D01*
X104641Y106211D02*
X104670Y106181D01*
X107170D02*
X107200Y106211D01*
X103650Y100297D02*
X104568Y101215D01*
Y106078D01*
X104670Y106181D01*
X104686Y97797D02*
X107068Y100179D01*
X91567Y93307D02*
X91691Y93431D01*
X94694Y95953D02*
X95304D01*
X95326Y95931D01*
X94529Y96118D02*
X94694Y95953D01*
X71287Y38881D02*
X73321D01*
X70964Y39203D02*
X71287Y38881D01*
X70608Y36307D02*
X70841D01*
X70012Y36903D02*
X70608Y36307D01*
X73321Y38881D02*
X73374Y38828D01*
X61609Y39203D02*
X70964D01*
X57539Y37589D02*
Y39945D01*
X57346Y40138D02*
X57539Y39945D01*
X58225Y36903D02*
X70012D01*
X57539Y37589D02*
X58225Y36903D01*
X60730Y39403D02*
X61409D01*
X61609Y39203D01*
X60496Y39637D02*
X60730Y39403D01*
X60496Y39637D02*
Y40138D01*
D35*
X75000Y15748D02*
Y19626D01*
X65000Y15748D02*
Y20000D01*
X50000Y12598D02*
Y20626D01*
X117592Y15000D02*
X117992D01*
X98392D02*
X117992D01*
X97500D02*
X98392D01*
D36*
X57234Y29669D02*
X59842D01*
X57000Y29435D02*
Y33126D01*
X89761Y16161D02*
X89961D01*
X90461Y15662D01*
X96838D01*
X97500Y15000D01*
X59842Y29528D02*
X59912Y29597D01*
X59842Y29528D02*
Y29669D01*
X60240D02*
X79921D01*
X95416D01*
X59912Y29597D02*
X60168D01*
X60240Y29669D01*
X53800Y36326D02*
X57000Y33126D01*
Y26226D02*
Y29435D01*
Y26226D02*
X57052Y26174D01*
X95416Y29669D02*
X95669Y29921D01*
X57000Y29435D02*
X57234Y29669D01*
D40*
X60000Y19400D02*
D03*
X75000Y20200D02*
D03*
X65000D02*
D03*
X70000Y19400D02*
D03*
D41*
X55000Y20200D02*
D03*
D42*
X98392Y75000D02*
D03*
X8392Y115000D02*
D03*
X117592Y75000D02*
D03*
D43*
X98392Y55000D02*
D03*
X97592Y45000D02*
D03*
Y65000D02*
D03*
X98392Y35000D02*
D03*
X97592Y25000D02*
D03*
X98392Y15000D02*
D03*
X97592Y5000D02*
D03*
X7592Y25000D02*
D03*
X8392Y35000D02*
D03*
X7592Y45000D02*
D03*
X8392Y55000D02*
D03*
X7592Y65000D02*
D03*
Y105000D02*
D03*
X8392Y95000D02*
D03*
X7592Y85000D02*
D03*
X7992Y75000D02*
D03*
X8392Y15000D02*
D03*
X7592Y5000D02*
D03*
X117592Y35000D02*
D03*
X118392Y45000D02*
D03*
X117592Y55000D02*
D03*
X118392Y65000D02*
D03*
Y25000D02*
D03*
X117592Y15000D02*
D03*
X118392Y5000D02*
D03*
D44*
X121966Y79430D02*
D03*
X98297Y100800D02*
D03*
X120342Y121949D02*
D03*
X108719Y113500D02*
D03*
X96042Y113300D02*
D03*
X91800Y121555D02*
D03*
X91567Y93307D02*
D03*
X94529Y96118D02*
D03*
X39764Y22410D02*
D03*
X17059Y80116D02*
D03*
X19883Y88429D02*
D03*
X10800Y80600D02*
D03*
X21557Y20000D02*
D03*
X10500D02*
D03*
X77627Y9055D02*
D03*
X39562Y103987D02*
D03*
X40100Y28700D02*
D03*
X31909Y25456D02*
D03*
X31455Y21907D02*
D03*
X41992Y36454D02*
D03*
X40844Y31702D02*
D03*
X59842Y29528D02*
D03*
X34382Y43525D02*
D03*
X32514Y45828D02*
D03*
X28495D02*
D03*
X31496Y50863D02*
D03*
X80433Y55100D02*
D03*
X82279Y51396D02*
D03*
X28022Y67827D02*
D03*
Y57087D02*
D03*
X20200Y37655D02*
D03*
X3705Y101108D02*
D03*
X85243Y26498D02*
D03*
X77114Y33315D02*
D03*
X67246Y45059D02*
D03*
X66695Y33379D02*
D03*
X70841Y36307D02*
D03*
X78909Y23353D02*
D03*
X67398Y54508D02*
D03*
X67642Y64286D02*
D03*
X89761Y22162D02*
D03*
X94529Y20000D02*
D03*
Y10000D02*
D03*
X55000Y15748D02*
D03*
X81628Y3386D02*
D03*
X68110Y73622D02*
D03*
X15354Y63083D02*
D03*
X17959Y60478D02*
D03*
X82558Y82565D02*
D03*
X108770Y121949D02*
D03*
X85564Y99207D02*
D03*
X108167Y87000D02*
D03*
X106795Y90143D02*
D03*
X111522Y79741D02*
D03*
X3937Y68898D02*
D03*
X92443Y108255D02*
D03*
X27522Y33593D02*
D03*
X24039Y109744D02*
D03*
X80034Y65689D02*
D03*
X99606Y79921D02*
D03*
X105800Y77000D02*
D03*
X33858Y88763D02*
D03*
X67779Y68095D02*
D03*
X60100Y75626D02*
D03*
X83071Y73415D02*
D03*
X122835Y69685D02*
D03*
X95669Y29921D02*
D03*
X102362Y9449D02*
D03*
X113386D02*
D03*
X122047Y9843D02*
D03*
X3937Y9449D02*
D03*
X4724Y50000D02*
D03*
X3937Y109449D02*
D03*
X31496Y74016D02*
D03*
X35039Y71260D02*
D03*
X41339Y64173D02*
D03*
X51575Y60630D02*
D03*
X54724Y63779D02*
D03*
X46063Y81102D02*
D03*
X27165D02*
D03*
X32515Y119000D02*
D03*
X24016Y88976D02*
D03*
X23716Y104306D02*
D03*
X34000Y93307D02*
D03*
Y98032D02*
D03*
Y102292D02*
D03*
X13851Y117520D02*
D03*
X39224Y120288D02*
D03*
X39622Y109449D02*
D03*
X85564Y122958D02*
D03*
X24016Y93307D02*
D03*
X85564Y115041D02*
D03*
Y92030D02*
D03*
X54787D02*
D03*
X73230Y38972D02*
D03*
X63779Y42126D02*
D03*
X26947Y75073D02*
D03*
X80315Y75197D02*
D03*
Y68897D02*
D03*
X22835Y42077D02*
D03*
X27165Y70866D02*
D03*
X15748Y74410D02*
D03*
X33331Y36454D02*
D03*
X59957Y43681D02*
D03*
X35827Y80709D02*
D03*
X55512Y79921D02*
D03*
X110487Y35020D02*
D03*
X46847Y92030D02*
D03*
X104220Y94619D02*
D03*
X70866Y85433D02*
D03*
X81890Y77953D02*
D03*
X102362Y68504D02*
D03*
Y59842D02*
D03*
Y49606D02*
D03*
Y40157D02*
D03*
X113779Y68898D02*
D03*
X4724Y59842D02*
D03*
X30709Y77559D02*
D03*
X41000Y80626D02*
D03*
X83071Y59055D02*
D03*
X86002Y43188D02*
D03*
X40087Y92030D02*
D03*
X39622Y98438D02*
D03*
X121057Y113000D02*
D03*
X31500Y60126D02*
D03*
X35000Y54126D02*
D03*
X45000Y74126D02*
D03*
Y60626D02*
D03*
X41500Y70626D02*
D03*
X34000Y62626D02*
D03*
X62731Y92030D02*
D03*
X37674Y88700D02*
D03*
X82676Y33351D02*
D03*
X51000Y72126D02*
D03*
X60000Y69126D02*
D03*
X12919Y23223D02*
D03*
X114567Y29921D02*
D03*
X115500Y40000D02*
D03*
X114500Y20500D02*
D03*
X116142Y60236D02*
D03*
X115500Y49500D02*
D03*
X87533Y33379D02*
D03*
X51500Y51126D02*
D03*
X45000Y50626D02*
D03*
X54500Y53626D02*
D03*
X27076Y115714D02*
D03*
X103500Y20500D02*
D03*
X41500Y54126D02*
D03*
X70841Y92030D02*
D03*
X85564Y107124D02*
D03*
X24016Y98032D02*
D03*
X79037Y92030D02*
D03*
D45*
X37574Y114665D02*
G03*
X28937Y106029I0J-8637D01*
G01*
Y89272D02*
Y106029D01*
X37574Y114665D02*
X44291D01*
D46*
X40157Y3839D02*
D03*
X54331D02*
D03*
X40157Y9547D02*
D03*
X54331D02*
D03*
X72441Y3839D02*
D03*
X86614D02*
D03*
X72441Y9547D02*
D03*
X86614D02*
D03*
D47*
X116880Y106535D02*
D03*
X97304D02*
D03*
D48*
X112214Y106181D02*
D03*
X101979D02*
D03*
X109656D02*
D03*
X104538D02*
D03*
X107097D02*
D03*
D49*
X102559Y117441D02*
D03*
D50*
X93789D02*
D03*
X120384D02*
D03*
D51*
X113189D02*
D03*
D52*
X17897Y8079D02*
D03*
X32497D02*
D03*
D53*
X16142Y84130D02*
D03*
Y90130D02*
D03*
X16500Y16500D02*
D03*
Y22500D02*
D03*
X89761Y16161D02*
D03*
Y22162D02*
D03*
X16109Y39954D02*
D03*
Y33954D02*
D03*
Y27954D02*
D03*
X76575Y38685D02*
D03*
Y50685D02*
D03*
X35879Y27625D02*
D03*
Y21625D02*
D03*
D54*
X29916Y15631D02*
D03*
X22516D02*
D03*
X26216Y25631D02*
D03*
D55*
X116448Y95276D02*
D03*
D56*
X120385Y100787D02*
D03*
X116448D02*
D03*
X112511D02*
D03*
X120385Y89764D02*
D03*
X116448D02*
D03*
X112511D02*
D03*
D57*
X50500Y33126D02*
D03*
X44500D02*
D03*
X70772Y44488D02*
D03*
X76772D02*
D03*
X69835Y26174D02*
D03*
X75835D02*
D03*
X43500Y21126D02*
D03*
X49500D02*
D03*
X63052Y26174D02*
D03*
X57052D02*
D03*
X63052Y33126D02*
D03*
X57052D02*
D03*
X44500Y27126D02*
D03*
X50500D02*
D03*
X118500Y84700D02*
D03*
X112500D02*
D03*
D58*
X60496Y40138D02*
D03*
X57346D02*
D03*
X54197D02*
D03*
X51047D02*
D03*
X47898D02*
D03*
X44748D02*
D03*
X41598D02*
D03*
X38449D02*
D03*
X35299D02*
D03*
X32150D02*
D03*
X29000D02*
D03*
X25850D02*
D03*
Y84626D02*
D03*
X29000D02*
D03*
X32150D02*
D03*
X35299D02*
D03*
X38449D02*
D03*
X41598D02*
D03*
X44748D02*
D03*
X47898D02*
D03*
X51047D02*
D03*
X54197D02*
D03*
X57346D02*
D03*
X60496D02*
D03*
D59*
X22701Y45059D02*
D03*
Y48209D02*
D03*
Y51358D02*
D03*
Y54508D02*
D03*
Y57657D02*
D03*
Y60807D02*
D03*
Y63957D02*
D03*
Y67106D02*
D03*
Y70256D02*
D03*
Y73405D02*
D03*
Y76555D02*
D03*
Y79705D02*
D03*
X63646D02*
D03*
Y76555D02*
D03*
Y73405D02*
D03*
Y70256D02*
D03*
Y67106D02*
D03*
Y63957D02*
D03*
Y60807D02*
D03*
Y57657D02*
D03*
Y54508D02*
D03*
Y51358D02*
D03*
Y48209D02*
D03*
Y45059D02*
D03*
D60*
X43173Y62382D02*
D03*
Y72224D02*
D03*
X53016D02*
D03*
Y62382D02*
D03*
Y52539D02*
D03*
X43173D02*
D03*
X33331D02*
D03*
Y62382D02*
D03*
Y72224D02*
D03*
D61*
X75000Y15748D02*
D03*
X70000D02*
D03*
X65000D02*
D03*
X60000D02*
D03*
D62*
X55000D02*
D03*
D63*
X16142Y95819D02*
D03*
Y101819D02*
D03*
X81370Y26297D02*
D03*
Y20297D02*
D03*
X93500Y83500D02*
D03*
Y89500D02*
D03*
X99500Y83500D02*
D03*
Y89500D02*
D03*
D64*
X44291Y114665D02*
D03*
Y121555D02*
D03*
D65*
X80118Y118110D02*
D03*
D66*
X31879Y111707D02*
D03*
X36121Y107465D02*
D03*
D67*
X37496Y32883D02*
D03*
X31496D02*
D03*
X71173Y56693D02*
D03*
X77173D02*
D03*
X77114Y73622D02*
D03*
X71114D02*
D03*
X77114Y67979D02*
D03*
X71114D02*
D03*
D68*
X55020Y3839D02*
X56102Y4921D01*
X56755D01*
X58778Y6944D01*
X54331Y3839D02*
X55020D01*
X58778Y6944D02*
X65000D01*
X41071Y2925D02*
X54331D01*
X40157Y3839D02*
X41071Y2925D01*
D69*
X118500Y79623D02*
Y84700D01*
X121740Y79204D02*
X121966Y79430D01*
X120957Y79204D02*
X121740D01*
X120684Y78931D02*
X120957Y79204D01*
X118500Y79623D02*
X119192Y78931D01*
X120684D01*
X22516Y15631D02*
X23072Y15076D01*
X22516Y15631D02*
Y15813D01*
X17134Y15866D02*
X22462D01*
X22516Y15813D01*
X16500Y16500D02*
X17134Y15866D01*
D70*
X112500Y84676D02*
X112524Y84700D01*
X55000Y20000D02*
Y20200D01*
D71*
X18968Y8079D02*
X19968D01*
X110497Y35010D02*
X117802D01*
X97592Y25000D02*
X118392D01*
X98392Y55000D02*
X117592D01*
X97592Y45000D02*
X118392D01*
X110487Y35020D02*
X110497Y35010D01*
X117802D02*
X117832Y35039D01*
X110477Y35010D02*
X110487Y35020D01*
X98402Y35010D02*
X110477D01*
X98392Y35000D02*
X98402Y35010D01*
X97500Y55000D02*
X98392D01*
X97500Y25000D02*
X97592D01*
M02*
