G04*
G04 #@! TF.GenerationSoftware,Altium Limited,Altium Designer,20.2.6 (244)*
G04*
G04 Layer_Color=8388736*
%FSLAX25Y25*%
%MOIN*%
G70*
G04*
G04 #@! TF.SameCoordinates,A3B400B8-C857-4583-85C6-9FA4B9C7ABCD*
G04*
G04*
G04 #@! TF.FilePolarity,Negative*
G04*
G01*
G75*
%ADD17R,0.04000X0.05591*%
%ADD18R,0.04000X0.04599*%
%ADD19R,0.04000X0.05037*%
%ADD20R,0.04051X0.04962*%
%ADD21R,0.04000X0.05399*%
%ADD22R,0.03543X0.03543*%
%ADD23C,0.06299*%
%ADD24C,0.05512*%
%ADD25O,0.04394X0.05118*%
%ADD26R,0.04394X0.05118*%
%ADD27R,0.05894X0.05894*%
%ADD28C,0.05894*%
%ADD29C,0.01811*%
D17*
X55000Y17405D02*
D03*
D18*
X60000Y17100D02*
D03*
D19*
X65000Y17319D02*
D03*
D20*
X69974Y17281D02*
D03*
D21*
X75000Y17500D02*
D03*
D22*
X50127Y76493D02*
D03*
X56623D02*
D03*
X50127Y67893D02*
D03*
X56623D02*
D03*
Y29626D02*
D03*
X50127D02*
D03*
D23*
X110000Y4500D02*
D03*
X5512Y122047D02*
D03*
D24*
X64447Y7087D02*
D03*
D25*
X60000Y19400D02*
D03*
X75000Y20200D02*
D03*
X65000D02*
D03*
X70000Y19400D02*
D03*
D26*
X55000Y20200D02*
D03*
D27*
X98392Y75000D02*
D03*
X8392Y115000D02*
D03*
X117592Y75000D02*
D03*
D28*
X98392Y55000D02*
D03*
X97592Y45000D02*
D03*
Y65000D02*
D03*
X98392Y35000D02*
D03*
X97592Y25000D02*
D03*
X98392Y15000D02*
D03*
X97592Y5000D02*
D03*
X7592Y25000D02*
D03*
X8392Y35000D02*
D03*
X7592Y45000D02*
D03*
X8392Y55000D02*
D03*
X7592Y65000D02*
D03*
Y105000D02*
D03*
X8392Y95000D02*
D03*
X7592Y85000D02*
D03*
X7992Y75000D02*
D03*
X8392Y15000D02*
D03*
X7592Y5000D02*
D03*
X117592Y35000D02*
D03*
X118392Y45000D02*
D03*
X117592Y55000D02*
D03*
X118392Y65000D02*
D03*
Y25000D02*
D03*
X117592Y15000D02*
D03*
X118392Y5000D02*
D03*
D29*
X121966Y79430D02*
D03*
X98297Y100800D02*
D03*
X120342Y121949D02*
D03*
X108719Y113500D02*
D03*
X96042Y113300D02*
D03*
X91800Y121555D02*
D03*
X91567Y93307D02*
D03*
X94529Y96118D02*
D03*
X39764Y22410D02*
D03*
X17059Y80116D02*
D03*
X19883Y88429D02*
D03*
X10800Y80600D02*
D03*
X21557Y20000D02*
D03*
X10500D02*
D03*
X77627Y9055D02*
D03*
X39562Y103987D02*
D03*
X40100Y28700D02*
D03*
X31909Y25456D02*
D03*
X31455Y21907D02*
D03*
X41992Y36454D02*
D03*
X40844Y31702D02*
D03*
X59842Y29528D02*
D03*
X34382Y43525D02*
D03*
X32514Y45828D02*
D03*
X28495D02*
D03*
X31496Y50863D02*
D03*
X80433Y55100D02*
D03*
X82279Y51396D02*
D03*
X28022Y67827D02*
D03*
Y57087D02*
D03*
X20200Y37655D02*
D03*
X3705Y101108D02*
D03*
X85243Y26498D02*
D03*
X77114Y33315D02*
D03*
X67246Y45059D02*
D03*
X66695Y33379D02*
D03*
X70841Y36307D02*
D03*
X78909Y23353D02*
D03*
X67398Y54508D02*
D03*
X67642Y64286D02*
D03*
X89761Y22162D02*
D03*
X94529Y20000D02*
D03*
Y10000D02*
D03*
X55000Y15748D02*
D03*
X81628Y3386D02*
D03*
X68110Y73622D02*
D03*
X15354Y63083D02*
D03*
X17959Y60478D02*
D03*
X82558Y82565D02*
D03*
X108770Y121949D02*
D03*
X85564Y99207D02*
D03*
X108167Y87000D02*
D03*
X106795Y90143D02*
D03*
X111522Y79741D02*
D03*
X3937Y68898D02*
D03*
X92443Y108255D02*
D03*
X27522Y33593D02*
D03*
X24039Y109744D02*
D03*
X80034Y65689D02*
D03*
X99606Y79921D02*
D03*
X105800Y77000D02*
D03*
X33858Y88763D02*
D03*
X67779Y68095D02*
D03*
X60100Y75626D02*
D03*
X83071Y73415D02*
D03*
X122835Y69685D02*
D03*
X95669Y29921D02*
D03*
X102362Y9449D02*
D03*
X113386D02*
D03*
X122047Y9843D02*
D03*
X3937Y9449D02*
D03*
X4724Y50000D02*
D03*
X3937Y109449D02*
D03*
X31496Y74016D02*
D03*
X35039Y71260D02*
D03*
X41339Y64173D02*
D03*
X51575Y60630D02*
D03*
X54724Y63779D02*
D03*
X46063Y81102D02*
D03*
X27165D02*
D03*
X32515Y119000D02*
D03*
X24016Y88976D02*
D03*
X23716Y104306D02*
D03*
X34000Y93307D02*
D03*
Y98032D02*
D03*
Y102292D02*
D03*
X13851Y117520D02*
D03*
X39224Y120288D02*
D03*
X39622Y109449D02*
D03*
X85564Y122958D02*
D03*
X24016Y93307D02*
D03*
X85564Y115041D02*
D03*
Y92030D02*
D03*
X54787D02*
D03*
X73230Y38972D02*
D03*
X63779Y42126D02*
D03*
X26947Y75073D02*
D03*
X80315Y75197D02*
D03*
Y68897D02*
D03*
X22835Y42077D02*
D03*
X27165Y70866D02*
D03*
X15748Y74410D02*
D03*
X33331Y36454D02*
D03*
X59957Y43681D02*
D03*
X35827Y80709D02*
D03*
X55512Y79921D02*
D03*
X110487Y35020D02*
D03*
X46847Y92030D02*
D03*
X104220Y94619D02*
D03*
X70866Y85433D02*
D03*
X81890Y77953D02*
D03*
X102362Y68504D02*
D03*
Y59842D02*
D03*
Y49606D02*
D03*
Y40157D02*
D03*
X113779Y68898D02*
D03*
X4724Y59842D02*
D03*
X30709Y77559D02*
D03*
X41000Y80626D02*
D03*
X83071Y59055D02*
D03*
X86002Y43188D02*
D03*
X40087Y92030D02*
D03*
X39622Y98438D02*
D03*
X121057Y113000D02*
D03*
X31500Y60126D02*
D03*
X35000Y54126D02*
D03*
X45000Y74126D02*
D03*
Y60626D02*
D03*
X41500Y70626D02*
D03*
X34000Y62626D02*
D03*
X62731Y92030D02*
D03*
X37674Y88700D02*
D03*
X82676Y33351D02*
D03*
X51000Y72126D02*
D03*
X60000Y69126D02*
D03*
X12919Y23223D02*
D03*
X114567Y29921D02*
D03*
X115500Y40000D02*
D03*
X114500Y20500D02*
D03*
X116142Y60236D02*
D03*
X115500Y49500D02*
D03*
X87533Y33379D02*
D03*
X51500Y51126D02*
D03*
X45000Y50626D02*
D03*
X54500Y53626D02*
D03*
X27076Y115714D02*
D03*
X103500Y20500D02*
D03*
X41500Y54126D02*
D03*
X70841Y92030D02*
D03*
X85564Y107124D02*
D03*
X24016Y98032D02*
D03*
X79037Y92030D02*
D03*
M02*
