G04*
G04 #@! TF.GenerationSoftware,Altium Limited,Altium Designer,20.2.6 (244)*
G04*
G04 Layer_Physical_Order=1*
G04 Layer_Color=255*
%FSLAX25Y25*%
%MOIN*%
G70*
G04*
G04 #@! TF.SameCoordinates,A3B400B8-C857-4583-85C6-9FA4B9C7ABCD*
G04*
G04*
G04 #@! TF.FilePolarity,Positive*
G04*
G01*
G75*
%ADD10C,0.00787*%
%ADD12C,0.00800*%
%ADD15C,0.01000*%
%ADD16R,0.03150X0.03150*%
%ADD17R,0.04000X0.05591*%
%ADD24C,0.05512*%
%ADD30C,0.03150*%
%ADD31C,0.01575*%
%ADD32C,0.03150*%
%ADD33C,0.04000*%
%ADD34C,0.01500*%
%ADD35C,0.03937*%
%ADD36C,0.02000*%
%ADD37R,0.04000X0.05762*%
%ADD38R,0.04000X0.05153*%
%ADD39R,0.04000X0.04962*%
%ADD40O,0.04000X0.04724*%
%ADD41R,0.04000X0.04724*%
%ADD42R,0.05500X0.05500*%
%ADD43C,0.05500*%
%ADD44C,0.02362*%
G36*
X124379Y112200D02*
X106601D01*
Y91911D01*
X106104Y91812D01*
X105517Y91421D01*
X105126Y90834D01*
X104988Y90143D01*
X105126Y89452D01*
X105242Y89278D01*
X105205Y89175D01*
X105075Y88981D01*
X104998Y88597D01*
Y80238D01*
X105075Y79854D01*
X105292Y79529D01*
X105299Y79522D01*
X105117Y78706D01*
X105056Y78634D01*
X104523Y78277D01*
X104131Y77691D01*
X103994Y77000D01*
X104131Y76309D01*
X104178Y76238D01*
Y36941D01*
X102530Y35293D01*
X101685Y35579D01*
X101647Y35872D01*
X101310Y36685D01*
X100775Y37383D01*
X100077Y37918D01*
X99264Y38255D01*
X98392Y38369D01*
X97520Y38255D01*
X96708Y37918D01*
X96010Y37383D01*
X95474Y36685D01*
X95451Y36628D01*
X94651Y36787D01*
Y42087D01*
X94689Y42123D01*
X95451Y42433D01*
X95908Y42082D01*
X96720Y41745D01*
X97592Y41631D01*
X98464Y41745D01*
X99277Y42082D01*
X99975Y42617D01*
X100510Y43315D01*
X100847Y44128D01*
X100962Y45000D01*
X100847Y45872D01*
X100510Y46685D01*
X99975Y47383D01*
X99277Y47918D01*
X98464Y48255D01*
X97592Y48369D01*
X96720Y48255D01*
X95908Y47918D01*
X95451Y47567D01*
X94689Y47877D01*
X94651Y47913D01*
Y53213D01*
X95451Y53372D01*
X95474Y53315D01*
X96010Y52618D01*
X96708Y52082D01*
X97520Y51745D01*
X98392Y51631D01*
X99264Y51745D01*
X100077Y52082D01*
X100775Y52618D01*
X101310Y53315D01*
X101647Y54128D01*
X101762Y55000D01*
X101647Y55872D01*
X101310Y56685D01*
X100775Y57383D01*
X100077Y57918D01*
X99264Y58255D01*
X98392Y58369D01*
X97520Y58255D01*
X96708Y57918D01*
X96010Y57383D01*
X95474Y56685D01*
X95451Y56628D01*
X94651Y56787D01*
Y62087D01*
X94689Y62123D01*
X95451Y62433D01*
X95908Y62082D01*
X96720Y61745D01*
X97592Y61631D01*
X98464Y61745D01*
X99277Y62082D01*
X99975Y62617D01*
X100510Y63315D01*
X100847Y64128D01*
X100962Y65000D01*
X100847Y65872D01*
X100510Y66685D01*
X99975Y67383D01*
X99277Y67918D01*
X98464Y68255D01*
X97592Y68369D01*
X96720Y68255D01*
X95908Y67918D01*
X95451Y67567D01*
X94689Y67877D01*
X94651Y67913D01*
Y71026D01*
X95052Y71659D01*
X101733D01*
Y78341D01*
X96105D01*
X95799Y79080D01*
X101167Y84448D01*
X101646Y85164D01*
X101814Y86009D01*
Y100704D01*
X101869Y100776D01*
X102130Y101406D01*
X102219Y102082D01*
Y104441D01*
X102130Y105117D01*
X101869Y105747D01*
X101454Y106288D01*
X100913Y106704D01*
X100283Y106965D01*
X99606Y107054D01*
X98930Y106965D01*
X98300Y106704D01*
X97759Y106288D01*
X96450Y104979D01*
X96034Y104438D01*
X95773Y103808D01*
X95684Y103132D01*
Y100800D01*
X95773Y100124D01*
X96034Y99493D01*
X96450Y98952D01*
X96991Y98537D01*
X97399Y98368D01*
Y86923D01*
X90882Y80407D01*
X90403Y79691D01*
X90235Y78846D01*
Y31911D01*
X90115Y31307D01*
Y24921D01*
X89514Y24320D01*
X88916Y24201D01*
X88200Y23723D01*
X79320Y14843D01*
X77639D01*
Y20562D01*
X77601Y20655D01*
X77531Y21180D01*
X77663Y21332D01*
X78200Y21696D01*
X78218Y21684D01*
X78909Y21547D01*
X79600Y21684D01*
X80186Y22076D01*
X80578Y22662D01*
X80715Y23353D01*
X80578Y24044D01*
X80186Y24630D01*
X79600Y25022D01*
X79600Y25022D01*
X79560Y25225D01*
X79341Y25552D01*
X71147Y33746D01*
X71411Y34614D01*
X71533Y34638D01*
X71905Y34887D01*
X72352Y34917D01*
X72466Y34918D01*
X72519Y34940D01*
X74324D01*
X74848Y35044D01*
X75291Y35340D01*
X88995Y49044D01*
X89291Y49488D01*
X89395Y50011D01*
Y81767D01*
X95496Y87867D01*
X95792Y88311D01*
X95896Y88834D01*
Y94975D01*
X96198Y95427D01*
X96336Y96118D01*
X96198Y96809D01*
X95806Y97395D01*
X95220Y97787D01*
X94529Y97924D01*
X93838Y97787D01*
X93252Y97395D01*
X92860Y96809D01*
X92723Y96118D01*
X92835Y95553D01*
X92496Y95187D01*
X92194Y94989D01*
X91567Y95113D01*
X90876Y94976D01*
X90290Y94584D01*
X89898Y93998D01*
X89761Y93307D01*
X89898Y92616D01*
X90290Y92030D01*
X90862Y91647D01*
Y90352D01*
X84755Y84245D01*
X84459Y83802D01*
X84355Y83279D01*
Y52918D01*
X83556Y52673D01*
X82970Y53065D01*
X82341Y53190D01*
X82282Y53216D01*
X82268Y53216D01*
X81874Y53886D01*
X81877Y53953D01*
X81956Y54191D01*
X82102Y54409D01*
X82239Y55100D01*
X82102Y55792D01*
X81710Y56378D01*
X81124Y56769D01*
X80433Y56907D01*
X79742Y56769D01*
X79205Y56411D01*
X76446Y59170D01*
X76120Y59388D01*
X75736Y59464D01*
X43975D01*
X29007Y74432D01*
X28983Y74497D01*
X28926Y74558D01*
X28893Y74601D01*
X28864Y74645D01*
X28839Y74691D01*
X28818Y74739D01*
X28800Y74791D01*
X28786Y74848D01*
X28776Y74910D01*
X28769Y74979D01*
X28767Y75076D01*
X28741Y75135D01*
X28616Y75764D01*
X28224Y76350D01*
X27638Y76742D01*
X26947Y76879D01*
X26256Y76742D01*
X25670Y76350D01*
X25278Y75764D01*
X25141Y75073D01*
X25278Y74382D01*
X25670Y73795D01*
X26256Y73404D01*
X26499Y73356D01*
Y72540D01*
X26474Y72535D01*
X25888Y72143D01*
X25496Y71557D01*
X25359Y70866D01*
X25496Y70175D01*
X25888Y69589D01*
X26474Y69197D01*
X27165Y69060D01*
X27857Y69197D01*
X28317Y69504D01*
X28409Y69537D01*
X28482Y69603D01*
X28539Y69648D01*
X28594Y69685D01*
X28648Y69715D01*
X28701Y69740D01*
X28752Y69760D01*
X28805Y69775D01*
X28858Y69786D01*
X28865Y69787D01*
X42279Y56373D01*
X42604Y56156D01*
X42988Y56079D01*
X74474D01*
X78328Y52225D01*
X78654Y52008D01*
X79037Y51932D01*
X80280D01*
X80300Y51911D01*
X80334Y51868D01*
X80362Y51823D01*
X80387Y51778D01*
X80408Y51730D01*
X80426Y51678D01*
X80440Y51621D01*
X80450Y51558D01*
X80457Y51490D01*
X80459Y51393D01*
X80485Y51334D01*
X80610Y50705D01*
X81002Y50118D01*
X81492Y49791D01*
X81625Y49486D01*
X81717Y48886D01*
X73547Y40715D01*
X73230Y40778D01*
X72539Y40641D01*
X71953Y40249D01*
X71561Y39663D01*
X71424Y38972D01*
X71457Y38806D01*
X70841Y38113D01*
X70841Y38113D01*
X70150Y37976D01*
X69564Y37584D01*
X69512Y37506D01*
X68476Y37279D01*
X68472Y37280D01*
X68255Y37441D01*
Y43152D01*
X68284Y43214D01*
X68287Y43299D01*
X68294Y43355D01*
X68305Y43407D01*
X68319Y43457D01*
X68338Y43506D01*
X68362Y43555D01*
X68391Y43604D01*
X68427Y43654D01*
X68470Y43706D01*
X68535Y43775D01*
X68558Y43835D01*
X68914Y44368D01*
X69052Y45059D01*
X68914Y45750D01*
X68523Y46336D01*
X67937Y46728D01*
X67246Y46865D01*
X66554Y46728D01*
X65968Y46336D01*
X65577Y45750D01*
X65439Y45059D01*
X65577Y44368D01*
X65933Y43835D01*
X65956Y43775D01*
X66021Y43706D01*
X66064Y43654D01*
X66100Y43604D01*
X66129Y43555D01*
X66153Y43506D01*
X66171Y43457D01*
X66186Y43407D01*
X66197Y43355D01*
X66203Y43299D01*
X66207Y43214D01*
X66236Y43152D01*
Y36219D01*
X66312Y35833D01*
X66531Y35505D01*
X77541Y24495D01*
X77240Y24044D01*
X77103Y23353D01*
X77133Y23199D01*
X76407Y22748D01*
X76306Y22825D01*
X75676Y23086D01*
X75000Y23175D01*
X74324Y23086D01*
X73931Y22923D01*
X73923Y22925D01*
X73524Y23129D01*
X73478Y23141D01*
X73163Y23456D01*
X72838Y23674D01*
X72453Y23750D01*
X69950D01*
X68066Y25634D01*
X67741Y25852D01*
X67357Y25928D01*
X60360D01*
X59268Y27020D01*
X59663Y27757D01*
X59842Y27721D01*
X60534Y27859D01*
X61120Y28250D01*
X61511Y28836D01*
X61649Y29528D01*
X61511Y30219D01*
X61120Y30805D01*
X60534Y31196D01*
X59842Y31334D01*
X59588Y31283D01*
X58788Y31791D01*
Y31791D01*
X54457D01*
Y28542D01*
X54438Y28445D01*
X53754Y28070D01*
X52292D01*
Y31791D01*
X47961D01*
Y30630D01*
X43713D01*
X42995Y31347D01*
X42970Y31413D01*
X42912Y31476D01*
X42871Y31526D01*
X42831Y31580D01*
X42794Y31639D01*
X42759Y31701D01*
X42727Y31769D01*
X42699Y31835D01*
X42641Y32013D01*
X42618Y32110D01*
X42551Y32201D01*
X42513Y32394D01*
X42121Y32980D01*
X41535Y33371D01*
X40844Y33509D01*
X40482Y33437D01*
X39682Y33946D01*
Y44254D01*
X39605Y44641D01*
X39386Y44969D01*
X35641Y48714D01*
X35313Y48933D01*
X34927Y49010D01*
X31707D01*
X29032Y51684D01*
Y55179D01*
X29061Y55242D01*
X29064Y55327D01*
X29071Y55382D01*
X29081Y55435D01*
X29096Y55485D01*
X29115Y55534D01*
X29139Y55582D01*
X29168Y55632D01*
X29203Y55682D01*
X29246Y55734D01*
X29311Y55802D01*
X29335Y55862D01*
X29691Y56395D01*
X29828Y57087D01*
X29691Y57778D01*
X29299Y58364D01*
X28713Y58755D01*
X28022Y58893D01*
X27331Y58755D01*
X26745Y58364D01*
X26353Y57778D01*
X26216Y57087D01*
X26353Y56395D01*
X26709Y55862D01*
X26733Y55802D01*
X26798Y55734D01*
X26841Y55682D01*
X26876Y55632D01*
X26905Y55582D01*
X26929Y55534D01*
X26948Y55485D01*
X26963Y55435D01*
X26973Y55382D01*
X26980Y55327D01*
X26983Y55242D01*
X27012Y55179D01*
Y51266D01*
X27089Y50880D01*
X27308Y50552D01*
X29831Y48029D01*
X29321Y47407D01*
X29187Y47497D01*
X28495Y47635D01*
X27804Y47497D01*
X27218Y47106D01*
X27200Y47078D01*
X27153Y47058D01*
X27090Y46991D01*
X27043Y46950D01*
X26998Y46915D01*
X26954Y46887D01*
X26910Y46865D01*
X26866Y46847D01*
X26819Y46833D01*
X26770Y46822D01*
X26716Y46815D01*
X26632Y46812D01*
X26629Y46811D01*
X26625Y46812D01*
X26565Y46783D01*
X26482D01*
X26096Y46707D01*
X25768Y46488D01*
X23435Y44155D01*
X23370Y44131D01*
X23308Y44073D01*
X23263Y44037D01*
X23217Y44006D01*
X23169Y43980D01*
X23119Y43957D01*
X23065Y43938D01*
X23007Y43922D01*
X22944Y43909D01*
X22875Y43901D01*
X22778Y43896D01*
X22692Y43855D01*
X22143Y43746D01*
X21557Y43354D01*
X21166Y42768D01*
X21028Y42077D01*
X21166Y41385D01*
X21557Y40799D01*
X22143Y40408D01*
X22835Y40270D01*
X23526Y40408D01*
X24112Y40799D01*
X24503Y41385D01*
X24641Y42077D01*
X24639Y42088D01*
X24654Y42126D01*
X24654Y42219D01*
X24658Y42283D01*
X24667Y42341D01*
X24679Y42393D01*
X24695Y42442D01*
X24714Y42487D01*
X24738Y42531D01*
X24766Y42575D01*
X24800Y42618D01*
X24858Y42680D01*
X24881Y42744D01*
X26854Y44717D01*
X26871Y44714D01*
X26925Y44699D01*
X26978Y44679D01*
X27031Y44655D01*
X27086Y44625D01*
X27141Y44589D01*
X27198Y44545D01*
X27271Y44482D01*
X27374Y44447D01*
X27804Y44159D01*
X28495Y44022D01*
X29187Y44159D01*
X29773Y44551D01*
X30060Y44982D01*
X30422Y45053D01*
X30588D01*
X30949Y44982D01*
X31237Y44551D01*
X31823Y44159D01*
X32514Y44022D01*
X32648Y43888D01*
X32576Y43525D01*
X32713Y42834D01*
X33105Y42248D01*
X33691Y41856D01*
X34320Y41731D01*
X34379Y41705D01*
X34476Y41702D01*
X34544Y41696D01*
X34607Y41686D01*
X34664Y41671D01*
X34716Y41654D01*
X34764Y41633D01*
X34809Y41608D01*
X34814Y41605D01*
Y27972D01*
X34890Y27588D01*
X35108Y27262D01*
X37923Y24447D01*
X38248Y24230D01*
X38632Y24153D01*
X45015D01*
X45567Y23601D01*
X45893Y23384D01*
X46277Y23307D01*
X51674D01*
X52409Y23153D01*
Y20317D01*
X52361Y20200D01*
Y14609D01*
X41876D01*
X33017Y23469D01*
X32300Y23947D01*
X31455Y24115D01*
X30611Y23947D01*
X29894Y23469D01*
X29416Y22752D01*
X29248Y21907D01*
X29416Y21063D01*
X29894Y20346D01*
X36640Y13601D01*
X36334Y12862D01*
X11954D01*
X11868Y12922D01*
X11454Y13662D01*
X11647Y14128D01*
X11761Y15000D01*
X11647Y15872D01*
X11310Y16684D01*
X10775Y17382D01*
X10077Y17918D01*
X9264Y18254D01*
X8392Y18369D01*
X7520Y18254D01*
X6707Y17918D01*
X6010Y17382D01*
X5474Y16684D01*
X5138Y15872D01*
X5023Y15000D01*
X5138Y14128D01*
X5474Y13315D01*
X6010Y12617D01*
X6707Y12082D01*
X7520Y11745D01*
X8392Y11631D01*
X9264Y11745D01*
X10077Y12082D01*
X10311Y12261D01*
X11111Y11867D01*
Y8186D01*
X10661Y7945D01*
X10311Y7869D01*
X9575Y8434D01*
X8618Y8830D01*
X8418Y8856D01*
X8425Y8806D01*
X8482Y8569D01*
X8562Y8335D01*
X8664Y8101D01*
X8789Y7870D01*
X8937Y7641D01*
X9108Y7413D01*
X9301Y7188D01*
X9517Y6964D01*
X8183D01*
Y5000D01*
X7592D01*
Y4409D01*
X5628D01*
Y3075D01*
X5404Y3291D01*
X5179Y3484D01*
X4951Y3655D01*
X4722Y3803D01*
X4490Y3928D01*
X4258Y4030D01*
X4023Y4110D01*
X3786Y4167D01*
X3736Y4174D01*
X3762Y3974D01*
X4158Y3017D01*
X4628Y2406D01*
X4333Y1606D01*
X1606D01*
Y54159D01*
X2414Y119057D01*
X2574Y119189D01*
X3218Y119409D01*
X3752Y119000D01*
X4411Y118727D01*
X4651Y118582D01*
X5052Y118053D01*
X5052Y117782D01*
Y111660D01*
X11733D01*
Y118341D01*
X7668D01*
X7455Y119141D01*
X8000Y119559D01*
X8559Y120288D01*
X8911Y121136D01*
X9031Y122047D01*
X8911Y122958D01*
X8654Y123579D01*
X9033Y124379D01*
X83000Y124379D01*
X124379D01*
Y112200D01*
D02*
G37*
G36*
X107163Y89021D02*
X107106Y88998D01*
X107042Y88965D01*
X106971Y88921D01*
X106893Y88866D01*
X106717Y88726D01*
X106512Y88543D01*
X106280Y88319D01*
X105724Y88875D01*
X105780Y88936D01*
X105826Y88997D01*
X105862Y89056D01*
X105888Y89116D01*
X105904Y89174D01*
X105910Y89232D01*
X105906Y89289D01*
X105892Y89346D01*
X105867Y89402D01*
X105833Y89458D01*
X107163Y89021D01*
D02*
G37*
G36*
X28131Y74942D02*
X28141Y74827D01*
X28160Y74717D01*
X28187Y74610D01*
X28221Y74508D01*
X28264Y74410D01*
X28314Y74317D01*
X28373Y74228D01*
X28439Y74143D01*
X28514Y74063D01*
X27957Y73506D01*
X27876Y73580D01*
X27792Y73647D01*
X27703Y73705D01*
X27609Y73756D01*
X27511Y73798D01*
X27409Y73833D01*
X27303Y73860D01*
X27193Y73878D01*
X27078Y73889D01*
X26959Y73892D01*
X28128Y75061D01*
X28131Y74942D01*
D02*
G37*
G36*
X28118Y71581D02*
X28204Y71506D01*
X28293Y71439D01*
X28385Y71382D01*
X28480Y71333D01*
X28578Y71293D01*
X28679Y71262D01*
X28783Y71240D01*
X28890Y71226D01*
X29000Y71222D01*
X28973Y70434D01*
X28864Y70430D01*
X28758Y70418D01*
X28653Y70397D01*
X28550Y70367D01*
X28450Y70329D01*
X28352Y70283D01*
X28256Y70228D01*
X28163Y70165D01*
X28071Y70093D01*
X27982Y70013D01*
X28035Y71665D01*
X28118Y71581D01*
D02*
G37*
G36*
X28768Y56158D02*
X28695Y56070D01*
X28631Y55980D01*
X28576Y55886D01*
X28529Y55790D01*
X28490Y55691D01*
X28460Y55589D01*
X28439Y55484D01*
X28426Y55377D01*
X28422Y55267D01*
X27622D01*
X27618Y55377D01*
X27605Y55484D01*
X27584Y55589D01*
X27554Y55691D01*
X27515Y55790D01*
X27468Y55886D01*
X27413Y55980D01*
X27349Y56070D01*
X27276Y56158D01*
X27195Y56243D01*
X28849D01*
X28768Y56158D01*
D02*
G37*
G36*
X79278Y54851D02*
X79272Y54865D01*
X79258Y54877D01*
X79237Y54887D01*
X79208Y54896D01*
X79172Y54904D01*
X79128Y54910D01*
X79020Y54918D01*
X78882Y54921D01*
Y55709D01*
X78984Y55709D01*
X79434Y55739D01*
X79444Y55746D01*
X79278Y54851D01*
D02*
G37*
G36*
X81350Y52888D02*
X81434Y52822D01*
X81524Y52763D01*
X81617Y52713D01*
X81715Y52670D01*
X81817Y52636D01*
X81923Y52609D01*
X82033Y52590D01*
X82148Y52580D01*
X82267Y52577D01*
X81098Y51408D01*
X81095Y51527D01*
X81085Y51642D01*
X81066Y51752D01*
X81039Y51858D01*
X81005Y51960D01*
X80962Y52058D01*
X80912Y52152D01*
X80853Y52241D01*
X80787Y52325D01*
X80712Y52406D01*
X81269Y52963D01*
X81350Y52888D01*
D02*
G37*
G36*
X33444Y46573D02*
X33532Y46499D01*
X33624Y46434D01*
X33718Y46378D01*
X33814Y46330D01*
X33913Y46291D01*
X34015Y46261D01*
X34120Y46239D01*
X34227Y46226D01*
X34336Y46222D01*
Y45435D01*
X34227Y45430D01*
X34120Y45417D01*
X34015Y45396D01*
X33913Y45365D01*
X33814Y45326D01*
X33718Y45279D01*
X33624Y45222D01*
X33532Y45158D01*
X33444Y45084D01*
X33357Y45002D01*
Y46655D01*
X33444Y46573D01*
D02*
G37*
G36*
X27691Y44963D02*
X27602Y45041D01*
X27510Y45111D01*
X27416Y45173D01*
X27320Y45226D01*
X27222Y45271D01*
X27121Y45308D01*
X27018Y45336D01*
X26913Y45357D01*
X26806Y45369D01*
X26697Y45373D01*
X26657Y46174D01*
X26768Y46178D01*
X26875Y46191D01*
X26980Y46213D01*
X27081Y46244D01*
X27178Y46284D01*
X27272Y46332D01*
X27363Y46390D01*
X27450Y46456D01*
X27534Y46531D01*
X27614Y46615D01*
X27691Y44963D01*
D02*
G37*
G36*
X67991Y44131D02*
X67919Y44043D01*
X67855Y43952D01*
X67799Y43859D01*
X67752Y43762D01*
X67714Y43663D01*
X67684Y43561D01*
X67663Y43457D01*
X67650Y43349D01*
X67646Y43239D01*
X66846D01*
X66841Y43349D01*
X66828Y43457D01*
X66807Y43561D01*
X66777Y43663D01*
X66739Y43762D01*
X66692Y43859D01*
X66636Y43952D01*
X66572Y44043D01*
X66500Y44131D01*
X66419Y44216D01*
X68072D01*
X67991Y44131D01*
D02*
G37*
G36*
X24388Y43114D02*
X24313Y43033D01*
X24246Y42947D01*
X24188Y42858D01*
X24138Y42765D01*
X24096Y42668D01*
X24063Y42567D01*
X24038Y42462D01*
X24022Y42353D01*
X24014Y42240D01*
X24015Y42123D01*
X22812Y43258D01*
X22930Y43264D01*
X23043Y43277D01*
X23153Y43299D01*
X23259Y43328D01*
X23360Y43365D01*
X23458Y43409D01*
X23550Y43461D01*
X23639Y43520D01*
X23724Y43587D01*
X23805Y43662D01*
X24388Y43114D01*
D02*
G37*
G36*
X35566Y43394D02*
X35576Y43279D01*
X35595Y43169D01*
X35622Y43062D01*
X35656Y42960D01*
X35699Y42863D01*
X35749Y42769D01*
X35808Y42680D01*
X35874Y42595D01*
X35949Y42515D01*
X35392Y41958D01*
X35311Y42032D01*
X35227Y42099D01*
X35138Y42157D01*
X35044Y42208D01*
X34946Y42250D01*
X34844Y42285D01*
X34738Y42312D01*
X34628Y42330D01*
X34513Y42341D01*
X34394Y42344D01*
X35563Y43513D01*
X35566Y43394D01*
D02*
G37*
G36*
X71706Y37119D02*
X71740Y37106D01*
X71786Y37094D01*
X71845Y37084D01*
X72001Y37069D01*
X72206Y37060D01*
X72462Y37057D01*
Y35557D01*
X72328Y35556D01*
X71786Y35519D01*
X71740Y35508D01*
X71706Y35495D01*
X71685Y35480D01*
Y37133D01*
X71706Y37119D01*
D02*
G37*
G36*
X109690Y36376D02*
X109866Y36224D01*
X109915Y36189D01*
X109960Y36162D01*
X110001Y36143D01*
X110036Y36132D01*
X110067Y36129D01*
X110094Y36133D01*
X109373Y35413D01*
X109378Y35439D01*
X109375Y35471D01*
X109364Y35506D01*
X109345Y35546D01*
X109318Y35592D01*
X109283Y35641D01*
X109240Y35695D01*
X109131Y35817D01*
X109065Y35885D01*
X109622Y36442D01*
X109690Y36376D01*
D02*
G37*
G36*
X124379Y1606D02*
X121651D01*
X121356Y2406D01*
X121826Y3018D01*
X122222Y3974D01*
X122279Y4409D01*
X118392D01*
X114505D01*
X114562Y3974D01*
X114958Y3018D01*
X115428Y2406D01*
X115133Y1606D01*
X113185D01*
X112791Y2406D01*
X113048Y2740D01*
X113399Y3589D01*
X113519Y4500D01*
X113399Y5411D01*
X113048Y6260D01*
X112488Y6988D01*
X111759Y7548D01*
X110911Y7899D01*
X110000Y8019D01*
X109089Y7899D01*
X108240Y7548D01*
X107512Y6988D01*
X106952Y6260D01*
X106601Y5411D01*
X106481Y4500D01*
X106601Y3589D01*
X106952Y2740D01*
X107209Y2406D01*
X106815Y1606D01*
X100851D01*
X100557Y2406D01*
X101026Y3018D01*
X101422Y3974D01*
X101480Y4409D01*
X97592D01*
Y5000D01*
X97002D01*
Y8887D01*
X96566Y8830D01*
X95610Y8434D01*
X94789Y7804D01*
X94789Y7804D01*
X94787Y7802D01*
X94214Y7359D01*
X83062D01*
Y1606D01*
X29720Y1606D01*
Y6957D01*
X38006D01*
Y11190D01*
X38745Y11496D01*
X39400Y10840D01*
X40117Y10362D01*
X40962Y10194D01*
X60805D01*
X61650Y10362D01*
X61758Y10250D01*
X62060Y9473D01*
X61523Y8774D01*
X61186Y7960D01*
X61071Y7087D01*
X61186Y6213D01*
X61523Y5399D01*
X62060Y4700D01*
X62759Y4163D01*
X63573Y3826D01*
X64447Y3711D01*
X65320Y3826D01*
X66134Y4163D01*
X66833Y4700D01*
X67370Y5399D01*
X67707Y6213D01*
X67822Y7087D01*
X67759Y7562D01*
X69030Y8833D01*
X75865D01*
X75959Y8364D01*
X76350Y7778D01*
X76936Y7386D01*
X77627Y7249D01*
X78319Y7386D01*
X78905Y7778D01*
X79296Y8364D01*
X79434Y9055D01*
X79320Y9628D01*
X79470Y9979D01*
X79803Y10428D01*
X80234D01*
X81079Y10596D01*
X81796Y11074D01*
X90724Y20003D01*
X91323Y20122D01*
X92039Y20600D01*
X93884Y22445D01*
X94093Y22759D01*
X95050Y22826D01*
X95210Y22617D01*
X95908Y22082D01*
X96720Y21745D01*
X97592Y21631D01*
X98464Y21745D01*
X99277Y22082D01*
X99975Y22617D01*
X100510Y23315D01*
X100847Y24128D01*
X100957Y24967D01*
X100981Y25024D01*
X100984Y25418D01*
X101026Y26114D01*
X101063Y26396D01*
X101111Y26649D01*
X101168Y26866D01*
X101231Y27044D01*
X101296Y27183D01*
X101360Y27285D01*
X101453Y27394D01*
X101471Y27450D01*
X105984Y31963D01*
X106002Y31990D01*
X108094Y34082D01*
X108132Y34095D01*
X109080Y33937D01*
X109210Y33742D01*
X109796Y33351D01*
X110487Y33213D01*
X111179Y33351D01*
X111765Y33742D01*
X112156Y34328D01*
X112294Y35020D01*
X112156Y35711D01*
X111765Y36297D01*
X111179Y36689D01*
X110487Y36826D01*
X110347Y36941D01*
Y78846D01*
X110270Y79230D01*
X110066Y79536D01*
X110131Y79886D01*
X110317Y80336D01*
X124379D01*
Y1606D01*
D02*
G37*
G36*
X42026Y31838D02*
X42099Y31613D01*
X42143Y31508D01*
X42191Y31408D01*
X42244Y31312D01*
X42302Y31221D01*
X42365Y31135D01*
X42432Y31053D01*
X42504Y30976D01*
X42086Y30281D01*
X42002Y30357D01*
X41916Y30423D01*
X41828Y30477D01*
X41736Y30521D01*
X41641Y30553D01*
X41543Y30575D01*
X41442Y30586D01*
X41339Y30587D01*
X41232Y30576D01*
X41122Y30555D01*
X41997Y31958D01*
X42026Y31838D01*
D02*
G37*
G36*
X39177Y30195D02*
X39262Y30128D01*
X39351Y30069D01*
X39444Y30018D01*
X39541Y29975D01*
X39643Y29940D01*
X39748Y29913D01*
X39857Y29895D01*
X39971Y29884D01*
X40088Y29881D01*
X38919Y28712D01*
X38916Y28829D01*
X38905Y28943D01*
X38886Y29052D01*
X38860Y29157D01*
X38825Y29259D01*
X38782Y29356D01*
X38731Y29449D01*
X38672Y29538D01*
X38605Y29623D01*
X38530Y29704D01*
X39096Y30270D01*
X39177Y30195D01*
D02*
G37*
G36*
X58999Y28701D02*
X58913Y28783D01*
X58824Y28857D01*
X58733Y28922D01*
X58639Y28978D01*
X58542Y29026D01*
X58443Y29065D01*
X58341Y29095D01*
X58237Y29116D01*
X58130Y29129D01*
X58020Y29134D01*
Y29921D01*
X58130Y29926D01*
X58237Y29939D01*
X58341Y29960D01*
X58443Y29991D01*
X58542Y30029D01*
X58639Y30077D01*
X58733Y30134D01*
X58824Y30198D01*
X58913Y30272D01*
X58999Y30354D01*
Y28701D01*
D02*
G37*
G36*
X100966Y27808D02*
X100843Y27664D01*
X100734Y27490D01*
X100639Y27287D01*
X100556Y27053D01*
X100487Y26790D01*
X100432Y26497D01*
X100389Y26175D01*
X100345Y25440D01*
X100342Y25027D01*
X97620Y27750D01*
X98032Y27752D01*
X98767Y27797D01*
X99090Y27839D01*
X99383Y27895D01*
X99646Y27964D01*
X99879Y28046D01*
X100082Y28142D01*
X100256Y28251D01*
X100400Y28373D01*
X100966Y27808D01*
D02*
G37*
G36*
X73260Y22502D02*
X73377Y22402D01*
X73485Y22321D01*
X73585Y22260D01*
X73677Y22218D01*
X73761Y22194D01*
X73836Y22190D01*
X73904Y22205D01*
X73963Y22239D01*
X74014Y22293D01*
X73068Y21028D01*
X73106Y21094D01*
X73127Y21167D01*
X73129Y21246D01*
X73114Y21332D01*
X73081Y21425D01*
X73031Y21525D01*
X72963Y21631D01*
X72877Y21744D01*
X72774Y21864D01*
X72653Y21991D01*
X73136Y22621D01*
X73260Y22502D01*
D02*
G37*
G36*
X68479Y21866D02*
X68711Y21678D01*
X68816Y21611D01*
X68913Y21564D01*
X69002Y21535D01*
X69084Y21524D01*
X69159Y21533D01*
X69226Y21560D01*
X69285Y21605D01*
X68169Y20506D01*
X68216Y20565D01*
X68243Y20631D01*
X68252Y20704D01*
X68242Y20786D01*
X68214Y20875D01*
X68167Y20971D01*
X68101Y21075D01*
X68017Y21187D01*
X67914Y21306D01*
X67792Y21433D01*
X68352Y21987D01*
X68479Y21866D01*
D02*
G37*
%LPC*%
G36*
X7592Y108370D02*
X6720Y108255D01*
X5907Y107918D01*
X5210Y107383D01*
X4674Y106685D01*
X4338Y105872D01*
X4223Y105000D01*
X4338Y104128D01*
X4674Y103315D01*
X5210Y102618D01*
X5907Y102082D01*
X6720Y101746D01*
X7452Y101649D01*
X7536Y101611D01*
X7936Y101600D01*
X8640Y101543D01*
X8926Y101500D01*
X9183Y101448D01*
X9403Y101388D01*
X9583Y101323D01*
X9724Y101256D01*
X9825Y101192D01*
X9932Y101101D01*
X9989Y101083D01*
X11909Y99163D01*
Y97218D01*
X11109Y96947D01*
X10775Y97383D01*
X10077Y97918D01*
X9264Y98255D01*
X8392Y98369D01*
X7520Y98255D01*
X6707Y97918D01*
X6010Y97383D01*
X5474Y96685D01*
X5138Y95872D01*
X5023Y95000D01*
X5138Y94128D01*
X5474Y93316D01*
X6010Y92618D01*
X6707Y92082D01*
X7520Y91746D01*
X8392Y91631D01*
X9264Y91746D01*
X10077Y92082D01*
X10775Y92618D01*
X11109Y93054D01*
X11909Y92782D01*
Y83138D01*
X11503Y82732D01*
X11116Y82665D01*
X11028Y82677D01*
X10731Y83043D01*
X10680Y83134D01*
X10569Y83457D01*
X10847Y84128D01*
X10961Y85000D01*
X10847Y85872D01*
X10510Y86685D01*
X9975Y87383D01*
X9277Y87918D01*
X8464Y88255D01*
X7592Y88370D01*
X6720Y88255D01*
X5907Y87918D01*
X5210Y87383D01*
X4674Y86685D01*
X4338Y85872D01*
X4223Y85000D01*
X4338Y84128D01*
X4674Y83315D01*
X5210Y82618D01*
X5907Y82082D01*
X6589Y81800D01*
Y80684D01*
X6665Y80300D01*
X6882Y79975D01*
X7717Y79140D01*
X7430Y78296D01*
X7120Y78255D01*
X6307Y77918D01*
X5610Y77383D01*
X5074Y76685D01*
X4737Y75872D01*
X4623Y75000D01*
X4737Y74128D01*
X5074Y73316D01*
X5610Y72618D01*
X6307Y72082D01*
X7120Y71746D01*
X7992Y71631D01*
X8864Y71746D01*
X9677Y72082D01*
X10348Y72597D01*
X10405Y72621D01*
X10686Y72898D01*
X11207Y73360D01*
X11433Y73533D01*
X11646Y73678D01*
X11840Y73791D01*
X12010Y73872D01*
X12155Y73925D01*
X12272Y73952D01*
X12414Y73963D01*
X12467Y73990D01*
X13785D01*
X13847Y73962D01*
X13934Y73958D01*
X13976Y73952D01*
X13986Y73950D01*
X13996Y73919D01*
X14052Y73852D01*
X14079Y73718D01*
X14471Y73132D01*
X14777Y72927D01*
X14983Y72002D01*
X12086Y69104D01*
X11868Y68779D01*
X11792Y68394D01*
Y57371D01*
X10992Y57100D01*
X10775Y57383D01*
X10077Y57918D01*
X9264Y58255D01*
X8392Y58369D01*
X7520Y58255D01*
X6707Y57918D01*
X6010Y57383D01*
X5474Y56685D01*
X5138Y55872D01*
X5023Y55000D01*
X5138Y54128D01*
X5474Y53316D01*
X6010Y52618D01*
X6707Y52082D01*
X7520Y51746D01*
X8392Y51631D01*
X9264Y51746D01*
X10077Y52082D01*
X10775Y52618D01*
X10992Y52901D01*
X11792Y52629D01*
Y45059D01*
X11868Y44675D01*
X12086Y44350D01*
X18140Y38296D01*
X18164Y38231D01*
X18220Y38170D01*
X18254Y38126D01*
X18283Y38082D01*
X18308Y38037D01*
X18329Y37988D01*
X18346Y37937D01*
X18361Y37880D01*
X18371Y37817D01*
X18378Y37749D01*
X18380Y37652D01*
X18406Y37593D01*
X18531Y36963D01*
X18923Y36377D01*
X19509Y35986D01*
X20200Y35848D01*
X20891Y35986D01*
X21477Y36377D01*
X21869Y36963D01*
X22006Y37655D01*
X21869Y38346D01*
X21477Y38932D01*
X20891Y39323D01*
X20262Y39449D01*
X20203Y39475D01*
X20106Y39477D01*
X20037Y39483D01*
X19975Y39494D01*
X19918Y39508D01*
X19866Y39526D01*
X19818Y39547D01*
X19772Y39571D01*
X19728Y39600D01*
X19685Y39634D01*
X19624Y39691D01*
X19559Y39715D01*
X13799Y45475D01*
Y61029D01*
X14599Y61457D01*
X14663Y61414D01*
X15354Y61276D01*
X16046Y61414D01*
X16632Y61805D01*
X17023Y62391D01*
X17161Y63083D01*
X17023Y63774D01*
X16632Y64360D01*
X16046Y64751D01*
X15354Y64889D01*
X15177Y65669D01*
Y67300D01*
X25824Y77947D01*
X26199D01*
X26268Y77933D01*
X28820D01*
X28837Y77893D01*
X28855Y77841D01*
X28869Y77784D01*
X28880Y77722D01*
X28886Y77653D01*
X28888Y77556D01*
X28915Y77497D01*
X29040Y76868D01*
X29431Y76282D01*
X30017Y75890D01*
X30709Y75753D01*
X31400Y75890D01*
X31986Y76282D01*
X32377Y76868D01*
X32515Y77559D01*
X32377Y78250D01*
X31986Y78836D01*
X31400Y79228D01*
X30771Y79353D01*
X30712Y79379D01*
X30615Y79381D01*
X30546Y79388D01*
X30483Y79398D01*
X30427Y79413D01*
X30375Y79430D01*
X30327Y79451D01*
X30281Y79476D01*
X30237Y79505D01*
X30194Y79539D01*
X30132Y79595D01*
X30068Y79619D01*
X30040Y79646D01*
X29715Y79864D01*
X29331Y79940D01*
X26324D01*
X26254Y79954D01*
X25408D01*
X25024Y79878D01*
X24699Y79660D01*
X19656Y74618D01*
X18917Y74924D01*
Y75306D01*
X18841Y75690D01*
X18623Y76016D01*
X16964Y77675D01*
X16638Y77893D01*
X16254Y77969D01*
X12311D01*
X11956Y78418D01*
X12077Y79323D01*
X12469Y79909D01*
X12594Y80537D01*
X12620Y80597D01*
X12622Y80691D01*
X12629Y80758D01*
X12639Y80819D01*
X12653Y80874D01*
X12671Y80925D01*
X12692Y80973D01*
X12717Y81019D01*
X12746Y81063D01*
X12781Y81108D01*
X12839Y81170D01*
X12863Y81234D01*
X13633Y82005D01*
X13852Y82333D01*
X13929Y82719D01*
Y99581D01*
X13852Y99967D01*
X13633Y100295D01*
X11431Y102497D01*
X11413Y102554D01*
X11319Y102664D01*
X11255Y102766D01*
X11191Y102904D01*
X11130Y103080D01*
X11077Y103293D01*
X11033Y103543D01*
X11001Y103821D01*
X10973Y104507D01*
X10980Y104896D01*
X10956Y104957D01*
X10961Y105000D01*
X10847Y105872D01*
X10510Y106685D01*
X9975Y107383D01*
X9277Y107918D01*
X8464Y108255D01*
X7592Y108370D01*
D02*
G37*
G36*
X19883Y90235D02*
X19191Y90098D01*
X18605Y89706D01*
X18214Y89120D01*
X18076Y88429D01*
X18214Y87738D01*
X18605Y87151D01*
X19191Y86760D01*
X19485Y86702D01*
X19931Y86281D01*
X19980Y86263D01*
X22000Y84243D01*
X22456Y83938D01*
X22994Y83831D01*
X44658D01*
Y82745D01*
X44636Y82693D01*
X44636Y82565D01*
X44627Y82183D01*
X44623Y82137D01*
X44394Y81793D01*
X44256Y81102D01*
X44394Y80411D01*
X44786Y79825D01*
X45372Y79433D01*
X46063Y79296D01*
X46754Y79433D01*
X47340Y79825D01*
X47732Y80411D01*
X47869Y81102D01*
X47732Y81793D01*
X47521Y82109D01*
X47489Y82725D01*
X47468Y82768D01*
Y83831D01*
X69474D01*
X69532Y83810D01*
X70027Y83831D01*
X70074D01*
X70175Y83764D01*
X70866Y83627D01*
X71557Y83764D01*
X72143Y84156D01*
X72535Y84742D01*
X72672Y85433D01*
X72535Y86124D01*
X72143Y86710D01*
X71557Y87102D01*
X70866Y87239D01*
X70175Y87102D01*
X69589Y86710D01*
X69571Y86683D01*
X69247Y86664D01*
X69130Y86663D01*
X69079Y86641D01*
X69017D01*
X68988Y86646D01*
X68982Y86641D01*
X23576D01*
X22052Y88165D01*
X22037Y88208D01*
X22023Y88215D01*
X22017Y88230D01*
X21710Y88549D01*
X21652Y88617D01*
X21552Y89120D01*
X21160Y89706D01*
X20574Y90098D01*
X19883Y90235D01*
D02*
G37*
G36*
X58788Y78659D02*
X54457D01*
Y74464D01*
X53575D01*
X52292Y75747D01*
Y78659D01*
X47961D01*
Y74328D01*
X50873D01*
X52450Y72751D01*
X52474Y72735D01*
X52555Y72560D01*
X52616Y71895D01*
X52585Y71772D01*
X50873Y70059D01*
X47961D01*
Y65728D01*
X52292D01*
Y68640D01*
X53657Y70005D01*
X54457Y69674D01*
Y65728D01*
X58788D01*
Y66916D01*
X59588Y67402D01*
X60000Y67320D01*
X60691Y67457D01*
X61221Y67811D01*
X61283Y67835D01*
X61352Y67900D01*
X61404Y67943D01*
X61454Y67979D01*
X61503Y68008D01*
X61552Y68032D01*
X61601Y68050D01*
X61651Y68065D01*
X61703Y68076D01*
X61760Y68082D01*
X61844Y68086D01*
X61907Y68115D01*
X62385D01*
X65580Y64920D01*
X65604Y64856D01*
X65661Y64793D01*
X65696Y64749D01*
X65725Y64705D01*
X65750Y64659D01*
X65772Y64611D01*
X65789Y64560D01*
X65803Y64504D01*
X65814Y64444D01*
X65820Y64377D01*
X65822Y64282D01*
X65849Y64223D01*
X65974Y63595D01*
X66365Y63009D01*
X66951Y62617D01*
X67642Y62480D01*
X68334Y62617D01*
X68920Y63009D01*
X69311Y63595D01*
X69449Y64286D01*
X69311Y64977D01*
X68920Y65563D01*
X68714Y65701D01*
X68694Y65761D01*
X68764Y66623D01*
X69056Y66818D01*
X69447Y67404D01*
X69585Y68095D01*
X69447Y68786D01*
X69056Y69372D01*
X68470Y69764D01*
X67779Y69901D01*
X67087Y69764D01*
X66501Y69372D01*
X66331Y69356D01*
X64030Y71657D01*
X64361Y72457D01*
X66273D01*
X66336Y72428D01*
X66421Y72425D01*
X66481Y72419D01*
X66542Y72408D01*
X66602Y72392D01*
X66664Y72372D01*
X66727Y72346D01*
X66791Y72315D01*
X66858Y72277D01*
X66926Y72233D01*
X67010Y72172D01*
X67138Y72141D01*
X67419Y71953D01*
X68110Y71816D01*
X68801Y71953D01*
X69387Y72345D01*
X69779Y72931D01*
X69916Y73622D01*
X69779Y74313D01*
X69387Y74899D01*
X68801Y75291D01*
X68110Y75428D01*
X67419Y75291D01*
X66833Y74899D01*
X66748Y74773D01*
X66664Y74727D01*
X66609Y74658D01*
X66571Y74618D01*
X66534Y74587D01*
X66499Y74562D01*
X66465Y74542D01*
X66429Y74526D01*
X66391Y74513D01*
X66348Y74503D01*
X66299Y74497D01*
X66216Y74493D01*
X66185Y74478D01*
X66151Y74487D01*
X66113Y74464D01*
X62343D01*
X61834Y75264D01*
X61906Y75626D01*
X61769Y76317D01*
X61377Y76903D01*
X60791Y77295D01*
X60100Y77432D01*
X59588Y77330D01*
X59008Y77649D01*
X58788Y77842D01*
Y78659D01*
D02*
G37*
G36*
X80315Y77003D02*
X79624Y76866D01*
X79037Y76474D01*
X78646Y75888D01*
X78508Y75197D01*
X78646Y74505D01*
X79002Y73972D01*
X79026Y73912D01*
X79093Y73842D01*
X79137Y73788D01*
X79173Y73737D01*
X79203Y73687D01*
X79228Y73638D01*
X79247Y73589D01*
X79262Y73539D01*
X79273Y73487D01*
X79279Y73433D01*
X79282Y73349D01*
X79311Y73287D01*
Y70808D01*
X79282Y70745D01*
X79279Y70661D01*
X79273Y70607D01*
X79262Y70555D01*
X79247Y70506D01*
X79228Y70457D01*
X79203Y70407D01*
X79173Y70357D01*
X79137Y70306D01*
X79093Y70252D01*
X79026Y70182D01*
X79002Y70122D01*
X78646Y69589D01*
X78508Y68897D01*
X78646Y68206D01*
X79037Y67620D01*
X79624Y67229D01*
X80315Y67091D01*
X81006Y67229D01*
X81592Y67620D01*
X81984Y68206D01*
X82121Y68897D01*
X81984Y69589D01*
X81627Y70122D01*
X81604Y70182D01*
X81537Y70252D01*
X81493Y70306D01*
X81456Y70357D01*
X81426Y70407D01*
X81402Y70457D01*
X81383Y70506D01*
X81368Y70555D01*
X81357Y70607D01*
X81350Y70661D01*
X81347Y70745D01*
X81318Y70808D01*
Y73287D01*
X81347Y73349D01*
X81350Y73433D01*
X81357Y73487D01*
X81368Y73539D01*
X81383Y73589D01*
X81402Y73637D01*
X81426Y73687D01*
X81456Y73737D01*
X81493Y73788D01*
X81537Y73842D01*
X81604Y73912D01*
X81627Y73972D01*
X81984Y74505D01*
X82121Y75197D01*
X81984Y75888D01*
X81592Y76474D01*
X81006Y76866D01*
X80315Y77003D01*
D02*
G37*
G36*
X7592Y68370D02*
X6720Y68255D01*
X5907Y67918D01*
X5210Y67383D01*
X4674Y66685D01*
X4338Y65872D01*
X4223Y65000D01*
X4338Y64128D01*
X4674Y63315D01*
X5210Y62618D01*
X5907Y62082D01*
X6720Y61746D01*
X7592Y61631D01*
X8464Y61746D01*
X9277Y62082D01*
X9975Y62618D01*
X10510Y63315D01*
X10847Y64128D01*
X10961Y65000D01*
X10847Y65872D01*
X10510Y66685D01*
X9975Y67383D01*
X9277Y67918D01*
X8464Y68255D01*
X7592Y68370D01*
D02*
G37*
G36*
Y48370D02*
X6720Y48255D01*
X5907Y47918D01*
X5210Y47383D01*
X4674Y46685D01*
X4338Y45872D01*
X4223Y45000D01*
X4338Y44128D01*
X4674Y43316D01*
X5210Y42618D01*
X5907Y42082D01*
X6720Y41746D01*
X7592Y41631D01*
X8464Y41746D01*
X9277Y42082D01*
X9975Y42618D01*
X10510Y43316D01*
X10847Y44128D01*
X10961Y45000D01*
X10847Y45872D01*
X10510Y46685D01*
X9975Y47383D01*
X9277Y47918D01*
X8464Y48255D01*
X7592Y48370D01*
D02*
G37*
G36*
X8392Y38370D02*
X7520Y38255D01*
X6707Y37918D01*
X6010Y37383D01*
X5474Y36685D01*
X5138Y35872D01*
X5023Y35000D01*
X5138Y34128D01*
X5474Y33316D01*
X6010Y32618D01*
X6707Y32082D01*
X7520Y31746D01*
X8392Y31631D01*
X9264Y31746D01*
X10077Y32082D01*
X10775Y32618D01*
X11310Y33316D01*
X11647Y34128D01*
X11761Y35000D01*
X11647Y35872D01*
X11310Y36685D01*
X10775Y37383D01*
X10077Y37918D01*
X9264Y38255D01*
X8392Y38370D01*
D02*
G37*
G36*
X7592Y28370D02*
X6720Y28255D01*
X5907Y27918D01*
X5210Y27383D01*
X4674Y26685D01*
X4338Y25872D01*
X4223Y25000D01*
X4338Y24128D01*
X4674Y23315D01*
X5210Y22618D01*
X5907Y22082D01*
X6720Y21746D01*
X7592Y21631D01*
X8464Y21746D01*
X9277Y22082D01*
X9975Y22618D01*
X10510Y23315D01*
X10847Y24128D01*
X10961Y25000D01*
X10847Y25872D01*
X10510Y26685D01*
X9975Y27383D01*
X9277Y27918D01*
X8464Y28255D01*
X7592Y28370D01*
D02*
G37*
G36*
X6766Y8856D02*
X6566Y8830D01*
X5610Y8434D01*
X4788Y7803D01*
X4158Y6982D01*
X3762Y6026D01*
X3736Y5826D01*
X3786Y5833D01*
X4023Y5890D01*
X4258Y5969D01*
X4490Y6072D01*
X4722Y6197D01*
X4951Y6345D01*
X5179Y6515D01*
X5404Y6709D01*
X5628Y6925D01*
Y5590D01*
X7002D01*
Y6964D01*
X5667D01*
X5883Y7188D01*
X6077Y7413D01*
X6247Y7641D01*
X6395Y7870D01*
X6520Y8101D01*
X6623Y8335D01*
X6702Y8569D01*
X6759Y8806D01*
X6766Y8856D01*
D02*
G37*
%LPD*%
G36*
X10334Y104500D02*
X10363Y103772D01*
X10400Y103451D01*
X10451Y103160D01*
X10517Y102898D01*
X10597Y102665D01*
X10692Y102461D01*
X10802Y102286D01*
X10926Y102140D01*
X10346Y101588D01*
X10204Y101708D01*
X10032Y101817D01*
X9829Y101913D01*
X9596Y101998D01*
X9332Y102070D01*
X9037Y102130D01*
X8713Y102178D01*
X7971Y102239D01*
X7554Y102250D01*
X10341Y104907D01*
X10334Y104500D01*
D02*
G37*
G36*
X12370Y81604D02*
X12295Y81523D01*
X12228Y81438D01*
X12169Y81349D01*
X12118Y81256D01*
X12075Y81159D01*
X12040Y81057D01*
X12014Y80952D01*
X11995Y80843D01*
X11984Y80729D01*
X11981Y80612D01*
X10812Y81781D01*
X10929Y81784D01*
X11043Y81795D01*
X11152Y81814D01*
X11257Y81840D01*
X11359Y81875D01*
X11456Y81918D01*
X11549Y81969D01*
X11638Y82028D01*
X11723Y82095D01*
X11804Y82170D01*
X12370Y81604D01*
D02*
G37*
G36*
X29779Y79051D02*
X29864Y78985D01*
X29953Y78926D01*
X30046Y78876D01*
X30144Y78833D01*
X30246Y78799D01*
X30352Y78772D01*
X30463Y78753D01*
X30578Y78743D01*
X30697Y78740D01*
X29528Y77571D01*
X29525Y77690D01*
X29514Y77805D01*
X29495Y77915D01*
X29469Y78022D01*
X29434Y78123D01*
X29392Y78221D01*
X29341Y78315D01*
X29283Y78404D01*
X29216Y78488D01*
X29142Y78569D01*
X29699Y79126D01*
X29779Y79051D01*
D02*
G37*
G36*
X14604Y74115D02*
X14574Y74208D01*
X14535Y74290D01*
X14486Y74363D01*
X14427Y74426D01*
X14359Y74479D01*
X14281Y74523D01*
X14194Y74556D01*
X14097Y74581D01*
X13990Y74595D01*
X13874Y74600D01*
X14396Y75400D01*
X14511Y75402D01*
X14933Y75433D01*
X15030Y75448D01*
X15298Y75507D01*
X15380Y75532D01*
X14604Y74115D01*
D02*
G37*
G36*
X10249Y76635D02*
X10800Y76147D01*
X11058Y75949D01*
X11305Y75781D01*
X11540Y75644D01*
X11763Y75537D01*
X11975Y75461D01*
X12174Y75415D01*
X12363Y75400D01*
Y74600D01*
X12174Y74585D01*
X11975Y74539D01*
X11763Y74463D01*
X11540Y74356D01*
X11305Y74219D01*
X11058Y74051D01*
X10800Y73853D01*
X10249Y73365D01*
X9956Y73075D01*
Y76925D01*
X10249Y76635D01*
D02*
G37*
G36*
X14533Y64531D02*
X14688Y64402D01*
X14761Y64351D01*
X14831Y64310D01*
X14898Y64278D01*
X14963Y64255D01*
X15024Y64242D01*
X15082Y64238D01*
X15137Y64244D01*
X14215Y63393D01*
X14225Y63447D01*
X14225Y63505D01*
X14216Y63564D01*
X14198Y63627D01*
X14171Y63692D01*
X14134Y63759D01*
X14088Y63829D01*
X14033Y63901D01*
X13969Y63976D01*
X13895Y64053D01*
X14452Y64610D01*
X14533Y64531D01*
D02*
G37*
G36*
X19270Y39147D02*
X19355Y39081D01*
X19444Y39022D01*
X19538Y38972D01*
X19635Y38929D01*
X19737Y38895D01*
X19844Y38868D01*
X19954Y38849D01*
X20069Y38838D01*
X20188Y38836D01*
X19019Y37666D01*
X19016Y37786D01*
X19005Y37901D01*
X18987Y38011D01*
X18960Y38117D01*
X18925Y38219D01*
X18883Y38317D01*
X18832Y38410D01*
X18774Y38500D01*
X18708Y38584D01*
X18633Y38665D01*
X19190Y39222D01*
X19270Y39147D01*
D02*
G37*
G36*
X21066Y88340D02*
X21080Y88313D01*
X21104Y88277D01*
X21139Y88233D01*
X21238Y88118D01*
X21556Y87787D01*
X20370Y86747D01*
X19837Y87249D01*
X21062Y88359D01*
X21066Y88340D01*
D02*
G37*
G36*
X70172Y84477D02*
X69504Y84449D01*
X69134Y86023D01*
X69269Y86024D01*
X69747Y86054D01*
X69803Y86065D01*
X69847Y86077D01*
X69878Y86092D01*
X69897Y86108D01*
X70172Y84477D01*
D02*
G37*
G36*
X46890Y81946D02*
X45236D01*
X45244Y81960D01*
X45250Y81988D01*
X45256Y82029D01*
X45266Y82151D01*
X45275Y82556D01*
X45276Y82691D01*
X46850D01*
X46890Y81946D01*
D02*
G37*
G36*
X59257Y74799D02*
X59170Y74882D01*
X59082Y74955D01*
X58990Y75020D01*
X58896Y75076D01*
X58800Y75124D01*
X58700Y75163D01*
X58599Y75193D01*
X58494Y75215D01*
X58387Y75228D01*
X58278Y75232D01*
Y76020D01*
X58387Y76024D01*
X58494Y76037D01*
X58599Y76059D01*
X58700Y76089D01*
X58800Y76128D01*
X58896Y76176D01*
X58990Y76232D01*
X59082Y76297D01*
X59170Y76371D01*
X59257Y76453D01*
Y74799D01*
D02*
G37*
G36*
X67387Y72688D02*
X67289Y72760D01*
X67189Y72824D01*
X67089Y72881D01*
X66988Y72930D01*
X66885Y72972D01*
X66782Y73006D01*
X66677Y73033D01*
X66572Y73052D01*
X66466Y73063D01*
X66359Y73067D01*
X66243Y73854D01*
X66355Y73859D01*
X66462Y73873D01*
X66565Y73897D01*
X66663Y73930D01*
X66757Y73972D01*
X66847Y74024D01*
X66932Y74085D01*
X67013Y74156D01*
X67089Y74236D01*
X67162Y74326D01*
X67387Y72688D01*
D02*
G37*
G36*
X59157Y68299D02*
X59070Y68382D01*
X58982Y68455D01*
X58890Y68520D01*
X58796Y68576D01*
X58700Y68624D01*
X58600Y68663D01*
X58499Y68693D01*
X58394Y68715D01*
X58287Y68728D01*
X58178Y68732D01*
Y69520D01*
X58287Y69524D01*
X58394Y69537D01*
X58499Y69559D01*
X58600Y69589D01*
X58700Y69628D01*
X58796Y69676D01*
X58890Y69732D01*
X58982Y69797D01*
X59070Y69871D01*
X59157Y69953D01*
Y68299D01*
D02*
G37*
G36*
X60929Y69871D02*
X61017Y69798D01*
X61108Y69734D01*
X61201Y69678D01*
X61297Y69631D01*
X61396Y69593D01*
X61498Y69563D01*
X61603Y69542D01*
X61710Y69529D01*
X61821Y69525D01*
X61819Y68725D01*
X61709Y68720D01*
X61602Y68707D01*
X61497Y68686D01*
X61395Y68656D01*
X61296Y68618D01*
X61200Y68571D01*
X61106Y68516D01*
X61016Y68452D01*
X60928Y68379D01*
X60842Y68298D01*
X60844Y69952D01*
X60929Y69871D01*
D02*
G37*
G36*
X66719Y67573D02*
X66694Y67613D01*
X66661Y67648D01*
X66620Y67679D01*
X66570Y67706D01*
X66511Y67729D01*
X66444Y67748D01*
X66369Y67763D01*
X66285Y67773D01*
X66193Y67779D01*
X66093Y67781D01*
Y68569D01*
X66204Y68571D01*
X66400Y68585D01*
X66484Y68598D01*
X66560Y68615D01*
X66626Y68636D01*
X66683Y68660D01*
X66731Y68688D01*
X66769Y68720D01*
X66799Y68755D01*
X66719Y67573D01*
D02*
G37*
G36*
X66719Y65781D02*
X66804Y65714D01*
X66894Y65655D01*
X66987Y65604D01*
X67084Y65561D01*
X67185Y65526D01*
X67290Y65499D01*
X67400Y65481D01*
X67513Y65470D01*
X67631Y65467D01*
X66461Y64298D01*
X66459Y64415D01*
X66448Y64529D01*
X66429Y64638D01*
X66402Y64743D01*
X66367Y64845D01*
X66324Y64942D01*
X66273Y65035D01*
X66215Y65124D01*
X66148Y65209D01*
X66073Y65290D01*
X66638Y65856D01*
X66719Y65781D01*
D02*
G37*
G36*
X81059Y74267D02*
X80986Y74178D01*
X80921Y74087D01*
X80864Y73993D01*
X80817Y73896D01*
X80778Y73797D01*
X80747Y73695D01*
X80726Y73591D01*
X80713Y73484D01*
X80708Y73374D01*
X79921D01*
X79917Y73484D01*
X79904Y73591D01*
X79882Y73695D01*
X79852Y73797D01*
X79813Y73896D01*
X79765Y73993D01*
X79709Y74087D01*
X79644Y74178D01*
X79570Y74267D01*
X79488Y74353D01*
X81142D01*
X81059Y74267D01*
D02*
G37*
G36*
X80713Y70610D02*
X80726Y70503D01*
X80747Y70399D01*
X80778Y70297D01*
X80817Y70198D01*
X80864Y70101D01*
X80921Y70007D01*
X80986Y69916D01*
X81059Y69827D01*
X81142Y69741D01*
X79488D01*
X79570Y69827D01*
X79644Y69916D01*
X79709Y70007D01*
X79765Y70101D01*
X79813Y70198D01*
X79852Y70297D01*
X79882Y70399D01*
X79904Y70503D01*
X79917Y70610D01*
X79921Y70720D01*
X80708D01*
X80713Y70610D01*
D02*
G37*
%LPC*%
G36*
X120933Y78341D02*
X114252D01*
Y71659D01*
X120933D01*
Y78341D01*
D02*
G37*
G36*
X118392Y68369D02*
X117520Y68255D01*
X116707Y67918D01*
X116010Y67383D01*
X115474Y66685D01*
X115138Y65872D01*
X115023Y65000D01*
X115138Y64128D01*
X115474Y63315D01*
X116010Y62617D01*
X116707Y62082D01*
X117520Y61745D01*
X118392Y61631D01*
X119264Y61745D01*
X120077Y62082D01*
X120775Y62617D01*
X121310Y63315D01*
X121647Y64128D01*
X121762Y65000D01*
X121647Y65872D01*
X121310Y66685D01*
X120775Y67383D01*
X120077Y67918D01*
X119264Y68255D01*
X118392Y68369D01*
D02*
G37*
G36*
X117592Y58369D02*
X116720Y58255D01*
X115907Y57918D01*
X115210Y57383D01*
X114674Y56685D01*
X114338Y55872D01*
X114223Y55000D01*
X114338Y54128D01*
X114674Y53315D01*
X115210Y52618D01*
X115907Y52082D01*
X116720Y51745D01*
X117592Y51631D01*
X118464Y51745D01*
X119277Y52082D01*
X119975Y52618D01*
X120510Y53315D01*
X120847Y54128D01*
X120961Y55000D01*
X120847Y55872D01*
X120510Y56685D01*
X119975Y57383D01*
X119277Y57918D01*
X118464Y58255D01*
X117592Y58369D01*
D02*
G37*
G36*
X118392Y48369D02*
X117520Y48255D01*
X116707Y47918D01*
X116010Y47383D01*
X115474Y46685D01*
X115138Y45872D01*
X115023Y45000D01*
X115138Y44128D01*
X115474Y43315D01*
X116010Y42617D01*
X116707Y42082D01*
X117520Y41745D01*
X118392Y41631D01*
X119264Y41745D01*
X120077Y42082D01*
X120775Y42617D01*
X121310Y43315D01*
X121647Y44128D01*
X121762Y45000D01*
X121647Y45872D01*
X121310Y46685D01*
X120775Y47383D01*
X120077Y47918D01*
X119264Y48255D01*
X118392Y48369D01*
D02*
G37*
G36*
X117592Y38369D02*
X116720Y38255D01*
X115907Y37918D01*
X115210Y37383D01*
X114674Y36685D01*
X114338Y35872D01*
X114223Y35000D01*
X114338Y34128D01*
X114674Y33315D01*
X115210Y32618D01*
X115907Y32082D01*
X116720Y31745D01*
X117592Y31631D01*
X118464Y31745D01*
X119277Y32082D01*
X119975Y32618D01*
X120510Y33315D01*
X120847Y34128D01*
X120961Y35000D01*
X120847Y35872D01*
X120510Y36685D01*
X119975Y37383D01*
X119277Y37918D01*
X118464Y38255D01*
X117592Y38369D01*
D02*
G37*
G36*
X118392Y28369D02*
X117520Y28255D01*
X116707Y27918D01*
X116010Y27382D01*
X115474Y26685D01*
X115138Y25872D01*
X115023Y25000D01*
X115138Y24128D01*
X115474Y23315D01*
X116010Y22617D01*
X116707Y22082D01*
X117520Y21745D01*
X118392Y21631D01*
X119264Y21745D01*
X120077Y22082D01*
X120775Y22617D01*
X121310Y23315D01*
X121647Y24128D01*
X121762Y25000D01*
X121647Y25872D01*
X121310Y26685D01*
X120775Y27382D01*
X120077Y27918D01*
X119264Y28255D01*
X118392Y28369D01*
D02*
G37*
G36*
X117592Y18369D02*
X116720Y18255D01*
X115907Y17918D01*
X115210Y17382D01*
X114674Y16685D01*
X114338Y15872D01*
X114223Y15000D01*
X114338Y14128D01*
X114674Y13315D01*
X115210Y12618D01*
X115907Y12082D01*
X116720Y11745D01*
X117592Y11631D01*
X118464Y11745D01*
X119277Y12082D01*
X119975Y12618D01*
X120510Y13315D01*
X120847Y14128D01*
X120961Y15000D01*
X120847Y15872D01*
X120510Y16685D01*
X119975Y17382D01*
X119277Y17918D01*
X118464Y18255D01*
X117592Y18369D01*
D02*
G37*
G36*
X98392D02*
X97520Y18255D01*
X96708Y17918D01*
X96010Y17382D01*
X95474Y16685D01*
X95138Y15872D01*
X95023Y15000D01*
X95138Y14128D01*
X95474Y13315D01*
X96010Y12618D01*
X96708Y12082D01*
X97520Y11745D01*
X98392Y11631D01*
X99264Y11745D01*
X100077Y12082D01*
X100775Y12618D01*
X101310Y13315D01*
X101647Y14128D01*
X101762Y15000D01*
X101647Y15872D01*
X101310Y16685D01*
X100775Y17382D01*
X100077Y17918D01*
X99264Y18255D01*
X98392Y18369D01*
D02*
G37*
G36*
X118983Y8887D02*
Y5590D01*
X122279D01*
X122222Y6026D01*
X121826Y6983D01*
X121196Y7804D01*
X120375Y8434D01*
X119418Y8830D01*
X118983Y8887D01*
D02*
G37*
G36*
X98183D02*
Y5590D01*
X101480D01*
X101422Y6026D01*
X101026Y6983D01*
X100396Y7804D01*
X99575Y8434D01*
X98619Y8830D01*
X98183Y8887D01*
D02*
G37*
G36*
X117802Y8887D02*
X117366Y8830D01*
X116410Y8434D01*
X115588Y7804D01*
X114958Y6983D01*
X114562Y6026D01*
X114505Y5590D01*
X117802D01*
Y8887D01*
D02*
G37*
%LPD*%
D10*
X16254Y76965D02*
X17913Y75306D01*
X10367Y77909D02*
X10490D01*
X11434Y76965D02*
X16254D01*
X7592Y80684D02*
X10367Y77909D01*
X10490D02*
X11434Y76965D01*
X56600Y29626D02*
X56611Y29615D01*
X14173Y67716D02*
X25408Y78951D01*
X26254D01*
X26268Y78937D01*
X29331D02*
X30709Y77559D01*
X26268Y78937D02*
X29331D01*
X7592Y80684D02*
Y84600D01*
X7992Y85000D01*
X41221Y31702D02*
X43298Y29626D01*
X50127D01*
X47618Y27067D02*
X57802D01*
X46772Y27913D02*
X47618Y27067D01*
X41313Y27913D02*
X46772D01*
X59945Y24924D02*
X67357D01*
X57802Y27067D02*
X59945Y24924D01*
X47047Y25689D02*
X57214D01*
X59356Y23547D02*
X66236D01*
X57214Y25689D02*
X59356Y23547D01*
X35818Y27972D02*
Y42089D01*
X38632Y25157D02*
X45431D01*
X37196Y28542D02*
Y42177D01*
X39203Y26535D02*
X46202D01*
X35818Y27972D02*
X38632Y25157D01*
X37196Y28542D02*
X39203Y26535D01*
X69535Y22747D02*
X72453D01*
X75000Y20200D02*
X75000D01*
X72453Y22747D02*
X75000Y20200D01*
X67357Y24924D02*
X69535Y22747D01*
X58272Y22682D02*
Y22682D01*
X59134Y21497D02*
X60000Y20631D01*
X58272Y22682D02*
X59134Y21820D01*
Y21497D02*
Y21820D01*
X60000Y19400D02*
Y20631D01*
X40100Y28700D02*
X40526D01*
X41313Y27913D01*
X46202Y26535D02*
X47047Y25689D01*
X45431Y25157D02*
X46277Y24311D01*
X34382Y43525D02*
X35818Y42089D01*
X46277Y24311D02*
X56643D01*
X58272Y22682D01*
X37196Y42177D02*
X37288Y42270D01*
Y43681D01*
X40844Y31702D02*
X41221D01*
X55000Y20200D02*
X55441Y20641D01*
X56721Y29528D02*
X59842D01*
X70000Y19400D02*
Y19783D01*
X66236Y23547D02*
X70000Y19783D01*
X35141Y45828D02*
X37288Y43681D01*
X32514Y45828D02*
X35141D01*
X43559Y58461D02*
X75736D01*
X80218Y55315D02*
X80433Y55100D01*
X78882Y55315D02*
X80218D01*
X75736Y58461D02*
X78882Y55315D01*
X74890Y57083D02*
X79037Y52935D01*
X80740D02*
X82279Y51396D01*
X79037Y52935D02*
X80740D01*
X20200Y37655D02*
Y37655D01*
X12795Y45059D02*
Y68394D01*
Y45059D02*
X20200Y37655D01*
X15354Y63083D02*
Y63150D01*
X14173Y64331D02*
X15354Y63150D01*
X14173Y64331D02*
Y67716D01*
X12795Y68394D02*
X17913Y73513D01*
X53525Y71291D02*
X62976D01*
X67699Y68175D02*
X67779Y68095D01*
X66093Y68175D02*
X67699D01*
X62976Y71291D02*
X66093Y68175D01*
X42988Y57083D02*
X74890D01*
X67949Y73461D02*
X68110Y73622D01*
X53159Y73461D02*
X67949D01*
X108167Y86574D02*
Y87000D01*
X106002Y80238D02*
Y88597D01*
X107500Y85907D02*
X108167Y86574D01*
X106493Y89088D02*
Y89842D01*
X106795Y90143D01*
X106002Y80238D02*
X107965Y78275D01*
X107500Y80689D02*
Y85907D01*
Y80689D02*
X109343Y78846D01*
X106002Y88597D02*
X106493Y89088D01*
X109343Y36164D02*
Y78846D01*
X107965Y35373D02*
Y78275D01*
X7500Y65000D02*
X9000Y63500D01*
X50127Y76493D02*
X53159Y73461D01*
X56642Y75626D02*
X60100D01*
X50225Y67992D02*
X53525Y71291D01*
X109343Y36164D02*
X110487Y35020D01*
X105270Y32677D02*
X107965Y35373D01*
X29243Y70828D02*
X42988Y57083D01*
X27203Y70828D02*
X29243D01*
X26947Y75073D02*
X43559Y58461D01*
X46549Y78126D02*
X48550Y80126D01*
X46000Y78126D02*
X46549D01*
X17913Y73513D02*
Y75306D01*
X80315Y68897D02*
Y75197D01*
X27165Y70866D02*
X27203Y70828D01*
X70669Y85236D02*
X70866Y85433D01*
X56623Y29626D02*
X56721Y29528D01*
X56611Y29615D02*
X56623Y29626D01*
X55441Y28445D02*
X56611Y29615D01*
X58000Y69126D02*
X60000D01*
X57299Y68126D02*
X58150Y68976D01*
X58000Y69126D02*
X58150Y68976D01*
X12489Y11484D02*
Y8335D01*
Y9385D01*
X14588Y11484D01*
X13014Y9909D01*
X14588Y8335D01*
X17736Y11484D02*
X15637D01*
Y8335D01*
X17736D01*
X15637Y9909D02*
X16687D01*
X18786Y11484D02*
X20885D01*
X19836D01*
Y8335D01*
X24034Y10959D02*
X23509Y11484D01*
X22459D01*
X21935Y10959D01*
Y8860D01*
X22459Y8335D01*
X23509D01*
X24034Y8860D01*
X25083Y10434D02*
Y8860D01*
X25608Y8335D01*
X27182D01*
Y10434D01*
X28232Y11484D02*
Y8335D01*
X29806D01*
X30331Y8860D01*
Y9385D01*
Y9909D01*
X29806Y10434D01*
X28232D01*
X32955Y8335D02*
X31905D01*
X31380Y8860D01*
Y9909D01*
X31905Y10434D01*
X32955D01*
X33479Y9909D01*
Y9385D01*
X31380D01*
X36628Y8335D02*
X34529D01*
X36628Y10434D01*
Y10959D01*
X36103Y11484D01*
X35054D01*
X34529Y10959D01*
X17322Y5364D02*
X17847Y5889D01*
X18896D01*
X19421Y5364D01*
Y3265D01*
X18896Y2740D01*
X17847D01*
X17322Y3265D01*
Y5364D01*
X20470Y2740D02*
Y3265D01*
X20995D01*
Y2740D01*
X20470D01*
X25193D02*
X23094D01*
X25193Y4840D01*
Y5364D01*
X24668Y5889D01*
X23619D01*
X23094Y5364D01*
X26243Y5889D02*
Y2740D01*
Y4315D01*
X28342D01*
Y5889D01*
Y2740D01*
X84440Y5981D02*
X86539D01*
X85490D01*
Y2832D01*
X89163Y5981D02*
X88114D01*
X87589Y5456D01*
Y3357D01*
X88114Y2832D01*
X89163D01*
X89688Y3357D01*
Y5456D01*
X89163Y5981D01*
X90737Y2832D02*
Y5981D01*
X92312D01*
X92836Y5456D01*
Y4407D01*
X92312Y3882D01*
X90737D01*
D12*
X66967Y8198D02*
X68612Y9843D01*
X76417D01*
X77205Y9055D02*
X77627D01*
X76417Y9843D02*
X77205Y9055D01*
X65000D02*
X65857Y8198D01*
X66967D01*
X64565Y8620D02*
X65000Y9055D01*
X12919Y82719D02*
Y99581D01*
X10800Y80600D02*
X12919Y82719D01*
X7500Y105000D02*
X12919Y99581D01*
X38672Y30128D02*
X40100Y28700D01*
X38672Y30128D02*
Y44254D01*
X34927Y48000D02*
X38672Y44254D01*
X31288Y48000D02*
X34927D01*
X28022Y51266D02*
X31288Y48000D01*
X28022Y51266D02*
Y57087D01*
X28440Y45774D02*
X28495Y45828D01*
X26482Y45774D02*
X28440D01*
X22835Y42126D02*
X26482Y45774D01*
X67246Y36219D02*
Y45059D01*
X78627Y23635D02*
X78909Y23353D01*
X78627Y23635D02*
Y24838D01*
X67246Y36219D02*
X78627Y24838D01*
X60001Y69125D02*
X62804D01*
X60000Y69126D02*
X60001Y69125D01*
X62804D02*
X67642Y64286D01*
X22835Y42077D02*
Y42126D01*
X7992Y75000D02*
X15157D01*
X15748Y74410D01*
X97592Y25000D02*
X105270Y32677D01*
D15*
X45669Y85236D02*
X46063Y84842D01*
D16*
X50127Y76493D02*
D03*
X56623D02*
D03*
X50127Y67893D02*
D03*
X56623D02*
D03*
Y29626D02*
D03*
X50127D02*
D03*
D17*
X55000Y17405D02*
D03*
D24*
X64447Y7087D02*
D03*
D30*
X110000Y4500D02*
D03*
X5512Y122047D02*
D03*
D31*
X64835Y7087D02*
X65000D01*
X2467Y5000D02*
X7592D01*
Y10325D01*
X7717Y10450D01*
X20280Y87950D02*
Y88031D01*
X19883Y88429D02*
X20280Y88031D01*
Y87950D02*
X22994Y85236D01*
X45669D01*
X70669D01*
X46063Y81102D02*
Y84842D01*
D32*
X80234Y12635D02*
X89761Y22162D01*
X61039Y12635D02*
X80234D01*
X60805Y12402D02*
X61039Y12635D01*
X40962Y12402D02*
X60805D01*
X31455Y21907D02*
X40962Y12402D01*
X99606Y86009D02*
Y100800D01*
Y102082D01*
X92443Y31427D02*
Y78846D01*
X99606Y86009D01*
X90478Y22162D02*
X92323Y24006D01*
X89761Y22162D02*
X90478D01*
X92323Y24006D02*
Y31307D01*
X92443Y31427D01*
D33*
X98297Y100800D02*
Y103132D01*
X99606Y104441D01*
Y102082D02*
Y104441D01*
D34*
X88028Y50011D02*
Y82333D01*
X85722Y50957D02*
Y83279D01*
X92229Y89786D01*
X74324Y36307D02*
X88028Y50011D01*
X73230Y38972D02*
X73463D01*
X73895Y39403D01*
X74168D01*
X85722Y50957D01*
X92229Y89786D02*
Y92412D01*
X91567Y93074D02*
X92229Y92412D01*
X70841Y36307D02*
X74324D01*
X91567Y93074D02*
Y93307D01*
X88028Y82333D02*
X94529Y88834D01*
Y96118D01*
D35*
X55000Y16535D02*
Y20200D01*
D36*
X105800Y36269D02*
Y77000D01*
X99521Y29991D02*
X105800Y36269D01*
X95739Y29991D02*
X99521D01*
X95669Y29921D02*
X95739Y29991D01*
D37*
X75000Y17681D02*
D03*
X65000D02*
D03*
D38*
X70000Y17377D02*
D03*
D39*
X60000Y17281D02*
D03*
D40*
Y19400D02*
D03*
X75000Y20200D02*
D03*
X65000D02*
D03*
X70000Y19400D02*
D03*
D41*
X55000Y20200D02*
D03*
D42*
X98392Y75000D02*
D03*
X8392Y115000D02*
D03*
X117592Y75000D02*
D03*
D43*
X98392Y55000D02*
D03*
X97592Y45000D02*
D03*
Y65000D02*
D03*
X98392Y35000D02*
D03*
X97592Y25000D02*
D03*
X98392Y15000D02*
D03*
X97592Y5000D02*
D03*
X7592Y25000D02*
D03*
X8392Y35000D02*
D03*
X7592Y45000D02*
D03*
X8392Y55000D02*
D03*
X7592Y65000D02*
D03*
Y105000D02*
D03*
X8392Y95000D02*
D03*
X7592Y85000D02*
D03*
X7992Y75000D02*
D03*
X8392Y15000D02*
D03*
X7592Y5000D02*
D03*
X117592Y35000D02*
D03*
X118392Y45000D02*
D03*
X117592Y55000D02*
D03*
X118392Y65000D02*
D03*
Y25000D02*
D03*
X117592Y15000D02*
D03*
X118392Y5000D02*
D03*
D44*
X121966Y79430D02*
D03*
X98297Y100800D02*
D03*
X120342Y121949D02*
D03*
X108719Y113500D02*
D03*
X96042Y113300D02*
D03*
X91800Y121555D02*
D03*
X91567Y93307D02*
D03*
X94529Y96118D02*
D03*
X39764Y22410D02*
D03*
X17059Y80116D02*
D03*
X19883Y88429D02*
D03*
X10800Y80600D02*
D03*
X21557Y20000D02*
D03*
X10500D02*
D03*
X77627Y9055D02*
D03*
X39562Y103987D02*
D03*
X40100Y28700D02*
D03*
X31909Y25456D02*
D03*
X31455Y21907D02*
D03*
X41992Y36454D02*
D03*
X40844Y31702D02*
D03*
X59842Y29528D02*
D03*
X34382Y43525D02*
D03*
X32514Y45828D02*
D03*
X28495D02*
D03*
X31496Y50863D02*
D03*
X80433Y55100D02*
D03*
X82279Y51396D02*
D03*
X28022Y67827D02*
D03*
Y57087D02*
D03*
X20200Y37655D02*
D03*
X3705Y101108D02*
D03*
X85243Y26498D02*
D03*
X77114Y33315D02*
D03*
X67246Y45059D02*
D03*
X66695Y33379D02*
D03*
X70841Y36307D02*
D03*
X78909Y23353D02*
D03*
X67398Y54508D02*
D03*
X67642Y64286D02*
D03*
X89761Y22162D02*
D03*
X94529Y20000D02*
D03*
Y10000D02*
D03*
X55000Y15748D02*
D03*
X81628Y3386D02*
D03*
X68110Y73622D02*
D03*
X15354Y63083D02*
D03*
X17959Y60478D02*
D03*
X82558Y82565D02*
D03*
X108770Y121949D02*
D03*
X85564Y99207D02*
D03*
X108167Y87000D02*
D03*
X106795Y90143D02*
D03*
X111522Y79741D02*
D03*
X3937Y68898D02*
D03*
X92443Y108255D02*
D03*
X27522Y33593D02*
D03*
X24039Y109744D02*
D03*
X80034Y65689D02*
D03*
X99606Y79921D02*
D03*
X105800Y77000D02*
D03*
X33858Y88763D02*
D03*
X67779Y68095D02*
D03*
X60100Y75626D02*
D03*
X83071Y73415D02*
D03*
X122835Y69685D02*
D03*
X95669Y29921D02*
D03*
X102362Y9449D02*
D03*
X113386D02*
D03*
X122047Y9843D02*
D03*
X3937Y9449D02*
D03*
X4724Y50000D02*
D03*
X3937Y109449D02*
D03*
X31496Y74016D02*
D03*
X35039Y71260D02*
D03*
X41339Y64173D02*
D03*
X51575Y60630D02*
D03*
X54724Y63779D02*
D03*
X46063Y81102D02*
D03*
X27165D02*
D03*
X32515Y119000D02*
D03*
X24016Y88976D02*
D03*
X23716Y104306D02*
D03*
X34000Y93307D02*
D03*
Y98032D02*
D03*
Y102292D02*
D03*
X13851Y117520D02*
D03*
X39224Y120288D02*
D03*
X39622Y109449D02*
D03*
X85564Y122958D02*
D03*
X24016Y93307D02*
D03*
X85564Y115041D02*
D03*
Y92030D02*
D03*
X54787D02*
D03*
X73230Y38972D02*
D03*
X63779Y42126D02*
D03*
X26947Y75073D02*
D03*
X80315Y75197D02*
D03*
Y68897D02*
D03*
X22835Y42077D02*
D03*
X27165Y70866D02*
D03*
X15748Y74410D02*
D03*
X33331Y36454D02*
D03*
X59957Y43681D02*
D03*
X35827Y80709D02*
D03*
X55512Y79921D02*
D03*
X110487Y35020D02*
D03*
X46847Y92030D02*
D03*
X104220Y94619D02*
D03*
X70866Y85433D02*
D03*
X81890Y77953D02*
D03*
X102362Y68504D02*
D03*
Y59842D02*
D03*
Y49606D02*
D03*
Y40157D02*
D03*
X113779Y68898D02*
D03*
X4724Y59842D02*
D03*
X30709Y77559D02*
D03*
X41000Y80626D02*
D03*
X83071Y59055D02*
D03*
X86002Y43188D02*
D03*
X40087Y92030D02*
D03*
X39622Y98438D02*
D03*
X121057Y113000D02*
D03*
X31500Y60126D02*
D03*
X35000Y54126D02*
D03*
X45000Y74126D02*
D03*
Y60626D02*
D03*
X41500Y70626D02*
D03*
X34000Y62626D02*
D03*
X62731Y92030D02*
D03*
X37674Y88700D02*
D03*
X82676Y33351D02*
D03*
X51000Y72126D02*
D03*
X60000Y69126D02*
D03*
X12919Y23223D02*
D03*
X114567Y29921D02*
D03*
X115500Y40000D02*
D03*
X114500Y20500D02*
D03*
X116142Y60236D02*
D03*
X115500Y49500D02*
D03*
X87533Y33379D02*
D03*
X51500Y51126D02*
D03*
X45000Y50626D02*
D03*
X54500Y53626D02*
D03*
X27076Y115714D02*
D03*
X103500Y20500D02*
D03*
X41500Y54126D02*
D03*
X70841Y92030D02*
D03*
X85564Y107124D02*
D03*
X24016Y98032D02*
D03*
X79037Y92030D02*
D03*
M02*
