G04*
G04 #@! TF.GenerationSoftware,Altium Limited,Altium Designer,18.1.7 (191)*
G04*
G04 Layer_Color=32896*
%FSLAX25Y25*%
%MOIN*%
G70*
G01*
G75*
%ADD16C,0.00787*%
%ADD17C,0.00800*%
%ADD51C,0.00591*%
%ADD85C,0.00984*%
%ADD86C,0.00500*%
G36*
X91100Y532252D02*
X89809D01*
Y537890D01*
X84712D01*
X84586Y537878D01*
X84482Y537867D01*
X84378Y537832D01*
X84297Y537786D01*
X84228Y537740D01*
X84171Y537694D01*
X84090Y537579D01*
X84032Y537452D01*
X84009Y537360D01*
X83997Y537279D01*
Y537267D01*
Y537256D01*
Y536898D01*
X84009Y536795D01*
X84032Y536714D01*
X84067Y536633D01*
X84113Y536564D01*
X84228Y536460D01*
X84355Y536391D01*
X84482Y536356D01*
X84597Y536333D01*
X84643Y536322D01*
X89417D01*
Y535054D01*
X84712D01*
X84609Y535042D01*
X84516Y535031D01*
X84424Y535007D01*
X84355Y534984D01*
X84297Y534950D01*
X84251Y534927D01*
X84228Y534915D01*
X84217Y534904D01*
X84147Y534846D01*
X84090Y534777D01*
X84055Y534708D01*
X84021Y534639D01*
X84009Y534569D01*
X83997Y534523D01*
Y534489D01*
Y534477D01*
Y532252D01*
X82695D01*
Y534477D01*
Y534604D01*
X82718Y534719D01*
X82775Y534950D01*
X82856Y535157D01*
X82948Y535330D01*
X83052Y535480D01*
X83133Y535596D01*
X83190Y535665D01*
X83202Y535676D01*
X83214Y535688D01*
X83121Y535791D01*
X83040Y535895D01*
X82914Y536103D01*
X82822Y536299D01*
X82764Y536495D01*
X82718Y536656D01*
X82706Y536783D01*
X82695Y536829D01*
Y536864D01*
Y536887D01*
Y536898D01*
Y537256D01*
X82706Y537406D01*
X82718Y537544D01*
X82787Y537809D01*
X82879Y538040D01*
X82983Y538236D01*
X83098Y538386D01*
X83190Y538501D01*
X83260Y538570D01*
X83271Y538593D01*
X83283D01*
X83398Y538686D01*
X83513Y538766D01*
X83755Y538905D01*
X83997Y538997D01*
X84217Y539054D01*
X84413Y539101D01*
X84493Y539112D01*
X84574D01*
X84632Y539124D01*
X91100D01*
Y532252D01*
D02*
G37*
G36*
X81761D02*
X80458D01*
Y539124D01*
X81761D01*
Y532252D01*
D02*
G37*
G36*
X77794Y539112D02*
X77933Y539101D01*
X78198Y539043D01*
X78429Y538951D01*
X78636Y538847D01*
X78809Y538743D01*
X78878Y538697D01*
X78936Y538662D01*
X78982Y538616D01*
X79017Y538593D01*
X79028Y538582D01*
X79040Y538570D01*
X79143Y538466D01*
X79236Y538363D01*
X79328Y538247D01*
X79397Y538144D01*
X79501Y537924D01*
X79570Y537717D01*
X79616Y537533D01*
X79628Y537463D01*
X79639Y537394D01*
X79651Y537336D01*
Y537302D01*
Y537279D01*
Y537267D01*
Y534097D01*
X79639Y533947D01*
X79628Y533808D01*
X79558Y533555D01*
X79466Y533324D01*
X79351Y533128D01*
X79247Y532978D01*
X79155Y532863D01*
X79086Y532794D01*
X79074Y532782D01*
X79063Y532771D01*
X78947Y532678D01*
X78832Y532598D01*
X78590Y532471D01*
X78359Y532379D01*
X78129Y532321D01*
X77933Y532275D01*
X77852Y532263D01*
X77783D01*
X77725Y532252D01*
X71591D01*
Y533497D01*
X77644D01*
X77771Y533508D01*
X77875Y533520D01*
X77967Y533555D01*
X78048Y533589D01*
X78117Y533635D01*
X78175Y533693D01*
X78256Y533808D01*
X78313Y533912D01*
X78336Y534016D01*
X78348Y534085D01*
Y534097D01*
Y534108D01*
Y537256D01*
X78336Y537348D01*
X78313Y537429D01*
X78279Y537509D01*
X78233Y537567D01*
X78198Y537625D01*
X78163Y537659D01*
X78140Y537682D01*
X78129Y537694D01*
X78048Y537763D01*
X77956Y537809D01*
X77875Y537844D01*
X77806Y537867D01*
X77737Y537878D01*
X77691Y537890D01*
X71591D01*
Y539124D01*
X77644D01*
X77794Y539112D01*
D02*
G37*
G36*
X69043D02*
X69182Y539101D01*
X69447Y539043D01*
X69677Y538951D01*
X69885Y538847D01*
X70058Y538743D01*
X70127Y538697D01*
X70185Y538662D01*
X70231Y538616D01*
X70265Y538593D01*
X70277Y538582D01*
X70288Y538570D01*
X70392Y538466D01*
X70484Y538363D01*
X70577Y538247D01*
X70646Y538144D01*
X70749Y537924D01*
X70819Y537717D01*
X70865Y537533D01*
X70876Y537463D01*
X70888Y537394D01*
X70899Y537336D01*
Y537302D01*
Y537279D01*
Y537267D01*
Y534097D01*
X70888Y533947D01*
X70876Y533808D01*
X70807Y533555D01*
X70715Y533324D01*
X70600Y533128D01*
X70496Y532978D01*
X70404Y532863D01*
X70335Y532794D01*
X70323Y532782D01*
X70311Y532771D01*
X70196Y532678D01*
X70081Y532598D01*
X69839Y532471D01*
X69608Y532379D01*
X69377Y532321D01*
X69182Y532275D01*
X69101Y532263D01*
X69032D01*
X68974Y532252D01*
X62840D01*
Y533497D01*
X68893D01*
X69020Y533508D01*
X69124Y533520D01*
X69216Y533555D01*
X69297Y533589D01*
X69366Y533635D01*
X69424Y533693D01*
X69504Y533808D01*
X69562Y533912D01*
X69585Y534016D01*
X69597Y534085D01*
Y534097D01*
Y534108D01*
Y535054D01*
X62840D01*
Y536322D01*
X69597D01*
Y537267D01*
X69585Y537360D01*
X69562Y537440D01*
X69481Y537567D01*
X69447Y537625D01*
X69412Y537659D01*
X69389Y537682D01*
X69377Y537694D01*
X69297Y537763D01*
X69204Y537809D01*
X69124Y537844D01*
X69055Y537867D01*
X68985Y537878D01*
X68939Y537890D01*
X62840D01*
Y539124D01*
X68893D01*
X69043Y539112D01*
D02*
G37*
G36*
X91100Y396838D02*
X89809D01*
Y402477D01*
X84712D01*
X84586Y402465D01*
X84482Y402454D01*
X84378Y402419D01*
X84297Y402373D01*
X84228Y402327D01*
X84171Y402281D01*
X84090Y402165D01*
X84032Y402038D01*
X84009Y401946D01*
X83997Y401865D01*
Y401854D01*
Y401842D01*
Y401485D01*
X84009Y401381D01*
X84032Y401300D01*
X84067Y401220D01*
X84113Y401151D01*
X84228Y401047D01*
X84355Y400978D01*
X84482Y400943D01*
X84597Y400920D01*
X84643Y400908D01*
X89417D01*
Y399640D01*
X84712D01*
X84609Y399629D01*
X84516Y399617D01*
X84424Y399594D01*
X84355Y399571D01*
X84297Y399536D01*
X84251Y399513D01*
X84228Y399502D01*
X84217Y399490D01*
X84147Y399433D01*
X84090Y399363D01*
X84055Y399294D01*
X84021Y399225D01*
X84009Y399156D01*
X83997Y399110D01*
Y399075D01*
Y399064D01*
Y396838D01*
X82695D01*
Y399064D01*
Y399190D01*
X82718Y399306D01*
X82775Y399536D01*
X82856Y399744D01*
X82948Y399917D01*
X83052Y400067D01*
X83133Y400182D01*
X83190Y400251D01*
X83202Y400263D01*
X83214Y400274D01*
X83121Y400378D01*
X83040Y400482D01*
X82914Y400689D01*
X82822Y400885D01*
X82764Y401081D01*
X82718Y401243D01*
X82706Y401370D01*
X82695Y401416D01*
Y401450D01*
Y401473D01*
Y401485D01*
Y401842D01*
X82706Y401992D01*
X82718Y402131D01*
X82787Y402396D01*
X82879Y402626D01*
X82983Y402822D01*
X83098Y402972D01*
X83190Y403088D01*
X83260Y403157D01*
X83271Y403180D01*
X83283D01*
X83398Y403272D01*
X83513Y403353D01*
X83755Y403491D01*
X83997Y403583D01*
X84217Y403641D01*
X84413Y403687D01*
X84493Y403699D01*
X84574D01*
X84632Y403710D01*
X91100D01*
Y396838D01*
D02*
G37*
G36*
X81761D02*
X80458D01*
Y403710D01*
X81761D01*
Y396838D01*
D02*
G37*
G36*
X77794Y403699D02*
X77933Y403687D01*
X78198Y403629D01*
X78429Y403537D01*
X78636Y403434D01*
X78809Y403330D01*
X78878Y403284D01*
X78936Y403249D01*
X78982Y403203D01*
X79017Y403180D01*
X79028Y403168D01*
X79040Y403157D01*
X79143Y403053D01*
X79236Y402949D01*
X79328Y402834D01*
X79397Y402730D01*
X79501Y402511D01*
X79570Y402304D01*
X79616Y402119D01*
X79628Y402050D01*
X79639Y401981D01*
X79651Y401923D01*
Y401889D01*
Y401865D01*
Y401854D01*
Y398683D01*
X79639Y398533D01*
X79628Y398395D01*
X79558Y398141D01*
X79466Y397911D01*
X79351Y397715D01*
X79247Y397565D01*
X79155Y397449D01*
X79086Y397380D01*
X79074Y397369D01*
X79063Y397357D01*
X78947Y397265D01*
X78832Y397184D01*
X78590Y397057D01*
X78359Y396965D01*
X78129Y396907D01*
X77933Y396861D01*
X77852Y396850D01*
X77783D01*
X77725Y396838D01*
X71591D01*
Y398084D01*
X77644D01*
X77771Y398095D01*
X77875Y398107D01*
X77967Y398141D01*
X78048Y398176D01*
X78117Y398222D01*
X78175Y398280D01*
X78256Y398395D01*
X78313Y398499D01*
X78336Y398602D01*
X78348Y398672D01*
Y398683D01*
Y398695D01*
Y401842D01*
X78336Y401935D01*
X78313Y402015D01*
X78279Y402096D01*
X78233Y402154D01*
X78198Y402211D01*
X78163Y402246D01*
X78140Y402269D01*
X78129Y402281D01*
X78048Y402350D01*
X77956Y402396D01*
X77875Y402430D01*
X77806Y402454D01*
X77737Y402465D01*
X77691Y402477D01*
X71591D01*
Y403710D01*
X77644D01*
X77794Y403699D01*
D02*
G37*
G36*
X69043D02*
X69182Y403687D01*
X69447Y403629D01*
X69677Y403537D01*
X69885Y403434D01*
X70058Y403330D01*
X70127Y403284D01*
X70185Y403249D01*
X70231Y403203D01*
X70265Y403180D01*
X70277Y403168D01*
X70288Y403157D01*
X70392Y403053D01*
X70484Y402949D01*
X70577Y402834D01*
X70646Y402730D01*
X70749Y402511D01*
X70819Y402304D01*
X70865Y402119D01*
X70876Y402050D01*
X70888Y401981D01*
X70899Y401923D01*
Y401889D01*
Y401865D01*
Y401854D01*
Y398683D01*
X70888Y398533D01*
X70876Y398395D01*
X70807Y398141D01*
X70715Y397911D01*
X70600Y397715D01*
X70496Y397565D01*
X70404Y397449D01*
X70335Y397380D01*
X70323Y397369D01*
X70311Y397357D01*
X70196Y397265D01*
X70081Y397184D01*
X69839Y397057D01*
X69608Y396965D01*
X69377Y396907D01*
X69182Y396861D01*
X69101Y396850D01*
X69032D01*
X68974Y396838D01*
X62840D01*
Y398084D01*
X68893D01*
X69020Y398095D01*
X69124Y398107D01*
X69216Y398141D01*
X69297Y398176D01*
X69366Y398222D01*
X69424Y398280D01*
X69504Y398395D01*
X69562Y398499D01*
X69585Y398602D01*
X69597Y398672D01*
Y398683D01*
Y398695D01*
Y399640D01*
X62840D01*
Y400908D01*
X69597D01*
Y401854D01*
X69585Y401946D01*
X69562Y402027D01*
X69481Y402154D01*
X69447Y402211D01*
X69412Y402246D01*
X69389Y402269D01*
X69377Y402281D01*
X69297Y402350D01*
X69204Y402396D01*
X69124Y402430D01*
X69055Y402454D01*
X68985Y402465D01*
X68939Y402477D01*
X62840D01*
Y403710D01*
X68893D01*
X69043Y403699D01*
D02*
G37*
G36*
X91100Y261425D02*
X89809D01*
Y267063D01*
X84712D01*
X84586Y267052D01*
X84482Y267040D01*
X84378Y267005D01*
X84297Y266959D01*
X84228Y266913D01*
X84171Y266867D01*
X84090Y266752D01*
X84032Y266625D01*
X84009Y266533D01*
X83997Y266452D01*
Y266441D01*
Y266429D01*
Y266072D01*
X84009Y265968D01*
X84032Y265887D01*
X84067Y265806D01*
X84113Y265737D01*
X84228Y265633D01*
X84355Y265564D01*
X84482Y265530D01*
X84597Y265507D01*
X84643Y265495D01*
X89417D01*
Y264227D01*
X84712D01*
X84609Y264215D01*
X84516Y264204D01*
X84424Y264181D01*
X84355Y264158D01*
X84297Y264123D01*
X84251Y264100D01*
X84228Y264088D01*
X84217Y264077D01*
X84147Y264019D01*
X84090Y263950D01*
X84055Y263881D01*
X84021Y263812D01*
X84009Y263742D01*
X83997Y263696D01*
Y263662D01*
Y263650D01*
Y261425D01*
X82695D01*
Y263650D01*
Y263777D01*
X82718Y263892D01*
X82775Y264123D01*
X82856Y264331D01*
X82948Y264504D01*
X83052Y264653D01*
X83133Y264769D01*
X83190Y264838D01*
X83202Y264849D01*
X83214Y264861D01*
X83121Y264965D01*
X83040Y265068D01*
X82914Y265276D01*
X82822Y265472D01*
X82764Y265668D01*
X82718Y265829D01*
X82706Y265956D01*
X82695Y266002D01*
Y266037D01*
Y266060D01*
Y266072D01*
Y266429D01*
X82706Y266579D01*
X82718Y266717D01*
X82787Y266982D01*
X82879Y267213D01*
X82983Y267409D01*
X83098Y267559D01*
X83190Y267674D01*
X83260Y267743D01*
X83271Y267766D01*
X83283D01*
X83398Y267859D01*
X83513Y267939D01*
X83755Y268078D01*
X83997Y268170D01*
X84217Y268228D01*
X84413Y268274D01*
X84493Y268285D01*
X84574D01*
X84632Y268297D01*
X91100D01*
Y261425D01*
D02*
G37*
G36*
X81761D02*
X80458D01*
Y268297D01*
X81761D01*
Y261425D01*
D02*
G37*
G36*
X77794Y268285D02*
X77933Y268274D01*
X78198Y268216D01*
X78429Y268124D01*
X78636Y268020D01*
X78809Y267916D01*
X78878Y267870D01*
X78936Y267836D01*
X78982Y267790D01*
X79017Y267766D01*
X79028Y267755D01*
X79040Y267743D01*
X79143Y267640D01*
X79236Y267536D01*
X79328Y267421D01*
X79397Y267317D01*
X79501Y267098D01*
X79570Y266890D01*
X79616Y266706D01*
X79628Y266636D01*
X79639Y266567D01*
X79651Y266510D01*
Y266475D01*
Y266452D01*
Y266441D01*
Y263270D01*
X79639Y263120D01*
X79628Y262982D01*
X79558Y262728D01*
X79466Y262497D01*
X79351Y262301D01*
X79247Y262151D01*
X79155Y262036D01*
X79086Y261967D01*
X79074Y261955D01*
X79063Y261944D01*
X78947Y261852D01*
X78832Y261771D01*
X78590Y261644D01*
X78359Y261552D01*
X78129Y261494D01*
X77933Y261448D01*
X77852Y261437D01*
X77783D01*
X77725Y261425D01*
X71591D01*
Y262670D01*
X77644D01*
X77771Y262682D01*
X77875Y262693D01*
X77967Y262728D01*
X78048Y262762D01*
X78117Y262809D01*
X78175Y262866D01*
X78256Y262982D01*
X78313Y263085D01*
X78336Y263189D01*
X78348Y263258D01*
Y263270D01*
Y263281D01*
Y266429D01*
X78336Y266521D01*
X78313Y266602D01*
X78279Y266683D01*
X78233Y266740D01*
X78198Y266798D01*
X78163Y266832D01*
X78140Y266856D01*
X78129Y266867D01*
X78048Y266936D01*
X77956Y266982D01*
X77875Y267017D01*
X77806Y267040D01*
X77737Y267052D01*
X77691Y267063D01*
X71591D01*
Y268297D01*
X77644D01*
X77794Y268285D01*
D02*
G37*
G36*
X69043D02*
X69182Y268274D01*
X69447Y268216D01*
X69677Y268124D01*
X69885Y268020D01*
X70058Y267916D01*
X70127Y267870D01*
X70185Y267836D01*
X70231Y267790D01*
X70265Y267766D01*
X70277Y267755D01*
X70288Y267743D01*
X70392Y267640D01*
X70484Y267536D01*
X70577Y267421D01*
X70646Y267317D01*
X70749Y267098D01*
X70819Y266890D01*
X70865Y266706D01*
X70876Y266636D01*
X70888Y266567D01*
X70899Y266510D01*
Y266475D01*
Y266452D01*
Y266441D01*
Y263270D01*
X70888Y263120D01*
X70876Y262982D01*
X70807Y262728D01*
X70715Y262497D01*
X70600Y262301D01*
X70496Y262151D01*
X70404Y262036D01*
X70335Y261967D01*
X70323Y261955D01*
X70311Y261944D01*
X70196Y261852D01*
X70081Y261771D01*
X69839Y261644D01*
X69608Y261552D01*
X69377Y261494D01*
X69182Y261448D01*
X69101Y261437D01*
X69032D01*
X68974Y261425D01*
X62840D01*
Y262670D01*
X68893D01*
X69020Y262682D01*
X69124Y262693D01*
X69216Y262728D01*
X69297Y262762D01*
X69366Y262809D01*
X69424Y262866D01*
X69504Y262982D01*
X69562Y263085D01*
X69585Y263189D01*
X69597Y263258D01*
Y263270D01*
Y263281D01*
Y264227D01*
X62840D01*
Y265495D01*
X69597D01*
Y266441D01*
X69585Y266533D01*
X69562Y266614D01*
X69481Y266740D01*
X69447Y266798D01*
X69412Y266832D01*
X69389Y266856D01*
X69377Y266867D01*
X69297Y266936D01*
X69204Y266982D01*
X69124Y267017D01*
X69055Y267040D01*
X68985Y267052D01*
X68939Y267063D01*
X62840D01*
Y268297D01*
X68893D01*
X69043Y268285D01*
D02*
G37*
G36*
X91100Y126012D02*
X89809D01*
Y131650D01*
X84712D01*
X84586Y131638D01*
X84482Y131627D01*
X84378Y131592D01*
X84297Y131546D01*
X84228Y131500D01*
X84171Y131454D01*
X84090Y131338D01*
X84032Y131212D01*
X84009Y131119D01*
X83997Y131039D01*
Y131027D01*
Y131016D01*
Y130658D01*
X84009Y130554D01*
X84032Y130474D01*
X84067Y130393D01*
X84113Y130324D01*
X84228Y130220D01*
X84355Y130151D01*
X84482Y130116D01*
X84597Y130093D01*
X84643Y130082D01*
X89417D01*
Y128813D01*
X84712D01*
X84609Y128802D01*
X84516Y128790D01*
X84424Y128767D01*
X84355Y128744D01*
X84297Y128710D01*
X84251Y128686D01*
X84228Y128675D01*
X84217Y128663D01*
X84147Y128606D01*
X84090Y128537D01*
X84055Y128467D01*
X84021Y128398D01*
X84009Y128329D01*
X83997Y128283D01*
Y128248D01*
Y128237D01*
Y126012D01*
X82695D01*
Y128237D01*
Y128364D01*
X82718Y128479D01*
X82775Y128710D01*
X82856Y128917D01*
X82948Y129090D01*
X83052Y129240D01*
X83133Y129355D01*
X83190Y129424D01*
X83202Y129436D01*
X83214Y129447D01*
X83121Y129551D01*
X83040Y129655D01*
X82914Y129863D01*
X82822Y130059D01*
X82764Y130255D01*
X82718Y130416D01*
X82706Y130543D01*
X82695Y130589D01*
Y130623D01*
Y130647D01*
Y130658D01*
Y131016D01*
X82706Y131166D01*
X82718Y131304D01*
X82787Y131569D01*
X82879Y131800D01*
X82983Y131996D01*
X83098Y132146D01*
X83190Y132261D01*
X83260Y132330D01*
X83271Y132353D01*
X83283D01*
X83398Y132445D01*
X83513Y132526D01*
X83755Y132664D01*
X83997Y132757D01*
X84217Y132814D01*
X84413Y132860D01*
X84493Y132872D01*
X84574D01*
X84632Y132883D01*
X91100D01*
Y126012D01*
D02*
G37*
G36*
X81761D02*
X80458D01*
Y132883D01*
X81761D01*
Y126012D01*
D02*
G37*
G36*
X77794Y132872D02*
X77933Y132860D01*
X78198Y132803D01*
X78429Y132711D01*
X78636Y132607D01*
X78809Y132503D01*
X78878Y132457D01*
X78936Y132422D01*
X78982Y132376D01*
X79017Y132353D01*
X79028Y132342D01*
X79040Y132330D01*
X79143Y132226D01*
X79236Y132122D01*
X79328Y132007D01*
X79397Y131903D01*
X79501Y131684D01*
X79570Y131477D01*
X79616Y131292D01*
X79628Y131223D01*
X79639Y131154D01*
X79651Y131096D01*
Y131062D01*
Y131039D01*
Y131027D01*
Y127856D01*
X79639Y127706D01*
X79628Y127568D01*
X79558Y127314D01*
X79466Y127084D01*
X79351Y126888D01*
X79247Y126738D01*
X79155Y126623D01*
X79086Y126553D01*
X79074Y126542D01*
X79063Y126530D01*
X78947Y126438D01*
X78832Y126357D01*
X78590Y126231D01*
X78359Y126138D01*
X78129Y126081D01*
X77933Y126035D01*
X77852Y126023D01*
X77783D01*
X77725Y126012D01*
X71591D01*
Y127257D01*
X77644D01*
X77771Y127268D01*
X77875Y127280D01*
X77967Y127314D01*
X78048Y127349D01*
X78117Y127395D01*
X78175Y127453D01*
X78256Y127568D01*
X78313Y127672D01*
X78336Y127776D01*
X78348Y127845D01*
Y127856D01*
Y127868D01*
Y131016D01*
X78336Y131108D01*
X78313Y131188D01*
X78279Y131269D01*
X78233Y131327D01*
X78198Y131385D01*
X78163Y131419D01*
X78140Y131442D01*
X78129Y131454D01*
X78048Y131523D01*
X77956Y131569D01*
X77875Y131604D01*
X77806Y131627D01*
X77737Y131638D01*
X77691Y131650D01*
X71591D01*
Y132883D01*
X77644D01*
X77794Y132872D01*
D02*
G37*
G36*
X69043D02*
X69182Y132860D01*
X69447Y132803D01*
X69677Y132711D01*
X69885Y132607D01*
X70058Y132503D01*
X70127Y132457D01*
X70185Y132422D01*
X70231Y132376D01*
X70265Y132353D01*
X70277Y132342D01*
X70288Y132330D01*
X70392Y132226D01*
X70484Y132122D01*
X70577Y132007D01*
X70646Y131903D01*
X70749Y131684D01*
X70819Y131477D01*
X70865Y131292D01*
X70876Y131223D01*
X70888Y131154D01*
X70899Y131096D01*
Y131062D01*
Y131039D01*
Y131027D01*
Y127856D01*
X70888Y127706D01*
X70876Y127568D01*
X70807Y127314D01*
X70715Y127084D01*
X70600Y126888D01*
X70496Y126738D01*
X70404Y126623D01*
X70335Y126553D01*
X70323Y126542D01*
X70311Y126530D01*
X70196Y126438D01*
X70081Y126357D01*
X69839Y126231D01*
X69608Y126138D01*
X69377Y126081D01*
X69182Y126035D01*
X69101Y126023D01*
X69032D01*
X68974Y126012D01*
X62840D01*
Y127257D01*
X68893D01*
X69020Y127268D01*
X69124Y127280D01*
X69216Y127314D01*
X69297Y127349D01*
X69366Y127395D01*
X69424Y127453D01*
X69504Y127568D01*
X69562Y127672D01*
X69585Y127776D01*
X69597Y127845D01*
Y127856D01*
Y127868D01*
Y128813D01*
X62840D01*
Y130082D01*
X69597D01*
Y131027D01*
X69585Y131119D01*
X69562Y131200D01*
X69481Y131327D01*
X69447Y131385D01*
X69412Y131419D01*
X69389Y131442D01*
X69377Y131454D01*
X69297Y131523D01*
X69204Y131569D01*
X69124Y131604D01*
X69055Y131627D01*
X68985Y131638D01*
X68939Y131650D01*
X62840D01*
Y132883D01*
X68893D01*
X69043Y132872D01*
D02*
G37*
D16*
X122000Y105500D02*
X123094Y105500D01*
X123094Y105500D01*
X134906Y100500D02*
Y105500D01*
X123094Y100500D02*
Y105500D01*
X52500Y116500D02*
Y132500D01*
X21300Y116500D02*
Y132500D01*
X41600Y34800D02*
X42300Y33700D01*
X45500Y43400D02*
X48100Y43500D01*
X42400Y116400D02*
X52500Y116500D01*
X21300D02*
X30400Y116400D01*
X92913Y68536D02*
Y66437D01*
X91863Y65387D01*
X90813Y66437D01*
Y68536D01*
X89764D02*
Y65387D01*
X88190D01*
X87665Y65912D01*
Y68011D01*
X88190Y68536D01*
X89764D01*
X86615D02*
Y65387D01*
X85041D01*
X84516Y65912D01*
Y68011D01*
X85041Y68536D01*
X86615D01*
X97600Y14349D02*
Y11200D01*
Y12250D01*
X95501Y14349D01*
X97075Y12774D01*
X95501Y11200D01*
X92352Y14349D02*
X94451D01*
Y11200D01*
X92352D01*
X94451Y12774D02*
X93402D01*
X91303Y14349D02*
X89204D01*
X90253D01*
Y11200D01*
X86055Y13824D02*
X86580Y14349D01*
X87629D01*
X88154Y13824D01*
Y11725D01*
X87629Y11200D01*
X86580D01*
X86055Y11725D01*
X85006Y13299D02*
Y11725D01*
X84481Y11200D01*
X82907D01*
Y13299D01*
X81857Y14349D02*
Y11200D01*
X80283D01*
X79758Y11725D01*
Y12250D01*
Y12774D01*
X80283Y13299D01*
X81857D01*
X77134Y11200D02*
X78184D01*
X78708Y11725D01*
Y12774D01*
X78184Y13299D01*
X77134D01*
X76609Y12774D01*
Y12250D01*
X78708D01*
X75560Y10675D02*
X73461D01*
X72411Y11200D02*
X71362D01*
X71886D01*
Y14349D01*
X72411Y13824D01*
X69788D02*
X69263Y14349D01*
X68213D01*
X67688Y13824D01*
Y13299D01*
X68213Y12774D01*
X67688Y12250D01*
Y11725D01*
X68213Y11200D01*
X69263D01*
X69788Y11725D01*
Y12250D01*
X69263Y12774D01*
X69788Y13299D01*
Y13824D01*
X69263Y12774D02*
X68213D01*
X66639Y13824D02*
X66114Y14349D01*
X65065D01*
X64540Y13824D01*
Y11725D01*
X65065Y11200D01*
X66114D01*
X66639Y11725D01*
Y13824D01*
X63490D02*
X62966Y14349D01*
X61916D01*
X61391Y13824D01*
Y13299D01*
X61916Y12774D01*
X61391Y12250D01*
Y11725D01*
X61916Y11200D01*
X62966D01*
X63490Y11725D01*
Y12250D01*
X62966Y12774D01*
X63490Y13299D01*
Y13824D01*
X62966Y12774D02*
X61916D01*
X55094Y14349D02*
X57193D01*
Y11200D01*
X55094D01*
X57193Y12774D02*
X56144D01*
X54045Y11200D02*
X52995D01*
X53520D01*
Y14349D01*
X54045Y13824D01*
X96062Y63049D02*
X93963D01*
X95013D01*
Y59900D01*
X90815Y62524D02*
X91339Y63049D01*
X92389D01*
X92914Y62524D01*
Y60425D01*
X92389Y59900D01*
X91339D01*
X90815Y60425D01*
X89765Y63049D02*
X87666Y59900D01*
Y63049D02*
X89765Y59900D01*
X85042Y63049D02*
X86092D01*
X86616Y62524D01*
Y60425D01*
X86092Y59900D01*
X85042D01*
X84517Y60425D01*
Y62524D01*
X85042Y63049D01*
X94700Y54400D02*
Y57549D01*
X93126D01*
X92601Y57024D01*
Y55974D01*
X93126Y55449D01*
X94700D01*
X91551Y54400D02*
Y56499D01*
X90502Y57549D01*
X89452Y56499D01*
Y54400D01*
Y55974D01*
X91551D01*
X88403Y54400D02*
X87353D01*
X87878D01*
Y57549D01*
X88403Y57024D01*
X83680Y54400D02*
X85779D01*
X83680Y56499D01*
Y57024D01*
X84205Y57549D01*
X85254D01*
X85779Y57024D01*
X93000Y73724D02*
X92475Y74249D01*
X91426D01*
X90901Y73724D01*
Y73199D01*
X91426Y72674D01*
X91951D01*
X91426D01*
X90901Y72149D01*
Y71625D01*
X91426Y71100D01*
X92475D01*
X93000Y71625D01*
X89851Y74249D02*
Y72149D01*
X88802Y71100D01*
X87752Y72149D01*
Y74249D01*
X86703Y73724D02*
X86178Y74249D01*
X85128D01*
X84604Y73724D01*
Y73199D01*
X85128Y72674D01*
X85653D01*
X85128D01*
X84604Y72149D01*
Y71625D01*
X85128Y71100D01*
X86178D01*
X86703Y71625D01*
X21624Y108299D02*
X22149Y107774D01*
Y106725D01*
X21624Y106200D01*
X19525D01*
X19000Y106725D01*
Y107774D01*
X19525Y108299D01*
Y109349D02*
X19000Y109873D01*
Y110923D01*
X19525Y111448D01*
X21624D01*
X22149Y110923D01*
Y109873D01*
X21624Y109349D01*
X21099D01*
X20574Y109873D01*
Y111448D01*
X35000Y17149D02*
Y15049D01*
X33950Y14000D01*
X32901Y15049D01*
Y17149D01*
X30277Y14000D02*
Y17149D01*
X31851Y15574D01*
X29752D01*
X90800Y33200D02*
Y36349D01*
X89226D01*
X88701Y35824D01*
Y34774D01*
X89226Y34249D01*
X90800D01*
X89750D02*
X88701Y33200D01*
X87651Y33725D02*
X87127Y33200D01*
X86077D01*
X85552Y33725D01*
Y35824D01*
X86077Y36349D01*
X87127D01*
X87651Y35824D01*
Y35299D01*
X87127Y34774D01*
X85552D01*
X121601Y87824D02*
X122126Y88349D01*
X123175D01*
X123700Y87824D01*
Y85725D01*
X123175Y85200D01*
X122126D01*
X121601Y85725D01*
X120551Y85200D02*
X119502D01*
X120027D01*
Y88349D01*
X120551Y87824D01*
X59473Y34298D02*
X60523D01*
X59998D01*
Y31674D01*
X60523Y31150D01*
X61048D01*
X61572Y31674D01*
X56325Y31150D02*
X58424D01*
X56325Y33249D01*
Y33773D01*
X56849Y34298D01*
X57899D01*
X58424Y33773D01*
X84000Y98419D02*
Y101567D01*
X82426D01*
X81901Y101043D01*
Y99993D01*
X82426Y99468D01*
X84000D01*
X82951D02*
X81901Y98419D01*
X79277D02*
Y101567D01*
X80851Y99993D01*
X78752D01*
X84000Y103000D02*
Y106149D01*
X82426D01*
X81901Y105624D01*
Y104574D01*
X82426Y104050D01*
X84000D01*
X82951D02*
X81901Y103000D01*
X78752D02*
X80851D01*
X78752Y105099D01*
Y105624D01*
X79277Y106149D01*
X80327D01*
X80851Y105624D01*
X84000Y93429D02*
Y96578D01*
X82426D01*
X81901Y96053D01*
Y95003D01*
X82426Y94479D01*
X84000D01*
X82951D02*
X81901Y93429D01*
X80851D02*
X79802D01*
X80327D01*
Y96578D01*
X80851Y96053D01*
X59300Y120649D02*
Y117500D01*
Y119074D01*
X57201D01*
Y120649D01*
Y117500D01*
X54052D02*
X56151D01*
X54052Y119599D01*
Y120124D01*
X54577Y120649D01*
X55627D01*
X56151Y120124D01*
X46101Y52624D02*
X46626Y53149D01*
X47675D01*
X48200Y52624D01*
Y50525D01*
X47675Y50000D01*
X46626D01*
X46101Y50525D01*
X42952Y53149D02*
X44002Y52624D01*
X45051Y51574D01*
Y50525D01*
X44527Y50000D01*
X43477D01*
X42952Y50525D01*
Y51050D01*
X43477Y51574D01*
X45051D01*
X43824Y40399D02*
X44349Y39874D01*
Y38825D01*
X43824Y38300D01*
X41725D01*
X41200Y38825D01*
Y39874D01*
X41725Y40399D01*
X44349Y43548D02*
Y41449D01*
X42774D01*
X43299Y42498D01*
Y43023D01*
X42774Y43548D01*
X41725D01*
X41200Y43023D01*
Y41973D01*
X41725Y41449D01*
X52301Y29924D02*
X52826Y30449D01*
X53875D01*
X54400Y29924D01*
Y27825D01*
X53875Y27300D01*
X52826D01*
X52301Y27825D01*
X49677Y27300D02*
Y30449D01*
X51251Y28874D01*
X49152D01*
X79801Y50024D02*
X80326Y50549D01*
X81375D01*
X81900Y50024D01*
Y47925D01*
X81375Y47400D01*
X80326D01*
X79801Y47925D01*
X78751Y50024D02*
X78227Y50549D01*
X77177D01*
X76652Y50024D01*
Y49499D01*
X77177Y48974D01*
X77702D01*
X77177D01*
X76652Y48450D01*
Y47925D01*
X77177Y47400D01*
X78227D01*
X78751Y47925D01*
X80401Y45124D02*
X80926Y45649D01*
X81975D01*
X82500Y45124D01*
Y43025D01*
X81975Y42500D01*
X80926D01*
X80401Y43025D01*
X77252Y42500D02*
X79351D01*
X77252Y44599D01*
Y45124D01*
X77777Y45649D01*
X78827D01*
X79351Y45124D01*
X45201Y32324D02*
X45726Y32849D01*
X46775D01*
X47300Y32324D01*
Y30225D01*
X46775Y29700D01*
X45726D01*
X45201Y30225D01*
X44151Y32849D02*
X42052D01*
Y32324D01*
X44151Y30225D01*
Y29700D01*
X37601Y25124D02*
X38126Y25649D01*
X39175D01*
X39700Y25124D01*
Y23025D01*
X39175Y22500D01*
X38126D01*
X37601Y23025D01*
X36551Y25124D02*
X36027Y25649D01*
X34977D01*
X34452Y25124D01*
Y24599D01*
X34977Y24074D01*
X34452Y23550D01*
Y23025D01*
X34977Y22500D01*
X36027D01*
X36551Y23025D01*
Y23550D01*
X36027Y24074D01*
X36551Y24599D01*
Y25124D01*
X36027Y24074D02*
X34977D01*
X26200Y49149D02*
X25150D01*
X25675D01*
Y46000D01*
X26200D01*
X25150D01*
X21477Y48624D02*
X22002Y49149D01*
X23051D01*
X23576Y48624D01*
Y46525D01*
X23051Y46000D01*
X22002D01*
X21477Y46525D01*
X18328Y46000D02*
X20428D01*
X18328Y48099D01*
Y48624D01*
X18853Y49149D01*
X19903D01*
X20428Y48624D01*
X35600Y49600D02*
Y52749D01*
X34026D01*
X33501Y52224D01*
Y51174D01*
X34026Y50649D01*
X35600D01*
X34550D02*
X33501Y49600D01*
X32451Y52224D02*
X31927Y52749D01*
X30877D01*
X30352Y52224D01*
Y51699D01*
X30877Y51174D01*
X31402D01*
X30877D01*
X30352Y50649D01*
Y50125D01*
X30877Y49600D01*
X31927D01*
X32451Y50125D01*
X81101Y55249D02*
X82151D01*
X81626D01*
Y52625D01*
X82151Y52100D01*
X82675D01*
X83200Y52625D01*
X80051Y54724D02*
X79527Y55249D01*
X78477D01*
X77952Y54724D01*
Y54199D01*
X78477Y53674D01*
X79002D01*
X78477D01*
X77952Y53149D01*
Y52625D01*
X78477Y52100D01*
X79527D01*
X80051Y52625D01*
X94387Y103687D02*
X97536D01*
Y105262D01*
X97011Y105787D01*
X95962D01*
X95437Y105262D01*
Y103687D01*
Y104737D02*
X94387Y105787D01*
X97011Y106836D02*
X97536Y107361D01*
Y108410D01*
X97011Y108935D01*
X96487D01*
X95962Y108410D01*
X95437Y108935D01*
X94912D01*
X94387Y108410D01*
Y107361D01*
X94912Y106836D01*
X95437D01*
X95962Y107361D01*
X96487Y106836D01*
X97011D01*
X95962Y107361D02*
Y108410D01*
X89292Y103787D02*
X92440D01*
Y105362D01*
X91916Y105886D01*
X90866D01*
X90341Y105362D01*
Y103787D01*
Y104837D02*
X89292Y105886D01*
X92440Y106936D02*
Y109035D01*
X91916D01*
X89817Y106936D01*
X89292D01*
X109601Y109449D02*
X110651D01*
X110126D01*
Y106825D01*
X110651Y106300D01*
X111175D01*
X111700Y106825D01*
X106452Y109449D02*
X107502Y108924D01*
X108551Y107874D01*
Y106825D01*
X108027Y106300D01*
X106977D01*
X106452Y106825D01*
Y107350D01*
X106977Y107874D01*
X108551D01*
X102389Y91086D02*
X103439D01*
X102914D01*
Y88462D01*
X103439Y87937D01*
X103963D01*
X104488Y88462D01*
X99240Y91086D02*
X101340D01*
Y89512D01*
X100290Y90036D01*
X99765D01*
X99240Y89512D01*
Y88462D01*
X99765Y87937D01*
X100815D01*
X101340Y88462D01*
X98401Y31149D02*
X99450D01*
X98926D01*
Y28525D01*
X99450Y28000D01*
X99975D01*
X100500Y28525D01*
X95777Y28000D02*
Y31149D01*
X97351Y29574D01*
X95252D01*
X120449Y102400D02*
Y103449D01*
Y102925D01*
X117300D01*
Y102400D01*
Y103449D01*
X119924Y107123D02*
X120449Y106598D01*
Y105549D01*
X119924Y105024D01*
X117825D01*
X117300Y105549D01*
Y106598D01*
X117825Y107123D01*
X119924Y108172D02*
X120449Y108697D01*
Y109747D01*
X119924Y110272D01*
X119399D01*
X118874Y109747D01*
Y109222D01*
Y109747D01*
X118350Y110272D01*
X117825D01*
X117300Y109747D01*
Y108697D01*
X117825Y108172D01*
X49200Y114249D02*
Y111100D01*
Y112674D01*
X47101D01*
Y114249D01*
Y111100D01*
X46051D02*
X45002D01*
X45527D01*
Y114249D01*
X46051Y113724D01*
X99600Y119549D02*
Y116400D01*
Y117974D01*
X97501D01*
Y119549D01*
Y116400D01*
X96451Y119549D02*
X94352D01*
Y119024D01*
X96451Y116925D01*
Y116400D01*
X122000Y240913D02*
X123094Y240913D01*
X123094Y240913D01*
X134906Y235913D02*
Y240913D01*
X123094Y235913D02*
Y240913D01*
X52500Y251913D02*
Y267913D01*
X21300Y251913D02*
Y267913D01*
X41600Y170213D02*
X42300Y169113D01*
X45500Y178813D02*
X48100Y178913D01*
X42400Y251813D02*
X52500Y251913D01*
X21300D02*
X30400Y251813D01*
X92913Y203949D02*
Y201850D01*
X91863Y200801D01*
X90813Y201850D01*
Y203949D01*
X89764D02*
Y200801D01*
X88190D01*
X87665Y201326D01*
Y203425D01*
X88190Y203949D01*
X89764D01*
X86615D02*
Y200801D01*
X85041D01*
X84516Y201326D01*
Y203425D01*
X85041Y203949D01*
X86615D01*
X97600Y149762D02*
Y146613D01*
Y147663D01*
X95501Y149762D01*
X97075Y148188D01*
X95501Y146613D01*
X92352Y149762D02*
X94451D01*
Y146613D01*
X92352D01*
X94451Y148188D02*
X93402D01*
X91303Y149762D02*
X89204D01*
X90253D01*
Y146613D01*
X86055Y149237D02*
X86580Y149762D01*
X87629D01*
X88154Y149237D01*
Y147138D01*
X87629Y146613D01*
X86580D01*
X86055Y147138D01*
X85006Y148713D02*
Y147138D01*
X84481Y146613D01*
X82907D01*
Y148713D01*
X81857Y149762D02*
Y146613D01*
X80283D01*
X79758Y147138D01*
Y147663D01*
Y148188D01*
X80283Y148713D01*
X81857D01*
X77134Y146613D02*
X78184D01*
X78708Y147138D01*
Y148188D01*
X78184Y148713D01*
X77134D01*
X76609Y148188D01*
Y147663D01*
X78708D01*
X75560Y146089D02*
X73461D01*
X72411Y146613D02*
X71362D01*
X71886D01*
Y149762D01*
X72411Y149237D01*
X69788D02*
X69263Y149762D01*
X68213D01*
X67688Y149237D01*
Y148713D01*
X68213Y148188D01*
X67688Y147663D01*
Y147138D01*
X68213Y146613D01*
X69263D01*
X69788Y147138D01*
Y147663D01*
X69263Y148188D01*
X69788Y148713D01*
Y149237D01*
X69263Y148188D02*
X68213D01*
X66639Y149237D02*
X66114Y149762D01*
X65065D01*
X64540Y149237D01*
Y147138D01*
X65065Y146613D01*
X66114D01*
X66639Y147138D01*
Y149237D01*
X63490D02*
X62966Y149762D01*
X61916D01*
X61391Y149237D01*
Y148713D01*
X61916Y148188D01*
X61391Y147663D01*
Y147138D01*
X61916Y146613D01*
X62966D01*
X63490Y147138D01*
Y147663D01*
X62966Y148188D01*
X63490Y148713D01*
Y149237D01*
X62966Y148188D02*
X61916D01*
X55094Y149762D02*
X57193D01*
Y146613D01*
X55094D01*
X57193Y148188D02*
X56144D01*
X54045Y146613D02*
X52995D01*
X53520D01*
Y149762D01*
X54045Y149237D01*
X96062Y198462D02*
X93963D01*
X95013D01*
Y195313D01*
X90815Y197937D02*
X91339Y198462D01*
X92389D01*
X92914Y197937D01*
Y195838D01*
X92389Y195313D01*
X91339D01*
X90815Y195838D01*
X89765Y198462D02*
X87666Y195313D01*
Y198462D02*
X89765Y195313D01*
X85042Y198462D02*
X86092D01*
X86616Y197937D01*
Y195838D01*
X86092Y195313D01*
X85042D01*
X84517Y195838D01*
Y197937D01*
X85042Y198462D01*
X94700Y189813D02*
Y192962D01*
X93126D01*
X92601Y192437D01*
Y191388D01*
X93126Y190863D01*
X94700D01*
X91551Y189813D02*
Y191912D01*
X90502Y192962D01*
X89452Y191912D01*
Y189813D01*
Y191388D01*
X91551D01*
X88403Y189813D02*
X87353D01*
X87878D01*
Y192962D01*
X88403Y192437D01*
X83680Y189813D02*
X85779D01*
X83680Y191912D01*
Y192437D01*
X84205Y192962D01*
X85254D01*
X85779Y192437D01*
X93000Y209137D02*
X92475Y209662D01*
X91426D01*
X90901Y209137D01*
Y208612D01*
X91426Y208088D01*
X91951D01*
X91426D01*
X90901Y207563D01*
Y207038D01*
X91426Y206513D01*
X92475D01*
X93000Y207038D01*
X89851Y209662D02*
Y207563D01*
X88802Y206513D01*
X87752Y207563D01*
Y209662D01*
X86703Y209137D02*
X86178Y209662D01*
X85128D01*
X84604Y209137D01*
Y208612D01*
X85128Y208088D01*
X85653D01*
X85128D01*
X84604Y207563D01*
Y207038D01*
X85128Y206513D01*
X86178D01*
X86703Y207038D01*
X21624Y243712D02*
X22149Y243188D01*
Y242138D01*
X21624Y241613D01*
X19525D01*
X19000Y242138D01*
Y243188D01*
X19525Y243712D01*
Y244762D02*
X19000Y245287D01*
Y246336D01*
X19525Y246861D01*
X21624D01*
X22149Y246336D01*
Y245287D01*
X21624Y244762D01*
X21099D01*
X20574Y245287D01*
Y246861D01*
X35000Y152562D02*
Y150463D01*
X33950Y149413D01*
X32901Y150463D01*
Y152562D01*
X30277Y149413D02*
Y152562D01*
X31851Y150988D01*
X29752D01*
X90800Y168613D02*
Y171762D01*
X89226D01*
X88701Y171237D01*
Y170188D01*
X89226Y169663D01*
X90800D01*
X89750D02*
X88701Y168613D01*
X87651Y169138D02*
X87127Y168613D01*
X86077D01*
X85552Y169138D01*
Y171237D01*
X86077Y171762D01*
X87127D01*
X87651Y171237D01*
Y170712D01*
X87127Y170188D01*
X85552D01*
X121601Y223237D02*
X122126Y223762D01*
X123175D01*
X123700Y223237D01*
Y221138D01*
X123175Y220613D01*
X122126D01*
X121601Y221138D01*
X120551Y220613D02*
X119502D01*
X120027D01*
Y223762D01*
X120551Y223237D01*
X59473Y169712D02*
X60523D01*
X59998D01*
Y167088D01*
X60523Y166563D01*
X61048D01*
X61572Y167088D01*
X56325Y166563D02*
X58424D01*
X56325Y168662D01*
Y169187D01*
X56849Y169712D01*
X57899D01*
X58424Y169187D01*
X84000Y233832D02*
Y236981D01*
X82426D01*
X81901Y236456D01*
Y235407D01*
X82426Y234882D01*
X84000D01*
X82951D02*
X81901Y233832D01*
X79277D02*
Y236981D01*
X80851Y235407D01*
X78752D01*
X84000Y238413D02*
Y241562D01*
X82426D01*
X81901Y241037D01*
Y239988D01*
X82426Y239463D01*
X84000D01*
X82951D02*
X81901Y238413D01*
X78752D02*
X80851D01*
X78752Y240512D01*
Y241037D01*
X79277Y241562D01*
X80327D01*
X80851Y241037D01*
X84000Y228842D02*
Y231991D01*
X82426D01*
X81901Y231466D01*
Y230417D01*
X82426Y229892D01*
X84000D01*
X82951D02*
X81901Y228842D01*
X80851D02*
X79802D01*
X80327D01*
Y231991D01*
X80851Y231466D01*
X59300Y256062D02*
Y252913D01*
Y254488D01*
X57201D01*
Y256062D01*
Y252913D01*
X54052D02*
X56151D01*
X54052Y255012D01*
Y255537D01*
X54577Y256062D01*
X55627D01*
X56151Y255537D01*
X46101Y188037D02*
X46626Y188562D01*
X47675D01*
X48200Y188037D01*
Y185938D01*
X47675Y185413D01*
X46626D01*
X46101Y185938D01*
X42952Y188562D02*
X44002Y188037D01*
X45051Y186988D01*
Y185938D01*
X44527Y185413D01*
X43477D01*
X42952Y185938D01*
Y186463D01*
X43477Y186988D01*
X45051D01*
X43824Y175812D02*
X44349Y175288D01*
Y174238D01*
X43824Y173713D01*
X41725D01*
X41200Y174238D01*
Y175288D01*
X41725Y175812D01*
X44349Y178961D02*
Y176862D01*
X42774D01*
X43299Y177911D01*
Y178436D01*
X42774Y178961D01*
X41725D01*
X41200Y178436D01*
Y177387D01*
X41725Y176862D01*
X52301Y165337D02*
X52826Y165862D01*
X53875D01*
X54400Y165337D01*
Y163238D01*
X53875Y162713D01*
X52826D01*
X52301Y163238D01*
X49677Y162713D02*
Y165862D01*
X51251Y164288D01*
X49152D01*
X79801Y185437D02*
X80326Y185962D01*
X81375D01*
X81900Y185437D01*
Y183338D01*
X81375Y182813D01*
X80326D01*
X79801Y183338D01*
X78751Y185437D02*
X78227Y185962D01*
X77177D01*
X76652Y185437D01*
Y184913D01*
X77177Y184388D01*
X77702D01*
X77177D01*
X76652Y183863D01*
Y183338D01*
X77177Y182813D01*
X78227D01*
X78751Y183338D01*
X80401Y180537D02*
X80926Y181062D01*
X81975D01*
X82500Y180537D01*
Y178438D01*
X81975Y177913D01*
X80926D01*
X80401Y178438D01*
X77252Y177913D02*
X79351D01*
X77252Y180013D01*
Y180537D01*
X77777Y181062D01*
X78827D01*
X79351Y180537D01*
X45201Y167737D02*
X45726Y168262D01*
X46775D01*
X47300Y167737D01*
Y165638D01*
X46775Y165113D01*
X45726D01*
X45201Y165638D01*
X44151Y168262D02*
X42052D01*
Y167737D01*
X44151Y165638D01*
Y165113D01*
X37601Y160537D02*
X38126Y161062D01*
X39175D01*
X39700Y160537D01*
Y158438D01*
X39175Y157913D01*
X38126D01*
X37601Y158438D01*
X36551Y160537D02*
X36027Y161062D01*
X34977D01*
X34452Y160537D01*
Y160012D01*
X34977Y159488D01*
X34452Y158963D01*
Y158438D01*
X34977Y157913D01*
X36027D01*
X36551Y158438D01*
Y158963D01*
X36027Y159488D01*
X36551Y160012D01*
Y160537D01*
X36027Y159488D02*
X34977D01*
X26200Y184562D02*
X25150D01*
X25675D01*
Y181413D01*
X26200D01*
X25150D01*
X21477Y184037D02*
X22002Y184562D01*
X23051D01*
X23576Y184037D01*
Y181938D01*
X23051Y181413D01*
X22002D01*
X21477Y181938D01*
X18328Y181413D02*
X20428D01*
X18328Y183512D01*
Y184037D01*
X18853Y184562D01*
X19903D01*
X20428Y184037D01*
X35600Y185013D02*
Y188162D01*
X34026D01*
X33501Y187637D01*
Y186588D01*
X34026Y186063D01*
X35600D01*
X34550D02*
X33501Y185013D01*
X32451Y187637D02*
X31927Y188162D01*
X30877D01*
X30352Y187637D01*
Y187112D01*
X30877Y186588D01*
X31402D01*
X30877D01*
X30352Y186063D01*
Y185538D01*
X30877Y185013D01*
X31927D01*
X32451Y185538D01*
X81101Y190662D02*
X82151D01*
X81626D01*
Y188038D01*
X82151Y187513D01*
X82675D01*
X83200Y188038D01*
X80051Y190137D02*
X79527Y190662D01*
X78477D01*
X77952Y190137D01*
Y189612D01*
X78477Y189088D01*
X79002D01*
X78477D01*
X77952Y188563D01*
Y188038D01*
X78477Y187513D01*
X79527D01*
X80051Y188038D01*
X94387Y239101D02*
X97536D01*
Y240675D01*
X97011Y241200D01*
X95962D01*
X95437Y240675D01*
Y239101D01*
Y240150D02*
X94387Y241200D01*
X97011Y242249D02*
X97536Y242774D01*
Y243824D01*
X97011Y244349D01*
X96487D01*
X95962Y243824D01*
X95437Y244349D01*
X94912D01*
X94387Y243824D01*
Y242774D01*
X94912Y242249D01*
X95437D01*
X95962Y242774D01*
X96487Y242249D01*
X97011D01*
X95962Y242774D02*
Y243824D01*
X89292Y239201D02*
X92440D01*
Y240775D01*
X91916Y241300D01*
X90866D01*
X90341Y240775D01*
Y239201D01*
Y240250D02*
X89292Y241300D01*
X92440Y242349D02*
Y244448D01*
X91916D01*
X89817Y242349D01*
X89292D01*
X109601Y244862D02*
X110651D01*
X110126D01*
Y242238D01*
X110651Y241713D01*
X111175D01*
X111700Y242238D01*
X106452Y244862D02*
X107502Y244337D01*
X108551Y243288D01*
Y242238D01*
X108027Y241713D01*
X106977D01*
X106452Y242238D01*
Y242763D01*
X106977Y243288D01*
X108551D01*
X102389Y226499D02*
X103439D01*
X102914D01*
Y223876D01*
X103439Y223351D01*
X103963D01*
X104488Y223876D01*
X99240Y226499D02*
X101340D01*
Y224925D01*
X100290Y225450D01*
X99765D01*
X99240Y224925D01*
Y223876D01*
X99765Y223351D01*
X100815D01*
X101340Y223876D01*
X98401Y166562D02*
X99450D01*
X98926D01*
Y163938D01*
X99450Y163413D01*
X99975D01*
X100500Y163938D01*
X95777Y163413D02*
Y166562D01*
X97351Y164988D01*
X95252D01*
X120449Y237813D02*
Y238863D01*
Y238338D01*
X117300D01*
Y237813D01*
Y238863D01*
X119924Y242536D02*
X120449Y242011D01*
Y240962D01*
X119924Y240437D01*
X117825D01*
X117300Y240962D01*
Y242011D01*
X117825Y242536D01*
X119924Y243586D02*
X120449Y244111D01*
Y245160D01*
X119924Y245685D01*
X119399D01*
X118874Y245160D01*
Y244635D01*
Y245160D01*
X118350Y245685D01*
X117825D01*
X117300Y245160D01*
Y244111D01*
X117825Y243586D01*
X49200Y249662D02*
Y246513D01*
Y248088D01*
X47101D01*
Y249662D01*
Y246513D01*
X46051D02*
X45002D01*
X45527D01*
Y249662D01*
X46051Y249137D01*
X99600Y254962D02*
Y251813D01*
Y253388D01*
X97501D01*
Y254962D01*
Y251813D01*
X96451Y254962D02*
X94352D01*
Y254437D01*
X96451Y252338D01*
Y251813D01*
X122000Y376327D02*
X123094Y376327D01*
X123094Y376327D01*
X134906Y371327D02*
Y376327D01*
X123094Y371327D02*
Y376327D01*
X52500Y387327D02*
Y403327D01*
X21300Y387327D02*
Y403327D01*
X41600Y305627D02*
X42300Y304527D01*
X45500Y314227D02*
X48100Y314327D01*
X42400Y387227D02*
X52500Y387327D01*
X21300D02*
X30400Y387227D01*
X92913Y339363D02*
Y337264D01*
X91863Y336214D01*
X90813Y337264D01*
Y339363D01*
X89764D02*
Y336214D01*
X88190D01*
X87665Y336739D01*
Y338838D01*
X88190Y339363D01*
X89764D01*
X86615D02*
Y336214D01*
X85041D01*
X84516Y336739D01*
Y338838D01*
X85041Y339363D01*
X86615D01*
X97600Y285175D02*
Y282027D01*
Y283076D01*
X95501Y285175D01*
X97075Y283601D01*
X95501Y282027D01*
X92352Y285175D02*
X94451D01*
Y282027D01*
X92352D01*
X94451Y283601D02*
X93402D01*
X91303Y285175D02*
X89204D01*
X90253D01*
Y282027D01*
X86055Y284651D02*
X86580Y285175D01*
X87629D01*
X88154Y284651D01*
Y282552D01*
X87629Y282027D01*
X86580D01*
X86055Y282552D01*
X85006Y284126D02*
Y282552D01*
X84481Y282027D01*
X82907D01*
Y284126D01*
X81857Y285175D02*
Y282027D01*
X80283D01*
X79758Y282552D01*
Y283076D01*
Y283601D01*
X80283Y284126D01*
X81857D01*
X77134Y282027D02*
X78184D01*
X78708Y282552D01*
Y283601D01*
X78184Y284126D01*
X77134D01*
X76609Y283601D01*
Y283076D01*
X78708D01*
X75560Y281502D02*
X73461D01*
X72411Y282027D02*
X71362D01*
X71886D01*
Y285175D01*
X72411Y284651D01*
X69788D02*
X69263Y285175D01*
X68213D01*
X67688Y284651D01*
Y284126D01*
X68213Y283601D01*
X67688Y283076D01*
Y282552D01*
X68213Y282027D01*
X69263D01*
X69788Y282552D01*
Y283076D01*
X69263Y283601D01*
X69788Y284126D01*
Y284651D01*
X69263Y283601D02*
X68213D01*
X66639Y284651D02*
X66114Y285175D01*
X65065D01*
X64540Y284651D01*
Y282552D01*
X65065Y282027D01*
X66114D01*
X66639Y282552D01*
Y284651D01*
X63490D02*
X62966Y285175D01*
X61916D01*
X61391Y284651D01*
Y284126D01*
X61916Y283601D01*
X61391Y283076D01*
Y282552D01*
X61916Y282027D01*
X62966D01*
X63490Y282552D01*
Y283076D01*
X62966Y283601D01*
X63490Y284126D01*
Y284651D01*
X62966Y283601D02*
X61916D01*
X55094Y285175D02*
X57193D01*
Y282027D01*
X55094D01*
X57193Y283601D02*
X56144D01*
X54045Y282027D02*
X52995D01*
X53520D01*
Y285175D01*
X54045Y284651D01*
X96062Y333875D02*
X93963D01*
X95013D01*
Y330727D01*
X90815Y333351D02*
X91339Y333875D01*
X92389D01*
X92914Y333351D01*
Y331252D01*
X92389Y330727D01*
X91339D01*
X90815Y331252D01*
X89765Y333875D02*
X87666Y330727D01*
Y333875D02*
X89765Y330727D01*
X85042Y333875D02*
X86092D01*
X86616Y333351D01*
Y331252D01*
X86092Y330727D01*
X85042D01*
X84517Y331252D01*
Y333351D01*
X85042Y333875D01*
X94700Y325227D02*
Y328375D01*
X93126D01*
X92601Y327851D01*
Y326801D01*
X93126Y326276D01*
X94700D01*
X91551Y325227D02*
Y327326D01*
X90502Y328375D01*
X89452Y327326D01*
Y325227D01*
Y326801D01*
X91551D01*
X88403Y325227D02*
X87353D01*
X87878D01*
Y328375D01*
X88403Y327851D01*
X83680Y325227D02*
X85779D01*
X83680Y327326D01*
Y327851D01*
X84205Y328375D01*
X85254D01*
X85779Y327851D01*
X93000Y344551D02*
X92475Y345075D01*
X91426D01*
X90901Y344551D01*
Y344026D01*
X91426Y343501D01*
X91951D01*
X91426D01*
X90901Y342976D01*
Y342452D01*
X91426Y341927D01*
X92475D01*
X93000Y342452D01*
X89851Y345075D02*
Y342976D01*
X88802Y341927D01*
X87752Y342976D01*
Y345075D01*
X86703Y344551D02*
X86178Y345075D01*
X85128D01*
X84604Y344551D01*
Y344026D01*
X85128Y343501D01*
X85653D01*
X85128D01*
X84604Y342976D01*
Y342452D01*
X85128Y341927D01*
X86178D01*
X86703Y342452D01*
X21624Y379126D02*
X22149Y378601D01*
Y377552D01*
X21624Y377027D01*
X19525D01*
X19000Y377552D01*
Y378601D01*
X19525Y379126D01*
Y380175D02*
X19000Y380700D01*
Y381750D01*
X19525Y382275D01*
X21624D01*
X22149Y381750D01*
Y380700D01*
X21624Y380175D01*
X21099D01*
X20574Y380700D01*
Y382275D01*
X35000Y287975D02*
Y285876D01*
X33950Y284827D01*
X32901Y285876D01*
Y287975D01*
X30277Y284827D02*
Y287975D01*
X31851Y286401D01*
X29752D01*
X90800Y304027D02*
Y307175D01*
X89226D01*
X88701Y306651D01*
Y305601D01*
X89226Y305076D01*
X90800D01*
X89750D02*
X88701Y304027D01*
X87651Y304552D02*
X87127Y304027D01*
X86077D01*
X85552Y304552D01*
Y306651D01*
X86077Y307175D01*
X87127D01*
X87651Y306651D01*
Y306126D01*
X87127Y305601D01*
X85552D01*
X121601Y358651D02*
X122126Y359175D01*
X123175D01*
X123700Y358651D01*
Y356552D01*
X123175Y356027D01*
X122126D01*
X121601Y356552D01*
X120551Y356027D02*
X119502D01*
X120027D01*
Y359175D01*
X120551Y358651D01*
X59473Y305125D02*
X60523D01*
X59998D01*
Y302501D01*
X60523Y301976D01*
X61048D01*
X61572Y302501D01*
X56325Y301976D02*
X58424D01*
X56325Y304076D01*
Y304600D01*
X56849Y305125D01*
X57899D01*
X58424Y304600D01*
X84000Y369246D02*
Y372394D01*
X82426D01*
X81901Y371870D01*
Y370820D01*
X82426Y370295D01*
X84000D01*
X82951D02*
X81901Y369246D01*
X79277D02*
Y372394D01*
X80851Y370820D01*
X78752D01*
X84000Y373827D02*
Y376975D01*
X82426D01*
X81901Y376451D01*
Y375401D01*
X82426Y374876D01*
X84000D01*
X82951D02*
X81901Y373827D01*
X78752D02*
X80851D01*
X78752Y375926D01*
Y376451D01*
X79277Y376975D01*
X80327D01*
X80851Y376451D01*
X84000Y364256D02*
Y367405D01*
X82426D01*
X81901Y366880D01*
Y365830D01*
X82426Y365305D01*
X84000D01*
X82951D02*
X81901Y364256D01*
X80851D02*
X79802D01*
X80327D01*
Y367405D01*
X80851Y366880D01*
X59300Y391475D02*
Y388327D01*
Y389901D01*
X57201D01*
Y391475D01*
Y388327D01*
X54052D02*
X56151D01*
X54052Y390426D01*
Y390951D01*
X54577Y391475D01*
X55627D01*
X56151Y390951D01*
X46101Y323451D02*
X46626Y323975D01*
X47675D01*
X48200Y323451D01*
Y321352D01*
X47675Y320827D01*
X46626D01*
X46101Y321352D01*
X42952Y323975D02*
X44002Y323451D01*
X45051Y322401D01*
Y321352D01*
X44527Y320827D01*
X43477D01*
X42952Y321352D01*
Y321876D01*
X43477Y322401D01*
X45051D01*
X43824Y311226D02*
X44349Y310701D01*
Y309652D01*
X43824Y309127D01*
X41725D01*
X41200Y309652D01*
Y310701D01*
X41725Y311226D01*
X44349Y314374D02*
Y312275D01*
X42774D01*
X43299Y313325D01*
Y313850D01*
X42774Y314374D01*
X41725D01*
X41200Y313850D01*
Y312800D01*
X41725Y312275D01*
X52301Y300751D02*
X52826Y301275D01*
X53875D01*
X54400Y300751D01*
Y298652D01*
X53875Y298127D01*
X52826D01*
X52301Y298652D01*
X49677Y298127D02*
Y301275D01*
X51251Y299701D01*
X49152D01*
X79801Y320851D02*
X80326Y321375D01*
X81375D01*
X81900Y320851D01*
Y318752D01*
X81375Y318227D01*
X80326D01*
X79801Y318752D01*
X78751Y320851D02*
X78227Y321375D01*
X77177D01*
X76652Y320851D01*
Y320326D01*
X77177Y319801D01*
X77702D01*
X77177D01*
X76652Y319276D01*
Y318752D01*
X77177Y318227D01*
X78227D01*
X78751Y318752D01*
X80401Y315951D02*
X80926Y316475D01*
X81975D01*
X82500Y315951D01*
Y313852D01*
X81975Y313327D01*
X80926D01*
X80401Y313852D01*
X77252Y313327D02*
X79351D01*
X77252Y315426D01*
Y315951D01*
X77777Y316475D01*
X78827D01*
X79351Y315951D01*
X45201Y303151D02*
X45726Y303675D01*
X46775D01*
X47300Y303151D01*
Y301052D01*
X46775Y300527D01*
X45726D01*
X45201Y301052D01*
X44151Y303675D02*
X42052D01*
Y303151D01*
X44151Y301052D01*
Y300527D01*
X37601Y295951D02*
X38126Y296475D01*
X39175D01*
X39700Y295951D01*
Y293852D01*
X39175Y293327D01*
X38126D01*
X37601Y293852D01*
X36551Y295951D02*
X36027Y296475D01*
X34977D01*
X34452Y295951D01*
Y295426D01*
X34977Y294901D01*
X34452Y294376D01*
Y293852D01*
X34977Y293327D01*
X36027D01*
X36551Y293852D01*
Y294376D01*
X36027Y294901D01*
X36551Y295426D01*
Y295951D01*
X36027Y294901D02*
X34977D01*
X26200Y319975D02*
X25150D01*
X25675D01*
Y316827D01*
X26200D01*
X25150D01*
X21477Y319451D02*
X22002Y319975D01*
X23051D01*
X23576Y319451D01*
Y317352D01*
X23051Y316827D01*
X22002D01*
X21477Y317352D01*
X18328Y316827D02*
X20428D01*
X18328Y318926D01*
Y319451D01*
X18853Y319975D01*
X19903D01*
X20428Y319451D01*
X35600Y320427D02*
Y323575D01*
X34026D01*
X33501Y323051D01*
Y322001D01*
X34026Y321476D01*
X35600D01*
X34550D02*
X33501Y320427D01*
X32451Y323051D02*
X31927Y323575D01*
X30877D01*
X30352Y323051D01*
Y322526D01*
X30877Y322001D01*
X31402D01*
X30877D01*
X30352Y321476D01*
Y320952D01*
X30877Y320427D01*
X31927D01*
X32451Y320952D01*
X81101Y326075D02*
X82151D01*
X81626D01*
Y323452D01*
X82151Y322927D01*
X82675D01*
X83200Y323452D01*
X80051Y325551D02*
X79527Y326075D01*
X78477D01*
X77952Y325551D01*
Y325026D01*
X78477Y324501D01*
X79002D01*
X78477D01*
X77952Y323976D01*
Y323452D01*
X78477Y322927D01*
X79527D01*
X80051Y323452D01*
X94387Y374514D02*
X97536D01*
Y376089D01*
X97011Y376613D01*
X95962D01*
X95437Y376089D01*
Y374514D01*
Y375564D02*
X94387Y376613D01*
X97011Y377663D02*
X97536Y378188D01*
Y379237D01*
X97011Y379762D01*
X96487D01*
X95962Y379237D01*
X95437Y379762D01*
X94912D01*
X94387Y379237D01*
Y378188D01*
X94912Y377663D01*
X95437D01*
X95962Y378188D01*
X96487Y377663D01*
X97011D01*
X95962Y378188D02*
Y379237D01*
X89292Y374614D02*
X92440D01*
Y376188D01*
X91916Y376713D01*
X90866D01*
X90341Y376188D01*
Y374614D01*
Y375664D02*
X89292Y376713D01*
X92440Y377763D02*
Y379862D01*
X91916D01*
X89817Y377763D01*
X89292D01*
X109601Y380275D02*
X110651D01*
X110126D01*
Y377652D01*
X110651Y377127D01*
X111175D01*
X111700Y377652D01*
X106452Y380275D02*
X107502Y379751D01*
X108551Y378701D01*
Y377652D01*
X108027Y377127D01*
X106977D01*
X106452Y377652D01*
Y378176D01*
X106977Y378701D01*
X108551D01*
X102389Y361913D02*
X103439D01*
X102914D01*
Y359289D01*
X103439Y358764D01*
X103963D01*
X104488Y359289D01*
X99240Y361913D02*
X101340D01*
Y360338D01*
X100290Y360863D01*
X99765D01*
X99240Y360338D01*
Y359289D01*
X99765Y358764D01*
X100815D01*
X101340Y359289D01*
X98401Y301975D02*
X99450D01*
X98926D01*
Y299352D01*
X99450Y298827D01*
X99975D01*
X100500Y299352D01*
X95777Y298827D02*
Y301975D01*
X97351Y300401D01*
X95252D01*
X120449Y373227D02*
Y374276D01*
Y373752D01*
X117300D01*
Y373227D01*
Y374276D01*
X119924Y377950D02*
X120449Y377425D01*
Y376375D01*
X119924Y375851D01*
X117825D01*
X117300Y376375D01*
Y377425D01*
X117825Y377950D01*
X119924Y378999D02*
X120449Y379524D01*
Y380574D01*
X119924Y381098D01*
X119399D01*
X118874Y380574D01*
Y380049D01*
Y380574D01*
X118350Y381098D01*
X117825D01*
X117300Y380574D01*
Y379524D01*
X117825Y378999D01*
X49200Y385075D02*
Y381927D01*
Y383501D01*
X47101D01*
Y385075D01*
Y381927D01*
X46051D02*
X45002D01*
X45527D01*
Y385075D01*
X46051Y384551D01*
X99600Y390375D02*
Y387227D01*
Y388801D01*
X97501D01*
Y390375D01*
Y387227D01*
X96451Y390375D02*
X94352D01*
Y389851D01*
X96451Y387752D01*
Y387227D01*
X122000Y511740D02*
X123094Y511740D01*
X123094Y511740D01*
X134906Y506740D02*
Y511740D01*
X123094Y506740D02*
Y511740D01*
X52500Y522740D02*
Y538740D01*
X21300Y522740D02*
Y538740D01*
X41600Y441040D02*
X42300Y439940D01*
X45500Y449640D02*
X48100Y449740D01*
X42400Y522640D02*
X52500Y522740D01*
X21300D02*
X30400Y522640D01*
X92913Y474776D02*
Y472677D01*
X91863Y471628D01*
X90813Y472677D01*
Y474776D01*
X89764D02*
Y471628D01*
X88190D01*
X87665Y472152D01*
Y474252D01*
X88190Y474776D01*
X89764D01*
X86615D02*
Y471628D01*
X85041D01*
X84516Y472152D01*
Y474252D01*
X85041Y474776D01*
X86615D01*
X97600Y420589D02*
Y417440D01*
Y418490D01*
X95501Y420589D01*
X97075Y419015D01*
X95501Y417440D01*
X92352Y420589D02*
X94451D01*
Y417440D01*
X92352D01*
X94451Y419015D02*
X93402D01*
X91303Y420589D02*
X89204D01*
X90253D01*
Y417440D01*
X86055Y420064D02*
X86580Y420589D01*
X87629D01*
X88154Y420064D01*
Y417965D01*
X87629Y417440D01*
X86580D01*
X86055Y417965D01*
X85006Y419539D02*
Y417965D01*
X84481Y417440D01*
X82907D01*
Y419539D01*
X81857Y420589D02*
Y417440D01*
X80283D01*
X79758Y417965D01*
Y418490D01*
Y419015D01*
X80283Y419539D01*
X81857D01*
X77134Y417440D02*
X78184D01*
X78708Y417965D01*
Y419015D01*
X78184Y419539D01*
X77134D01*
X76609Y419015D01*
Y418490D01*
X78708D01*
X75560Y416916D02*
X73461D01*
X72411Y417440D02*
X71362D01*
X71886D01*
Y420589D01*
X72411Y420064D01*
X69788D02*
X69263Y420589D01*
X68213D01*
X67688Y420064D01*
Y419539D01*
X68213Y419015D01*
X67688Y418490D01*
Y417965D01*
X68213Y417440D01*
X69263D01*
X69788Y417965D01*
Y418490D01*
X69263Y419015D01*
X69788Y419539D01*
Y420064D01*
X69263Y419015D02*
X68213D01*
X66639Y420064D02*
X66114Y420589D01*
X65065D01*
X64540Y420064D01*
Y417965D01*
X65065Y417440D01*
X66114D01*
X66639Y417965D01*
Y420064D01*
X63490D02*
X62966Y420589D01*
X61916D01*
X61391Y420064D01*
Y419539D01*
X61916Y419015D01*
X61391Y418490D01*
Y417965D01*
X61916Y417440D01*
X62966D01*
X63490Y417965D01*
Y418490D01*
X62966Y419015D01*
X63490Y419539D01*
Y420064D01*
X62966Y419015D02*
X61916D01*
X55094Y420589D02*
X57193D01*
Y417440D01*
X55094D01*
X57193Y419015D02*
X56144D01*
X54045Y417440D02*
X52995D01*
X53520D01*
Y420589D01*
X54045Y420064D01*
X96062Y469289D02*
X93963D01*
X95013D01*
Y466140D01*
X90815Y468764D02*
X91339Y469289D01*
X92389D01*
X92914Y468764D01*
Y466665D01*
X92389Y466140D01*
X91339D01*
X90815Y466665D01*
X89765Y469289D02*
X87666Y466140D01*
Y469289D02*
X89765Y466140D01*
X85042Y469289D02*
X86092D01*
X86616Y468764D01*
Y466665D01*
X86092Y466140D01*
X85042D01*
X84517Y466665D01*
Y468764D01*
X85042Y469289D01*
X94700Y460640D02*
Y463789D01*
X93126D01*
X92601Y463264D01*
Y462215D01*
X93126Y461690D01*
X94700D01*
X91551Y460640D02*
Y462739D01*
X90502Y463789D01*
X89452Y462739D01*
Y460640D01*
Y462215D01*
X91551D01*
X88403Y460640D02*
X87353D01*
X87878D01*
Y463789D01*
X88403Y463264D01*
X83680Y460640D02*
X85779D01*
X83680Y462739D01*
Y463264D01*
X84205Y463789D01*
X85254D01*
X85779Y463264D01*
X93000Y479964D02*
X92475Y480489D01*
X91426D01*
X90901Y479964D01*
Y479439D01*
X91426Y478914D01*
X91951D01*
X91426D01*
X90901Y478390D01*
Y477865D01*
X91426Y477340D01*
X92475D01*
X93000Y477865D01*
X89851Y480489D02*
Y478390D01*
X88802Y477340D01*
X87752Y478390D01*
Y480489D01*
X86703Y479964D02*
X86178Y480489D01*
X85128D01*
X84604Y479964D01*
Y479439D01*
X85128Y478914D01*
X85653D01*
X85128D01*
X84604Y478390D01*
Y477865D01*
X85128Y477340D01*
X86178D01*
X86703Y477865D01*
X21624Y514539D02*
X22149Y514014D01*
Y512965D01*
X21624Y512440D01*
X19525D01*
X19000Y512965D01*
Y514014D01*
X19525Y514539D01*
Y515589D02*
X19000Y516114D01*
Y517163D01*
X19525Y517688D01*
X21624D01*
X22149Y517163D01*
Y516114D01*
X21624Y515589D01*
X21099D01*
X20574Y516114D01*
Y517688D01*
X35000Y423389D02*
Y421290D01*
X33950Y420240D01*
X32901Y421290D01*
Y423389D01*
X30277Y420240D02*
Y423389D01*
X31851Y421814D01*
X29752D01*
X90800Y439440D02*
Y442589D01*
X89226D01*
X88701Y442064D01*
Y441014D01*
X89226Y440490D01*
X90800D01*
X89750D02*
X88701Y439440D01*
X87651Y439965D02*
X87127Y439440D01*
X86077D01*
X85552Y439965D01*
Y442064D01*
X86077Y442589D01*
X87127D01*
X87651Y442064D01*
Y441539D01*
X87127Y441014D01*
X85552D01*
X121601Y494064D02*
X122126Y494589D01*
X123175D01*
X123700Y494064D01*
Y491965D01*
X123175Y491440D01*
X122126D01*
X121601Y491965D01*
X120551Y491440D02*
X119502D01*
X120027D01*
Y494589D01*
X120551Y494064D01*
X59473Y440538D02*
X60523D01*
X59998D01*
Y437915D01*
X60523Y437390D01*
X61048D01*
X61572Y437915D01*
X56325Y437390D02*
X58424D01*
X56325Y439489D01*
Y440014D01*
X56849Y440538D01*
X57899D01*
X58424Y440014D01*
X84000Y504659D02*
Y507808D01*
X82426D01*
X81901Y507283D01*
Y506233D01*
X82426Y505709D01*
X84000D01*
X82951D02*
X81901Y504659D01*
X79277D02*
Y507808D01*
X80851Y506233D01*
X78752D01*
X84000Y509240D02*
Y512389D01*
X82426D01*
X81901Y511864D01*
Y510815D01*
X82426Y510290D01*
X84000D01*
X82951D02*
X81901Y509240D01*
X78752D02*
X80851D01*
X78752Y511339D01*
Y511864D01*
X79277Y512389D01*
X80327D01*
X80851Y511864D01*
X84000Y499669D02*
Y502818D01*
X82426D01*
X81901Y502293D01*
Y501244D01*
X82426Y500719D01*
X84000D01*
X82951D02*
X81901Y499669D01*
X80851D02*
X79802D01*
X80327D01*
Y502818D01*
X80851Y502293D01*
X59300Y526889D02*
Y523740D01*
Y525315D01*
X57201D01*
Y526889D01*
Y523740D01*
X54052D02*
X56151D01*
X54052Y525839D01*
Y526364D01*
X54577Y526889D01*
X55627D01*
X56151Y526364D01*
X46101Y458864D02*
X46626Y459389D01*
X47675D01*
X48200Y458864D01*
Y456765D01*
X47675Y456240D01*
X46626D01*
X46101Y456765D01*
X42952Y459389D02*
X44002Y458864D01*
X45051Y457815D01*
Y456765D01*
X44527Y456240D01*
X43477D01*
X42952Y456765D01*
Y457290D01*
X43477Y457815D01*
X45051D01*
X43824Y446639D02*
X44349Y446114D01*
Y445065D01*
X43824Y444540D01*
X41725D01*
X41200Y445065D01*
Y446114D01*
X41725Y446639D01*
X44349Y449788D02*
Y447689D01*
X42774D01*
X43299Y448738D01*
Y449263D01*
X42774Y449788D01*
X41725D01*
X41200Y449263D01*
Y448214D01*
X41725Y447689D01*
X52301Y436164D02*
X52826Y436689D01*
X53875D01*
X54400Y436164D01*
Y434065D01*
X53875Y433540D01*
X52826D01*
X52301Y434065D01*
X49677Y433540D02*
Y436689D01*
X51251Y435114D01*
X49152D01*
X79801Y456264D02*
X80326Y456789D01*
X81375D01*
X81900Y456264D01*
Y454165D01*
X81375Y453640D01*
X80326D01*
X79801Y454165D01*
X78751Y456264D02*
X78227Y456789D01*
X77177D01*
X76652Y456264D01*
Y455739D01*
X77177Y455215D01*
X77702D01*
X77177D01*
X76652Y454690D01*
Y454165D01*
X77177Y453640D01*
X78227D01*
X78751Y454165D01*
X80401Y451364D02*
X80926Y451889D01*
X81975D01*
X82500Y451364D01*
Y449265D01*
X81975Y448740D01*
X80926D01*
X80401Y449265D01*
X77252Y448740D02*
X79351D01*
X77252Y450839D01*
Y451364D01*
X77777Y451889D01*
X78827D01*
X79351Y451364D01*
X45201Y438564D02*
X45726Y439089D01*
X46775D01*
X47300Y438564D01*
Y436465D01*
X46775Y435940D01*
X45726D01*
X45201Y436465D01*
X44151Y439089D02*
X42052D01*
Y438564D01*
X44151Y436465D01*
Y435940D01*
X37601Y431364D02*
X38126Y431889D01*
X39175D01*
X39700Y431364D01*
Y429265D01*
X39175Y428740D01*
X38126D01*
X37601Y429265D01*
X36551Y431364D02*
X36027Y431889D01*
X34977D01*
X34452Y431364D01*
Y430839D01*
X34977Y430314D01*
X34452Y429790D01*
Y429265D01*
X34977Y428740D01*
X36027D01*
X36551Y429265D01*
Y429790D01*
X36027Y430314D01*
X36551Y430839D01*
Y431364D01*
X36027Y430314D02*
X34977D01*
X26200Y455389D02*
X25150D01*
X25675D01*
Y452240D01*
X26200D01*
X25150D01*
X21477Y454864D02*
X22002Y455389D01*
X23051D01*
X23576Y454864D01*
Y452765D01*
X23051Y452240D01*
X22002D01*
X21477Y452765D01*
X18328Y452240D02*
X20428D01*
X18328Y454339D01*
Y454864D01*
X18853Y455389D01*
X19903D01*
X20428Y454864D01*
X35600Y455840D02*
Y458989D01*
X34026D01*
X33501Y458464D01*
Y457414D01*
X34026Y456890D01*
X35600D01*
X34550D02*
X33501Y455840D01*
X32451Y458464D02*
X31927Y458989D01*
X30877D01*
X30352Y458464D01*
Y457939D01*
X30877Y457414D01*
X31402D01*
X30877D01*
X30352Y456890D01*
Y456365D01*
X30877Y455840D01*
X31927D01*
X32451Y456365D01*
X81101Y461489D02*
X82151D01*
X81626D01*
Y458865D01*
X82151Y458340D01*
X82675D01*
X83200Y458865D01*
X80051Y460964D02*
X79527Y461489D01*
X78477D01*
X77952Y460964D01*
Y460439D01*
X78477Y459914D01*
X79002D01*
X78477D01*
X77952Y459390D01*
Y458865D01*
X78477Y458340D01*
X79527D01*
X80051Y458865D01*
X94387Y509928D02*
X97536D01*
Y511502D01*
X97011Y512027D01*
X95962D01*
X95437Y511502D01*
Y509928D01*
Y510977D02*
X94387Y512027D01*
X97011Y513076D02*
X97536Y513601D01*
Y514650D01*
X97011Y515175D01*
X96487D01*
X95962Y514650D01*
X95437Y515175D01*
X94912D01*
X94387Y514650D01*
Y513601D01*
X94912Y513076D01*
X95437D01*
X95962Y513601D01*
X96487Y513076D01*
X97011D01*
X95962Y513601D02*
Y514650D01*
X89292Y510028D02*
X92440D01*
Y511602D01*
X91916Y512127D01*
X90866D01*
X90341Y511602D01*
Y510028D01*
Y511077D02*
X89292Y512127D01*
X92440Y513176D02*
Y515275D01*
X91916D01*
X89817Y513176D01*
X89292D01*
X109601Y515689D02*
X110651D01*
X110126D01*
Y513065D01*
X110651Y512540D01*
X111175D01*
X111700Y513065D01*
X106452Y515689D02*
X107502Y515164D01*
X108551Y514115D01*
Y513065D01*
X108027Y512540D01*
X106977D01*
X106452Y513065D01*
Y513590D01*
X106977Y514115D01*
X108551D01*
X102389Y497326D02*
X103439D01*
X102914D01*
Y494702D01*
X103439Y494178D01*
X103963D01*
X104488Y494702D01*
X99240Y497326D02*
X101340D01*
Y495752D01*
X100290Y496277D01*
X99765D01*
X99240Y495752D01*
Y494702D01*
X99765Y494178D01*
X100815D01*
X101340Y494702D01*
X98401Y437389D02*
X99450D01*
X98926D01*
Y434765D01*
X99450Y434240D01*
X99975D01*
X100500Y434765D01*
X95777Y434240D02*
Y437389D01*
X97351Y435815D01*
X95252D01*
X120449Y508640D02*
Y509690D01*
Y509165D01*
X117300D01*
Y508640D01*
Y509690D01*
X119924Y513363D02*
X120449Y512838D01*
Y511789D01*
X119924Y511264D01*
X117825D01*
X117300Y511789D01*
Y512838D01*
X117825Y513363D01*
X119924Y514413D02*
X120449Y514937D01*
Y515987D01*
X119924Y516512D01*
X119399D01*
X118874Y515987D01*
Y515462D01*
Y515987D01*
X118350Y516512D01*
X117825D01*
X117300Y515987D01*
Y514937D01*
X117825Y514413D01*
X49200Y520489D02*
Y517340D01*
Y518915D01*
X47101D01*
Y520489D01*
Y517340D01*
X46051D02*
X45002D01*
X45527D01*
Y520489D01*
X46051Y519964D01*
X99600Y525789D02*
Y522640D01*
Y524215D01*
X97501D01*
Y525789D01*
Y522640D01*
X96451Y525789D02*
X94352D01*
Y525264D01*
X96451Y523165D01*
Y522640D01*
D17*
X79300Y35300D02*
X80700D01*
Y38700D01*
X79300D02*
X80700D01*
X79300Y35300D02*
Y38700D01*
X34900Y39600D02*
Y42600D01*
X23200D02*
X34900D01*
X23200Y39600D02*
Y42600D01*
Y39600D02*
X34900D01*
X32600D02*
X32800D01*
X34900Y41700D01*
X22000Y16000D02*
Y28000D01*
X28000Y16000D02*
Y28000D01*
X22000Y18600D02*
X28000D01*
X53300Y35900D02*
Y40100D01*
X54700Y35900D02*
Y40100D01*
X23400Y105000D02*
X26800D01*
X23400Y104000D02*
X26800D01*
X93600Y97400D02*
X97000D01*
Y96000D02*
Y97400D01*
X93600Y96000D02*
Y97400D01*
Y96000D02*
X97000D01*
X98600Y97400D02*
X102000D01*
Y96000D02*
Y97400D01*
X98600Y96000D02*
Y97400D01*
Y96000D02*
X102000D01*
X40300Y45300D02*
X41700D01*
Y48700D01*
X40300D02*
X41700D01*
X40300Y45300D02*
Y48700D01*
X35500Y27300D02*
Y30700D01*
X36500Y27300D02*
Y30700D01*
X36800Y38500D02*
X40200D01*
X36800Y37500D02*
X40200D01*
X68700Y41900D02*
Y46100D01*
X67300Y41900D02*
Y46100D01*
X66500Y48500D02*
Y51900D01*
X67500Y48500D02*
Y51900D01*
X54500Y42300D02*
Y45700D01*
X53500Y42300D02*
Y45700D01*
X55500Y48300D02*
Y51700D01*
X54500Y48300D02*
Y51700D01*
X80800Y80200D02*
X82200D01*
X80800Y76800D02*
Y80200D01*
Y76800D02*
X82200D01*
Y80200D01*
X80800Y88300D02*
X82200D01*
Y91700D01*
X80800D02*
X82200D01*
X80800Y88300D02*
Y91700D01*
Y82800D02*
X82200D01*
Y86200D01*
X80800D02*
X82200D01*
X80800Y82800D02*
Y86200D01*
X126500Y90300D02*
Y93700D01*
X125500Y90300D02*
Y93700D01*
X79300Y170713D02*
X80700D01*
Y174113D01*
X79300D02*
X80700D01*
X79300Y170713D02*
Y174113D01*
X34900Y175013D02*
Y178013D01*
X23200D02*
X34900D01*
X23200Y175013D02*
Y178013D01*
Y175013D02*
X34900D01*
X32600D02*
X32800D01*
X34900Y177113D01*
X22000Y151413D02*
Y163413D01*
X28000Y151413D02*
Y163413D01*
X22000Y154013D02*
X28000D01*
X53300Y171313D02*
Y175513D01*
X54700Y171313D02*
Y175513D01*
X23400Y240413D02*
X26800D01*
X23400Y239413D02*
X26800D01*
X93600Y232813D02*
X97000D01*
Y231413D02*
Y232813D01*
X93600Y231413D02*
Y232813D01*
Y231413D02*
X97000D01*
X98600Y232813D02*
X102000D01*
Y231413D02*
Y232813D01*
X98600Y231413D02*
Y232813D01*
Y231413D02*
X102000D01*
X40300Y180713D02*
X41700D01*
Y184113D01*
X40300D02*
X41700D01*
X40300Y180713D02*
Y184113D01*
X35500Y162713D02*
Y166113D01*
X36500Y162713D02*
Y166113D01*
X36800Y173913D02*
X40200D01*
X36800Y172913D02*
X40200D01*
X68700Y177313D02*
Y181513D01*
X67300Y177313D02*
Y181513D01*
X66500Y183913D02*
Y187313D01*
X67500Y183913D02*
Y187313D01*
X54500Y177713D02*
Y181113D01*
X53500Y177713D02*
Y181113D01*
X55500Y183713D02*
Y187113D01*
X54500Y183713D02*
Y187113D01*
X80800Y215613D02*
X82200D01*
X80800Y212213D02*
Y215613D01*
Y212213D02*
X82200D01*
Y215613D01*
X80800Y223713D02*
X82200D01*
Y227113D01*
X80800D02*
X82200D01*
X80800Y223713D02*
Y227113D01*
Y218213D02*
X82200D01*
Y221613D01*
X80800D02*
X82200D01*
X80800Y218213D02*
Y221613D01*
X126500Y225713D02*
Y229113D01*
X125500Y225713D02*
Y229113D01*
X79300Y306127D02*
X80700D01*
Y309527D01*
X79300D02*
X80700D01*
X79300Y306127D02*
Y309527D01*
X34900Y310427D02*
Y313427D01*
X23200D02*
X34900D01*
X23200Y310427D02*
Y313427D01*
Y310427D02*
X34900D01*
X32600D02*
X32800D01*
X34900Y312527D01*
X22000Y286827D02*
Y298827D01*
X28000Y286827D02*
Y298827D01*
X22000Y289427D02*
X28000D01*
X53300Y306727D02*
Y310927D01*
X54700Y306727D02*
Y310927D01*
X23400Y375827D02*
X26800D01*
X23400Y374827D02*
X26800D01*
X93600Y368227D02*
X97000D01*
Y366827D02*
Y368227D01*
X93600Y366827D02*
Y368227D01*
Y366827D02*
X97000D01*
X98600Y368227D02*
X102000D01*
Y366827D02*
Y368227D01*
X98600Y366827D02*
Y368227D01*
Y366827D02*
X102000D01*
X40300Y316127D02*
X41700D01*
Y319527D01*
X40300D02*
X41700D01*
X40300Y316127D02*
Y319527D01*
X35500Y298127D02*
Y301527D01*
X36500Y298127D02*
Y301527D01*
X36800Y309327D02*
X40200D01*
X36800Y308327D02*
X40200D01*
X68700Y312727D02*
Y316927D01*
X67300Y312727D02*
Y316927D01*
X66500Y319327D02*
Y322727D01*
X67500Y319327D02*
Y322727D01*
X54500Y313127D02*
Y316527D01*
X53500Y313127D02*
Y316527D01*
X55500Y319127D02*
Y322527D01*
X54500Y319127D02*
Y322527D01*
X80800Y351027D02*
X82200D01*
X80800Y347627D02*
Y351027D01*
Y347627D02*
X82200D01*
Y351027D01*
X80800Y359127D02*
X82200D01*
Y362527D01*
X80800D02*
X82200D01*
X80800Y359127D02*
Y362527D01*
Y353627D02*
X82200D01*
Y357027D01*
X80800D02*
X82200D01*
X80800Y353627D02*
Y357027D01*
X126500Y361127D02*
Y364527D01*
X125500Y361127D02*
Y364527D01*
X79300Y441540D02*
X80700D01*
Y444940D01*
X79300D02*
X80700D01*
X79300Y441540D02*
Y444940D01*
X34900Y445840D02*
Y448840D01*
X23200D02*
X34900D01*
X23200Y445840D02*
Y448840D01*
Y445840D02*
X34900D01*
X32600D02*
X32800D01*
X34900Y447940D01*
X22000Y422240D02*
Y434240D01*
X28000Y422240D02*
Y434240D01*
X22000Y424840D02*
X28000D01*
X53300Y442140D02*
Y446340D01*
X54700Y442140D02*
Y446340D01*
X23400Y511240D02*
X26800D01*
X23400Y510240D02*
X26800D01*
X93600Y503640D02*
X97000D01*
Y502240D02*
Y503640D01*
X93600Y502240D02*
Y503640D01*
Y502240D02*
X97000D01*
X98600Y503640D02*
X102000D01*
Y502240D02*
Y503640D01*
X98600Y502240D02*
Y503640D01*
Y502240D02*
X102000D01*
X40300Y451540D02*
X41700D01*
Y454940D01*
X40300D02*
X41700D01*
X40300Y451540D02*
Y454940D01*
X35500Y433540D02*
Y436940D01*
X36500Y433540D02*
Y436940D01*
X36800Y444740D02*
X40200D01*
X36800Y443740D02*
X40200D01*
X68700Y448140D02*
Y452340D01*
X67300Y448140D02*
Y452340D01*
X66500Y454740D02*
Y458140D01*
X67500Y454740D02*
Y458140D01*
X54500Y448540D02*
Y451940D01*
X53500Y448540D02*
Y451940D01*
X55500Y454540D02*
Y457940D01*
X54500Y454540D02*
Y457940D01*
X80800Y486440D02*
X82200D01*
X80800Y483040D02*
Y486440D01*
Y483040D02*
X82200D01*
Y486440D01*
X80800Y494540D02*
X82200D01*
Y497940D01*
X80800D02*
X82200D01*
X80800Y494540D02*
Y497940D01*
Y489040D02*
X82200D01*
Y492440D01*
X80800D02*
X82200D01*
X80800Y489040D02*
Y492440D01*
X126500Y496540D02*
Y499940D01*
X125500Y496540D02*
Y499940D01*
D51*
X27641Y54453D02*
Y104059D01*
X73704D01*
Y54453D02*
Y104059D01*
X27641Y54453D02*
X73704D01*
X70555D02*
X73704Y58291D01*
X89800Y21600D02*
X100200D01*
X89800D02*
Y26400D01*
X100200D01*
Y21600D02*
Y26400D01*
X103898Y91987D02*
Y96787D01*
Y91987D02*
X114298D01*
Y96787D01*
X103898D02*
X114298D01*
X103800Y104400D02*
X114200D01*
Y99600D02*
Y104400D01*
X103800Y99600D02*
X114200D01*
X103800D02*
Y104400D01*
X77244Y56520D02*
X82756D01*
X77244D02*
Y71480D01*
X82756D01*
Y56520D02*
Y71480D01*
X72200Y34600D02*
Y39400D01*
X61800D02*
X72200D01*
X61800Y34600D02*
Y39400D01*
Y34600D02*
X72200D01*
X27641Y189866D02*
Y239472D01*
X73704D01*
Y189866D02*
Y239472D01*
X27641Y189866D02*
X73704D01*
X70555D02*
X73704Y193704D01*
X89800Y157013D02*
X100200D01*
X89800D02*
Y161813D01*
X100200D01*
Y157013D02*
Y161813D01*
X103898Y227401D02*
Y232201D01*
Y227401D02*
X114298D01*
Y232201D01*
X103898D02*
X114298D01*
X103800Y239813D02*
X114200D01*
Y235013D02*
Y239813D01*
X103800Y235013D02*
X114200D01*
X103800D02*
Y239813D01*
X77244Y191933D02*
X82756D01*
X77244D02*
Y206894D01*
X82756D01*
Y191933D02*
Y206894D01*
X72200Y170013D02*
Y174813D01*
X61800D02*
X72200D01*
X61800Y170013D02*
Y174813D01*
Y170013D02*
X72200D01*
X27641Y325279D02*
Y374886D01*
X73704D01*
Y325279D02*
Y374886D01*
X27641Y325279D02*
X73704D01*
X70555D02*
X73704Y329118D01*
X89800Y292427D02*
X100200D01*
X89800D02*
Y297227D01*
X100200D01*
Y292427D02*
Y297227D01*
X103898Y362814D02*
Y367614D01*
Y362814D02*
X114298D01*
Y367614D01*
X103898D02*
X114298D01*
X103800Y375227D02*
X114200D01*
Y370427D02*
Y375227D01*
X103800Y370427D02*
X114200D01*
X103800D02*
Y375227D01*
X77244Y327346D02*
X82756D01*
X77244D02*
Y342307D01*
X82756D01*
Y327346D02*
Y342307D01*
X72200Y305427D02*
Y310227D01*
X61800D02*
X72200D01*
X61800Y305427D02*
Y310227D01*
Y305427D02*
X72200D01*
X27641Y460693D02*
Y510299D01*
X73704D01*
Y460693D02*
Y510299D01*
X27641Y460693D02*
X73704D01*
X70555D02*
X73704Y464531D01*
X89800Y427840D02*
X100200D01*
X89800D02*
Y432640D01*
X100200D01*
Y427840D02*
Y432640D01*
X103898Y498228D02*
Y503027D01*
Y498228D02*
X114298D01*
Y503027D01*
X103898D02*
X114298D01*
X103800Y510640D02*
X114200D01*
Y505840D02*
Y510640D01*
X103800Y505840D02*
X114200D01*
X103800D02*
Y510640D01*
X77244Y462760D02*
X82756D01*
X77244D02*
Y477721D01*
X82756D01*
Y462760D02*
Y477721D01*
X72200Y440840D02*
Y445640D01*
X61800D02*
X72200D01*
X61800Y440840D02*
Y445640D01*
Y440840D02*
X72200D01*
D85*
X40141Y52484D02*
G03*
X40141Y52484I-492J0D01*
G01*
X26460Y83980D02*
G03*
X26460Y83980I-492J0D01*
G01*
X49492Y105732D02*
G03*
X49492Y105732I-492J0D01*
G01*
X75968Y80831D02*
G03*
X75968Y80831I-492J0D01*
G01*
X40141Y187897D02*
G03*
X40141Y187897I-492J0D01*
G01*
X26460Y219393D02*
G03*
X26460Y219393I-492J0D01*
G01*
X49492Y241145D02*
G03*
X49492Y241145I-492J0D01*
G01*
X75968Y216244D02*
G03*
X75968Y216244I-492J0D01*
G01*
X40141Y323311D02*
G03*
X40141Y323311I-492J0D01*
G01*
X26460Y354807D02*
G03*
X26460Y354807I-492J0D01*
G01*
X49492Y376559D02*
G03*
X49492Y376559I-492J0D01*
G01*
X75968Y351657D02*
G03*
X75968Y351657I-492J0D01*
G01*
X40141Y458724D02*
G03*
X40141Y458724I-492J0D01*
G01*
X26460Y490220D02*
G03*
X26460Y490220I-492J0D01*
G01*
X49492Y511972D02*
G03*
X49492Y511972I-492J0D01*
G01*
X75968Y487071D02*
G03*
X75968Y487071I-492J0D01*
G01*
D86*
X102924Y116264D02*
X104695D01*
X130680D02*
X132451D01*
Y122563D01*
X101054Y131835D02*
X134616Y131815D01*
X102924Y116264D02*
Y122563D01*
Y251677D02*
X104695D01*
X130680D02*
X132451D01*
Y257976D01*
X101054Y267248D02*
X134616Y267228D01*
X102924Y251677D02*
Y257976D01*
Y387091D02*
X104695D01*
X130680D02*
X132451D01*
Y393390D01*
X101054Y402662D02*
X134616Y402642D01*
X102924Y387091D02*
Y393390D01*
Y522504D02*
X104695D01*
X130680D02*
X132451D01*
Y528803D01*
X101054Y538075D02*
X134616Y538055D01*
X102924Y522504D02*
Y528803D01*
M02*
