G04*
G04 #@! TF.GenerationSoftware,Altium Limited,Altium Designer,18.1.7 (191)*
G04*
G04 Layer_Color=65535*
%FSLAX25Y25*%
%MOIN*%
G70*
G01*
G75*
%ADD16C,0.00787*%
%ADD17C,0.00800*%
%ADD51C,0.00591*%
G36*
X133060Y526790D02*
X126961D01*
X126915Y526778D01*
X126845Y526767D01*
X126776Y526744D01*
X126696Y526709D01*
X126603Y526663D01*
X126523Y526594D01*
X126511Y526582D01*
X126488Y526559D01*
X126453Y526525D01*
X126419Y526467D01*
X126338Y526340D01*
X126315Y526260D01*
X126303Y526167D01*
Y525222D01*
X133060D01*
Y523954D01*
X126303D01*
Y523008D01*
Y522997D01*
Y522985D01*
X126315Y522916D01*
X126338Y522812D01*
X126396Y522708D01*
X126476Y522593D01*
X126534Y522535D01*
X126603Y522489D01*
X126684Y522455D01*
X126776Y522420D01*
X126880Y522408D01*
X127007Y522397D01*
X133060D01*
Y521152D01*
X126926D01*
X126868Y521163D01*
X126799D01*
X126718Y521175D01*
X126523Y521221D01*
X126292Y521279D01*
X126061Y521371D01*
X125819Y521498D01*
X125704Y521578D01*
X125589Y521671D01*
X125577Y521682D01*
X125566Y521694D01*
X125496Y521763D01*
X125404Y521878D01*
X125300Y522028D01*
X125185Y522224D01*
X125093Y522455D01*
X125024Y522708D01*
X125012Y522847D01*
X125001Y522997D01*
Y526167D01*
Y526179D01*
Y526202D01*
Y526236D01*
X125012Y526294D01*
X125024Y526363D01*
X125035Y526433D01*
X125081Y526617D01*
X125151Y526825D01*
X125254Y527044D01*
X125323Y527147D01*
X125416Y527263D01*
X125508Y527366D01*
X125612Y527470D01*
X125623Y527482D01*
X125635Y527493D01*
X125669Y527516D01*
X125715Y527562D01*
X125773Y527597D01*
X125842Y527643D01*
X126015Y527747D01*
X126223Y527851D01*
X126453Y527943D01*
X126718Y528001D01*
X126857Y528012D01*
X127007Y528024D01*
X133060D01*
Y526790D01*
D02*
G37*
G36*
X124309D02*
X118209D01*
X118163Y526778D01*
X118094Y526767D01*
X118025Y526744D01*
X117944Y526709D01*
X117852Y526663D01*
X117771Y526594D01*
X117760Y526582D01*
X117737Y526559D01*
X117702Y526525D01*
X117667Y526467D01*
X117621Y526409D01*
X117587Y526329D01*
X117564Y526248D01*
X117552Y526156D01*
Y523008D01*
Y522997D01*
Y522985D01*
X117564Y522916D01*
X117587Y522812D01*
X117644Y522708D01*
X117725Y522593D01*
X117783Y522535D01*
X117852Y522489D01*
X117933Y522455D01*
X118025Y522420D01*
X118129Y522408D01*
X118255Y522397D01*
X124309D01*
Y521152D01*
X118175D01*
X118117Y521163D01*
X118048D01*
X117967Y521175D01*
X117771Y521221D01*
X117541Y521279D01*
X117310Y521371D01*
X117068Y521498D01*
X116953Y521578D01*
X116837Y521671D01*
X116826Y521682D01*
X116814Y521694D01*
X116745Y521763D01*
X116653Y521878D01*
X116549Y522028D01*
X116434Y522224D01*
X116341Y522455D01*
X116272Y522708D01*
X116261Y522847D01*
X116249Y522997D01*
Y526167D01*
Y526179D01*
Y526202D01*
Y526236D01*
X116261Y526294D01*
X116272Y526363D01*
X116284Y526433D01*
X116330Y526617D01*
X116399Y526825D01*
X116503Y527044D01*
X116572Y527147D01*
X116664Y527263D01*
X116757Y527366D01*
X116860Y527470D01*
X116872Y527482D01*
X116883Y527493D01*
X116918Y527516D01*
X116964Y527562D01*
X117022Y527597D01*
X117091Y527643D01*
X117264Y527747D01*
X117472Y527851D01*
X117702Y527943D01*
X117967Y528001D01*
X118106Y528012D01*
X118255Y528024D01*
X124309D01*
Y526790D01*
D02*
G37*
G36*
X115442Y521152D02*
X114139D01*
Y528024D01*
X115442D01*
Y521152D01*
D02*
G37*
G36*
X111326Y528012D02*
X111407D01*
X111487Y528001D01*
X111683Y527954D01*
X111902Y527897D01*
X112145Y527805D01*
X112387Y527666D01*
X112502Y527586D01*
X112617Y527493D01*
X112629D01*
X112640Y527470D01*
X112710Y527401D01*
X112802Y527286D01*
X112917Y527136D01*
X113021Y526940D01*
X113113Y526709D01*
X113182Y526444D01*
X113194Y526306D01*
X113205Y526156D01*
Y525798D01*
Y525787D01*
Y525764D01*
Y525729D01*
X113194Y525683D01*
X113182Y525556D01*
X113136Y525395D01*
X113078Y525199D01*
X112986Y525003D01*
X112859Y524795D01*
X112779Y524691D01*
X112687Y524588D01*
X112698Y524576D01*
X112710Y524565D01*
X112767Y524496D01*
X112848Y524380D01*
X112952Y524230D01*
X113044Y524057D01*
X113125Y523850D01*
X113182Y523619D01*
X113205Y523504D01*
Y523377D01*
Y521152D01*
X111902D01*
Y523377D01*
Y523389D01*
Y523423D01*
X111891Y523469D01*
X111879Y523538D01*
X111845Y523608D01*
X111810Y523677D01*
X111753Y523746D01*
X111683Y523804D01*
X111672Y523815D01*
X111649Y523827D01*
X111603Y523850D01*
X111545Y523884D01*
X111476Y523907D01*
X111384Y523931D01*
X111291Y523942D01*
X111188Y523954D01*
X106483D01*
Y525222D01*
X111257D01*
X111303Y525233D01*
X111418Y525256D01*
X111545Y525291D01*
X111672Y525360D01*
X111787Y525464D01*
X111833Y525533D01*
X111868Y525614D01*
X111891Y525695D01*
X111902Y525798D01*
Y526156D01*
Y526167D01*
Y526179D01*
X111891Y526260D01*
X111868Y526352D01*
X111810Y526479D01*
X111730Y526594D01*
X111672Y526640D01*
X111603Y526686D01*
X111522Y526732D01*
X111418Y526767D01*
X111314Y526778D01*
X111188Y526790D01*
X106091D01*
Y521152D01*
X104800D01*
Y528024D01*
X111268D01*
X111326Y528012D01*
D02*
G37*
G36*
X133060Y391376D02*
X126961D01*
X126915Y391365D01*
X126845Y391354D01*
X126776Y391330D01*
X126696Y391296D01*
X126603Y391250D01*
X126523Y391180D01*
X126511Y391169D01*
X126488Y391146D01*
X126453Y391111D01*
X126419Y391054D01*
X126338Y390927D01*
X126315Y390846D01*
X126303Y390754D01*
Y389808D01*
X133060D01*
Y388540D01*
X126303D01*
Y387595D01*
Y387583D01*
Y387572D01*
X126315Y387502D01*
X126338Y387399D01*
X126396Y387295D01*
X126476Y387180D01*
X126534Y387122D01*
X126603Y387076D01*
X126684Y387041D01*
X126776Y387007D01*
X126880Y386995D01*
X127007Y386984D01*
X133060D01*
Y385738D01*
X126926D01*
X126868Y385750D01*
X126799D01*
X126718Y385761D01*
X126523Y385807D01*
X126292Y385865D01*
X126061Y385957D01*
X125819Y386084D01*
X125704Y386165D01*
X125589Y386257D01*
X125577Y386269D01*
X125566Y386280D01*
X125496Y386349D01*
X125404Y386465D01*
X125300Y386615D01*
X125185Y386811D01*
X125093Y387041D01*
X125024Y387295D01*
X125012Y387433D01*
X125001Y387583D01*
Y390754D01*
Y390765D01*
Y390789D01*
Y390823D01*
X125012Y390881D01*
X125024Y390950D01*
X125035Y391019D01*
X125081Y391204D01*
X125151Y391411D01*
X125254Y391630D01*
X125323Y391734D01*
X125416Y391849D01*
X125508Y391953D01*
X125612Y392057D01*
X125623Y392068D01*
X125635Y392080D01*
X125669Y392103D01*
X125715Y392149D01*
X125773Y392184D01*
X125842Y392230D01*
X126015Y392334D01*
X126223Y392437D01*
X126453Y392530D01*
X126718Y392587D01*
X126857Y392599D01*
X127007Y392610D01*
X133060D01*
Y391376D01*
D02*
G37*
G36*
X124309D02*
X118209D01*
X118163Y391365D01*
X118094Y391354D01*
X118025Y391330D01*
X117944Y391296D01*
X117852Y391250D01*
X117771Y391180D01*
X117760Y391169D01*
X117737Y391146D01*
X117702Y391111D01*
X117667Y391054D01*
X117621Y390996D01*
X117587Y390915D01*
X117564Y390835D01*
X117552Y390742D01*
Y387595D01*
Y387583D01*
Y387572D01*
X117564Y387502D01*
X117587Y387399D01*
X117644Y387295D01*
X117725Y387180D01*
X117783Y387122D01*
X117852Y387076D01*
X117933Y387041D01*
X118025Y387007D01*
X118129Y386995D01*
X118255Y386984D01*
X124309D01*
Y385738D01*
X118175D01*
X118117Y385750D01*
X118048D01*
X117967Y385761D01*
X117771Y385807D01*
X117541Y385865D01*
X117310Y385957D01*
X117068Y386084D01*
X116953Y386165D01*
X116837Y386257D01*
X116826Y386269D01*
X116814Y386280D01*
X116745Y386349D01*
X116653Y386465D01*
X116549Y386615D01*
X116434Y386811D01*
X116341Y387041D01*
X116272Y387295D01*
X116261Y387433D01*
X116249Y387583D01*
Y390754D01*
Y390765D01*
Y390789D01*
Y390823D01*
X116261Y390881D01*
X116272Y390950D01*
X116284Y391019D01*
X116330Y391204D01*
X116399Y391411D01*
X116503Y391630D01*
X116572Y391734D01*
X116664Y391849D01*
X116757Y391953D01*
X116860Y392057D01*
X116872Y392068D01*
X116883Y392080D01*
X116918Y392103D01*
X116964Y392149D01*
X117022Y392184D01*
X117091Y392230D01*
X117264Y392334D01*
X117472Y392437D01*
X117702Y392530D01*
X117967Y392587D01*
X118106Y392599D01*
X118255Y392610D01*
X124309D01*
Y391376D01*
D02*
G37*
G36*
X115442Y385738D02*
X114139D01*
Y392610D01*
X115442D01*
Y385738D01*
D02*
G37*
G36*
X111326Y392599D02*
X111407D01*
X111487Y392587D01*
X111683Y392541D01*
X111902Y392483D01*
X112145Y392391D01*
X112387Y392253D01*
X112502Y392172D01*
X112617Y392080D01*
X112629D01*
X112640Y392057D01*
X112710Y391988D01*
X112802Y391872D01*
X112917Y391722D01*
X113021Y391526D01*
X113113Y391296D01*
X113182Y391031D01*
X113194Y390892D01*
X113205Y390742D01*
Y390385D01*
Y390373D01*
Y390350D01*
Y390316D01*
X113194Y390270D01*
X113182Y390143D01*
X113136Y389981D01*
X113078Y389785D01*
X112986Y389589D01*
X112859Y389382D01*
X112779Y389278D01*
X112687Y389174D01*
X112698Y389163D01*
X112710Y389151D01*
X112767Y389082D01*
X112848Y388967D01*
X112952Y388817D01*
X113044Y388644D01*
X113125Y388436D01*
X113182Y388206D01*
X113205Y388090D01*
Y387964D01*
Y385738D01*
X111902D01*
Y387964D01*
Y387975D01*
Y388010D01*
X111891Y388056D01*
X111879Y388125D01*
X111845Y388194D01*
X111810Y388263D01*
X111753Y388333D01*
X111683Y388390D01*
X111672Y388402D01*
X111649Y388413D01*
X111603Y388436D01*
X111545Y388471D01*
X111476Y388494D01*
X111384Y388517D01*
X111291Y388529D01*
X111188Y388540D01*
X106483D01*
Y389808D01*
X111257D01*
X111303Y389820D01*
X111418Y389843D01*
X111545Y389878D01*
X111672Y389947D01*
X111787Y390051D01*
X111833Y390120D01*
X111868Y390200D01*
X111891Y390281D01*
X111902Y390385D01*
Y390742D01*
Y390754D01*
Y390765D01*
X111891Y390846D01*
X111868Y390938D01*
X111810Y391065D01*
X111730Y391180D01*
X111672Y391227D01*
X111603Y391273D01*
X111522Y391319D01*
X111418Y391354D01*
X111314Y391365D01*
X111188Y391376D01*
X106091D01*
Y385738D01*
X104800D01*
Y392610D01*
X111268D01*
X111326Y392599D01*
D02*
G37*
G36*
X133060Y255963D02*
X126961D01*
X126915Y255952D01*
X126845Y255940D01*
X126776Y255917D01*
X126696Y255882D01*
X126603Y255836D01*
X126523Y255767D01*
X126511Y255756D01*
X126488Y255732D01*
X126453Y255698D01*
X126419Y255640D01*
X126338Y255514D01*
X126315Y255433D01*
X126303Y255341D01*
Y254395D01*
X133060D01*
Y253127D01*
X126303D01*
Y252181D01*
Y252170D01*
Y252158D01*
X126315Y252089D01*
X126338Y251985D01*
X126396Y251882D01*
X126476Y251766D01*
X126534Y251709D01*
X126603Y251662D01*
X126684Y251628D01*
X126776Y251593D01*
X126880Y251582D01*
X127007Y251570D01*
X133060D01*
Y250325D01*
X126926D01*
X126868Y250337D01*
X126799D01*
X126718Y250348D01*
X126523Y250394D01*
X126292Y250452D01*
X126061Y250544D01*
X125819Y250671D01*
X125704Y250752D01*
X125589Y250844D01*
X125577Y250855D01*
X125566Y250867D01*
X125496Y250936D01*
X125404Y251051D01*
X125300Y251201D01*
X125185Y251397D01*
X125093Y251628D01*
X125024Y251882D01*
X125012Y252020D01*
X125001Y252170D01*
Y255341D01*
Y255352D01*
Y255375D01*
Y255410D01*
X125012Y255467D01*
X125024Y255537D01*
X125035Y255606D01*
X125081Y255790D01*
X125151Y255998D01*
X125254Y256217D01*
X125323Y256321D01*
X125416Y256436D01*
X125508Y256540D01*
X125612Y256643D01*
X125623Y256655D01*
X125635Y256666D01*
X125669Y256690D01*
X125715Y256736D01*
X125773Y256770D01*
X125842Y256816D01*
X126015Y256920D01*
X126223Y257024D01*
X126453Y257116D01*
X126718Y257174D01*
X126857Y257185D01*
X127007Y257197D01*
X133060D01*
Y255963D01*
D02*
G37*
G36*
X124309D02*
X118209D01*
X118163Y255952D01*
X118094Y255940D01*
X118025Y255917D01*
X117944Y255882D01*
X117852Y255836D01*
X117771Y255767D01*
X117760Y255756D01*
X117737Y255732D01*
X117702Y255698D01*
X117667Y255640D01*
X117621Y255583D01*
X117587Y255502D01*
X117564Y255421D01*
X117552Y255329D01*
Y252181D01*
Y252170D01*
Y252158D01*
X117564Y252089D01*
X117587Y251985D01*
X117644Y251882D01*
X117725Y251766D01*
X117783Y251709D01*
X117852Y251662D01*
X117933Y251628D01*
X118025Y251593D01*
X118129Y251582D01*
X118255Y251570D01*
X124309D01*
Y250325D01*
X118175D01*
X118117Y250337D01*
X118048D01*
X117967Y250348D01*
X117771Y250394D01*
X117541Y250452D01*
X117310Y250544D01*
X117068Y250671D01*
X116953Y250752D01*
X116837Y250844D01*
X116826Y250855D01*
X116814Y250867D01*
X116745Y250936D01*
X116653Y251051D01*
X116549Y251201D01*
X116434Y251397D01*
X116341Y251628D01*
X116272Y251882D01*
X116261Y252020D01*
X116249Y252170D01*
Y255341D01*
Y255352D01*
Y255375D01*
Y255410D01*
X116261Y255467D01*
X116272Y255537D01*
X116284Y255606D01*
X116330Y255790D01*
X116399Y255998D01*
X116503Y256217D01*
X116572Y256321D01*
X116664Y256436D01*
X116757Y256540D01*
X116860Y256643D01*
X116872Y256655D01*
X116883Y256666D01*
X116918Y256690D01*
X116964Y256736D01*
X117022Y256770D01*
X117091Y256816D01*
X117264Y256920D01*
X117472Y257024D01*
X117702Y257116D01*
X117967Y257174D01*
X118106Y257185D01*
X118255Y257197D01*
X124309D01*
Y255963D01*
D02*
G37*
G36*
X115442Y250325D02*
X114139D01*
Y257197D01*
X115442D01*
Y250325D01*
D02*
G37*
G36*
X111326Y257185D02*
X111407D01*
X111487Y257174D01*
X111683Y257128D01*
X111902Y257070D01*
X112145Y256978D01*
X112387Y256839D01*
X112502Y256759D01*
X112617Y256666D01*
X112629D01*
X112640Y256643D01*
X112710Y256574D01*
X112802Y256459D01*
X112917Y256309D01*
X113021Y256113D01*
X113113Y255882D01*
X113182Y255617D01*
X113194Y255479D01*
X113205Y255329D01*
Y254972D01*
Y254960D01*
Y254937D01*
Y254902D01*
X113194Y254856D01*
X113182Y254729D01*
X113136Y254568D01*
X113078Y254372D01*
X112986Y254176D01*
X112859Y253968D01*
X112779Y253865D01*
X112687Y253761D01*
X112698Y253749D01*
X112710Y253738D01*
X112767Y253669D01*
X112848Y253553D01*
X112952Y253403D01*
X113044Y253231D01*
X113125Y253023D01*
X113182Y252792D01*
X113205Y252677D01*
Y252550D01*
Y250325D01*
X111902D01*
Y252550D01*
Y252562D01*
Y252596D01*
X111891Y252642D01*
X111879Y252712D01*
X111845Y252781D01*
X111810Y252850D01*
X111753Y252919D01*
X111683Y252977D01*
X111672Y252988D01*
X111649Y253000D01*
X111603Y253023D01*
X111545Y253058D01*
X111476Y253081D01*
X111384Y253104D01*
X111291Y253115D01*
X111188Y253127D01*
X106483D01*
Y254395D01*
X111257D01*
X111303Y254407D01*
X111418Y254430D01*
X111545Y254464D01*
X111672Y254533D01*
X111787Y254637D01*
X111833Y254706D01*
X111868Y254787D01*
X111891Y254868D01*
X111902Y254972D01*
Y255329D01*
Y255341D01*
Y255352D01*
X111891Y255433D01*
X111868Y255525D01*
X111810Y255652D01*
X111730Y255767D01*
X111672Y255813D01*
X111603Y255859D01*
X111522Y255906D01*
X111418Y255940D01*
X111314Y255952D01*
X111188Y255963D01*
X106091D01*
Y250325D01*
X104800D01*
Y257197D01*
X111268D01*
X111326Y257185D01*
D02*
G37*
G36*
X133060Y120550D02*
X126961D01*
X126915Y120538D01*
X126845Y120527D01*
X126776Y120504D01*
X126696Y120469D01*
X126603Y120423D01*
X126523Y120354D01*
X126511Y120342D01*
X126488Y120319D01*
X126453Y120284D01*
X126419Y120227D01*
X126338Y120100D01*
X126315Y120019D01*
X126303Y119927D01*
Y118982D01*
X133060D01*
Y117713D01*
X126303D01*
Y116768D01*
Y116756D01*
Y116745D01*
X126315Y116676D01*
X126338Y116572D01*
X126396Y116468D01*
X126476Y116353D01*
X126534Y116295D01*
X126603Y116249D01*
X126684Y116214D01*
X126776Y116180D01*
X126880Y116168D01*
X127007Y116157D01*
X133060D01*
Y114911D01*
X126926D01*
X126868Y114923D01*
X126799D01*
X126718Y114935D01*
X126523Y114981D01*
X126292Y115038D01*
X126061Y115131D01*
X125819Y115257D01*
X125704Y115338D01*
X125589Y115430D01*
X125577Y115442D01*
X125566Y115453D01*
X125496Y115523D01*
X125404Y115638D01*
X125300Y115788D01*
X125185Y115984D01*
X125093Y116214D01*
X125024Y116468D01*
X125012Y116606D01*
X125001Y116756D01*
Y119927D01*
Y119939D01*
Y119962D01*
Y119996D01*
X125012Y120054D01*
X125024Y120123D01*
X125035Y120192D01*
X125081Y120377D01*
X125151Y120584D01*
X125254Y120803D01*
X125323Y120907D01*
X125416Y121022D01*
X125508Y121126D01*
X125612Y121230D01*
X125623Y121241D01*
X125635Y121253D01*
X125669Y121276D01*
X125715Y121322D01*
X125773Y121357D01*
X125842Y121403D01*
X126015Y121507D01*
X126223Y121610D01*
X126453Y121703D01*
X126718Y121760D01*
X126857Y121772D01*
X127007Y121783D01*
X133060D01*
Y120550D01*
D02*
G37*
G36*
X124309D02*
X118209D01*
X118163Y120538D01*
X118094Y120527D01*
X118025Y120504D01*
X117944Y120469D01*
X117852Y120423D01*
X117771Y120354D01*
X117760Y120342D01*
X117737Y120319D01*
X117702Y120284D01*
X117667Y120227D01*
X117621Y120169D01*
X117587Y120089D01*
X117564Y120008D01*
X117552Y119916D01*
Y116768D01*
Y116756D01*
Y116745D01*
X117564Y116676D01*
X117587Y116572D01*
X117644Y116468D01*
X117725Y116353D01*
X117783Y116295D01*
X117852Y116249D01*
X117933Y116214D01*
X118025Y116180D01*
X118129Y116168D01*
X118255Y116157D01*
X124309D01*
Y114911D01*
X118175D01*
X118117Y114923D01*
X118048D01*
X117967Y114935D01*
X117771Y114981D01*
X117541Y115038D01*
X117310Y115131D01*
X117068Y115257D01*
X116953Y115338D01*
X116837Y115430D01*
X116826Y115442D01*
X116814Y115453D01*
X116745Y115523D01*
X116653Y115638D01*
X116549Y115788D01*
X116434Y115984D01*
X116341Y116214D01*
X116272Y116468D01*
X116261Y116606D01*
X116249Y116756D01*
Y119927D01*
Y119939D01*
Y119962D01*
Y119996D01*
X116261Y120054D01*
X116272Y120123D01*
X116284Y120192D01*
X116330Y120377D01*
X116399Y120584D01*
X116503Y120803D01*
X116572Y120907D01*
X116664Y121022D01*
X116757Y121126D01*
X116860Y121230D01*
X116872Y121241D01*
X116883Y121253D01*
X116918Y121276D01*
X116964Y121322D01*
X117022Y121357D01*
X117091Y121403D01*
X117264Y121507D01*
X117472Y121610D01*
X117702Y121703D01*
X117967Y121760D01*
X118106Y121772D01*
X118255Y121783D01*
X124309D01*
Y120550D01*
D02*
G37*
G36*
X115442Y114911D02*
X114139D01*
Y121783D01*
X115442D01*
Y114911D01*
D02*
G37*
G36*
X111326Y121772D02*
X111407D01*
X111487Y121760D01*
X111683Y121714D01*
X111902Y121657D01*
X112145Y121564D01*
X112387Y121426D01*
X112502Y121345D01*
X112617Y121253D01*
X112629D01*
X112640Y121230D01*
X112710Y121161D01*
X112802Y121045D01*
X112917Y120896D01*
X113021Y120700D01*
X113113Y120469D01*
X113182Y120204D01*
X113194Y120065D01*
X113205Y119916D01*
Y119558D01*
Y119547D01*
Y119524D01*
Y119489D01*
X113194Y119443D01*
X113182Y119316D01*
X113136Y119155D01*
X113078Y118959D01*
X112986Y118763D01*
X112859Y118555D01*
X112779Y118451D01*
X112687Y118348D01*
X112698Y118336D01*
X112710Y118324D01*
X112767Y118255D01*
X112848Y118140D01*
X112952Y117990D01*
X113044Y117817D01*
X113125Y117610D01*
X113182Y117379D01*
X113205Y117264D01*
Y117137D01*
Y114911D01*
X111902D01*
Y117137D01*
Y117148D01*
Y117183D01*
X111891Y117229D01*
X111879Y117298D01*
X111845Y117367D01*
X111810Y117437D01*
X111753Y117506D01*
X111683Y117563D01*
X111672Y117575D01*
X111649Y117587D01*
X111603Y117610D01*
X111545Y117644D01*
X111476Y117667D01*
X111384Y117690D01*
X111291Y117702D01*
X111188Y117713D01*
X106483D01*
Y118982D01*
X111257D01*
X111303Y118993D01*
X111418Y119016D01*
X111545Y119051D01*
X111672Y119120D01*
X111787Y119224D01*
X111833Y119293D01*
X111868Y119374D01*
X111891Y119454D01*
X111902Y119558D01*
Y119916D01*
Y119927D01*
Y119939D01*
X111891Y120019D01*
X111868Y120112D01*
X111810Y120238D01*
X111730Y120354D01*
X111672Y120400D01*
X111603Y120446D01*
X111522Y120492D01*
X111418Y120527D01*
X111314Y120538D01*
X111188Y120550D01*
X106091D01*
Y114911D01*
X104800D01*
Y121783D01*
X111268D01*
X111326Y121772D01*
D02*
G37*
D16*
X54871Y91793D02*
Y94942D01*
X60481Y94942D02*
X61268D01*
X60481Y91793D02*
X61268D01*
X54871Y44925D02*
Y48075D01*
X60481Y48075D02*
X61268D01*
X60481Y44925D02*
X61268D01*
X54871Y83193D02*
Y86342D01*
X60481Y86342D02*
X61268D01*
X60481Y83193D02*
X61268D01*
X52490Y116500D02*
Y132500D01*
X21290Y116500D02*
Y132500D01*
X29900Y106500D02*
X30700Y104700D01*
X21290Y116500D02*
X29000D01*
X44201Y116418D02*
X52490Y116500D01*
X88649Y38880D02*
X88059Y39470D01*
X86878D01*
X86287Y38880D01*
Y38289D01*
X86878Y37699D01*
X88059D01*
X88649Y37108D01*
Y36518D01*
X88059Y35928D01*
X86878D01*
X86287Y36518D01*
X89830Y39470D02*
Y35928D01*
X91601D01*
X92191Y36518D01*
Y38880D01*
X91601Y39470D01*
X89830D01*
X93372Y35928D02*
Y38289D01*
X94552Y39470D01*
X95733Y38289D01*
Y35928D01*
Y37699D01*
X93372D01*
X96914Y35928D02*
X99275Y38289D01*
X86287Y29787D02*
Y33330D01*
X88059D01*
X88649Y32739D01*
Y31558D01*
X88059Y30968D01*
X86287D01*
X89830Y33330D02*
Y29787D01*
X91601D01*
X92191Y30378D01*
Y30968D01*
X91601Y31558D01*
X89830D01*
X91601D01*
X92191Y32149D01*
Y32739D01*
X91601Y33330D01*
X89830D01*
X93372Y30378D02*
X93962Y29787D01*
X95143D01*
X95733Y30378D01*
Y32739D01*
X95143Y33330D01*
X93962D01*
X93372Y32739D01*
Y32149D01*
X93962Y31558D01*
X95733D01*
X55701Y26000D02*
X56750D01*
X56226D01*
Y29149D01*
X55701Y28624D01*
X81100Y34700D02*
Y37849D01*
X82674D01*
X83199Y37324D01*
Y36274D01*
X82674Y35750D01*
X81100D01*
X82149D02*
X83199Y34700D01*
X75850Y37849D02*
Y34700D01*
X77424D01*
X77949Y35225D01*
Y37324D01*
X77424Y37849D01*
X75850D01*
X67449Y37324D02*
X66924Y37849D01*
X65875D01*
X65350Y37324D01*
Y35225D01*
X65875Y34700D01*
X66924D01*
X67449Y35225D01*
X87200Y101849D02*
Y98700D01*
Y99749D01*
X89299Y101849D01*
X87725Y100274D01*
X89299Y98700D01*
X92448Y101849D02*
X90349D01*
Y98700D01*
X92448D01*
X90349Y100274D02*
X91398D01*
X93497Y101849D02*
X95596D01*
X94547D01*
Y98700D01*
X98745Y101324D02*
X98220Y101849D01*
X97171D01*
X96646Y101324D01*
Y99225D01*
X97171Y98700D01*
X98220D01*
X98745Y99225D01*
X99794Y100799D02*
Y99225D01*
X100319Y98700D01*
X101893D01*
Y100799D01*
X102943Y101849D02*
Y98700D01*
X104517D01*
X105042Y99225D01*
Y99749D01*
Y100274D01*
X104517Y100799D01*
X102943D01*
X107666Y98700D02*
X106616D01*
X106091Y99225D01*
Y100274D01*
X106616Y100799D01*
X107666D01*
X108191Y100274D01*
Y99749D01*
X106091D01*
X109240Y98175D02*
X111339D01*
X112389Y98700D02*
X113438D01*
X112914D01*
Y101849D01*
X112389Y101324D01*
X115013D02*
X115537Y101849D01*
X116587D01*
X117112Y101324D01*
Y100799D01*
X116587Y100274D01*
X117112Y99749D01*
Y99225D01*
X116587Y98700D01*
X115537D01*
X115013Y99225D01*
Y99749D01*
X115537Y100274D01*
X115013Y100799D01*
Y101324D01*
X115537Y100274D02*
X116587D01*
X118161Y101324D02*
X118686Y101849D01*
X119735D01*
X120260Y101324D01*
Y99225D01*
X119735Y98700D01*
X118686D01*
X118161Y99225D01*
Y101324D01*
X121310D02*
X121835Y101849D01*
X122884D01*
X123409Y101324D01*
Y100799D01*
X122884Y100274D01*
X123409Y99749D01*
Y99225D01*
X122884Y98700D01*
X121835D01*
X121310Y99225D01*
Y99749D01*
X121835Y100274D01*
X121310Y100799D01*
Y101324D01*
X121835Y100274D02*
X122884D01*
X129706Y101849D02*
X127607D01*
Y98700D01*
X129706D01*
X127607Y100274D02*
X128656D01*
X130755Y98700D02*
X131805D01*
X131280D01*
Y101849D01*
X130755Y101324D01*
X70600Y35568D02*
X73224D01*
X60000Y36468D02*
X62624D01*
X61312Y37780D02*
Y35156D01*
X42900Y15500D02*
Y19436D01*
X44868D01*
X45524Y18780D01*
Y17468D01*
X44868Y16812D01*
X42900D01*
X46836Y18124D02*
Y15500D01*
Y16812D01*
X47492Y17468D01*
X48148Y18124D01*
X48804D01*
X51427Y15500D02*
X52739D01*
X53395Y16156D01*
Y17468D01*
X52739Y18124D01*
X51427D01*
X50771Y17468D01*
Y16156D01*
X51427Y15500D01*
X56019Y14188D02*
X56675D01*
X57331Y14844D01*
Y18124D01*
X55363D01*
X54707Y17468D01*
Y16156D01*
X55363Y15500D01*
X57331D01*
X77561Y45352D02*
X76971Y45942D01*
X75790D01*
X75200Y45352D01*
Y44761D01*
X75790Y44171D01*
X76971D01*
X77561Y43581D01*
Y42990D01*
X76971Y42400D01*
X75790D01*
X75200Y42990D01*
X81104Y45352D02*
X80513Y45942D01*
X79333D01*
X78742Y45352D01*
Y42990D01*
X79333Y42400D01*
X80513D01*
X81104Y42990D01*
X82284Y45942D02*
Y42400D01*
X84646D01*
X85826Y44171D02*
X88188D01*
X89369Y42400D02*
Y45942D01*
X91140D01*
X91730Y45352D01*
Y44171D01*
X91140Y43581D01*
X89369D01*
X92911Y45942D02*
Y42400D01*
X94682D01*
X95272Y42990D01*
Y43581D01*
X94682Y44171D01*
X92911D01*
X94682D01*
X95272Y44761D01*
Y45352D01*
X94682Y45942D01*
X92911D01*
X96453Y45352D02*
X97043Y45942D01*
X98224D01*
X98814Y45352D01*
Y44761D01*
X98224Y44171D01*
X98814Y43581D01*
Y42990D01*
X98224Y42400D01*
X97043D01*
X96453Y42990D01*
Y43581D01*
X97043Y44171D01*
X96453Y44761D01*
Y45352D01*
X97043Y44171D02*
X98224D01*
X37787Y88455D02*
Y91604D01*
X39887Y88455D01*
Y91604D01*
X40936Y88455D02*
Y91604D01*
X42510D01*
X43035Y91079D01*
Y90030D01*
X42510Y89505D01*
X40936D01*
X41985D02*
X43035Y88455D01*
X46184Y91079D02*
X45659Y91604D01*
X44609D01*
X44085Y91079D01*
Y90554D01*
X44609Y90030D01*
X45659D01*
X46184Y89505D01*
Y88980D01*
X45659Y88455D01*
X44609D01*
X44085Y88980D01*
X47233Y91604D02*
X49332D01*
X48283D01*
Y88455D01*
X37787Y82787D02*
X39887Y84886D01*
X40936Y82787D02*
Y85936D01*
X42510D01*
X43035Y85411D01*
Y84362D01*
X42510Y83837D01*
X40936D01*
X44085Y82787D02*
Y84886D01*
X45134Y85936D01*
X46184Y84886D01*
Y82787D01*
Y84362D01*
X44085D01*
X49332Y85936D02*
X47233D01*
Y84362D01*
X48283Y84886D01*
X48807D01*
X49332Y84362D01*
Y83312D01*
X48807Y82787D01*
X47758D01*
X47233Y83312D01*
X36000Y77000D02*
Y79099D01*
X37049Y80149D01*
X38099Y79099D01*
Y77000D01*
Y78574D01*
X36000D01*
X39149Y77000D02*
Y80149D01*
X41248Y77000D01*
Y80149D01*
X42297Y78574D02*
X44396D01*
X45446Y77000D02*
Y80149D01*
X47020D01*
X47545Y79624D01*
Y78574D01*
X47020Y78049D01*
X45446D01*
X48594Y77000D02*
Y79099D01*
X49644Y80149D01*
X50693Y79099D01*
Y77000D01*
Y78574D01*
X48594D01*
X53317Y77000D02*
Y80149D01*
X51743Y78574D01*
X53842D01*
X22200Y69500D02*
Y72649D01*
X23774D01*
X24299Y72124D01*
Y71074D01*
X23774Y70549D01*
X22200D01*
X25349Y69500D02*
Y71599D01*
X26398Y72649D01*
X27448Y71599D01*
Y69500D01*
Y71074D01*
X25349D01*
X28497Y72124D02*
X29022Y72649D01*
X30071D01*
X30596Y72124D01*
Y70025D01*
X30071Y69500D01*
X29022D01*
X28497Y70025D01*
Y72124D01*
X37300Y98900D02*
Y102049D01*
X38874D01*
X39399Y101524D01*
Y100474D01*
X38874Y99950D01*
X37300D01*
X40449Y98900D02*
Y100999D01*
X41498Y102049D01*
X42548Y100999D01*
Y98900D01*
Y100474D01*
X40449D01*
X43597Y101524D02*
X44122Y102049D01*
X45171D01*
X45696Y101524D01*
Y100999D01*
X45171Y100474D01*
X45696Y99950D01*
Y99425D01*
X45171Y98900D01*
X44122D01*
X43597Y99425D01*
Y99950D01*
X44122Y100474D01*
X43597Y100999D01*
Y101524D01*
X44122Y100474D02*
X45171D01*
X46746Y98900D02*
X48845Y100999D01*
X49894Y102049D02*
Y99950D01*
X50944Y98900D01*
X51993Y99950D01*
Y102049D01*
X53043Y100999D02*
Y98900D01*
Y99950D01*
X53568Y100474D01*
X54093Y100999D01*
X54617D01*
X57766Y98900D02*
X56716D01*
X56191Y99425D01*
Y100474D01*
X56716Y100999D01*
X57766D01*
X58291Y100474D01*
Y99950D01*
X56191D01*
X59865Y98900D02*
Y101524D01*
Y100474D01*
X59340D01*
X60390D01*
X59865D01*
Y101524D01*
X60390Y102049D01*
X37300Y104400D02*
Y107549D01*
X38874D01*
X39399Y107024D01*
Y105974D01*
X38874Y105449D01*
X37300D01*
X40449Y104400D02*
Y106499D01*
X41498Y107549D01*
X42548Y106499D01*
Y104400D01*
Y105974D01*
X40449D01*
X43597Y104925D02*
X44122Y104400D01*
X45171D01*
X45696Y104925D01*
Y107024D01*
X45171Y107549D01*
X44122D01*
X43597Y107024D01*
Y106499D01*
X44122Y105974D01*
X45696D01*
X37300Y109900D02*
Y113049D01*
X38874D01*
X39399Y112524D01*
Y111474D01*
X38874Y110950D01*
X37300D01*
X40449Y109900D02*
Y111999D01*
X41498Y113049D01*
X42548Y111999D01*
Y109900D01*
Y111474D01*
X40449D01*
X43597Y109900D02*
X44647D01*
X44122D01*
Y113049D01*
X43597Y112524D01*
X46221D02*
X46746Y113049D01*
X47795D01*
X48320Y112524D01*
Y110425D01*
X47795Y109900D01*
X46746D01*
X46221Y110425D01*
Y112524D01*
X24361Y65452D02*
X23771Y66042D01*
X22590D01*
X22000Y65452D01*
Y63090D01*
X22590Y62500D01*
X23771D01*
X24361Y63090D01*
X27904Y65452D02*
X27313Y66042D01*
X26133D01*
X25542Y65452D01*
Y64862D01*
X26133Y64271D01*
X27313D01*
X27904Y63681D01*
Y63090D01*
X27313Y62500D01*
X26133D01*
X25542Y63090D01*
X29084Y64271D02*
X31446D01*
X32627Y62500D02*
Y66042D01*
X34398D01*
X34988Y65452D01*
Y64271D01*
X34398Y63681D01*
X32627D01*
X36169Y66042D02*
Y62500D01*
X37940D01*
X38530Y63090D01*
Y63681D01*
X37940Y64271D01*
X36169D01*
X37940D01*
X38530Y64862D01*
Y65452D01*
X37940Y66042D01*
X36169D01*
X39711Y62500D02*
X40892D01*
X40301D01*
Y66042D01*
X39711Y65452D01*
X45024Y62500D02*
X42663D01*
X45024Y64862D01*
Y65452D01*
X44434Y66042D01*
X43253D01*
X42663Y65452D01*
X24061Y55052D02*
X23471Y55642D01*
X22290D01*
X21700Y55052D01*
Y54461D01*
X22290Y53871D01*
X23471D01*
X24061Y53281D01*
Y52690D01*
X23471Y52100D01*
X22290D01*
X21700Y52690D01*
X27604Y55052D02*
X27013Y55642D01*
X25833D01*
X25242Y55052D01*
Y52690D01*
X25833Y52100D01*
X27013D01*
X27604Y52690D01*
X28784Y55642D02*
Y52100D01*
Y53281D01*
X31146Y55642D01*
X29375Y53871D01*
X31146Y52100D01*
X32326Y53871D02*
X34688D01*
X35869Y52100D02*
Y55642D01*
X37640D01*
X38230Y55052D01*
Y53871D01*
X37640Y53281D01*
X35869D01*
X39411Y55642D02*
Y52100D01*
X41182D01*
X41772Y52690D01*
Y53281D01*
X41182Y53871D01*
X39411D01*
X41182D01*
X41772Y54461D01*
Y55052D01*
X41182Y55642D01*
X39411D01*
X42953Y52100D02*
X44134D01*
X43543D01*
Y55642D01*
X42953Y55052D01*
X45905D02*
X46495Y55642D01*
X47676D01*
X48266Y55052D01*
Y54461D01*
X47676Y53871D01*
X47085D01*
X47676D01*
X48266Y53281D01*
Y52690D01*
X47676Y52100D01*
X46495D01*
X45905Y52690D01*
X21700Y32400D02*
Y35942D01*
X22881Y34762D01*
X24061Y35942D01*
Y32400D01*
X27013Y35942D02*
X25833D01*
X25242Y35352D01*
Y32990D01*
X25833Y32400D01*
X27013D01*
X27604Y32990D01*
Y35352D01*
X27013Y35942D01*
X31146Y35352D02*
X30555Y35942D01*
X29375D01*
X28784Y35352D01*
Y34762D01*
X29375Y34171D01*
X30555D01*
X31146Y33581D01*
Y32990D01*
X30555Y32400D01*
X29375D01*
X28784Y32990D01*
X32326Y35942D02*
X33507D01*
X32917D01*
Y32400D01*
X32326D01*
X33507D01*
X35278Y34171D02*
X37640D01*
X38820Y32400D02*
Y35942D01*
X40591D01*
X41182Y35352D01*
Y34171D01*
X40591Y33581D01*
X38820D01*
X42363Y35942D02*
Y32400D01*
X44134D01*
X44724Y32990D01*
Y33581D01*
X44134Y34171D01*
X42363D01*
X44134D01*
X44724Y34762D01*
Y35352D01*
X44134Y35942D01*
X42363D01*
X45905Y32400D02*
X47085D01*
X46495D01*
Y35942D01*
X45905Y35352D01*
X51218Y35942D02*
X48857D01*
Y34171D01*
X50037Y34762D01*
X50628D01*
X51218Y34171D01*
Y32990D01*
X50628Y32400D01*
X49447D01*
X48857Y32990D01*
X21700Y42300D02*
Y45842D01*
X22881Y44662D01*
X24061Y45842D01*
Y42300D01*
X25242Y45842D02*
X26423D01*
X25833D01*
Y42300D01*
X25242D01*
X26423D01*
X30555Y45252D02*
X29965Y45842D01*
X28784D01*
X28194Y45252D01*
Y44662D01*
X28784Y44071D01*
X29965D01*
X30555Y43481D01*
Y42890D01*
X29965Y42300D01*
X28784D01*
X28194Y42890D01*
X33507Y45842D02*
X32326D01*
X31736Y45252D01*
Y42890D01*
X32326Y42300D01*
X33507D01*
X34098Y42890D01*
Y45252D01*
X33507Y45842D01*
X35278Y44071D02*
X37640D01*
X38820Y42300D02*
Y45842D01*
X40591D01*
X41182Y45252D01*
Y44071D01*
X40591Y43481D01*
X38820D01*
X42363Y45842D02*
Y42300D01*
X44134D01*
X44724Y42890D01*
Y43481D01*
X44134Y44071D01*
X42363D01*
X44134D01*
X44724Y44662D01*
Y45252D01*
X44134Y45842D01*
X42363D01*
X45905Y42300D02*
X47085D01*
X46495D01*
Y45842D01*
X45905Y45252D01*
X50628Y42300D02*
Y45842D01*
X48857Y44071D01*
X51218D01*
X75790Y75543D02*
X76971D01*
X76381D01*
Y72001D01*
X75790D01*
X76971D01*
X78742D02*
Y75543D01*
X81104Y72001D01*
Y75543D01*
X82284D02*
X84646D01*
X83465D01*
Y72001D01*
X85826Y73772D02*
X88188D01*
X89369Y72001D02*
Y75543D01*
X91140D01*
X91730Y74953D01*
Y73772D01*
X91140Y73181D01*
X89369D01*
X92911Y75543D02*
Y72001D01*
X94682D01*
X95272Y72591D01*
Y73181D01*
X94682Y73772D01*
X92911D01*
X94682D01*
X95272Y74362D01*
Y74953D01*
X94682Y75543D01*
X92911D01*
X96453D02*
X98814D01*
Y74953D01*
X96453Y72591D01*
Y72001D01*
X75200Y82300D02*
Y85842D01*
X76971D01*
X77561Y85252D01*
Y84071D01*
X76971Y83481D01*
X75200D01*
X78742Y85842D02*
Y82300D01*
X79923Y83481D01*
X81104Y82300D01*
Y85842D01*
X82284Y82300D02*
Y85842D01*
X83465Y84662D01*
X84646Y85842D01*
Y82300D01*
X85826Y84071D02*
X88188D01*
X89369Y82300D02*
Y85842D01*
X91140D01*
X91730Y85252D01*
Y84071D01*
X91140Y83481D01*
X89369D01*
X92911Y85842D02*
Y82300D01*
X94682D01*
X95272Y82890D01*
Y83481D01*
X94682Y84071D01*
X92911D01*
X94682D01*
X95272Y84662D01*
Y85252D01*
X94682Y85842D01*
X92911D01*
X98814Y82300D02*
X96453D01*
X98814Y84662D01*
Y85252D01*
X98224Y85842D01*
X97043D01*
X96453Y85252D01*
X78842Y62000D02*
Y65542D01*
X80613D01*
X81204Y64952D01*
Y63771D01*
X80613Y63181D01*
X78842D01*
X80023D02*
X81204Y62000D01*
X82384Y65542D02*
X84746Y62000D01*
Y65542D02*
X82384Y62000D01*
X85927Y63771D02*
X88288D01*
X89469Y62000D02*
Y65542D01*
X91240D01*
X91830Y64952D01*
Y63771D01*
X91240Y63181D01*
X89469D01*
X93011Y62000D02*
Y64362D01*
X94191Y65542D01*
X95372Y64362D01*
Y62000D01*
Y63771D01*
X93011D01*
X96553Y64952D02*
X97143Y65542D01*
X98324D01*
X98914Y64952D01*
Y64362D01*
X98324Y63771D01*
X97734D01*
X98324D01*
X98914Y63181D01*
Y62590D01*
X98324Y62000D01*
X97143D01*
X96553Y62590D01*
X78742Y55742D02*
X81104D01*
X79923D01*
Y52200D01*
X82284Y55742D02*
X84646Y52200D01*
Y55742D02*
X82284Y52200D01*
X85826Y53971D02*
X88188D01*
X89369Y52200D02*
Y55742D01*
X91140D01*
X91730Y55152D01*
Y53971D01*
X91140Y53381D01*
X89369D01*
X92911Y52200D02*
Y54562D01*
X94091Y55742D01*
X95272Y54562D01*
Y52200D01*
Y53971D01*
X92911D01*
X98814Y52200D02*
X96453D01*
X98814Y54562D01*
Y55152D01*
X98224Y55742D01*
X97043D01*
X96453Y55152D01*
X90861Y18452D02*
X90271Y19042D01*
X89090D01*
X88500Y18452D01*
Y16090D01*
X89090Y15500D01*
X90271D01*
X90861Y16090D01*
Y17271D01*
X89681D01*
X92042Y15500D02*
Y19042D01*
X94404Y15500D01*
Y19042D01*
X95584D02*
Y15500D01*
X97355D01*
X97946Y16090D01*
Y18452D01*
X97355Y19042D01*
X95584D01*
X116861Y28542D02*
X114500D01*
Y26771D01*
X115681Y27362D01*
X116271D01*
X116861Y26771D01*
Y25590D01*
X116271Y25000D01*
X115090D01*
X114500Y25590D01*
X118042Y28542D02*
Y26181D01*
X119223Y25000D01*
X120404Y26181D01*
Y28542D01*
X21700Y25052D02*
X22290Y25642D01*
X23471D01*
X24061Y25052D01*
Y24461D01*
X23471Y23871D01*
X22881D01*
X23471D01*
X24061Y23281D01*
Y22690D01*
X23471Y22100D01*
X22290D01*
X21700Y22690D01*
X25242Y25642D02*
Y23281D01*
X26423Y22100D01*
X27604Y23281D01*
Y25642D01*
X28784Y25052D02*
X29375Y25642D01*
X30555D01*
X31146Y25052D01*
Y24461D01*
X30555Y23871D01*
X29965D01*
X30555D01*
X31146Y23281D01*
Y22690D01*
X30555Y22100D01*
X29375D01*
X28784Y22690D01*
X24061Y14452D02*
X23471Y15042D01*
X22290D01*
X21700Y14452D01*
Y12090D01*
X22290Y11500D01*
X23471D01*
X24061Y12090D01*
Y13271D01*
X22881D01*
X25242Y11500D02*
Y15042D01*
X27604Y11500D01*
Y15042D01*
X28784D02*
Y11500D01*
X30555D01*
X31146Y12090D01*
Y14452D01*
X30555Y15042D01*
X28784D01*
X93861Y25542D02*
X91500D01*
Y23771D01*
X92681Y24361D01*
X93271D01*
X93861Y23771D01*
Y22590D01*
X93271Y22000D01*
X92090D01*
X91500Y22590D01*
X95042Y25542D02*
Y23181D01*
X96223Y22000D01*
X97404Y23181D01*
Y25542D01*
X114861Y22952D02*
X114271Y23542D01*
X113090D01*
X112500Y22952D01*
Y20590D01*
X113090Y20000D01*
X114271D01*
X114861Y20590D01*
Y21771D01*
X113681D01*
X116042Y20000D02*
Y23542D01*
X118404Y20000D01*
Y23542D01*
X119584D02*
Y20000D01*
X121355D01*
X121946Y20590D01*
Y22952D01*
X121355Y23542D01*
X119584D01*
X79499Y91849D02*
X78449D01*
X78974D01*
Y89225D01*
X78449Y88700D01*
X77925D01*
X77400Y89225D01*
X80549Y88700D02*
X81598D01*
X81073D01*
Y91849D01*
X80549Y91324D01*
X83172D02*
X83697Y91849D01*
X84747D01*
X85272Y91324D01*
Y89225D01*
X84747Y88700D01*
X83697D01*
X83172Y89225D01*
Y91324D01*
X22351Y83231D02*
Y82181D01*
Y82706D01*
X24975D01*
X25500Y82181D01*
Y81656D01*
X24975Y81132D01*
Y84280D02*
X25500Y84805D01*
Y85854D01*
X24975Y86379D01*
X22876D01*
X22351Y85854D01*
Y84805D01*
X22876Y84280D01*
X23401D01*
X23926Y84805D01*
Y86379D01*
X66799Y72649D02*
X65750D01*
X66274D01*
Y70025D01*
X65750Y69500D01*
X65225D01*
X64700Y70025D01*
X67849Y72124D02*
X68373Y72649D01*
X69423D01*
X69948Y72124D01*
Y71599D01*
X69423Y71074D01*
X69948Y70549D01*
Y70025D01*
X69423Y69500D01*
X68373D01*
X67849Y70025D01*
Y70549D01*
X68373Y71074D01*
X67849Y71599D01*
Y72124D01*
X68373Y71074D02*
X69423D01*
X31699Y97849D02*
X30650D01*
X31174D01*
Y95225D01*
X30650Y94700D01*
X30125D01*
X29600Y95225D01*
X32749Y97849D02*
X34848D01*
Y97324D01*
X32749Y95225D01*
Y94700D01*
X31699Y103549D02*
X30650D01*
X31174D01*
Y100925D01*
X30650Y100400D01*
X30125D01*
X29600Y100925D01*
X32749Y100400D02*
X33798D01*
X33273D01*
Y103549D01*
X32749Y103024D01*
X97900Y93849D02*
Y90700D01*
Y92274D01*
X99999D01*
Y93849D01*
Y90700D01*
X103148Y93849D02*
X101049D01*
Y92274D01*
X102098Y92799D01*
X102623D01*
X103148Y92274D01*
Y91225D01*
X102623Y90700D01*
X101573D01*
X101049Y91225D01*
X22300Y19849D02*
Y16700D01*
Y18274D01*
X24399D01*
Y19849D01*
Y16700D01*
X27023D02*
Y19849D01*
X25449Y18274D01*
X27548D01*
X52400Y23049D02*
Y19900D01*
Y21474D01*
X54499D01*
Y23049D01*
Y19900D01*
X55549Y22524D02*
X56073Y23049D01*
X57123D01*
X57648Y22524D01*
Y21999D01*
X57123Y21474D01*
X56598D01*
X57123D01*
X57648Y20949D01*
Y20425D01*
X57123Y19900D01*
X56073D01*
X55549Y20425D01*
X99000Y116000D02*
X96901D01*
X95851Y117050D01*
X96901Y118099D01*
X99000D01*
X97426D01*
Y116000D01*
X99000Y119149D02*
X95851D01*
X99000Y121248D01*
X95851D01*
X99000Y122297D02*
Y123347D01*
Y122822D01*
X95851D01*
X96376Y122297D01*
X124800Y94049D02*
Y90900D01*
Y92474D01*
X126899D01*
Y94049D01*
Y90900D01*
X127949Y93524D02*
X128473Y94049D01*
X129523D01*
X130048Y93524D01*
Y92999D01*
X129523Y92474D01*
X130048Y91949D01*
Y91425D01*
X129523Y90900D01*
X128473D01*
X127949Y91425D01*
Y91949D01*
X128473Y92474D01*
X127949Y92999D01*
Y93524D01*
X128473Y92474D02*
X129523D01*
X58200Y81849D02*
Y79750D01*
X59250Y78700D01*
X60299Y79750D01*
Y81849D01*
X61349Y81324D02*
X61873Y81849D01*
X62923D01*
X63448Y81324D01*
Y80799D01*
X62923Y80274D01*
X62398D01*
X62923D01*
X63448Y79750D01*
Y79225D01*
X62923Y78700D01*
X61873D01*
X61349Y79225D01*
X58200Y90649D02*
Y88550D01*
X59250Y87500D01*
X60299Y88550D01*
Y90649D01*
X63448Y87500D02*
X61349D01*
X63448Y89599D01*
Y90124D01*
X62923Y90649D01*
X61873D01*
X61349Y90124D01*
X58225Y52949D02*
Y50849D01*
X59275Y49800D01*
X60324Y50849D01*
Y52949D01*
X61374Y49800D02*
X62423D01*
X61898D01*
Y52949D01*
X61374Y52424D01*
X54871Y227206D02*
Y230356D01*
X60481Y230356D02*
X61268D01*
X60481Y227206D02*
X61268D01*
X54871Y180339D02*
Y183488D01*
X60481Y183488D02*
X61268D01*
X60481Y180339D02*
X61268D01*
X54871Y218606D02*
Y221756D01*
X60481Y221756D02*
X61268D01*
X60481Y218606D02*
X61268D01*
X52490Y251913D02*
Y267913D01*
X21290Y251913D02*
Y267913D01*
X29900Y241913D02*
X30700Y240113D01*
X21290Y251913D02*
X29000D01*
X44201Y251831D02*
X52490Y251913D01*
X88649Y174293D02*
X88059Y174883D01*
X86878D01*
X86287Y174293D01*
Y173703D01*
X86878Y173112D01*
X88059D01*
X88649Y172522D01*
Y171932D01*
X88059Y171341D01*
X86878D01*
X86287Y171932D01*
X89830Y174883D02*
Y171341D01*
X91601D01*
X92191Y171932D01*
Y174293D01*
X91601Y174883D01*
X89830D01*
X93372Y171341D02*
Y173703D01*
X94552Y174883D01*
X95733Y173703D01*
Y171341D01*
Y173112D01*
X93372D01*
X96914Y171341D02*
X99275Y173703D01*
X86287Y165201D02*
Y168743D01*
X88059D01*
X88649Y168153D01*
Y166972D01*
X88059Y166382D01*
X86287D01*
X89830Y168743D02*
Y165201D01*
X91601D01*
X92191Y165791D01*
Y166382D01*
X91601Y166972D01*
X89830D01*
X91601D01*
X92191Y167562D01*
Y168153D01*
X91601Y168743D01*
X89830D01*
X93372Y165791D02*
X93962Y165201D01*
X95143D01*
X95733Y165791D01*
Y168153D01*
X95143Y168743D01*
X93962D01*
X93372Y168153D01*
Y167562D01*
X93962Y166972D01*
X95733D01*
X55701Y161413D02*
X56750D01*
X56226D01*
Y164562D01*
X55701Y164037D01*
X81100Y170113D02*
Y173262D01*
X82674D01*
X83199Y172737D01*
Y171688D01*
X82674Y171163D01*
X81100D01*
X82149D02*
X83199Y170113D01*
X75850Y173262D02*
Y170113D01*
X77424D01*
X77949Y170638D01*
Y172737D01*
X77424Y173262D01*
X75850D01*
X67449Y172737D02*
X66924Y173262D01*
X65875D01*
X65350Y172737D01*
Y170638D01*
X65875Y170113D01*
X66924D01*
X67449Y170638D01*
X87200Y237262D02*
Y234113D01*
Y235163D01*
X89299Y237262D01*
X87725Y235688D01*
X89299Y234113D01*
X92448Y237262D02*
X90349D01*
Y234113D01*
X92448D01*
X90349Y235688D02*
X91398D01*
X93497Y237262D02*
X95596D01*
X94547D01*
Y234113D01*
X98745Y236737D02*
X98220Y237262D01*
X97171D01*
X96646Y236737D01*
Y234638D01*
X97171Y234113D01*
X98220D01*
X98745Y234638D01*
X99794Y236212D02*
Y234638D01*
X100319Y234113D01*
X101893D01*
Y236212D01*
X102943Y237262D02*
Y234113D01*
X104517D01*
X105042Y234638D01*
Y235163D01*
Y235688D01*
X104517Y236212D01*
X102943D01*
X107666Y234113D02*
X106616D01*
X106091Y234638D01*
Y235688D01*
X106616Y236212D01*
X107666D01*
X108191Y235688D01*
Y235163D01*
X106091D01*
X109240Y233589D02*
X111339D01*
X112389Y234113D02*
X113438D01*
X112914D01*
Y237262D01*
X112389Y236737D01*
X115013D02*
X115537Y237262D01*
X116587D01*
X117112Y236737D01*
Y236212D01*
X116587Y235688D01*
X117112Y235163D01*
Y234638D01*
X116587Y234113D01*
X115537D01*
X115013Y234638D01*
Y235163D01*
X115537Y235688D01*
X115013Y236212D01*
Y236737D01*
X115537Y235688D02*
X116587D01*
X118161Y236737D02*
X118686Y237262D01*
X119735D01*
X120260Y236737D01*
Y234638D01*
X119735Y234113D01*
X118686D01*
X118161Y234638D01*
Y236737D01*
X121310D02*
X121835Y237262D01*
X122884D01*
X123409Y236737D01*
Y236212D01*
X122884Y235688D01*
X123409Y235163D01*
Y234638D01*
X122884Y234113D01*
X121835D01*
X121310Y234638D01*
Y235163D01*
X121835Y235688D01*
X121310Y236212D01*
Y236737D01*
X121835Y235688D02*
X122884D01*
X129706Y237262D02*
X127607D01*
Y234113D01*
X129706D01*
X127607Y235688D02*
X128656D01*
X130755Y234113D02*
X131805D01*
X131280D01*
Y237262D01*
X130755Y236737D01*
X70600Y170981D02*
X73224D01*
X60000Y171881D02*
X62624D01*
X61312Y173193D02*
Y170569D01*
X42900Y150913D02*
Y154849D01*
X44868D01*
X45524Y154193D01*
Y152881D01*
X44868Y152225D01*
X42900D01*
X46836Y153537D02*
Y150913D01*
Y152225D01*
X47492Y152881D01*
X48148Y153537D01*
X48804D01*
X51427Y150913D02*
X52739D01*
X53395Y151569D01*
Y152881D01*
X52739Y153537D01*
X51427D01*
X50771Y152881D01*
Y151569D01*
X51427Y150913D01*
X56019Y149601D02*
X56675D01*
X57331Y150258D01*
Y153537D01*
X55363D01*
X54707Y152881D01*
Y151569D01*
X55363Y150913D01*
X57331D01*
X77561Y180765D02*
X76971Y181356D01*
X75790D01*
X75200Y180765D01*
Y180175D01*
X75790Y179585D01*
X76971D01*
X77561Y178994D01*
Y178404D01*
X76971Y177813D01*
X75790D01*
X75200Y178404D01*
X81104Y180765D02*
X80513Y181356D01*
X79333D01*
X78742Y180765D01*
Y178404D01*
X79333Y177813D01*
X80513D01*
X81104Y178404D01*
X82284Y181356D02*
Y177813D01*
X84646D01*
X85826Y179585D02*
X88188D01*
X89369Y177813D02*
Y181356D01*
X91140D01*
X91730Y180765D01*
Y179585D01*
X91140Y178994D01*
X89369D01*
X92911Y181356D02*
Y177813D01*
X94682D01*
X95272Y178404D01*
Y178994D01*
X94682Y179585D01*
X92911D01*
X94682D01*
X95272Y180175D01*
Y180765D01*
X94682Y181356D01*
X92911D01*
X96453Y180765D02*
X97043Y181356D01*
X98224D01*
X98814Y180765D01*
Y180175D01*
X98224Y179585D01*
X98814Y178994D01*
Y178404D01*
X98224Y177813D01*
X97043D01*
X96453Y178404D01*
Y178994D01*
X97043Y179585D01*
X96453Y180175D01*
Y180765D01*
X97043Y179585D02*
X98224D01*
X37787Y223869D02*
Y227017D01*
X39887Y223869D01*
Y227017D01*
X40936Y223869D02*
Y227017D01*
X42510D01*
X43035Y226493D01*
Y225443D01*
X42510Y224918D01*
X40936D01*
X41985D02*
X43035Y223869D01*
X46184Y226493D02*
X45659Y227017D01*
X44609D01*
X44085Y226493D01*
Y225968D01*
X44609Y225443D01*
X45659D01*
X46184Y224918D01*
Y224394D01*
X45659Y223869D01*
X44609D01*
X44085Y224394D01*
X47233Y227017D02*
X49332D01*
X48283D01*
Y223869D01*
X37787Y218201D02*
X39887Y220300D01*
X40936Y218201D02*
Y221349D01*
X42510D01*
X43035Y220825D01*
Y219775D01*
X42510Y219250D01*
X40936D01*
X44085Y218201D02*
Y220300D01*
X45134Y221349D01*
X46184Y220300D01*
Y218201D01*
Y219775D01*
X44085D01*
X49332Y221349D02*
X47233D01*
Y219775D01*
X48283Y220300D01*
X48807D01*
X49332Y219775D01*
Y218726D01*
X48807Y218201D01*
X47758D01*
X47233Y218726D01*
X36000Y212413D02*
Y214512D01*
X37049Y215562D01*
X38099Y214512D01*
Y212413D01*
Y213988D01*
X36000D01*
X39149Y212413D02*
Y215562D01*
X41248Y212413D01*
Y215562D01*
X42297Y213988D02*
X44396D01*
X45446Y212413D02*
Y215562D01*
X47020D01*
X47545Y215037D01*
Y213988D01*
X47020Y213463D01*
X45446D01*
X48594Y212413D02*
Y214512D01*
X49644Y215562D01*
X50693Y214512D01*
Y212413D01*
Y213988D01*
X48594D01*
X53317Y212413D02*
Y215562D01*
X51743Y213988D01*
X53842D01*
X22200Y204913D02*
Y208062D01*
X23774D01*
X24299Y207537D01*
Y206488D01*
X23774Y205963D01*
X22200D01*
X25349Y204913D02*
Y207013D01*
X26398Y208062D01*
X27448Y207013D01*
Y204913D01*
Y206488D01*
X25349D01*
X28497Y207537D02*
X29022Y208062D01*
X30071D01*
X30596Y207537D01*
Y205438D01*
X30071Y204913D01*
X29022D01*
X28497Y205438D01*
Y207537D01*
X37300Y234313D02*
Y237462D01*
X38874D01*
X39399Y236937D01*
Y235888D01*
X38874Y235363D01*
X37300D01*
X40449Y234313D02*
Y236413D01*
X41498Y237462D01*
X42548Y236413D01*
Y234313D01*
Y235888D01*
X40449D01*
X43597Y236937D02*
X44122Y237462D01*
X45171D01*
X45696Y236937D01*
Y236413D01*
X45171Y235888D01*
X45696Y235363D01*
Y234838D01*
X45171Y234313D01*
X44122D01*
X43597Y234838D01*
Y235363D01*
X44122Y235888D01*
X43597Y236413D01*
Y236937D01*
X44122Y235888D02*
X45171D01*
X46746Y234313D02*
X48845Y236413D01*
X49894Y237462D02*
Y235363D01*
X50944Y234313D01*
X51993Y235363D01*
Y237462D01*
X53043Y236413D02*
Y234313D01*
Y235363D01*
X53568Y235888D01*
X54093Y236413D01*
X54617D01*
X57766Y234313D02*
X56716D01*
X56191Y234838D01*
Y235888D01*
X56716Y236413D01*
X57766D01*
X58291Y235888D01*
Y235363D01*
X56191D01*
X59865Y234313D02*
Y236937D01*
Y235888D01*
X59340D01*
X60390D01*
X59865D01*
Y236937D01*
X60390Y237462D01*
X37300Y239813D02*
Y242962D01*
X38874D01*
X39399Y242437D01*
Y241388D01*
X38874Y240863D01*
X37300D01*
X40449Y239813D02*
Y241913D01*
X41498Y242962D01*
X42548Y241913D01*
Y239813D01*
Y241388D01*
X40449D01*
X43597Y240338D02*
X44122Y239813D01*
X45171D01*
X45696Y240338D01*
Y242437D01*
X45171Y242962D01*
X44122D01*
X43597Y242437D01*
Y241913D01*
X44122Y241388D01*
X45696D01*
X37300Y245313D02*
Y248462D01*
X38874D01*
X39399Y247937D01*
Y246888D01*
X38874Y246363D01*
X37300D01*
X40449Y245313D02*
Y247412D01*
X41498Y248462D01*
X42548Y247412D01*
Y245313D01*
Y246888D01*
X40449D01*
X43597Y245313D02*
X44647D01*
X44122D01*
Y248462D01*
X43597Y247937D01*
X46221D02*
X46746Y248462D01*
X47795D01*
X48320Y247937D01*
Y245838D01*
X47795Y245313D01*
X46746D01*
X46221Y245838D01*
Y247937D01*
X24361Y200865D02*
X23771Y201456D01*
X22590D01*
X22000Y200865D01*
Y198504D01*
X22590Y197913D01*
X23771D01*
X24361Y198504D01*
X27904Y200865D02*
X27313Y201456D01*
X26133D01*
X25542Y200865D01*
Y200275D01*
X26133Y199685D01*
X27313D01*
X27904Y199094D01*
Y198504D01*
X27313Y197913D01*
X26133D01*
X25542Y198504D01*
X29084Y199685D02*
X31446D01*
X32627Y197913D02*
Y201456D01*
X34398D01*
X34988Y200865D01*
Y199685D01*
X34398Y199094D01*
X32627D01*
X36169Y201456D02*
Y197913D01*
X37940D01*
X38530Y198504D01*
Y199094D01*
X37940Y199685D01*
X36169D01*
X37940D01*
X38530Y200275D01*
Y200865D01*
X37940Y201456D01*
X36169D01*
X39711Y197913D02*
X40892D01*
X40301D01*
Y201456D01*
X39711Y200865D01*
X45024Y197913D02*
X42663D01*
X45024Y200275D01*
Y200865D01*
X44434Y201456D01*
X43253D01*
X42663Y200865D01*
X24061Y190465D02*
X23471Y191056D01*
X22290D01*
X21700Y190465D01*
Y189875D01*
X22290Y189285D01*
X23471D01*
X24061Y188694D01*
Y188104D01*
X23471Y187513D01*
X22290D01*
X21700Y188104D01*
X27604Y190465D02*
X27013Y191056D01*
X25833D01*
X25242Y190465D01*
Y188104D01*
X25833Y187513D01*
X27013D01*
X27604Y188104D01*
X28784Y191056D02*
Y187513D01*
Y188694D01*
X31146Y191056D01*
X29375Y189285D01*
X31146Y187513D01*
X32326Y189285D02*
X34688D01*
X35869Y187513D02*
Y191056D01*
X37640D01*
X38230Y190465D01*
Y189285D01*
X37640Y188694D01*
X35869D01*
X39411Y191056D02*
Y187513D01*
X41182D01*
X41772Y188104D01*
Y188694D01*
X41182Y189285D01*
X39411D01*
X41182D01*
X41772Y189875D01*
Y190465D01*
X41182Y191056D01*
X39411D01*
X42953Y187513D02*
X44134D01*
X43543D01*
Y191056D01*
X42953Y190465D01*
X45905D02*
X46495Y191056D01*
X47676D01*
X48266Y190465D01*
Y189875D01*
X47676Y189285D01*
X47085D01*
X47676D01*
X48266Y188694D01*
Y188104D01*
X47676Y187513D01*
X46495D01*
X45905Y188104D01*
X21700Y167813D02*
Y171356D01*
X22881Y170175D01*
X24061Y171356D01*
Y167813D01*
X27013Y171356D02*
X25833D01*
X25242Y170765D01*
Y168404D01*
X25833Y167813D01*
X27013D01*
X27604Y168404D01*
Y170765D01*
X27013Y171356D01*
X31146Y170765D02*
X30555Y171356D01*
X29375D01*
X28784Y170765D01*
Y170175D01*
X29375Y169585D01*
X30555D01*
X31146Y168994D01*
Y168404D01*
X30555Y167813D01*
X29375D01*
X28784Y168404D01*
X32326Y171356D02*
X33507D01*
X32917D01*
Y167813D01*
X32326D01*
X33507D01*
X35278Y169585D02*
X37640D01*
X38820Y167813D02*
Y171356D01*
X40591D01*
X41182Y170765D01*
Y169585D01*
X40591Y168994D01*
X38820D01*
X42363Y171356D02*
Y167813D01*
X44134D01*
X44724Y168404D01*
Y168994D01*
X44134Y169585D01*
X42363D01*
X44134D01*
X44724Y170175D01*
Y170765D01*
X44134Y171356D01*
X42363D01*
X45905Y167813D02*
X47085D01*
X46495D01*
Y171356D01*
X45905Y170765D01*
X51218Y171356D02*
X48857D01*
Y169585D01*
X50037Y170175D01*
X50628D01*
X51218Y169585D01*
Y168404D01*
X50628Y167813D01*
X49447D01*
X48857Y168404D01*
X21700Y177713D02*
Y181256D01*
X22881Y180075D01*
X24061Y181256D01*
Y177713D01*
X25242Y181256D02*
X26423D01*
X25833D01*
Y177713D01*
X25242D01*
X26423D01*
X30555Y180665D02*
X29965Y181256D01*
X28784D01*
X28194Y180665D01*
Y180075D01*
X28784Y179484D01*
X29965D01*
X30555Y178894D01*
Y178304D01*
X29965Y177713D01*
X28784D01*
X28194Y178304D01*
X33507Y181256D02*
X32326D01*
X31736Y180665D01*
Y178304D01*
X32326Y177713D01*
X33507D01*
X34098Y178304D01*
Y180665D01*
X33507Y181256D01*
X35278Y179484D02*
X37640D01*
X38820Y177713D02*
Y181256D01*
X40591D01*
X41182Y180665D01*
Y179484D01*
X40591Y178894D01*
X38820D01*
X42363Y181256D02*
Y177713D01*
X44134D01*
X44724Y178304D01*
Y178894D01*
X44134Y179484D01*
X42363D01*
X44134D01*
X44724Y180075D01*
Y180665D01*
X44134Y181256D01*
X42363D01*
X45905Y177713D02*
X47085D01*
X46495D01*
Y181256D01*
X45905Y180665D01*
X50628Y177713D02*
Y181256D01*
X48857Y179484D01*
X51218D01*
X75790Y210956D02*
X76971D01*
X76381D01*
Y207414D01*
X75790D01*
X76971D01*
X78742D02*
Y210956D01*
X81104Y207414D01*
Y210956D01*
X82284D02*
X84646D01*
X83465D01*
Y207414D01*
X85826Y209185D02*
X88188D01*
X89369Y207414D02*
Y210956D01*
X91140D01*
X91730Y210366D01*
Y209185D01*
X91140Y208595D01*
X89369D01*
X92911Y210956D02*
Y207414D01*
X94682D01*
X95272Y208005D01*
Y208595D01*
X94682Y209185D01*
X92911D01*
X94682D01*
X95272Y209776D01*
Y210366D01*
X94682Y210956D01*
X92911D01*
X96453D02*
X98814D01*
Y210366D01*
X96453Y208005D01*
Y207414D01*
X75200Y217713D02*
Y221256D01*
X76971D01*
X77561Y220665D01*
Y219484D01*
X76971Y218894D01*
X75200D01*
X78742Y221256D02*
Y217713D01*
X79923Y218894D01*
X81104Y217713D01*
Y221256D01*
X82284Y217713D02*
Y221256D01*
X83465Y220075D01*
X84646Y221256D01*
Y217713D01*
X85826Y219484D02*
X88188D01*
X89369Y217713D02*
Y221256D01*
X91140D01*
X91730Y220665D01*
Y219484D01*
X91140Y218894D01*
X89369D01*
X92911Y221256D02*
Y217713D01*
X94682D01*
X95272Y218304D01*
Y218894D01*
X94682Y219484D01*
X92911D01*
X94682D01*
X95272Y220075D01*
Y220665D01*
X94682Y221256D01*
X92911D01*
X98814Y217713D02*
X96453D01*
X98814Y220075D01*
Y220665D01*
X98224Y221256D01*
X97043D01*
X96453Y220665D01*
X78842Y197413D02*
Y200956D01*
X80613D01*
X81204Y200365D01*
Y199185D01*
X80613Y198594D01*
X78842D01*
X80023D02*
X81204Y197413D01*
X82384Y200956D02*
X84746Y197413D01*
Y200956D02*
X82384Y197413D01*
X85927Y199185D02*
X88288D01*
X89469Y197413D02*
Y200956D01*
X91240D01*
X91830Y200365D01*
Y199185D01*
X91240Y198594D01*
X89469D01*
X93011Y197413D02*
Y199775D01*
X94191Y200956D01*
X95372Y199775D01*
Y197413D01*
Y199185D01*
X93011D01*
X96553Y200365D02*
X97143Y200956D01*
X98324D01*
X98914Y200365D01*
Y199775D01*
X98324Y199185D01*
X97734D01*
X98324D01*
X98914Y198594D01*
Y198004D01*
X98324Y197413D01*
X97143D01*
X96553Y198004D01*
X78742Y191156D02*
X81104D01*
X79923D01*
Y187613D01*
X82284Y191156D02*
X84646Y187613D01*
Y191156D02*
X82284Y187613D01*
X85826Y189384D02*
X88188D01*
X89369Y187613D02*
Y191156D01*
X91140D01*
X91730Y190565D01*
Y189384D01*
X91140Y188794D01*
X89369D01*
X92911Y187613D02*
Y189975D01*
X94091Y191156D01*
X95272Y189975D01*
Y187613D01*
Y189384D01*
X92911D01*
X98814Y187613D02*
X96453D01*
X98814Y189975D01*
Y190565D01*
X98224Y191156D01*
X97043D01*
X96453Y190565D01*
X90861Y153865D02*
X90271Y154456D01*
X89090D01*
X88500Y153865D01*
Y151504D01*
X89090Y150913D01*
X90271D01*
X90861Y151504D01*
Y152684D01*
X89681D01*
X92042Y150913D02*
Y154456D01*
X94404Y150913D01*
Y154456D01*
X95584D02*
Y150913D01*
X97355D01*
X97946Y151504D01*
Y153865D01*
X97355Y154456D01*
X95584D01*
X116861Y163956D02*
X114500D01*
Y162185D01*
X115681Y162775D01*
X116271D01*
X116861Y162185D01*
Y161004D01*
X116271Y160413D01*
X115090D01*
X114500Y161004D01*
X118042Y163956D02*
Y161594D01*
X119223Y160413D01*
X120404Y161594D01*
Y163956D01*
X21700Y160465D02*
X22290Y161056D01*
X23471D01*
X24061Y160465D01*
Y159875D01*
X23471Y159284D01*
X22881D01*
X23471D01*
X24061Y158694D01*
Y158104D01*
X23471Y157513D01*
X22290D01*
X21700Y158104D01*
X25242Y161056D02*
Y158694D01*
X26423Y157513D01*
X27604Y158694D01*
Y161056D01*
X28784Y160465D02*
X29375Y161056D01*
X30555D01*
X31146Y160465D01*
Y159875D01*
X30555Y159284D01*
X29965D01*
X30555D01*
X31146Y158694D01*
Y158104D01*
X30555Y157513D01*
X29375D01*
X28784Y158104D01*
X24061Y149865D02*
X23471Y150456D01*
X22290D01*
X21700Y149865D01*
Y147504D01*
X22290Y146913D01*
X23471D01*
X24061Y147504D01*
Y148685D01*
X22881D01*
X25242Y146913D02*
Y150456D01*
X27604Y146913D01*
Y150456D01*
X28784D02*
Y146913D01*
X30555D01*
X31146Y147504D01*
Y149865D01*
X30555Y150456D01*
X28784D01*
X93861Y160956D02*
X91500D01*
Y159185D01*
X92681Y159775D01*
X93271D01*
X93861Y159185D01*
Y158004D01*
X93271Y157413D01*
X92090D01*
X91500Y158004D01*
X95042Y160956D02*
Y158594D01*
X96223Y157413D01*
X97404Y158594D01*
Y160956D01*
X114861Y158365D02*
X114271Y158956D01*
X113090D01*
X112500Y158365D01*
Y156004D01*
X113090Y155413D01*
X114271D01*
X114861Y156004D01*
Y157185D01*
X113681D01*
X116042Y155413D02*
Y158956D01*
X118404Y155413D01*
Y158956D01*
X119584D02*
Y155413D01*
X121355D01*
X121946Y156004D01*
Y158365D01*
X121355Y158956D01*
X119584D01*
X79499Y227262D02*
X78449D01*
X78974D01*
Y224638D01*
X78449Y224113D01*
X77925D01*
X77400Y224638D01*
X80549Y224113D02*
X81598D01*
X81073D01*
Y227262D01*
X80549Y226737D01*
X83172D02*
X83697Y227262D01*
X84747D01*
X85272Y226737D01*
Y224638D01*
X84747Y224113D01*
X83697D01*
X83172Y224638D01*
Y226737D01*
X22351Y218644D02*
Y217595D01*
Y218119D01*
X24975D01*
X25500Y217595D01*
Y217070D01*
X24975Y216545D01*
Y219693D02*
X25500Y220218D01*
Y221268D01*
X24975Y221793D01*
X22876D01*
X22351Y221268D01*
Y220218D01*
X22876Y219693D01*
X23401D01*
X23926Y220218D01*
Y221793D01*
X66799Y208062D02*
X65750D01*
X66274D01*
Y205438D01*
X65750Y204913D01*
X65225D01*
X64700Y205438D01*
X67849Y207537D02*
X68373Y208062D01*
X69423D01*
X69948Y207537D01*
Y207013D01*
X69423Y206488D01*
X69948Y205963D01*
Y205438D01*
X69423Y204913D01*
X68373D01*
X67849Y205438D01*
Y205963D01*
X68373Y206488D01*
X67849Y207013D01*
Y207537D01*
X68373Y206488D02*
X69423D01*
X31699Y233262D02*
X30650D01*
X31174D01*
Y230638D01*
X30650Y230113D01*
X30125D01*
X29600Y230638D01*
X32749Y233262D02*
X34848D01*
Y232737D01*
X32749Y230638D01*
Y230113D01*
X31699Y238962D02*
X30650D01*
X31174D01*
Y236338D01*
X30650Y235813D01*
X30125D01*
X29600Y236338D01*
X32749Y235813D02*
X33798D01*
X33273D01*
Y238962D01*
X32749Y238437D01*
X97900Y229262D02*
Y226113D01*
Y227688D01*
X99999D01*
Y229262D01*
Y226113D01*
X103148Y229262D02*
X101049D01*
Y227688D01*
X102098Y228212D01*
X102623D01*
X103148Y227688D01*
Y226638D01*
X102623Y226113D01*
X101573D01*
X101049Y226638D01*
X22300Y155262D02*
Y152113D01*
Y153688D01*
X24399D01*
Y155262D01*
Y152113D01*
X27023D02*
Y155262D01*
X25449Y153688D01*
X27548D01*
X52400Y158462D02*
Y155313D01*
Y156888D01*
X54499D01*
Y158462D01*
Y155313D01*
X55549Y157937D02*
X56073Y158462D01*
X57123D01*
X57648Y157937D01*
Y157413D01*
X57123Y156888D01*
X56598D01*
X57123D01*
X57648Y156363D01*
Y155838D01*
X57123Y155313D01*
X56073D01*
X55549Y155838D01*
X99000Y251413D02*
X96901D01*
X95851Y252463D01*
X96901Y253513D01*
X99000D01*
X97426D01*
Y251413D01*
X99000Y254562D02*
X95851D01*
X99000Y256661D01*
X95851D01*
X99000Y257711D02*
Y258760D01*
Y258235D01*
X95851D01*
X96376Y257711D01*
X124800Y229462D02*
Y226313D01*
Y227888D01*
X126899D01*
Y229462D01*
Y226313D01*
X127949Y228937D02*
X128473Y229462D01*
X129523D01*
X130048Y228937D01*
Y228413D01*
X129523Y227888D01*
X130048Y227363D01*
Y226838D01*
X129523Y226313D01*
X128473D01*
X127949Y226838D01*
Y227363D01*
X128473Y227888D01*
X127949Y228413D01*
Y228937D01*
X128473Y227888D02*
X129523D01*
X58200Y217262D02*
Y215163D01*
X59250Y214113D01*
X60299Y215163D01*
Y217262D01*
X61349Y216737D02*
X61873Y217262D01*
X62923D01*
X63448Y216737D01*
Y216213D01*
X62923Y215688D01*
X62398D01*
X62923D01*
X63448Y215163D01*
Y214638D01*
X62923Y214113D01*
X61873D01*
X61349Y214638D01*
X58200Y226062D02*
Y223963D01*
X59250Y222913D01*
X60299Y223963D01*
Y226062D01*
X63448Y222913D02*
X61349D01*
X63448Y225012D01*
Y225537D01*
X62923Y226062D01*
X61873D01*
X61349Y225537D01*
X58225Y188362D02*
Y186263D01*
X59275Y185213D01*
X60324Y186263D01*
Y188362D01*
X61374Y185213D02*
X62423D01*
X61898D01*
Y188362D01*
X61374Y187837D01*
X54871Y362619D02*
Y365769D01*
X60481Y365769D02*
X61268D01*
X60481Y362619D02*
X61268D01*
X54871Y315752D02*
Y318902D01*
X60481Y318902D02*
X61268D01*
X60481Y315752D02*
X61268D01*
X54871Y354019D02*
Y357169D01*
X60481Y357169D02*
X61268D01*
X60481Y354019D02*
X61268D01*
X52490Y387327D02*
Y403327D01*
X21290Y387327D02*
Y403327D01*
X29900Y377327D02*
X30700Y375527D01*
X21290Y387327D02*
X29000D01*
X44201Y387245D02*
X52490Y387327D01*
X88649Y309706D02*
X88059Y310297D01*
X86878D01*
X86287Y309706D01*
Y309116D01*
X86878Y308526D01*
X88059D01*
X88649Y307935D01*
Y307345D01*
X88059Y306755D01*
X86878D01*
X86287Y307345D01*
X89830Y310297D02*
Y306755D01*
X91601D01*
X92191Y307345D01*
Y309706D01*
X91601Y310297D01*
X89830D01*
X93372Y306755D02*
Y309116D01*
X94552Y310297D01*
X95733Y309116D01*
Y306755D01*
Y308526D01*
X93372D01*
X96914Y306755D02*
X99275Y309116D01*
X86287Y300614D02*
Y304156D01*
X88059D01*
X88649Y303566D01*
Y302385D01*
X88059Y301795D01*
X86287D01*
X89830Y304156D02*
Y300614D01*
X91601D01*
X92191Y301205D01*
Y301795D01*
X91601Y302385D01*
X89830D01*
X91601D01*
X92191Y302976D01*
Y303566D01*
X91601Y304156D01*
X89830D01*
X93372Y301205D02*
X93962Y300614D01*
X95143D01*
X95733Y301205D01*
Y303566D01*
X95143Y304156D01*
X93962D01*
X93372Y303566D01*
Y302976D01*
X93962Y302385D01*
X95733D01*
X55701Y296827D02*
X56750D01*
X56226D01*
Y299975D01*
X55701Y299451D01*
X81100Y305527D02*
Y308675D01*
X82674D01*
X83199Y308151D01*
Y307101D01*
X82674Y306576D01*
X81100D01*
X82149D02*
X83199Y305527D01*
X75850Y308675D02*
Y305527D01*
X77424D01*
X77949Y306052D01*
Y308151D01*
X77424Y308675D01*
X75850D01*
X67449Y308151D02*
X66924Y308675D01*
X65875D01*
X65350Y308151D01*
Y306052D01*
X65875Y305527D01*
X66924D01*
X67449Y306052D01*
X87200Y372675D02*
Y369527D01*
Y370576D01*
X89299Y372675D01*
X87725Y371101D01*
X89299Y369527D01*
X92448Y372675D02*
X90349D01*
Y369527D01*
X92448D01*
X90349Y371101D02*
X91398D01*
X93497Y372675D02*
X95596D01*
X94547D01*
Y369527D01*
X98745Y372151D02*
X98220Y372675D01*
X97171D01*
X96646Y372151D01*
Y370052D01*
X97171Y369527D01*
X98220D01*
X98745Y370052D01*
X99794Y371626D02*
Y370052D01*
X100319Y369527D01*
X101893D01*
Y371626D01*
X102943Y372675D02*
Y369527D01*
X104517D01*
X105042Y370052D01*
Y370576D01*
Y371101D01*
X104517Y371626D01*
X102943D01*
X107666Y369527D02*
X106616D01*
X106091Y370052D01*
Y371101D01*
X106616Y371626D01*
X107666D01*
X108191Y371101D01*
Y370576D01*
X106091D01*
X109240Y369002D02*
X111339D01*
X112389Y369527D02*
X113438D01*
X112914D01*
Y372675D01*
X112389Y372151D01*
X115013D02*
X115537Y372675D01*
X116587D01*
X117112Y372151D01*
Y371626D01*
X116587Y371101D01*
X117112Y370576D01*
Y370052D01*
X116587Y369527D01*
X115537D01*
X115013Y370052D01*
Y370576D01*
X115537Y371101D01*
X115013Y371626D01*
Y372151D01*
X115537Y371101D02*
X116587D01*
X118161Y372151D02*
X118686Y372675D01*
X119735D01*
X120260Y372151D01*
Y370052D01*
X119735Y369527D01*
X118686D01*
X118161Y370052D01*
Y372151D01*
X121310D02*
X121835Y372675D01*
X122884D01*
X123409Y372151D01*
Y371626D01*
X122884Y371101D01*
X123409Y370576D01*
Y370052D01*
X122884Y369527D01*
X121835D01*
X121310Y370052D01*
Y370576D01*
X121835Y371101D01*
X121310Y371626D01*
Y372151D01*
X121835Y371101D02*
X122884D01*
X129706Y372675D02*
X127607D01*
Y369527D01*
X129706D01*
X127607Y371101D02*
X128656D01*
X130755Y369527D02*
X131805D01*
X131280D01*
Y372675D01*
X130755Y372151D01*
X70600Y306395D02*
X73224D01*
X60000Y307295D02*
X62624D01*
X61312Y308607D02*
Y305983D01*
X42900Y286327D02*
Y290263D01*
X44868D01*
X45524Y289607D01*
Y288295D01*
X44868Y287639D01*
X42900D01*
X46836Y288951D02*
Y286327D01*
Y287639D01*
X47492Y288295D01*
X48148Y288951D01*
X48804D01*
X51427Y286327D02*
X52739D01*
X53395Y286983D01*
Y288295D01*
X52739Y288951D01*
X51427D01*
X50771Y288295D01*
Y286983D01*
X51427Y286327D01*
X56019Y285015D02*
X56675D01*
X57331Y285671D01*
Y288951D01*
X55363D01*
X54707Y288295D01*
Y286983D01*
X55363Y286327D01*
X57331D01*
X77561Y316179D02*
X76971Y316769D01*
X75790D01*
X75200Y316179D01*
Y315588D01*
X75790Y314998D01*
X76971D01*
X77561Y314407D01*
Y313817D01*
X76971Y313227D01*
X75790D01*
X75200Y313817D01*
X81104Y316179D02*
X80513Y316769D01*
X79333D01*
X78742Y316179D01*
Y313817D01*
X79333Y313227D01*
X80513D01*
X81104Y313817D01*
X82284Y316769D02*
Y313227D01*
X84646D01*
X85826Y314998D02*
X88188D01*
X89369Y313227D02*
Y316769D01*
X91140D01*
X91730Y316179D01*
Y314998D01*
X91140Y314407D01*
X89369D01*
X92911Y316769D02*
Y313227D01*
X94682D01*
X95272Y313817D01*
Y314407D01*
X94682Y314998D01*
X92911D01*
X94682D01*
X95272Y315588D01*
Y316179D01*
X94682Y316769D01*
X92911D01*
X96453Y316179D02*
X97043Y316769D01*
X98224D01*
X98814Y316179D01*
Y315588D01*
X98224Y314998D01*
X98814Y314407D01*
Y313817D01*
X98224Y313227D01*
X97043D01*
X96453Y313817D01*
Y314407D01*
X97043Y314998D01*
X96453Y315588D01*
Y316179D01*
X97043Y314998D02*
X98224D01*
X37787Y359282D02*
Y362431D01*
X39887Y359282D01*
Y362431D01*
X40936Y359282D02*
Y362431D01*
X42510D01*
X43035Y361906D01*
Y360857D01*
X42510Y360332D01*
X40936D01*
X41985D02*
X43035Y359282D01*
X46184Y361906D02*
X45659Y362431D01*
X44609D01*
X44085Y361906D01*
Y361381D01*
X44609Y360857D01*
X45659D01*
X46184Y360332D01*
Y359807D01*
X45659Y359282D01*
X44609D01*
X44085Y359807D01*
X47233Y362431D02*
X49332D01*
X48283D01*
Y359282D01*
X37787Y353614D02*
X39887Y355713D01*
X40936Y353614D02*
Y356763D01*
X42510D01*
X43035Y356238D01*
Y355188D01*
X42510Y354664D01*
X40936D01*
X44085Y353614D02*
Y355713D01*
X45134Y356763D01*
X46184Y355713D01*
Y353614D01*
Y355188D01*
X44085D01*
X49332Y356763D02*
X47233D01*
Y355188D01*
X48283Y355713D01*
X48807D01*
X49332Y355188D01*
Y354139D01*
X48807Y353614D01*
X47758D01*
X47233Y354139D01*
X36000Y347827D02*
Y349926D01*
X37049Y350975D01*
X38099Y349926D01*
Y347827D01*
Y349401D01*
X36000D01*
X39149Y347827D02*
Y350975D01*
X41248Y347827D01*
Y350975D01*
X42297Y349401D02*
X44396D01*
X45446Y347827D02*
Y350975D01*
X47020D01*
X47545Y350451D01*
Y349401D01*
X47020Y348876D01*
X45446D01*
X48594Y347827D02*
Y349926D01*
X49644Y350975D01*
X50693Y349926D01*
Y347827D01*
Y349401D01*
X48594D01*
X53317Y347827D02*
Y350975D01*
X51743Y349401D01*
X53842D01*
X22200Y340327D02*
Y343475D01*
X23774D01*
X24299Y342951D01*
Y341901D01*
X23774Y341376D01*
X22200D01*
X25349Y340327D02*
Y342426D01*
X26398Y343475D01*
X27448Y342426D01*
Y340327D01*
Y341901D01*
X25349D01*
X28497Y342951D02*
X29022Y343475D01*
X30071D01*
X30596Y342951D01*
Y340852D01*
X30071Y340327D01*
X29022D01*
X28497Y340852D01*
Y342951D01*
X37300Y369727D02*
Y372875D01*
X38874D01*
X39399Y372351D01*
Y371301D01*
X38874Y370776D01*
X37300D01*
X40449Y369727D02*
Y371826D01*
X41498Y372875D01*
X42548Y371826D01*
Y369727D01*
Y371301D01*
X40449D01*
X43597Y372351D02*
X44122Y372875D01*
X45171D01*
X45696Y372351D01*
Y371826D01*
X45171Y371301D01*
X45696Y370776D01*
Y370252D01*
X45171Y369727D01*
X44122D01*
X43597Y370252D01*
Y370776D01*
X44122Y371301D01*
X43597Y371826D01*
Y372351D01*
X44122Y371301D02*
X45171D01*
X46746Y369727D02*
X48845Y371826D01*
X49894Y372875D02*
Y370776D01*
X50944Y369727D01*
X51993Y370776D01*
Y372875D01*
X53043Y371826D02*
Y369727D01*
Y370776D01*
X53568Y371301D01*
X54093Y371826D01*
X54617D01*
X57766Y369727D02*
X56716D01*
X56191Y370252D01*
Y371301D01*
X56716Y371826D01*
X57766D01*
X58291Y371301D01*
Y370776D01*
X56191D01*
X59865Y369727D02*
Y372351D01*
Y371301D01*
X59340D01*
X60390D01*
X59865D01*
Y372351D01*
X60390Y372875D01*
X37300Y375227D02*
Y378375D01*
X38874D01*
X39399Y377851D01*
Y376801D01*
X38874Y376276D01*
X37300D01*
X40449Y375227D02*
Y377326D01*
X41498Y378375D01*
X42548Y377326D01*
Y375227D01*
Y376801D01*
X40449D01*
X43597Y375752D02*
X44122Y375227D01*
X45171D01*
X45696Y375752D01*
Y377851D01*
X45171Y378375D01*
X44122D01*
X43597Y377851D01*
Y377326D01*
X44122Y376801D01*
X45696D01*
X37300Y380727D02*
Y383875D01*
X38874D01*
X39399Y383351D01*
Y382301D01*
X38874Y381776D01*
X37300D01*
X40449Y380727D02*
Y382826D01*
X41498Y383875D01*
X42548Y382826D01*
Y380727D01*
Y382301D01*
X40449D01*
X43597Y380727D02*
X44647D01*
X44122D01*
Y383875D01*
X43597Y383351D01*
X46221D02*
X46746Y383875D01*
X47795D01*
X48320Y383351D01*
Y381252D01*
X47795Y380727D01*
X46746D01*
X46221Y381252D01*
Y383351D01*
X24361Y336279D02*
X23771Y336869D01*
X22590D01*
X22000Y336279D01*
Y333917D01*
X22590Y333327D01*
X23771D01*
X24361Y333917D01*
X27904Y336279D02*
X27313Y336869D01*
X26133D01*
X25542Y336279D01*
Y335688D01*
X26133Y335098D01*
X27313D01*
X27904Y334507D01*
Y333917D01*
X27313Y333327D01*
X26133D01*
X25542Y333917D01*
X29084Y335098D02*
X31446D01*
X32627Y333327D02*
Y336869D01*
X34398D01*
X34988Y336279D01*
Y335098D01*
X34398Y334507D01*
X32627D01*
X36169Y336869D02*
Y333327D01*
X37940D01*
X38530Y333917D01*
Y334507D01*
X37940Y335098D01*
X36169D01*
X37940D01*
X38530Y335688D01*
Y336279D01*
X37940Y336869D01*
X36169D01*
X39711Y333327D02*
X40892D01*
X40301D01*
Y336869D01*
X39711Y336279D01*
X45024Y333327D02*
X42663D01*
X45024Y335688D01*
Y336279D01*
X44434Y336869D01*
X43253D01*
X42663Y336279D01*
X24061Y325879D02*
X23471Y326469D01*
X22290D01*
X21700Y325879D01*
Y325288D01*
X22290Y324698D01*
X23471D01*
X24061Y324108D01*
Y323517D01*
X23471Y322927D01*
X22290D01*
X21700Y323517D01*
X27604Y325879D02*
X27013Y326469D01*
X25833D01*
X25242Y325879D01*
Y323517D01*
X25833Y322927D01*
X27013D01*
X27604Y323517D01*
X28784Y326469D02*
Y322927D01*
Y324108D01*
X31146Y326469D01*
X29375Y324698D01*
X31146Y322927D01*
X32326Y324698D02*
X34688D01*
X35869Y322927D02*
Y326469D01*
X37640D01*
X38230Y325879D01*
Y324698D01*
X37640Y324108D01*
X35869D01*
X39411Y326469D02*
Y322927D01*
X41182D01*
X41772Y323517D01*
Y324108D01*
X41182Y324698D01*
X39411D01*
X41182D01*
X41772Y325288D01*
Y325879D01*
X41182Y326469D01*
X39411D01*
X42953Y322927D02*
X44134D01*
X43543D01*
Y326469D01*
X42953Y325879D01*
X45905D02*
X46495Y326469D01*
X47676D01*
X48266Y325879D01*
Y325288D01*
X47676Y324698D01*
X47085D01*
X47676D01*
X48266Y324108D01*
Y323517D01*
X47676Y322927D01*
X46495D01*
X45905Y323517D01*
X21700Y303227D02*
Y306769D01*
X22881Y305588D01*
X24061Y306769D01*
Y303227D01*
X27013Y306769D02*
X25833D01*
X25242Y306179D01*
Y303817D01*
X25833Y303227D01*
X27013D01*
X27604Y303817D01*
Y306179D01*
X27013Y306769D01*
X31146Y306179D02*
X30555Y306769D01*
X29375D01*
X28784Y306179D01*
Y305588D01*
X29375Y304998D01*
X30555D01*
X31146Y304408D01*
Y303817D01*
X30555Y303227D01*
X29375D01*
X28784Y303817D01*
X32326Y306769D02*
X33507D01*
X32917D01*
Y303227D01*
X32326D01*
X33507D01*
X35278Y304998D02*
X37640D01*
X38820Y303227D02*
Y306769D01*
X40591D01*
X41182Y306179D01*
Y304998D01*
X40591Y304408D01*
X38820D01*
X42363Y306769D02*
Y303227D01*
X44134D01*
X44724Y303817D01*
Y304408D01*
X44134Y304998D01*
X42363D01*
X44134D01*
X44724Y305588D01*
Y306179D01*
X44134Y306769D01*
X42363D01*
X45905Y303227D02*
X47085D01*
X46495D01*
Y306769D01*
X45905Y306179D01*
X51218Y306769D02*
X48857D01*
Y304998D01*
X50037Y305588D01*
X50628D01*
X51218Y304998D01*
Y303817D01*
X50628Y303227D01*
X49447D01*
X48857Y303817D01*
X21700Y313127D02*
Y316669D01*
X22881Y315488D01*
X24061Y316669D01*
Y313127D01*
X25242Y316669D02*
X26423D01*
X25833D01*
Y313127D01*
X25242D01*
X26423D01*
X30555Y316079D02*
X29965Y316669D01*
X28784D01*
X28194Y316079D01*
Y315488D01*
X28784Y314898D01*
X29965D01*
X30555Y314307D01*
Y313717D01*
X29965Y313127D01*
X28784D01*
X28194Y313717D01*
X33507Y316669D02*
X32326D01*
X31736Y316079D01*
Y313717D01*
X32326Y313127D01*
X33507D01*
X34098Y313717D01*
Y316079D01*
X33507Y316669D01*
X35278Y314898D02*
X37640D01*
X38820Y313127D02*
Y316669D01*
X40591D01*
X41182Y316079D01*
Y314898D01*
X40591Y314307D01*
X38820D01*
X42363Y316669D02*
Y313127D01*
X44134D01*
X44724Y313717D01*
Y314307D01*
X44134Y314898D01*
X42363D01*
X44134D01*
X44724Y315488D01*
Y316079D01*
X44134Y316669D01*
X42363D01*
X45905Y313127D02*
X47085D01*
X46495D01*
Y316669D01*
X45905Y316079D01*
X50628Y313127D02*
Y316669D01*
X48857Y314898D01*
X51218D01*
X75790Y346370D02*
X76971D01*
X76381D01*
Y342828D01*
X75790D01*
X76971D01*
X78742D02*
Y346370D01*
X81104Y342828D01*
Y346370D01*
X82284D02*
X84646D01*
X83465D01*
Y342828D01*
X85826Y344599D02*
X88188D01*
X89369Y342828D02*
Y346370D01*
X91140D01*
X91730Y345779D01*
Y344599D01*
X91140Y344008D01*
X89369D01*
X92911Y346370D02*
Y342828D01*
X94682D01*
X95272Y343418D01*
Y344008D01*
X94682Y344599D01*
X92911D01*
X94682D01*
X95272Y345189D01*
Y345779D01*
X94682Y346370D01*
X92911D01*
X96453D02*
X98814D01*
Y345779D01*
X96453Y343418D01*
Y342828D01*
X75200Y353127D02*
Y356669D01*
X76971D01*
X77561Y356079D01*
Y354898D01*
X76971Y354308D01*
X75200D01*
X78742Y356669D02*
Y353127D01*
X79923Y354308D01*
X81104Y353127D01*
Y356669D01*
X82284Y353127D02*
Y356669D01*
X83465Y355488D01*
X84646Y356669D01*
Y353127D01*
X85826Y354898D02*
X88188D01*
X89369Y353127D02*
Y356669D01*
X91140D01*
X91730Y356079D01*
Y354898D01*
X91140Y354308D01*
X89369D01*
X92911Y356669D02*
Y353127D01*
X94682D01*
X95272Y353717D01*
Y354308D01*
X94682Y354898D01*
X92911D01*
X94682D01*
X95272Y355488D01*
Y356079D01*
X94682Y356669D01*
X92911D01*
X98814Y353127D02*
X96453D01*
X98814Y355488D01*
Y356079D01*
X98224Y356669D01*
X97043D01*
X96453Y356079D01*
X78842Y332827D02*
Y336369D01*
X80613D01*
X81204Y335779D01*
Y334598D01*
X80613Y334008D01*
X78842D01*
X80023D02*
X81204Y332827D01*
X82384Y336369D02*
X84746Y332827D01*
Y336369D02*
X82384Y332827D01*
X85927Y334598D02*
X88288D01*
X89469Y332827D02*
Y336369D01*
X91240D01*
X91830Y335779D01*
Y334598D01*
X91240Y334008D01*
X89469D01*
X93011Y332827D02*
Y335188D01*
X94191Y336369D01*
X95372Y335188D01*
Y332827D01*
Y334598D01*
X93011D01*
X96553Y335779D02*
X97143Y336369D01*
X98324D01*
X98914Y335779D01*
Y335188D01*
X98324Y334598D01*
X97734D01*
X98324D01*
X98914Y334008D01*
Y333417D01*
X98324Y332827D01*
X97143D01*
X96553Y333417D01*
X78742Y326569D02*
X81104D01*
X79923D01*
Y323027D01*
X82284Y326569D02*
X84646Y323027D01*
Y326569D02*
X82284Y323027D01*
X85826Y324798D02*
X88188D01*
X89369Y323027D02*
Y326569D01*
X91140D01*
X91730Y325979D01*
Y324798D01*
X91140Y324207D01*
X89369D01*
X92911Y323027D02*
Y325388D01*
X94091Y326569D01*
X95272Y325388D01*
Y323027D01*
Y324798D01*
X92911D01*
X98814Y323027D02*
X96453D01*
X98814Y325388D01*
Y325979D01*
X98224Y326569D01*
X97043D01*
X96453Y325979D01*
X90861Y289279D02*
X90271Y289869D01*
X89090D01*
X88500Y289279D01*
Y286917D01*
X89090Y286327D01*
X90271D01*
X90861Y286917D01*
Y288098D01*
X89681D01*
X92042Y286327D02*
Y289869D01*
X94404Y286327D01*
Y289869D01*
X95584D02*
Y286327D01*
X97355D01*
X97946Y286917D01*
Y289279D01*
X97355Y289869D01*
X95584D01*
X116861Y299369D02*
X114500D01*
Y297598D01*
X115681Y298188D01*
X116271D01*
X116861Y297598D01*
Y296417D01*
X116271Y295827D01*
X115090D01*
X114500Y296417D01*
X118042Y299369D02*
Y297007D01*
X119223Y295827D01*
X120404Y297007D01*
Y299369D01*
X21700Y295879D02*
X22290Y296469D01*
X23471D01*
X24061Y295879D01*
Y295288D01*
X23471Y294698D01*
X22881D01*
X23471D01*
X24061Y294108D01*
Y293517D01*
X23471Y292927D01*
X22290D01*
X21700Y293517D01*
X25242Y296469D02*
Y294108D01*
X26423Y292927D01*
X27604Y294108D01*
Y296469D01*
X28784Y295879D02*
X29375Y296469D01*
X30555D01*
X31146Y295879D01*
Y295288D01*
X30555Y294698D01*
X29965D01*
X30555D01*
X31146Y294108D01*
Y293517D01*
X30555Y292927D01*
X29375D01*
X28784Y293517D01*
X24061Y285279D02*
X23471Y285869D01*
X22290D01*
X21700Y285279D01*
Y282917D01*
X22290Y282327D01*
X23471D01*
X24061Y282917D01*
Y284098D01*
X22881D01*
X25242Y282327D02*
Y285869D01*
X27604Y282327D01*
Y285869D01*
X28784D02*
Y282327D01*
X30555D01*
X31146Y282917D01*
Y285279D01*
X30555Y285869D01*
X28784D01*
X93861Y296369D02*
X91500D01*
Y294598D01*
X92681Y295188D01*
X93271D01*
X93861Y294598D01*
Y293417D01*
X93271Y292827D01*
X92090D01*
X91500Y293417D01*
X95042Y296369D02*
Y294007D01*
X96223Y292827D01*
X97404Y294007D01*
Y296369D01*
X114861Y293779D02*
X114271Y294369D01*
X113090D01*
X112500Y293779D01*
Y291417D01*
X113090Y290827D01*
X114271D01*
X114861Y291417D01*
Y292598D01*
X113681D01*
X116042Y290827D02*
Y294369D01*
X118404Y290827D01*
Y294369D01*
X119584D02*
Y290827D01*
X121355D01*
X121946Y291417D01*
Y293779D01*
X121355Y294369D01*
X119584D01*
X79499Y362675D02*
X78449D01*
X78974D01*
Y360052D01*
X78449Y359527D01*
X77925D01*
X77400Y360052D01*
X80549Y359527D02*
X81598D01*
X81073D01*
Y362675D01*
X80549Y362151D01*
X83172D02*
X83697Y362675D01*
X84747D01*
X85272Y362151D01*
Y360052D01*
X84747Y359527D01*
X83697D01*
X83172Y360052D01*
Y362151D01*
X22351Y354057D02*
Y353008D01*
Y353533D01*
X24975D01*
X25500Y353008D01*
Y352483D01*
X24975Y351958D01*
Y355107D02*
X25500Y355632D01*
Y356681D01*
X24975Y357206D01*
X22876D01*
X22351Y356681D01*
Y355632D01*
X22876Y355107D01*
X23401D01*
X23926Y355632D01*
Y357206D01*
X66799Y343475D02*
X65750D01*
X66274D01*
Y340852D01*
X65750Y340327D01*
X65225D01*
X64700Y340852D01*
X67849Y342951D02*
X68373Y343475D01*
X69423D01*
X69948Y342951D01*
Y342426D01*
X69423Y341901D01*
X69948Y341376D01*
Y340852D01*
X69423Y340327D01*
X68373D01*
X67849Y340852D01*
Y341376D01*
X68373Y341901D01*
X67849Y342426D01*
Y342951D01*
X68373Y341901D02*
X69423D01*
X31699Y368675D02*
X30650D01*
X31174D01*
Y366052D01*
X30650Y365527D01*
X30125D01*
X29600Y366052D01*
X32749Y368675D02*
X34848D01*
Y368151D01*
X32749Y366052D01*
Y365527D01*
X31699Y374375D02*
X30650D01*
X31174D01*
Y371752D01*
X30650Y371227D01*
X30125D01*
X29600Y371752D01*
X32749Y371227D02*
X33798D01*
X33273D01*
Y374375D01*
X32749Y373851D01*
X97900Y364675D02*
Y361527D01*
Y363101D01*
X99999D01*
Y364675D01*
Y361527D01*
X103148Y364675D02*
X101049D01*
Y363101D01*
X102098Y363626D01*
X102623D01*
X103148Y363101D01*
Y362052D01*
X102623Y361527D01*
X101573D01*
X101049Y362052D01*
X22300Y290675D02*
Y287527D01*
Y289101D01*
X24399D01*
Y290675D01*
Y287527D01*
X27023D02*
Y290675D01*
X25449Y289101D01*
X27548D01*
X52400Y293875D02*
Y290727D01*
Y292301D01*
X54499D01*
Y293875D01*
Y290727D01*
X55549Y293351D02*
X56073Y293875D01*
X57123D01*
X57648Y293351D01*
Y292826D01*
X57123Y292301D01*
X56598D01*
X57123D01*
X57648Y291776D01*
Y291252D01*
X57123Y290727D01*
X56073D01*
X55549Y291252D01*
X99000Y386827D02*
X96901D01*
X95851Y387876D01*
X96901Y388926D01*
X99000D01*
X97426D01*
Y386827D01*
X99000Y389975D02*
X95851D01*
X99000Y392074D01*
X95851D01*
X99000Y393124D02*
Y394174D01*
Y393649D01*
X95851D01*
X96376Y393124D01*
X124800Y364875D02*
Y361727D01*
Y363301D01*
X126899D01*
Y364875D01*
Y361727D01*
X127949Y364351D02*
X128473Y364875D01*
X129523D01*
X130048Y364351D01*
Y363826D01*
X129523Y363301D01*
X130048Y362776D01*
Y362252D01*
X129523Y361727D01*
X128473D01*
X127949Y362252D01*
Y362776D01*
X128473Y363301D01*
X127949Y363826D01*
Y364351D01*
X128473Y363301D02*
X129523D01*
X58200Y352675D02*
Y350576D01*
X59250Y349527D01*
X60299Y350576D01*
Y352675D01*
X61349Y352151D02*
X61873Y352675D01*
X62923D01*
X63448Y352151D01*
Y351626D01*
X62923Y351101D01*
X62398D01*
X62923D01*
X63448Y350576D01*
Y350052D01*
X62923Y349527D01*
X61873D01*
X61349Y350052D01*
X58200Y361475D02*
Y359376D01*
X59250Y358327D01*
X60299Y359376D01*
Y361475D01*
X63448Y358327D02*
X61349D01*
X63448Y360426D01*
Y360951D01*
X62923Y361475D01*
X61873D01*
X61349Y360951D01*
X58225Y323775D02*
Y321676D01*
X59275Y320627D01*
X60324Y321676D01*
Y323775D01*
X61374Y320627D02*
X62423D01*
X61898D01*
Y323775D01*
X61374Y323251D01*
X54871Y498033D02*
Y501183D01*
X60481Y501183D02*
X61268D01*
X60481Y498033D02*
X61268D01*
X54871Y451165D02*
Y454315D01*
X60481Y454315D02*
X61268D01*
X60481Y451165D02*
X61268D01*
X54871Y489433D02*
Y492583D01*
X60481Y492583D02*
X61268D01*
X60481Y489433D02*
X61268D01*
X52490Y522740D02*
Y538740D01*
X21290Y522740D02*
Y538740D01*
X29900Y512740D02*
X30700Y510940D01*
X21290Y522740D02*
X29000D01*
X44201Y522658D02*
X52490Y522740D01*
X88649Y445120D02*
X88059Y445710D01*
X86878D01*
X86287Y445120D01*
Y444529D01*
X86878Y443939D01*
X88059D01*
X88649Y443349D01*
Y442758D01*
X88059Y442168D01*
X86878D01*
X86287Y442758D01*
X89830Y445710D02*
Y442168D01*
X91601D01*
X92191Y442758D01*
Y445120D01*
X91601Y445710D01*
X89830D01*
X93372Y442168D02*
Y444529D01*
X94552Y445710D01*
X95733Y444529D01*
Y442168D01*
Y443939D01*
X93372D01*
X96914Y442168D02*
X99275Y444529D01*
X86287Y436028D02*
Y439570D01*
X88059D01*
X88649Y438979D01*
Y437799D01*
X88059Y437208D01*
X86287D01*
X89830Y439570D02*
Y436028D01*
X91601D01*
X92191Y436618D01*
Y437208D01*
X91601Y437799D01*
X89830D01*
X91601D01*
X92191Y438389D01*
Y438979D01*
X91601Y439570D01*
X89830D01*
X93372Y436618D02*
X93962Y436028D01*
X95143D01*
X95733Y436618D01*
Y438979D01*
X95143Y439570D01*
X93962D01*
X93372Y438979D01*
Y438389D01*
X93962Y437799D01*
X95733D01*
X55701Y432240D02*
X56750D01*
X56226D01*
Y435389D01*
X55701Y434864D01*
X81100Y440940D02*
Y444089D01*
X82674D01*
X83199Y443564D01*
Y442515D01*
X82674Y441990D01*
X81100D01*
X82149D02*
X83199Y440940D01*
X75850Y444089D02*
Y440940D01*
X77424D01*
X77949Y441465D01*
Y443564D01*
X77424Y444089D01*
X75850D01*
X67449Y443564D02*
X66924Y444089D01*
X65875D01*
X65350Y443564D01*
Y441465D01*
X65875Y440940D01*
X66924D01*
X67449Y441465D01*
X87200Y508089D02*
Y504940D01*
Y505990D01*
X89299Y508089D01*
X87725Y506515D01*
X89299Y504940D01*
X92448Y508089D02*
X90349D01*
Y504940D01*
X92448D01*
X90349Y506515D02*
X91398D01*
X93497Y508089D02*
X95596D01*
X94547D01*
Y504940D01*
X98745Y507564D02*
X98220Y508089D01*
X97171D01*
X96646Y507564D01*
Y505465D01*
X97171Y504940D01*
X98220D01*
X98745Y505465D01*
X99794Y507039D02*
Y505465D01*
X100319Y504940D01*
X101893D01*
Y507039D01*
X102943Y508089D02*
Y504940D01*
X104517D01*
X105042Y505465D01*
Y505990D01*
Y506515D01*
X104517Y507039D01*
X102943D01*
X107666Y504940D02*
X106616D01*
X106091Y505465D01*
Y506515D01*
X106616Y507039D01*
X107666D01*
X108191Y506515D01*
Y505990D01*
X106091D01*
X109240Y504416D02*
X111339D01*
X112389Y504940D02*
X113438D01*
X112914D01*
Y508089D01*
X112389Y507564D01*
X115013D02*
X115537Y508089D01*
X116587D01*
X117112Y507564D01*
Y507039D01*
X116587Y506515D01*
X117112Y505990D01*
Y505465D01*
X116587Y504940D01*
X115537D01*
X115013Y505465D01*
Y505990D01*
X115537Y506515D01*
X115013Y507039D01*
Y507564D01*
X115537Y506515D02*
X116587D01*
X118161Y507564D02*
X118686Y508089D01*
X119735D01*
X120260Y507564D01*
Y505465D01*
X119735Y504940D01*
X118686D01*
X118161Y505465D01*
Y507564D01*
X121310D02*
X121835Y508089D01*
X122884D01*
X123409Y507564D01*
Y507039D01*
X122884Y506515D01*
X123409Y505990D01*
Y505465D01*
X122884Y504940D01*
X121835D01*
X121310Y505465D01*
Y505990D01*
X121835Y506515D01*
X121310Y507039D01*
Y507564D01*
X121835Y506515D02*
X122884D01*
X129706Y508089D02*
X127607D01*
Y504940D01*
X129706D01*
X127607Y506515D02*
X128656D01*
X130755Y504940D02*
X131805D01*
X131280D01*
Y508089D01*
X130755Y507564D01*
X70600Y441808D02*
X73224D01*
X60000Y442708D02*
X62624D01*
X61312Y444020D02*
Y441396D01*
X42900Y421740D02*
Y425676D01*
X44868D01*
X45524Y425020D01*
Y423708D01*
X44868Y423052D01*
X42900D01*
X46836Y424364D02*
Y421740D01*
Y423052D01*
X47492Y423708D01*
X48148Y424364D01*
X48804D01*
X51427Y421740D02*
X52739D01*
X53395Y422396D01*
Y423708D01*
X52739Y424364D01*
X51427D01*
X50771Y423708D01*
Y422396D01*
X51427Y421740D01*
X56019Y420428D02*
X56675D01*
X57331Y421084D01*
Y424364D01*
X55363D01*
X54707Y423708D01*
Y422396D01*
X55363Y421740D01*
X57331D01*
X77561Y451592D02*
X76971Y452182D01*
X75790D01*
X75200Y451592D01*
Y451002D01*
X75790Y450411D01*
X76971D01*
X77561Y449821D01*
Y449231D01*
X76971Y448640D01*
X75790D01*
X75200Y449231D01*
X81104Y451592D02*
X80513Y452182D01*
X79333D01*
X78742Y451592D01*
Y449231D01*
X79333Y448640D01*
X80513D01*
X81104Y449231D01*
X82284Y452182D02*
Y448640D01*
X84646D01*
X85826Y450411D02*
X88188D01*
X89369Y448640D02*
Y452182D01*
X91140D01*
X91730Y451592D01*
Y450411D01*
X91140Y449821D01*
X89369D01*
X92911Y452182D02*
Y448640D01*
X94682D01*
X95272Y449231D01*
Y449821D01*
X94682Y450411D01*
X92911D01*
X94682D01*
X95272Y451002D01*
Y451592D01*
X94682Y452182D01*
X92911D01*
X96453Y451592D02*
X97043Y452182D01*
X98224D01*
X98814Y451592D01*
Y451002D01*
X98224Y450411D01*
X98814Y449821D01*
Y449231D01*
X98224Y448640D01*
X97043D01*
X96453Y449231D01*
Y449821D01*
X97043Y450411D01*
X96453Y451002D01*
Y451592D01*
X97043Y450411D02*
X98224D01*
X37787Y494696D02*
Y497844D01*
X39887Y494696D01*
Y497844D01*
X40936Y494696D02*
Y497844D01*
X42510D01*
X43035Y497320D01*
Y496270D01*
X42510Y495745D01*
X40936D01*
X41985D02*
X43035Y494696D01*
X46184Y497320D02*
X45659Y497844D01*
X44609D01*
X44085Y497320D01*
Y496795D01*
X44609Y496270D01*
X45659D01*
X46184Y495745D01*
Y495221D01*
X45659Y494696D01*
X44609D01*
X44085Y495221D01*
X47233Y497844D02*
X49332D01*
X48283D01*
Y494696D01*
X37787Y489028D02*
X39887Y491127D01*
X40936Y489028D02*
Y492176D01*
X42510D01*
X43035Y491651D01*
Y490602D01*
X42510Y490077D01*
X40936D01*
X44085Y489028D02*
Y491127D01*
X45134Y492176D01*
X46184Y491127D01*
Y489028D01*
Y490602D01*
X44085D01*
X49332Y492176D02*
X47233D01*
Y490602D01*
X48283Y491127D01*
X48807D01*
X49332Y490602D01*
Y489552D01*
X48807Y489028D01*
X47758D01*
X47233Y489552D01*
X36000Y483240D02*
Y485339D01*
X37049Y486389D01*
X38099Y485339D01*
Y483240D01*
Y484815D01*
X36000D01*
X39149Y483240D02*
Y486389D01*
X41248Y483240D01*
Y486389D01*
X42297Y484815D02*
X44396D01*
X45446Y483240D02*
Y486389D01*
X47020D01*
X47545Y485864D01*
Y484815D01*
X47020Y484290D01*
X45446D01*
X48594Y483240D02*
Y485339D01*
X49644Y486389D01*
X50693Y485339D01*
Y483240D01*
Y484815D01*
X48594D01*
X53317Y483240D02*
Y486389D01*
X51743Y484815D01*
X53842D01*
X22200Y475740D02*
Y478889D01*
X23774D01*
X24299Y478364D01*
Y477315D01*
X23774Y476790D01*
X22200D01*
X25349Y475740D02*
Y477839D01*
X26398Y478889D01*
X27448Y477839D01*
Y475740D01*
Y477315D01*
X25349D01*
X28497Y478364D02*
X29022Y478889D01*
X30071D01*
X30596Y478364D01*
Y476265D01*
X30071Y475740D01*
X29022D01*
X28497Y476265D01*
Y478364D01*
X37300Y505140D02*
Y508289D01*
X38874D01*
X39399Y507764D01*
Y506714D01*
X38874Y506190D01*
X37300D01*
X40449Y505140D02*
Y507239D01*
X41498Y508289D01*
X42548Y507239D01*
Y505140D01*
Y506714D01*
X40449D01*
X43597Y507764D02*
X44122Y508289D01*
X45171D01*
X45696Y507764D01*
Y507239D01*
X45171Y506714D01*
X45696Y506190D01*
Y505665D01*
X45171Y505140D01*
X44122D01*
X43597Y505665D01*
Y506190D01*
X44122Y506714D01*
X43597Y507239D01*
Y507764D01*
X44122Y506714D02*
X45171D01*
X46746Y505140D02*
X48845Y507239D01*
X49894Y508289D02*
Y506190D01*
X50944Y505140D01*
X51993Y506190D01*
Y508289D01*
X53043Y507239D02*
Y505140D01*
Y506190D01*
X53568Y506714D01*
X54093Y507239D01*
X54617D01*
X57766Y505140D02*
X56716D01*
X56191Y505665D01*
Y506714D01*
X56716Y507239D01*
X57766D01*
X58291Y506714D01*
Y506190D01*
X56191D01*
X59865Y505140D02*
Y507764D01*
Y506714D01*
X59340D01*
X60390D01*
X59865D01*
Y507764D01*
X60390Y508289D01*
X37300Y510640D02*
Y513789D01*
X38874D01*
X39399Y513264D01*
Y512215D01*
X38874Y511690D01*
X37300D01*
X40449Y510640D02*
Y512739D01*
X41498Y513789D01*
X42548Y512739D01*
Y510640D01*
Y512215D01*
X40449D01*
X43597Y511165D02*
X44122Y510640D01*
X45171D01*
X45696Y511165D01*
Y513264D01*
X45171Y513789D01*
X44122D01*
X43597Y513264D01*
Y512739D01*
X44122Y512215D01*
X45696D01*
X37300Y516140D02*
Y519289D01*
X38874D01*
X39399Y518764D01*
Y517715D01*
X38874Y517190D01*
X37300D01*
X40449Y516140D02*
Y518239D01*
X41498Y519289D01*
X42548Y518239D01*
Y516140D01*
Y517715D01*
X40449D01*
X43597Y516140D02*
X44647D01*
X44122D01*
Y519289D01*
X43597Y518764D01*
X46221D02*
X46746Y519289D01*
X47795D01*
X48320Y518764D01*
Y516665D01*
X47795Y516140D01*
X46746D01*
X46221Y516665D01*
Y518764D01*
X24361Y471692D02*
X23771Y472282D01*
X22590D01*
X22000Y471692D01*
Y469331D01*
X22590Y468740D01*
X23771D01*
X24361Y469331D01*
X27904Y471692D02*
X27313Y472282D01*
X26133D01*
X25542Y471692D01*
Y471102D01*
X26133Y470511D01*
X27313D01*
X27904Y469921D01*
Y469331D01*
X27313Y468740D01*
X26133D01*
X25542Y469331D01*
X29084Y470511D02*
X31446D01*
X32627Y468740D02*
Y472282D01*
X34398D01*
X34988Y471692D01*
Y470511D01*
X34398Y469921D01*
X32627D01*
X36169Y472282D02*
Y468740D01*
X37940D01*
X38530Y469331D01*
Y469921D01*
X37940Y470511D01*
X36169D01*
X37940D01*
X38530Y471102D01*
Y471692D01*
X37940Y472282D01*
X36169D01*
X39711Y468740D02*
X40892D01*
X40301D01*
Y472282D01*
X39711Y471692D01*
X45024Y468740D02*
X42663D01*
X45024Y471102D01*
Y471692D01*
X44434Y472282D01*
X43253D01*
X42663Y471692D01*
X24061Y461292D02*
X23471Y461882D01*
X22290D01*
X21700Y461292D01*
Y460702D01*
X22290Y460111D01*
X23471D01*
X24061Y459521D01*
Y458931D01*
X23471Y458340D01*
X22290D01*
X21700Y458931D01*
X27604Y461292D02*
X27013Y461882D01*
X25833D01*
X25242Y461292D01*
Y458931D01*
X25833Y458340D01*
X27013D01*
X27604Y458931D01*
X28784Y461882D02*
Y458340D01*
Y459521D01*
X31146Y461882D01*
X29375Y460111D01*
X31146Y458340D01*
X32326Y460111D02*
X34688D01*
X35869Y458340D02*
Y461882D01*
X37640D01*
X38230Y461292D01*
Y460111D01*
X37640Y459521D01*
X35869D01*
X39411Y461882D02*
Y458340D01*
X41182D01*
X41772Y458931D01*
Y459521D01*
X41182Y460111D01*
X39411D01*
X41182D01*
X41772Y460702D01*
Y461292D01*
X41182Y461882D01*
X39411D01*
X42953Y458340D02*
X44134D01*
X43543D01*
Y461882D01*
X42953Y461292D01*
X45905D02*
X46495Y461882D01*
X47676D01*
X48266Y461292D01*
Y460702D01*
X47676Y460111D01*
X47085D01*
X47676D01*
X48266Y459521D01*
Y458931D01*
X47676Y458340D01*
X46495D01*
X45905Y458931D01*
X21700Y438640D02*
Y442182D01*
X22881Y441002D01*
X24061Y442182D01*
Y438640D01*
X27013Y442182D02*
X25833D01*
X25242Y441592D01*
Y439231D01*
X25833Y438640D01*
X27013D01*
X27604Y439231D01*
Y441592D01*
X27013Y442182D01*
X31146Y441592D02*
X30555Y442182D01*
X29375D01*
X28784Y441592D01*
Y441002D01*
X29375Y440411D01*
X30555D01*
X31146Y439821D01*
Y439231D01*
X30555Y438640D01*
X29375D01*
X28784Y439231D01*
X32326Y442182D02*
X33507D01*
X32917D01*
Y438640D01*
X32326D01*
X33507D01*
X35278Y440411D02*
X37640D01*
X38820Y438640D02*
Y442182D01*
X40591D01*
X41182Y441592D01*
Y440411D01*
X40591Y439821D01*
X38820D01*
X42363Y442182D02*
Y438640D01*
X44134D01*
X44724Y439231D01*
Y439821D01*
X44134Y440411D01*
X42363D01*
X44134D01*
X44724Y441002D01*
Y441592D01*
X44134Y442182D01*
X42363D01*
X45905Y438640D02*
X47085D01*
X46495D01*
Y442182D01*
X45905Y441592D01*
X51218Y442182D02*
X48857D01*
Y440411D01*
X50037Y441002D01*
X50628D01*
X51218Y440411D01*
Y439231D01*
X50628Y438640D01*
X49447D01*
X48857Y439231D01*
X21700Y448540D02*
Y452082D01*
X22881Y450902D01*
X24061Y452082D01*
Y448540D01*
X25242Y452082D02*
X26423D01*
X25833D01*
Y448540D01*
X25242D01*
X26423D01*
X30555Y451492D02*
X29965Y452082D01*
X28784D01*
X28194Y451492D01*
Y450902D01*
X28784Y450311D01*
X29965D01*
X30555Y449721D01*
Y449131D01*
X29965Y448540D01*
X28784D01*
X28194Y449131D01*
X33507Y452082D02*
X32326D01*
X31736Y451492D01*
Y449131D01*
X32326Y448540D01*
X33507D01*
X34098Y449131D01*
Y451492D01*
X33507Y452082D01*
X35278Y450311D02*
X37640D01*
X38820Y448540D02*
Y452082D01*
X40591D01*
X41182Y451492D01*
Y450311D01*
X40591Y449721D01*
X38820D01*
X42363Y452082D02*
Y448540D01*
X44134D01*
X44724Y449131D01*
Y449721D01*
X44134Y450311D01*
X42363D01*
X44134D01*
X44724Y450902D01*
Y451492D01*
X44134Y452082D01*
X42363D01*
X45905Y448540D02*
X47085D01*
X46495D01*
Y452082D01*
X45905Y451492D01*
X50628Y448540D02*
Y452082D01*
X48857Y450311D01*
X51218D01*
X75790Y481783D02*
X76971D01*
X76381D01*
Y478241D01*
X75790D01*
X76971D01*
X78742D02*
Y481783D01*
X81104Y478241D01*
Y481783D01*
X82284D02*
X84646D01*
X83465D01*
Y478241D01*
X85826Y480012D02*
X88188D01*
X89369Y478241D02*
Y481783D01*
X91140D01*
X91730Y481193D01*
Y480012D01*
X91140Y479422D01*
X89369D01*
X92911Y481783D02*
Y478241D01*
X94682D01*
X95272Y478831D01*
Y479422D01*
X94682Y480012D01*
X92911D01*
X94682D01*
X95272Y480603D01*
Y481193D01*
X94682Y481783D01*
X92911D01*
X96453D02*
X98814D01*
Y481193D01*
X96453Y478831D01*
Y478241D01*
X75200Y488540D02*
Y492082D01*
X76971D01*
X77561Y491492D01*
Y490311D01*
X76971Y489721D01*
X75200D01*
X78742Y492082D02*
Y488540D01*
X79923Y489721D01*
X81104Y488540D01*
Y492082D01*
X82284Y488540D02*
Y492082D01*
X83465Y490902D01*
X84646Y492082D01*
Y488540D01*
X85826Y490311D02*
X88188D01*
X89369Y488540D02*
Y492082D01*
X91140D01*
X91730Y491492D01*
Y490311D01*
X91140Y489721D01*
X89369D01*
X92911Y492082D02*
Y488540D01*
X94682D01*
X95272Y489131D01*
Y489721D01*
X94682Y490311D01*
X92911D01*
X94682D01*
X95272Y490902D01*
Y491492D01*
X94682Y492082D01*
X92911D01*
X98814Y488540D02*
X96453D01*
X98814Y490902D01*
Y491492D01*
X98224Y492082D01*
X97043D01*
X96453Y491492D01*
X78842Y468240D02*
Y471782D01*
X80613D01*
X81204Y471192D01*
Y470011D01*
X80613Y469421D01*
X78842D01*
X80023D02*
X81204Y468240D01*
X82384Y471782D02*
X84746Y468240D01*
Y471782D02*
X82384Y468240D01*
X85927Y470011D02*
X88288D01*
X89469Y468240D02*
Y471782D01*
X91240D01*
X91830Y471192D01*
Y470011D01*
X91240Y469421D01*
X89469D01*
X93011Y468240D02*
Y470602D01*
X94191Y471782D01*
X95372Y470602D01*
Y468240D01*
Y470011D01*
X93011D01*
X96553Y471192D02*
X97143Y471782D01*
X98324D01*
X98914Y471192D01*
Y470602D01*
X98324Y470011D01*
X97734D01*
X98324D01*
X98914Y469421D01*
Y468831D01*
X98324Y468240D01*
X97143D01*
X96553Y468831D01*
X78742Y461982D02*
X81104D01*
X79923D01*
Y458440D01*
X82284Y461982D02*
X84646Y458440D01*
Y461982D02*
X82284Y458440D01*
X85826Y460211D02*
X88188D01*
X89369Y458440D02*
Y461982D01*
X91140D01*
X91730Y461392D01*
Y460211D01*
X91140Y459621D01*
X89369D01*
X92911Y458440D02*
Y460802D01*
X94091Y461982D01*
X95272Y460802D01*
Y458440D01*
Y460211D01*
X92911D01*
X98814Y458440D02*
X96453D01*
X98814Y460802D01*
Y461392D01*
X98224Y461982D01*
X97043D01*
X96453Y461392D01*
X90861Y424692D02*
X90271Y425282D01*
X89090D01*
X88500Y424692D01*
Y422331D01*
X89090Y421740D01*
X90271D01*
X90861Y422331D01*
Y423511D01*
X89681D01*
X92042Y421740D02*
Y425282D01*
X94404Y421740D01*
Y425282D01*
X95584D02*
Y421740D01*
X97355D01*
X97946Y422331D01*
Y424692D01*
X97355Y425282D01*
X95584D01*
X116861Y434782D02*
X114500D01*
Y433011D01*
X115681Y433602D01*
X116271D01*
X116861Y433011D01*
Y431831D01*
X116271Y431240D01*
X115090D01*
X114500Y431831D01*
X118042Y434782D02*
Y432421D01*
X119223Y431240D01*
X120404Y432421D01*
Y434782D01*
X21700Y431292D02*
X22290Y431882D01*
X23471D01*
X24061Y431292D01*
Y430702D01*
X23471Y430111D01*
X22881D01*
X23471D01*
X24061Y429521D01*
Y428931D01*
X23471Y428340D01*
X22290D01*
X21700Y428931D01*
X25242Y431882D02*
Y429521D01*
X26423Y428340D01*
X27604Y429521D01*
Y431882D01*
X28784Y431292D02*
X29375Y431882D01*
X30555D01*
X31146Y431292D01*
Y430702D01*
X30555Y430111D01*
X29965D01*
X30555D01*
X31146Y429521D01*
Y428931D01*
X30555Y428340D01*
X29375D01*
X28784Y428931D01*
X24061Y420692D02*
X23471Y421282D01*
X22290D01*
X21700Y420692D01*
Y418331D01*
X22290Y417740D01*
X23471D01*
X24061Y418331D01*
Y419511D01*
X22881D01*
X25242Y417740D02*
Y421282D01*
X27604Y417740D01*
Y421282D01*
X28784D02*
Y417740D01*
X30555D01*
X31146Y418331D01*
Y420692D01*
X30555Y421282D01*
X28784D01*
X93861Y431782D02*
X91500D01*
Y430011D01*
X92681Y430602D01*
X93271D01*
X93861Y430011D01*
Y428831D01*
X93271Y428240D01*
X92090D01*
X91500Y428831D01*
X95042Y431782D02*
Y429421D01*
X96223Y428240D01*
X97404Y429421D01*
Y431782D01*
X114861Y429192D02*
X114271Y429782D01*
X113090D01*
X112500Y429192D01*
Y426831D01*
X113090Y426240D01*
X114271D01*
X114861Y426831D01*
Y428011D01*
X113681D01*
X116042Y426240D02*
Y429782D01*
X118404Y426240D01*
Y429782D01*
X119584D02*
Y426240D01*
X121355D01*
X121946Y426831D01*
Y429192D01*
X121355Y429782D01*
X119584D01*
X79499Y498089D02*
X78449D01*
X78974D01*
Y495465D01*
X78449Y494940D01*
X77925D01*
X77400Y495465D01*
X80549Y494940D02*
X81598D01*
X81073D01*
Y498089D01*
X80549Y497564D01*
X83172D02*
X83697Y498089D01*
X84747D01*
X85272Y497564D01*
Y495465D01*
X84747Y494940D01*
X83697D01*
X83172Y495465D01*
Y497564D01*
X22351Y489471D02*
Y488421D01*
Y488946D01*
X24975D01*
X25500Y488421D01*
Y487896D01*
X24975Y487372D01*
Y490520D02*
X25500Y491045D01*
Y492095D01*
X24975Y492619D01*
X22876D01*
X22351Y492095D01*
Y491045D01*
X22876Y490520D01*
X23401D01*
X23926Y491045D01*
Y492619D01*
X66799Y478889D02*
X65750D01*
X66274D01*
Y476265D01*
X65750Y475740D01*
X65225D01*
X64700Y476265D01*
X67849Y478364D02*
X68373Y478889D01*
X69423D01*
X69948Y478364D01*
Y477839D01*
X69423Y477315D01*
X69948Y476790D01*
Y476265D01*
X69423Y475740D01*
X68373D01*
X67849Y476265D01*
Y476790D01*
X68373Y477315D01*
X67849Y477839D01*
Y478364D01*
X68373Y477315D02*
X69423D01*
X31699Y504089D02*
X30650D01*
X31174D01*
Y501465D01*
X30650Y500940D01*
X30125D01*
X29600Y501465D01*
X32749Y504089D02*
X34848D01*
Y503564D01*
X32749Y501465D01*
Y500940D01*
X31699Y509789D02*
X30650D01*
X31174D01*
Y507165D01*
X30650Y506640D01*
X30125D01*
X29600Y507165D01*
X32749Y506640D02*
X33798D01*
X33273D01*
Y509789D01*
X32749Y509264D01*
X97900Y500089D02*
Y496940D01*
Y498515D01*
X99999D01*
Y500089D01*
Y496940D01*
X103148Y500089D02*
X101049D01*
Y498515D01*
X102098Y499039D01*
X102623D01*
X103148Y498515D01*
Y497465D01*
X102623Y496940D01*
X101573D01*
X101049Y497465D01*
X22300Y426089D02*
Y422940D01*
Y424514D01*
X24399D01*
Y426089D01*
Y422940D01*
X27023D02*
Y426089D01*
X25449Y424514D01*
X27548D01*
X52400Y429289D02*
Y426140D01*
Y427714D01*
X54499D01*
Y429289D01*
Y426140D01*
X55549Y428764D02*
X56073Y429289D01*
X57123D01*
X57648Y428764D01*
Y428239D01*
X57123Y427714D01*
X56598D01*
X57123D01*
X57648Y427190D01*
Y426665D01*
X57123Y426140D01*
X56073D01*
X55549Y426665D01*
X99000Y522240D02*
X96901D01*
X95851Y523290D01*
X96901Y524339D01*
X99000D01*
X97426D01*
Y522240D01*
X99000Y525389D02*
X95851D01*
X99000Y527488D01*
X95851D01*
X99000Y528537D02*
Y529587D01*
Y529062D01*
X95851D01*
X96376Y528537D01*
X124800Y500289D02*
Y497140D01*
Y498714D01*
X126899D01*
Y500289D01*
Y497140D01*
X127949Y499764D02*
X128473Y500289D01*
X129523D01*
X130048Y499764D01*
Y499239D01*
X129523Y498714D01*
X130048Y498190D01*
Y497665D01*
X129523Y497140D01*
X128473D01*
X127949Y497665D01*
Y498190D01*
X128473Y498714D01*
X127949Y499239D01*
Y499764D01*
X128473Y498714D02*
X129523D01*
X58200Y488089D02*
Y485990D01*
X59250Y484940D01*
X60299Y485990D01*
Y488089D01*
X61349Y487564D02*
X61873Y488089D01*
X62923D01*
X63448Y487564D01*
Y487039D01*
X62923Y486515D01*
X62398D01*
X62923D01*
X63448Y485990D01*
Y485465D01*
X62923Y484940D01*
X61873D01*
X61349Y485465D01*
X58200Y496889D02*
Y494790D01*
X59250Y493740D01*
X60299Y494790D01*
Y496889D01*
X63448Y493740D02*
X61349D01*
X63448Y495839D01*
Y496364D01*
X62923Y496889D01*
X61873D01*
X61349Y496364D01*
X58225Y459189D02*
Y457090D01*
X59275Y456040D01*
X60324Y457090D01*
Y459189D01*
X61374Y456040D02*
X62423D01*
X61898D01*
Y459189D01*
X61374Y458664D01*
D17*
X125000Y18000D02*
Y89000D01*
X126000Y10000D02*
X135000D01*
Y89000D01*
X125000Y89000D02*
X135000Y89000D01*
X110000Y10000D02*
Y89000D01*
X100000Y89000D02*
X110000Y89000D01*
X100000Y10000D02*
X110000D01*
X100000D02*
Y89000D01*
X20000Y10000D02*
Y127800D01*
X11000Y10000D02*
X20000D01*
X11000Y127800D02*
X11000Y10000D01*
X92018Y131780D02*
X93987Y129811D01*
X69971Y118000D02*
X81782D01*
X93987Y106189D02*
Y129811D01*
X92018Y104220D02*
X93987Y106189D01*
X79026Y118000D02*
X81782Y115244D01*
X79026Y118000D02*
X81782Y120756D01*
X58553Y131780D02*
X92018D01*
X58553Y120953D02*
Y131780D01*
X54500Y120953D02*
X58553D01*
Y104220D02*
X92018D01*
X58553D02*
Y115047D01*
X54200D02*
X58553D01*
X121900Y84600D02*
X122900D01*
X122400D01*
Y87599D01*
X121900Y87099D01*
X111900Y82800D02*
X112900D01*
X112400D01*
Y85799D01*
X111900Y85299D01*
X19000Y129000D02*
X20000D01*
X19500D01*
Y131999D01*
X19000Y131499D01*
X125000Y153413D02*
Y224413D01*
X126000Y145413D02*
X135000D01*
Y224413D01*
X125000Y224413D02*
X135000Y224413D01*
X110000Y145413D02*
Y224413D01*
X100000Y224413D02*
X110000Y224413D01*
X100000Y145413D02*
X110000D01*
X100000D02*
Y224413D01*
X20000Y145413D02*
Y263213D01*
X11000Y145413D02*
X20000D01*
X11000Y263213D02*
X11000Y145413D01*
X92018Y267193D02*
X93987Y265224D01*
X69971Y253413D02*
X81782D01*
X93987Y241602D02*
Y265224D01*
X92018Y239634D02*
X93987Y241602D01*
X79026Y253413D02*
X81782Y250658D01*
X79026Y253413D02*
X81782Y256169D01*
X58553Y267193D02*
X92018D01*
X58553Y256366D02*
Y267193D01*
X54500Y256366D02*
X58553D01*
Y239634D02*
X92018D01*
X58553D02*
Y250461D01*
X54200D02*
X58553D01*
X121900Y220013D02*
X122900D01*
X122400D01*
Y223012D01*
X121900Y222513D01*
X111900Y218213D02*
X112900D01*
X112400D01*
Y221212D01*
X111900Y220713D01*
X19000Y264413D02*
X20000D01*
X19500D01*
Y267412D01*
X19000Y266913D01*
X125000Y288827D02*
Y359827D01*
X126000Y280827D02*
X135000D01*
Y359827D01*
X125000Y359826D02*
X135000Y359827D01*
X110000Y280827D02*
Y359827D01*
X100000Y359826D02*
X110000Y359827D01*
X100000Y280827D02*
X110000D01*
X100000D02*
Y359827D01*
X20000Y280827D02*
Y398627D01*
X11000Y280827D02*
X20000D01*
X11000Y398627D02*
X11000Y280827D01*
X92018Y402606D02*
X93987Y400638D01*
X69971Y388827D02*
X81782D01*
X93987Y377016D02*
Y400638D01*
X92018Y375047D02*
X93987Y377016D01*
X79026Y388827D02*
X81782Y386071D01*
X79026Y388827D02*
X81782Y391583D01*
X58553Y402606D02*
X92018D01*
X58553Y391780D02*
Y402606D01*
X54500Y391780D02*
X58553D01*
Y375047D02*
X92018D01*
X58553D02*
Y385874D01*
X54200D02*
X58553D01*
X121900Y355427D02*
X122900D01*
X122400D01*
Y358426D01*
X121900Y357926D01*
X111900Y353627D02*
X112900D01*
X112400D01*
Y356626D01*
X111900Y356126D01*
X19000Y399827D02*
X20000D01*
X19500D01*
Y402826D01*
X19000Y402326D01*
X125000Y424240D02*
Y495240D01*
X126000Y416240D02*
X135000D01*
Y495240D01*
X125000Y495240D02*
X135000Y495240D01*
X110000Y416240D02*
Y495240D01*
X100000Y495240D02*
X110000Y495240D01*
X100000Y416240D02*
X110000D01*
X100000D02*
Y495240D01*
X20000Y416240D02*
Y534040D01*
X11000Y416240D02*
X20000D01*
X11000Y534040D02*
X11000Y416240D01*
X92018Y538020D02*
X93987Y536051D01*
X69971Y524240D02*
X81782D01*
X93987Y512429D02*
Y536051D01*
X92018Y510461D02*
X93987Y512429D01*
X79026Y524240D02*
X81782Y521484D01*
X79026Y524240D02*
X81782Y526996D01*
X58553Y538020D02*
X92018D01*
X58553Y527193D02*
Y538020D01*
X54500Y527193D02*
X58553D01*
Y510461D02*
X92018D01*
X58553D02*
Y521287D01*
X54200D02*
X58553D01*
X121900Y490840D02*
X122900D01*
X122400D01*
Y493839D01*
X121900Y493339D01*
X111900Y489040D02*
X112900D01*
X112400D01*
Y492039D01*
X111900Y491539D01*
X19000Y535240D02*
X20000D01*
X19500D01*
Y538239D01*
X19000Y537739D01*
D51*
X85000Y10000D02*
Y33200D01*
X58900D02*
X85000D01*
X58900Y10000D02*
X85000D01*
X58900D02*
Y33200D01*
X32756Y75020D02*
Y89980D01*
X27244Y75020D02*
X32756D01*
X27244D02*
Y89980D01*
X32756D01*
X73500Y93500D02*
X83900D01*
Y98300D01*
X73500D02*
X83900D01*
X73500Y93500D02*
Y98300D01*
X23500Y104800D02*
Y115200D01*
Y104800D02*
X28300D01*
Y115200D01*
X23500D02*
X28300D01*
X23500Y93100D02*
X28300D01*
X23500D02*
Y103500D01*
X28300D01*
Y93100D02*
Y103500D01*
X62400Y63100D02*
X72800D01*
Y67900D01*
X62400D02*
X72800D01*
X62400Y63100D02*
Y67900D01*
X85000Y145413D02*
Y168613D01*
X58900D02*
X85000D01*
X58900Y145413D02*
X85000D01*
X58900D02*
Y168613D01*
X32756Y210433D02*
Y225394D01*
X27244Y210433D02*
X32756D01*
X27244D02*
Y225394D01*
X32756D01*
X73500Y228913D02*
X83900D01*
Y233713D01*
X73500D02*
X83900D01*
X73500Y228913D02*
Y233713D01*
X23500Y240213D02*
Y250613D01*
Y240213D02*
X28300D01*
Y250613D01*
X23500D02*
X28300D01*
X23500Y228513D02*
X28300D01*
X23500D02*
Y238913D01*
X28300D01*
Y228513D02*
Y238913D01*
X62400Y198513D02*
X72800D01*
Y203313D01*
X62400D02*
X72800D01*
X62400Y198513D02*
Y203313D01*
X85000Y280827D02*
Y304027D01*
X58900D02*
X85000D01*
X58900Y280827D02*
X85000D01*
X58900D02*
Y304027D01*
X32756Y345847D02*
Y360807D01*
X27244Y345847D02*
X32756D01*
X27244D02*
Y360807D01*
X32756D01*
X73500Y364327D02*
X83900D01*
Y369127D01*
X73500D02*
X83900D01*
X73500Y364327D02*
Y369127D01*
X23500Y375627D02*
Y386027D01*
Y375627D02*
X28300D01*
Y386027D01*
X23500D02*
X28300D01*
X23500Y363927D02*
X28300D01*
X23500D02*
Y374327D01*
X28300D01*
Y363927D02*
Y374327D01*
X62400Y333927D02*
X72800D01*
Y338727D01*
X62400D02*
X72800D01*
X62400Y333927D02*
Y338727D01*
X85000Y416240D02*
Y439440D01*
X58900D02*
X85000D01*
X58900Y416240D02*
X85000D01*
X58900D02*
Y439440D01*
X32756Y481260D02*
Y496221D01*
X27244Y481260D02*
X32756D01*
X27244D02*
Y496221D01*
X32756D01*
X73500Y499740D02*
X83900D01*
Y504540D01*
X73500D02*
X83900D01*
X73500Y499740D02*
Y504540D01*
X23500Y511040D02*
Y521440D01*
Y511040D02*
X28300D01*
Y521440D01*
X23500D02*
X28300D01*
X23500Y499340D02*
X28300D01*
X23500D02*
Y509740D01*
X28300D01*
Y499340D02*
Y509740D01*
X62400Y469340D02*
X72800D01*
Y474140D01*
X62400D02*
X72800D01*
X62400Y469340D02*
Y474140D01*
M02*
