%TF.GenerationSoftware,Altium Limited,Altium Designer,18.1.6 (161)*%
G04 Layer_Color=32896*
%FSLAX26Y26*%
%MOIN*%
%TF.FileFunction,Legend,Bot*%
%TF.Part,Single*%
G01*
G75*
%TA.AperFunction,NonConductor*%
%ADD23C,0.007874*%
%ADD52C,0.009842*%
%ADD53C,0.005906*%
%ADD54C,0.008000*%
%ADD55C,0.005000*%
G36*
X811000Y1170098D02*
X798110D01*
Y1226482D01*
X747138D01*
X745859Y1226383D01*
X744777Y1226186D01*
X743793Y1225891D01*
X743006Y1225498D01*
X742317Y1225006D01*
X741726Y1224514D01*
X741234Y1223923D01*
X740841Y1223333D01*
X740349Y1222152D01*
X740054Y1221168D01*
X739955Y1220774D01*
Y1220479D01*
Y1220282D01*
Y1220184D01*
Y1216445D01*
X740054Y1215461D01*
X740250Y1214575D01*
X740644Y1213788D01*
X741038Y1213198D01*
X741628Y1212607D01*
X742218Y1212115D01*
X743498Y1211426D01*
X744875Y1211033D01*
X746056Y1210836D01*
X746450Y1210738D01*
X794174D01*
Y1198044D01*
X747138D01*
X746056Y1197946D01*
X745170Y1197847D01*
X744285Y1197552D01*
X743596Y1197355D01*
X742907Y1197060D01*
X742514Y1196765D01*
X742218Y1196666D01*
X742120Y1196568D01*
X741431Y1195978D01*
X740841Y1195289D01*
X740447Y1194600D01*
X740250Y1193911D01*
X740054Y1193321D01*
X739955Y1192829D01*
Y1192435D01*
Y1192337D01*
Y1170098D01*
X726966D01*
Y1192435D01*
X727065Y1193616D01*
X727163Y1194895D01*
X727754Y1197060D01*
X728541Y1199126D01*
X729525Y1200898D01*
X730509Y1202374D01*
X730902Y1202964D01*
X731296Y1203456D01*
X731591Y1203948D01*
X731886Y1204243D01*
X731985Y1204342D01*
X732083Y1204440D01*
X731198Y1205424D01*
X730410Y1206506D01*
X729722Y1207490D01*
X729131Y1208573D01*
X728246Y1210639D01*
X727557Y1212509D01*
X727262Y1214083D01*
X727163Y1214772D01*
X727065Y1215362D01*
X726966Y1215854D01*
Y1216248D01*
Y1216445D01*
Y1216543D01*
Y1220184D01*
X727065Y1221660D01*
X727262Y1223136D01*
X727557Y1224415D01*
X727852Y1225694D01*
X728836Y1228056D01*
X729918Y1229926D01*
X730509Y1230811D01*
X731001Y1231500D01*
X731493Y1232090D01*
X731985Y1232582D01*
X732280Y1233074D01*
X732575Y1233370D01*
X732772Y1233468D01*
X732870Y1233566D01*
X733953Y1234452D01*
X735134Y1235338D01*
X736314Y1236026D01*
X737594Y1236617D01*
X739955Y1237502D01*
X742218Y1238093D01*
X743202Y1238388D01*
X744186Y1238486D01*
X744974Y1238585D01*
X745761Y1238683D01*
X746351Y1238782D01*
X811000D01*
Y1170098D01*
D02*
G37*
G36*
X717618D02*
X704630D01*
Y1238880D01*
X717618D01*
Y1170098D01*
D02*
G37*
G36*
X677865Y1238782D02*
X679242Y1238683D01*
X681899Y1237994D01*
X684261Y1237109D01*
X686327Y1236125D01*
X687213Y1235633D01*
X688000Y1235141D01*
X688689Y1234649D01*
X689279Y1234255D01*
X689771Y1233862D01*
X690066Y1233566D01*
X690263Y1233468D01*
X690362Y1233370D01*
X691444Y1232287D01*
X692330Y1231303D01*
X693215Y1230122D01*
X693904Y1229040D01*
X694494Y1227958D01*
X694986Y1226875D01*
X695675Y1224809D01*
X696167Y1223038D01*
X696266Y1222250D01*
X696364Y1221562D01*
X696462Y1221070D01*
Y1220578D01*
Y1220381D01*
Y1220282D01*
Y1188598D01*
X696364Y1187122D01*
X696167Y1185646D01*
X695872Y1184366D01*
X695577Y1183087D01*
X694593Y1180824D01*
X693510Y1178856D01*
X692920Y1178069D01*
X692428Y1177282D01*
X691936Y1176691D01*
X691444Y1176199D01*
X691149Y1175707D01*
X690854Y1175412D01*
X690657Y1175314D01*
X690558Y1175215D01*
X689378Y1174330D01*
X688295Y1173542D01*
X687016Y1172854D01*
X685835Y1172263D01*
X683474Y1171378D01*
X681210Y1170787D01*
X680226Y1170492D01*
X679341Y1170394D01*
X678455Y1170295D01*
X677766Y1170197D01*
X677176Y1170098D01*
X615873D01*
Y1182497D01*
X676389D01*
X677668Y1182595D01*
X678750Y1182792D01*
X679636Y1183087D01*
X680522Y1183481D01*
X681210Y1183874D01*
X681702Y1184465D01*
X682194Y1184957D01*
X682588Y1185547D01*
X683080Y1186630D01*
X683375Y1187614D01*
Y1188007D01*
X683474Y1188302D01*
Y1188499D01*
Y1188598D01*
Y1220282D01*
X683375Y1221168D01*
X683178Y1221955D01*
X682785Y1222742D01*
X682391Y1223333D01*
X681998Y1223923D01*
X681604Y1224317D01*
X681407Y1224514D01*
X681309Y1224612D01*
X680423Y1225301D01*
X679538Y1225793D01*
X678750Y1226088D01*
X677963Y1226383D01*
X677373Y1226482D01*
X676881Y1226580D01*
X615873D01*
Y1238880D01*
X676389D01*
X677865Y1238782D01*
D02*
G37*
G36*
X590387D02*
X591765Y1238683D01*
X594422Y1237994D01*
X596783Y1237109D01*
X598850Y1236125D01*
X599735Y1235633D01*
X600522Y1235141D01*
X601211Y1234649D01*
X601802Y1234255D01*
X602294Y1233862D01*
X602589Y1233566D01*
X602786Y1233468D01*
X602884Y1233370D01*
X603966Y1232287D01*
X604852Y1231303D01*
X605738Y1230122D01*
X606426Y1229040D01*
X607017Y1227958D01*
X607509Y1226875D01*
X608198Y1224809D01*
X608690Y1223038D01*
X608788Y1222250D01*
X608886Y1221562D01*
X608985Y1221070D01*
Y1220578D01*
Y1220381D01*
Y1220282D01*
Y1188598D01*
X608886Y1187122D01*
X608690Y1185646D01*
X608394Y1184366D01*
X608099Y1183087D01*
X607115Y1180824D01*
X606033Y1178856D01*
X605442Y1178069D01*
X604950Y1177282D01*
X604458Y1176691D01*
X603966Y1176199D01*
X603671Y1175707D01*
X603376Y1175412D01*
X603179Y1175314D01*
X603081Y1175215D01*
X601900Y1174330D01*
X600818Y1173542D01*
X599538Y1172854D01*
X598358Y1172263D01*
X595996Y1171378D01*
X593733Y1170787D01*
X592749Y1170492D01*
X591863Y1170394D01*
X590978Y1170295D01*
X590289Y1170197D01*
X589698Y1170098D01*
X528395D01*
Y1182497D01*
X588911D01*
X590190Y1182595D01*
X591273Y1182792D01*
X592158Y1183087D01*
X593044Y1183481D01*
X593733Y1183874D01*
X594225Y1184465D01*
X594717Y1184957D01*
X595110Y1185547D01*
X595602Y1186630D01*
X595898Y1187614D01*
Y1188007D01*
X595996Y1188302D01*
Y1188499D01*
Y1188598D01*
Y1198142D01*
X528395D01*
Y1210836D01*
X595996D01*
Y1220282D01*
X595898Y1221168D01*
X595701Y1221955D01*
X595307Y1222742D01*
X594914Y1223333D01*
X594520Y1223923D01*
X594126Y1224317D01*
X593930Y1224514D01*
X593831Y1224612D01*
X592946Y1225301D01*
X592060Y1225793D01*
X591273Y1226088D01*
X590486Y1226383D01*
X589895Y1226482D01*
X589403Y1226580D01*
X528395D01*
Y1238880D01*
X588911D01*
X590387Y1238782D01*
D02*
G37*
D23*
X1120000Y965000D02*
X1130945Y965000D01*
X1130945Y965000D01*
X1249055Y915000D02*
Y965000D01*
X1130945Y915000D02*
Y965000D01*
X425000Y1075000D02*
Y1235000D01*
X113000Y1075000D02*
Y1235000D01*
X316000Y258000D02*
X323000Y247000D01*
X355000Y344000D02*
X381000Y345000D01*
X324000Y1074000D02*
X425000Y1075000D01*
X113000D02*
X204000Y1074000D01*
X829126Y595360D02*
Y574369D01*
X818631Y563874D01*
X808135Y574369D01*
Y595360D01*
X797640D02*
Y563874D01*
X781897D01*
X776649Y569122D01*
Y590112D01*
X781897Y595360D01*
X797640D01*
X766154D02*
Y563874D01*
X750411D01*
X745164Y569122D01*
Y590112D01*
X750411Y595360D01*
X766154D01*
X808000Y242000D02*
Y273486D01*
X792257D01*
X787009Y268238D01*
Y257743D01*
X792257Y252495D01*
X808000D01*
X797505D02*
X787009Y242000D01*
X776514Y247248D02*
X771266Y242000D01*
X760771D01*
X755524Y247248D01*
Y268238D01*
X760771Y273486D01*
X771266D01*
X776514Y268238D01*
Y262991D01*
X771266Y257743D01*
X755524D01*
X1104486Y934000D02*
Y944495D01*
Y939248D01*
X1073000D01*
Y934000D01*
Y944495D01*
X1099238Y981229D02*
X1104486Y975981D01*
Y965486D01*
X1099238Y960238D01*
X1078248D01*
X1073000Y965486D01*
Y975981D01*
X1078248Y981229D01*
X1099238Y991724D02*
X1104486Y996972D01*
Y1007467D01*
X1099238Y1012715D01*
X1093991D01*
X1088743Y1007467D01*
Y1002220D01*
Y1007467D01*
X1083495Y1012715D01*
X1078248D01*
X1073000Y1007467D01*
Y996972D01*
X1078248Y991724D01*
X162000Y401486D02*
X151505D01*
X156752D01*
Y370000D01*
X162000D01*
X151505D01*
X114771Y396238D02*
X120019Y401486D01*
X130514D01*
X135762Y396238D01*
Y375248D01*
X130514Y370000D01*
X120019D01*
X114771Y375248D01*
X83285Y370000D02*
X104276D01*
X83285Y390991D01*
Y396238D01*
X88533Y401486D01*
X99028D01*
X104276Y396238D01*
X250000Y81486D02*
Y60495D01*
X239505Y50000D01*
X229009Y60495D01*
Y81486D01*
X202771Y50000D02*
Y81486D01*
X218514Y65743D01*
X197524D01*
X896000Y1105486D02*
Y1074000D01*
Y1089743D01*
X875009D01*
Y1105486D01*
Y1074000D01*
X864514Y1105486D02*
X843524D01*
Y1100238D01*
X864514Y1079248D01*
Y1074000D01*
X493000Y1116486D02*
Y1085000D01*
Y1100743D01*
X472009D01*
Y1116486D01*
Y1085000D01*
X440524D02*
X461514D01*
X440524Y1105991D01*
Y1111238D01*
X445771Y1116486D01*
X456266D01*
X461514Y1111238D01*
X392000Y1052486D02*
Y1021000D01*
Y1036743D01*
X371009D01*
Y1052486D01*
Y1021000D01*
X360514D02*
X350019D01*
X355266D01*
Y1052486D01*
X360514Y1047238D01*
X423009Y209238D02*
X428257Y214486D01*
X438752D01*
X444000Y209238D01*
Y188248D01*
X438752Y183000D01*
X428257D01*
X423009Y188248D01*
X396771Y183000D02*
Y214486D01*
X412514Y198743D01*
X391524D01*
X116238Y992991D02*
X121486Y987743D01*
Y977248D01*
X116238Y972000D01*
X95248D01*
X90000Y977248D01*
Y987743D01*
X95248Y992991D01*
Y1003486D02*
X90000Y1008734D01*
Y1019229D01*
X95248Y1024476D01*
X116238D01*
X121486Y1019229D01*
Y1008734D01*
X116238Y1003486D01*
X110991D01*
X105743Y1008734D01*
Y1024476D01*
X884009Y221486D02*
X894505D01*
X889257D01*
Y195248D01*
X894505Y190000D01*
X899752D01*
X905000Y195248D01*
X857771Y190000D02*
Y221486D01*
X873514Y205743D01*
X852524D01*
X912009Y825486D02*
X922505D01*
X917257D01*
Y799248D01*
X922505Y794000D01*
X927752D01*
X933000Y799248D01*
X880524Y825486D02*
X901514D01*
Y809743D01*
X891019Y814991D01*
X885771D01*
X880524Y809743D01*
Y799248D01*
X885771Y794000D01*
X896266D01*
X901514Y799248D01*
X996009Y1004486D02*
X1006505D01*
X1001257D01*
Y978248D01*
X1006505Y973000D01*
X1011752D01*
X1017000Y978248D01*
X964524Y1004486D02*
X975019Y999238D01*
X985514Y988743D01*
Y978248D01*
X980266Y973000D01*
X969771D01*
X964524Y978248D01*
Y983495D01*
X969771Y988743D01*
X985514D01*
X792918Y947874D02*
X824404D01*
Y963617D01*
X819157Y968865D01*
X808661D01*
X803414Y963617D01*
Y947874D01*
Y958369D02*
X792918Y968865D01*
X824404Y979360D02*
Y1000351D01*
X819157D01*
X798166Y979360D01*
X792918D01*
X843874Y946874D02*
X875360D01*
Y962617D01*
X870112Y967865D01*
X859617D01*
X854369Y962617D01*
Y946874D01*
Y957369D02*
X843874Y967865D01*
X870112Y978360D02*
X875360Y983608D01*
Y994103D01*
X870112Y999351D01*
X864865D01*
X859617Y994103D01*
X854369Y999351D01*
X849122D01*
X843874Y994103D01*
Y983608D01*
X849122Y978360D01*
X854369D01*
X859617Y983608D01*
X864865Y978360D01*
X870112D01*
X859617Y983608D02*
Y994103D01*
X711009Y462486D02*
X721505D01*
X716257D01*
Y436248D01*
X721505Y431000D01*
X726752D01*
X732000Y436248D01*
X700514Y457238D02*
X695266Y462486D01*
X684771D01*
X679524Y457238D01*
Y451991D01*
X684771Y446743D01*
X690019D01*
X684771D01*
X679524Y441495D01*
Y436248D01*
X684771Y431000D01*
X695266D01*
X700514Y436248D01*
X256000Y406000D02*
Y437486D01*
X240257D01*
X235009Y432238D01*
Y421743D01*
X240257Y416495D01*
X256000D01*
X245505D02*
X235009Y406000D01*
X224514Y432238D02*
X219266Y437486D01*
X208771D01*
X203524Y432238D01*
Y426991D01*
X208771Y421743D01*
X214019D01*
X208771D01*
X203524Y416495D01*
Y411248D01*
X208771Y406000D01*
X219266D01*
X224514Y411248D01*
X276009Y161238D02*
X281257Y166486D01*
X291752D01*
X297000Y161238D01*
Y140248D01*
X291752Y135000D01*
X281257D01*
X276009Y140248D01*
X265514Y161238D02*
X260266Y166486D01*
X249771D01*
X244524Y161238D01*
Y155991D01*
X249771Y150743D01*
X244524Y145495D01*
Y140248D01*
X249771Y135000D01*
X260266D01*
X265514Y140248D01*
Y145495D01*
X260266Y150743D01*
X265514Y155991D01*
Y161238D01*
X260266Y150743D02*
X249771D01*
X352009Y233238D02*
X357257Y238486D01*
X367752D01*
X373000Y233238D01*
Y212248D01*
X367752Y207000D01*
X357257D01*
X352009Y212248D01*
X341514Y238486D02*
X320524D01*
Y233238D01*
X341514Y212248D01*
Y207000D01*
X704009Y361238D02*
X709257Y366486D01*
X719752D01*
X725000Y361238D01*
Y340248D01*
X719752Y335000D01*
X709257D01*
X704009Y340248D01*
X672524Y335000D02*
X693514D01*
X672524Y355991D01*
Y361238D01*
X677771Y366486D01*
X688266D01*
X693514Y361238D01*
X698009Y410238D02*
X703257Y415486D01*
X713752D01*
X719000Y410238D01*
Y389248D01*
X713752Y384000D01*
X703257D01*
X698009Y389248D01*
X687514Y410238D02*
X682266Y415486D01*
X671771D01*
X666524Y410238D01*
Y404991D01*
X671771Y399743D01*
X677019D01*
X671771D01*
X666524Y394495D01*
Y389248D01*
X671771Y384000D01*
X682266D01*
X687514Y389248D01*
X338238Y313991D02*
X343486Y308743D01*
Y298248D01*
X338238Y293000D01*
X317248D01*
X312000Y298248D01*
Y308743D01*
X317248Y313991D01*
X343486Y345476D02*
Y324486D01*
X327743D01*
X332991Y334981D01*
Y340229D01*
X327743Y345476D01*
X317248D01*
X312000Y340229D01*
Y329734D01*
X317248Y324486D01*
X361009Y436238D02*
X366257Y441486D01*
X376752D01*
X382000Y436238D01*
Y415248D01*
X376752Y410000D01*
X366257D01*
X361009Y415248D01*
X329524Y441486D02*
X340019Y436238D01*
X350514Y425743D01*
Y415248D01*
X345266Y410000D01*
X334771D01*
X329524Y415248D01*
Y420495D01*
X334771Y425743D01*
X350514D01*
X740000Y844291D02*
Y875777D01*
X724257D01*
X719009Y870530D01*
Y860034D01*
X724257Y854787D01*
X740000D01*
X729505D02*
X719009Y844291D01*
X708514D02*
X698019D01*
X703266D01*
Y875777D01*
X708514Y870530D01*
X740000Y940000D02*
Y971486D01*
X724257D01*
X719009Y966238D01*
Y955743D01*
X724257Y950495D01*
X740000D01*
X729505D02*
X719009Y940000D01*
X687524D02*
X708514D01*
X687524Y960991D01*
Y966238D01*
X692771Y971486D01*
X703266D01*
X708514Y966238D01*
X740000Y894189D02*
Y925675D01*
X724257D01*
X719009Y920427D01*
Y909932D01*
X724257Y904684D01*
X740000D01*
X729505D02*
X719009Y894189D01*
X692771D02*
Y925675D01*
X708514Y909932D01*
X687524D01*
X494732Y252982D02*
X505228D01*
X499980D01*
Y226744D01*
X505228Y221496D01*
X510475D01*
X515723Y226744D01*
X463247Y221496D02*
X484237D01*
X463247Y242487D01*
Y247734D01*
X468494Y252982D01*
X478989D01*
X484237Y247734D01*
X1116009Y788238D02*
X1121257Y793486D01*
X1131752D01*
X1137000Y788238D01*
Y767248D01*
X1131752Y762000D01*
X1121257D01*
X1116009Y767248D01*
X1105514Y762000D02*
X1095019D01*
X1100266D01*
Y793486D01*
X1105514Y788238D01*
X876000Y53486D02*
Y22000D01*
Y32495D01*
X855009Y53486D01*
X870752Y37743D01*
X855009Y22000D01*
X823524Y53486D02*
X844514D01*
Y22000D01*
X823524D01*
X844514Y37743D02*
X834019D01*
X813028Y53486D02*
X792038D01*
X802533D01*
Y22000D01*
X760552Y48238D02*
X765799Y53486D01*
X776295D01*
X781542Y48238D01*
Y27248D01*
X776295Y22000D01*
X765799D01*
X760552Y27248D01*
X750056Y42991D02*
Y27248D01*
X744809Y22000D01*
X729066D01*
Y42991D01*
X718571Y53486D02*
Y22000D01*
X702827D01*
X697580Y27248D01*
Y32495D01*
Y37743D01*
X702827Y42991D01*
X718571D01*
X671342Y22000D02*
X681837D01*
X687085Y27248D01*
Y37743D01*
X681837Y42991D01*
X671342D01*
X666094Y37743D01*
Y32495D01*
X687085D01*
X655599Y16752D02*
X634608D01*
X624113Y22000D02*
X613617D01*
X618865D01*
Y53486D01*
X624113Y48238D01*
X597875D02*
X592627Y53486D01*
X582131D01*
X576884Y48238D01*
Y42991D01*
X582131Y37743D01*
X576884Y32495D01*
Y27248D01*
X582131Y22000D01*
X592627D01*
X597875Y27248D01*
Y32495D01*
X592627Y37743D01*
X597875Y42991D01*
Y48238D01*
X592627Y37743D02*
X582131D01*
X566389Y48238D02*
X561141Y53486D01*
X550646D01*
X545398Y48238D01*
Y27248D01*
X550646Y22000D01*
X561141D01*
X566389Y27248D01*
Y48238D01*
X513912Y53486D02*
X534903D01*
Y37743D01*
X524407Y42991D01*
X519160D01*
X513912Y37743D01*
Y27248D01*
X519160Y22000D01*
X529655D01*
X534903Y27248D01*
X450940Y48238D02*
X456188Y53486D01*
X466683D01*
X471931Y48238D01*
Y27248D01*
X466683Y22000D01*
X456188D01*
X450940Y27248D01*
X440445Y22000D02*
X429950D01*
X435197D01*
Y53486D01*
X440445Y48238D01*
X860622Y540486D02*
X839631D01*
X850127D01*
Y509000D01*
X808146Y535238D02*
X813393Y540486D01*
X823889D01*
X829136Y535238D01*
Y514248D01*
X823889Y509000D01*
X813393D01*
X808146Y514248D01*
X797650Y540486D02*
X776660Y509000D01*
Y540486D02*
X797650Y509000D01*
X750422Y540486D02*
X760917D01*
X766165Y535238D01*
Y514248D01*
X760917Y509000D01*
X750422D01*
X745174Y514248D01*
Y535238D01*
X750422Y540486D01*
X847000Y454000D02*
Y485486D01*
X831257D01*
X826009Y480238D01*
Y469743D01*
X831257Y464495D01*
X847000D01*
X815514Y454000D02*
Y474991D01*
X805019Y485486D01*
X794524Y474991D01*
Y454000D01*
Y469743D01*
X815514D01*
X784028Y454000D02*
X773533D01*
X778780D01*
Y485486D01*
X784028Y480238D01*
X736799Y454000D02*
X757790D01*
X736799Y474991D01*
Y480238D01*
X742047Y485486D01*
X752542D01*
X757790Y480238D01*
X830000Y647238D02*
X824752Y652486D01*
X814257D01*
X809009Y647238D01*
Y641991D01*
X814257Y636743D01*
X819505D01*
X814257D01*
X809009Y631495D01*
Y626248D01*
X814257Y621000D01*
X824752D01*
X830000Y626248D01*
X798514Y652486D02*
Y631495D01*
X788019Y621000D01*
X777524Y631495D01*
Y652486D01*
X767028Y647238D02*
X761780Y652486D01*
X751285D01*
X746038Y647238D01*
Y641991D01*
X751285Y636743D01*
X756533D01*
X751285D01*
X746038Y631495D01*
Y626248D01*
X751285Y621000D01*
X761780D01*
X767028Y626248D01*
D52*
X301415Y434840D02*
G03*
X301415Y434840I-4921J0D01*
G01*
X164604Y749801D02*
G03*
X164604Y749801I-4921J0D01*
G01*
X394919Y967320D02*
G03*
X394919Y967320I-4921J0D01*
G01*
X659683Y718304D02*
G03*
X659683Y718304I-4921J0D01*
G01*
D53*
X176415Y454525D02*
Y950588D01*
X637045D01*
Y454525D02*
Y950588D01*
X176415Y454525D02*
X637045D01*
X605549D02*
X637045Y492911D01*
X798000Y126000D02*
X902000D01*
X798000D02*
Y174000D01*
X902000D01*
Y126000D02*
Y174000D01*
X938977Y829873D02*
Y877873D01*
Y829873D02*
X1042977D01*
Y877873D01*
X938977D02*
X1042977D01*
X938000Y954000D02*
X1042000D01*
Y906000D02*
Y954000D01*
X938000Y906000D02*
X1042000D01*
X938000D02*
Y954000D01*
X672441Y475197D02*
X727559D01*
X672441D02*
Y624803D01*
X727559D01*
Y475197D02*
Y624803D01*
X622000Y256000D02*
Y304000D01*
X518000D02*
X622000D01*
X518000Y256000D02*
Y304000D01*
Y256000D02*
X622000D01*
D54*
X693000Y263000D02*
X707000D01*
Y297000D01*
X693000D02*
X707000D01*
X693000Y263000D02*
Y297000D01*
X249000Y306000D02*
Y336000D01*
X132000D02*
X249000D01*
X132000Y306000D02*
Y336000D01*
Y306000D02*
X249000D01*
X226000D02*
X228000D01*
X249000Y327000D01*
X120000Y70000D02*
Y190000D01*
X180000Y70000D02*
Y190000D01*
X120000Y96000D02*
X180000D01*
X433000Y269000D02*
Y311000D01*
X447000Y269000D02*
Y311000D01*
X134000Y960000D02*
X168000D01*
X134000Y950000D02*
X168000D01*
X836000Y884000D02*
X870000D01*
Y870000D02*
Y884000D01*
X836000Y870000D02*
Y884000D01*
Y870000D02*
X870000D01*
X886000Y884000D02*
X920000D01*
Y870000D02*
Y884000D01*
X886000Y870000D02*
Y884000D01*
Y870000D02*
X920000D01*
X303000Y363000D02*
X317000D01*
Y397000D01*
X303000D02*
X317000D01*
X303000Y363000D02*
Y397000D01*
X255000Y183000D02*
Y217000D01*
X265000Y183000D02*
Y217000D01*
X268000Y295000D02*
X302000D01*
X268000Y285000D02*
X302000D01*
X587000Y329000D02*
Y371000D01*
X573000Y329000D02*
Y371000D01*
X565000Y395000D02*
Y429000D01*
X575000Y395000D02*
Y429000D01*
X445000Y333000D02*
Y367000D01*
X435000Y333000D02*
Y367000D01*
X455000Y393000D02*
Y427000D01*
X445000Y393000D02*
Y427000D01*
X708000Y712000D02*
X722000D01*
X708000Y678000D02*
Y712000D01*
Y678000D02*
X722000D01*
Y712000D01*
X708000Y793000D02*
X722000D01*
Y827000D01*
X708000D02*
X722000D01*
X708000Y793000D02*
Y827000D01*
Y738000D02*
X722000D01*
Y772000D01*
X708000D02*
X722000D01*
X708000Y738000D02*
Y772000D01*
X1165000Y813000D02*
Y847000D01*
X1155000Y813000D02*
Y847000D01*
D55*
X929236Y1072638D02*
X946953D01*
X1206795D02*
X1224512D01*
Y1135630D01*
X910535Y1228347D02*
X1246165Y1228150D01*
X929236Y1072638D02*
Y1135630D01*
%TF.MD5,5c3987e893592a355fe231e8f876cea2*%
M02*
