%TF.GenerationSoftware,Altium Limited,Altium Designer,18.1.6 (161)*%
G04 Layer_Physical_Order=1*
G04 Layer_Color=255*
%FSLAX26Y26*%
%MOIN*%
%TF.FileFunction,Copper,L1,Top,Signal*%
%TF.Part,Single*%
G01*
G75*
%TA.AperFunction,SMDPad,CuDef*%
%ADD10R,0.039370X0.039370*%
%ADD11R,0.030000X0.034000*%
%ADD12R,0.031496X0.031496*%
%ADD13R,0.060000X0.160000*%
%TA.AperFunction,FiducialPad,Global*%
%ADD14C,0.031496*%
%TA.AperFunction,SMDPad,CuDef*%
%ADD15R,0.034000X0.030000*%
%TA.AperFunction,Conductor*%
%ADD16C,0.007874*%
%ADD17C,0.015748*%
%ADD18C,0.010000*%
%ADD19C,0.040000*%
%ADD20C,0.015000*%
%ADD21C,0.008000*%
%ADD22C,0.020000*%
%TA.AperFunction,NonConductor*%
%ADD23C,0.007874*%
%TA.AperFunction,ComponentPad*%
%ADD24R,0.055000X0.055000*%
%ADD25C,0.055000*%
%ADD26O,0.040000X0.047244*%
%ADD27R,0.040000X0.047244*%
%ADD28C,0.071000*%
%ADD29O,0.039370X0.059055*%
%TA.AperFunction,ViaPad*%
%ADD30C,0.023622*%
G36*
X176005Y1025006D02*
X160000Y1009000D01*
X158000D01*
X141999Y1025001D01*
X142000Y1028000D01*
X176005D01*
Y1025006D01*
D02*
G37*
G36*
X176000Y994252D02*
X142000D01*
X142001Y1012999D01*
X153999Y1001000D01*
X165002Y1001002D01*
X176000Y1012999D01*
Y994252D01*
D02*
G37*
G36*
X437008Y946000D02*
X873000Y946000D01*
X873000Y1219965D01*
X1249808D01*
Y1059652D01*
X1070000Y1035500D01*
Y943546D01*
X1062000Y938275D01*
X1058000Y939071D01*
X1050319Y937543D01*
X1043808Y933192D01*
X1039457Y926681D01*
X1037929Y919000D01*
X1039457Y911319D01*
X1042909Y906153D01*
X1043742Y904538D01*
X1041804Y896526D01*
X1039808Y895192D01*
X1035457Y888681D01*
X1033929Y881000D01*
X1035457Y873319D01*
X1039808Y866808D01*
X1043462Y864367D01*
Y801090D01*
X1043461Y801090D01*
X1044378Y796481D01*
X1045329Y795059D01*
X1041894Y790244D01*
X1039966Y788685D01*
X1033000Y790071D01*
X1025319Y788543D01*
X1018808Y784192D01*
X1014457Y777681D01*
X1012929Y770000D01*
X1014457Y762319D01*
X1018808Y755808D01*
X1023776Y752488D01*
Y400549D01*
X1015114Y391887D01*
X1011163Y385974D01*
X1009776Y379000D01*
X1009776Y379000D01*
Y313843D01*
X1005808Y311192D01*
X1001457Y304681D01*
X999929Y297000D01*
X1001457Y289319D01*
X1005808Y282808D01*
X1008841Y280781D01*
X1010631Y271257D01*
X1001481Y262107D01*
X983274D01*
X980899Y267840D01*
X975229Y275229D01*
X967840Y280899D01*
X959235Y284464D01*
X950000Y285679D01*
X940765Y284464D01*
X932160Y280899D01*
X924771Y275229D01*
X919101Y267840D01*
X915537Y259235D01*
X914321Y250000D01*
X915537Y240766D01*
X919101Y232160D01*
X924771Y224771D01*
X932160Y219101D01*
X940765Y215536D01*
X950000Y214321D01*
X959235Y215536D01*
X967840Y219101D01*
X975229Y224771D01*
X980899Y232160D01*
X983274Y237893D01*
X1006495D01*
X1006496Y237893D01*
X1011129Y238815D01*
X1015056Y241439D01*
X1091245Y317628D01*
X1091246Y317629D01*
X1093870Y321556D01*
X1094792Y326189D01*
X1094792Y326190D01*
Y768175D01*
X1115245Y788629D01*
X1115246Y788629D01*
X1117870Y792556D01*
X1118792Y797189D01*
Y816811D01*
X1118947Y817000D01*
X1249808D01*
Y10035D01*
X1225633D01*
X1222917Y18035D01*
X1228037Y21963D01*
X1234338Y30175D01*
X1238299Y39738D01*
X1238873Y44094D01*
X1200000D01*
X1161127D01*
X1161701Y39738D01*
X1165662Y30175D01*
X1171963Y21963D01*
X1177083Y18035D01*
X1174367Y10035D01*
X1133108D01*
X1127763Y18035D01*
X1128733Y20378D01*
X1130000Y30000D01*
X1128733Y39622D01*
X1125019Y48588D01*
X1119111Y56288D01*
X1111412Y62196D01*
X1102446Y65909D01*
X1092824Y67176D01*
X1083202Y65909D01*
X1074236Y62196D01*
X1066536Y56288D01*
X1060628Y48588D01*
X1056914Y39622D01*
X1055648Y30000D01*
X1056914Y20378D01*
X1057885Y18035D01*
X1052540Y10035D01*
X975633D01*
X972917Y18035D01*
X978037Y21963D01*
X984338Y30175D01*
X988299Y39738D01*
X988873Y44094D01*
X950000D01*
X911127D01*
X911701Y39738D01*
X915662Y30175D01*
X921963Y21963D01*
X927083Y18035D01*
X924367Y10035D01*
X707463D01*
Y59986D01*
X707463D01*
X706545Y67986D01*
X708478Y70232D01*
X710000Y69929D01*
X717681Y71457D01*
X724192Y75808D01*
X728543Y82319D01*
X730071Y90000D01*
X728543Y97681D01*
X725397Y102389D01*
X727606Y108648D01*
X728940Y110389D01*
X753503D01*
X753504Y110389D01*
X760780Y111347D01*
X767561Y114156D01*
X773384Y118624D01*
X799880Y145120D01*
X799880Y145120D01*
X804348Y150943D01*
X807157Y157723D01*
X808115Y165000D01*
Y191355D01*
X914565Y297805D01*
X914565Y297805D01*
X919033Y303628D01*
X921842Y310409D01*
X922622Y316336D01*
X925989Y318666D01*
X930799Y320145D01*
X932160Y319101D01*
X940765Y315536D01*
X950000Y314321D01*
X959235Y315536D01*
X967840Y319101D01*
X975229Y324771D01*
X980899Y332160D01*
X984463Y340765D01*
X985679Y350000D01*
X984463Y359235D01*
X980899Y367840D01*
X975229Y375229D01*
X967840Y380899D01*
X959235Y384464D01*
X950000Y385679D01*
X940765Y384464D01*
X932160Y380899D01*
X930740Y379810D01*
X922740Y383755D01*
Y416245D01*
X930740Y420190D01*
X932160Y419101D01*
X940765Y415536D01*
X950000Y414321D01*
X959235Y415536D01*
X967840Y419101D01*
X975229Y424771D01*
X980899Y432160D01*
X984463Y440765D01*
X985679Y450000D01*
X984463Y459235D01*
X980899Y467840D01*
X975229Y475229D01*
X967840Y480899D01*
X959235Y484464D01*
X950000Y485679D01*
X940765Y484464D01*
X932160Y480899D01*
X930740Y479810D01*
X922740Y483755D01*
Y516245D01*
X930740Y520190D01*
X932160Y519101D01*
X940765Y515537D01*
X950000Y514321D01*
X959235Y515537D01*
X967840Y519101D01*
X975229Y524771D01*
X980899Y532160D01*
X984463Y540765D01*
X985679Y550000D01*
X984463Y559235D01*
X980899Y567840D01*
X975229Y575229D01*
X967840Y580899D01*
X959235Y584463D01*
X950000Y585679D01*
X940765Y584463D01*
X932160Y580899D01*
X930740Y579810D01*
X922740Y583755D01*
Y616245D01*
X930740Y620190D01*
X932160Y619101D01*
X940765Y615537D01*
X950000Y614321D01*
X959235Y615537D01*
X967840Y619101D01*
X975229Y624771D01*
X980899Y632160D01*
X984463Y640765D01*
X985679Y650000D01*
X984463Y659235D01*
X980899Y667840D01*
X975229Y675229D01*
X967840Y680899D01*
X959235Y684463D01*
X950000Y685679D01*
X940765Y684463D01*
X932160Y680899D01*
X930740Y679810D01*
X922740Y683755D01*
Y714626D01*
X985374D01*
Y785374D01*
X922740D01*
Y824141D01*
X991061Y892461D01*
X991061Y892461D01*
X995529Y898284D01*
X998337Y905064D01*
X999295Y912341D01*
X999295Y912342D01*
Y1009922D01*
X1001057Y1010652D01*
X1006880Y1015120D01*
X1014880Y1023120D01*
X1019348Y1028943D01*
X1022157Y1035723D01*
X1023115Y1043000D01*
X1022157Y1050277D01*
X1019348Y1057057D01*
X1014880Y1062880D01*
X1009057Y1067348D01*
X1002277Y1070157D01*
X995000Y1071115D01*
X987723Y1070157D01*
X980943Y1067348D01*
X975426Y1063114D01*
X973001D01*
X973000Y1063115D01*
X965723Y1062157D01*
X958943Y1059348D01*
X953120Y1054880D01*
X951301Y1053061D01*
X946833Y1047238D01*
X944024Y1040457D01*
X943404Y1035742D01*
X942743Y1034696D01*
X938455Y1031269D01*
X935066Y1029865D01*
X931496Y1030575D01*
X923815Y1029047D01*
X917304Y1024696D01*
X912953Y1018185D01*
X911425Y1010504D01*
X912161Y1006803D01*
X906074Y999901D01*
X906004Y999871D01*
X905000Y1000071D01*
X897319Y998543D01*
X890808Y994192D01*
X886457Y987681D01*
X884929Y980000D01*
X886457Y972319D01*
X889325Y968028D01*
Y940048D01*
X827225Y877947D01*
X818382Y880418D01*
X815192Y885192D01*
X808681Y889543D01*
X801000Y891071D01*
X793319Y889543D01*
X786808Y885192D01*
X786096Y884126D01*
X739874D01*
Y893874D01*
X703524D01*
X702748Y894028D01*
X687810D01*
X684001Y894028D01*
X683681Y894016D01*
X683652Y894021D01*
X679874Y893874D01*
X675112Y893970D01*
X671994Y894033D01*
X671940Y894033D01*
X669000D01*
X668201Y893874D01*
X649157D01*
X621893Y921137D01*
X617986Y923748D01*
X613378Y924664D01*
X613378Y924664D01*
X451622D01*
X447014Y923748D01*
X443107Y921137D01*
X443106Y921137D01*
X429808Y907839D01*
X428319Y907543D01*
X421808Y903192D01*
X417457Y896681D01*
X415929Y889000D01*
X417457Y881319D01*
X421808Y874808D01*
X428319Y870457D01*
X436000Y868929D01*
X443681Y870457D01*
X450192Y874808D01*
X454543Y881319D01*
X456071Y889000D01*
X455246Y893144D01*
X460463Y900095D01*
X461303Y900580D01*
X608390D01*
X634126Y874843D01*
Y844126D01*
X668223D01*
X668998Y843972D01*
X671938Y843971D01*
X671997Y843971D01*
X679874Y844126D01*
X684000Y843973D01*
X702748Y843972D01*
X703524Y844126D01*
X739874D01*
Y857874D01*
X786096D01*
X786808Y856808D01*
X793319Y852457D01*
X801000Y850929D01*
X804573Y851640D01*
X812573Y846168D01*
Y798743D01*
X811581Y797259D01*
X811494Y796821D01*
X807560Y794192D01*
X803209Y787681D01*
X801681Y780000D01*
X803209Y772319D01*
X807560Y765808D01*
X814071Y761457D01*
X821752Y759929D01*
X829433Y761457D01*
X831444Y762801D01*
X837500Y765193D01*
X843556Y762801D01*
X845567Y761457D01*
X853248Y759929D01*
X858511Y760976D01*
X866511Y756298D01*
Y580378D01*
X859120Y577317D01*
X856544Y579893D01*
X852637Y582504D01*
X849262Y583175D01*
X716174Y716263D01*
X712267Y718874D01*
X707659Y719790D01*
X707658Y719790D01*
X396014D01*
X272888Y842917D01*
X272842Y843150D01*
X278109Y850277D01*
X284790Y850773D01*
X286078Y849485D01*
X286078Y849485D01*
X289985Y846874D01*
X294594Y845958D01*
X320000D01*
X320000Y845957D01*
X324608Y846874D01*
X328223Y849289D01*
X333794Y848181D01*
X341474Y849709D01*
X347986Y854060D01*
X352337Y860571D01*
X353865Y868252D01*
X352337Y875933D01*
X347986Y882444D01*
X341474Y886795D01*
X333794Y888323D01*
X332422Y888050D01*
X323543Y891681D01*
X319192Y898192D01*
X312681Y902543D01*
X305000Y904071D01*
X297319Y902543D01*
X290808Y898192D01*
X289372Y896042D01*
X233000D01*
X233000Y896043D01*
X228392Y895126D01*
X224485Y892515D01*
X207012Y875042D01*
X190944D01*
X184029Y877999D01*
X183874Y885874D01*
X184027Y890000D01*
X184028Y908748D01*
X183874Y909524D01*
Y945874D01*
X134126D01*
Y923107D01*
X94015D01*
X82086Y935036D01*
X84460Y940769D01*
X85676Y950003D01*
X84460Y959238D01*
X84019Y960303D01*
X89534Y967893D01*
X134126D01*
Y957126D01*
X183874D01*
Y993476D01*
X184028Y994252D01*
Y1009190D01*
X184028Y1012999D01*
X184016Y1013319D01*
X184021Y1013348D01*
X183874Y1017126D01*
X183970Y1021888D01*
X184033Y1025006D01*
X184033Y1025060D01*
Y1028000D01*
X183874Y1028799D01*
Y1062874D01*
X151751D01*
X140581Y1074044D01*
X141071Y1076504D01*
X139543Y1084185D01*
X135192Y1090696D01*
X128681Y1095047D01*
X121000Y1096575D01*
X113319Y1095047D01*
X106808Y1090696D01*
X102457Y1084185D01*
X100929Y1076504D01*
X102201Y1070110D01*
X100056Y1065685D01*
X97321Y1062110D01*
X83271D01*
X80896Y1067843D01*
X75226Y1075232D01*
X67836Y1080902D01*
X59231Y1084467D01*
X49997Y1085682D01*
X40762Y1084467D01*
X32157Y1080902D01*
X24768Y1075232D01*
X19098Y1067843D01*
X18035Y1065277D01*
X10035Y1066868D01*
Y1108530D01*
X14623Y1114629D01*
X85371D01*
Y1185377D01*
X68566D01*
X65851Y1193377D01*
X66287Y1193713D01*
X72195Y1201412D01*
X75909Y1210378D01*
X77176Y1220000D01*
X75909Y1229622D01*
X72195Y1238588D01*
X69876Y1241611D01*
X73821Y1249611D01*
X437008D01*
X437008Y946000D01*
D02*
G37*
G36*
X175999Y890001D02*
X164001Y902000D01*
X152998Y901998D01*
X142000Y890001D01*
Y908748D01*
X176000D01*
X175999Y890001D01*
D02*
G37*
G36*
X176001Y877999D02*
X176000Y875000D01*
X141995D01*
Y877994D01*
X158000Y894000D01*
X160000D01*
X176001Y877999D01*
D02*
G37*
G36*
X702748Y852000D02*
X684001Y852001D01*
X696000Y863999D01*
X695998Y875002D01*
X684001Y886000D01*
X702748D01*
Y852000D01*
D02*
G37*
G36*
X688000Y870000D02*
Y868000D01*
X671999Y851999D01*
X669000Y852000D01*
Y886005D01*
X671994D01*
X688000Y870000D01*
D02*
G37*
G36*
X591748Y548000D02*
X573001Y548001D01*
X585000Y559999D01*
X584998Y571002D01*
X573001Y582000D01*
X591748D01*
Y548000D01*
D02*
G37*
G36*
X577000Y566000D02*
Y564000D01*
X560999Y547999D01*
X558000Y548000D01*
Y582005D01*
X560994D01*
X577000Y566000D01*
D02*
G37*
G36*
X375988Y683485D02*
X379895Y680874D01*
X384503Y679957D01*
X384504Y679958D01*
X696012D01*
X820790Y555179D01*
X820457Y554681D01*
X818929Y547000D01*
X820457Y539319D01*
X824808Y532808D01*
X831319Y528457D01*
X839000Y526929D01*
X842580Y527641D01*
X850580Y522173D01*
Y508300D01*
X846319Y507453D01*
X839808Y503102D01*
X835457Y496591D01*
X833929Y488910D01*
X835457Y481229D01*
X839808Y474718D01*
X846319Y470367D01*
X854000Y468839D01*
X858511Y469736D01*
X866511Y464706D01*
Y329271D01*
X819801Y282561D01*
X812428Y286502D01*
X813386Y291315D01*
X811858Y298996D01*
X807507Y305507D01*
X800996Y309858D01*
X793315Y311386D01*
X785634Y309858D01*
X785157Y309539D01*
X751316D01*
X751315Y309539D01*
X744341Y308152D01*
X738428Y304202D01*
X730629Y296402D01*
X719566Y307464D01*
X720071Y310000D01*
X719566Y312536D01*
X732893Y325863D01*
X735504Y329770D01*
X736420Y334378D01*
X736420Y334378D01*
Y573489D01*
X741289Y574457D01*
X747801Y578808D01*
X752151Y585319D01*
X753679Y593000D01*
X752151Y600681D01*
X747801Y607192D01*
X741289Y611543D01*
X733608Y613071D01*
X725928Y611543D01*
X719416Y607192D01*
X715066Y600681D01*
X713538Y593000D01*
X714181Y589768D01*
X713252Y588378D01*
X712336Y583770D01*
X712336Y583769D01*
Y339366D01*
X702536Y329566D01*
X700000Y330071D01*
X692319Y328543D01*
X685808Y324192D01*
X681457Y317681D01*
X679929Y310000D01*
X681457Y302319D01*
X685808Y295808D01*
X692319Y291457D01*
X700000Y289929D01*
X702536Y290434D01*
X713527Y279443D01*
X707912Y273744D01*
X587562D01*
Y340480D01*
X586645Y345089D01*
X584035Y348996D01*
X584035Y348996D01*
X563864Y369166D01*
Y398622D01*
X516620D01*
Y351378D01*
X547591D01*
X563477Y335492D01*
Y268970D01*
X562633Y268406D01*
X562633Y268406D01*
X515723Y221496D01*
X492126D01*
Y208224D01*
X467549D01*
X438655Y237118D01*
X438543Y237681D01*
X434192Y244192D01*
X427681Y248543D01*
X420000Y250071D01*
X412319Y248543D01*
X405808Y244192D01*
X403785Y241165D01*
X394259Y239378D01*
X368580Y265057D01*
X368156Y268277D01*
X365348Y275057D01*
X360880Y280880D01*
X355057Y285348D01*
X348277Y288156D01*
X341000Y289115D01*
X333723Y288156D01*
X326943Y285348D01*
X321120Y280880D01*
X321042Y280779D01*
X313042Y283495D01*
Y491012D01*
X321915Y499884D01*
X327844Y501063D01*
X334355Y505414D01*
X338706Y511926D01*
X340234Y519606D01*
X338706Y527287D01*
X334355Y533798D01*
X327844Y538149D01*
X320163Y539677D01*
X312482Y538149D01*
X308118Y535233D01*
X299192Y534192D01*
X292681Y538543D01*
X285000Y540071D01*
X277319Y538543D01*
X270808Y534192D01*
X266457Y527681D01*
X264929Y520000D01*
X266457Y512319D01*
X270808Y505808D01*
X272958Y504372D01*
Y454526D01*
X265567Y451464D01*
X233744Y483287D01*
X233561Y483561D01*
X82086Y635036D01*
X84460Y640769D01*
X85676Y650003D01*
X84460Y659238D01*
X80896Y667843D01*
X75226Y675232D01*
X72755Y677128D01*
X72232Y685111D01*
X90714Y703592D01*
X150300D01*
X150301Y703592D01*
X154934Y704514D01*
X158862Y707138D01*
X175965Y724242D01*
X181777Y724402D01*
X185485Y723485D01*
X194484Y714485D01*
X194485Y714485D01*
X198392Y711874D01*
X203000Y710958D01*
X203441D01*
Y695441D01*
Y648197D01*
X218893D01*
Y640658D01*
X217370Y633000D01*
X218898Y625319D01*
X223249Y618808D01*
X229760Y614457D01*
X237441Y612929D01*
X245122Y614457D01*
X251633Y618808D01*
X255984Y625319D01*
X257512Y633000D01*
X256080Y640197D01*
X256080Y640962D01*
X258559Y648197D01*
X258559D01*
Y665958D01*
X321012D01*
X373162Y613808D01*
X373162Y613808D01*
X377069Y611197D01*
X381677Y610280D01*
X381678Y610280D01*
X483689D01*
X523126Y570843D01*
Y540126D01*
X557223D01*
X557998Y539972D01*
X560938Y539971D01*
X560997Y539971D01*
X568874Y540126D01*
X573000Y539973D01*
X591748Y539972D01*
X592524Y540126D01*
X628874D01*
Y543785D01*
X632487Y545882D01*
X636874Y547096D01*
X642319Y543457D01*
X650000Y541929D01*
X657681Y543457D01*
X664192Y547808D01*
X668543Y554319D01*
X670071Y562000D01*
X668543Y569681D01*
X664192Y576192D01*
X657681Y580543D01*
X650000Y582071D01*
X642319Y580543D01*
X636874Y576904D01*
X632487Y578118D01*
X628874Y580215D01*
Y589874D01*
X592524D01*
X591748Y590028D01*
X576810D01*
X573001Y590028D01*
X572681Y590016D01*
X572652Y590021D01*
X568874Y589874D01*
X564112Y589970D01*
X560994Y590033D01*
X560940Y590033D01*
X558000D01*
X557201Y589874D01*
X538157D01*
X497192Y630838D01*
X493286Y633448D01*
X488677Y634365D01*
X488677Y634365D01*
X386665D01*
X334515Y686515D01*
X330608Y689126D01*
X326000Y690043D01*
X326000Y690042D01*
X258559D01*
Y742685D01*
Y789600D01*
X265944Y793529D01*
X375988Y683485D01*
D02*
G37*
G36*
X19098Y632164D02*
X24768Y624774D01*
X32157Y619104D01*
X40762Y615540D01*
X49997Y614324D01*
X59231Y615540D01*
X64964Y617914D01*
X216439Y466439D01*
X216713Y466257D01*
X257210Y425760D01*
Y228477D01*
X257209Y228477D01*
X258126Y223869D01*
X260737Y219962D01*
X413073Y67625D01*
X410012Y60234D01*
X88303D01*
X88299Y60262D01*
X84338Y69825D01*
X78037Y78037D01*
X69825Y84338D01*
X60262Y88299D01*
X55906Y88873D01*
Y50000D01*
X44094D01*
Y88873D01*
X39738Y88299D01*
X30175Y84338D01*
X21963Y78037D01*
X18035Y72918D01*
X10035Y75633D01*
Y133143D01*
X18035Y134734D01*
X19101Y132160D01*
X24771Y124771D01*
X32160Y119101D01*
X40766Y115537D01*
X50000Y114321D01*
X59234Y115537D01*
X67840Y119101D01*
X75229Y124771D01*
X80899Y132160D01*
X84463Y140766D01*
X85679Y150000D01*
X84463Y159234D01*
X80899Y167840D01*
X75229Y175229D01*
X67840Y180899D01*
X59234Y184464D01*
X50000Y185679D01*
X40766Y184464D01*
X32160Y180899D01*
X24771Y175229D01*
X19101Y167840D01*
X18035Y165266D01*
X10035Y166857D01*
Y233138D01*
X18035Y234730D01*
X19098Y232164D01*
X24768Y224774D01*
X32157Y219104D01*
X40762Y215540D01*
X49997Y214324D01*
X59231Y215540D01*
X67836Y219104D01*
X75226Y224774D01*
X80896Y232164D01*
X84460Y240769D01*
X85676Y250003D01*
X84460Y259238D01*
X80896Y267843D01*
X75226Y275232D01*
X67836Y280902D01*
X59231Y284467D01*
X49997Y285682D01*
X40762Y284467D01*
X32157Y280902D01*
X24768Y275232D01*
X19098Y267843D01*
X18035Y265277D01*
X10035Y266868D01*
Y333138D01*
X18035Y334730D01*
X19098Y332164D01*
X24768Y324774D01*
X32157Y319104D01*
X40762Y315540D01*
X49997Y314324D01*
X59231Y315540D01*
X67836Y319104D01*
X75226Y324774D01*
X80896Y332164D01*
X84460Y340769D01*
X85676Y350003D01*
X84460Y359238D01*
X80896Y367843D01*
X75226Y375232D01*
X67836Y380902D01*
X59231Y384467D01*
X49997Y385682D01*
X40762Y384467D01*
X32157Y380902D01*
X24768Y375232D01*
X19098Y367843D01*
X18035Y365277D01*
X10035Y366868D01*
Y433138D01*
X18035Y434730D01*
X19098Y432164D01*
X24768Y424774D01*
X32157Y419104D01*
X40762Y415540D01*
X49997Y414324D01*
X59231Y415540D01*
X67836Y419104D01*
X75226Y424774D01*
X80896Y432164D01*
X84460Y440769D01*
X85676Y450003D01*
X84460Y459238D01*
X80896Y467843D01*
X75226Y475232D01*
X67836Y480902D01*
X59231Y484467D01*
X49997Y485682D01*
X40762Y484467D01*
X32157Y480902D01*
X24768Y475232D01*
X19098Y467843D01*
X18035Y465277D01*
X10035Y466868D01*
Y533138D01*
X18035Y534730D01*
X19098Y532164D01*
X24768Y524774D01*
X32157Y519104D01*
X40762Y515540D01*
X49997Y514324D01*
X59231Y515540D01*
X67836Y519104D01*
X75226Y524774D01*
X80896Y532164D01*
X84460Y540769D01*
X85676Y550003D01*
X84460Y559238D01*
X80896Y567843D01*
X75226Y575232D01*
X67836Y580902D01*
X59231Y584467D01*
X49997Y585682D01*
X40762Y584467D01*
X32157Y580902D01*
X24768Y575232D01*
X19098Y567843D01*
X18035Y565277D01*
X10035Y566868D01*
Y633138D01*
X18035Y634730D01*
X19098Y632164D01*
D02*
G37*
G36*
X785634Y272772D02*
X793315Y271244D01*
X798128Y272202D01*
X802069Y264829D01*
X760120Y222880D01*
X755652Y217057D01*
X752843Y210277D01*
X752623Y208605D01*
X744412Y207524D01*
X744348Y207679D01*
X739880Y213502D01*
X734057Y217970D01*
X727277Y220779D01*
X720000Y221737D01*
X712723Y220779D01*
X705943Y217970D01*
X700120Y213502D01*
X700042Y213400D01*
X689958D01*
X689880Y213502D01*
X684057Y217970D01*
X677277Y220779D01*
X670000Y221737D01*
X662723Y220779D01*
X655943Y217970D01*
X650120Y213502D01*
X647506D01*
X642375Y216550D01*
X636043Y221409D01*
X628304Y224614D01*
X625905Y224930D01*
Y190000D01*
X614095D01*
Y224930D01*
X611696Y224614D01*
X603957Y221409D01*
X597625Y216550D01*
X592494Y213502D01*
X589880D01*
X584057Y217970D01*
X577277Y220779D01*
X574929Y229157D01*
X583068Y237296D01*
X715519D01*
X715520Y237295D01*
X722494Y238683D01*
X728406Y242633D01*
X758864Y273091D01*
X785157D01*
X785634Y272772D01*
D02*
G37*
%LPC*%
G36*
X269000Y1133748D02*
X257677Y1132258D01*
X247126Y1127887D01*
X238065Y1120935D01*
X231113Y1111874D01*
X226742Y1101323D01*
X225252Y1090000D01*
X226742Y1078677D01*
X231113Y1068126D01*
X238065Y1059065D01*
X247126Y1052113D01*
X257677Y1047742D01*
X269000Y1046252D01*
X280323Y1047742D01*
X290874Y1052113D01*
X299935Y1059065D01*
X306887Y1068126D01*
X311258Y1078677D01*
X312748Y1090000D01*
X311258Y1101323D01*
X306887Y1111874D01*
X299935Y1120935D01*
X290874Y1127887D01*
X280323Y1132258D01*
X269000Y1133748D01*
D02*
G37*
G36*
X563864Y867297D02*
X516620D01*
Y825149D01*
X508620Y821836D01*
X500872Y829584D01*
Y867297D01*
X453628D01*
Y820053D01*
X476342D01*
X494385Y802010D01*
X493525Y791556D01*
X483266Y781297D01*
X453628D01*
Y734053D01*
X500872D01*
Y764841D01*
X508620Y772590D01*
X516620Y769775D01*
Y734053D01*
X563864D01*
Y736391D01*
X571864Y742956D01*
X572000Y742929D01*
X579681Y744457D01*
X586192Y748808D01*
X590543Y755319D01*
X592071Y763000D01*
X591359Y766580D01*
X596827Y774580D01*
X608390D01*
X630434Y752536D01*
X629929Y750000D01*
X631457Y742319D01*
X635808Y735808D01*
X642319Y731457D01*
X650000Y729929D01*
X657681Y731457D01*
X664192Y735808D01*
X668543Y742319D01*
X670071Y750000D01*
X668543Y757681D01*
X664192Y764192D01*
X657681Y768543D01*
X650000Y770071D01*
X647464Y769566D01*
X635261Y781770D01*
X637974Y790284D01*
X642319Y791457D01*
X650000Y789929D01*
X657681Y791457D01*
X664192Y795808D01*
X668543Y802319D01*
X670071Y810000D01*
X668543Y817681D01*
X664192Y824192D01*
X657681Y828543D01*
X650000Y830071D01*
X642319Y828543D01*
X635808Y824192D01*
X631457Y817681D01*
X631131Y816042D01*
X596364D01*
X592353Y824042D01*
X594543Y827319D01*
X596071Y835000D01*
X594543Y842681D01*
X590192Y849192D01*
X583681Y853543D01*
X576000Y855071D01*
X573062Y854486D01*
X570608Y856126D01*
X566000Y857043D01*
X563864Y864505D01*
Y867297D01*
D02*
G37*
G36*
X1235374Y785374D02*
X1164626D01*
Y714626D01*
X1235374D01*
Y785374D01*
D02*
G37*
G36*
X1200000Y685679D02*
X1190765Y684463D01*
X1182160Y680899D01*
X1174771Y675229D01*
X1169101Y667840D01*
X1165536Y659235D01*
X1164321Y650000D01*
X1165536Y640765D01*
X1169101Y632160D01*
X1174771Y624771D01*
X1182160Y619101D01*
X1190765Y615537D01*
X1200000Y614321D01*
X1209235Y615537D01*
X1217840Y619101D01*
X1225229Y624771D01*
X1230899Y632160D01*
X1234464Y640765D01*
X1235679Y650000D01*
X1234464Y659235D01*
X1230899Y667840D01*
X1225229Y675229D01*
X1217840Y680899D01*
X1209235Y684463D01*
X1200000Y685679D01*
D02*
G37*
G36*
Y585679D02*
X1190765Y584463D01*
X1182160Y580899D01*
X1174771Y575229D01*
X1169101Y567840D01*
X1165536Y559235D01*
X1164321Y550000D01*
X1165536Y540765D01*
X1169101Y532160D01*
X1174771Y524771D01*
X1182160Y519101D01*
X1190765Y515537D01*
X1200000Y514321D01*
X1209235Y515537D01*
X1217840Y519101D01*
X1225229Y524771D01*
X1230899Y532160D01*
X1234464Y540765D01*
X1235679Y550000D01*
X1234464Y559235D01*
X1230899Y567840D01*
X1225229Y575229D01*
X1217840Y580899D01*
X1209235Y584463D01*
X1200000Y585679D01*
D02*
G37*
G36*
Y485679D02*
X1190765Y484464D01*
X1182160Y480899D01*
X1174771Y475229D01*
X1169101Y467840D01*
X1165536Y459235D01*
X1164321Y450000D01*
X1165536Y440765D01*
X1169101Y432160D01*
X1174771Y424771D01*
X1182160Y419101D01*
X1190765Y415536D01*
X1200000Y414321D01*
X1209235Y415536D01*
X1217840Y419101D01*
X1225229Y424771D01*
X1230899Y432160D01*
X1234464Y440765D01*
X1235679Y450000D01*
X1234464Y459235D01*
X1230899Y467840D01*
X1225229Y475229D01*
X1217840Y480899D01*
X1209235Y484464D01*
X1200000Y485679D01*
D02*
G37*
G36*
Y385679D02*
X1190765Y384464D01*
X1182160Y380899D01*
X1174771Y375229D01*
X1169101Y367840D01*
X1165536Y359235D01*
X1164321Y350000D01*
X1165536Y340765D01*
X1169101Y332160D01*
X1174771Y324771D01*
X1182160Y319101D01*
X1190765Y315536D01*
X1200000Y314321D01*
X1209235Y315536D01*
X1217840Y319101D01*
X1225229Y324771D01*
X1230899Y332160D01*
X1234464Y340765D01*
X1235679Y350000D01*
X1234464Y359235D01*
X1230899Y367840D01*
X1225229Y375229D01*
X1217840Y380899D01*
X1209235Y384464D01*
X1200000Y385679D01*
D02*
G37*
G36*
Y285679D02*
X1190765Y284464D01*
X1182160Y280899D01*
X1174771Y275229D01*
X1169101Y267840D01*
X1165536Y259235D01*
X1164321Y250000D01*
X1165536Y240766D01*
X1169101Y232160D01*
X1174771Y224771D01*
X1182160Y219101D01*
X1190765Y215536D01*
X1200000Y214321D01*
X1209235Y215536D01*
X1217840Y219101D01*
X1225229Y224771D01*
X1230899Y232160D01*
X1234464Y240766D01*
X1235679Y250000D01*
X1234464Y259235D01*
X1230899Y267840D01*
X1225229Y275229D01*
X1217840Y280899D01*
X1209235Y284464D01*
X1200000Y285679D01*
D02*
G37*
G36*
Y185679D02*
X1190765Y184464D01*
X1182160Y180899D01*
X1174771Y175229D01*
X1169101Y167840D01*
X1165536Y159234D01*
X1164321Y150000D01*
X1165536Y140766D01*
X1169101Y132160D01*
X1174771Y124771D01*
X1182160Y119101D01*
X1190765Y115537D01*
X1200000Y114321D01*
X1209235Y115537D01*
X1217840Y119101D01*
X1225229Y124771D01*
X1230899Y132160D01*
X1234464Y140766D01*
X1235679Y150000D01*
X1234464Y159234D01*
X1230899Y167840D01*
X1225229Y175229D01*
X1217840Y180899D01*
X1209235Y184464D01*
X1200000Y185679D01*
D02*
G37*
G36*
X950000D02*
X940765Y184464D01*
X932160Y180899D01*
X924771Y175229D01*
X919101Y167840D01*
X915537Y159234D01*
X914321Y150000D01*
X915537Y140766D01*
X919101Y132160D01*
X924771Y124771D01*
X932160Y119101D01*
X940765Y115537D01*
X950000Y114321D01*
X959235Y115537D01*
X967840Y119101D01*
X975229Y124771D01*
X980899Y132160D01*
X984463Y140766D01*
X985679Y150000D01*
X984463Y159234D01*
X980899Y167840D01*
X975229Y175229D01*
X967840Y180899D01*
X959235Y184464D01*
X950000Y185679D01*
D02*
G37*
G36*
X1205906Y88873D02*
Y55906D01*
X1238873D01*
X1238299Y60262D01*
X1234338Y69825D01*
X1228037Y78037D01*
X1219825Y84338D01*
X1210262Y88299D01*
X1205906Y88873D01*
D02*
G37*
G36*
X955905D02*
Y55906D01*
X988873D01*
X988299Y60262D01*
X984338Y69825D01*
X978037Y78037D01*
X969825Y84338D01*
X960262Y88299D01*
X955905Y88873D01*
D02*
G37*
G36*
X1194094D02*
X1189738Y88299D01*
X1180175Y84338D01*
X1171963Y78037D01*
X1165662Y69825D01*
X1161701Y60262D01*
X1161127Y55906D01*
X1194094D01*
Y88873D01*
D02*
G37*
G36*
X944095D02*
X939738Y88299D01*
X930175Y84338D01*
X921963Y78037D01*
X915662Y69825D01*
X911701Y60262D01*
X911127Y55906D01*
X944095D01*
Y88873D01*
D02*
G37*
G36*
X500872Y398622D02*
X453628D01*
Y387042D01*
X379926D01*
X377681Y388543D01*
X370000Y390071D01*
X362319Y388543D01*
X355808Y384192D01*
X351457Y377681D01*
X349929Y370000D01*
X351457Y362319D01*
X355808Y355808D01*
X362319Y351457D01*
X370000Y349929D01*
X377681Y351457D01*
X384192Y355808D01*
X388543Y362319D01*
X388670Y362958D01*
X453628D01*
Y351378D01*
X500872D01*
Y398622D01*
D02*
G37*
%LPD*%
D10*
X231000Y675756D02*
D03*
Y723000D02*
D03*
Y770244D02*
D03*
D11*
X717000Y869000D02*
D03*
X657000D02*
D03*
X606000Y565000D02*
D03*
X546000D02*
D03*
D12*
X540242Y757675D02*
D03*
X477250D02*
D03*
X540242Y375000D02*
D03*
X477250D02*
D03*
X540242Y843675D02*
D03*
X477250D02*
D03*
D13*
X369000Y1175000D02*
D03*
X169000D02*
D03*
D14*
X1092824Y30000D02*
D03*
X40000Y1220000D02*
D03*
D15*
X159000Y980000D02*
D03*
Y1040000D02*
D03*
Y863000D02*
D03*
Y923000D02*
D03*
D16*
X158500Y863500D02*
X161000Y866000D01*
X330252Y868252D02*
X333794D01*
X681593Y65000D02*
X710000Y93406D01*
X145000Y825000D02*
X159000Y839000D01*
Y863000D01*
X212000D02*
X233000Y884000D01*
X159000Y863000D02*
X212000D01*
X194000Y732000D02*
Y768000D01*
X161000Y801000D02*
X194000Y768000D01*
X99000Y801000D02*
X161000D01*
X194000Y732000D02*
X203000Y723000D01*
X451622Y912622D02*
X613378D01*
X436000Y889000D02*
Y897000D01*
X451622Y912622D01*
X613378D02*
X657000Y869000D01*
X231000Y678000D02*
X326000D01*
X724378Y583770D02*
X733608Y593000D01*
X700000Y310000D02*
X724378Y334378D01*
Y583770D01*
X707659Y707748D02*
X844029Y571378D01*
X848029D01*
X862622Y497532D02*
Y556784D01*
X854000Y488910D02*
X862622Y497532D01*
X848029Y571378D02*
X862622Y556784D01*
X839000Y547000D02*
Y554000D01*
X837000Y556000D02*
X839000Y554000D01*
X701000Y692000D02*
X837000Y556000D01*
X540242Y375000D02*
X541000D01*
X531417D02*
X540242D01*
X575520Y255520D02*
Y340480D01*
X541000Y375000D02*
X575520Y340480D01*
X49997Y850003D02*
X99000Y801000D01*
X301000Y496000D02*
X320163Y515163D01*
X301000Y242509D02*
Y496000D01*
Y242509D02*
X445509Y98000D01*
X468425Y845000D02*
X509425Y804000D01*
X644000D02*
X650000Y810000D01*
X509425Y804000D02*
X644000D01*
X505622Y786622D02*
X613378D01*
X477250Y758250D02*
X505622Y786622D01*
X613378D02*
X650000Y750000D01*
X391026Y707748D02*
X707659D01*
X256774Y842000D02*
X391026Y707748D01*
X384503Y692000D02*
X701000D01*
X266503Y810000D02*
X384503Y692000D01*
X477250Y757675D02*
Y758250D01*
X544992Y763000D02*
X572000D01*
X542992Y765000D02*
X544992Y763000D01*
X531417Y845000D02*
X566000D01*
X576000Y835000D01*
X1055504Y801090D02*
X1065000Y791593D01*
Y358000D02*
Y791593D01*
X1059000Y352000D02*
X1065000Y358000D01*
X1055504Y801090D02*
Y871369D01*
X1054000Y881000D02*
X1057685Y877315D01*
Y873549D02*
Y877315D01*
X1055504Y871369D02*
X1057685Y873549D01*
X250000Y810000D02*
X266503D01*
X253000Y842000D02*
X256774D01*
X488677Y622323D02*
X546000Y565000D01*
X381677Y622323D02*
X488677D01*
X326000Y678000D02*
X381677Y622323D01*
X233000Y884000D02*
X305000D01*
X203000Y723000D02*
X231000D01*
X226378Y848784D02*
X243215Y865622D01*
X226378Y774866D02*
X231000Y770244D01*
X226378Y774866D02*
Y848784D01*
X320000Y858000D02*
X330252Y868252D01*
X294594Y858000D02*
X320000D01*
X286971Y865622D02*
X294594Y858000D01*
X243215Y865622D02*
X286971D01*
X649677Y562323D02*
X650000Y562000D01*
X611457Y562323D02*
X649677D01*
X592678Y65000D02*
X681593D01*
X586308Y58630D02*
X592678Y65000D01*
X553692Y58630D02*
X586308D01*
X547322Y65000D02*
X553692Y58630D01*
X560216Y74378D02*
X579784D01*
X553846Y80748D02*
X560216Y74378D01*
X579784D02*
X595407Y90000D01*
X660000D01*
X432729Y65000D02*
X547322D01*
X439252Y80748D02*
X553846D01*
X285000Y235000D02*
X439252Y80748D01*
X269252Y228477D02*
X432729Y65000D01*
X445509Y98000D02*
X570000D01*
X370000Y370000D02*
X375000Y375000D01*
X468425D01*
X320163Y515163D02*
Y519606D01*
X710000Y90000D02*
Y93406D01*
X285000Y235000D02*
Y520000D01*
X269252Y228477D02*
Y430748D01*
X225000Y475000D02*
X269252Y430748D01*
X700000Y310000D02*
X735000Y275000D01*
D17*
X1114000Y706000D02*
Y765577D01*
X1137433Y789010D02*
Y798169D01*
X1126433Y809169D02*
X1137433Y798169D01*
X1126433Y809169D02*
Y824990D01*
X1100675Y850748D02*
X1126433Y824990D01*
X1099252Y850748D02*
X1100675D01*
X1095000Y855000D02*
X1099252Y850748D01*
X1114000Y765577D02*
X1137433Y789010D01*
X1097433Y857433D02*
Y885433D01*
X1095000Y855000D02*
X1097433Y857433D01*
Y885433D02*
X1116000Y904000D01*
D18*
X717000Y869000D02*
X719000Y871000D01*
X801000D01*
D19*
X971181Y912341D02*
Y1033181D01*
X894626Y835786D02*
X971181Y912341D01*
Y1033181D02*
X973000Y1035000D01*
X987000D01*
X995000Y1043000D01*
X894626Y327063D02*
Y835786D01*
X455373Y138504D02*
X753504D01*
X341000Y252877D02*
X455373Y138504D01*
X753504D02*
X780000Y165000D01*
X894626Y327063D02*
X894685Y327004D01*
X780000Y165000D02*
Y203000D01*
X894685Y317685D01*
Y327004D01*
X341000Y252877D02*
Y261000D01*
D20*
X828248Y856803D02*
X905000Y933555D01*
X931496Y991949D02*
Y1010504D01*
Y991949D02*
X932185Y991260D01*
Y968740D02*
Y991260D01*
X931496Y968051D02*
X932185Y968740D01*
X931496Y924695D02*
Y968051D01*
X905000Y933555D02*
Y980000D01*
X853248Y846447D02*
X931496Y924695D01*
X828248Y793445D02*
Y856803D01*
X826063Y791260D02*
X828248Y793445D01*
X826063Y784311D02*
Y791260D01*
X821752Y780000D02*
X826063Y784311D01*
X853248Y780000D02*
Y846447D01*
D21*
X168685Y734083D02*
Y753704D01*
X146389Y776000D02*
X168685Y753704D01*
X145000Y776000D02*
X146389D01*
X1082685Y773189D02*
X1106685Y797189D01*
X1082685Y326189D02*
Y773189D01*
X1106685Y797189D02*
Y816811D01*
X1006496Y250000D02*
X1082685Y326189D01*
X1077685Y871189D02*
Y899315D01*
X1058000Y919000D02*
X1077685Y899315D01*
X1071315Y845189D02*
X1085504Y831000D01*
X1092496D01*
X1106685Y816811D01*
X150301Y715699D02*
X168685Y734083D01*
X85699Y715699D02*
X150301D01*
X49997Y679997D02*
X85699Y715699D01*
X49997Y650003D02*
Y679997D01*
X231000Y639441D02*
X237441Y633000D01*
X231000Y639441D02*
Y675756D01*
X56106Y743894D02*
X145000D01*
X49997Y750003D02*
X56106Y743894D01*
X49997Y950003D02*
X89000Y911000D01*
X146000D01*
X49997Y950003D02*
X79994Y980000D01*
X159000D01*
X146000Y911000D02*
X159000Y924000D01*
X157504Y1040000D02*
X159000D01*
X121000Y1076504D02*
X157504Y1040000D01*
X108997Y1050003D02*
X114000Y1045000D01*
X49997Y1050003D02*
X108997D01*
X1071315Y864819D02*
X1077685Y871189D01*
X1071315Y845189D02*
Y864819D01*
X950000Y250000D02*
X1006496D01*
X49997Y650003D02*
X225000Y475000D01*
D22*
X1033000Y770000D02*
X1042000Y761000D01*
Y393000D02*
Y761000D01*
X1028000Y379000D02*
X1042000Y393000D01*
X751315Y291315D02*
X793315D01*
X520000Y200000D02*
X575520Y255520D01*
X1028000Y305000D02*
Y379000D01*
X460000Y190000D02*
X520000D01*
X420000Y230000D02*
X460000Y190000D01*
X520000D02*
Y200000D01*
X1020000Y297000D02*
X1028000Y305000D01*
X735000Y275000D02*
X751315Y291315D01*
X575520Y255520D02*
X715520D01*
X735000Y275000D01*
D23*
X95000Y44486D02*
Y13000D01*
Y23495D01*
X115991Y44486D01*
X100248Y28743D01*
X115991Y13000D01*
X147476Y44486D02*
X126486D01*
Y13000D01*
X147476D01*
X126486Y28743D02*
X136981D01*
X157972Y44486D02*
X178962D01*
X168467D01*
Y13000D01*
X210448Y39238D02*
X205201Y44486D01*
X194705D01*
X189458Y39238D01*
Y18248D01*
X194705Y13000D01*
X205201D01*
X210448Y18248D01*
X220944Y33991D02*
Y18248D01*
X226191Y13000D01*
X241934D01*
Y33991D01*
X252429Y44486D02*
Y13000D01*
X268173D01*
X273420Y18248D01*
Y23495D01*
Y28743D01*
X268173Y33991D01*
X252429D01*
X299658Y13000D02*
X289163D01*
X283915Y18248D01*
Y28743D01*
X289163Y33991D01*
X299658D01*
X304906Y28743D01*
Y23495D01*
X283915D01*
X315401Y7752D02*
X336392D01*
X346887Y13000D02*
X357382D01*
X352135D01*
Y44486D01*
X346887Y39238D01*
X373125D02*
X378373Y44486D01*
X388868D01*
X394116Y39238D01*
Y33991D01*
X388868Y28743D01*
X394116Y23495D01*
Y18248D01*
X388868Y13000D01*
X378373D01*
X373125Y18248D01*
Y23495D01*
X378373Y28743D01*
X373125Y33991D01*
Y39238D01*
X378373Y28743D02*
X388868D01*
X404611Y39238D02*
X409859Y44486D01*
X420354D01*
X425602Y39238D01*
Y18248D01*
X420354Y13000D01*
X409859D01*
X404611Y18248D01*
Y39238D01*
X457088Y44486D02*
X436097D01*
Y28743D01*
X446593Y33991D01*
X451840D01*
X457088Y28743D01*
Y18248D01*
X451840Y13000D01*
X441345D01*
X436097Y18248D01*
X618248Y44238D02*
Y38991D01*
X613000D01*
X623495D01*
X618248D01*
Y23248D01*
X623495Y18000D01*
X644486D02*
X654981D01*
X660229Y23248D01*
Y33743D01*
X654981Y38991D01*
X644486D01*
X639238Y33743D01*
Y23248D01*
X644486Y18000D01*
X670724Y7505D02*
Y38991D01*
X686467D01*
X691715Y33743D01*
Y23248D01*
X686467Y18000D01*
X670724D01*
D24*
X1200000Y750000D02*
D03*
X950000D02*
D03*
X49997Y1150003D02*
D03*
D25*
X1200000Y550000D02*
D03*
Y450000D02*
D03*
Y650000D02*
D03*
Y350000D02*
D03*
Y250000D02*
D03*
Y150000D02*
D03*
Y50000D02*
D03*
X950000Y550000D02*
D03*
Y450000D02*
D03*
Y650000D02*
D03*
Y350000D02*
D03*
Y250000D02*
D03*
Y150000D02*
D03*
Y50000D02*
D03*
X49997Y1050003D02*
D03*
Y950003D02*
D03*
Y650003D02*
D03*
Y850003D02*
D03*
Y750003D02*
D03*
Y550003D02*
D03*
X50000Y150000D02*
D03*
Y50000D02*
D03*
X49997Y450003D02*
D03*
Y350003D02*
D03*
Y250003D02*
D03*
D26*
X670000Y190000D02*
D03*
X620000D02*
D03*
X720000D02*
D03*
X570000D02*
D03*
D27*
X520000D02*
D03*
D28*
X269000Y1090000D02*
D03*
D29*
X934748Y1175000D02*
D03*
X1219000D02*
D03*
D30*
X333794Y868252D02*
D03*
X801000Y871000D02*
D03*
X436000Y889000D02*
D03*
X535000Y886000D02*
D03*
X575000Y869000D02*
D03*
X905000Y980000D02*
D03*
X931000Y1042000D02*
D03*
X900000Y1021000D02*
D03*
X901575Y1051181D02*
D03*
X931496Y1010504D02*
D03*
X973000Y1035000D02*
D03*
X995000Y1043000D02*
D03*
X145000Y825000D02*
D03*
X748000Y522000D02*
D03*
X839000Y547000D02*
D03*
X273000Y752000D02*
D03*
X145000Y776000D02*
D03*
X733608Y593000D02*
D03*
X572000Y763000D02*
D03*
X576000Y835000D02*
D03*
X1083000Y807000D02*
D03*
X641000Y503000D02*
D03*
X568000Y522000D02*
D03*
X172000Y488000D02*
D03*
X109000Y652000D02*
D03*
X53000Y600000D02*
D03*
X237441Y633000D02*
D03*
X456000Y800000D02*
D03*
X253000Y604000D02*
D03*
X305000Y884000D02*
D03*
X253000Y842000D02*
D03*
X250000Y810000D02*
D03*
X145000Y743894D02*
D03*
X649000Y653000D02*
D03*
X650000Y750000D02*
D03*
Y562000D02*
D03*
X121000Y1076504D02*
D03*
X114000Y1045000D02*
D03*
X1202000Y1122000D02*
D03*
X853248Y780000D02*
D03*
X821752D02*
D03*
X1054000Y881000D02*
D03*
X1058000Y919000D02*
D03*
X793315Y291315D02*
D03*
X1232000Y808000D02*
D03*
X1234000Y692000D02*
D03*
X1113000Y737000D02*
D03*
X1145000Y736000D02*
D03*
X993000Y813000D02*
D03*
X1059000Y352000D02*
D03*
X1116000Y904000D02*
D03*
X570000Y98000D02*
D03*
X328000Y1075000D02*
D03*
X318000Y1049000D02*
D03*
X935000Y1118000D02*
D03*
X305000Y1025000D02*
D03*
Y995000D02*
D03*
X307000Y966000D02*
D03*
X212000Y1078000D02*
D03*
X217000Y1052000D02*
D03*
X222000Y1023000D02*
D03*
X225000Y995000D02*
D03*
Y965000D02*
D03*
X780000Y700000D02*
D03*
X357000Y605000D02*
D03*
X250000Y545000D02*
D03*
X307000Y653000D02*
D03*
X504000Y655000D02*
D03*
X357000Y802000D02*
D03*
X405000Y750000D02*
D03*
X455000Y654000D02*
D03*
X370000Y370000D02*
D03*
X650000Y810000D02*
D03*
X320163Y519606D02*
D03*
X285000Y520000D02*
D03*
X420000Y230000D02*
D03*
X700000Y310000D02*
D03*
X660000Y90000D02*
D03*
X710000D02*
D03*
X780000Y165000D02*
D03*
Y760000D02*
D03*
X650000Y400000D02*
D03*
X660000Y340000D02*
D03*
X960000Y814000D02*
D03*
X1002000Y655000D02*
D03*
X818000Y935000D02*
D03*
X662000D02*
D03*
X854000Y595000D02*
D03*
X1144000Y656000D02*
D03*
X1150000Y598000D02*
D03*
X1020000Y810000D02*
D03*
X1114000Y706000D02*
D03*
X1000000Y600000D02*
D03*
X1002000Y500000D02*
D03*
X981000Y402000D02*
D03*
X1128000Y310000D02*
D03*
X854000Y488910D02*
D03*
X850000Y439000D02*
D03*
X852000Y334000D02*
D03*
X776000Y403000D02*
D03*
X1020000Y297000D02*
D03*
X894000Y250000D02*
D03*
X836000Y194000D02*
D03*
X746000Y321000D02*
D03*
X747000Y227000D02*
D03*
X386000Y399000D02*
D03*
X245000Y378000D02*
D03*
X103000Y94000D02*
D03*
X203000Y110000D02*
D03*
X282000D02*
D03*
X197000Y269000D02*
D03*
X341000Y261000D02*
D03*
X116000Y1228000D02*
D03*
X115000Y1108000D02*
D03*
X423000Y1230000D02*
D03*
X421000Y1183000D02*
D03*
Y1112000D02*
D03*
X376000Y1075000D02*
D03*
X168000D02*
D03*
X320000Y1232000D02*
D03*
X217000Y1233000D02*
D03*
X338000Y966000D02*
D03*
X371000D02*
D03*
X402000D02*
D03*
X435000D02*
D03*
X455000Y573000D02*
D03*
X544000Y655000D02*
D03*
X190000Y233000D02*
D03*
X358000Y325000D02*
D03*
X438000Y294000D02*
D03*
X1047244Y972441D02*
D03*
X1157675Y1047277D02*
D03*
X1033000Y770000D02*
D03*
X1003000Y742000D02*
D03*
X1095000Y855000D02*
D03*
%TF.MD5,7e9358cb2b5d993d54861a413ef0c940*%
M02*
