%TF.GenerationSoftware,Altium Limited,Altium Designer,18.1.6 (161)*%
G04 Layer_Color=16711935*
%FSLAX26Y26*%
%MOIN*%
%TF.FileFunction,Soldermask,Bot*%
%TF.Part,Single*%
G01*
G75*
%TA.AperFunction,NonConductor*%
%ADD56R,0.033000X0.042000*%
%ADD57R,0.047244X0.086614*%
%ADD58R,0.066000X0.015000*%
%TA.AperFunction,SMDPad,CuDef*%
%ADD59R,0.025984X0.037795*%
%ADD60R,0.037795X0.025984*%
%TA.AperFunction,BGAPad,CuDef*%
%ADD61R,0.069291X0.069291*%
%TA.AperFunction,SMDPad,CuDef*%
%ADD62R,0.030299X0.040299*%
%TA.AperFunction,FiducialPad,Global*%
%ADD63C,0.037795*%
%TA.AperFunction,SMDPad,CuDef*%
%ADD64R,0.100000X0.064567*%
G04:AMPARAMS|DCode=65|XSize=21.26mil|YSize=29.134mil|CornerRadius=6.693mil|HoleSize=0mil|Usage=FLASHONLY|Rotation=0.000|XOffset=0mil|YOffset=0mil|HoleType=Round|Shape=RoundedRectangle|*
%AMROUNDEDRECTD65*
21,1,0.021260,0.015748,0,0,0.0*
21,1,0.007874,0.029134,0,0,0.0*
1,1,0.013386,0.003937,-0.007874*
1,1,0.013386,-0.003937,-0.007874*
1,1,0.013386,-0.003937,0.007874*
1,1,0.013386,0.003937,0.007874*
%
%ADD65ROUNDEDRECTD65*%
%ADD66R,0.030299X0.045299*%
%ADD67R,0.034299X0.054299*%
%ADD68R,0.022047X0.057480*%
%ADD69R,0.048299X0.093299*%
%ADD70R,0.048299X0.048299*%
%ADD71R,0.066299X0.166299*%
%ADD72R,0.066299X0.106299*%
%ADD73R,0.045299X0.055299*%
%ADD74R,0.040299X0.036299*%
%ADD75R,0.036299X0.040299*%
%ADD76R,0.040299X0.030299*%
%ADD77R,0.045669X0.045669*%
%TA.AperFunction,ComponentPad*%
%ADD78R,0.061299X0.061299*%
%ADD79C,0.061299*%
%ADD80O,0.046299X0.053543*%
%ADD81R,0.046299X0.053543*%
%ADD82C,0.077299*%
%ADD83O,0.045669X0.065354*%
%TA.AperFunction,ViaPad*%
%ADD84C,0.018110*%
G36*
X913483Y1062996D02*
X1002073D01*
Y1120076D01*
X1151673D01*
Y1062996D01*
X1240263D01*
Y1102366D01*
X1173333D01*
Y1145666D01*
X1155613D01*
Y1210626D01*
X998133D01*
Y1145666D01*
X980413D01*
Y1102366D01*
X913483D01*
Y1062996D01*
D02*
G37*
D56*
X851500Y150000D02*
D03*
X989477Y853873D02*
D03*
X988500Y930000D02*
D03*
X571500Y280000D02*
D03*
D57*
X700000Y550003D02*
D03*
D58*
X700000Y516500D02*
D03*
Y582500D02*
D03*
D59*
X579961Y480118D02*
D03*
X548465D02*
D03*
X516968D02*
D03*
X485472D02*
D03*
X453976D02*
D03*
X422480D02*
D03*
X390984D02*
D03*
X359488D02*
D03*
X327992D02*
D03*
X296496D02*
D03*
X265000D02*
D03*
X233504D02*
D03*
Y925000D02*
D03*
X265000D02*
D03*
X296496D02*
D03*
X327992D02*
D03*
X359488D02*
D03*
X390984D02*
D03*
X422480D02*
D03*
X453976D02*
D03*
X485472D02*
D03*
X516968D02*
D03*
X548465D02*
D03*
X579961D02*
D03*
D60*
X202008Y529331D02*
D03*
Y560827D02*
D03*
Y592323D02*
D03*
Y623819D02*
D03*
Y655315D02*
D03*
Y686811D02*
D03*
Y718307D02*
D03*
Y749803D02*
D03*
Y781299D02*
D03*
Y812795D02*
D03*
Y844291D02*
D03*
Y875787D02*
D03*
X611457D02*
D03*
Y844291D02*
D03*
Y812795D02*
D03*
Y781299D02*
D03*
Y749803D02*
D03*
Y718307D02*
D03*
Y686811D02*
D03*
Y655315D02*
D03*
Y623819D02*
D03*
Y592323D02*
D03*
Y560827D02*
D03*
Y529331D02*
D03*
D61*
X406730Y702557D02*
D03*
Y800982D02*
D03*
X505156D02*
D03*
Y702557D02*
D03*
Y604131D02*
D03*
X406730D02*
D03*
X308305D02*
D03*
Y702557D02*
D03*
Y800982D02*
D03*
D62*
X670000Y280000D02*
D03*
X730000D02*
D03*
X280000Y380000D02*
D03*
X340000D02*
D03*
X745000Y695000D02*
D03*
X685000D02*
D03*
Y810000D02*
D03*
X745000D02*
D03*
X685000Y755000D02*
D03*
X745000D02*
D03*
D63*
X40000Y1220000D02*
D03*
X1092824Y30000D02*
D03*
D64*
X1190000Y940000D02*
D03*
D65*
X1229370Y995118D02*
D03*
X1190000D02*
D03*
X1150630D02*
D03*
X1229370Y884882D02*
D03*
X1190000D02*
D03*
X1150630D02*
D03*
D66*
X227000Y270000D02*
D03*
X153000D02*
D03*
X190000Y370000D02*
D03*
D67*
X150000Y57000D02*
D03*
Y203000D02*
D03*
D68*
X1076874Y1081496D02*
D03*
X1051283D02*
D03*
X1102465D02*
D03*
X1025693D02*
D03*
X1128055D02*
D03*
D69*
X331000Y1190000D02*
D03*
X205500D02*
D03*
D70*
X268000Y1127000D02*
D03*
D71*
X369000Y1175000D02*
D03*
X169000D02*
D03*
D72*
X269000Y1105000D02*
D03*
D73*
X400000Y290000D02*
D03*
X480000D02*
D03*
X620000Y350000D02*
D03*
X540000D02*
D03*
D74*
X151000Y985000D02*
D03*
Y925000D02*
D03*
X285000Y320000D02*
D03*
Y260000D02*
D03*
D75*
X820000Y150000D02*
D03*
X880000D02*
D03*
X960977Y853873D02*
D03*
X1020977D02*
D03*
X1020000Y930000D02*
D03*
X960000D02*
D03*
X230000Y200000D02*
D03*
X290000D02*
D03*
X540000Y412000D02*
D03*
X600000D02*
D03*
X470000Y350000D02*
D03*
X410000D02*
D03*
X480000Y410000D02*
D03*
X420000D02*
D03*
X600000Y280000D02*
D03*
X540000D02*
D03*
X1190000Y830000D02*
D03*
X1130000D02*
D03*
D76*
X853000Y907000D02*
D03*
Y847000D02*
D03*
X903000Y907000D02*
D03*
Y847000D02*
D03*
D77*
X700000Y597244D02*
D03*
Y550000D02*
D03*
Y502756D02*
D03*
D78*
X1200000Y750000D02*
D03*
X950000D02*
D03*
X49997Y1150003D02*
D03*
D79*
X1200000Y550000D02*
D03*
Y450000D02*
D03*
Y650000D02*
D03*
Y350000D02*
D03*
Y250000D02*
D03*
Y150000D02*
D03*
Y50000D02*
D03*
X950000Y550000D02*
D03*
Y450000D02*
D03*
Y650000D02*
D03*
Y350000D02*
D03*
Y250000D02*
D03*
Y150000D02*
D03*
Y50000D02*
D03*
X49997Y1050003D02*
D03*
Y950003D02*
D03*
Y650003D02*
D03*
Y850003D02*
D03*
Y750003D02*
D03*
Y550003D02*
D03*
X50000Y150000D02*
D03*
Y50000D02*
D03*
X49997Y450003D02*
D03*
Y350003D02*
D03*
Y250003D02*
D03*
D80*
X670000Y190000D02*
D03*
X620000D02*
D03*
X720000D02*
D03*
X570000D02*
D03*
D81*
X520000D02*
D03*
D82*
X269000Y1090000D02*
D03*
D83*
X934748Y1175000D02*
D03*
X1219000D02*
D03*
D84*
X333794Y868252D02*
D03*
X801000Y871000D02*
D03*
X436000Y889000D02*
D03*
X535000Y886000D02*
D03*
X575000Y869000D02*
D03*
X905000Y980000D02*
D03*
X931000Y1042000D02*
D03*
X900000Y1021000D02*
D03*
X901575Y1051181D02*
D03*
X931496Y1010504D02*
D03*
X973000Y1035000D02*
D03*
X995000Y1043000D02*
D03*
X145000Y825000D02*
D03*
X748000Y522000D02*
D03*
X839000Y547000D02*
D03*
X273000Y752000D02*
D03*
X145000Y776000D02*
D03*
X733608Y593000D02*
D03*
X572000Y763000D02*
D03*
X576000Y835000D02*
D03*
X1083000Y807000D02*
D03*
X641000Y503000D02*
D03*
X568000Y522000D02*
D03*
X172000Y488000D02*
D03*
X109000Y652000D02*
D03*
X53000Y600000D02*
D03*
X237441Y633000D02*
D03*
X456000Y800000D02*
D03*
X253000Y604000D02*
D03*
X305000Y884000D02*
D03*
X253000Y842000D02*
D03*
X250000Y810000D02*
D03*
X145000Y743894D02*
D03*
X649000Y653000D02*
D03*
X650000Y750000D02*
D03*
Y562000D02*
D03*
X121000Y1076504D02*
D03*
X114000Y1045000D02*
D03*
X1202000Y1122000D02*
D03*
X853248Y780000D02*
D03*
X821752D02*
D03*
X1054000Y881000D02*
D03*
X1058000Y919000D02*
D03*
X793315Y291315D02*
D03*
X1232000Y808000D02*
D03*
X1234000Y692000D02*
D03*
X1113000Y737000D02*
D03*
X1145000Y736000D02*
D03*
X993000Y813000D02*
D03*
X1059000Y352000D02*
D03*
X1116000Y904000D02*
D03*
X570000Y98000D02*
D03*
X328000Y1075000D02*
D03*
X318000Y1049000D02*
D03*
X935000Y1118000D02*
D03*
X305000Y1025000D02*
D03*
Y995000D02*
D03*
X307000Y966000D02*
D03*
X212000Y1078000D02*
D03*
X217000Y1052000D02*
D03*
X222000Y1023000D02*
D03*
X225000Y995000D02*
D03*
Y965000D02*
D03*
X780000Y700000D02*
D03*
X357000Y605000D02*
D03*
X250000Y545000D02*
D03*
X307000Y653000D02*
D03*
X504000Y655000D02*
D03*
X357000Y802000D02*
D03*
X405000Y750000D02*
D03*
X455000Y654000D02*
D03*
X370000Y370000D02*
D03*
X650000Y810000D02*
D03*
X320163Y519606D02*
D03*
X285000Y520000D02*
D03*
X420000Y230000D02*
D03*
X700000Y310000D02*
D03*
X660000Y90000D02*
D03*
X710000D02*
D03*
X780000Y165000D02*
D03*
Y760000D02*
D03*
X650000Y400000D02*
D03*
X660000Y340000D02*
D03*
X960000Y814000D02*
D03*
X1002000Y655000D02*
D03*
X818000Y935000D02*
D03*
X662000D02*
D03*
X854000Y595000D02*
D03*
X1144000Y656000D02*
D03*
X1150000Y598000D02*
D03*
X1020000Y810000D02*
D03*
X1114000Y706000D02*
D03*
X1000000Y600000D02*
D03*
X1002000Y500000D02*
D03*
X981000Y402000D02*
D03*
X1128000Y310000D02*
D03*
X854000Y488910D02*
D03*
X850000Y439000D02*
D03*
X852000Y334000D02*
D03*
X776000Y403000D02*
D03*
X1020000Y297000D02*
D03*
X894000Y250000D02*
D03*
X836000Y194000D02*
D03*
X746000Y321000D02*
D03*
X747000Y227000D02*
D03*
X386000Y399000D02*
D03*
X245000Y378000D02*
D03*
X103000Y94000D02*
D03*
X203000Y110000D02*
D03*
X282000D02*
D03*
X197000Y269000D02*
D03*
X341000Y261000D02*
D03*
X116000Y1228000D02*
D03*
X115000Y1108000D02*
D03*
X423000Y1230000D02*
D03*
X421000Y1183000D02*
D03*
Y1112000D02*
D03*
X376000Y1075000D02*
D03*
X168000D02*
D03*
X320000Y1232000D02*
D03*
X217000Y1233000D02*
D03*
X338000Y966000D02*
D03*
X371000D02*
D03*
X402000D02*
D03*
X435000D02*
D03*
X455000Y573000D02*
D03*
X544000Y655000D02*
D03*
X190000Y233000D02*
D03*
X358000Y325000D02*
D03*
X438000Y294000D02*
D03*
X1047244Y972441D02*
D03*
X1157675Y1047277D02*
D03*
X1033000Y770000D02*
D03*
X1003000Y742000D02*
D03*
X1095000Y855000D02*
D03*
%TF.MD5,5d5808609348037ac1f9cee5f4bfcd2d*%
M02*
