M48
;Layer_Color=9474304
;FILE_FORMAT=2:5
INCH,LZ
;TYPE=PLATED
T1F00S00C0.01181
T3F00S00C0.02756
T4F00S00C0.03500
T5F00S00C0.04800
%
T01
X0057Y00098
X0066Y0009
X0071
X0078Y00165
X00836Y00194
X00894Y0025
X00852Y00334
X0079331Y0029131
X00746Y00321
X007Y0031
X0066Y0034
X0065Y004
X00641Y00503
X0065Y00562
X0073361Y00593
X00748Y00522
X00839Y00547
X00854Y00595
Y0048891
X0085Y00439
X00776Y00403
X00747Y00227
X0102Y00297
X01059Y00352
X01128Y0031
X00981Y00402
X01002Y005
X00568Y00522
X00455Y00573
X0032016Y0051961
X00285Y0052
X0025Y00545
X00172Y00488
X00245Y00378
X0037Y0037
X00386Y00399
X00358Y00325
X00341Y00261
X0042Y0023
X00438Y00294
X00197Y00269
X0019Y00233
X00203Y0011
X00282
X00103Y00094
X00053Y006
X00109Y00652
X00145Y0074389
Y00776
Y00825
X0025Y0081
X00253Y00842
X00305Y00884
X0033379Y0086825
X00357Y00802
X00405Y0075
X00456Y008
X00436Y00889
X00435Y00966
X00402
X00371
X00338
X00307
X00305Y00995
Y01025
X00318Y01049
X00328Y01075
X00376
X00421Y01112
Y01183
X00423Y0123
X0032Y01232
X00217Y01233
X00116Y01228
X00115Y01108
X00121Y010765
X00114Y01045
X00168Y01075
X00212Y01078
X00217Y01052
X00222Y01023
X00225Y00995
Y00965
X00273Y00752
X00307Y00653
X0023744Y00633
X00253Y00604
X00357Y00605
X00455Y00654
X00504Y00655
X00544
X00649Y00653
X0065Y0075
Y0081
X00576Y00835
X00575Y00869
X00535Y00886
X00572Y00763
X0078Y0076
Y007
X0082175Y0078
X0085325
X0096Y00814
X00993Y00813
X0102Y0081
X01033Y0077
X01003Y00742
X01002Y00655
X01Y006
X0115Y00598
X01144Y00656
X01114Y00706
X01113Y00737
X01145Y00736
X01083Y00807
X01095Y00855
X01054Y00881
X01058Y00919
X0104724Y0097244
X00995Y01043
X00973Y01035
X00931Y01042
X009315Y010105
X009Y01021
X0090158Y0105118
X00905Y0098
X00818Y00935
X00801Y00871
X00662Y00935
X00935Y01118
X01202Y01122
X0115768Y0104728
X01116Y00904
X01232Y00808
X01234Y00692
T03
X0052Y0019
X0057
X0062
X0067
X0072
T04
X0095Y0005
Y0015
Y0025
Y0035
Y0045
Y0055
X012
Y0045
Y0035
Y0025
Y0015
Y0005
X0005
Y0015
X0005Y0025
Y0035
Y0045
Y0055
Y0065
Y0075
Y0085
Y0095
Y0105
Y0115
X0095Y0075
Y0065
X012
Y0075
T05
X00269Y0109
M30
