M48
;Layer_Color=9474304
;FILE_FORMAT=2:5
INCH,LZ
;TYPE=PLATED
T1F00S00C0.01181
T2F00S00C0.02756
T3F00S00C0.03500
%
T01
X0055Y0015748
X0059842Y0029528
X0066481Y0027244
X0066695Y0033379
X0070841Y0036307
X007323Y0038972
X0077152Y0034022
X0082676Y0033351
X008853Y0033167
X0096448Y0031702
X0095908Y004156
X0096042Y0052008
X008903Y004743
X0082279Y0051396
X00839Y005405
X0083071Y0059055
X0080433Y0056907
X0067398Y0054508
X0067246Y0045059
X0063779Y0042126
X0059957Y0043681
X00545Y0053626
X0082701Y0040573
X0085243Y0026498
X008903Y0022097
X0094529Y002
X0102886Y0021176
X0105424Y0029351
X0110673Y0036996
X0112904Y0041804
X0113183Y0052342
X0122468Y0032182
Y0021625
X0122047Y0010856
X0115642Y001225
X0102362Y0009449
X0093838Y0010768
X0077627Y0009055
X0081628Y0003386
X0078909Y0023353
X0039764Y002241
X00401Y00287
X0040844Y0031702
X0042606Y0036537
X0033331Y0036454
X0034382Y0043525
X0032514Y0045828
X0028495
X0028Y0050209
X0031496Y0050863
X0035Y0054126
X00415
X0045Y0050626
X00515Y0051126
X0022835Y0042077
X00202Y0037655
X0019968Y0033126
X002015Y0027244
X0021557Y002
X0026472Y0016493
X0031455Y0021907
X0031909Y0025456
X0028166Y0032655
X0005573Y0032394
X0006047Y0042
Y0052539
X0015407Y0053524
X0012919Y0023223
X0003705Y0020562
Y0010596
X0005606Y0062211
X0004616Y0070649
X0015748Y007441
X0017059Y0080116
X001128Y0083598
X0013773Y0087567
X0021936Y0084626
X0025187Y0088753
Y0092115
Y0095477
Y0098839
Y0102201
X0025243Y0105563
X0025834Y0108873
X0027258Y0111919
X0029343Y0114556
X0032035Y011657
X0035119Y0117909
X0039224Y0120288
X0039622Y0109449
X0044745Y0109804
X0048106Y0109897
X0049645Y0112886
Y0116248
X0039562Y0103987
X0039622Y0098438
X0040087Y009203
X0046847
Y0088444
X0040667Y0080585
X0033858Y0079625
X0030709Y0077559
X0031496Y0074016
X0026947Y0075073
X0027165Y0070866
X0028022Y0067827
X0035039Y007126
X00415Y0070626
X0041339Y0064173
X0045Y0060626
X0051575Y006063
X0051Y0072126
X0045Y0074126
X0029454Y0081044
X0032813Y0089906
Y0093268
Y009663
Y0099992
Y0103355
X0014059Y0108898
X0002731Y0111847
X0005242Y0101503
X0015354Y0063083
X0017959Y0060478
X00315Y0060126
X0034Y0062626
X0054724Y0063779
X006Y0069126
X005968Y0073895
X0056329Y0080461
X0067665Y0079994
Y0083
X0063884Y0087574
X0062731Y009203
X0068698Y0092291
X0075134
X0080688
X0085166
X0089514Y0092618
X0092258Y0094976
X0091323Y0098032
X0094529Y0097924
X009478Y0101192
X0099Y0101503
X0105424Y0096253
X0105026Y0093262
X0108314Y0089942
X0103597Y008579
X0100775Y0081993
X009601
X0096042Y0071816
X009601Y0061891
X01131
Y0069718
X0111575Y0078029
X012237Y0079825
X0122279Y0061936
X0080315Y0064494
Y0068008
X00839Y0068653
X0083833Y0073405
X0080315Y0072338
X0081002Y0081835
X0085564Y0097201
Y010364
Y0110079
Y0116519
Y0122958
X0092258Y0122958
X0096042Y01133
X0092443Y0108255
X0112073Y0111137
X0122468Y0111406
X0122835Y0122958
X010877Y0121949
X0054787Y009203
X0068148Y0068147
X006785Y006259
T02
X0065Y0006944
X0065Y00202
X007Y00194
X0075Y00202
X006Y00194
X0055Y00202
T03
X0097592Y0007244
X0098392Y0017244
X0097592Y0027244
X0098392Y0037244
X0097592Y0047244
X0098392Y0057244
X0117592
X0118392Y0047244
X0117592Y0037244
X0118392Y0027244
X0117592Y0017244
X0118392Y0007244
X0007592Y0007244
X0008392Y0017244
X0007592Y0027244
X0008392Y0037244
X0007592Y0047244
X0008392Y0057244
X0007592Y0067244
X0007992Y0077244
X0007592Y0087244
X0008392Y0097244
X0007592Y0107244
X0008392Y0117244
X0098392Y0077244
X0097592Y0067244
X0118392
X0117592Y0077244
M30
