G04*
G04 #@! TF.GenerationSoftware,Altium Limited,Altium Designer,21.4.1 (30)*
G04*
G04 Layer_Color=8388736*
%FSLAX25Y25*%
%MOIN*%
G70*
G04*
G04 #@! TF.SameCoordinates,FDA7AB05-C33E-465C-AB53-71C79C1F0B70*
G04*
G04*
G04 #@! TF.FilePolarity,Negative*
G04*
G01*
G75*
%ADD18R,0.04000X0.05591*%
%ADD19R,0.04000X0.04599*%
%ADD20R,0.04000X0.05037*%
%ADD21R,0.04051X0.04962*%
%ADD22R,0.04000X0.05399*%
%ADD23R,0.03543X0.03543*%
%ADD24C,0.03543*%
%ADD25C,0.05512*%
%ADD26O,0.04394X0.05118*%
%ADD27R,0.04394X0.05118*%
%ADD28C,0.05894*%
%ADD29R,0.05894X0.05894*%
%ADD30C,0.01811*%
D18*
X55000Y17405D02*
D03*
D19*
X60000Y17100D02*
D03*
D20*
X65000Y17319D02*
D03*
D21*
X69974Y17281D02*
D03*
D22*
X75000Y17500D02*
D03*
D23*
X50127Y76493D02*
D03*
X56623D02*
D03*
Y67893D02*
D03*
X50127D02*
D03*
Y29626D02*
D03*
X56623D02*
D03*
D24*
X23526Y121949D02*
D03*
X106601Y4218D02*
D03*
D25*
X65000Y6944D02*
D03*
D26*
X70000Y19400D02*
D03*
X65000Y20200D02*
D03*
X75000D02*
D03*
X60000Y19400D02*
D03*
D27*
X55000Y20200D02*
D03*
D28*
X97592Y7244D02*
D03*
X98392Y17244D02*
D03*
X97592Y27244D02*
D03*
X98392Y37244D02*
D03*
X97592Y67244D02*
D03*
Y47244D02*
D03*
X98392Y57244D02*
D03*
X7592Y27244D02*
D03*
X8392Y37244D02*
D03*
X7592Y47244D02*
D03*
X8392Y57244D02*
D03*
X7592Y67244D02*
D03*
Y107244D02*
D03*
X8392Y97244D02*
D03*
X7592Y87244D02*
D03*
X7992Y77244D02*
D03*
X8392Y17244D02*
D03*
X7592Y7244D02*
D03*
X118392Y7244D02*
D03*
X117592Y17244D02*
D03*
X118392Y27244D02*
D03*
Y67244D02*
D03*
X117592Y57244D02*
D03*
X118392Y47244D02*
D03*
X117592Y37244D02*
D03*
D29*
X98392Y77244D02*
D03*
X8392Y117244D02*
D03*
X117592Y77244D02*
D03*
D30*
X35119Y117909D02*
D03*
X32035Y116570D02*
D03*
X29343Y114556D02*
D03*
X27258Y111919D02*
D03*
X25834Y108873D02*
D03*
X25243Y105563D02*
D03*
X25187Y102201D02*
D03*
Y98839D02*
D03*
Y95477D02*
D03*
Y92115D02*
D03*
Y88753D02*
D03*
X29454Y81044D02*
D03*
X32813Y89906D02*
D03*
Y93268D02*
D03*
Y96630D02*
D03*
Y99992D02*
D03*
Y103355D02*
D03*
X44745Y109804D02*
D03*
X48106Y109897D02*
D03*
X49645Y112886D02*
D03*
Y116248D02*
D03*
X67665Y83000D02*
D03*
X63884Y87574D02*
D03*
X100775Y81993D02*
D03*
X26472Y16493D02*
D03*
X19968Y33126D02*
D03*
X20150Y27244D02*
D03*
X5573Y32394D02*
D03*
X6047Y42000D02*
D03*
X4616Y70649D02*
D03*
X21936Y84626D02*
D03*
X33858Y79625D02*
D03*
X40667Y80585D02*
D03*
X81002Y81835D02*
D03*
X85166Y92291D02*
D03*
X105026Y93262D02*
D03*
X75134Y92291D02*
D03*
X67665Y79994D02*
D03*
X28000Y50209D02*
D03*
X15407Y53524D02*
D03*
X13773Y87567D02*
D03*
X2731Y111847D02*
D03*
X5242Y101503D02*
D03*
X14059Y108898D02*
D03*
X6047Y52539D02*
D03*
X5606Y62211D02*
D03*
X3705Y20562D02*
D03*
X80688Y92291D02*
D03*
X68698D02*
D03*
X83833Y73405D02*
D03*
X96042Y71816D02*
D03*
X83900Y68653D02*
D03*
X96010Y81993D02*
D03*
X89030Y47430D02*
D03*
X59680Y73895D02*
D03*
X60000Y69126D02*
D03*
X80315Y64494D02*
D03*
Y68008D02*
D03*
X80315Y72338D02*
D03*
X68148Y68147D02*
D03*
X66481Y27244D02*
D03*
X96448Y31702D02*
D03*
X92258Y122958D02*
D03*
X122835D02*
D03*
X83900Y54050D02*
D03*
X89030Y22097D02*
D03*
X103597Y85790D02*
D03*
X108314Y89942D02*
D03*
X111575Y78029D02*
D03*
X122370Y79825D02*
D03*
X105424Y96253D02*
D03*
X99000Y101503D02*
D03*
X105424Y29351D02*
D03*
X110673Y36996D02*
D03*
X11280Y83598D02*
D03*
X112073Y111137D02*
D03*
X80433Y56907D02*
D03*
X91323Y98032D02*
D03*
X94780Y101192D02*
D03*
X89514Y92618D02*
D03*
X92258Y94976D02*
D03*
X94529Y97924D02*
D03*
X96042Y113300D02*
D03*
X39764Y22410D02*
D03*
X17059Y80116D02*
D03*
X21557Y20000D02*
D03*
X77627Y9055D02*
D03*
X39562Y103987D02*
D03*
X40100Y28700D02*
D03*
X31909Y25456D02*
D03*
X31455Y21907D02*
D03*
X42606Y36537D02*
D03*
X40844Y31702D02*
D03*
X59842Y29528D02*
D03*
X34382Y43525D02*
D03*
X32514Y45828D02*
D03*
X28495D02*
D03*
X31496Y50863D02*
D03*
X82279Y51396D02*
D03*
X28022Y67827D02*
D03*
X20200Y37655D02*
D03*
X85243Y26498D02*
D03*
X77152Y34022D02*
D03*
X67246Y45059D02*
D03*
X66695Y33379D02*
D03*
X70841Y36307D02*
D03*
X78909Y23353D02*
D03*
X67398Y54508D02*
D03*
X94529Y20000D02*
D03*
X93838Y10768D02*
D03*
X55000Y15748D02*
D03*
X81628Y3386D02*
D03*
X15354Y63083D02*
D03*
X17959Y60478D02*
D03*
X85564Y97201D02*
D03*
X108770Y121949D02*
D03*
X85564Y103640D02*
D03*
X92443Y108255D02*
D03*
X28166Y32655D02*
D03*
X67850Y62590D02*
D03*
X122279Y61936D02*
D03*
X102362Y9449D02*
D03*
X115642Y12250D02*
D03*
X122047Y10856D02*
D03*
X3705Y10596D02*
D03*
X31496Y74016D02*
D03*
X35039Y71260D02*
D03*
X41339Y64173D02*
D03*
X51575Y60630D02*
D03*
X54724Y63779D02*
D03*
X39224Y120288D02*
D03*
X39622Y109449D02*
D03*
X85564Y122958D02*
D03*
Y116519D02*
D03*
X54787Y92030D02*
D03*
X73230Y38972D02*
D03*
X63779Y42126D02*
D03*
X26947Y75073D02*
D03*
X22835Y42077D02*
D03*
X27165Y70866D02*
D03*
X15748Y74410D02*
D03*
X33331Y36454D02*
D03*
X59957Y43681D02*
D03*
X56329Y80461D02*
D03*
X46847Y92030D02*
D03*
X96010Y61891D02*
D03*
X96042Y52008D02*
D03*
X95908Y41560D02*
D03*
X113100Y69718D02*
D03*
X30709Y77559D02*
D03*
X83071Y59055D02*
D03*
X82701Y40573D02*
D03*
X40087Y92030D02*
D03*
X39622Y98438D02*
D03*
X122468Y111406D02*
D03*
X31500Y60126D02*
D03*
X35000Y54126D02*
D03*
X45000Y74126D02*
D03*
Y60626D02*
D03*
X41500Y70626D02*
D03*
X34000Y62626D02*
D03*
X62731Y92030D02*
D03*
X46847Y88444D02*
D03*
X82676Y33351D02*
D03*
X51000Y72126D02*
D03*
X12919Y23223D02*
D03*
X122468Y32182D02*
D03*
X112904Y41804D02*
D03*
X122468Y21625D02*
D03*
X113100Y61891D02*
D03*
X113183Y52342D02*
D03*
X88530Y33167D02*
D03*
X51500Y51126D02*
D03*
X45000Y50626D02*
D03*
X54500Y53626D02*
D03*
X102886Y21176D02*
D03*
X41500Y54126D02*
D03*
X85564Y110079D02*
D03*
M02*
