%TF.GenerationSoftware,Altium Limited,Altium Designer,21.4.1 (30)*%
G04 Layer_Physical_Order=4*
G04 Layer_Color=16711680*
%FSLAX26Y26*%
%MOIN*%
%TF.SameCoordinates,A13BDBB0-CAD7-4838-8454-AA6E24CDD61A*%
%TF.FilePolarity,Positive*%
%TF.FileFunction,Copper,L4,Bot,Signal*%
%TF.Part,Single*%
G01*
G75*
%TA.AperFunction,Conductor*%
%ADD10C,0.009169*%
%ADD11C,0.011811*%
%ADD12C,0.039370*%
%ADD13C,0.007874*%
%TA.AperFunction,FiducialPad,Global*%
%ADD14C,0.031496*%
%TA.AperFunction,SMDPad,CuDef*%
%ADD19C,0.040000*%
%ADD27R,0.078740X0.185039*%
%ADD43R,0.034000X0.024000*%
%TA.AperFunction,Conductor*%
%ADD45C,0.019685*%
%ADD46C,0.015748*%
%TA.AperFunction,NonConductor*%
%ADD48C,0.007874*%
%TA.AperFunction,ComponentPad*%
%ADD50C,0.062992*%
%ADD51R,0.062992X0.062992*%
%TA.AperFunction,ViaPad*%
%ADD52C,0.019685*%
%ADD53C,0.039370*%
%ADD54C,0.031496*%
%ADD55C,0.023622*%
%TA.AperFunction,SMDPad,CuDef*%
%ADD57R,0.039370X0.039370*%
%ADD58R,0.031496X0.031496*%
G36*
X1326541Y789370D02*
X1259843D01*
Y710630D01*
X1326541D01*
Y692596D01*
X1314541Y686265D01*
X1309491Y688357D01*
X1299213Y689710D01*
X1288936Y688357D01*
X1279358Y684390D01*
X1271134Y678080D01*
X1264823Y669855D01*
X1260857Y660278D01*
X1259503Y650000D01*
X1260857Y639723D01*
X1264823Y630146D01*
X1271134Y621922D01*
X1279358Y615611D01*
X1288936Y611644D01*
X1299213Y610291D01*
X1309491Y611644D01*
X1314541Y613736D01*
X1326541Y607405D01*
Y592596D01*
X1314541Y586265D01*
X1309491Y588357D01*
X1299213Y589710D01*
X1288936Y588357D01*
X1279358Y584390D01*
X1271134Y578080D01*
X1264823Y569855D01*
X1260857Y560278D01*
X1259503Y550000D01*
X1260857Y539723D01*
X1264823Y530146D01*
X1271134Y521922D01*
X1279358Y515611D01*
X1288936Y511644D01*
X1299213Y510291D01*
X1309491Y511644D01*
X1314541Y513736D01*
X1326541Y507405D01*
Y492596D01*
X1314541Y486265D01*
X1309491Y488357D01*
X1299213Y489710D01*
X1288936Y488357D01*
X1279358Y484390D01*
X1271134Y478079D01*
X1264823Y469855D01*
X1260857Y460278D01*
X1259503Y450000D01*
X1260857Y439723D01*
X1264823Y430146D01*
X1271134Y421921D01*
X1279358Y415611D01*
X1288936Y411644D01*
X1299213Y410291D01*
X1309491Y411644D01*
X1314541Y413736D01*
X1326541Y407405D01*
Y392596D01*
X1314541Y386265D01*
X1309491Y388357D01*
X1299213Y389710D01*
X1288936Y388357D01*
X1279358Y384390D01*
X1271134Y378079D01*
X1264823Y369855D01*
X1260857Y360278D01*
X1259503Y350000D01*
X1260857Y339723D01*
X1264823Y330146D01*
X1271134Y321921D01*
X1279358Y315611D01*
X1288936Y311644D01*
X1299213Y310291D01*
X1309491Y311644D01*
X1314541Y313736D01*
X1326541Y307405D01*
Y292596D01*
X1314541Y286265D01*
X1309491Y288357D01*
X1299213Y289710D01*
X1288936Y288357D01*
X1279358Y284390D01*
X1271134Y278079D01*
X1264823Y269855D01*
X1260857Y260278D01*
X1259503Y250000D01*
X1260857Y239723D01*
X1264823Y230146D01*
X1271134Y221922D01*
X1279358Y215611D01*
X1288936Y211644D01*
X1299213Y210291D01*
X1309491Y211644D01*
X1314541Y213736D01*
X1326541Y207405D01*
Y192596D01*
X1314541Y186265D01*
X1309491Y188357D01*
X1299213Y189710D01*
X1288936Y188357D01*
X1279358Y184390D01*
X1271134Y178079D01*
X1264823Y169855D01*
X1260857Y160278D01*
X1259503Y150000D01*
X1260857Y139723D01*
X1262114Y136686D01*
X1252930Y127501D01*
X1252867Y127528D01*
X1243154Y128806D01*
X1233442Y127528D01*
X1224392Y123779D01*
X1216620Y117815D01*
X1210656Y110043D01*
X1206907Y100993D01*
X1205629Y91281D01*
X1206907Y81568D01*
X1210656Y72518D01*
X1216620Y64746D01*
X1224392Y58782D01*
X1233442Y55033D01*
X1243154Y53755D01*
X1243937Y53858D01*
X1246146Y53123D01*
X1256229Y44269D01*
X1256329Y43947D01*
X1257021Y38695D01*
X1261384Y28160D01*
X1264544Y24042D01*
X1258626Y12042D01*
X1037047D01*
X1032077Y24042D01*
X1042547Y34513D01*
X1069470D01*
X1069471Y34513D01*
X1074079Y35429D01*
X1077986Y38040D01*
X1100739Y60792D01*
X1100739Y60793D01*
X1103350Y64700D01*
X1104266Y69308D01*
X1104266Y69308D01*
Y73397D01*
X1104595Y73733D01*
X1107257Y75511D01*
X1111172Y81371D01*
X1112547Y88284D01*
X1111172Y95197D01*
X1107257Y101057D01*
X1101396Y104973D01*
X1094484Y106348D01*
X1087571Y104973D01*
X1081711Y101057D01*
X1079725Y98084D01*
X1067513Y100333D01*
X1066816Y103840D01*
X1062900Y109700D01*
X1057040Y113616D01*
X1050127Y114991D01*
X1043215Y113616D01*
X1032454Y120742D01*
X1026593Y124658D01*
X1019681Y126033D01*
X1012768Y124658D01*
X1007335Y121027D01*
X1004895Y124679D01*
X999034Y128595D01*
X992617Y129871D01*
X991188Y131994D01*
X986952Y141176D01*
X999672Y153897D01*
X999672Y153897D01*
X1039111Y193335D01*
X1039111Y193336D01*
X1041721Y197242D01*
X1042638Y201851D01*
Y259984D01*
X1058609Y275955D01*
X1058609Y275955D01*
X1061219Y279862D01*
X1062136Y284470D01*
Y306720D01*
X1062136Y306720D01*
X1061219Y311329D01*
X1058609Y315236D01*
X1058609Y315236D01*
X1057934Y315910D01*
X1059211Y322327D01*
X1057836Y329240D01*
X1053920Y335100D01*
X1056962Y347499D01*
X1059185Y350827D01*
X1061019Y360043D01*
X1059185Y369260D01*
X1053964Y377074D01*
X1046151Y382295D01*
X1036934Y384128D01*
X1027717Y382295D01*
X1019903Y377074D01*
X1014682Y369260D01*
X1012849Y360043D01*
X1014682Y350827D01*
X1019903Y343013D01*
X1020197Y342817D01*
X1027136Y336268D01*
X1024458Y329240D01*
X1023083Y322327D01*
X1020642Y313634D01*
X1014782Y309718D01*
X1010866Y303858D01*
X1009491Y296945D01*
X999629Y291332D01*
X974681D01*
X974680Y291332D01*
X970072Y290415D01*
X966165Y287805D01*
X966165Y287805D01*
X902787Y224427D01*
X678528D01*
X676652Y226303D01*
X672745Y228913D01*
X668137Y229830D01*
X668136Y229830D01*
X637922D01*
X627767Y239441D01*
X626392Y246353D01*
X622476Y252214D01*
X616616Y256129D01*
X609703Y257504D01*
X602790Y256129D01*
X598952Y253564D01*
X590747D01*
X495572Y348739D01*
Y423461D01*
X495572Y423462D01*
X494656Y428070D01*
X492045Y431977D01*
X492045Y431977D01*
X479828Y444194D01*
Y693767D01*
X481561Y694111D01*
X487421Y698027D01*
X491337Y703887D01*
X491916Y706796D01*
X493163Y711003D01*
X494754Y711987D01*
X502843Y716692D01*
X509041Y717925D01*
X514901Y721840D01*
X518817Y727701D01*
X520192Y734613D01*
X518817Y741526D01*
X514901Y747386D01*
X509041Y751302D01*
X502128Y752677D01*
X495216Y751302D01*
X489356Y747386D01*
X485440Y741526D01*
X484861Y738617D01*
X483614Y734410D01*
X482022Y733426D01*
X473933Y728721D01*
X467736Y727488D01*
X461875Y723573D01*
X449186Y726181D01*
X448664Y728571D01*
X456359Y738195D01*
X462572Y739431D01*
X468432Y743347D01*
X472348Y749207D01*
X473723Y756120D01*
X473021Y759647D01*
X473669Y760294D01*
X473669Y760295D01*
X476279Y764202D01*
X477196Y768810D01*
X477196Y768810D01*
Y768977D01*
X493318Y785099D01*
X495928Y789006D01*
X496845Y793614D01*
X496845Y793615D01*
Y794955D01*
X528649Y826759D01*
X531259Y830665D01*
X532176Y835274D01*
Y842791D01*
X534468Y843247D01*
X540329Y847163D01*
X544244Y853024D01*
X545619Y859936D01*
X544244Y866849D01*
X540329Y872709D01*
X534468Y876625D01*
X534270Y876664D01*
X530392Y879196D01*
X531767Y886109D01*
X530392Y893021D01*
X526476Y898881D01*
X520616Y902797D01*
X513704Y904172D01*
X506791Y902797D01*
X500931Y898881D01*
X497015Y893021D01*
X495640Y886109D01*
X495013Y885113D01*
X488241Y877224D01*
X484235Y877766D01*
X482732Y877970D01*
X481238Y877673D01*
X475819Y876595D01*
X469959Y872679D01*
X466043Y866819D01*
X454490Y867085D01*
X452109Y867590D01*
X446117Y877973D01*
X484398Y916253D01*
X487008Y920160D01*
X487925Y924769D01*
Y1060211D01*
X499733D01*
X509214Y1054131D01*
X509215Y1054131D01*
X509215Y1054131D01*
X536464D01*
X541435Y1042131D01*
X527529Y1028225D01*
X526667Y1028396D01*
X519754Y1027021D01*
X513894Y1023106D01*
X509978Y1017245D01*
X508603Y1010333D01*
X509978Y1003420D01*
X513894Y997560D01*
X519754Y993644D01*
X526667Y992269D01*
X533580Y993644D01*
X539440Y997560D01*
X541335Y1000396D01*
X551423Y996985D01*
X552886Y996084D01*
X554174Y989607D01*
X558090Y983747D01*
X558820Y983259D01*
Y811749D01*
X557201Y810667D01*
X553285Y804807D01*
X551910Y797894D01*
X553285Y790982D01*
X557201Y785121D01*
X563061Y781206D01*
X569974Y779831D01*
X576887Y781206D01*
X582747Y785121D01*
X586663Y790982D01*
X588038Y797894D01*
X586663Y804807D01*
X582905Y810430D01*
Y841274D01*
X594905Y846245D01*
X635114Y806036D01*
X634943Y805174D01*
X636318Y798262D01*
X640233Y792402D01*
X646094Y788486D01*
X653006Y787111D01*
X659919Y788486D01*
X665779Y792402D01*
X669695Y798262D01*
X671070Y805174D01*
X669695Y812087D01*
X665779Y817947D01*
X659919Y821863D01*
X653006Y823238D01*
X652144Y823067D01*
X609899Y865313D01*
Y910670D01*
X610846Y912199D01*
X621899Y919587D01*
X623047Y919358D01*
X629959Y920733D01*
X635819Y924649D01*
X639735Y930509D01*
X641110Y937422D01*
X639735Y944334D01*
X639103Y945280D01*
Y975258D01*
X702299Y1038454D01*
X705779Y1043663D01*
X707001Y1049807D01*
X707001Y1049808D01*
Y1098690D01*
X706944Y1098980D01*
X732773Y1124809D01*
X733888Y1125030D01*
X739749Y1128946D01*
X743664Y1134806D01*
X745039Y1141719D01*
X743664Y1148632D01*
X739749Y1154492D01*
X735622Y1157249D01*
X733412Y1163953D01*
X732820Y1170855D01*
X736060Y1175078D01*
X738837Y1181782D01*
X739784Y1188976D01*
X738837Y1196171D01*
X736060Y1202875D01*
X731643Y1208632D01*
X725886Y1213049D01*
X719182Y1215826D01*
X711987Y1216773D01*
X704793Y1215826D01*
X698455Y1213201D01*
X696235Y1214684D01*
X691627Y1215600D01*
X691626Y1215600D01*
X503180D01*
X489478Y1229303D01*
X485571Y1231913D01*
X480962Y1232830D01*
X480962Y1232830D01*
X454610D01*
X450001Y1231913D01*
X446094Y1229303D01*
X446094Y1229302D01*
X434738Y1217946D01*
X433327Y1217003D01*
X433326Y1217003D01*
X412249Y1195926D01*
X409639Y1192019D01*
X408722Y1187411D01*
X408722Y1187410D01*
Y1128553D01*
X380302Y1100133D01*
X270162D01*
X268772Y1101809D01*
X264847Y1112133D01*
X266692Y1114895D01*
X268067Y1121808D01*
X266692Y1128721D01*
X262777Y1134581D01*
X256916Y1138497D01*
X250004Y1139872D01*
X249142Y1139700D01*
X240242Y1148601D01*
X236335Y1151211D01*
X231726Y1152128D01*
X231726Y1152128D01*
X130049D01*
X129804Y1152237D01*
X121043Y1163683D01*
X121048Y1163707D01*
X119673Y1170620D01*
X115757Y1176480D01*
X109897Y1180396D01*
X102984Y1181771D01*
X96072Y1180396D01*
X90742Y1176835D01*
X87695Y1177453D01*
X78742Y1180914D01*
Y1189372D01*
X68575D01*
X64502Y1201372D01*
X65907Y1202450D01*
X71870Y1210222D01*
X75619Y1219273D01*
X76898Y1228985D01*
X76001Y1235801D01*
X80762Y1243777D01*
X84837Y1247801D01*
X117340D01*
X121413Y1235801D01*
X119715Y1234498D01*
X115298Y1228741D01*
X112521Y1222037D01*
X111574Y1214843D01*
X112521Y1207649D01*
X115298Y1200945D01*
X119715Y1195188D01*
X125472Y1190770D01*
X132176Y1187993D01*
X139371Y1187046D01*
X146565Y1187993D01*
X153269Y1190770D01*
X159026Y1195188D01*
X169715D01*
X175472Y1190770D01*
X182176Y1187993D01*
X189371Y1187046D01*
X196565Y1187993D01*
X203269Y1190770D01*
X209026Y1195188D01*
X213443Y1200945D01*
X216220Y1207649D01*
X217167Y1214843D01*
X216220Y1222037D01*
X213443Y1228741D01*
X209026Y1234498D01*
X207328Y1235801D01*
X211401Y1247801D01*
X267340D01*
X271413Y1235801D01*
X269715Y1234498D01*
X265298Y1228741D01*
X262521Y1222037D01*
X261574Y1214843D01*
X262521Y1207649D01*
X265298Y1200945D01*
X269715Y1195188D01*
X275472Y1190770D01*
X282176Y1187993D01*
X289371Y1187046D01*
X296565Y1187993D01*
X303269Y1190770D01*
X309026Y1195188D01*
X319715D01*
X325472Y1190770D01*
X332176Y1187993D01*
X339371Y1187046D01*
X346565Y1187993D01*
X353269Y1190770D01*
X359026Y1195188D01*
X363443Y1200945D01*
X366220Y1207649D01*
X367167Y1214843D01*
X366220Y1222037D01*
X363443Y1228741D01*
X359026Y1234498D01*
X357328Y1235801D01*
X361401Y1247801D01*
X1236395D01*
Y1145828D01*
X1299377D01*
Y1247801D01*
X1326541D01*
Y789370D01*
D02*
G37*
G36*
X684191Y1188976D02*
X685138Y1181782D01*
X687915Y1175078D01*
X692332Y1169321D01*
X698089Y1164904D01*
X704793Y1162127D01*
X705529Y1162030D01*
X710787Y1149380D01*
X710287Y1148632D01*
X710065Y1147516D01*
X687446Y1124897D01*
X687308Y1125035D01*
X682099Y1128515D01*
X675954Y1129738D01*
X675954Y1129738D01*
X650649D01*
X641080Y1139307D01*
X635871Y1142788D01*
X629726Y1144010D01*
X629726Y1144010D01*
X579952D01*
X579952Y1144010D01*
X573807Y1142788D01*
X568598Y1139307D01*
X568598Y1139307D01*
X567545Y1138254D01*
X556458Y1142846D01*
Y1166336D01*
X509214D01*
X506303Y1161534D01*
X494299Y1161044D01*
X493159Y1162427D01*
X489863Y1171959D01*
X492134Y1174919D01*
X494942Y1181700D01*
X497463Y1189313D01*
X507670Y1191515D01*
X681964D01*
X684191Y1188976D01*
D02*
G37*
G36*
X78347Y1080625D02*
X76666Y1078736D01*
X75192Y1076635D01*
X73923Y1074322D01*
X72859Y1071797D01*
X72001Y1069059D01*
X71348Y1066110D01*
X70901Y1062948D01*
X70659Y1059575D01*
X70623Y1055989D01*
X70792Y1052191D01*
X41561Y1081422D01*
X45359Y1081253D01*
X48945Y1081289D01*
X52318Y1081531D01*
X55480Y1081978D01*
X58429Y1082631D01*
X61167Y1083489D01*
X63692Y1084553D01*
X66005Y1085822D01*
X68106Y1087296D01*
X69995Y1088976D01*
X78347Y1080625D01*
D02*
G37*
G36*
X671576Y1063914D02*
X672549Y1054119D01*
X621899Y1003468D01*
X609899Y1008439D01*
Y1032691D01*
X646796Y1069589D01*
X650735Y1070372D01*
X651525Y1070900D01*
X655915Y1070027D01*
X660919Y1071022D01*
X671576Y1063914D01*
D02*
G37*
G36*
X205151Y1095150D02*
X205117Y1094389D01*
X203864Y1088091D01*
X205239Y1081178D01*
X209155Y1075318D01*
X215015Y1071402D01*
X221928Y1070027D01*
X228840Y1071402D01*
X234701Y1075318D01*
X235189Y1076048D01*
X373248D01*
Y1058078D01*
X356609D01*
Y1002960D01*
Y986116D01*
X345261Y982673D01*
X344279Y982968D01*
X338419Y986884D01*
X331507Y988259D01*
X324594Y986884D01*
X318734Y982968D01*
X314818Y977108D01*
X313443Y970195D01*
X314818Y963283D01*
X318734Y957422D01*
X324594Y953507D01*
X327236Y952981D01*
X331929Y941597D01*
X331963Y940737D01*
X275542Y884316D01*
X214703D01*
X214702Y884316D01*
X210094Y883399D01*
X206187Y880788D01*
X197663Y872264D01*
X194719Y872016D01*
X183246Y874818D01*
X181713Y877112D01*
X175853Y881028D01*
X171975Y881799D01*
X168452Y883265D01*
X162910Y893056D01*
X162837Y893424D01*
X161535Y899968D01*
X157619Y905829D01*
X151759Y909745D01*
X144847Y911120D01*
X137934Y909745D01*
X132074Y905829D01*
X128158Y899968D01*
X126783Y893056D01*
X128158Y886143D01*
X132074Y880283D01*
X137934Y876367D01*
X141812Y875596D01*
X145335Y874130D01*
X150877Y864339D01*
X150990Y863770D01*
X142697Y851770D01*
X131056D01*
X126957Y855870D01*
X126925Y856028D01*
X123010Y861889D01*
X117149Y865804D01*
X110237Y867179D01*
X103324Y865804D01*
X97464Y861889D01*
X93548Y856028D01*
X92173Y849116D01*
X93548Y842203D01*
X97464Y836343D01*
X103324Y832427D01*
X110237Y831052D01*
X116473Y832293D01*
X117553Y831213D01*
X117553Y831212D01*
X121460Y828602D01*
X126068Y827685D01*
X182156D01*
X182157Y827685D01*
X186765Y828602D01*
X190672Y831212D01*
X219691Y860231D01*
X278145D01*
X281463Y859571D01*
X286325Y860538D01*
X290445Y863291D01*
X345522Y918368D01*
X356609Y913775D01*
Y908472D01*
X393658D01*
X398693Y897097D01*
X393034Y889913D01*
X362019D01*
X357411Y888996D01*
X353504Y886386D01*
X333983Y866865D01*
X331372Y862958D01*
X330455Y858350D01*
X330456Y858349D01*
Y811430D01*
X320844Y801274D01*
X313932Y799899D01*
X308072Y795984D01*
X307584Y795253D01*
X280659D01*
X251598Y824314D01*
X252021Y826443D01*
X250646Y833356D01*
X246730Y839216D01*
X240870Y843132D01*
X233958Y844507D01*
X227045Y843132D01*
X221185Y839216D01*
X217269Y833356D01*
X215894Y826443D01*
X217269Y819531D01*
X221185Y813670D01*
X227045Y809755D01*
X233351Y808500D01*
X267155Y774696D01*
X267156Y774695D01*
X271062Y772085D01*
X275671Y771168D01*
X275671Y771168D01*
X307584D01*
X308072Y770438D01*
X313932Y766522D01*
X320844Y765147D01*
X322940Y762932D01*
X328104Y751950D01*
X324188Y746090D01*
X322813Y739177D01*
X324188Y732264D01*
X328104Y726404D01*
X331536Y724111D01*
X328461Y712490D01*
X328460Y712487D01*
X286497D01*
X239395Y759589D01*
X235488Y762199D01*
X230880Y763116D01*
X230880Y763116D01*
X133340D01*
X132852Y763846D01*
X126992Y767762D01*
X120079Y769137D01*
X113167Y767762D01*
X107306Y763846D01*
X103391Y757986D01*
X102016Y751073D01*
X103391Y744161D01*
X107306Y738301D01*
X113167Y734385D01*
X120079Y733010D01*
X126992Y734385D01*
X132852Y738301D01*
X133340Y739031D01*
X225892D01*
X262089Y702834D01*
X257118Y690834D01*
X158553D01*
X153945Y689917D01*
X150038Y687307D01*
X150038Y687307D01*
X145326Y682595D01*
X144464Y682766D01*
X137551Y681391D01*
X131691Y677475D01*
X127775Y671615D01*
X126400Y664702D01*
X127775Y657790D01*
X131691Y651929D01*
X137551Y648014D01*
X144464Y646639D01*
X151376Y648014D01*
X157237Y651929D01*
X161153Y657790D01*
X162528Y664702D01*
X174238Y666749D01*
X265938D01*
X270909Y654749D01*
X251583Y635423D01*
X248972Y631516D01*
X248056Y626908D01*
X248056Y626907D01*
Y457131D01*
X203789Y412864D01*
X201178Y408957D01*
X200262Y404348D01*
X200262Y404348D01*
Y321717D01*
X198819Y310126D01*
X191907Y308751D01*
X186047Y304836D01*
X182131Y298975D01*
X180756Y292063D01*
X182131Y285150D01*
X186047Y279290D01*
X191907Y275374D01*
X198820Y273999D01*
X205732Y275374D01*
X208081Y276943D01*
X219250Y272378D01*
X220081Y271628D01*
Y263768D01*
X220081Y263767D01*
X220998Y259159D01*
X223608Y255252D01*
X250131Y228729D01*
X250131Y228728D01*
X254038Y226118D01*
X257248Y225480D01*
X260038Y220740D01*
X262388Y213201D01*
X261343Y211638D01*
X259968Y204726D01*
X261343Y197813D01*
X265259Y191953D01*
X271119Y188037D01*
X278032Y186662D01*
X284945Y188037D01*
X290805Y191953D01*
X305132Y193325D01*
X351998Y146458D01*
Y134743D01*
X351998Y134743D01*
X352915Y130134D01*
X355526Y126228D01*
X423044Y58709D01*
X423044Y58709D01*
X426951Y56099D01*
X431559Y55182D01*
X442711D01*
X442912Y55149D01*
X443166Y55087D01*
X443358Y55024D01*
X443501Y54964D01*
X443517Y54956D01*
X443853Y54452D01*
X449714Y50536D01*
X456626Y49161D01*
X463539Y50536D01*
X469399Y54451D01*
X483742Y55906D01*
X515606Y24042D01*
X510635Y12042D01*
X79957D01*
X74039Y24042D01*
X77198Y28159D01*
X81561Y38694D01*
X83050Y49999D01*
X81561Y61304D01*
X77198Y71839D01*
X73882Y76160D01*
X43545Y45823D01*
X35193Y54175D01*
X65530Y84512D01*
X61209Y87828D01*
X50674Y92191D01*
X39369Y93680D01*
X28064Y92191D01*
X24042Y90526D01*
X14484Y96495D01*
X14691Y107407D01*
X24823Y113410D01*
X29091Y111642D01*
X39369Y110289D01*
X49647Y111642D01*
X59224Y115609D01*
X67448Y121920D01*
X73759Y130144D01*
X77726Y139721D01*
X79079Y149999D01*
X77726Y160276D01*
X73759Y169854D01*
X67448Y178078D01*
X59224Y184388D01*
X49647Y188356D01*
X39369Y189709D01*
X29091Y188356D01*
X24042Y186264D01*
X12042Y192596D01*
Y207409D01*
X24042Y213738D01*
X29095Y211645D01*
X39372Y210292D01*
X49650Y211645D01*
X59227Y215613D01*
X67451Y221923D01*
X73762Y230147D01*
X77729Y239725D01*
X79082Y250002D01*
X77729Y260280D01*
X73762Y269857D01*
X67451Y278081D01*
X59227Y284392D01*
X49650Y288359D01*
X39372Y289712D01*
X29095Y288359D01*
X24042Y286266D01*
X12042Y292596D01*
Y307409D01*
X24042Y313738D01*
X29095Y311646D01*
X39372Y310292D01*
X49650Y311646D01*
X59227Y315613D01*
X67451Y321923D01*
X73762Y330147D01*
X77729Y339724D01*
X79082Y350002D01*
X77729Y360280D01*
X73762Y369857D01*
X67451Y378081D01*
X59227Y384392D01*
X49650Y388359D01*
X39372Y389712D01*
X29095Y388359D01*
X24042Y386266D01*
X12042Y392596D01*
Y407409D01*
X24042Y413738D01*
X29095Y411646D01*
X39372Y410292D01*
X49650Y411646D01*
X59227Y415613D01*
X67451Y421923D01*
X73762Y430147D01*
X77729Y439724D01*
X79082Y450002D01*
X77729Y460280D01*
X73762Y469857D01*
X67451Y478081D01*
X59227Y484392D01*
X49650Y488359D01*
X39372Y489712D01*
X29095Y488359D01*
X24042Y486266D01*
X12042Y492596D01*
Y507409D01*
X24042Y513738D01*
X29095Y511646D01*
X39372Y510292D01*
X49650Y511646D01*
X59227Y515612D01*
X67451Y521923D01*
X73762Y530147D01*
X77729Y539725D01*
X79082Y550002D01*
X77729Y560280D01*
X73762Y569857D01*
X67451Y578081D01*
X59227Y584392D01*
X49650Y588359D01*
X39372Y589712D01*
X29095Y588359D01*
X24042Y586266D01*
X12042Y592596D01*
Y607409D01*
X24042Y613738D01*
X29095Y611645D01*
X39372Y610292D01*
X49650Y611645D01*
X59227Y615612D01*
X67451Y621923D01*
X73762Y630147D01*
X77729Y639725D01*
X79082Y650002D01*
X77729Y660280D01*
X73762Y669857D01*
X67451Y678081D01*
X59227Y684392D01*
X49650Y688359D01*
X39372Y689712D01*
X29095Y688359D01*
X24042Y686266D01*
X12042Y692596D01*
Y707409D01*
X24042Y713738D01*
X29095Y711645D01*
X39372Y710292D01*
X49650Y711645D01*
X59227Y715612D01*
X67451Y721923D01*
X73762Y730147D01*
X77729Y739725D01*
X79082Y750002D01*
X77729Y760280D01*
X73762Y769857D01*
X67451Y778081D01*
X59227Y784392D01*
X49650Y788359D01*
X39372Y789712D01*
X29095Y788359D01*
X24042Y786266D01*
X12042Y792596D01*
Y807409D01*
X24042Y813738D01*
X29095Y811645D01*
X39372Y810292D01*
X49650Y811645D01*
X59227Y815612D01*
X67451Y821923D01*
X73762Y830147D01*
X77729Y839725D01*
X79082Y850002D01*
X77729Y860280D01*
X73762Y869857D01*
X67451Y878081D01*
X59227Y884392D01*
X49650Y888359D01*
X39372Y889712D01*
X29095Y888359D01*
X24042Y886266D01*
X12042Y892596D01*
Y907409D01*
X24042Y913738D01*
X29095Y911645D01*
X39372Y910292D01*
X49650Y911645D01*
X59227Y915612D01*
X67451Y921923D01*
X73762Y930147D01*
X77729Y939725D01*
X79082Y950002D01*
X77729Y960280D01*
X73762Y969857D01*
X67451Y978081D01*
X59227Y984392D01*
X49650Y988359D01*
X39372Y989712D01*
X29095Y988359D01*
X24042Y986266D01*
X12042Y992596D01*
Y1007409D01*
X24042Y1013738D01*
X29095Y1011645D01*
X39372Y1010292D01*
X49650Y1011645D01*
X59227Y1015612D01*
X67451Y1021923D01*
X73762Y1030147D01*
X77729Y1039725D01*
X79082Y1050002D01*
X78804Y1052110D01*
X78820Y1052191D01*
X78785Y1052369D01*
X78812Y1052548D01*
X78688Y1055347D01*
X78943Y1056472D01*
X82015Y1060147D01*
X95559Y1060862D01*
X101419Y1056946D01*
X108332Y1055571D01*
X115244Y1056946D01*
X121105Y1060862D01*
X125020Y1066722D01*
X126395Y1073635D01*
X125020Y1080547D01*
X121105Y1086407D01*
X119006Y1100599D01*
X123508Y1106389D01*
X198415D01*
X205151Y1095150D01*
D02*
G37*
G36*
X332111Y619664D02*
X334113Y606507D01*
X321992Y594385D01*
X319715Y593365D01*
X308571Y591876D01*
X306949Y592238D01*
X304784Y593684D01*
X297872Y595059D01*
X296571Y596349D01*
X296790Y601411D01*
X304620Y609620D01*
X311533Y610995D01*
X317393Y614911D01*
X321308Y620771D01*
X332111Y619664D01*
D02*
G37*
G36*
X282392Y412259D02*
X282491Y411450D01*
X282662Y410653D01*
X282904Y409868D01*
X283218Y409095D01*
X283603Y408334D01*
X284061Y407584D01*
X284589Y406847D01*
X285189Y406122D01*
X285861Y405408D01*
X280293Y399840D01*
X279580Y400512D01*
X278854Y401112D01*
X278117Y401641D01*
X277368Y402098D01*
X276606Y402483D01*
X275833Y402797D01*
X275048Y403039D01*
X274251Y403210D01*
X273442Y403309D01*
X272621Y403337D01*
X282365Y413080D01*
X282392Y412259D01*
D02*
G37*
G36*
X251090Y398554D02*
X250588Y397912D01*
X250145Y397228D01*
X249762Y396501D01*
X249437Y395733D01*
X249171Y394922D01*
X248964Y394069D01*
X248817Y393174D01*
X248728Y392236D01*
X248698Y391257D01*
X240825D01*
X240795Y392236D01*
X240706Y393174D01*
X240559Y394069D01*
X240352Y394922D01*
X240086Y395733D01*
X239762Y396501D01*
X239378Y397228D01*
X238935Y397912D01*
X238433Y398554D01*
X237872Y399154D01*
X251651D01*
X251090Y398554D01*
D02*
G37*
G36*
X241176Y339151D02*
X240742Y338456D01*
X240359Y337727D01*
X240027Y336962D01*
X239746Y336163D01*
X239517Y335329D01*
X239338Y334460D01*
X239210Y333556D01*
X239134Y332617D01*
X239108Y331644D01*
X231234Y330572D01*
X231202Y331559D01*
X231104Y332494D01*
X230942Y333377D01*
X230715Y334208D01*
X230422Y334988D01*
X230065Y335716D01*
X229643Y336392D01*
X229156Y337017D01*
X228604Y337590D01*
X227987Y338111D01*
X241661Y339810D01*
X241176Y339151D01*
D02*
G37*
G36*
X1049447Y316897D02*
X1049260Y316252D01*
X1049184Y315595D01*
X1049217Y314926D01*
X1049359Y314245D01*
X1049611Y313553D01*
X1049973Y312849D01*
X1050444Y312133D01*
X1051025Y311406D01*
X1051715Y310667D01*
X1042534Y308712D01*
X1041778Y309459D01*
X1038112Y312678D01*
X1037646Y313005D01*
X1036838Y313478D01*
X1049742Y317531D01*
X1049447Y316897D01*
D02*
G37*
G36*
X212158Y299833D02*
X211486Y299120D01*
X210886Y298394D01*
X210357Y297657D01*
X209900Y296908D01*
X209515Y296146D01*
X209201Y295373D01*
X208959Y294588D01*
X208788Y293791D01*
X208689Y292982D01*
X208661Y292161D01*
X198918Y301905D01*
X199739Y301932D01*
X200548Y302031D01*
X201345Y302202D01*
X202130Y302444D01*
X202903Y302758D01*
X203665Y303143D01*
X204414Y303601D01*
X205151Y304129D01*
X205877Y304729D01*
X206590Y305401D01*
X212158Y299833D01*
D02*
G37*
G36*
X1027456Y287103D02*
X1026635Y287076D01*
X1025826Y286976D01*
X1025029Y286806D01*
X1024244Y286563D01*
X1023471Y286250D01*
X1022710Y285864D01*
X1021961Y285407D01*
X1021223Y284879D01*
X1020498Y284279D01*
X1019784Y283607D01*
X1014216Y289175D01*
X1014888Y289888D01*
X1015488Y290613D01*
X1016017Y291351D01*
X1016474Y292100D01*
X1016859Y292861D01*
X1017173Y293635D01*
X1017415Y294420D01*
X1017586Y295217D01*
X1017685Y296026D01*
X1017713Y296847D01*
X1027456Y287103D01*
D02*
G37*
G36*
X1001195Y236180D02*
X1000643Y236779D01*
X1000043Y237315D01*
X999396Y237788D01*
X998700Y238197D01*
X997956Y238544D01*
X997165Y238828D01*
X996325Y239048D01*
X995437Y239206D01*
X994501Y239301D01*
X993517Y239332D01*
X994194Y247206D01*
X995170Y247233D01*
X996108Y247315D01*
X997009Y247450D01*
X997873Y247640D01*
X998700Y247884D01*
X999490Y248182D01*
X1000242Y248535D01*
X1000957Y248941D01*
X1001635Y249402D01*
X1002276Y249917D01*
X1001195Y236180D01*
D02*
G37*
G36*
X984475Y208285D02*
X983654Y208258D01*
X982845Y208159D01*
X982048Y207988D01*
X981262Y207745D01*
X980489Y207432D01*
X979728Y207046D01*
X978979Y206589D01*
X978241Y206061D01*
X977516Y205460D01*
X976802Y204789D01*
X971235Y210357D01*
X971906Y211070D01*
X972506Y211795D01*
X973035Y212533D01*
X973492Y213282D01*
X973878Y214043D01*
X974191Y214817D01*
X974434Y215602D01*
X974604Y216399D01*
X974703Y217208D01*
X974731Y218029D01*
X984475Y208285D01*
D02*
G37*
G36*
X1015853Y211648D02*
X1018553Y207857D01*
Y206839D01*
X982642Y170928D01*
X982641Y170928D01*
X982641Y170927D01*
X963629Y151914D01*
X963464Y151797D01*
X963240Y151660D01*
X963059Y151568D01*
X962917Y151511D01*
X962899Y151505D01*
X962304Y151623D01*
X955392Y150248D01*
X949531Y146333D01*
X945616Y140472D01*
X944241Y133560D01*
X945616Y126647D01*
X949531Y120787D01*
X946963Y108070D01*
X945133Y105779D01*
X779426D01*
X775681Y116438D01*
X775643Y117469D01*
X784339Y125320D01*
X791251Y126695D01*
X797111Y130611D01*
X801015Y136453D01*
X801140Y136504D01*
X813509Y137710D01*
X815409Y134866D01*
X821269Y130951D01*
X828182Y129576D01*
X835095Y130951D01*
X840955Y134866D01*
X844870Y140727D01*
X846245Y147639D01*
X846129Y148227D01*
X854412Y160228D01*
X938715D01*
X938716Y160227D01*
X943324Y161144D01*
X947231Y163755D01*
X971288Y187811D01*
X971288Y187811D01*
X971288Y187812D01*
X983249Y199772D01*
X983413Y199890D01*
X983637Y200027D01*
X983818Y200119D01*
X983960Y200176D01*
X983978Y200182D01*
X984573Y200064D01*
X991486Y201439D01*
X997346Y205354D01*
X1001261Y211214D01*
X1001874Y214295D01*
X1007509Y216719D01*
X1015853Y211648D01*
D02*
G37*
G36*
X732788Y173872D02*
X730643Y165690D01*
X725444Y169803D01*
X731012Y175370D01*
X732788Y173872D01*
D02*
G37*
G36*
X975643Y141330D02*
X974971Y140617D01*
X974371Y139891D01*
X973842Y139154D01*
X973385Y138405D01*
X973000Y137643D01*
X972686Y136870D01*
X972443Y136085D01*
X972273Y135288D01*
X972174Y134479D01*
X972146Y133658D01*
X962403Y143402D01*
X963224Y143429D01*
X964033Y143528D01*
X964830Y143699D01*
X965615Y143941D01*
X966388Y144255D01*
X967149Y144640D01*
X967899Y145097D01*
X968636Y145626D01*
X969361Y146226D01*
X970075Y146898D01*
X975643Y141330D01*
D02*
G37*
G36*
X784146Y133543D02*
X783325Y133523D01*
X782516Y133430D01*
X781719Y133266D01*
X780934Y133028D01*
X780161Y132718D01*
X779400Y132336D01*
X778650Y131882D01*
X777912Y131355D01*
X777186Y130755D01*
X776472Y130083D01*
X770963Y135709D01*
X771635Y136422D01*
X772235Y137147D01*
X772766Y137884D01*
X773225Y138633D01*
X773614Y139394D01*
X773932Y140167D01*
X774179Y140952D01*
X774355Y141749D01*
X774461Y142558D01*
X774496Y143380D01*
X784146Y133543D01*
D02*
G37*
G36*
X717190Y142997D02*
X717770Y131503D01*
X711796Y125194D01*
X698162Y125902D01*
X692673Y133560D01*
X701743Y144796D01*
X715391D01*
X717190Y142997D01*
D02*
G37*
G36*
X430175Y127112D02*
X430901Y126511D01*
X431638Y125983D01*
X432387Y125526D01*
X433149Y125140D01*
X433922Y124827D01*
X434707Y124584D01*
X435504Y124414D01*
X436313Y124314D01*
X437134Y124287D01*
X427390Y114543D01*
X427363Y115364D01*
X427264Y116173D01*
X427093Y116970D01*
X426851Y117755D01*
X426537Y118529D01*
X426151Y119290D01*
X425694Y120039D01*
X425166Y120777D01*
X424566Y121502D01*
X423894Y122216D01*
X429462Y127783D01*
X430175Y127112D01*
D02*
G37*
G36*
X992023Y102064D02*
X991202Y102037D01*
X990394Y101938D01*
X989596Y101767D01*
X988811Y101525D01*
X988038Y101211D01*
X987277Y100825D01*
X986528Y100368D01*
X985790Y99840D01*
X985065Y99240D01*
X984351Y98568D01*
X978783Y104135D01*
X979455Y104849D01*
X980055Y105574D01*
X980584Y106312D01*
X981041Y107061D01*
X981426Y107822D01*
X981740Y108596D01*
X981982Y109381D01*
X982153Y110178D01*
X982252Y110987D01*
X982280Y111808D01*
X992023Y102064D01*
D02*
G37*
G36*
X1019582Y98127D02*
X1018761Y98100D01*
X1017952Y98001D01*
X1017155Y97830D01*
X1016370Y97588D01*
X1015597Y97274D01*
X1014836Y96888D01*
X1014087Y96431D01*
X1013349Y95903D01*
X1012624Y95302D01*
X1011910Y94631D01*
X1006342Y100198D01*
X1007014Y100912D01*
X1007614Y101637D01*
X1008143Y102375D01*
X1008600Y103124D01*
X1008985Y103885D01*
X1009299Y104659D01*
X1009542Y105444D01*
X1009712Y106241D01*
X1009811Y107050D01*
X1009839Y107871D01*
X1019582Y98127D01*
D02*
G37*
G36*
X1047772Y87371D02*
X1046999Y87516D01*
X1046232Y87570D01*
X1045470Y87532D01*
X1044713Y87403D01*
X1043961Y87182D01*
X1043215Y86870D01*
X1042473Y86467D01*
X1041737Y85972D01*
X1041005Y85385D01*
X1040279Y84707D01*
X1036162Y91726D01*
X1036834Y92428D01*
X1038021Y93855D01*
X1038535Y94579D01*
X1038998Y95312D01*
X1039408Y96052D01*
X1039766Y96801D01*
X1040071Y97556D01*
X1040325Y98320D01*
X1040525Y99091D01*
X1047772Y87371D01*
D02*
G37*
G36*
X1099576Y79861D02*
X1098927Y79418D01*
X1098346Y78913D01*
X1097834Y78348D01*
X1097390Y77721D01*
X1097015Y77034D01*
X1096707Y76285D01*
X1096468Y75475D01*
X1096297Y74605D01*
X1096195Y73673D01*
X1096161Y72680D01*
X1088287Y74732D01*
X1088266Y75703D01*
X1088096Y77551D01*
X1087947Y78428D01*
X1087756Y79273D01*
X1087523Y80086D01*
X1087247Y80868D01*
X1086928Y81619D01*
X1086568Y82338D01*
X1086164Y83025D01*
X1099576Y79861D01*
D02*
G37*
G36*
X1056574Y64420D02*
X1055974Y64981D01*
X1055332Y65483D01*
X1054648Y65926D01*
X1053921Y66310D01*
X1053153Y66635D01*
X1052342Y66900D01*
X1051489Y67107D01*
X1050594Y67255D01*
X1049656Y67343D01*
X1048677Y67373D01*
Y75247D01*
X1049656Y75276D01*
X1050594Y75365D01*
X1051489Y75512D01*
X1052342Y75719D01*
X1053153Y75985D01*
X1053921Y76310D01*
X1054648Y76694D01*
X1055332Y77136D01*
X1055974Y77638D01*
X1056574Y78199D01*
Y64420D01*
D02*
G37*
G36*
X449597Y60335D02*
X448997Y60896D01*
X448355Y61398D01*
X447671Y61841D01*
X446944Y62224D01*
X446176Y62549D01*
X445365Y62815D01*
X444512Y63022D01*
X443617Y63169D01*
X442679Y63258D01*
X441700Y63287D01*
Y71161D01*
X442679Y71191D01*
X443617Y71279D01*
X444512Y71427D01*
X445365Y71634D01*
X446176Y71900D01*
X446944Y72224D01*
X447671Y72608D01*
X448355Y73051D01*
X448997Y73553D01*
X449597Y74114D01*
Y60335D01*
D02*
G37*
%LPC*%
G36*
X612008Y638903D02*
X605096Y637528D01*
X599235Y633613D01*
X595320Y627752D01*
X593945Y620840D01*
X595320Y613927D01*
X599235Y608067D01*
X605096Y604151D01*
X612008Y602776D01*
X618921Y604151D01*
X624781Y608067D01*
X628697Y613927D01*
X630072Y620840D01*
X628697Y627752D01*
X624781Y633613D01*
X618921Y637528D01*
X612008Y638903D01*
D02*
G37*
G36*
X887322Y597505D02*
X880409Y596130D01*
X874549Y592214D01*
X870634Y586354D01*
X869259Y579442D01*
X870634Y572529D01*
X874549Y566669D01*
X880409Y562753D01*
X887322Y561378D01*
X894235Y562753D01*
X900095Y566669D01*
X904011Y572529D01*
X905386Y579442D01*
X904011Y586354D01*
X900095Y592214D01*
X894235Y596130D01*
X887322Y597505D01*
D02*
G37*
G36*
X796978Y555463D02*
X790066Y554088D01*
X784205Y550173D01*
X780290Y544312D01*
X778915Y537400D01*
X780290Y530487D01*
X784205Y524627D01*
X790066Y520711D01*
X796978Y519336D01*
X803891Y520711D01*
X809751Y524627D01*
X813667Y530487D01*
X815042Y537400D01*
X813667Y544312D01*
X809751Y550173D01*
X803891Y554088D01*
X796978Y555463D01*
D02*
G37*
G36*
X772417Y510605D02*
X765505Y509230D01*
X759644Y505314D01*
X755729Y499454D01*
X754354Y492541D01*
X755729Y485628D01*
X759644Y479768D01*
X765505Y475853D01*
X772417Y474478D01*
X779330Y475853D01*
X785190Y479768D01*
X789106Y485628D01*
X790481Y492541D01*
X789106Y499454D01*
X785190Y505314D01*
X779330Y509230D01*
X772417Y510605D01*
D02*
G37*
G36*
X550064Y427163D02*
X543151Y425788D01*
X537291Y421872D01*
X533375Y416012D01*
X532000Y409099D01*
X533375Y402187D01*
X537291Y396327D01*
X543151Y392411D01*
X550064Y391036D01*
X556977Y392411D01*
X562837Y396327D01*
X566753Y402187D01*
X568128Y409099D01*
X566753Y416012D01*
X562837Y421872D01*
X556977Y425788D01*
X550064Y427163D01*
D02*
G37*
G36*
X204206Y490337D02*
X197293Y488962D01*
X191433Y485047D01*
X187517Y479187D01*
X186142Y472274D01*
X187517Y465361D01*
X191433Y459501D01*
X197293Y455585D01*
X204206Y454210D01*
X211119Y455585D01*
X216979Y459501D01*
X220895Y465361D01*
X222270Y472274D01*
X220895Y479187D01*
X216979Y485047D01*
X211119Y488962D01*
X204206Y490337D01*
D02*
G37*
G36*
X280711Y156129D02*
X273517Y155182D01*
X266813Y152405D01*
X261056Y147987D01*
X256639Y142231D01*
X253862Y135526D01*
X252915Y128332D01*
X253862Y121138D01*
X256639Y114434D01*
X261056Y108677D01*
X282941Y86792D01*
X283065Y85846D01*
X285842Y79142D01*
X290260Y73385D01*
X296017Y68968D01*
X302721Y66191D01*
X309915Y65244D01*
X317109Y66191D01*
X323813Y68968D01*
X329570Y73385D01*
X333988Y79142D01*
X336765Y85846D01*
X337712Y93041D01*
Y99128D01*
X336765Y106323D01*
X333988Y113027D01*
X329570Y118784D01*
X300367Y147987D01*
X294610Y152405D01*
X287906Y155182D01*
X280711Y156129D01*
D02*
G37*
%LPD*%
D10*
X281463Y872273D02*
X352024Y942834D01*
Y960876D01*
X359322Y968174D01*
X369067D01*
X384168Y983275D01*
D11*
X49289Y1140085D02*
X115338D01*
X39372Y1150002D02*
X49289Y1140085D01*
X439842Y1013287D02*
Y1161032D01*
X467189Y1188379D01*
X467786D01*
X74171Y1084801D02*
Y1085095D01*
X102671Y1113596D01*
X39372Y1050002D02*
X74171Y1084801D01*
D12*
X1243154Y33231D02*
X1276052D01*
X1292821Y50001D01*
X1299213D01*
X309915Y93041D02*
Y99128D01*
X280711Y128332D02*
X309915Y99128D01*
D13*
X107507Y1118432D02*
X222302D01*
X293720Y266309D02*
X395537Y164492D01*
X278243Y237244D02*
X364041Y151446D01*
Y134743D02*
X431559Y67224D01*
X379789Y141266D02*
Y157969D01*
X395537Y156140D02*
X437232Y114445D01*
X379789Y141266D02*
X428263Y92791D01*
X284766Y252992D02*
X379789Y157969D01*
X364041Y134743D02*
Y151446D01*
X395537Y156140D02*
Y164492D01*
X565836Y150090D02*
X634744D01*
X645167Y126983D02*
X651744Y133560D01*
X389042Y304613D02*
X566673Y126983D01*
X651744Y133560D02*
X674610D01*
X634744Y150090D02*
X636198Y148636D01*
X566673Y126983D02*
X645167D01*
X463887Y92791D02*
X527727Y28951D01*
X373294Y298090D02*
X561837Y109547D01*
X544124Y60447D02*
X1006909D01*
X527727Y28951D02*
X1019955D01*
X561837Y109547D02*
X717721D01*
X326050Y278521D02*
X544124Y60447D01*
X1019955Y28951D02*
X1037559Y46555D01*
X555376Y93737D02*
X973952D01*
X1006909Y60447D02*
X1033520Y87058D01*
X357546Y291567D02*
X555376Y93737D01*
X1013432Y44699D02*
X1040043Y71310D01*
X537601Y44699D02*
X1013432D01*
X579163Y77989D02*
X989700D01*
X310302Y271998D02*
X537601Y44699D01*
X989700Y77989D02*
X1019681Y107969D01*
X341798Y285044D02*
X548853Y77989D01*
X973952Y93737D02*
X992122Y111906D01*
X548853Y77989D02*
X579163D01*
X717721Y109547D02*
X734156Y125982D01*
X564777Y1048443D02*
Y1076589D01*
X590552Y1102363D01*
X526667Y1010333D02*
X564777Y1048443D01*
X230880Y751073D02*
X281509Y700445D01*
X120079Y751073D02*
X230880D01*
X214702Y872273D02*
X281463D01*
X126068Y839728D02*
X182157D01*
X214702Y872273D01*
X399791Y814390D02*
X413325Y827923D01*
X435841D01*
X484803Y793614D02*
Y799943D01*
X465154Y773966D02*
X484803Y793614D01*
X378539Y780428D02*
Y793952D01*
X464972Y796055D02*
Y804161D01*
X435841Y827923D02*
X456510Y848593D01*
X455659Y756120D02*
Y759316D01*
X433859Y702325D02*
Y764942D01*
X398976Y814390D02*
X399791D01*
X465154Y768810D02*
Y773966D01*
X362019Y877871D02*
X400584D01*
X418111Y771465D02*
X449224Y802578D01*
X342498Y858350D02*
X362019Y877871D01*
X455659Y759316D02*
X465154Y768810D01*
X378539Y793952D02*
X398976Y814390D01*
X418111Y708848D02*
Y771465D01*
X433859Y764942D02*
X464972Y796055D01*
X400584Y877871D02*
X460135Y937422D01*
X449224Y802578D02*
Y810684D01*
X342498Y740799D02*
Y858350D01*
X401754Y714763D02*
Y786545D01*
X402399Y787190D01*
X706208Y1188976D02*
X711987D01*
X480962Y1220787D02*
X498192Y1203558D01*
X691627D02*
X706208Y1188976D01*
X498192Y1203558D02*
X691627D01*
X436286Y324182D02*
Y403893D01*
X373294Y298090D02*
Y377801D01*
X420538Y317659D02*
Y397370D01*
X341798Y285044D02*
Y364755D01*
X436286Y324182D02*
X574177Y186291D01*
X467782Y337228D02*
X587223Y217787D01*
X452034Y330705D02*
X580700Y202039D01*
X483530Y343751D02*
X585759Y241522D01*
X277264Y354124D02*
X293720Y337668D01*
X420538Y317659D02*
X567654Y170543D01*
X419413Y420765D02*
X436286Y403893D01*
X404790Y311136D02*
X565836Y150090D01*
X356421Y394673D02*
X373294Y377801D01*
X310302Y271998D02*
Y351709D01*
X357546Y291567D02*
Y371278D01*
X340673Y388150D02*
X357546Y371278D01*
X404790Y311136D02*
Y390847D01*
X290591Y371420D02*
X310302Y351709D01*
X483530Y343751D02*
Y423462D01*
X293720Y266309D02*
Y337668D01*
X389042Y304613D02*
Y384324D01*
X387918Y407719D02*
X404790Y390847D01*
X467782Y337228D02*
Y416939D01*
X309178Y375104D02*
X326050Y358232D01*
X467786Y439206D02*
X483530Y423462D01*
X372170Y401196D02*
X389042Y384324D01*
X452034Y330705D02*
Y410416D01*
X403666Y414242D02*
X420538Y397370D01*
X324925Y381627D02*
X341798Y364755D01*
X326050Y278521D02*
Y358232D01*
X452038Y432683D02*
X467782Y416939D01*
X435161Y427288D02*
X452034Y410416D01*
X233958Y824924D02*
X275671Y783211D01*
X320844D01*
X233958Y824924D02*
Y826443D01*
X144464Y664702D02*
X158553Y678792D01*
X319491D01*
X115338Y1140085D02*
X115338Y1140085D01*
X102671Y1113596D02*
X107507Y1118432D01*
X115338Y1140085D02*
X231726D01*
X250004Y1121808D01*
X420764Y1123565D02*
Y1187411D01*
X385290Y1088091D02*
X385290D01*
X420764Y1123565D01*
X384168Y1030519D02*
X385290Y1031642D01*
Y1088091D01*
X221928D02*
X385290D01*
X520133Y835274D02*
Y849317D01*
X484803Y799943D02*
X520133Y835274D01*
X110237Y849116D02*
X116680D01*
X126068Y839728D01*
X423764Y936031D02*
X437672Y949939D01*
X436830Y960007D02*
X437672Y959165D01*
Y949939D02*
Y959165D01*
X384168Y936031D02*
X423764D01*
X399916Y1014771D02*
X408745D01*
X460135Y937422D02*
Y967589D01*
X444449Y983275D02*
X460135Y967589D01*
X418188Y1004318D02*
Y1005328D01*
X439232Y983275D02*
X444449D01*
X384168Y1030519D02*
X399916Y1014771D01*
X408745D02*
X418188Y1005328D01*
Y1004318D02*
X439232Y983275D01*
X340877Y739177D02*
X342498Y740799D01*
X328460Y700445D02*
X346454Y682452D01*
X281509Y700445D02*
X328460D01*
X302360Y625424D02*
X304620Y627684D01*
X346454Y639464D02*
Y682452D01*
X368420Y623783D02*
Y703699D01*
X384168Y612133D02*
Y697176D01*
X399916Y605610D02*
Y690653D01*
X415664Y591749D02*
Y684130D01*
X437317Y631425D02*
X437457Y631285D01*
X467786Y439206D02*
Y700742D01*
X378539Y780428D02*
X385290Y773676D01*
X569974Y797894D02*
X570863Y798783D01*
X385290Y720569D02*
Y773676D01*
X368420Y703699D02*
X385290Y720569D01*
X384168Y697176D02*
X401754Y714763D01*
X399916Y690653D02*
X418111Y708848D01*
X415664Y684130D02*
X433859Y702325D01*
X449224Y810684D02*
X478164Y839624D01*
X480472Y857646D02*
X482732Y859906D01*
X504385Y850937D02*
Y876669D01*
X496085Y842637D02*
X504385Y850937D01*
X496085Y835274D02*
Y842637D01*
X464972Y804161D02*
X496085Y835274D01*
X527556Y856740D02*
Y859936D01*
X520133Y849317D02*
X527556Y856740D01*
X475882Y924769D02*
Y1075493D01*
X480475Y1080085D01*
X431215Y880101D02*
X475882Y924769D01*
X431215Y862264D02*
X432098Y861381D01*
X431215Y862264D02*
Y880101D01*
X478164Y846987D02*
X480472Y849295D01*
X478164Y839624D02*
Y846987D01*
X570863Y798783D02*
Y996520D01*
X443601Y537605D02*
Y540240D01*
X429594Y520377D02*
X435161Y514810D01*
X427310Y520377D02*
X429594D01*
X417522Y530165D02*
X427310Y520377D01*
X443601Y537605D02*
X452038Y529168D01*
X435161Y427288D02*
Y514810D01*
X452038Y432683D02*
Y529168D01*
X392673Y547015D02*
X404414Y558756D01*
X376925Y553538D02*
X397891Y574504D01*
X291594Y469833D02*
X324925Y436501D01*
X361177Y566871D02*
X399916Y605610D01*
X345429Y573394D02*
X384168Y612133D01*
X323090Y484385D02*
X356421Y451054D01*
X329681Y585044D02*
X368420Y623783D01*
X275846Y610713D02*
X290558Y625424D01*
X275846Y458883D02*
X309178Y425552D01*
X260098Y626908D02*
X283151Y649961D01*
X392673Y521196D02*
X419413Y494455D01*
X392673Y521196D02*
Y547015D01*
X376925Y514673D02*
Y553538D01*
X361177Y508150D02*
Y566871D01*
X323090Y484385D02*
Y512899D01*
X345429Y535238D01*
Y573394D01*
X307342Y476356D02*
X313620Y470078D01*
X307342Y476356D02*
Y519422D01*
X329681Y541761D01*
Y585044D01*
X291594Y469833D02*
Y534297D01*
X275846Y458883D02*
Y610713D01*
X260098Y452142D02*
Y626908D01*
X347921Y494049D02*
X372170Y469801D01*
X344744Y494049D02*
X347921D01*
X403666Y414242D02*
Y487932D01*
X376925Y514673D02*
X403666Y487932D01*
X414326Y530165D02*
X417522D01*
X212304Y404348D02*
X260098Y452142D01*
X419413Y420765D02*
Y494455D01*
X291594Y534297D02*
X308027Y550730D01*
X387918Y407719D02*
Y481409D01*
X361177Y508150D02*
X387918Y481409D01*
X437457Y591271D02*
Y631285D01*
X297969Y649961D02*
X320844D01*
X504385Y876669D02*
X513704Y885988D01*
Y886109D01*
X585759Y241522D02*
X607622D01*
X661614Y202039D02*
X670480Y193174D01*
X574177Y186291D02*
X655091D01*
X668137Y217787D02*
X673539Y212385D01*
X655091Y186291D02*
X668796Y172586D01*
X587223Y217787D02*
X668137D01*
X580700Y202039D02*
X661614D01*
X607622Y241522D02*
X609703Y239441D01*
X648568Y170543D02*
X662273Y156838D01*
X567654Y170543D02*
X648568D01*
X641675Y1081498D02*
X646127D01*
X652719Y1088091D01*
X655915D01*
X597856Y1037679D02*
X641675Y1081498D01*
X597856Y860325D02*
Y1037679D01*
Y860325D02*
X653006Y805174D01*
X420764Y1187411D02*
X441842Y1208488D01*
X442310D01*
X454610Y1220787D02*
X480962D01*
X442310Y1208488D02*
X454610Y1220787D01*
X297969Y649961D02*
X297969Y649961D01*
X283151Y649961D02*
X297969D01*
X467786Y700742D02*
X474648Y707604D01*
Y710800D01*
X1009899Y279290D02*
X1027555Y296945D01*
X907775Y212385D02*
X974680Y279290D01*
X1009899D01*
X480472Y849295D02*
Y857646D01*
X212304Y305547D02*
Y404348D01*
X250123Y268039D02*
Y309432D01*
X233958Y345936D02*
X235171Y344723D01*
X244762Y367164D02*
X255611Y356314D01*
X235171Y324414D02*
Y344723D01*
X198820Y292063D02*
X212304Y305547D01*
X309178Y375104D02*
Y425552D01*
X255611Y314921D02*
Y356314D01*
X356421Y394673D02*
Y451054D01*
X340673Y388150D02*
Y443024D01*
X250123Y309432D02*
X255611Y314921D01*
X324925Y381627D02*
Y436501D01*
X372170Y401196D02*
Y469801D01*
X290591Y371420D02*
Y395111D01*
X250123Y268039D02*
X265170Y252992D01*
X437232Y114445D02*
X437232D01*
X962773Y196327D02*
Y196327D01*
X782603Y172270D02*
X938716D01*
X962773Y196327D01*
X991157Y162412D02*
X991157D01*
X1030596Y201851D02*
Y264972D01*
X991157Y162412D02*
X1030596Y201851D01*
X232123Y263767D02*
X258647Y237244D01*
X232123Y263767D02*
Y321367D01*
X235171Y324414D01*
X728228Y172586D02*
X731027Y169788D01*
X732190Y145027D02*
X755420D01*
X731027Y169788D02*
X738053D01*
X740312Y167528D01*
X720379Y156838D02*
X732190Y145027D01*
X662273Y156838D02*
X720379D01*
X668796Y172586D02*
X728228D01*
X755420Y145027D02*
X768104Y157712D01*
Y157772D02*
X782603Y172270D01*
X768104Y157712D02*
Y157772D01*
X428263Y92791D02*
X463887D01*
X258647Y237244D02*
X278243D01*
X265170Y252992D02*
X284766D01*
X431559Y67224D02*
X456626D01*
X1037817Y318997D02*
X1041147Y322327D01*
X1037817Y318997D02*
X1050094Y306720D01*
X673539Y212385D02*
X907775D01*
X670480Y193174D02*
X922848D01*
X784205Y143383D02*
X784339D01*
X962304Y133560D02*
X991157Y162412D01*
X962773Y196327D02*
X984573Y218127D01*
X313620Y470078D02*
X340673Y443024D01*
X313620Y470078D02*
Y470078D01*
X272523Y413179D02*
X290591Y395111D01*
X244762Y367164D02*
Y406183D01*
X290558Y625424D02*
X302360D01*
X922848Y193174D02*
X972944Y243269D01*
X766803Y125982D02*
X784205Y143383D01*
X734156Y125982D02*
X766803D01*
X1069471Y46555D02*
X1092224Y69308D01*
X1033520Y87058D02*
X1037062D01*
X1046931Y96927D01*
X1050127D01*
X1092224Y69308D02*
Y86024D01*
X1094484Y88284D01*
X404414Y558756D02*
X404941D01*
X397891Y574504D02*
X398418D01*
X415664Y591749D01*
X404941Y558756D02*
X437457Y591271D01*
X1030596Y264972D02*
X1050094Y284470D01*
Y306720D01*
X1007971Y243269D02*
X1008743Y242497D01*
X1040043Y71310D02*
X1063603D01*
X1037559Y46555D02*
X1069471D01*
X972944Y243269D02*
X1007971D01*
D14*
X39372Y1228985D02*
D03*
X1243154Y91281D02*
D03*
D19*
X467786Y1188976D02*
D03*
D27*
X908038Y1170558D02*
D03*
X1159681D02*
D03*
D43*
X480475Y1080085D02*
D03*
Y1140085D02*
D03*
D45*
X271776Y280867D02*
Y300294D01*
Y280867D02*
X272067Y280576D01*
D46*
X623047Y937422D02*
Y981909D01*
X690945Y1049807D01*
Y1098690D01*
X629726Y1127953D02*
X643999Y1113681D01*
X579952Y1127953D02*
X629726D01*
X562982Y1110983D02*
X579952Y1127953D01*
X562982Y1107899D02*
Y1110983D01*
X532837Y1077753D02*
X562982Y1107899D01*
X687446Y1102189D02*
X726976Y1141719D01*
X481789Y1141399D02*
X531522D01*
X480475Y1140085D02*
X481789Y1141399D01*
X531522D02*
X532837Y1142714D01*
X643999Y1113681D02*
X675954D01*
X690945Y1098690D01*
D48*
X1283629Y1161576D02*
X1252143D01*
Y1177320D01*
X1257390Y1182567D01*
X1262638D01*
X1267886Y1177320D01*
Y1161576D01*
Y1177320D01*
X1273133Y1182567D01*
X1278381D01*
X1283629Y1177320D01*
Y1161576D01*
Y1208805D02*
Y1198310D01*
X1278381Y1193062D01*
X1257390D01*
X1252143Y1198310D01*
Y1208805D01*
X1257390Y1214053D01*
X1278381D01*
X1283629Y1208805D01*
Y1224548D02*
Y1245539D01*
Y1235044D01*
X1252143D01*
D50*
X39369Y49999D02*
D03*
Y149999D02*
D03*
X39372Y750002D02*
D03*
Y850002D02*
D03*
Y950002D02*
D03*
Y1050002D02*
D03*
Y650002D02*
D03*
Y550002D02*
D03*
Y450002D02*
D03*
Y350002D02*
D03*
Y250002D02*
D03*
X1299213Y350000D02*
D03*
Y450000D02*
D03*
Y550000D02*
D03*
Y650000D02*
D03*
Y250000D02*
D03*
Y150000D02*
D03*
Y50001D02*
D03*
D51*
X39372Y1150002D02*
D03*
X1299213Y750000D02*
D03*
D52*
X1248205Y139780D02*
D03*
X623906Y579844D02*
D03*
X342387Y142477D02*
D03*
X636198Y148636D02*
D03*
X168940Y864339D02*
D03*
X455659Y756120D02*
D03*
X422294Y806270D02*
D03*
X372047Y856217D02*
D03*
X390822Y836043D02*
D03*
X486807Y764996D02*
D03*
X402399Y787190D02*
D03*
X295585Y1038552D02*
D03*
X346766Y1039580D02*
D03*
X590774Y1225211D02*
D03*
X588038Y1161032D02*
D03*
X505183Y396347D02*
D03*
X590774Y282698D02*
D03*
X505183Y360043D02*
D03*
X331507Y970195D02*
D03*
X228812Y792402D02*
D03*
X233958Y826443D02*
D03*
X102984Y1163707D02*
D03*
X222302Y1118432D02*
D03*
X520630Y803278D02*
D03*
X110237Y849116D02*
D03*
X436830Y960007D02*
D03*
X320844Y783211D02*
D03*
X319247Y722099D02*
D03*
X319491Y678792D02*
D03*
X304620Y627684D02*
D03*
X346454Y639464D02*
D03*
X437317Y631425D02*
D03*
X340877Y739177D02*
D03*
X569974Y797894D02*
D03*
X533585Y757103D02*
D03*
X456510Y848593D02*
D03*
X439842Y1013287D02*
D03*
X482732Y859906D02*
D03*
X527556Y859936D02*
D03*
X432098Y861381D02*
D03*
X564482Y707426D02*
D03*
X443601Y540240D02*
D03*
X344744Y494049D02*
D03*
X308027Y550730D02*
D03*
X414326Y530165D02*
D03*
X612008Y620840D02*
D03*
X711137Y538681D02*
D03*
X654193Y475029D02*
D03*
X677191Y496414D02*
D03*
X204206Y472274D02*
D03*
X144847Y893056D02*
D03*
X502128Y734613D02*
D03*
X311440Y600982D02*
D03*
X297872Y576995D02*
D03*
X320844Y649961D02*
D03*
X491337Y669349D02*
D03*
X513704Y886109D02*
D03*
X532837Y639725D02*
D03*
X125020Y160228D02*
D03*
X727882Y1056301D02*
D03*
X1150081Y111906D02*
D03*
X1079725Y338745D02*
D03*
X1104595Y393802D02*
D03*
X1150081Y439723D02*
D03*
X1310518Y857857D02*
D03*
Y965068D02*
D03*
Y1179489D02*
D03*
X1113427Y696651D02*
D03*
Y726971D02*
D03*
Y763179D02*
D03*
Y792402D02*
D03*
Y827133D02*
D03*
Y865781D02*
D03*
Y902949D02*
D03*
X1113061Y940361D02*
D03*
X691096Y857937D02*
D03*
X690383Y899806D02*
D03*
X655915Y772927D02*
D03*
X736905Y628957D02*
D03*
X736725Y660536D02*
D03*
X736905Y691295D02*
D03*
Y722337D02*
D03*
Y756658D02*
D03*
Y792165D02*
D03*
Y829127D02*
D03*
Y862318D02*
D03*
Y900095D02*
D03*
Y935801D02*
D03*
X967007Y1039580D02*
D03*
X922768Y1040397D02*
D03*
X887104Y1040261D02*
D03*
X850352Y1039172D02*
D03*
X247813Y64700D02*
D03*
X356421Y61306D02*
D03*
X854712Y120329D02*
D03*
X571430Y451226D02*
D03*
X630791Y444163D02*
D03*
X819821Y565207D02*
D03*
X791723Y565054D02*
D03*
X764173Y565162D02*
D03*
X738340Y572273D02*
D03*
X736544Y983275D02*
D03*
X1020770Y470576D02*
D03*
X1022539Y522878D02*
D03*
Y556882D02*
D03*
X1044210Y579442D02*
D03*
X1065350Y598787D02*
D03*
X1085521Y620440D02*
D03*
X1107018Y642094D02*
D03*
X1113427Y667968D02*
D03*
X1139276Y968273D02*
D03*
X621601Y1016653D02*
D03*
X690945Y1012400D02*
D03*
X824521Y536451D02*
D03*
X796978Y537400D02*
D03*
X609703Y239441D02*
D03*
X550064Y409099D02*
D03*
X772417Y492541D02*
D03*
X590552Y1102363D02*
D03*
X690383Y1230006D02*
D03*
X726976Y1141719D02*
D03*
X655915Y1088091D02*
D03*
X773881Y1080763D02*
D03*
X660752Y836318D02*
D03*
X653006Y805174D02*
D03*
X526667Y1010333D02*
D03*
X623047Y937422D02*
D03*
X502128Y993241D02*
D03*
X899390Y980402D02*
D03*
X873668Y700665D02*
D03*
X189392Y248746D02*
D03*
X183071Y166789D02*
D03*
X570863Y996520D02*
D03*
X660439Y936581D02*
D03*
X1215289Y1144489D02*
D03*
Y1087478D02*
D03*
Y1171718D02*
D03*
Y1201500D02*
D03*
Y1230006D02*
D03*
Y1115983D02*
D03*
X1020009Y436406D02*
D03*
X1001425Y496812D02*
D03*
X875523Y824296D02*
D03*
X250004Y1121808D02*
D03*
X233958Y345936D02*
D03*
X277264Y354124D02*
D03*
X712073Y134522D02*
D03*
X740312Y167528D02*
D03*
X674610Y133560D02*
D03*
X437232Y114445D02*
D03*
X396712Y67224D02*
D03*
X221928Y1088091D02*
D03*
X887322Y130951D02*
D03*
X526667Y429264D02*
D03*
X1041147Y322327D02*
D03*
X887322Y579442D02*
D03*
X742280Y538681D02*
D03*
X784339Y143383D02*
D03*
X456626Y67224D02*
D03*
X962304Y133560D02*
D03*
X984573Y218127D02*
D03*
X198820Y292063D02*
D03*
X828182Y147639D02*
D03*
X271776Y300294D02*
D03*
X244762Y406183D02*
D03*
X272523Y413179D02*
D03*
X272067Y280576D02*
D03*
X564682Y668000D02*
D03*
X186314Y655561D02*
D03*
X78062Y394400D02*
D03*
X474648Y710800D02*
D03*
X1276942Y298904D02*
D03*
X1267717Y393802D02*
D03*
X78062Y103623D02*
D03*
X61209Y501917D02*
D03*
X67701Y701365D02*
D03*
X64606Y798809D02*
D03*
X64963Y901936D02*
D03*
X1310518Y1125883D02*
D03*
Y1233094D02*
D03*
Y1072278D02*
D03*
Y1018673D02*
D03*
Y911463D02*
D03*
Y804252D02*
D03*
X1090643Y1097539D02*
D03*
X1090860Y1130845D02*
D03*
Y1163995D02*
D03*
X1090643Y1197223D02*
D03*
Y1230451D02*
D03*
X968151Y1097539D02*
D03*
X967894Y1130845D02*
D03*
X966919Y1163995D02*
D03*
X968888Y1197223D02*
D03*
X968151Y1230451D02*
D03*
X1019681Y107969D02*
D03*
X1094484Y88284D02*
D03*
X1050127Y96927D02*
D03*
X992122Y111906D02*
D03*
X1027555Y296945D02*
D03*
X736905Y600982D02*
D03*
X108332Y1073635D02*
D03*
X121683Y562898D02*
D03*
X1181103Y905873D02*
D03*
Y862488D02*
D03*
X166657Y911765D02*
D03*
X120079Y751073D02*
D03*
X144464Y664702D02*
D03*
X197060Y62303D02*
D03*
X715109Y967813D02*
D03*
X119514Y1012572D02*
D03*
X121683Y487643D02*
D03*
Y314876D02*
D03*
X120851Y242497D02*
D03*
X168940Y620440D02*
D03*
X236489Y129667D02*
D03*
X202096Y127412D02*
D03*
X502087Y705936D02*
D03*
X690383Y934490D02*
D03*
X738345Y1015153D02*
D03*
X843930Y1197223D02*
D03*
Y1163995D02*
D03*
X1008743Y242497D02*
D03*
X1181103Y635204D02*
D03*
Y667036D02*
D03*
X1063603Y71310D02*
D03*
X1050127Y23853D02*
D03*
X1138266Y1006779D02*
D03*
X1150081Y225335D02*
D03*
X843930Y1130767D02*
D03*
X1146477Y62719D02*
D03*
X120851Y107143D02*
D03*
X309915Y93041D02*
D03*
X280711Y128332D02*
D03*
X278032Y204726D02*
D03*
X843930Y1230451D02*
D03*
X1220473Y33231D02*
D03*
X120851Y29287D02*
D03*
X301488Y26444D02*
D03*
X342865D02*
D03*
X704166Y691354D02*
D03*
X657003Y744378D02*
D03*
X843930Y1097539D02*
D03*
D53*
X467786Y1188976D02*
D03*
X711987D02*
D03*
X339371Y1214843D02*
D03*
X239371D02*
D03*
X289371D02*
D03*
X189371D02*
D03*
X139371D02*
D03*
D54*
X1036934Y360043D02*
D03*
D55*
X785584Y243104D02*
D03*
X832828Y290348D02*
D03*
X691096Y384836D02*
D03*
Y290348D02*
D03*
Y337592D02*
D03*
X785584Y290348D02*
D03*
X832828Y243104D02*
D03*
X738340D02*
D03*
X691096D02*
D03*
X738340Y384836D02*
D03*
Y337592D02*
D03*
Y290348D02*
D03*
X785584Y337592D02*
D03*
Y384836D02*
D03*
X832828D02*
D03*
Y337592D02*
D03*
D57*
X384168Y936031D02*
D03*
Y983275D02*
D03*
Y1030519D02*
D03*
D58*
X532837Y1142714D02*
D03*
Y1077753D02*
D03*
%TF.MD5,b68b9622bc6147910980a466b6e6ef0c*%
M02*
