%TF.GenerationSoftware,Altium Limited,Altium Designer,21.4.1 (30)*%
G04 Layer_Physical_Order=3*
G04 Layer_Color=16440176*
%FSLAX26Y26*%
%MOIN*%
%TF.SameCoordinates,A13BDBB0-CAD7-4838-8454-AA6E24CDD61A*%
%TF.FilePolarity,Positive*%
%TF.FileFunction,Copper,L3,Inr,Signal*%
%TF.Part,Single*%
G01*
G75*
%TA.AperFunction,Conductor*%
%ADD11C,0.011811*%
%ADD12C,0.039370*%
%ADD45C,0.019685*%
%ADD46C,0.015748*%
%ADD47C,0.009842*%
%TA.AperFunction,NonConductor*%
%ADD48C,0.007874*%
%TA.AperFunction,ComponentPad*%
%ADD50C,0.062992*%
%TA.AperFunction,ViaPad*%
%ADD52C,0.019685*%
%ADD53C,0.039370*%
%ADD55C,0.023622*%
%TA.AperFunction,Conductor*%
%ADD56C,0.023622*%
G36*
X278697Y1235990D02*
X275990Y1234869D01*
X269345Y1228224D01*
X265749Y1219542D01*
Y1210144D01*
X269345Y1201462D01*
X270064Y1200743D01*
X265172Y1188932D01*
X213570D01*
X208677Y1200743D01*
X209396Y1201462D01*
X212993Y1210144D01*
Y1219542D01*
X209396Y1228224D01*
X202751Y1234869D01*
X200044Y1235990D01*
X202394Y1247801D01*
X276348D01*
X278697Y1235990D01*
D02*
G37*
G36*
X352047Y1199601D02*
X351044Y1198315D01*
X350159Y1196946D01*
X349393Y1195492D01*
X348744Y1193954D01*
X348213Y1192332D01*
X347800Y1190625D01*
X347505Y1188835D01*
X347328Y1186960D01*
X347269Y1185001D01*
X331521Y1184980D01*
X331462Y1186939D01*
X331285Y1188813D01*
X330989Y1190604D01*
X330575Y1192309D01*
X330043Y1193930D01*
X329393Y1195467D01*
X328624Y1196919D01*
X327737Y1198286D01*
X326732Y1199569D01*
X325609Y1200768D01*
X353168Y1200802D01*
X352047Y1199601D01*
D02*
G37*
G36*
X1326541Y780828D02*
X1322743Y777827D01*
X1314730Y774887D01*
X1310527Y777314D01*
X1303072Y779312D01*
X1295354D01*
X1287899Y777314D01*
X1281216Y773455D01*
X1275758Y767998D01*
X1271900Y761314D01*
X1269902Y753859D01*
Y746142D01*
X1271900Y738687D01*
X1275758Y732003D01*
X1281216Y726546D01*
X1287899Y722687D01*
X1295354Y720689D01*
X1303072D01*
X1310527Y722687D01*
X1314730Y725114D01*
X1322743Y722174D01*
X1326541Y719173D01*
Y680828D01*
X1322743Y677827D01*
X1314730Y674887D01*
X1310527Y677314D01*
X1303072Y679312D01*
X1295354D01*
X1287899Y677314D01*
X1281216Y673455D01*
X1275758Y667998D01*
X1271900Y661314D01*
X1269902Y653859D01*
Y646142D01*
X1271900Y638687D01*
X1275758Y632003D01*
X1281216Y626546D01*
X1287899Y622687D01*
X1295354Y620689D01*
X1303072D01*
X1310527Y622687D01*
X1314730Y625114D01*
X1322743Y622174D01*
X1326541Y619173D01*
Y580828D01*
X1322743Y577827D01*
X1314730Y574887D01*
X1310527Y577314D01*
X1303072Y579312D01*
X1295354D01*
X1287899Y577314D01*
X1281216Y573455D01*
X1275758Y567998D01*
X1271900Y561314D01*
X1269902Y553859D01*
Y546142D01*
X1271900Y538687D01*
X1275758Y532003D01*
X1281216Y526546D01*
X1287899Y522687D01*
X1295354Y520689D01*
X1303072D01*
X1310527Y522687D01*
X1314730Y525114D01*
X1322743Y522174D01*
X1326541Y519173D01*
Y480828D01*
X1322743Y477827D01*
X1314730Y474887D01*
X1310527Y477314D01*
X1303072Y479312D01*
X1295354D01*
X1287899Y477314D01*
X1281216Y473455D01*
X1275758Y467998D01*
X1271900Y461314D01*
X1269902Y453859D01*
Y446142D01*
X1271900Y438687D01*
X1275758Y432003D01*
X1281216Y426546D01*
X1287899Y422687D01*
X1295354Y420690D01*
X1303072D01*
X1310527Y422687D01*
X1314730Y425114D01*
X1322743Y422175D01*
X1326541Y419173D01*
Y380828D01*
X1322743Y377827D01*
X1314730Y374887D01*
X1310527Y377314D01*
X1303072Y379312D01*
X1295354D01*
X1287899Y377314D01*
X1281216Y373455D01*
X1275758Y367998D01*
X1271900Y361314D01*
X1269902Y353859D01*
Y346142D01*
X1271900Y338687D01*
X1275758Y332003D01*
X1281216Y326546D01*
X1287899Y322687D01*
X1295354Y320690D01*
X1303072D01*
X1310527Y322687D01*
X1314730Y325114D01*
X1322743Y322175D01*
X1326541Y319173D01*
Y280828D01*
X1322743Y277827D01*
X1314730Y274887D01*
X1310527Y277314D01*
X1303072Y279312D01*
X1295354D01*
X1287899Y277314D01*
X1281216Y273455D01*
X1275758Y267998D01*
X1271900Y261314D01*
X1269902Y253859D01*
Y246142D01*
X1271900Y238687D01*
X1275758Y232003D01*
X1281216Y226546D01*
X1287899Y222687D01*
X1295354Y220690D01*
X1303072D01*
X1310527Y222687D01*
X1314730Y225114D01*
X1322743Y222174D01*
X1326541Y219173D01*
Y180828D01*
X1322743Y177827D01*
X1314730Y174887D01*
X1310527Y177314D01*
X1303072Y179311D01*
X1295354D01*
X1287899Y177314D01*
X1281216Y173455D01*
X1275758Y167998D01*
X1271900Y161314D01*
X1269902Y153859D01*
Y146142D01*
X1271900Y138687D01*
X1275758Y132003D01*
X1281216Y126546D01*
X1287899Y122687D01*
X1295354Y120689D01*
X1303072D01*
X1310527Y122687D01*
X1314730Y125114D01*
X1322743Y122174D01*
X1326541Y119173D01*
Y97867D01*
X1317158Y91226D01*
X1314730Y90677D01*
X1304915Y93308D01*
X1293512D01*
X1292367Y93001D01*
X1279401Y100993D01*
X1275653Y110043D01*
X1269689Y117815D01*
X1261917Y123779D01*
X1252867Y127528D01*
X1243154Y128806D01*
X1233442Y127528D01*
X1224392Y123779D01*
X1216620Y117815D01*
X1210656Y110043D01*
X1206907Y100993D01*
X1205629Y91281D01*
X1206907Y81568D01*
X1210656Y72518D01*
X1216620Y64746D01*
X1224392Y58782D01*
X1233442Y55033D01*
X1243154Y53755D01*
X1244095Y53879D01*
X1255903Y44302D01*
X1255954Y44121D01*
X1258857Y33285D01*
X1259229Y32642D01*
X1260864Y34593D01*
X1262362Y36633D01*
X1263679Y38707D01*
X1264815Y40817D01*
X1265769Y42961D01*
X1266543Y45141D01*
X1267134Y47356D01*
X1267545Y49606D01*
X1267774Y51892D01*
X1281773Y23774D01*
X1280034Y24808D01*
X1278324Y25578D01*
X1276643Y26086D01*
X1274991Y26330D01*
X1273367Y26311D01*
X1271771Y26029D01*
X1270204Y25484D01*
X1268666Y24675D01*
X1267156Y23604D01*
X1265675Y22268D01*
X1264261Y23683D01*
X1263809Y21813D01*
X1259223Y12042D01*
X79361D01*
X74776Y21806D01*
X74281Y23853D01*
X79725Y33283D01*
X82676Y44297D01*
Y55700D01*
X79725Y66715D01*
X74129Y76407D01*
X43545Y45823D01*
X35193Y54175D01*
X65777Y84759D01*
X56085Y90355D01*
X45071Y93306D01*
X33667D01*
X24274Y90789D01*
X14696Y97404D01*
X14952Y106633D01*
X24870Y113125D01*
X34186Y110629D01*
X44552D01*
X54565Y113312D01*
X63543Y118495D01*
X70873Y125825D01*
X73283Y129999D01*
X73732Y130344D01*
X120317Y176929D01*
X278032D01*
X285226Y177876D01*
X291930Y180653D01*
X297687Y185070D01*
X302105Y190827D01*
X304882Y197531D01*
X305829Y204726D01*
X304882Y211920D01*
X302105Y218624D01*
X297687Y224381D01*
X291930Y228798D01*
X285226Y231575D01*
X278032Y232523D01*
X108803D01*
X101609Y231575D01*
X94905Y228798D01*
X89148Y224381D01*
X58798Y194032D01*
X55182Y190785D01*
X53527Y189465D01*
X52102Y188447D01*
X51022Y187784D01*
X50825Y187688D01*
X44552Y189369D01*
X34186D01*
X24173Y186686D01*
X23853Y186501D01*
X12042Y193321D01*
Y219177D01*
X15844Y222179D01*
X23853Y225117D01*
X28059Y222689D01*
X35513Y220691D01*
X43231D01*
X50686Y222689D01*
X57370Y226548D01*
X62827Y232005D01*
X66686Y238689D01*
X68683Y246143D01*
Y253861D01*
X66686Y261316D01*
X62827Y268000D01*
X57370Y273457D01*
X50686Y277316D01*
X43231Y279313D01*
X35513D01*
X28059Y277316D01*
X23853Y274888D01*
X15844Y277825D01*
X12042Y280828D01*
Y319177D01*
X15844Y322179D01*
X23853Y325116D01*
X28059Y322689D01*
X35513Y320691D01*
X43231D01*
X50686Y322689D01*
X57370Y326548D01*
X62827Y332005D01*
X66686Y338688D01*
X68683Y346143D01*
Y353861D01*
X66686Y361316D01*
X62827Y368000D01*
X57370Y373457D01*
X50686Y377316D01*
X43231Y379313D01*
X35513D01*
X28059Y377316D01*
X23853Y374888D01*
X15844Y377825D01*
X12042Y380828D01*
Y419177D01*
X15844Y422179D01*
X23853Y425116D01*
X28059Y422689D01*
X35513Y420691D01*
X43231D01*
X50686Y422689D01*
X57370Y426548D01*
X62827Y432005D01*
X66686Y438688D01*
X68683Y446143D01*
Y453861D01*
X66686Y461316D01*
X62827Y468000D01*
X57370Y473457D01*
X50686Y477316D01*
X43231Y479313D01*
X35513D01*
X28059Y477316D01*
X23853Y474888D01*
X15844Y477825D01*
X12042Y480828D01*
Y519177D01*
X15844Y522179D01*
X23853Y525116D01*
X28059Y522689D01*
X35513Y520691D01*
X43231D01*
X50686Y522689D01*
X57370Y526548D01*
X62827Y532005D01*
X66686Y538688D01*
X68683Y546143D01*
Y553861D01*
X66686Y561316D01*
X62827Y568000D01*
X57370Y573457D01*
X50686Y577316D01*
X43231Y579313D01*
X35513D01*
X28059Y577316D01*
X23853Y574888D01*
X15844Y577825D01*
X12042Y580828D01*
Y619177D01*
X15844Y622179D01*
X23853Y625116D01*
X28059Y622689D01*
X35513Y620691D01*
X43231D01*
X50686Y622689D01*
X57370Y626548D01*
X62827Y632005D01*
X66686Y638688D01*
X68683Y646143D01*
Y653861D01*
X66686Y661316D01*
X62827Y668000D01*
X57370Y673457D01*
X50686Y677316D01*
X43231Y679313D01*
X35513D01*
X28059Y677316D01*
X23853Y674888D01*
X15844Y677825D01*
X12042Y680828D01*
Y719177D01*
X15844Y722179D01*
X23853Y725116D01*
X28059Y722689D01*
X35513Y720691D01*
X43231D01*
X50686Y722689D01*
X57370Y726548D01*
X62827Y732005D01*
X66686Y738688D01*
X68683Y746143D01*
Y753861D01*
X66686Y761316D01*
X62827Y768000D01*
X57370Y773457D01*
X50686Y777316D01*
X43231Y779313D01*
X35513D01*
X28059Y777316D01*
X23853Y774888D01*
X15844Y777825D01*
X12042Y780828D01*
Y819177D01*
X15844Y822179D01*
X23853Y825116D01*
X28059Y822689D01*
X35513Y820691D01*
X43231D01*
X50686Y822689D01*
X57370Y826548D01*
X62827Y832005D01*
X66686Y838688D01*
X68683Y846143D01*
Y853861D01*
X66686Y861316D01*
X62827Y868000D01*
X57370Y873457D01*
X50686Y877316D01*
X43231Y879313D01*
X35513D01*
X28059Y877316D01*
X23853Y874888D01*
X15844Y877825D01*
X12042Y880828D01*
Y919177D01*
X15844Y922179D01*
X23853Y925116D01*
X28059Y922689D01*
X35513Y920691D01*
X43231D01*
X50686Y922689D01*
X57370Y926548D01*
X62827Y932005D01*
X66686Y938688D01*
X68683Y946143D01*
Y953861D01*
X66686Y961316D01*
X62827Y968000D01*
X57370Y973457D01*
X50686Y977316D01*
X43231Y979313D01*
X35513D01*
X28059Y977316D01*
X23853Y974888D01*
X15844Y977825D01*
X12042Y980828D01*
Y1019177D01*
X15844Y1022179D01*
X23853Y1025117D01*
X28059Y1022689D01*
X35513Y1020691D01*
X43231D01*
X50686Y1022689D01*
X57370Y1026547D01*
X62827Y1032005D01*
X66686Y1038688D01*
X68683Y1046143D01*
Y1053861D01*
X66686Y1061316D01*
X62827Y1067999D01*
X57370Y1073457D01*
X50686Y1077316D01*
X43231Y1079313D01*
X35513D01*
X28059Y1077316D01*
X23853Y1074888D01*
X15844Y1077825D01*
X12042Y1080828D01*
Y1119177D01*
X15844Y1122179D01*
X23853Y1125117D01*
X28059Y1122689D01*
X35513Y1120691D01*
X43231D01*
X50686Y1122689D01*
X57370Y1126547D01*
X62827Y1132005D01*
X66686Y1138688D01*
X68683Y1146143D01*
Y1153861D01*
X66686Y1161316D01*
X62827Y1167999D01*
X57370Y1173457D01*
X50686Y1177316D01*
X43231Y1179313D01*
X35513D01*
X28059Y1177316D01*
X26837Y1176610D01*
X15493Y1181917D01*
X15079Y1188485D01*
X18470Y1190823D01*
X25957Y1194272D01*
X29660Y1192738D01*
X39372Y1191459D01*
X49085Y1192738D01*
X58135Y1196487D01*
X65907Y1202450D01*
X71870Y1210222D01*
X75619Y1219273D01*
X76898Y1228985D01*
X75976Y1235990D01*
X80485Y1243612D01*
X84633Y1247801D01*
X126347D01*
X128697Y1235990D01*
X125990Y1234869D01*
X119345Y1228224D01*
X115749Y1219542D01*
Y1210144D01*
X119345Y1201462D01*
X120064Y1200743D01*
X117934Y1192789D01*
X115459Y1188645D01*
X110756Y1187710D01*
X105547Y1184229D01*
X105547Y1184229D01*
X102742Y1181424D01*
X99460D01*
X92949Y1178726D01*
X87965Y1173743D01*
X85268Y1167231D01*
Y1160183D01*
X86928Y1156176D01*
Y1124034D01*
X86928Y1124033D01*
X88150Y1117889D01*
X91631Y1112679D01*
X92275Y1112035D01*
Y1081166D01*
X90615Y1077159D01*
Y1070111D01*
X93312Y1063599D01*
X98296Y1058615D01*
X104808Y1055918D01*
X111856D01*
X118367Y1058615D01*
X123351Y1063599D01*
X126048Y1070111D01*
Y1077159D01*
X124388Y1081166D01*
Y1118685D01*
X124388Y1118686D01*
X123166Y1124831D01*
X119685Y1130040D01*
X119685Y1130040D01*
X119041Y1130684D01*
Y1152308D01*
X123552Y1156819D01*
X323339D01*
Y1137552D01*
X309822Y1124035D01*
X306341Y1118826D01*
X305119Y1112681D01*
X305119Y1112681D01*
Y1028981D01*
X305119Y1028980D01*
X306341Y1022836D01*
X309822Y1017627D01*
X315450Y1011998D01*
Y977727D01*
X313790Y973719D01*
Y966671D01*
X316487Y960160D01*
X321471Y955176D01*
X322545Y954731D01*
X321955Y950249D01*
X322902Y943054D01*
X325679Y936350D01*
X330096Y930593D01*
X341482Y919207D01*
X312057Y889782D01*
X176320D01*
X174312Y889383D01*
X163381Y896079D01*
X162090Y897723D01*
X159866Y903091D01*
X154882Y908075D01*
X148371Y910772D01*
X141323D01*
X134811Y908075D01*
X129827Y903091D01*
X127130Y896580D01*
Y889532D01*
X129827Y883020D01*
X131418Y881430D01*
Y869693D01*
X120272Y864135D01*
X113761Y866832D01*
X106713D01*
X100201Y864135D01*
X95217Y859151D01*
X92520Y852640D01*
Y845592D01*
X95217Y839080D01*
X100201Y834096D01*
X106713Y831399D01*
X113761D01*
X120272Y834096D01*
X125256Y839080D01*
X125919Y840680D01*
X126692Y841253D01*
X138527Y843875D01*
X139020Y843795D01*
X150339Y832476D01*
X154571Y829648D01*
X159564Y828655D01*
X216241D01*
Y822919D01*
X218938Y816408D01*
X223922Y811424D01*
X230434Y808727D01*
X236400D01*
X239048Y807132D01*
X245656Y799328D01*
X245343Y797753D01*
Y785073D01*
X219588Y759318D01*
X216760Y755086D01*
X215766Y750093D01*
Y501348D01*
X204206Y492345D01*
X196525Y490817D01*
X190014Y486466D01*
X185663Y479955D01*
X185221Y477733D01*
X184841Y477164D01*
X183313Y469483D01*
Y326473D01*
X184841Y318792D01*
X186249Y316685D01*
X189899Y305413D01*
X185469Y300983D01*
X183071Y295195D01*
Y288930D01*
X185469Y283142D01*
X189899Y278712D01*
X195687Y276315D01*
X201952D01*
X207740Y278712D01*
X212170Y283142D01*
X223266Y279067D01*
X227183Y276450D01*
X234863Y274922D01*
X245014D01*
X245217Y273382D01*
X247994Y266678D01*
X252411Y260921D01*
X258168Y256503D01*
X264872Y253726D01*
X272067Y252779D01*
X279261Y253726D01*
X285965Y256503D01*
X291722Y260921D01*
X301435Y270634D01*
X431598Y400796D01*
X432659Y402180D01*
X631664Y601184D01*
X636081Y606941D01*
X638858Y613645D01*
X638950Y614344D01*
X638978Y614413D01*
X639926Y621607D01*
Y778632D01*
X649482Y787458D01*
X656530D01*
X663042Y790155D01*
X668025Y795139D01*
X670723Y801650D01*
Y808698D01*
X668025Y815210D01*
X663042Y820194D01*
X656530Y822891D01*
X649482D01*
X639926Y831717D01*
Y888448D01*
X638978Y895642D01*
X636202Y902346D01*
X632037Y907773D01*
X639817Y915553D01*
X642702Y917766D01*
X647119Y923523D01*
X649896Y930227D01*
X650843Y937422D01*
X649896Y944616D01*
X647119Y951320D01*
X642702Y957077D01*
X636945Y961495D01*
X630241Y964271D01*
X623047Y965219D01*
X622375D01*
X615181Y964271D01*
X608477Y961495D01*
X602720Y957077D01*
X592125Y946482D01*
X591870Y946678D01*
X585165Y949455D01*
X577971Y950402D01*
X458609D01*
X454546Y956483D01*
Y963531D01*
X451849Y970043D01*
X446865Y975026D01*
X440354Y977724D01*
X433306D01*
X426794Y975026D01*
X421810Y970043D01*
X419113Y963531D01*
Y956483D01*
X415050Y950402D01*
X388908D01*
X369407Y969904D01*
X363650Y974321D01*
X356946Y977098D01*
X349752Y978045D01*
X347563Y979965D01*
Y1018649D01*
X347563Y1018649D01*
X346341Y1024794D01*
X342860Y1030003D01*
X342860Y1030003D01*
X337232Y1035631D01*
Y1106030D01*
X350749Y1119547D01*
X350749Y1119547D01*
X354229Y1124756D01*
X355452Y1130901D01*
Y1187591D01*
X355472Y1187804D01*
X355673Y1189027D01*
X355942Y1190136D01*
X356270Y1191140D01*
X356655Y1192053D01*
X357096Y1192888D01*
X357594Y1193659D01*
X358159Y1194384D01*
X359038Y1195326D01*
X359380Y1195878D01*
X361423Y1197921D01*
X365051Y1204206D01*
X366930Y1211215D01*
Y1218471D01*
X365051Y1225480D01*
X361423Y1231765D01*
X357198Y1235990D01*
X357630Y1239979D01*
X361026Y1247801D01*
X1222091D01*
X1232732Y1244977D01*
X1232732Y1235990D01*
Y1161005D01*
X1295714D01*
Y1235990D01*
X1295714Y1244977D01*
X1306355Y1247801D01*
X1326541D01*
Y780828D01*
D02*
G37*
G36*
X584332Y876934D02*
Y821239D01*
X573106Y813642D01*
X566841D01*
X561053Y811245D01*
X556624Y806815D01*
X554226Y801027D01*
Y794762D01*
X556624Y788974D01*
X561053Y784544D01*
X566841Y782146D01*
X573106D01*
X584332Y774549D01*
Y632474D01*
X392287Y440429D01*
X391225Y439045D01*
X333524Y381344D01*
X324992Y389261D01*
X327820Y393493D01*
X328813Y398486D01*
Y436775D01*
X327820Y441767D01*
X324992Y446000D01*
X300404Y470588D01*
Y531981D01*
X304895Y534982D01*
X311160D01*
X316948Y537379D01*
X321378Y541809D01*
X323775Y547597D01*
Y553862D01*
X321378Y559650D01*
X316948Y564080D01*
X313151Y565653D01*
X312891Y566960D01*
X315588Y573471D01*
Y580519D01*
X312891Y587031D01*
X307907Y592014D01*
X301396Y594712D01*
X294348D01*
X294220Y594659D01*
X284698Y600592D01*
X285051Y609433D01*
X287109Y610380D01*
X296262Y614101D01*
X301487Y611936D01*
X307752D01*
X313540Y614333D01*
X317970Y618764D01*
X320368Y624552D01*
Y630816D01*
X330784Y634758D01*
X333103Y630543D01*
X337533Y626114D01*
X343321Y623716D01*
X349586D01*
X355374Y626114D01*
X359804Y630544D01*
X362202Y636332D01*
Y642597D01*
X359804Y648385D01*
X355374Y652815D01*
X349586Y655212D01*
X343321D01*
X337264Y653305D01*
X334195Y658881D01*
X329947Y663700D01*
X332842Y669871D01*
X335239Y675659D01*
Y681924D01*
X332842Y687712D01*
X328412Y692142D01*
X322624Y694540D01*
X316359D01*
X310571Y692142D01*
X306141Y687712D01*
X303743Y681924D01*
Y675659D01*
X306141Y669871D01*
X310389Y665053D01*
X307494Y658881D01*
X305096Y653093D01*
Y646828D01*
X302827Y643432D01*
X301487D01*
X295700Y641034D01*
X284700Y646738D01*
Y727492D01*
X304735Y747527D01*
X319935D01*
X323160Y742701D01*
Y735653D01*
X325857Y729141D01*
X330841Y724158D01*
X337353Y721461D01*
X344401D01*
X350912Y724158D01*
X355896Y729141D01*
X358593Y735653D01*
Y742701D01*
X362647Y748769D01*
X383997D01*
X385724Y747042D01*
X389956Y744214D01*
X394948Y743221D01*
X443503D01*
X445624Y741100D01*
X452135Y738403D01*
X459183D01*
X465695Y741100D01*
X470679Y746084D01*
X473376Y752596D01*
Y759644D01*
X470679Y766155D01*
X465695Y771139D01*
X459183Y773836D01*
X452135D01*
X445624Y771139D01*
X443798Y769313D01*
X425981D01*
X424176Y770966D01*
X419062Y781124D01*
X420115Y783666D01*
Y790714D01*
X417418Y797226D01*
X412435Y802209D01*
X405923Y804907D01*
X398875D01*
X391557Y814659D01*
X394346Y818327D01*
X400857Y821024D01*
X403104Y823271D01*
X414984Y825192D01*
X418170Y824909D01*
X453495Y789584D01*
X457727Y786756D01*
X462719Y785763D01*
X479606D01*
X496399Y768970D01*
Y761023D01*
X494787Y759411D01*
X491959Y755179D01*
X490966Y750186D01*
Y748505D01*
X487109Y744649D01*
X484412Y738137D01*
Y736585D01*
X479402Y729003D01*
X473509Y726548D01*
X471516D01*
X465728Y724150D01*
X461298Y719720D01*
X458900Y713932D01*
Y707667D01*
X461298Y701879D01*
X465728Y697449D01*
X471516Y695052D01*
X477781D01*
X483569Y697449D01*
X487999Y701879D01*
X490341Y707535D01*
X490396Y707667D01*
X497743Y715928D01*
X501308Y716897D01*
X505652D01*
X512164Y719594D01*
X517148Y724578D01*
X519845Y731089D01*
Y738137D01*
X517148Y744649D01*
X518670Y746395D01*
X521498Y750627D01*
X522491Y755620D01*
Y774373D01*
X521498Y779366D01*
X518670Y783598D01*
X494235Y808033D01*
X490002Y810861D01*
X485010Y811855D01*
X468123D01*
X458944Y821034D01*
X459175Y824940D01*
X462608Y834073D01*
X465431Y835242D01*
X469861Y839673D01*
X473097Y845312D01*
X479599Y844158D01*
X485864D01*
X491652Y846556D01*
X496082Y850986D01*
X497935Y855458D01*
X503445Y858453D01*
X510291Y860768D01*
X511808Y859743D01*
Y856804D01*
X514205Y851016D01*
X518635Y846586D01*
X524423Y844188D01*
X530688D01*
X536476Y846586D01*
X540906Y851016D01*
X543304Y856804D01*
Y863069D01*
X540906Y868857D01*
X536476Y873287D01*
X530688Y875684D01*
X529452Y882976D01*
Y889241D01*
X533172Y894809D01*
X566457D01*
X584332Y876934D01*
D02*
G37*
G36*
X275584Y427389D02*
X275775Y425510D01*
X275942Y424687D01*
X276156Y423943D01*
X276417Y423277D01*
X276727Y422690D01*
X277084Y422180D01*
X277488Y421749D01*
X277940Y421396D01*
X264415Y418760D01*
X264663Y419175D01*
X264884Y419663D01*
X265080Y420224D01*
X265249Y420858D01*
X265392Y421565D01*
X265601Y423198D01*
X265666Y424125D01*
X265718Y426196D01*
X275561Y428446D01*
X275584Y427389D01*
D02*
G37*
G36*
X248667Y420076D02*
X248846Y418184D01*
X249001Y417350D01*
X249202Y416589D01*
X249447Y415903D01*
X249736Y415291D01*
X250070Y414753D01*
X250449Y414289D01*
X250872Y413899D01*
X237169Y412447D01*
X237480Y412878D01*
X237757Y413379D01*
X238002Y413951D01*
X238215Y414593D01*
X238394Y415306D01*
X238541Y416088D01*
X238656Y416941D01*
X238786Y418858D01*
X238803Y419922D01*
X248645Y421133D01*
X248667Y420076D01*
D02*
G37*
G36*
X290947Y360847D02*
X290213Y360084D01*
X288977Y358626D01*
X288476Y357930D01*
X288053Y357257D01*
X287708Y356605D01*
X287441Y355976D01*
X287251Y355369D01*
X287140Y354785D01*
X287106Y354222D01*
X277363Y363966D01*
X277925Y363999D01*
X278510Y364111D01*
X279117Y364300D01*
X279746Y364567D01*
X280397Y364912D01*
X281071Y365335D01*
X281767Y365836D01*
X282485Y366415D01*
X283988Y367807D01*
X290947Y360847D01*
D02*
G37*
G36*
X247640Y352659D02*
X246906Y351897D01*
X245670Y350438D01*
X245169Y349743D01*
X244746Y349069D01*
X244401Y348418D01*
X244134Y347788D01*
X243944Y347182D01*
X243833Y346597D01*
X243799Y346035D01*
X234056Y355778D01*
X234618Y355812D01*
X235203Y355923D01*
X235810Y356112D01*
X236439Y356380D01*
X237090Y356725D01*
X237764Y357148D01*
X238460Y357649D01*
X239178Y358228D01*
X240681Y359619D01*
X247640Y352659D01*
D02*
G37*
G36*
X95027Y163111D02*
X69201Y139897D01*
X50065Y179623D01*
X51006Y179462D01*
X52123Y179594D01*
X53418Y180020D01*
X54891Y180739D01*
X56540Y181751D01*
X58367Y183056D01*
X60371Y184654D01*
X64911Y188731D01*
X67447Y191209D01*
X95027Y163111D01*
D02*
G37*
G36*
X70436Y44120D02*
X70523Y42765D01*
X70796Y41374D01*
X71255Y39947D01*
X71899Y38484D01*
X72728Y36984D01*
X73743Y35447D01*
X74943Y33875D01*
X76329Y32266D01*
X77900Y30620D01*
X69548Y22268D01*
X68309Y23416D01*
X67090Y24362D01*
X65891Y25105D01*
X64712Y25646D01*
X63553Y25985D01*
X62414Y26122D01*
X61294Y26056D01*
X60195Y25788D01*
X59115Y25318D01*
X58056Y24645D01*
X70533Y45438D01*
X70436Y44120D01*
D02*
G37*
%LPC*%
G36*
X472485Y1212598D02*
X463087D01*
X454405Y1209002D01*
X447760Y1202357D01*
X444164Y1193675D01*
Y1184278D01*
X447760Y1175596D01*
X454405Y1168951D01*
X463087Y1165354D01*
X472485D01*
X481167Y1168951D01*
X487812Y1175596D01*
X491408Y1184278D01*
Y1193675D01*
X487812Y1202357D01*
X481167Y1209002D01*
X472485Y1212598D01*
D02*
G37*
G36*
X253136Y1137556D02*
X246871D01*
X241083Y1135159D01*
X231222Y1131782D01*
X225434Y1134180D01*
X219169D01*
X213381Y1131782D01*
X208951Y1127352D01*
X206554Y1121564D01*
Y1115299D01*
X208951Y1109511D01*
X212186Y1103074D01*
X208577Y1097011D01*
X206180Y1091223D01*
Y1084958D01*
X208577Y1079170D01*
X213007Y1074740D01*
X218795Y1072343D01*
X225060D01*
X230848Y1074740D01*
X235278Y1079170D01*
X237676Y1084958D01*
Y1091223D01*
X235279Y1097011D01*
X235125Y1097316D01*
X243415Y1107123D01*
X246871Y1106060D01*
X253136D01*
X258924Y1108457D01*
X263354Y1112888D01*
X265752Y1118676D01*
Y1124940D01*
X263354Y1130728D01*
X258924Y1135159D01*
X253136Y1137556D01*
D02*
G37*
G36*
X716686Y1212598D02*
X707289D01*
X698607Y1209002D01*
X691962Y1202357D01*
X688365Y1193675D01*
Y1184278D01*
X691962Y1175596D01*
X698607Y1168951D01*
X707289Y1165354D01*
X709227D01*
X713745Y1153543D01*
X711956Y1151755D01*
X709259Y1145243D01*
Y1138195D01*
X711956Y1131683D01*
X716940Y1126700D01*
X723452Y1124003D01*
X730500D01*
X737011Y1126700D01*
X741995Y1131683D01*
X744692Y1138195D01*
Y1145243D01*
X741995Y1151755D01*
X737011Y1156738D01*
X731055Y1159206D01*
X730284Y1160527D01*
X730144Y1160917D01*
X727664Y1171246D01*
X732013Y1175596D01*
X735609Y1184278D01*
Y1193675D01*
X732013Y1202357D01*
X725368Y1209002D01*
X716686Y1212598D01*
D02*
G37*
G36*
X593684Y1118111D02*
X587419D01*
X581631Y1115713D01*
X577201Y1111283D01*
X574803Y1105495D01*
Y1099230D01*
X577201Y1093442D01*
X581631Y1089012D01*
X587419Y1086615D01*
X593684D01*
X599472Y1089012D01*
X603902Y1093442D01*
X606299Y1099230D01*
Y1105495D01*
X603902Y1111283D01*
X599472Y1115713D01*
X593684Y1118111D01*
D02*
G37*
G36*
X659439Y1105807D02*
X652391D01*
X645879Y1103110D01*
X640896Y1098126D01*
X638198Y1091615D01*
Y1084567D01*
X640896Y1078055D01*
X645879Y1073071D01*
X652391Y1070374D01*
X659439D01*
X665951Y1073071D01*
X670934Y1078055D01*
X673631Y1084567D01*
Y1091615D01*
X670934Y1098126D01*
X665951Y1103110D01*
X659439Y1105807D01*
D02*
G37*
G36*
X442974Y1029035D02*
X436709D01*
X430921Y1026638D01*
X426491Y1022208D01*
X424094Y1016420D01*
Y1010155D01*
X426491Y1004367D01*
X430921Y999937D01*
X436709Y997539D01*
X442974D01*
X448762Y999937D01*
X453192Y1004367D01*
X455590Y1010155D01*
Y1016420D01*
X453192Y1022208D01*
X448762Y1026638D01*
X442974Y1029035D01*
D02*
G37*
G36*
X529799Y1026081D02*
X523534D01*
X517746Y1023683D01*
X513317Y1019253D01*
X510919Y1013465D01*
Y1007200D01*
X513317Y1001412D01*
X517746Y996982D01*
X523534Y994585D01*
X529799D01*
X535587Y996982D01*
X540018Y1001412D01*
X542415Y1007200D01*
Y1013465D01*
X540018Y1019253D01*
X535587Y1023683D01*
X529799Y1026081D01*
D02*
G37*
G36*
X573995Y1012268D02*
X567730D01*
X561942Y1009870D01*
X557512Y1005440D01*
X555115Y999652D01*
Y993387D01*
X557512Y987599D01*
X561942Y983169D01*
X567730Y980772D01*
X573995D01*
X579783Y983169D01*
X584213Y987599D01*
X586611Y993387D01*
Y999652D01*
X584213Y1005440D01*
X579783Y1009870D01*
X573995Y1012268D01*
D02*
G37*
G36*
X123212Y766822D02*
X116947D01*
X111159Y764424D01*
X106729Y759994D01*
X104331Y754206D01*
Y747941D01*
X106729Y742153D01*
X111159Y737723D01*
X116947Y735326D01*
X123212D01*
X129000Y737723D01*
X133430Y742153D01*
X135827Y747941D01*
Y754206D01*
X133430Y759994D01*
X129000Y764424D01*
X123212Y766822D01*
D02*
G37*
G36*
X147596Y680450D02*
X141331D01*
X135543Y678053D01*
X131113Y673623D01*
X128716Y667835D01*
Y661570D01*
X131113Y655782D01*
X135543Y651352D01*
X141331Y648954D01*
X147596D01*
X153384Y651352D01*
X157814Y655782D01*
X160212Y661570D01*
Y667835D01*
X157814Y673623D01*
X153384Y678053D01*
X147596Y680450D01*
D02*
G37*
G36*
X890846Y597158D02*
X883798D01*
X877287Y594461D01*
X872303Y589477D01*
X869606Y582966D01*
Y575918D01*
X871266Y571910D01*
Y564267D01*
X817110Y510112D01*
X810187Y510911D01*
X807931Y519067D01*
X807719Y523085D01*
X811998Y527364D01*
X814695Y533876D01*
Y540924D01*
X811998Y547435D01*
X807014Y552419D01*
X800502Y555116D01*
X793454D01*
X786943Y552419D01*
X781959Y547435D01*
X780382Y543629D01*
X770942Y534188D01*
X757921D01*
X751777Y532966D01*
X750496Y532111D01*
X750052Y532022D01*
X744843Y528542D01*
X649395Y433093D01*
X649392Y433093D01*
X649275Y433210D01*
X640514Y421792D01*
X633600Y416713D01*
X633208Y416284D01*
X629523Y413457D01*
X625105Y407700D01*
X622328Y400996D01*
X621381Y393802D01*
Y264433D01*
X612835Y255189D01*
X606571D01*
X600783Y252791D01*
X596352Y248361D01*
X593955Y242573D01*
Y236308D01*
X590763Y231530D01*
X458563D01*
X451368Y230583D01*
X444664Y227806D01*
X438908Y223389D01*
X345510Y129991D01*
X332967D01*
X328075Y141802D01*
X440480Y254208D01*
X473368D01*
X480280Y255583D01*
X486140Y259499D01*
X562837Y336195D01*
X566753Y342055D01*
X568128Y348968D01*
Y409099D01*
X567780Y410844D01*
Y412623D01*
X567100Y414267D01*
X566753Y416012D01*
X565764Y417491D01*
X565083Y419135D01*
X563825Y420393D01*
X562837Y421872D01*
X561357Y422861D01*
X560100Y424119D01*
X558456Y424800D01*
X556977Y425788D01*
X555232Y426135D01*
X553588Y426816D01*
X551809D01*
X550064Y427163D01*
X548319Y426816D01*
X546540D01*
X544896Y426135D01*
X543151Y425788D01*
X541672Y424800D01*
X540028Y424119D01*
X538770Y422861D01*
X537291Y421872D01*
X536303Y420393D01*
X535045Y419135D01*
X534364Y417491D01*
X533375Y416012D01*
X533028Y414267D01*
X532347Y412623D01*
Y410844D01*
X532000Y409099D01*
Y356450D01*
X465885Y290335D01*
X432998D01*
X426086Y288960D01*
X420225Y285045D01*
X289643Y154462D01*
X287906Y155182D01*
X280711Y156129D01*
X273517Y155182D01*
X266813Y152405D01*
X261056Y147987D01*
X256639Y142231D01*
X253862Y135526D01*
X252915Y128332D01*
X253862Y121138D01*
X256639Y114434D01*
X261056Y108677D01*
X282941Y86792D01*
X283065Y85846D01*
X285842Y79142D01*
X290260Y73385D01*
X296017Y68968D01*
X302721Y66191D01*
X309915Y65244D01*
X317110Y66191D01*
X323814Y68968D01*
X329570Y73385D01*
X330583Y74397D01*
X357023D01*
X364218Y75345D01*
X370922Y78122D01*
X376679Y82539D01*
X409673Y115534D01*
X421484Y111312D01*
X423882Y105525D01*
X428312Y101094D01*
X434100Y98697D01*
X440365D01*
X446153Y101094D01*
X450583Y105525D01*
X452980Y111312D01*
Y117578D01*
X450583Y123365D01*
X446153Y127796D01*
X440365Y130193D01*
X436144Y142004D01*
X470077Y175937D01*
X632442D01*
X633066Y164384D01*
X627278Y161987D01*
X622848Y157556D01*
X620450Y151768D01*
Y145504D01*
X622848Y139715D01*
X627278Y135286D01*
X633066Y132888D01*
X638384D01*
X639331Y132888D01*
X639332Y132889D01*
X645119Y135285D01*
X648384Y137261D01*
X648384D01*
Y137260D01*
X658583Y133780D01*
X658862Y133597D01*
Y130427D01*
X661259Y124639D01*
X665689Y120209D01*
X671477Y117812D01*
X677742D01*
X683530Y120209D01*
X687960Y124639D01*
X690358Y130427D01*
Y136692D01*
X687960Y142480D01*
X683530Y146910D01*
X677742Y149308D01*
X672424D01*
X671477Y149308D01*
X671476Y149307D01*
X665689Y146910D01*
X662424Y144935D01*
X662423D01*
Y144935D01*
X652225Y148416D01*
X651946Y148599D01*
Y151768D01*
X649549Y157556D01*
X645119Y161987D01*
X639331Y164384D01*
X639954Y175937D01*
X721039D01*
X724564Y170660D01*
Y164395D01*
X726962Y158607D01*
X731392Y154177D01*
X737180Y151780D01*
X743445D01*
X749233Y154177D01*
X753663Y158607D01*
X756061Y164395D01*
Y165757D01*
X759764Y167292D01*
X771339Y159302D01*
X771133Y152448D01*
X770988Y152304D01*
X768591Y146516D01*
Y140251D01*
X770988Y134463D01*
X775418Y130033D01*
X781206Y127635D01*
X787471D01*
X792919Y129892D01*
X794422Y130409D01*
X806936Y129467D01*
X807708Y129050D01*
X808527Y127984D01*
X814284Y123567D01*
X820988Y120790D01*
X828182Y119842D01*
X835376Y120790D01*
X842080Y123567D01*
X847837Y127984D01*
X852255Y133741D01*
X855032Y140445D01*
X855979Y147639D01*
Y149650D01*
X855032Y156844D01*
X852255Y163548D01*
X847837Y169305D01*
X793754Y223389D01*
X787997Y227806D01*
X781293Y230583D01*
X774098Y231530D01*
X676975D01*
Y393802D01*
X676028Y400996D01*
X675059Y403335D01*
X674945Y404001D01*
X672394Y410677D01*
X744499Y482782D01*
X757398Y482505D01*
X762381Y477522D01*
X768893Y474825D01*
X775941D01*
X779949Y476485D01*
X822246D01*
X822247Y476485D01*
X828391Y477707D01*
X833600Y481187D01*
X898676Y546263D01*
X902156Y551472D01*
X903379Y557616D01*
Y571910D01*
X905039Y575918D01*
Y582966D01*
X902341Y589477D01*
X897358Y594461D01*
X890846Y597158D01*
D02*
G37*
G36*
X1041241Y381697D02*
X1032627D01*
X1024668Y378400D01*
X1018577Y372309D01*
X1015280Y364351D01*
Y355736D01*
X1018577Y347778D01*
X1023100Y343255D01*
X1024195Y342159D01*
X1024890Y340054D01*
X1026509Y328140D01*
X1025399Y325459D01*
Y319195D01*
X1024422Y312693D01*
X1018634Y310296D01*
X1014204Y305866D01*
X1011807Y300078D01*
Y293813D01*
X1014204Y288025D01*
X1018634Y283595D01*
X1024422Y281197D01*
X1030687D01*
X1036475Y283595D01*
X1040905Y288025D01*
X1043303Y293813D01*
Y300077D01*
X1044280Y306579D01*
X1050068Y308976D01*
X1054497Y313406D01*
X1056895Y319195D01*
Y325459D01*
X1054497Y331248D01*
X1054345Y331400D01*
X1050988Y338112D01*
X1054245Y346731D01*
X1055291Y347778D01*
X1058587Y355736D01*
Y364351D01*
X1055291Y372309D01*
X1049200Y378400D01*
X1041241Y381697D01*
D02*
G37*
G36*
X1011875Y258245D02*
X1005610D01*
X999822Y255848D01*
X995392Y251418D01*
X992995Y245630D01*
Y244468D01*
X989547Y237564D01*
X982484Y233875D01*
X981440D01*
X975652Y231478D01*
X971222Y227048D01*
X968825Y221260D01*
Y214995D01*
X971222Y209207D01*
X975652Y204777D01*
X981440Y202379D01*
X987705D01*
X993493Y204777D01*
X997923Y209207D01*
X1000321Y214995D01*
Y216156D01*
X1003768Y223060D01*
X1010831Y226749D01*
X1011875D01*
X1017663Y229147D01*
X1022093Y233577D01*
X1024491Y239365D01*
Y245630D01*
X1022093Y251418D01*
X1017663Y255848D01*
X1011875Y258245D01*
D02*
G37*
G36*
X965437Y149308D02*
X959172D01*
X953384Y146910D01*
X948954Y142480D01*
X946556Y136692D01*
Y130427D01*
X948954Y124639D01*
X953384Y120209D01*
X959172Y117812D01*
X965437D01*
X965462Y117822D01*
X966177Y117639D01*
X976374Y109926D01*
Y108774D01*
X978771Y102986D01*
X983201Y98556D01*
X988989Y96158D01*
X995254D01*
X1001042Y98556D01*
X1010760Y94619D01*
X1016548Y92221D01*
X1022813Y92221D01*
X1029494Y91082D01*
X1030340Y90910D01*
X1035738Y88550D01*
X1041207Y83576D01*
X1046995Y81179D01*
X1047855Y74442D01*
Y68177D01*
X1050253Y62389D01*
X1054682Y57959D01*
X1060470Y55562D01*
X1066736D01*
X1072524Y57959D01*
X1076954Y62389D01*
X1078474Y66059D01*
X1080515Y68615D01*
X1091162Y72615D01*
X1091351Y72536D01*
X1097616D01*
X1103404Y74934D01*
X1107834Y79364D01*
X1110232Y85152D01*
Y91417D01*
X1107834Y97205D01*
X1103404Y101635D01*
X1097616Y104032D01*
X1091351D01*
X1085563Y101635D01*
X1081133Y97205D01*
X1069261Y96868D01*
X1068316Y97172D01*
X1065875Y99202D01*
Y100060D01*
X1063478Y105848D01*
X1059048Y110278D01*
X1053260Y112675D01*
X1046995D01*
X1046648Y112531D01*
X1040714Y111775D01*
X1033425Y116628D01*
X1032710Y117211D01*
X1032073Y117848D01*
X1028601Y121320D01*
X1022813Y123717D01*
X1016548D01*
X1010760Y121320D01*
X1001042Y125257D01*
X995254Y127654D01*
X988989D01*
X988964Y127644D01*
X988249Y127826D01*
X978052Y135539D01*
Y136692D01*
X975655Y142480D01*
X971225Y146910D01*
X965437Y149308D01*
D02*
G37*
G36*
X459759Y82972D02*
X453494D01*
X447706Y80575D01*
X443276Y76145D01*
X440878Y70357D01*
Y64092D01*
X443276Y58304D01*
X447706Y53874D01*
X453494Y51476D01*
X459759D01*
X465547Y53874D01*
X469977Y58304D01*
X472374Y64092D01*
Y70357D01*
X469977Y76145D01*
X465547Y80575D01*
X459759Y82972D01*
D02*
G37*
%LPD*%
G36*
X663408Y412822D02*
X663371Y412603D01*
X663433Y412174D01*
X663592Y411533D01*
X664204Y409617D01*
X667446Y401135D01*
X638353Y410243D01*
X647245Y416776D01*
X663408Y412822D01*
D02*
G37*
%LPC*%
G36*
X440450Y647173D02*
X434185D01*
X428397Y644775D01*
X423967Y640346D01*
X421569Y634558D01*
Y628293D01*
X423967Y622505D01*
X428397Y618074D01*
X434185Y615677D01*
X440450D01*
X446238Y618074D01*
X450668Y622505D01*
X453065Y628293D01*
Y634558D01*
X450668Y640346D01*
X446238Y644775D01*
X440450Y647173D01*
D02*
G37*
G36*
X446733Y555987D02*
X440468D01*
X434680Y553590D01*
X431088Y549997D01*
X430250Y549160D01*
X419832Y545333D01*
X417459Y545913D01*
X411194D01*
X405406Y543515D01*
X400976Y539085D01*
X398578Y533297D01*
Y527032D01*
X400976Y521244D01*
X405406Y516814D01*
X411194Y514417D01*
X417459D01*
X423247Y516814D01*
X426839Y520407D01*
X427677Y521244D01*
X438095Y525072D01*
X440469Y524491D01*
X446733D01*
X452521Y526889D01*
X456951Y531319D01*
X459349Y537107D01*
Y543372D01*
X456951Y549160D01*
X452521Y553590D01*
X446733Y555987D01*
D02*
G37*
G36*
X347876Y509797D02*
X341611D01*
X335823Y507399D01*
X331393Y502969D01*
X328996Y497181D01*
Y490916D01*
X331393Y485128D01*
X335823Y480698D01*
X341611Y478301D01*
X347876D01*
X353664Y480698D01*
X358094Y485128D01*
X360492Y490916D01*
Y497181D01*
X358094Y502969D01*
X353664Y507399D01*
X347876Y509797D01*
D02*
G37*
%LPD*%
D11*
X1287732Y52676D02*
X1299213D01*
X39369Y49112D02*
X51056D01*
X1259902Y26444D02*
X1261500D01*
X1287732Y52676D01*
X51056Y49112D02*
X73724Y26444D01*
X90552D01*
D12*
X272067Y280576D02*
X281780Y290290D01*
X411942Y420452D02*
Y420774D01*
X281780Y290290D02*
X411942Y420452D01*
Y420774D02*
X612008Y620840D01*
X577971Y922606D02*
X592765Y907812D01*
X349751Y950249D02*
X377394Y922606D01*
X577971D01*
X612129Y621607D02*
Y888448D01*
X592765Y907812D02*
X612129Y888448D01*
X592765Y907812D02*
X622375Y937422D01*
X623047D01*
X649178Y211920D02*
Y393802D01*
X39369Y149999D02*
X54076D01*
X309915Y93041D02*
Y99128D01*
X280711Y128332D02*
X309915Y99128D01*
X657364Y203734D02*
X774098D01*
X458563D02*
X657364D01*
X357023Y102194D02*
X458563Y203734D01*
X649178Y211920D02*
X657364Y203734D01*
X774098D02*
X828182Y149650D01*
Y147639D02*
Y149650D01*
X309915Y93041D02*
X309915D01*
X319069Y102194D01*
X357023D01*
X54076Y149999D02*
X108803Y204726D01*
X278032D01*
D45*
X280711Y128332D02*
X289059D01*
X432998Y272272D02*
X473368D01*
X289059Y128332D02*
X432998Y272272D01*
X176320Y871719D02*
X319539D01*
X168940Y864339D02*
X176320Y871719D01*
X319539D02*
X373910Y926090D01*
X473368Y272272D02*
X550064Y348968D01*
Y409099D01*
D46*
X660748Y421739D02*
G03*
X649178Y393802I27944J-27938D01*
G01*
X321175Y1028980D02*
X331507Y1018649D01*
Y969130D02*
Y1018649D01*
X321175Y1112681D02*
X339395Y1130901D01*
X321175Y1028980D02*
Y1112681D01*
X822247Y492541D02*
X887322Y557616D01*
X772417Y492541D02*
X822247D01*
X887322Y557616D02*
Y579442D01*
X342499Y956379D02*
Y958137D01*
X331507Y969130D02*
X342499Y958137D01*
X343621Y956379D02*
X349751Y950249D01*
X342499Y956379D02*
X343621D01*
X102984Y1124033D02*
Y1163707D01*
X116901Y1172876D02*
X339395D01*
X102984Y1124033D02*
X108332Y1118686D01*
X102984Y1158959D02*
X116901Y1172876D01*
X108332Y1073635D02*
Y1118686D01*
X777593Y518132D02*
X796861Y537400D01*
X796978D01*
X757921Y518132D02*
X777593D01*
X756978Y517188D02*
X757921Y518132D01*
X756197Y517188D02*
X756978D01*
X660748Y421739D02*
X756197Y517188D01*
X339395Y1172876D02*
Y1214850D01*
Y1130901D02*
Y1172876D01*
D47*
X609703Y170660D02*
X654332D01*
X382673Y878855D02*
X462719Y798809D01*
X485010D01*
X455512Y756267D02*
X455659Y756120D01*
X504012Y750186D02*
X509445Y755620D01*
X485010Y798809D02*
X509445Y774373D01*
X362670Y878855D02*
X382673D01*
X344316Y826443D02*
X372047Y854174D01*
X332896Y849081D02*
X362670Y878855D01*
X364428Y808727D02*
X390822Y835120D01*
X509445Y755620D02*
Y774373D01*
X394948Y756267D02*
X455512D01*
X390822Y835120D02*
Y836043D01*
X224581Y849081D02*
X332896D01*
X372047Y854174D02*
Y856217D01*
X504012Y736496D02*
Y750186D01*
X228812Y750093D02*
X258388Y779670D01*
Y797753D01*
X228812Y445701D02*
Y750093D01*
X251646Y447922D02*
Y737942D01*
X276105Y762401D02*
Y784268D01*
X251646Y737942D02*
X276105Y762401D01*
X159564Y841701D02*
X217201D01*
X144464Y856801D02*
X159564Y841701D01*
X217201D02*
X224581Y849081D01*
X331500Y761815D02*
X389400D01*
X330258Y760573D02*
X331500Y761815D01*
X299331Y760573D02*
X330258D01*
X300563Y808727D02*
X364428D01*
X287079Y826443D02*
X344316D01*
X287358Y465184D02*
X315767Y436775D01*
X287358Y465184D02*
Y563818D01*
X297872Y574332D01*
X144464Y856801D02*
Y892673D01*
X228812Y445701D02*
X243724Y430789D01*
X251646Y447922D02*
X270639Y428929D01*
X389400Y761815D02*
X394948Y756267D01*
X271654Y732896D02*
X299331Y760573D01*
X144464Y892673D02*
X144847Y893056D01*
X502128Y734613D02*
X504012Y736496D01*
X258388Y797753D02*
X287079Y826443D01*
X276105Y784268D02*
X300563Y808727D01*
X269363Y455260D02*
Y629641D01*
X297872Y574332D02*
Y576995D01*
X271654Y631932D02*
Y732896D01*
X269363Y629641D02*
X271654Y631932D01*
X265277Y377256D02*
X268614D01*
X295214Y372073D02*
Y377933D01*
X315767Y398486D01*
X277264Y354124D02*
X295214Y372073D01*
X233958Y345936D02*
X265277Y377256D01*
X270639Y415062D02*
Y428929D01*
Y415062D02*
X272523Y413179D01*
X243724Y407221D02*
Y430789D01*
X268614Y377256D02*
X298051Y406692D01*
Y426572D01*
X243724Y407221D02*
X244762Y406183D01*
X269363Y455260D02*
X298051Y426572D01*
X315767Y398486D02*
Y436775D01*
D48*
X1248480Y1176753D02*
X1279966D01*
Y1192496D01*
X1274718Y1197743D01*
X1264223D01*
X1258975Y1192496D01*
Y1176753D01*
X1274718Y1208238D02*
X1279966Y1213486D01*
Y1223982D01*
X1274718Y1229229D01*
X1269470D01*
X1264223Y1223982D01*
Y1218734D01*
Y1223982D01*
X1258975Y1229229D01*
X1253728D01*
X1248480Y1223982D01*
Y1213486D01*
X1253728Y1208238D01*
D50*
X39369Y49999D02*
D03*
Y149999D02*
D03*
X1299213Y50001D02*
D03*
D52*
X1248205Y139780D02*
D03*
X623906Y579844D02*
D03*
X342387Y142477D02*
D03*
X168940Y864339D02*
D03*
X455659Y756120D02*
D03*
X422294Y806270D02*
D03*
X372047Y856217D02*
D03*
X390822Y836043D02*
D03*
X486807Y764996D02*
D03*
X402399Y787190D02*
D03*
X295585Y1038552D02*
D03*
X346766Y1039580D02*
D03*
X590774Y1225211D02*
D03*
X588038Y1161032D02*
D03*
X505183Y396347D02*
D03*
X590774Y282698D02*
D03*
X505183Y360043D02*
D03*
X331507Y970195D02*
D03*
X228812Y792402D02*
D03*
X233958Y826443D02*
D03*
X102984Y1163707D02*
D03*
X520630Y803278D02*
D03*
X110237Y849116D02*
D03*
X436830Y960007D02*
D03*
X320844Y783211D02*
D03*
X319247Y722099D02*
D03*
X340877Y739177D02*
D03*
X533585Y757103D02*
D03*
X564482Y707426D02*
D03*
X612008Y620840D02*
D03*
X711137Y538681D02*
D03*
X654193Y475029D02*
D03*
X677191Y496414D02*
D03*
X204206Y472274D02*
D03*
X144847Y893056D02*
D03*
X502128Y734613D02*
D03*
X311440Y600982D02*
D03*
X297872Y576995D02*
D03*
X491337Y669349D02*
D03*
X532837Y639725D02*
D03*
X125020Y160228D02*
D03*
X727882Y1056301D02*
D03*
X1150081Y111906D02*
D03*
X1079725Y338745D02*
D03*
X1104595Y393802D02*
D03*
X1150081Y439723D02*
D03*
X1310518Y857857D02*
D03*
Y965068D02*
D03*
Y1179489D02*
D03*
X1113427Y696651D02*
D03*
Y726971D02*
D03*
Y763179D02*
D03*
Y792402D02*
D03*
Y827133D02*
D03*
Y865781D02*
D03*
Y902949D02*
D03*
X1113061Y940361D02*
D03*
X691096Y857937D02*
D03*
X690383Y899806D02*
D03*
X655915Y772927D02*
D03*
X736905Y628957D02*
D03*
X736725Y660536D02*
D03*
X736905Y691295D02*
D03*
Y722337D02*
D03*
Y756658D02*
D03*
Y792165D02*
D03*
Y829127D02*
D03*
Y862318D02*
D03*
Y900095D02*
D03*
Y935801D02*
D03*
X967007Y1039580D02*
D03*
X922768Y1040397D02*
D03*
X887104Y1040261D02*
D03*
X850352Y1039172D02*
D03*
X247813Y64700D02*
D03*
X356421Y61306D02*
D03*
X854712Y120329D02*
D03*
X571430Y451226D02*
D03*
X630791Y444163D02*
D03*
X819821Y565207D02*
D03*
X791723Y565054D02*
D03*
X764173Y565162D02*
D03*
X738340Y572273D02*
D03*
X736544Y983275D02*
D03*
X1020770Y470576D02*
D03*
X1022539Y522878D02*
D03*
Y556882D02*
D03*
X1044210Y579442D02*
D03*
X1065350Y598787D02*
D03*
X1085521Y620440D02*
D03*
X1107018Y642094D02*
D03*
X1113427Y667968D02*
D03*
X1139276Y968273D02*
D03*
X621601Y1016653D02*
D03*
X690945Y1012400D02*
D03*
X824521Y536451D02*
D03*
X796978Y537400D02*
D03*
X550064Y409099D02*
D03*
X772417Y492541D02*
D03*
X690383Y1230006D02*
D03*
X726976Y1141719D02*
D03*
X655915Y1088091D02*
D03*
X773881Y1080763D02*
D03*
X660752Y836318D02*
D03*
X653006Y805174D02*
D03*
X623047Y937422D02*
D03*
X502128Y993241D02*
D03*
X899390Y980402D02*
D03*
X873668Y700665D02*
D03*
X189392Y248746D02*
D03*
X183071Y166789D02*
D03*
X660439Y936581D02*
D03*
X1215289Y1144489D02*
D03*
Y1087478D02*
D03*
Y1171718D02*
D03*
Y1201500D02*
D03*
Y1230006D02*
D03*
Y1115983D02*
D03*
X1020009Y436406D02*
D03*
X1001425Y496812D02*
D03*
X875523Y824296D02*
D03*
X233958Y345936D02*
D03*
X277264Y354124D02*
D03*
X712073Y134522D02*
D03*
X396712Y67224D02*
D03*
X887322Y130951D02*
D03*
X526667Y429264D02*
D03*
X887322Y579442D02*
D03*
X742280Y538681D02*
D03*
X828182Y147639D02*
D03*
X271776Y300294D02*
D03*
X244762Y406183D02*
D03*
X272523Y413179D02*
D03*
X272067Y280576D02*
D03*
X564682Y668000D02*
D03*
X186314Y655561D02*
D03*
X78062Y394400D02*
D03*
X1276942Y298904D02*
D03*
X1267717Y393802D02*
D03*
X78062Y103623D02*
D03*
X61209Y501917D02*
D03*
X67701Y701365D02*
D03*
X64606Y798809D02*
D03*
X64963Y901936D02*
D03*
X1310518Y1125883D02*
D03*
Y1233094D02*
D03*
Y1072278D02*
D03*
Y1018673D02*
D03*
Y911463D02*
D03*
Y804252D02*
D03*
X1090643Y1097539D02*
D03*
X1090860Y1130845D02*
D03*
Y1163995D02*
D03*
X1090643Y1197223D02*
D03*
Y1230451D02*
D03*
X968151Y1097539D02*
D03*
X967894Y1130845D02*
D03*
X966919Y1163995D02*
D03*
X968888Y1197223D02*
D03*
X968151Y1230451D02*
D03*
X736905Y600982D02*
D03*
X108332Y1073635D02*
D03*
X121683Y562898D02*
D03*
X1181103Y905873D02*
D03*
Y862488D02*
D03*
X166657Y911765D02*
D03*
X197060Y62303D02*
D03*
X715109Y967813D02*
D03*
X119514Y1012572D02*
D03*
X121683Y487643D02*
D03*
Y314876D02*
D03*
X120851Y242497D02*
D03*
X168940Y620440D02*
D03*
X236489Y129667D02*
D03*
X202096Y127412D02*
D03*
X502087Y705936D02*
D03*
X690383Y934490D02*
D03*
X738345Y1015153D02*
D03*
X843930Y1197223D02*
D03*
Y1163995D02*
D03*
X1181103Y635204D02*
D03*
Y667036D02*
D03*
X1050127Y23853D02*
D03*
X1138266Y1006779D02*
D03*
X1150081Y225335D02*
D03*
X843930Y1130767D02*
D03*
X1146477Y62719D02*
D03*
X120851Y107143D02*
D03*
X309915Y93041D02*
D03*
X280711Y128332D02*
D03*
X278032Y204726D02*
D03*
X843930Y1230451D02*
D03*
X1220473Y33231D02*
D03*
X120851Y29287D02*
D03*
X301488Y26444D02*
D03*
X342865D02*
D03*
X704166Y691354D02*
D03*
X657003Y744378D02*
D03*
X843930Y1097539D02*
D03*
D53*
X339371Y1214843D02*
D03*
X239371D02*
D03*
D55*
X785584Y243104D02*
D03*
X832828Y290348D02*
D03*
X691096Y384836D02*
D03*
Y290348D02*
D03*
Y337592D02*
D03*
X785584Y290348D02*
D03*
X832828Y243104D02*
D03*
X738340D02*
D03*
X691096D02*
D03*
X738340Y384836D02*
D03*
Y337592D02*
D03*
Y290348D02*
D03*
X785584Y337592D02*
D03*
Y384836D02*
D03*
X832828D02*
D03*
Y337592D02*
D03*
D56*
X204206Y470305D02*
Y472274D01*
X203384Y469483D02*
X204206Y470305D01*
X203384Y326473D02*
X234863Y294993D01*
X203384Y326473D02*
Y469483D01*
X234863Y294993D02*
X271231D01*
%TF.MD5,75520f0184dabfd147f7f4d6ce60ff85*%
M02*
