M48
;Layer_Color=9474304
;FILE_FORMAT=2:5
INCH,LZ
;TYPE=PLATED
T1F00S00C0.00787
T2F00S00C0.01181
T3F00S00C0.01968
T4F00S00C0.02362
T5F00S00C0.03500
%
T01
X0035642Y0006131
X0039671Y0006722
X0045663
X0043723Y0011445
X006362Y0014864
X0067461Y0013356
X0071207Y0013452
X0074031Y0016753
X0078434Y0014338
X0082818Y0014764
X0085471Y0012033
X0088732Y0013095
X009623Y0013356
X0099212Y0011191
X0101968Y0010797
X0105013Y0009693
X010636Y0007131
X0109448Y0008828
X0114648Y0006272
X0115008Y0011191
Y0022534
X0100874Y002425
X0098457Y0021813
X0105013Y0002385
X0122047Y0003323
X012482Y0013978
X006097Y0023944
X0034239Y0014248
X0028071Y0012833
X0023649Y0012967
X002021Y0012741
X0018307Y0016679
X0012502Y0016023
X0012085Y0010714
X0007806Y0010362
X0012085Y0002929
X0019706Y000623
X0024781Y000647
X0030992Y0009304
X0030149Y0002644
X0034286
X0027803Y0020473
X0018939Y0024875
X0012085Y002425
X0012168Y0031488
X0019882Y0029206
X0027178Y0030029
X0027207Y0028058
X0027726Y0035412
X0023396Y0034594
X0024476Y0040618
X0027252Y0041318
X0020421Y0047227
X0012168Y0048764
X0006121Y0050192
X0012168Y005629
X0016894Y0062044
X0018631Y0065556
X0014446Y006647
X0012008Y0075107
X000677Y0070136
X0006461Y0079881
X0011024Y0084912
X0016894Y0086434
X0016666Y0091176
X0014485Y0089306
X0006496Y0090194
X0011951Y0101257
X0010833Y0107363
X0010298Y0116371
X002223Y0111843
X0022193Y0108809
X0025Y0112181
X0029559Y0103855
X0034677Y0103958
X0033151Y0097019
X0032084Y0078321
X0031925Y007221
X0034088Y0073918
X0031949Y0067879
X0032084Y0064996
X0034645Y0063946
X0030462Y0062768
X0031144Y0060098
X0029787Y00577
X0030803Y0055073
X0034474Y0049405
X0007806Y003944
X0022881Y007924
X0023396Y0082644
X0039082Y0083604
X0037205Y0085622
X004321Y0086138
X0045651Y0084859
X0048273Y0085991
X0052756Y0085994
X005137Y0088611
X0052063Y0080328
X0056997Y0079789
X0053359Y007571
X0050213Y0073461
X0050209Y0070594
X0047465Y007108
X0049134Y0066935
X0053284Y0063973
X0056468Y00668
X0056448Y0070743
X00657Y0074438
X0065592Y0077293
X0065301Y0080517
X0066075Y0083632
X006911Y0085794
X0069038Y0089981
Y0093449
X0066044Y0093658
X0062305Y0093742
X006216Y0101665
X0057086Y0099652
X0052667Y0101033
X0050213Y0099324
X0043984Y0101329
X0043683Y0096001
X0042229Y0080627
X004024Y0078719
X0045566Y0075612
X0048681Y00765
X0043732Y0063143
X004436Y0054024
X0041433Y0053017
X0052667Y0042926
X0055006Y004091
X0050518Y0039635
Y0036004
X0057143Y0045123
X0063079Y0044416
X0065419Y0047503
X0067719Y0049641
X0071114Y0053868
X0074228
X0073834Y0057227
X007369Y0060098
Y0062896
X0073672Y0066054
X007369Y006913
Y0072234
Y0075666
Y0079216
Y0082913
Y0086232
Y0090009
Y009358
X0073654Y0098327
X0073835Y0101515
X0069095Y010124
X0071511Y0096781
X0072788Y010563
X0077388Y0108076
X0084393Y0109754
Y0113077
Y01164
Y0119722
Y0123045
X0096815
X0096889Y0119722
X0096692Y01164
X0096789Y0113084
X0096815Y0109754
X0096701Y0103958
X0092277Y010404
X008871Y0104026
X0085035Y0103917
X0089939Y009804
X0087552Y008243
X0087367Y0070066
X0088732Y0057944
X0081982Y0056521
X0079172Y0056505
X0076417Y0056516
X0079698Y005374
X0082452Y0053645
X0077242Y0049254
X0100143Y0049681
X0102077Y0047058
X0102001Y0043641
X0102254Y0052288
Y0055688
X0104421Y0057944
X0106535Y0059879
X0108552Y0062044
X0110702Y0064209
X0111343Y0066797
Y0069665
Y0072697
Y0076318
Y007924
Y0082713
Y0086578
Y0090295
X0111306Y0094036
X0113928Y0096827
X0113827Y0100678
X0109064Y0109754
X0109086Y0113084
Y01164
X0109064Y0119722
Y0123045
X0121529Y0123001
Y012015
Y0117172
Y0114449
Y0111598
Y0108748
X0131052Y0107228
Y0112588
Y0117949
Y0123309
Y0101867
Y0096507
Y0091146
Y0085786
Y0080425
X011811Y0086249
Y0090587
Y0066704
Y006352
X0115008Y0043972
X0110459Y003938
X0107973Y0033874
X0104115Y0032233
X0102755Y0029695
X0127694Y002989
X0126772Y003938
X0059077Y002827
X0062391Y0057984
X0061201Y0062084
X0070417Y0069135
X0065592Y0108809
X0059055Y0110236
X0058804Y0116103
X0059077Y0122521
X0069038Y0123001
X0072698Y0114172
T02
X006911Y002431
X0073834
X0078558
X0083283
Y0029035
Y0033759
X0078558
Y0029035
X0073834
Y0033759
X006911
Y0029035
Y0038484
X0073834
X0078558
X0083283
T03
X0103693Y0036004
T04
X0013937Y0121484
X0018937
X0023937
X0028937
X0033937
X0046779Y0118898
X0071199
T05
X0129921Y0005
Y0015
X0003937Y0015
Y0005
X0003937Y0025
Y0035
Y0045
Y0055
Y0065
Y0075
Y0085
Y0095
Y0105
Y0115
X0129921Y0075
Y0065
Y0055
Y0045
Y0035
Y0025
M30
