G04*
G04 #@! TF.GenerationSoftware,Altium Limited,Altium Designer,18.1.9 (240)*
G04*
G04 Layer_Color=8388736*
%FSLAX25Y25*%
%MOIN*%
G70*
G01*
G75*
%ADD15R,0.04724X0.08661*%
%ADD16R,0.03300X0.04200*%
%ADD17R,0.04200X0.03300*%
%ADD18R,0.03780X0.03780*%
%ADD19R,0.04567X0.04567*%
%ADD20R,0.03630X0.04030*%
%ADD21R,0.06630X0.16630*%
%ADD22C,0.06299*%
%ADD23R,0.04030X0.03630*%
%ADD24R,0.06130X0.06130*%
%ADD25C,0.06130*%
%ADD26O,0.04630X0.05354*%
%ADD27R,0.04630X0.05354*%
%ADD28C,0.07730*%
%ADD29O,0.04567X0.06535*%
%ADD30C,0.01811*%
D15*
X20001Y73500D02*
D03*
D16*
X68550Y86900D02*
D03*
X57450Y56500D02*
D03*
D17*
X15900Y101150D02*
D03*
Y89150D02*
D03*
D18*
X47627Y84368D02*
D03*
X54123D02*
D03*
X47627Y37500D02*
D03*
X54123D02*
D03*
X47627Y75767D02*
D03*
X54123D02*
D03*
D19*
X20000Y78224D02*
D03*
Y73500D02*
D03*
Y68776D02*
D03*
D20*
X71700Y86900D02*
D03*
X65700D02*
D03*
X60600Y56500D02*
D03*
X54600D02*
D03*
D21*
X36900Y117500D02*
D03*
X16900D02*
D03*
D22*
X111500Y5000D02*
D03*
X4000Y122500D02*
D03*
D23*
X15900Y98000D02*
D03*
Y104000D02*
D03*
Y86300D02*
D03*
Y92300D02*
D03*
D24*
X120000Y75000D02*
D03*
X95000D02*
D03*
X5000Y115000D02*
D03*
D25*
X120000Y55000D02*
D03*
Y45000D02*
D03*
Y65000D02*
D03*
Y35000D02*
D03*
Y25000D02*
D03*
Y15000D02*
D03*
Y5000D02*
D03*
X95000Y55000D02*
D03*
Y45000D02*
D03*
Y65000D02*
D03*
Y35000D02*
D03*
Y25000D02*
D03*
Y15000D02*
D03*
Y5000D02*
D03*
X5000Y105000D02*
D03*
Y95000D02*
D03*
Y65000D02*
D03*
Y85000D02*
D03*
Y75000D02*
D03*
Y55000D02*
D03*
X5000Y15000D02*
D03*
Y5000D02*
D03*
X5000Y45000D02*
D03*
Y35000D02*
D03*
Y25000D02*
D03*
D26*
X67000Y19000D02*
D03*
X62000D02*
D03*
X72000D02*
D03*
X57000D02*
D03*
D27*
X52000D02*
D03*
D28*
X26900Y109000D02*
D03*
D29*
X93475Y117500D02*
D03*
X121900D02*
D03*
D30*
X57500Y76000D02*
D03*
X66500Y83000D02*
D03*
X113000Y49500D02*
D03*
Y40000D02*
D03*
X101000Y20500D02*
D03*
X112000D02*
D03*
X75000Y4000D02*
D03*
X87500D02*
D03*
X14000Y66000D02*
D03*
X38500Y88500D02*
D03*
X15000Y80500D02*
D03*
X25512Y77500D02*
D03*
X24000Y72500D02*
D03*
X25512Y81268D02*
D03*
X14750Y74500D02*
D03*
X20000Y92500D02*
D03*
X25500Y84500D02*
D03*
X24500Y58000D02*
D03*
X29000Y68000D02*
D03*
X7500Y70000D02*
D03*
X49500Y59000D02*
D03*
X42500Y58500D02*
D03*
X39000Y62000D02*
D03*
Y78500D02*
D03*
X32500Y81500D02*
D03*
Y62000D02*
D03*
X29000Y59000D02*
D03*
X48500Y80000D02*
D03*
X42500Y68500D02*
D03*
X52000D02*
D03*
X52500Y62500D02*
D03*
X43600Y88900D02*
D03*
X32500Y71500D02*
D03*
X33379Y86825D02*
D03*
X80100Y87100D02*
D03*
X42500Y82000D02*
D03*
X90500Y98000D02*
D03*
X93100Y104200D02*
D03*
X90000Y102100D02*
D03*
X90158Y105118D02*
D03*
X93150Y101050D02*
D03*
X97300Y103500D02*
D03*
X99500Y104300D02*
D03*
X74800Y52200D02*
D03*
X83900Y54700D02*
D03*
X73361Y59300D02*
D03*
X57600Y83500D02*
D03*
X108300Y80700D02*
D03*
X64100Y50300D02*
D03*
X56800Y52200D02*
D03*
X17200Y48800D02*
D03*
X5300Y60000D02*
D03*
X64900Y65300D02*
D03*
X65000Y75000D02*
D03*
Y56200D02*
D03*
X12100Y107650D02*
D03*
X11400Y104500D02*
D03*
X120200Y112200D02*
D03*
X85325Y78000D02*
D03*
X82175D02*
D03*
X105400Y88100D02*
D03*
X105800Y91900D02*
D03*
X79331Y29131D02*
D03*
X123200Y80800D02*
D03*
X123400Y69200D02*
D03*
X111300Y73700D02*
D03*
X114500Y73600D02*
D03*
X99300Y81300D02*
D03*
X105900Y35200D02*
D03*
X111600Y90400D02*
D03*
X57000Y9800D02*
D03*
X32800Y107500D02*
D03*
X31800Y104900D02*
D03*
X93500Y111800D02*
D03*
X30500Y102500D02*
D03*
Y99500D02*
D03*
X30700Y96600D02*
D03*
X21200Y107800D02*
D03*
X21700Y105200D02*
D03*
X22200Y102300D02*
D03*
X22500Y99500D02*
D03*
Y96500D02*
D03*
X78000Y69500D02*
D03*
X25000Y54500D02*
D03*
X37000Y37000D02*
D03*
X32016Y51961D02*
D03*
X28500Y52000D02*
D03*
X42000Y23000D02*
D03*
X70000Y31000D02*
D03*
X66000Y9000D02*
D03*
X71000D02*
D03*
X78000Y16500D02*
D03*
Y78500D02*
D03*
X65000Y40000D02*
D03*
X66000Y34000D02*
D03*
X96000Y81400D02*
D03*
X100200Y65500D02*
D03*
X81800Y93500D02*
D03*
X66200D02*
D03*
X85400Y59500D02*
D03*
X114400Y65600D02*
D03*
X115000Y59800D02*
D03*
X102000Y81000D02*
D03*
X111400Y70600D02*
D03*
X100000Y60000D02*
D03*
X100200Y50000D02*
D03*
X98100Y40200D02*
D03*
X112800Y31000D02*
D03*
X85400Y48891D02*
D03*
X85000Y43900D02*
D03*
X85200Y33400D02*
D03*
X77600Y40300D02*
D03*
X102000Y29700D02*
D03*
X89400Y25000D02*
D03*
X83600Y19400D02*
D03*
X74600Y32100D02*
D03*
X74700Y22700D02*
D03*
X38600Y39900D02*
D03*
X24500Y37800D02*
D03*
X10300Y9400D02*
D03*
X20300Y11000D02*
D03*
X28200D02*
D03*
X19700Y26900D02*
D03*
X34100Y26100D02*
D03*
X11600Y122800D02*
D03*
X11500Y110800D02*
D03*
X42300Y123000D02*
D03*
X42100Y118300D02*
D03*
Y111200D02*
D03*
X37600Y107500D02*
D03*
X16800D02*
D03*
X32000Y123200D02*
D03*
X21700Y123300D02*
D03*
X33800Y96600D02*
D03*
X37100D02*
D03*
X40200D02*
D03*
X43500D02*
D03*
X19000Y23300D02*
D03*
X35800Y32500D02*
D03*
X43800Y29400D02*
D03*
X104724Y97244D02*
D03*
X115768Y104728D02*
D03*
X103300Y77000D02*
D03*
X100300Y74200D02*
D03*
X109500Y85500D02*
D03*
M02*
