G04*
G04 #@! TF.GenerationSoftware,Altium Limited,Altium Designer,18.1.9 (240)*
G04*
G04 Layer_Color=16711935*
%FSLAX25Y25*%
%MOIN*%
G70*
G01*
G75*
%ADD15R,0.04724X0.08661*%
%ADD16R,0.03300X0.04200*%
%ADD19R,0.04567X0.04567*%
%ADD20R,0.03630X0.04030*%
%ADD21R,0.06630X0.16630*%
%ADD22C,0.06299*%
%ADD23R,0.04030X0.03630*%
%ADD24R,0.06130X0.06130*%
%ADD25C,0.06130*%
%ADD26O,0.04630X0.05354*%
%ADD27R,0.04630X0.05354*%
%ADD28C,0.07730*%
%ADD29O,0.04567X0.06535*%
%ADD30C,0.01811*%
%ADD67R,0.06600X0.01500*%
%ADD68R,0.02598X0.03780*%
%ADD69R,0.03780X0.02598*%
%ADD70R,0.06929X0.06929*%
%ADD71R,0.03030X0.04030*%
%ADD72R,0.10000X0.06457*%
G04:AMPARAMS|DCode=73|XSize=21.26mil|YSize=29.13mil|CornerRadius=6.69mil|HoleSize=0mil|Usage=FLASHONLY|Rotation=0.000|XOffset=0mil|YOffset=0mil|HoleType=Round|Shape=RoundedRectangle|*
%AMROUNDEDRECTD73*
21,1,0.02126,0.01575,0,0,0.0*
21,1,0.00787,0.02913,0,0,0.0*
1,1,0.01339,0.00394,-0.00787*
1,1,0.01339,-0.00394,-0.00787*
1,1,0.01339,-0.00394,0.00787*
1,1,0.01339,0.00394,0.00787*
%
%ADD73ROUNDEDRECTD73*%
%ADD74R,0.03030X0.04530*%
%ADD75R,0.03430X0.05430*%
%ADD76R,0.02205X0.05748*%
%ADD77R,0.04830X0.09330*%
%ADD78R,0.04830X0.04830*%
%ADD79R,0.06630X0.10630*%
%ADD80R,0.04530X0.05530*%
%ADD81R,0.04030X0.03030*%
G36*
X91348Y106300D02*
X100207D01*
Y112008D01*
X115167D01*
Y106300D01*
X124026D01*
Y110237D01*
X117333D01*
Y114567D01*
X115561D01*
Y121063D01*
X99813D01*
Y114567D01*
X98041D01*
Y110237D01*
X91348D01*
Y106300D01*
D02*
G37*
D15*
X70000Y55000D02*
D03*
D16*
X85150Y15000D02*
D03*
X98948Y85387D02*
D03*
X98850Y93000D02*
D03*
X57150Y28000D02*
D03*
D19*
X70000Y59724D02*
D03*
Y55000D02*
D03*
Y50276D02*
D03*
D20*
X82000Y15000D02*
D03*
X88000D02*
D03*
X96098Y85387D02*
D03*
X102098D02*
D03*
X102000Y93000D02*
D03*
X96000D02*
D03*
X23000Y20000D02*
D03*
X29000D02*
D03*
X54000Y41200D02*
D03*
X60000D02*
D03*
X47000Y35000D02*
D03*
X41000D02*
D03*
X48000Y41000D02*
D03*
X42000D02*
D03*
X60000Y28000D02*
D03*
X54000D02*
D03*
X119000Y83000D02*
D03*
X113000D02*
D03*
D21*
X36900Y117500D02*
D03*
X16900D02*
D03*
D22*
X4000Y122500D02*
D03*
X111500Y5000D02*
D03*
D23*
X15100Y98500D02*
D03*
Y92500D02*
D03*
X28500Y32000D02*
D03*
Y26000D02*
D03*
D24*
X120000Y75000D02*
D03*
X95000D02*
D03*
X5000Y115000D02*
D03*
D25*
X120000Y55000D02*
D03*
Y45000D02*
D03*
Y65000D02*
D03*
Y35000D02*
D03*
Y25000D02*
D03*
Y15000D02*
D03*
Y5000D02*
D03*
X95000Y55000D02*
D03*
Y45000D02*
D03*
Y65000D02*
D03*
Y35000D02*
D03*
Y25000D02*
D03*
Y15000D02*
D03*
Y5000D02*
D03*
X5000Y105000D02*
D03*
Y95000D02*
D03*
Y65000D02*
D03*
Y85000D02*
D03*
Y75000D02*
D03*
Y55000D02*
D03*
X5000Y15000D02*
D03*
Y5000D02*
D03*
X5000Y45000D02*
D03*
Y35000D02*
D03*
Y25000D02*
D03*
D26*
X67000Y19000D02*
D03*
X62000D02*
D03*
X72000D02*
D03*
X57000D02*
D03*
D27*
X52000D02*
D03*
D28*
X26900Y109000D02*
D03*
D29*
X93475Y117500D02*
D03*
X121900D02*
D03*
D30*
X57500Y76000D02*
D03*
X66500Y83000D02*
D03*
X113000Y49500D02*
D03*
Y40000D02*
D03*
X101000Y20500D02*
D03*
X112000D02*
D03*
X75000Y4000D02*
D03*
X87500D02*
D03*
X14000Y66000D02*
D03*
X38500Y88500D02*
D03*
X15000Y80500D02*
D03*
X25512Y77500D02*
D03*
X24000Y72500D02*
D03*
X25512Y81268D02*
D03*
X14750Y74500D02*
D03*
X20000Y92500D02*
D03*
X25500Y84500D02*
D03*
X24500Y58000D02*
D03*
X29000Y68000D02*
D03*
X7500Y70000D02*
D03*
X49500Y59000D02*
D03*
X42500Y58500D02*
D03*
X39000Y62000D02*
D03*
Y78500D02*
D03*
X32500Y81500D02*
D03*
Y62000D02*
D03*
X29000Y59000D02*
D03*
X48500Y80000D02*
D03*
X42500Y68500D02*
D03*
X52000D02*
D03*
X52500Y62500D02*
D03*
X43600Y88900D02*
D03*
X32500Y71500D02*
D03*
X33379Y86825D02*
D03*
X80100Y87100D02*
D03*
X42500Y82000D02*
D03*
X90500Y98000D02*
D03*
X93100Y104200D02*
D03*
X90000Y102100D02*
D03*
X90158Y105118D02*
D03*
X93150Y101050D02*
D03*
X97300Y103500D02*
D03*
X99500Y104300D02*
D03*
X74800Y52200D02*
D03*
X83900Y54700D02*
D03*
X73361Y59300D02*
D03*
X57600Y83500D02*
D03*
X108300Y80700D02*
D03*
X64100Y50300D02*
D03*
X56800Y52200D02*
D03*
X17200Y48800D02*
D03*
X5300Y60000D02*
D03*
X64900Y65300D02*
D03*
X65000Y75000D02*
D03*
Y56200D02*
D03*
X12100Y107650D02*
D03*
X11400Y104500D02*
D03*
X120200Y112200D02*
D03*
X85325Y78000D02*
D03*
X82175D02*
D03*
X105400Y88100D02*
D03*
X105800Y91900D02*
D03*
X79331Y29131D02*
D03*
X123200Y80800D02*
D03*
X123400Y69200D02*
D03*
X111300Y73700D02*
D03*
X114500Y73600D02*
D03*
X99300Y81300D02*
D03*
X105900Y35200D02*
D03*
X111600Y90400D02*
D03*
X57000Y9800D02*
D03*
X32800Y107500D02*
D03*
X31800Y104900D02*
D03*
X93500Y111800D02*
D03*
X30500Y102500D02*
D03*
Y99500D02*
D03*
X30700Y96600D02*
D03*
X21200Y107800D02*
D03*
X21700Y105200D02*
D03*
X22200Y102300D02*
D03*
X22500Y99500D02*
D03*
Y96500D02*
D03*
X78000Y69500D02*
D03*
X25000Y54500D02*
D03*
X37000Y37000D02*
D03*
X32016Y51961D02*
D03*
X28500Y52000D02*
D03*
X42000Y23000D02*
D03*
X70000Y31000D02*
D03*
X66000Y9000D02*
D03*
X71000D02*
D03*
X78000Y16500D02*
D03*
Y78500D02*
D03*
X65000Y40000D02*
D03*
X66000Y34000D02*
D03*
X96000Y81400D02*
D03*
X100200Y65500D02*
D03*
X81800Y93500D02*
D03*
X66200D02*
D03*
X85400Y59500D02*
D03*
X114400Y65600D02*
D03*
X115000Y59800D02*
D03*
X102000Y81000D02*
D03*
X111400Y70600D02*
D03*
X100000Y60000D02*
D03*
X100200Y50000D02*
D03*
X98100Y40200D02*
D03*
X112800Y31000D02*
D03*
X85400Y48891D02*
D03*
X85000Y43900D02*
D03*
X85200Y33400D02*
D03*
X77600Y40300D02*
D03*
X102000Y29700D02*
D03*
X89400Y25000D02*
D03*
X83600Y19400D02*
D03*
X74600Y32100D02*
D03*
X74700Y22700D02*
D03*
X38600Y39900D02*
D03*
X24500Y37800D02*
D03*
X10300Y9400D02*
D03*
X20300Y11000D02*
D03*
X28200D02*
D03*
X19700Y26900D02*
D03*
X34100Y26100D02*
D03*
X11600Y122800D02*
D03*
X11500Y110800D02*
D03*
X42300Y123000D02*
D03*
X42100Y118300D02*
D03*
Y111200D02*
D03*
X37600Y107500D02*
D03*
X16800D02*
D03*
X32000Y123200D02*
D03*
X21700Y123300D02*
D03*
X33800Y96600D02*
D03*
X37100D02*
D03*
X40200D02*
D03*
X43500D02*
D03*
X19000Y23300D02*
D03*
X35800Y32500D02*
D03*
X43800Y29400D02*
D03*
X104724Y97244D02*
D03*
X115768Y104728D02*
D03*
X103300Y77000D02*
D03*
X100300Y74200D02*
D03*
X109500Y85500D02*
D03*
D67*
X70000Y51650D02*
D03*
Y58250D02*
D03*
D68*
X57996Y48012D02*
D03*
X54847D02*
D03*
X51697D02*
D03*
X48547D02*
D03*
X45398D02*
D03*
X42248D02*
D03*
X39098D02*
D03*
X35949D02*
D03*
X32799D02*
D03*
X29650D02*
D03*
X26500D02*
D03*
X23350D02*
D03*
Y92500D02*
D03*
X26500D02*
D03*
X29650D02*
D03*
X32799D02*
D03*
X35949D02*
D03*
X39098D02*
D03*
X42248D02*
D03*
X45398D02*
D03*
X48547D02*
D03*
X51697D02*
D03*
X54847D02*
D03*
X57996D02*
D03*
D69*
X20201Y52933D02*
D03*
Y56083D02*
D03*
Y59232D02*
D03*
Y62382D02*
D03*
Y65531D02*
D03*
Y68681D02*
D03*
Y71831D02*
D03*
Y74980D02*
D03*
Y78130D02*
D03*
Y81279D02*
D03*
Y84429D02*
D03*
Y87579D02*
D03*
X61146D02*
D03*
Y84429D02*
D03*
Y81279D02*
D03*
Y78130D02*
D03*
Y74980D02*
D03*
Y71831D02*
D03*
Y68681D02*
D03*
Y65531D02*
D03*
Y62382D02*
D03*
Y59232D02*
D03*
Y56083D02*
D03*
Y52933D02*
D03*
D70*
X40673Y70256D02*
D03*
Y80098D02*
D03*
X50516D02*
D03*
Y70256D02*
D03*
Y60413D02*
D03*
X40673D02*
D03*
X30830D02*
D03*
Y70256D02*
D03*
Y80098D02*
D03*
D71*
X67000Y28000D02*
D03*
X73000D02*
D03*
X28000Y38000D02*
D03*
X34000D02*
D03*
X74500Y69500D02*
D03*
X68500D02*
D03*
Y81000D02*
D03*
X74500D02*
D03*
X68500Y75500D02*
D03*
X74500D02*
D03*
D72*
X119000Y94000D02*
D03*
D73*
X122937Y99512D02*
D03*
X119000D02*
D03*
X115063D02*
D03*
X122937Y88488D02*
D03*
X119000D02*
D03*
X115063D02*
D03*
D74*
X22700Y27000D02*
D03*
X15300D02*
D03*
X19000Y37000D02*
D03*
D75*
X15000Y5700D02*
D03*
Y20300D02*
D03*
D76*
X107687Y108150D02*
D03*
X105128D02*
D03*
X110247D02*
D03*
X102569D02*
D03*
X112805D02*
D03*
D77*
X33100Y119000D02*
D03*
X20550D02*
D03*
D78*
X26800Y112700D02*
D03*
D79*
X26900Y110500D02*
D03*
D80*
X40000Y29000D02*
D03*
X48000D02*
D03*
X62000Y35000D02*
D03*
X54000D02*
D03*
D81*
X85300Y90700D02*
D03*
Y84700D02*
D03*
X90300Y90700D02*
D03*
Y84700D02*
D03*
M02*
