%TF.GenerationSoftware,KiCad,Pcbnew,(5.1.8)-1*%
%TF.CreationDate,2021-03-28T09:39:19+02:00*%
%TF.ProjectId,KETCube_mainboard,4b455443-7562-4655-9f6d-61696e626f61,I*%
%TF.SameCoordinates,Original*%
%TF.FileFunction,Legend,Top*%
%TF.FilePolarity,Positive*%
%FSLAX46Y46*%
G04 Gerber Fmt 4.6, Leading zero omitted, Abs format (unit mm)*
G04 Created by KiCad (PCBNEW (5.1.8)-1) date 2021-03-28 09:39:19*
%MOMM*%
%LPD*%
G01*
G04 APERTURE LIST*
%ADD10C,0.300000*%
%ADD11C,0.120000*%
%ADD12C,0.100000*%
G04 APERTURE END LIST*
D10*
X149948900Y-104470200D02*
X152044400Y-104470200D01*
X138518900Y-88785700D02*
X140677900Y-88785700D01*
D11*
%TO.C,D4*%
X161004900Y-87798200D02*
X161004900Y-86598200D01*
X159154900Y-87798200D02*
X161004900Y-87798200D01*
X159154900Y-86598200D02*
X161004900Y-86598200D01*
%TO.C,IC1*%
X141397660Y-88202860D02*
X141397660Y-99802860D01*
X141397660Y-99802860D02*
X153007060Y-99802860D01*
X153897660Y-98905060D02*
X153897660Y-88202860D01*
X154547660Y-98502860D02*
G75*
G03*
X154547660Y-98502860I-150000J0D01*
G01*
X141397660Y-88202860D02*
X153897660Y-88202860D01*
X153896060Y-98905060D02*
X153007060Y-99794060D01*
%TO.C,C4*%
X158205900Y-94472979D02*
X158205900Y-94147421D01*
X157185900Y-94472979D02*
X157185900Y-94147421D01*
%TO.C,IC3*%
X138606400Y-111161700D02*
X141606400Y-111161700D01*
X141606400Y-114161700D02*
X138606400Y-114161700D01*
X138016600Y-111239300D02*
G75*
G03*
X138016600Y-111239300I-120000J0D01*
G01*
%TO.C,TP1*%
X162691400Y-98440200D02*
G75*
G03*
X162691400Y-98440200I-900000J0D01*
G01*
%TO.C,D7*%
X163320400Y-92048700D02*
X163320400Y-89763700D01*
X161850400Y-92048700D02*
X163320400Y-92048700D01*
X161850400Y-89763700D02*
X161850400Y-92048700D01*
%TO.C,SW2*%
X160433460Y-106016660D02*
G75*
G03*
X160433460Y-106016660I-200000J0D01*
G01*
X163067660Y-102412860D02*
X163067660Y-103880860D01*
X160167660Y-103880860D02*
X160167660Y-102412860D01*
%TO.C,SW1*%
X160433460Y-97634660D02*
G75*
G03*
X160433460Y-97634660I-200000J0D01*
G01*
X163067660Y-94030860D02*
X163067660Y-95498860D01*
X160167660Y-95498860D02*
X160167660Y-94030860D01*
%TO.C,S4*%
X135578400Y-86452200D02*
X141078400Y-86452200D01*
X141078400Y-86452200D02*
X141078400Y-88402200D01*
X141078400Y-88402200D02*
X135578400Y-88402200D01*
X135578400Y-88402200D02*
X135578400Y-86452200D01*
X136928400Y-88652200D02*
X136628400Y-88952200D01*
X136628400Y-88952200D02*
X137228400Y-88952200D01*
X137228400Y-88952200D02*
X136928400Y-88652200D01*
%TO.C,S2*%
X154309900Y-104573200D02*
X154009900Y-104273200D01*
X153709900Y-104573200D02*
X154309900Y-104573200D01*
X154009900Y-104273200D02*
X153709900Y-104573200D01*
X154730900Y-102123200D02*
X154730900Y-104073200D01*
X149230900Y-104073200D02*
X149230900Y-102123200D01*
X154730900Y-104073200D02*
X149230900Y-104073200D01*
X150980900Y-102123200D02*
X150980900Y-100149200D01*
X150980900Y-100149200D02*
X152980900Y-100149200D01*
X152980900Y-100149200D02*
X152980900Y-102123200D01*
X150980900Y-102123200D02*
X149230900Y-102123200D01*
X154730900Y-102123200D02*
X152980900Y-102123200D01*
%TO.C,S1*%
X156803900Y-106549700D02*
X156803900Y-104549700D01*
X159603900Y-106549700D02*
X156803900Y-106549700D01*
X159603900Y-104549700D02*
X159603900Y-106549700D01*
X156803900Y-104549700D02*
X159603900Y-104549700D01*
%TO.C,R9*%
X158231621Y-103144860D02*
X158557179Y-103144860D01*
X158231621Y-104164860D02*
X158557179Y-104164860D01*
%TO.C,R8*%
X141005779Y-107215400D02*
X140680221Y-107215400D01*
X141005779Y-106195400D02*
X140680221Y-106195400D01*
%TO.C,R7*%
X141031179Y-108790200D02*
X140705621Y-108790200D01*
X141031179Y-107770200D02*
X140705621Y-107770200D01*
%TO.C,R5*%
X149032179Y-87581200D02*
X148706621Y-87581200D01*
X149032179Y-86561200D02*
X148706621Y-86561200D01*
%TO.C,R4*%
X144549400Y-102029479D02*
X144549400Y-101703921D01*
X145569400Y-102029479D02*
X145569400Y-101703921D01*
%TO.C,R3*%
X159602900Y-94147421D02*
X159602900Y-94472979D01*
X158582900Y-94147421D02*
X158582900Y-94472979D01*
%TO.C,R2*%
X146073400Y-102039639D02*
X146073400Y-101714081D01*
X147093400Y-102039639D02*
X147093400Y-101714081D01*
%TO.C,R1*%
X148744400Y-101665921D02*
X148744400Y-101991479D01*
X147724400Y-101665921D02*
X147724400Y-101991479D01*
%TO.C,L1*%
X142658881Y-104777000D02*
X142984439Y-104777000D01*
X142658881Y-103757000D02*
X142984439Y-103757000D01*
%TO.C,IC2*%
X155538900Y-86888200D02*
X156998900Y-86888200D01*
X155538900Y-90048200D02*
X157698900Y-90048200D01*
X155538900Y-90048200D02*
X155538900Y-89118200D01*
X155538900Y-86888200D02*
X155538900Y-87818200D01*
%TO.C,H7*%
X136787660Y-114008860D02*
X135160660Y-114008860D01*
X136787660Y-106508860D02*
X135160660Y-106508860D01*
X131787660Y-114008860D02*
X131787660Y-106508860D01*
X137641260Y-108958860D02*
G75*
G02*
X137441260Y-108958860I-100000J0D01*
G01*
X137441260Y-108958860D02*
G75*
G02*
X137641260Y-108958860I100000J0D01*
G01*
%TO.C,C12*%
X142658881Y-103148860D02*
X142984439Y-103148860D01*
X142658881Y-102128860D02*
X142984439Y-102128860D01*
%TO.C,C11*%
X135487933Y-91962382D02*
X135718138Y-92192587D01*
X136209182Y-91241133D02*
X136439387Y-91471338D01*
%TO.C,C10*%
X155699679Y-100658200D02*
X155374121Y-100658200D01*
X155699679Y-101678200D02*
X155374121Y-101678200D01*
%TO.C,C9*%
X142658881Y-101624860D02*
X142984439Y-101624860D01*
X142658881Y-100604860D02*
X142984439Y-100604860D01*
%TO.C,C8*%
X158646400Y-89321421D02*
X158646400Y-89646979D01*
X159666400Y-89321421D02*
X159666400Y-89646979D01*
%TO.C,C7*%
X156453621Y-91454700D02*
X156779179Y-91454700D01*
X156453621Y-90434700D02*
X156779179Y-90434700D01*
%TO.C,C6*%
X155411900Y-94472979D02*
X155411900Y-94147421D01*
X154391900Y-94472979D02*
X154391900Y-94147421D01*
%TO.C,C5*%
X156808900Y-94472979D02*
X156808900Y-94147421D01*
X155788900Y-94472979D02*
X155788900Y-94147421D01*
%TO.C,C3*%
X154480800Y-97639921D02*
X154480800Y-97965479D01*
X155500800Y-97639921D02*
X155500800Y-97965479D01*
%TO.C,C2*%
X155827000Y-97601821D02*
X155827000Y-97927379D01*
X156847000Y-97601821D02*
X156847000Y-97927379D01*
%TO.C,C1*%
X143698179Y-110081600D02*
X143372621Y-110081600D01*
X143698179Y-111101600D02*
X143372621Y-111101600D01*
%TO.C,AN2*%
X135277660Y-102582860D02*
X135277660Y-95582860D01*
X132077660Y-102582860D02*
X132077660Y-95582860D01*
%TO.C,D4*%
D12*
X161228142Y-86987028D02*
X161228142Y-86387028D01*
X161371000Y-86387028D01*
X161456714Y-86415600D01*
X161513857Y-86472742D01*
X161542428Y-86529885D01*
X161571000Y-86644171D01*
X161571000Y-86729885D01*
X161542428Y-86844171D01*
X161513857Y-86901314D01*
X161456714Y-86958457D01*
X161371000Y-86987028D01*
X161228142Y-86987028D01*
X162085285Y-86587028D02*
X162085285Y-86987028D01*
X161942428Y-86358457D02*
X161799571Y-86787028D01*
X162171000Y-86787028D01*
%TO.C,IC1*%
X142441685Y-87787128D02*
X142441685Y-87187128D01*
X143070257Y-87729985D02*
X143041685Y-87758557D01*
X142955971Y-87787128D01*
X142898828Y-87787128D01*
X142813114Y-87758557D01*
X142755971Y-87701414D01*
X142727400Y-87644271D01*
X142698828Y-87529985D01*
X142698828Y-87444271D01*
X142727400Y-87329985D01*
X142755971Y-87272842D01*
X142813114Y-87215700D01*
X142898828Y-87187128D01*
X142955971Y-87187128D01*
X143041685Y-87215700D01*
X143070257Y-87244271D01*
X143641685Y-87787128D02*
X143298828Y-87787128D01*
X143470257Y-87787128D02*
X143470257Y-87187128D01*
X143413114Y-87272842D01*
X143355971Y-87329985D01*
X143298828Y-87358557D01*
%TO.C,J1*%
X148685714Y-110871428D02*
X148685714Y-111300000D01*
X148657142Y-111385714D01*
X148600000Y-111442857D01*
X148514285Y-111471428D01*
X148457142Y-111471428D01*
X149285714Y-111471428D02*
X148942857Y-111471428D01*
X149114285Y-111471428D02*
X149114285Y-110871428D01*
X149057142Y-110957142D01*
X149000000Y-111014285D01*
X148942857Y-111042857D01*
X150171428Y-111700000D02*
X150142857Y-111671428D01*
X150085714Y-111585714D01*
X150057142Y-111528571D01*
X150028571Y-111442857D01*
X150000000Y-111300000D01*
X150000000Y-111185714D01*
X150028571Y-111042857D01*
X150057142Y-110957142D01*
X150085714Y-110900000D01*
X150142857Y-110814285D01*
X150171428Y-110785714D01*
X150714285Y-111471428D02*
X150371428Y-111471428D01*
X150542857Y-111471428D02*
X150542857Y-110871428D01*
X150485714Y-110957142D01*
X150428571Y-111014285D01*
X150371428Y-111042857D01*
X150914285Y-111700000D02*
X150942857Y-111671428D01*
X151000000Y-111585714D01*
X151028571Y-111528571D01*
X151057142Y-111442857D01*
X151085714Y-111300000D01*
X151085714Y-111185714D01*
X151057142Y-111042857D01*
X151028571Y-110957142D01*
X151000000Y-110900000D01*
X150942857Y-110814285D01*
X150914285Y-110785714D01*
X148785714Y-83171428D02*
X148785714Y-83600000D01*
X148757142Y-83685714D01*
X148700000Y-83742857D01*
X148614285Y-83771428D01*
X148557142Y-83771428D01*
X149385714Y-83771428D02*
X149042857Y-83771428D01*
X149214285Y-83771428D02*
X149214285Y-83171428D01*
X149157142Y-83257142D01*
X149100000Y-83314285D01*
X149042857Y-83342857D01*
X150271428Y-84000000D02*
X150242857Y-83971428D01*
X150185714Y-83885714D01*
X150157142Y-83828571D01*
X150128571Y-83742857D01*
X150100000Y-83600000D01*
X150100000Y-83485714D01*
X150128571Y-83342857D01*
X150157142Y-83257142D01*
X150185714Y-83200000D01*
X150242857Y-83114285D01*
X150271428Y-83085714D01*
X150471428Y-83228571D02*
X150500000Y-83200000D01*
X150557142Y-83171428D01*
X150700000Y-83171428D01*
X150757142Y-83200000D01*
X150785714Y-83228571D01*
X150814285Y-83285714D01*
X150814285Y-83342857D01*
X150785714Y-83428571D01*
X150442857Y-83771428D01*
X150814285Y-83771428D01*
X151014285Y-84000000D02*
X151042857Y-83971428D01*
X151100000Y-83885714D01*
X151128571Y-83828571D01*
X151157142Y-83742857D01*
X151185714Y-83600000D01*
X151185714Y-83485714D01*
X151157142Y-83342857D01*
X151128571Y-83257142D01*
X151100000Y-83200000D01*
X151042857Y-83114285D01*
X151014285Y-83085714D01*
X148685714Y-109471428D02*
X148685714Y-109900000D01*
X148657142Y-109985714D01*
X148600000Y-110042857D01*
X148514285Y-110071428D01*
X148457142Y-110071428D01*
X149285714Y-110071428D02*
X148942857Y-110071428D01*
X149114285Y-110071428D02*
X149114285Y-109471428D01*
X149057142Y-109557142D01*
X149000000Y-109614285D01*
X148942857Y-109642857D01*
X150171428Y-110300000D02*
X150142857Y-110271428D01*
X150085714Y-110185714D01*
X150057142Y-110128571D01*
X150028571Y-110042857D01*
X150000000Y-109900000D01*
X150000000Y-109785714D01*
X150028571Y-109642857D01*
X150057142Y-109557142D01*
X150085714Y-109500000D01*
X150142857Y-109414285D01*
X150171428Y-109385714D01*
X150342857Y-109471428D02*
X150714285Y-109471428D01*
X150514285Y-109700000D01*
X150600000Y-109700000D01*
X150657142Y-109728571D01*
X150685714Y-109757142D01*
X150714285Y-109814285D01*
X150714285Y-109957142D01*
X150685714Y-110014285D01*
X150657142Y-110042857D01*
X150600000Y-110071428D01*
X150428571Y-110071428D01*
X150371428Y-110042857D01*
X150342857Y-110014285D01*
X150914285Y-110300000D02*
X150942857Y-110271428D01*
X151000000Y-110185714D01*
X151028571Y-110128571D01*
X151057142Y-110042857D01*
X151085714Y-109900000D01*
X151085714Y-109785714D01*
X151057142Y-109642857D01*
X151028571Y-109557142D01*
X151000000Y-109500000D01*
X150942857Y-109414285D01*
X150914285Y-109385714D01*
%TO.C,C4*%
X157595900Y-92809985D02*
X157567328Y-92838557D01*
X157481614Y-92867128D01*
X157424471Y-92867128D01*
X157338757Y-92838557D01*
X157281614Y-92781414D01*
X157253042Y-92724271D01*
X157224471Y-92609985D01*
X157224471Y-92524271D01*
X157253042Y-92409985D01*
X157281614Y-92352842D01*
X157338757Y-92295700D01*
X157424471Y-92267128D01*
X157481614Y-92267128D01*
X157567328Y-92295700D01*
X157595900Y-92324271D01*
X158110185Y-92467128D02*
X158110185Y-92867128D01*
X157967328Y-92238557D02*
X157824471Y-92667128D01*
X158195900Y-92667128D01*
%TO.C,IC3*%
X138936485Y-110939228D02*
X138936485Y-110339228D01*
X139565057Y-110882085D02*
X139536485Y-110910657D01*
X139450771Y-110939228D01*
X139393628Y-110939228D01*
X139307914Y-110910657D01*
X139250771Y-110853514D01*
X139222200Y-110796371D01*
X139193628Y-110682085D01*
X139193628Y-110596371D01*
X139222200Y-110482085D01*
X139250771Y-110424942D01*
X139307914Y-110367800D01*
X139393628Y-110339228D01*
X139450771Y-110339228D01*
X139536485Y-110367800D01*
X139565057Y-110396371D01*
X139765057Y-110339228D02*
X140136485Y-110339228D01*
X139936485Y-110567800D01*
X140022200Y-110567800D01*
X140079342Y-110596371D01*
X140107914Y-110624942D01*
X140136485Y-110682085D01*
X140136485Y-110824942D01*
X140107914Y-110882085D01*
X140079342Y-110910657D01*
X140022200Y-110939228D01*
X139850771Y-110939228D01*
X139793628Y-110910657D01*
X139765057Y-110882085D01*
%TO.C,TP1*%
X159262857Y-98223428D02*
X159605714Y-98223428D01*
X159434285Y-98823428D02*
X159434285Y-98223428D01*
X159805714Y-98823428D02*
X159805714Y-98223428D01*
X160034285Y-98223428D01*
X160091428Y-98252000D01*
X160120000Y-98280571D01*
X160148571Y-98337714D01*
X160148571Y-98423428D01*
X160120000Y-98480571D01*
X160091428Y-98509142D01*
X160034285Y-98537714D01*
X159805714Y-98537714D01*
X160720000Y-98823428D02*
X160377142Y-98823428D01*
X160548571Y-98823428D02*
X160548571Y-98223428D01*
X160491428Y-98309142D01*
X160434285Y-98366285D01*
X160377142Y-98394857D01*
%TO.C,D7*%
X162142542Y-88930128D02*
X162142542Y-88330128D01*
X162285400Y-88330128D01*
X162371114Y-88358700D01*
X162428257Y-88415842D01*
X162456828Y-88472985D01*
X162485400Y-88587271D01*
X162485400Y-88672985D01*
X162456828Y-88787271D01*
X162428257Y-88844414D01*
X162371114Y-88901557D01*
X162285400Y-88930128D01*
X162142542Y-88930128D01*
X162685400Y-88330128D02*
X163085400Y-88330128D01*
X162828257Y-88930128D01*
%TO.C,SW2*%
X161875757Y-103936700D02*
X161904328Y-103850985D01*
X161904328Y-103708128D01*
X161875757Y-103650985D01*
X161847185Y-103622414D01*
X161790042Y-103593842D01*
X161732900Y-103593842D01*
X161675757Y-103622414D01*
X161647185Y-103650985D01*
X161618614Y-103708128D01*
X161590042Y-103822414D01*
X161561471Y-103879557D01*
X161532900Y-103908128D01*
X161475757Y-103936700D01*
X161418614Y-103936700D01*
X161361471Y-103908128D01*
X161332900Y-103879557D01*
X161304328Y-103822414D01*
X161304328Y-103679557D01*
X161332900Y-103593842D01*
X161304328Y-103393842D02*
X161904328Y-103250985D01*
X161475757Y-103136700D01*
X161904328Y-103022414D01*
X161304328Y-102879557D01*
X161361471Y-102679557D02*
X161332900Y-102650985D01*
X161304328Y-102593842D01*
X161304328Y-102450985D01*
X161332900Y-102393842D01*
X161361471Y-102365271D01*
X161418614Y-102336700D01*
X161475757Y-102336700D01*
X161561471Y-102365271D01*
X161904328Y-102708128D01*
X161904328Y-102336700D01*
%TO.C,SW1*%
X161812257Y-95427700D02*
X161840828Y-95341985D01*
X161840828Y-95199128D01*
X161812257Y-95141985D01*
X161783685Y-95113414D01*
X161726542Y-95084842D01*
X161669400Y-95084842D01*
X161612257Y-95113414D01*
X161583685Y-95141985D01*
X161555114Y-95199128D01*
X161526542Y-95313414D01*
X161497971Y-95370557D01*
X161469400Y-95399128D01*
X161412257Y-95427700D01*
X161355114Y-95427700D01*
X161297971Y-95399128D01*
X161269400Y-95370557D01*
X161240828Y-95313414D01*
X161240828Y-95170557D01*
X161269400Y-95084842D01*
X161240828Y-94884842D02*
X161840828Y-94741985D01*
X161412257Y-94627700D01*
X161840828Y-94513414D01*
X161240828Y-94370557D01*
X161840828Y-93827700D02*
X161840828Y-94170557D01*
X161840828Y-93999128D02*
X161240828Y-93999128D01*
X161326542Y-94056271D01*
X161383685Y-94113414D01*
X161412257Y-94170557D01*
%TO.C,S4*%
X134442257Y-87758557D02*
X134527971Y-87787128D01*
X134670828Y-87787128D01*
X134727971Y-87758557D01*
X134756542Y-87729985D01*
X134785114Y-87672842D01*
X134785114Y-87615700D01*
X134756542Y-87558557D01*
X134727971Y-87529985D01*
X134670828Y-87501414D01*
X134556542Y-87472842D01*
X134499400Y-87444271D01*
X134470828Y-87415700D01*
X134442257Y-87358557D01*
X134442257Y-87301414D01*
X134470828Y-87244271D01*
X134499400Y-87215700D01*
X134556542Y-87187128D01*
X134699400Y-87187128D01*
X134785114Y-87215700D01*
X135299400Y-87387128D02*
X135299400Y-87787128D01*
X135156542Y-87158557D02*
X135013685Y-87587128D01*
X135385114Y-87587128D01*
%TO.C,S2*%
X149682257Y-101411057D02*
X149767971Y-101439628D01*
X149910828Y-101439628D01*
X149967971Y-101411057D01*
X149996542Y-101382485D01*
X150025114Y-101325342D01*
X150025114Y-101268200D01*
X149996542Y-101211057D01*
X149967971Y-101182485D01*
X149910828Y-101153914D01*
X149796542Y-101125342D01*
X149739400Y-101096771D01*
X149710828Y-101068200D01*
X149682257Y-101011057D01*
X149682257Y-100953914D01*
X149710828Y-100896771D01*
X149739400Y-100868200D01*
X149796542Y-100839628D01*
X149939400Y-100839628D01*
X150025114Y-100868200D01*
X150253685Y-100896771D02*
X150282257Y-100868200D01*
X150339400Y-100839628D01*
X150482257Y-100839628D01*
X150539400Y-100868200D01*
X150567971Y-100896771D01*
X150596542Y-100953914D01*
X150596542Y-101011057D01*
X150567971Y-101096771D01*
X150225114Y-101439628D01*
X150596542Y-101439628D01*
%TO.C,S1*%
X155714757Y-105792557D02*
X155800471Y-105821128D01*
X155943328Y-105821128D01*
X156000471Y-105792557D01*
X156029042Y-105763985D01*
X156057614Y-105706842D01*
X156057614Y-105649700D01*
X156029042Y-105592557D01*
X156000471Y-105563985D01*
X155943328Y-105535414D01*
X155829042Y-105506842D01*
X155771900Y-105478271D01*
X155743328Y-105449700D01*
X155714757Y-105392557D01*
X155714757Y-105335414D01*
X155743328Y-105278271D01*
X155771900Y-105249700D01*
X155829042Y-105221128D01*
X155971900Y-105221128D01*
X156057614Y-105249700D01*
X156629042Y-105821128D02*
X156286185Y-105821128D01*
X156457614Y-105821128D02*
X156457614Y-105221128D01*
X156400471Y-105306842D01*
X156343328Y-105363985D01*
X156286185Y-105392557D01*
%TO.C,R9*%
X156198900Y-103979628D02*
X155998900Y-103693914D01*
X155856042Y-103979628D02*
X155856042Y-103379628D01*
X156084614Y-103379628D01*
X156141757Y-103408200D01*
X156170328Y-103436771D01*
X156198900Y-103493914D01*
X156198900Y-103579628D01*
X156170328Y-103636771D01*
X156141757Y-103665342D01*
X156084614Y-103693914D01*
X155856042Y-103693914D01*
X156484614Y-103979628D02*
X156598900Y-103979628D01*
X156656042Y-103951057D01*
X156684614Y-103922485D01*
X156741757Y-103836771D01*
X156770328Y-103722485D01*
X156770328Y-103493914D01*
X156741757Y-103436771D01*
X156713185Y-103408200D01*
X156656042Y-103379628D01*
X156541757Y-103379628D01*
X156484614Y-103408200D01*
X156456042Y-103436771D01*
X156427471Y-103493914D01*
X156427471Y-103636771D01*
X156456042Y-103693914D01*
X156484614Y-103722485D01*
X156541757Y-103751057D01*
X156656042Y-103751057D01*
X156713185Y-103722485D01*
X156741757Y-103693914D01*
X156770328Y-103636771D01*
%TO.C,R8*%
X138838000Y-107002228D02*
X138638000Y-106716514D01*
X138495142Y-107002228D02*
X138495142Y-106402228D01*
X138723714Y-106402228D01*
X138780857Y-106430800D01*
X138809428Y-106459371D01*
X138838000Y-106516514D01*
X138838000Y-106602228D01*
X138809428Y-106659371D01*
X138780857Y-106687942D01*
X138723714Y-106716514D01*
X138495142Y-106716514D01*
X139180857Y-106659371D02*
X139123714Y-106630800D01*
X139095142Y-106602228D01*
X139066571Y-106545085D01*
X139066571Y-106516514D01*
X139095142Y-106459371D01*
X139123714Y-106430800D01*
X139180857Y-106402228D01*
X139295142Y-106402228D01*
X139352285Y-106430800D01*
X139380857Y-106459371D01*
X139409428Y-106516514D01*
X139409428Y-106545085D01*
X139380857Y-106602228D01*
X139352285Y-106630800D01*
X139295142Y-106659371D01*
X139180857Y-106659371D01*
X139123714Y-106687942D01*
X139095142Y-106716514D01*
X139066571Y-106773657D01*
X139066571Y-106887942D01*
X139095142Y-106945085D01*
X139123714Y-106973657D01*
X139180857Y-107002228D01*
X139295142Y-107002228D01*
X139352285Y-106973657D01*
X139380857Y-106945085D01*
X139409428Y-106887942D01*
X139409428Y-106773657D01*
X139380857Y-106716514D01*
X139352285Y-106687942D01*
X139295142Y-106659371D01*
%TO.C,R7*%
X138838000Y-108627828D02*
X138638000Y-108342114D01*
X138495142Y-108627828D02*
X138495142Y-108027828D01*
X138723714Y-108027828D01*
X138780857Y-108056400D01*
X138809428Y-108084971D01*
X138838000Y-108142114D01*
X138838000Y-108227828D01*
X138809428Y-108284971D01*
X138780857Y-108313542D01*
X138723714Y-108342114D01*
X138495142Y-108342114D01*
X139038000Y-108027828D02*
X139438000Y-108027828D01*
X139180857Y-108627828D01*
%TO.C,R5*%
X146610400Y-87352788D02*
X146410400Y-87067074D01*
X146267542Y-87352788D02*
X146267542Y-86752788D01*
X146496114Y-86752788D01*
X146553257Y-86781360D01*
X146581828Y-86809931D01*
X146610400Y-86867074D01*
X146610400Y-86952788D01*
X146581828Y-87009931D01*
X146553257Y-87038502D01*
X146496114Y-87067074D01*
X146267542Y-87067074D01*
X147153257Y-86752788D02*
X146867542Y-86752788D01*
X146838971Y-87038502D01*
X146867542Y-87009931D01*
X146924685Y-86981360D01*
X147067542Y-86981360D01*
X147124685Y-87009931D01*
X147153257Y-87038502D01*
X147181828Y-87095645D01*
X147181828Y-87238502D01*
X147153257Y-87295645D01*
X147124685Y-87324217D01*
X147067542Y-87352788D01*
X146924685Y-87352788D01*
X146867542Y-87324217D01*
X146838971Y-87295645D01*
%TO.C,R4*%
X144959400Y-104106628D02*
X144759400Y-103820914D01*
X144616542Y-104106628D02*
X144616542Y-103506628D01*
X144845114Y-103506628D01*
X144902257Y-103535200D01*
X144930828Y-103563771D01*
X144959400Y-103620914D01*
X144959400Y-103706628D01*
X144930828Y-103763771D01*
X144902257Y-103792342D01*
X144845114Y-103820914D01*
X144616542Y-103820914D01*
X145473685Y-103706628D02*
X145473685Y-104106628D01*
X145330828Y-103478057D02*
X145187971Y-103906628D01*
X145559400Y-103906628D01*
%TO.C,R3*%
X158929400Y-92867128D02*
X158729400Y-92581414D01*
X158586542Y-92867128D02*
X158586542Y-92267128D01*
X158815114Y-92267128D01*
X158872257Y-92295700D01*
X158900828Y-92324271D01*
X158929400Y-92381414D01*
X158929400Y-92467128D01*
X158900828Y-92524271D01*
X158872257Y-92552842D01*
X158815114Y-92581414D01*
X158586542Y-92581414D01*
X159129400Y-92267128D02*
X159500828Y-92267128D01*
X159300828Y-92495700D01*
X159386542Y-92495700D01*
X159443685Y-92524271D01*
X159472257Y-92552842D01*
X159500828Y-92609985D01*
X159500828Y-92752842D01*
X159472257Y-92809985D01*
X159443685Y-92838557D01*
X159386542Y-92867128D01*
X159215114Y-92867128D01*
X159157971Y-92838557D01*
X159129400Y-92809985D01*
%TO.C,R2*%
X146483400Y-104043128D02*
X146283400Y-103757414D01*
X146140542Y-104043128D02*
X146140542Y-103443128D01*
X146369114Y-103443128D01*
X146426257Y-103471700D01*
X146454828Y-103500271D01*
X146483400Y-103557414D01*
X146483400Y-103643128D01*
X146454828Y-103700271D01*
X146426257Y-103728842D01*
X146369114Y-103757414D01*
X146140542Y-103757414D01*
X146711971Y-103500271D02*
X146740542Y-103471700D01*
X146797685Y-103443128D01*
X146940542Y-103443128D01*
X146997685Y-103471700D01*
X147026257Y-103500271D01*
X147054828Y-103557414D01*
X147054828Y-103614557D01*
X147026257Y-103700271D01*
X146683400Y-104043128D01*
X147054828Y-104043128D01*
%TO.C,R1*%
X148032800Y-104030428D02*
X147832800Y-103744714D01*
X147689942Y-104030428D02*
X147689942Y-103430428D01*
X147918514Y-103430428D01*
X147975657Y-103459000D01*
X148004228Y-103487571D01*
X148032800Y-103544714D01*
X148032800Y-103630428D01*
X148004228Y-103687571D01*
X147975657Y-103716142D01*
X147918514Y-103744714D01*
X147689942Y-103744714D01*
X148604228Y-104030428D02*
X148261371Y-104030428D01*
X148432800Y-104030428D02*
X148432800Y-103430428D01*
X148375657Y-103516142D01*
X148318514Y-103573285D01*
X148261371Y-103601857D01*
%TO.C,L1*%
X140704900Y-104528268D02*
X140419185Y-104528268D01*
X140419185Y-103928268D01*
X141219185Y-104528268D02*
X140876328Y-104528268D01*
X141047757Y-104528268D02*
X141047757Y-103928268D01*
X140990614Y-104013982D01*
X140933471Y-104071125D01*
X140876328Y-104099697D01*
%TO.C,IC2*%
X153998685Y-87660128D02*
X153998685Y-87060128D01*
X154627257Y-87602985D02*
X154598685Y-87631557D01*
X154512971Y-87660128D01*
X154455828Y-87660128D01*
X154370114Y-87631557D01*
X154312971Y-87574414D01*
X154284400Y-87517271D01*
X154255828Y-87402985D01*
X154255828Y-87317271D01*
X154284400Y-87202985D01*
X154312971Y-87145842D01*
X154370114Y-87088700D01*
X154455828Y-87060128D01*
X154512971Y-87060128D01*
X154598685Y-87088700D01*
X154627257Y-87117271D01*
X154855828Y-87117271D02*
X154884400Y-87088700D01*
X154941542Y-87060128D01*
X155084400Y-87060128D01*
X155141542Y-87088700D01*
X155170114Y-87117271D01*
X155198685Y-87174414D01*
X155198685Y-87231557D01*
X155170114Y-87317271D01*
X154827257Y-87660128D01*
X155198685Y-87660128D01*
%TO.C,H7*%
X136918757Y-106329128D02*
X136918757Y-105729128D01*
X136918757Y-106014842D02*
X137261614Y-106014842D01*
X137261614Y-106329128D02*
X137261614Y-105729128D01*
X137490185Y-105729128D02*
X137890185Y-105729128D01*
X137633042Y-106329128D01*
%TO.C,C12*%
X140101685Y-102906485D02*
X140073114Y-102935057D01*
X139987400Y-102963628D01*
X139930257Y-102963628D01*
X139844542Y-102935057D01*
X139787400Y-102877914D01*
X139758828Y-102820771D01*
X139730257Y-102706485D01*
X139730257Y-102620771D01*
X139758828Y-102506485D01*
X139787400Y-102449342D01*
X139844542Y-102392200D01*
X139930257Y-102363628D01*
X139987400Y-102363628D01*
X140073114Y-102392200D01*
X140101685Y-102420771D01*
X140673114Y-102963628D02*
X140330257Y-102963628D01*
X140501685Y-102963628D02*
X140501685Y-102363628D01*
X140444542Y-102449342D01*
X140387400Y-102506485D01*
X140330257Y-102535057D01*
X140901685Y-102420771D02*
X140930257Y-102392200D01*
X140987400Y-102363628D01*
X141130257Y-102363628D01*
X141187400Y-102392200D01*
X141215971Y-102420771D01*
X141244542Y-102477914D01*
X141244542Y-102535057D01*
X141215971Y-102620771D01*
X140873114Y-102963628D01*
X141244542Y-102963628D01*
%TO.C,C11*%
X136316635Y-90696481D02*
X136276229Y-90696481D01*
X136195417Y-90656075D01*
X136155011Y-90615669D01*
X136114605Y-90534857D01*
X136114605Y-90454045D01*
X136134808Y-90393435D01*
X136195417Y-90292420D01*
X136256026Y-90231811D01*
X136357042Y-90171202D01*
X136417651Y-90150999D01*
X136498463Y-90150999D01*
X136579275Y-90191405D01*
X136619681Y-90231811D01*
X136660087Y-90312623D01*
X136660087Y-90353029D01*
X136680290Y-91140948D02*
X136437854Y-90898512D01*
X136559072Y-91019730D02*
X136983336Y-90595466D01*
X136882321Y-90615669D01*
X136801509Y-90615669D01*
X136740900Y-90595466D01*
X137084351Y-91545009D02*
X136841915Y-91302573D01*
X136963133Y-91423791D02*
X137387397Y-90999527D01*
X137286382Y-91019730D01*
X137205570Y-91019730D01*
X137144961Y-90999527D01*
%TO.C,C10*%
D11*
X155151185Y-100239485D02*
X155122614Y-100268057D01*
X155036900Y-100296628D01*
X154979757Y-100296628D01*
X154894042Y-100268057D01*
X154836900Y-100210914D01*
X154808328Y-100153771D01*
X154779757Y-100039485D01*
X154779757Y-99953771D01*
X154808328Y-99839485D01*
X154836900Y-99782342D01*
X154894042Y-99725200D01*
X154979757Y-99696628D01*
X155036900Y-99696628D01*
X155122614Y-99725200D01*
X155151185Y-99753771D01*
X155722614Y-100296628D02*
X155379757Y-100296628D01*
X155551185Y-100296628D02*
X155551185Y-99696628D01*
X155494042Y-99782342D01*
X155436900Y-99839485D01*
X155379757Y-99868057D01*
X156094042Y-99696628D02*
X156151185Y-99696628D01*
X156208328Y-99725200D01*
X156236900Y-99753771D01*
X156265471Y-99810914D01*
X156294042Y-99925200D01*
X156294042Y-100068057D01*
X156265471Y-100182342D01*
X156236900Y-100239485D01*
X156208328Y-100268057D01*
X156151185Y-100296628D01*
X156094042Y-100296628D01*
X156036900Y-100268057D01*
X156008328Y-100239485D01*
X155979757Y-100182342D01*
X155951185Y-100068057D01*
X155951185Y-99925200D01*
X155979757Y-99810914D01*
X156008328Y-99753771D01*
X156036900Y-99725200D01*
X156094042Y-99696628D01*
%TO.C,C9*%
D12*
X140641400Y-101382485D02*
X140612828Y-101411057D01*
X140527114Y-101439628D01*
X140469971Y-101439628D01*
X140384257Y-101411057D01*
X140327114Y-101353914D01*
X140298542Y-101296771D01*
X140269971Y-101182485D01*
X140269971Y-101096771D01*
X140298542Y-100982485D01*
X140327114Y-100925342D01*
X140384257Y-100868200D01*
X140469971Y-100839628D01*
X140527114Y-100839628D01*
X140612828Y-100868200D01*
X140641400Y-100896771D01*
X140927114Y-101439628D02*
X141041400Y-101439628D01*
X141098542Y-101411057D01*
X141127114Y-101382485D01*
X141184257Y-101296771D01*
X141212828Y-101182485D01*
X141212828Y-100953914D01*
X141184257Y-100896771D01*
X141155685Y-100868200D01*
X141098542Y-100839628D01*
X140984257Y-100839628D01*
X140927114Y-100868200D01*
X140898542Y-100896771D01*
X140869971Y-100953914D01*
X140869971Y-101096771D01*
X140898542Y-101153914D01*
X140927114Y-101182485D01*
X140984257Y-101211057D01*
X141098542Y-101211057D01*
X141155685Y-101182485D01*
X141184257Y-101153914D01*
X141212828Y-101096771D01*
%TO.C,C8*%
X160389900Y-89761985D02*
X160361328Y-89790557D01*
X160275614Y-89819128D01*
X160218471Y-89819128D01*
X160132757Y-89790557D01*
X160075614Y-89733414D01*
X160047042Y-89676271D01*
X160018471Y-89561985D01*
X160018471Y-89476271D01*
X160047042Y-89361985D01*
X160075614Y-89304842D01*
X160132757Y-89247700D01*
X160218471Y-89219128D01*
X160275614Y-89219128D01*
X160361328Y-89247700D01*
X160389900Y-89276271D01*
X160732757Y-89476271D02*
X160675614Y-89447700D01*
X160647042Y-89419128D01*
X160618471Y-89361985D01*
X160618471Y-89333414D01*
X160647042Y-89276271D01*
X160675614Y-89247700D01*
X160732757Y-89219128D01*
X160847042Y-89219128D01*
X160904185Y-89247700D01*
X160932757Y-89276271D01*
X160961328Y-89333414D01*
X160961328Y-89361985D01*
X160932757Y-89419128D01*
X160904185Y-89447700D01*
X160847042Y-89476271D01*
X160732757Y-89476271D01*
X160675614Y-89504842D01*
X160647042Y-89533414D01*
X160618471Y-89590557D01*
X160618471Y-89704842D01*
X160647042Y-89761985D01*
X160675614Y-89790557D01*
X160732757Y-89819128D01*
X160847042Y-89819128D01*
X160904185Y-89790557D01*
X160932757Y-89761985D01*
X160961328Y-89704842D01*
X160961328Y-89590557D01*
X160932757Y-89533414D01*
X160904185Y-89504842D01*
X160847042Y-89476271D01*
%TO.C,C7*%
X154547900Y-91158985D02*
X154519328Y-91187557D01*
X154433614Y-91216128D01*
X154376471Y-91216128D01*
X154290757Y-91187557D01*
X154233614Y-91130414D01*
X154205042Y-91073271D01*
X154176471Y-90958985D01*
X154176471Y-90873271D01*
X154205042Y-90758985D01*
X154233614Y-90701842D01*
X154290757Y-90644700D01*
X154376471Y-90616128D01*
X154433614Y-90616128D01*
X154519328Y-90644700D01*
X154547900Y-90673271D01*
X154747900Y-90616128D02*
X155147900Y-90616128D01*
X154890757Y-91216128D01*
%TO.C,C6*%
X154738400Y-92809985D02*
X154709828Y-92838557D01*
X154624114Y-92867128D01*
X154566971Y-92867128D01*
X154481257Y-92838557D01*
X154424114Y-92781414D01*
X154395542Y-92724271D01*
X154366971Y-92609985D01*
X154366971Y-92524271D01*
X154395542Y-92409985D01*
X154424114Y-92352842D01*
X154481257Y-92295700D01*
X154566971Y-92267128D01*
X154624114Y-92267128D01*
X154709828Y-92295700D01*
X154738400Y-92324271D01*
X155252685Y-92267128D02*
X155138400Y-92267128D01*
X155081257Y-92295700D01*
X155052685Y-92324271D01*
X154995542Y-92409985D01*
X154966971Y-92524271D01*
X154966971Y-92752842D01*
X154995542Y-92809985D01*
X155024114Y-92838557D01*
X155081257Y-92867128D01*
X155195542Y-92867128D01*
X155252685Y-92838557D01*
X155281257Y-92809985D01*
X155309828Y-92752842D01*
X155309828Y-92609985D01*
X155281257Y-92552842D01*
X155252685Y-92524271D01*
X155195542Y-92495700D01*
X155081257Y-92495700D01*
X155024114Y-92524271D01*
X154995542Y-92552842D01*
X154966971Y-92609985D01*
%TO.C,C5*%
X156198900Y-92809985D02*
X156170328Y-92838557D01*
X156084614Y-92867128D01*
X156027471Y-92867128D01*
X155941757Y-92838557D01*
X155884614Y-92781414D01*
X155856042Y-92724271D01*
X155827471Y-92609985D01*
X155827471Y-92524271D01*
X155856042Y-92409985D01*
X155884614Y-92352842D01*
X155941757Y-92295700D01*
X156027471Y-92267128D01*
X156084614Y-92267128D01*
X156170328Y-92295700D01*
X156198900Y-92324271D01*
X156741757Y-92267128D02*
X156456042Y-92267128D01*
X156427471Y-92552842D01*
X156456042Y-92524271D01*
X156513185Y-92495700D01*
X156656042Y-92495700D01*
X156713185Y-92524271D01*
X156741757Y-92552842D01*
X156770328Y-92609985D01*
X156770328Y-92752842D01*
X156741757Y-92809985D01*
X156713185Y-92838557D01*
X156656042Y-92867128D01*
X156513185Y-92867128D01*
X156456042Y-92838557D01*
X156427471Y-92809985D01*
%TO.C,C3*%
X154827300Y-96302485D02*
X154798728Y-96331057D01*
X154713014Y-96359628D01*
X154655871Y-96359628D01*
X154570157Y-96331057D01*
X154513014Y-96273914D01*
X154484442Y-96216771D01*
X154455871Y-96102485D01*
X154455871Y-96016771D01*
X154484442Y-95902485D01*
X154513014Y-95845342D01*
X154570157Y-95788200D01*
X154655871Y-95759628D01*
X154713014Y-95759628D01*
X154798728Y-95788200D01*
X154827300Y-95816771D01*
X155027300Y-95759628D02*
X155398728Y-95759628D01*
X155198728Y-95988200D01*
X155284442Y-95988200D01*
X155341585Y-96016771D01*
X155370157Y-96045342D01*
X155398728Y-96102485D01*
X155398728Y-96245342D01*
X155370157Y-96302485D01*
X155341585Y-96331057D01*
X155284442Y-96359628D01*
X155113014Y-96359628D01*
X155055871Y-96331057D01*
X155027300Y-96302485D01*
%TO.C,C2*%
X156237000Y-96264385D02*
X156208428Y-96292957D01*
X156122714Y-96321528D01*
X156065571Y-96321528D01*
X155979857Y-96292957D01*
X155922714Y-96235814D01*
X155894142Y-96178671D01*
X155865571Y-96064385D01*
X155865571Y-95978671D01*
X155894142Y-95864385D01*
X155922714Y-95807242D01*
X155979857Y-95750100D01*
X156065571Y-95721528D01*
X156122714Y-95721528D01*
X156208428Y-95750100D01*
X156237000Y-95778671D01*
X156465571Y-95778671D02*
X156494142Y-95750100D01*
X156551285Y-95721528D01*
X156694142Y-95721528D01*
X156751285Y-95750100D01*
X156779857Y-95778671D01*
X156808428Y-95835814D01*
X156808428Y-95892957D01*
X156779857Y-95978671D01*
X156437000Y-96321528D01*
X156808428Y-96321528D01*
%TO.C,C1*%
X143500000Y-109614285D02*
X143471428Y-109642857D01*
X143385714Y-109671428D01*
X143328571Y-109671428D01*
X143242857Y-109642857D01*
X143185714Y-109585714D01*
X143157142Y-109528571D01*
X143128571Y-109414285D01*
X143128571Y-109328571D01*
X143157142Y-109214285D01*
X143185714Y-109157142D01*
X143242857Y-109100000D01*
X143328571Y-109071428D01*
X143385714Y-109071428D01*
X143471428Y-109100000D01*
X143500000Y-109128571D01*
X144071428Y-109671428D02*
X143728571Y-109671428D01*
X143900000Y-109671428D02*
X143900000Y-109071428D01*
X143842857Y-109157142D01*
X143785714Y-109214285D01*
X143728571Y-109242857D01*
%TO.C,AN2*%
X135680542Y-103935200D02*
X135966257Y-103935200D01*
X135623400Y-104106628D02*
X135823400Y-103506628D01*
X136023400Y-104106628D01*
X136223400Y-104106628D02*
X136223400Y-103506628D01*
X136566257Y-104106628D01*
X136566257Y-103506628D01*
X136823400Y-103563771D02*
X136851971Y-103535200D01*
X136909114Y-103506628D01*
X137051971Y-103506628D01*
X137109114Y-103535200D01*
X137137685Y-103563771D01*
X137166257Y-103620914D01*
X137166257Y-103678057D01*
X137137685Y-103763771D01*
X136794828Y-104106628D01*
X137166257Y-104106628D01*
%TD*%
M02*
