%TF.GenerationSoftware,KiCad,Pcbnew,(5.1.8)-1*%
%TF.CreationDate,2021-03-28T09:39:19+02:00*%
%TF.ProjectId,KETCube_mainboard,4b455443-7562-4655-9f6d-61696e626f61,I*%
%TF.SameCoordinates,Original*%
%TF.FileFunction,Soldermask,Top*%
%TF.FilePolarity,Negative*%
%FSLAX46Y46*%
G04 Gerber Fmt 4.6, Leading zero omitted, Abs format (unit mm)*
G04 Created by KiCad (PCBNEW (5.1.8)-1) date 2021-03-28 09:39:19*
%MOMM*%
%LPD*%
G01*
G04 APERTURE LIST*
%ADD10C,0.300000*%
%ADD11C,0.100000*%
%ADD12C,0.050000*%
%ADD13R,0.600000X0.700000*%
%ADD14R,1.000000X1.000000*%
%ADD15R,1.600000X1.600000*%
%ADD16R,0.500000X0.800000*%
%ADD17R,0.800000X0.500000*%
%ADD18C,1.700000*%
%ADD19R,1.700000X1.700000*%
%ADD20C,1.010000*%
%ADD21R,1.010000X1.010000*%
%ADD22C,1.600000*%
%ADD23R,1.500000X2.400000*%
%ADD24R,0.860000X0.420000*%
%ADD25C,1.400000*%
%ADD26R,1.050000X1.400000*%
%ADD27R,1.500000X1.500000*%
%ADD28R,0.900000X0.800000*%
%ADD29R,1.300000X1.650000*%
%ADD30R,1.900000X1.000000*%
%ADD31R,1.900000X1.800000*%
%ADD32R,2.100000X1.425000*%
%ADD33R,1.380000X0.450000*%
%ADD34R,1.450000X1.700000*%
%ADD35R,3.200000X1.700000*%
G04 APERTURE END LIST*
D10*
X157604600Y-92316300D02*
G75*
G03*
X157604600Y-92316300I-150000J0D01*
G01*
X158544400Y-104330500D02*
G75*
G03*
X158544400Y-104330500I-150000J0D01*
G01*
X155737700Y-92481400D02*
G75*
G03*
X155737700Y-92481400I-150000J0D01*
G01*
X138224400Y-86233000D02*
G75*
G03*
X138224400Y-86233000I-150000J0D01*
G01*
X150416400Y-108712000D02*
G75*
G03*
X150416400Y-108712000I-150000J0D01*
G01*
X150467200Y-111607600D02*
G75*
G03*
X150467200Y-111607600I-150000J0D01*
G01*
X158176100Y-114033300D02*
G75*
G03*
X158176100Y-114033300I-150000J0D01*
G01*
X156410800Y-106337100D02*
G75*
G03*
X156410800Y-106337100I-150000J0D01*
G01*
X155636100Y-109728000D02*
G75*
G03*
X155636100Y-109728000I-150000J0D01*
G01*
X155534500Y-111518700D02*
G75*
G03*
X155534500Y-111518700I-150000J0D01*
G01*
X160678000Y-110413800D02*
G75*
G03*
X160678000Y-110413800I-150000J0D01*
G01*
X162278200Y-103124000D02*
G75*
G03*
X162278200Y-103124000I-150000J0D01*
G01*
X150619600Y-106273600D02*
G75*
G03*
X150619600Y-106273600I-150000J0D01*
G01*
X154378800Y-106121200D02*
G75*
G03*
X154378800Y-106121200I-150000J0D01*
G01*
X154467700Y-104686100D02*
G75*
G03*
X154467700Y-104686100I-150000J0D01*
G01*
X149883000Y-101777800D02*
G75*
G03*
X149883000Y-101777800I-150000J0D01*
G01*
X143431400Y-92379800D02*
G75*
G03*
X143431400Y-92379800I-150000J0D01*
G01*
X132509400Y-83781900D02*
G75*
G03*
X132509400Y-83781900I-150000J0D01*
G01*
X135366900Y-83997800D02*
G75*
G03*
X135366900Y-83997800I-150000J0D01*
G01*
X158023700Y-86309200D02*
G75*
G03*
X158023700Y-86309200I-150000J0D01*
G01*
X154785200Y-90919300D02*
G75*
G03*
X154785200Y-90919300I-150000J0D01*
G01*
X153667600Y-88201500D02*
G75*
G03*
X153667600Y-88201500I-150000J0D01*
G01*
X162202000Y-87312500D02*
G75*
G03*
X162202000Y-87312500I-150000J0D01*
G01*
X161719400Y-95211900D02*
G75*
G03*
X161719400Y-95211900I-150000J0D01*
G01*
X134617600Y-90017600D02*
G75*
G03*
X134617600Y-90017600I-150000J0D01*
G01*
X135963800Y-89230200D02*
G75*
G03*
X135963800Y-89230200I-150000J0D01*
G01*
X137386200Y-89027000D02*
G75*
G03*
X137386200Y-89027000I-150000J0D01*
G01*
X138605400Y-89001600D02*
G75*
G03*
X138605400Y-89001600I-150000J0D01*
G01*
X139748400Y-89001600D02*
G75*
G03*
X139748400Y-89001600I-150000J0D01*
G01*
X140891400Y-89001600D02*
G75*
G03*
X140891400Y-89001600I-150000J0D01*
G01*
X140916800Y-91770200D02*
G75*
G03*
X140916800Y-91770200I-150000J0D01*
G01*
X139824600Y-91770200D02*
G75*
G03*
X139824600Y-91770200I-150000J0D01*
G01*
X138732400Y-91770200D02*
G75*
G03*
X138732400Y-91770200I-150000J0D01*
G01*
X137716400Y-91770200D02*
G75*
G03*
X137716400Y-91770200I-150000J0D01*
G01*
X133652400Y-91363800D02*
G75*
G03*
X133652400Y-91363800I-150000J0D01*
G01*
X133296800Y-92989400D02*
G75*
G03*
X133296800Y-92989400I-150000J0D01*
G01*
X136141600Y-93243400D02*
G75*
G03*
X136141600Y-93243400I-150000J0D01*
G01*
X137335400Y-93230700D02*
G75*
G03*
X137335400Y-93230700I-150000J0D01*
G01*
X138478400Y-93230700D02*
G75*
G03*
X138478400Y-93230700I-150000J0D01*
G01*
X140954900Y-92849700D02*
G75*
G03*
X140954900Y-92849700I-150000J0D01*
G01*
X139811900Y-93230700D02*
G75*
G03*
X139811900Y-93230700I-150000J0D01*
G01*
X140065900Y-94310200D02*
G75*
G03*
X140065900Y-94310200I-150000J0D01*
G01*
X140065900Y-95643700D02*
G75*
G03*
X140065900Y-95643700I-150000J0D01*
G01*
X140065900Y-97167700D02*
G75*
G03*
X140065900Y-97167700I-150000J0D01*
G01*
X140065900Y-98691700D02*
G75*
G03*
X140065900Y-98691700I-150000J0D01*
G01*
X135366900Y-86563200D02*
G75*
G03*
X135366900Y-86563200I-150000J0D01*
G01*
X142148700Y-88150700D02*
G75*
G03*
X142148700Y-88150700I-150000J0D01*
G01*
X142669400Y-86499700D02*
G75*
G03*
X142669400Y-86499700I-150000J0D01*
G01*
X144193400Y-87579200D02*
G75*
G03*
X144193400Y-87579200I-150000J0D01*
G01*
X145793600Y-87198200D02*
G75*
G03*
X145793600Y-87198200I-150000J0D01*
G01*
X145565000Y-89954100D02*
G75*
G03*
X145565000Y-89954100I-150000J0D01*
G01*
X144168000Y-90208100D02*
G75*
G03*
X144168000Y-90208100I-150000J0D01*
G01*
X143494900Y-91262200D02*
G75*
G03*
X143494900Y-91262200I-150000J0D01*
G01*
X143240900Y-93484700D02*
G75*
G03*
X143240900Y-93484700I-150000J0D01*
G01*
X145272900Y-92722700D02*
G75*
G03*
X145272900Y-92722700I-150000J0D01*
G01*
X149019400Y-92722700D02*
G75*
G03*
X149019400Y-92722700I-150000J0D01*
G01*
X152130900Y-93611700D02*
G75*
G03*
X152130900Y-93611700I-150000J0D01*
G01*
X149082900Y-95199200D02*
G75*
G03*
X149082900Y-95199200I-150000J0D01*
G01*
X145272900Y-95262700D02*
G75*
G03*
X145272900Y-95262700I-150000J0D01*
G01*
X143075800Y-95999300D02*
G75*
G03*
X143075800Y-95999300I-150000J0D01*
G01*
X144193400Y-98183700D02*
G75*
G03*
X144193400Y-98183700I-150000J0D01*
G01*
X145780900Y-98310700D02*
G75*
G03*
X145780900Y-98310700I-150000J0D01*
G01*
X145018900Y-100088700D02*
G75*
G03*
X145018900Y-100088700I-150000J0D01*
G01*
X148181200Y-100101400D02*
G75*
G03*
X148181200Y-100101400I-150000J0D01*
G01*
X149527400Y-100406200D02*
G75*
G03*
X149527400Y-100406200I-150000J0D01*
G01*
X153820000Y-101498400D02*
G75*
G03*
X153820000Y-101498400I-150000J0D01*
G01*
X154061300Y-100291900D02*
G75*
G03*
X154061300Y-100291900I-150000J0D01*
G01*
X153324700Y-99555300D02*
G75*
G03*
X153324700Y-99555300I-150000J0D01*
G01*
X155471000Y-99593400D02*
G75*
G03*
X155471000Y-99593400I-150000J0D01*
G01*
X152321400Y-98171000D02*
G75*
G03*
X152321400Y-98171000I-150000J0D01*
G01*
X152245200Y-97180400D02*
G75*
G03*
X152245200Y-97180400I-150000J0D01*
G01*
X152143600Y-96113600D02*
G75*
G03*
X152143600Y-96113600I-150000J0D01*
G01*
X155699600Y-95999300D02*
G75*
G03*
X155699600Y-95999300I-150000J0D01*
G01*
X157147400Y-97675700D02*
G75*
G03*
X157147400Y-97675700I-150000J0D01*
G01*
X156702900Y-91770200D02*
G75*
G03*
X156702900Y-91770200I-150000J0D01*
G01*
X158480900Y-91706700D02*
G75*
G03*
X158480900Y-91706700I-150000J0D01*
G01*
X161541600Y-91389200D02*
G75*
G03*
X161541600Y-91389200I-150000J0D01*
G01*
X161567000Y-89776300D02*
G75*
G03*
X161567000Y-89776300I-150000J0D01*
G01*
X162481400Y-94576900D02*
G75*
G03*
X162481400Y-94576900I-150000J0D01*
G01*
X160385900Y-94894400D02*
G75*
G03*
X160385900Y-94894400I-150000J0D01*
G01*
X161084400Y-100088700D02*
G75*
G03*
X161084400Y-100088700I-150000J0D01*
G01*
X157274400Y-102577900D02*
G75*
G03*
X157274400Y-102577900I-150000J0D01*
G01*
X155559900Y-102247700D02*
G75*
G03*
X155559900Y-102247700I-150000J0D01*
G01*
X156448900Y-104533700D02*
G75*
G03*
X156448900Y-104533700I-150000J0D01*
G01*
X152892900Y-105613200D02*
G75*
G03*
X152892900Y-105613200I-150000J0D01*
G01*
X150238600Y-105117900D02*
G75*
G03*
X150238600Y-105117900I-150000J0D01*
G01*
X149184500Y-105105200D02*
G75*
G03*
X149184500Y-105105200I-150000J0D01*
G01*
X146200000Y-104546400D02*
G75*
G03*
X146200000Y-104546400I-150000J0D01*
G01*
X146555600Y-105498900D02*
G75*
G03*
X146555600Y-105498900I-150000J0D01*
G01*
X146555600Y-106540300D02*
G75*
G03*
X146555600Y-106540300I-150000J0D01*
G01*
X148028800Y-108788200D02*
G75*
G03*
X148028800Y-108788200I-150000J0D01*
G01*
X140065900Y-100215700D02*
G75*
G03*
X140065900Y-100215700I-150000J0D01*
G01*
X140065900Y-101739700D02*
G75*
G03*
X140065900Y-101739700I-150000J0D01*
G01*
X140065900Y-103517700D02*
G75*
G03*
X140065900Y-103517700I-150000J0D01*
G01*
X142948800Y-103454200D02*
G75*
G03*
X142948800Y-103454200I-150000J0D01*
G01*
X132636400Y-105168700D02*
G75*
G03*
X132636400Y-105168700I-150000J0D01*
G01*
X134414400Y-105168700D02*
G75*
G03*
X134414400Y-105168700I-150000J0D01*
G01*
X136001900Y-105105200D02*
G75*
G03*
X136001900Y-105105200I-150000J0D01*
G01*
X137525900Y-105105200D02*
G75*
G03*
X137525900Y-105105200I-150000J0D01*
G01*
X138859400Y-104978200D02*
G75*
G03*
X138859400Y-104978200I-150000J0D01*
G01*
X140065900Y-104787700D02*
G75*
G03*
X140065900Y-104787700I-150000J0D01*
G01*
X138364100Y-108508800D02*
G75*
G03*
X138364100Y-108508800I-150000J0D01*
G01*
X136802000Y-114300000D02*
G75*
G03*
X136802000Y-114300000I-150000J0D01*
G01*
X137970400Y-111125000D02*
G75*
G03*
X137970400Y-111125000I-150000J0D01*
G01*
X138554600Y-110464600D02*
G75*
G03*
X138554600Y-110464600I-150000J0D01*
G01*
X138554600Y-109385100D02*
G75*
G03*
X138554600Y-109385100I-150000J0D01*
G01*
X140205600Y-109474000D02*
G75*
G03*
X140205600Y-109474000I-150000J0D01*
G01*
X141018400Y-110159800D02*
G75*
G03*
X141018400Y-110159800I-150000J0D01*
G01*
X143634600Y-109880400D02*
G75*
G03*
X143634600Y-109880400I-150000J0D01*
G01*
X142656700Y-111633000D02*
G75*
G03*
X142656700Y-111633000I-150000J0D01*
G01*
X144853800Y-111658400D02*
G75*
G03*
X144853800Y-111658400I-150000J0D01*
G01*
X145615800Y-110502700D02*
G75*
G03*
X145615800Y-110502700I-150000J0D01*
G01*
X147876400Y-111988600D02*
G75*
G03*
X147876400Y-111988600I-150000J0D01*
G01*
X137919600Y-113080800D02*
G75*
G03*
X137919600Y-113080800I-150000J0D01*
G01*
X137970400Y-111125000D02*
G75*
G03*
X137970400Y-111125000I-150000J0D01*
G01*
X138554600Y-110464600D02*
G75*
G03*
X138554600Y-110464600I-150000J0D01*
G01*
X138554600Y-109397800D02*
G75*
G03*
X138554600Y-109397800I-150000J0D01*
G01*
X144853800Y-111658400D02*
G75*
G03*
X144853800Y-111658400I-150000J0D01*
G01*
X143634600Y-109880400D02*
G75*
G03*
X143634600Y-109880400I-150000J0D01*
G01*
X142745600Y-108407200D02*
G75*
G03*
X142745600Y-108407200I-150000J0D01*
G01*
X157731600Y-96012000D02*
G75*
G03*
X157731600Y-96012000I-150000J0D01*
G01*
D11*
%TO.C,IC1*%
G36*
X149347660Y-95702860D02*
G01*
X149347660Y-97302860D01*
X150447660Y-97302860D01*
X150947660Y-96802860D01*
X150947660Y-95702860D01*
X149347660Y-95702860D01*
G37*
D12*
%TO.C,S4*%
G36*
X138803400Y-88177200D02*
G01*
X137853400Y-88177200D01*
X137853400Y-86727200D01*
X138803400Y-86727200D01*
X138803400Y-88177200D01*
G37*
X138803400Y-88177200D02*
X137853400Y-88177200D01*
X137853400Y-86727200D01*
X138803400Y-86727200D01*
X138803400Y-88177200D01*
%TO.C,S2*%
G36*
X151505900Y-102748200D02*
G01*
X152455900Y-102748200D01*
X152455900Y-103798200D01*
X151505900Y-103798200D01*
X151505900Y-102748200D01*
G37*
X151505900Y-102748200D02*
X152455900Y-102748200D01*
X152455900Y-103798200D01*
X151505900Y-103798200D01*
X151505900Y-102748200D01*
G36*
X151255900Y-100348200D02*
G01*
X152705900Y-100348200D01*
X152705900Y-102298200D01*
X151255900Y-102298200D01*
X151255900Y-100348200D01*
G37*
X151255900Y-100348200D02*
X152705900Y-100348200D01*
X152705900Y-102298200D01*
X151255900Y-102298200D01*
X151255900Y-100348200D01*
%TO.C,S1*%
G36*
X159403900Y-106274700D02*
G01*
X157003900Y-106274700D01*
X157003900Y-104824700D01*
X159403900Y-104824700D01*
X159403900Y-106274700D01*
G37*
X159403900Y-106274700D02*
X157003900Y-106274700D01*
X157003900Y-104824700D01*
X159403900Y-104824700D01*
X159403900Y-106274700D01*
%TD*%
D13*
%TO.C,D4*%
X160554900Y-87198200D03*
X159154900Y-87198200D03*
%TD*%
D14*
%TO.C,IC1*%
X150147660Y-96502860D03*
D15*
X145147660Y-91502860D03*
X147647660Y-91502860D03*
X150147660Y-91502860D03*
X145147660Y-94002860D03*
X147647660Y-94002860D03*
X150147660Y-94002860D03*
X145147660Y-96502860D03*
X147647660Y-96502860D03*
D16*
X152047660Y-99202860D03*
X151247660Y-99202860D03*
X150447660Y-99202860D03*
X149647660Y-99202860D03*
X148847660Y-99202860D03*
X148047660Y-99202860D03*
X147247660Y-99202860D03*
X146447660Y-99202860D03*
X145647660Y-99202860D03*
X144847660Y-99202860D03*
X144047660Y-99202860D03*
X143247660Y-99202860D03*
D17*
X141997660Y-98402860D03*
X141997660Y-97602860D03*
X141997660Y-96802860D03*
X141997660Y-96002860D03*
X141997660Y-95202860D03*
X141997660Y-94402860D03*
X141997660Y-93602860D03*
X141997660Y-92802860D03*
X141997660Y-92002860D03*
X141997660Y-91202860D03*
X141997660Y-90402860D03*
X141997660Y-89602860D03*
D16*
X143247660Y-88802860D03*
X144047660Y-88802860D03*
X144847660Y-88802860D03*
X145647660Y-88802860D03*
X146447660Y-88802860D03*
X147247660Y-88802860D03*
X148047660Y-88802860D03*
X148847660Y-88802860D03*
X149647660Y-88802860D03*
X150447660Y-88802860D03*
X151247660Y-88802860D03*
X152047660Y-88802860D03*
D17*
X153297660Y-89602860D03*
X153297660Y-90402860D03*
X153297660Y-91202860D03*
X153297660Y-92002860D03*
X153297660Y-92802860D03*
X153297660Y-93602860D03*
X153297660Y-94402860D03*
X153297660Y-95202860D03*
X153297660Y-96002860D03*
X153297660Y-96802860D03*
X153297660Y-97602860D03*
X153297660Y-98402860D03*
%TD*%
D18*
%TO.C,J1*%
X161757660Y-107942860D03*
X159217660Y-107742860D03*
X143977660Y-107742860D03*
X156677660Y-107942860D03*
X154137660Y-107742860D03*
X151597660Y-107942860D03*
X146517660Y-107942860D03*
X149057660Y-107742860D03*
D19*
X133817660Y-85144860D03*
D18*
X136357660Y-84944860D03*
X138897660Y-85144860D03*
X141437660Y-84944860D03*
X143977660Y-85144860D03*
X146517660Y-84944860D03*
X149057660Y-85144860D03*
X151597660Y-84944860D03*
X154137660Y-85144860D03*
X156677660Y-84944860D03*
X159217660Y-85144860D03*
X161757660Y-84944860D03*
X143977660Y-112884860D03*
X146517660Y-113084860D03*
X149057660Y-112884860D03*
X151597660Y-113084860D03*
X154137660Y-112884860D03*
X156677660Y-113084860D03*
X159217660Y-112884860D03*
X161757660Y-113084860D03*
%TD*%
D20*
%TO.C,J3*%
X158430900Y-96786700D03*
X158230900Y-98056700D03*
X158430900Y-99326700D03*
X158230900Y-100596700D03*
D21*
X158430900Y-101866700D03*
%TD*%
%TO.C,C4*%
G36*
G01*
X157952150Y-93960200D02*
X157439650Y-93960200D01*
G75*
G02*
X157220900Y-93741450I0J218750D01*
G01*
X157220900Y-93303950D01*
G75*
G02*
X157439650Y-93085200I218750J0D01*
G01*
X157952150Y-93085200D01*
G75*
G02*
X158170900Y-93303950I0J-218750D01*
G01*
X158170900Y-93741450D01*
G75*
G02*
X157952150Y-93960200I-218750J0D01*
G01*
G37*
G36*
G01*
X157952150Y-95535200D02*
X157439650Y-95535200D01*
G75*
G02*
X157220900Y-95316450I0J218750D01*
G01*
X157220900Y-94878950D01*
G75*
G02*
X157439650Y-94660200I218750J0D01*
G01*
X157952150Y-94660200D01*
G75*
G02*
X158170900Y-94878950I0J-218750D01*
G01*
X158170900Y-95316450D01*
G75*
G02*
X157952150Y-95535200I-218750J0D01*
G01*
G37*
%TD*%
D22*
%TO.C,FID2*%
X162461400Y-110030200D03*
%TD*%
%TO.C,FID1*%
X132551400Y-88930200D03*
%TD*%
D23*
%TO.C,IC3*%
X140106400Y-112661700D03*
D24*
X141541400Y-113661700D03*
X141541400Y-111661700D03*
X141541400Y-112661700D03*
X138671400Y-113661700D03*
X138671400Y-111661700D03*
X138671400Y-112661700D03*
%TD*%
D25*
%TO.C,TP1*%
X161791400Y-98440200D03*
%TD*%
%TO.C,D7*%
G36*
G01*
X162841650Y-90213700D02*
X162329150Y-90213700D01*
G75*
G02*
X162110400Y-89994950I0J218750D01*
G01*
X162110400Y-89557450D01*
G75*
G02*
X162329150Y-89338700I218750J0D01*
G01*
X162841650Y-89338700D01*
G75*
G02*
X163060400Y-89557450I0J-218750D01*
G01*
X163060400Y-89994950D01*
G75*
G02*
X162841650Y-90213700I-218750J0D01*
G01*
G37*
G36*
G01*
X162841650Y-91788700D02*
X162329150Y-91788700D01*
G75*
G02*
X162110400Y-91569950I0J218750D01*
G01*
X162110400Y-91132450D01*
G75*
G02*
X162329150Y-90913700I218750J0D01*
G01*
X162841650Y-90913700D01*
G75*
G02*
X163060400Y-91132450I0J-218750D01*
G01*
X163060400Y-91569950D01*
G75*
G02*
X162841650Y-91788700I-218750J0D01*
G01*
G37*
%TD*%
D26*
%TO.C,SW2*%
X162342660Y-101346860D03*
X162342660Y-104946860D03*
X160892660Y-101346860D03*
X160892660Y-104946860D03*
%TD*%
%TO.C,SW1*%
X162342660Y-92964860D03*
X162342660Y-96564860D03*
X160892660Y-92964860D03*
X160892660Y-96564860D03*
%TD*%
D11*
%TO.C,S4*%
G36*
X139328400Y-87452200D02*
G01*
X139828400Y-86702200D01*
X140828400Y-86702200D01*
X140828400Y-88202200D01*
X139828400Y-88202200D01*
X139328400Y-87452200D01*
G37*
G36*
X137328400Y-87452200D02*
G01*
X136828400Y-88202200D01*
X135828400Y-88202200D01*
X135828400Y-86702200D01*
X136828400Y-86702200D01*
X137328400Y-87452200D01*
G37*
D27*
X137128400Y-87452200D03*
X139528400Y-87452200D03*
%TD*%
D11*
%TO.C,S2*%
G36*
X151230900Y-102774200D02*
G01*
X151230900Y-101624200D01*
X151980900Y-102124200D01*
X152730900Y-101624200D01*
X152730900Y-102774200D01*
X151230900Y-102774200D01*
G37*
G36*
X151980900Y-101824200D02*
G01*
X151230900Y-101324200D01*
X151230900Y-100324200D01*
X152730900Y-100324200D01*
X152730900Y-101324200D01*
X151980900Y-101824200D01*
G37*
G36*
X150980900Y-103073200D02*
G01*
X150480900Y-103823200D01*
X149480900Y-103823200D01*
X149480900Y-102323200D01*
X150480900Y-102323200D01*
X150980900Y-103073200D01*
G37*
G36*
X152980900Y-103073200D02*
G01*
X153480900Y-102323200D01*
X154480900Y-102323200D01*
X154480900Y-103823200D01*
X153480900Y-103823200D01*
X152980900Y-103073200D01*
G37*
D27*
X153180900Y-103073200D03*
X150780900Y-103073200D03*
%TD*%
D11*
%TO.C,S1*%
G36*
X158478900Y-105549700D02*
G01*
X157978900Y-106299700D01*
X156978900Y-106299700D01*
X156978900Y-104799700D01*
X157978900Y-104799700D01*
X158478900Y-105549700D01*
G37*
G36*
X159428900Y-106299700D02*
G01*
X158278900Y-106299700D01*
X158778900Y-105549700D01*
X158278900Y-104799700D01*
X159428900Y-104799700D01*
X159428900Y-106299700D01*
G37*
%TD*%
%TO.C,R9*%
G36*
G01*
X158744400Y-103911110D02*
X158744400Y-103398610D01*
G75*
G02*
X158963150Y-103179860I218750J0D01*
G01*
X159400650Y-103179860D01*
G75*
G02*
X159619400Y-103398610I0J-218750D01*
G01*
X159619400Y-103911110D01*
G75*
G02*
X159400650Y-104129860I-218750J0D01*
G01*
X158963150Y-104129860D01*
G75*
G02*
X158744400Y-103911110I0J218750D01*
G01*
G37*
G36*
G01*
X157169400Y-103911110D02*
X157169400Y-103398610D01*
G75*
G02*
X157388150Y-103179860I218750J0D01*
G01*
X157825650Y-103179860D01*
G75*
G02*
X158044400Y-103398610I0J-218750D01*
G01*
X158044400Y-103911110D01*
G75*
G02*
X157825650Y-104129860I-218750J0D01*
G01*
X157388150Y-104129860D01*
G75*
G02*
X157169400Y-103911110I0J218750D01*
G01*
G37*
%TD*%
%TO.C,R8*%
G36*
G01*
X140493000Y-106449150D02*
X140493000Y-106961650D01*
G75*
G02*
X140274250Y-107180400I-218750J0D01*
G01*
X139836750Y-107180400D01*
G75*
G02*
X139618000Y-106961650I0J218750D01*
G01*
X139618000Y-106449150D01*
G75*
G02*
X139836750Y-106230400I218750J0D01*
G01*
X140274250Y-106230400D01*
G75*
G02*
X140493000Y-106449150I0J-218750D01*
G01*
G37*
G36*
G01*
X142068000Y-106449150D02*
X142068000Y-106961650D01*
G75*
G02*
X141849250Y-107180400I-218750J0D01*
G01*
X141411750Y-107180400D01*
G75*
G02*
X141193000Y-106961650I0J218750D01*
G01*
X141193000Y-106449150D01*
G75*
G02*
X141411750Y-106230400I218750J0D01*
G01*
X141849250Y-106230400D01*
G75*
G02*
X142068000Y-106449150I0J-218750D01*
G01*
G37*
%TD*%
%TO.C,R7*%
G36*
G01*
X140518400Y-108023950D02*
X140518400Y-108536450D01*
G75*
G02*
X140299650Y-108755200I-218750J0D01*
G01*
X139862150Y-108755200D01*
G75*
G02*
X139643400Y-108536450I0J218750D01*
G01*
X139643400Y-108023950D01*
G75*
G02*
X139862150Y-107805200I218750J0D01*
G01*
X140299650Y-107805200D01*
G75*
G02*
X140518400Y-108023950I0J-218750D01*
G01*
G37*
G36*
G01*
X142093400Y-108023950D02*
X142093400Y-108536450D01*
G75*
G02*
X141874650Y-108755200I-218750J0D01*
G01*
X141437150Y-108755200D01*
G75*
G02*
X141218400Y-108536450I0J218750D01*
G01*
X141218400Y-108023950D01*
G75*
G02*
X141437150Y-107805200I218750J0D01*
G01*
X141874650Y-107805200D01*
G75*
G02*
X142093400Y-108023950I0J-218750D01*
G01*
G37*
%TD*%
%TO.C,R5*%
G36*
G01*
X148519400Y-86814950D02*
X148519400Y-87327450D01*
G75*
G02*
X148300650Y-87546200I-218750J0D01*
G01*
X147863150Y-87546200D01*
G75*
G02*
X147644400Y-87327450I0J218750D01*
G01*
X147644400Y-86814950D01*
G75*
G02*
X147863150Y-86596200I218750J0D01*
G01*
X148300650Y-86596200D01*
G75*
G02*
X148519400Y-86814950I0J-218750D01*
G01*
G37*
G36*
G01*
X150094400Y-86814950D02*
X150094400Y-87327450D01*
G75*
G02*
X149875650Y-87546200I-218750J0D01*
G01*
X149438150Y-87546200D01*
G75*
G02*
X149219400Y-87327450I0J218750D01*
G01*
X149219400Y-86814950D01*
G75*
G02*
X149438150Y-86596200I218750J0D01*
G01*
X149875650Y-86596200D01*
G75*
G02*
X150094400Y-86814950I0J-218750D01*
G01*
G37*
%TD*%
%TO.C,R4*%
G36*
G01*
X145315650Y-101516700D02*
X144803150Y-101516700D01*
G75*
G02*
X144584400Y-101297950I0J218750D01*
G01*
X144584400Y-100860450D01*
G75*
G02*
X144803150Y-100641700I218750J0D01*
G01*
X145315650Y-100641700D01*
G75*
G02*
X145534400Y-100860450I0J-218750D01*
G01*
X145534400Y-101297950D01*
G75*
G02*
X145315650Y-101516700I-218750J0D01*
G01*
G37*
G36*
G01*
X145315650Y-103091700D02*
X144803150Y-103091700D01*
G75*
G02*
X144584400Y-102872950I0J218750D01*
G01*
X144584400Y-102435450D01*
G75*
G02*
X144803150Y-102216700I218750J0D01*
G01*
X145315650Y-102216700D01*
G75*
G02*
X145534400Y-102435450I0J-218750D01*
G01*
X145534400Y-102872950D01*
G75*
G02*
X145315650Y-103091700I-218750J0D01*
G01*
G37*
%TD*%
%TO.C,R3*%
G36*
G01*
X158836650Y-94660200D02*
X159349150Y-94660200D01*
G75*
G02*
X159567900Y-94878950I0J-218750D01*
G01*
X159567900Y-95316450D01*
G75*
G02*
X159349150Y-95535200I-218750J0D01*
G01*
X158836650Y-95535200D01*
G75*
G02*
X158617900Y-95316450I0J218750D01*
G01*
X158617900Y-94878950D01*
G75*
G02*
X158836650Y-94660200I218750J0D01*
G01*
G37*
G36*
G01*
X158836650Y-93085200D02*
X159349150Y-93085200D01*
G75*
G02*
X159567900Y-93303950I0J-218750D01*
G01*
X159567900Y-93741450D01*
G75*
G02*
X159349150Y-93960200I-218750J0D01*
G01*
X158836650Y-93960200D01*
G75*
G02*
X158617900Y-93741450I0J218750D01*
G01*
X158617900Y-93303950D01*
G75*
G02*
X158836650Y-93085200I218750J0D01*
G01*
G37*
%TD*%
%TO.C,R2*%
G36*
G01*
X146839650Y-101526860D02*
X146327150Y-101526860D01*
G75*
G02*
X146108400Y-101308110I0J218750D01*
G01*
X146108400Y-100870610D01*
G75*
G02*
X146327150Y-100651860I218750J0D01*
G01*
X146839650Y-100651860D01*
G75*
G02*
X147058400Y-100870610I0J-218750D01*
G01*
X147058400Y-101308110D01*
G75*
G02*
X146839650Y-101526860I-218750J0D01*
G01*
G37*
G36*
G01*
X146839650Y-103101860D02*
X146327150Y-103101860D01*
G75*
G02*
X146108400Y-102883110I0J218750D01*
G01*
X146108400Y-102445610D01*
G75*
G02*
X146327150Y-102226860I218750J0D01*
G01*
X146839650Y-102226860D01*
G75*
G02*
X147058400Y-102445610I0J-218750D01*
G01*
X147058400Y-102883110D01*
G75*
G02*
X146839650Y-103101860I-218750J0D01*
G01*
G37*
%TD*%
%TO.C,R1*%
G36*
G01*
X147978150Y-102178700D02*
X148490650Y-102178700D01*
G75*
G02*
X148709400Y-102397450I0J-218750D01*
G01*
X148709400Y-102834950D01*
G75*
G02*
X148490650Y-103053700I-218750J0D01*
G01*
X147978150Y-103053700D01*
G75*
G02*
X147759400Y-102834950I0J218750D01*
G01*
X147759400Y-102397450D01*
G75*
G02*
X147978150Y-102178700I218750J0D01*
G01*
G37*
G36*
G01*
X147978150Y-100603700D02*
X148490650Y-100603700D01*
G75*
G02*
X148709400Y-100822450I0J-218750D01*
G01*
X148709400Y-101259950D01*
G75*
G02*
X148490650Y-101478700I-218750J0D01*
G01*
X147978150Y-101478700D01*
G75*
G02*
X147759400Y-101259950I0J218750D01*
G01*
X147759400Y-100822450D01*
G75*
G02*
X147978150Y-100603700I218750J0D01*
G01*
G37*
%TD*%
%TO.C,L1*%
G36*
G01*
X143171660Y-104523250D02*
X143171660Y-104010750D01*
G75*
G02*
X143390410Y-103792000I218750J0D01*
G01*
X143827910Y-103792000D01*
G75*
G02*
X144046660Y-104010750I0J-218750D01*
G01*
X144046660Y-104523250D01*
G75*
G02*
X143827910Y-104742000I-218750J0D01*
G01*
X143390410Y-104742000D01*
G75*
G02*
X143171660Y-104523250I0J218750D01*
G01*
G37*
G36*
G01*
X141596660Y-104523250D02*
X141596660Y-104010750D01*
G75*
G02*
X141815410Y-103792000I218750J0D01*
G01*
X142252910Y-103792000D01*
G75*
G02*
X142471660Y-104010750I0J-218750D01*
G01*
X142471660Y-104523250D01*
G75*
G02*
X142252910Y-104742000I-218750J0D01*
G01*
X141815410Y-104742000D01*
G75*
G02*
X141596660Y-104523250I0J218750D01*
G01*
G37*
%TD*%
D28*
%TO.C,IC2*%
X155298900Y-88468200D03*
X157298900Y-87518200D03*
X157298900Y-89418200D03*
%TD*%
D29*
%TO.C,H7*%
X133937660Y-113633860D03*
X133937660Y-106883860D03*
D30*
X133937660Y-111808860D03*
D31*
X133937660Y-109108860D03*
D32*
X136237660Y-107771860D03*
X136237660Y-112745860D03*
D33*
X136596660Y-111558860D03*
X136596660Y-110908860D03*
X136596660Y-110258860D03*
X136596660Y-109608860D03*
X136596660Y-108958860D03*
%TD*%
%TO.C,C12*%
G36*
G01*
X143171660Y-102895110D02*
X143171660Y-102382610D01*
G75*
G02*
X143390410Y-102163860I218750J0D01*
G01*
X143827910Y-102163860D01*
G75*
G02*
X144046660Y-102382610I0J-218750D01*
G01*
X144046660Y-102895110D01*
G75*
G02*
X143827910Y-103113860I-218750J0D01*
G01*
X143390410Y-103113860D01*
G75*
G02*
X143171660Y-102895110I0J218750D01*
G01*
G37*
G36*
G01*
X141596660Y-102895110D02*
X141596660Y-102382610D01*
G75*
G02*
X141815410Y-102163860I218750J0D01*
G01*
X142252910Y-102163860D01*
G75*
G02*
X142471660Y-102382610I0J-218750D01*
G01*
X142471660Y-102895110D01*
G75*
G02*
X142252910Y-103113860I-218750J0D01*
G01*
X141815410Y-103113860D01*
G75*
G02*
X141596660Y-102895110I0J218750D01*
G01*
G37*
%TD*%
%TO.C,C11*%
G36*
G01*
X136029951Y-92145544D02*
X136392344Y-91783151D01*
G75*
G02*
X136701704Y-91783151I154680J-154680D01*
G01*
X137011063Y-92092510D01*
G75*
G02*
X137011063Y-92401870I-154680J-154680D01*
G01*
X136648670Y-92764263D01*
G75*
G02*
X136339310Y-92764263I-154680J154680D01*
G01*
X136029951Y-92454904D01*
G75*
G02*
X136029951Y-92145544I154680J154680D01*
G01*
G37*
G36*
G01*
X134916257Y-91031850D02*
X135278650Y-90669457D01*
G75*
G02*
X135588010Y-90669457I154680J-154680D01*
G01*
X135897369Y-90978816D01*
G75*
G02*
X135897369Y-91288176I-154680J-154680D01*
G01*
X135534976Y-91650569D01*
G75*
G02*
X135225616Y-91650569I-154680J154680D01*
G01*
X134916257Y-91341210D01*
G75*
G02*
X134916257Y-91031850I154680J154680D01*
G01*
G37*
%TD*%
%TO.C,C10*%
G36*
G01*
X155186900Y-100911950D02*
X155186900Y-101424450D01*
G75*
G02*
X154968150Y-101643200I-218750J0D01*
G01*
X154530650Y-101643200D01*
G75*
G02*
X154311900Y-101424450I0J218750D01*
G01*
X154311900Y-100911950D01*
G75*
G02*
X154530650Y-100693200I218750J0D01*
G01*
X154968150Y-100693200D01*
G75*
G02*
X155186900Y-100911950I0J-218750D01*
G01*
G37*
G36*
G01*
X156761900Y-100911950D02*
X156761900Y-101424450D01*
G75*
G02*
X156543150Y-101643200I-218750J0D01*
G01*
X156105650Y-101643200D01*
G75*
G02*
X155886900Y-101424450I0J218750D01*
G01*
X155886900Y-100911950D01*
G75*
G02*
X156105650Y-100693200I218750J0D01*
G01*
X156543150Y-100693200D01*
G75*
G02*
X156761900Y-100911950I0J-218750D01*
G01*
G37*
%TD*%
%TO.C,C9*%
G36*
G01*
X143171660Y-101371110D02*
X143171660Y-100858610D01*
G75*
G02*
X143390410Y-100639860I218750J0D01*
G01*
X143827910Y-100639860D01*
G75*
G02*
X144046660Y-100858610I0J-218750D01*
G01*
X144046660Y-101371110D01*
G75*
G02*
X143827910Y-101589860I-218750J0D01*
G01*
X143390410Y-101589860D01*
G75*
G02*
X143171660Y-101371110I0J218750D01*
G01*
G37*
G36*
G01*
X141596660Y-101371110D02*
X141596660Y-100858610D01*
G75*
G02*
X141815410Y-100639860I218750J0D01*
G01*
X142252910Y-100639860D01*
G75*
G02*
X142471660Y-100858610I0J-218750D01*
G01*
X142471660Y-101371110D01*
G75*
G02*
X142252910Y-101589860I-218750J0D01*
G01*
X141815410Y-101589860D01*
G75*
G02*
X141596660Y-101371110I0J218750D01*
G01*
G37*
%TD*%
%TO.C,C8*%
G36*
G01*
X158900150Y-89834200D02*
X159412650Y-89834200D01*
G75*
G02*
X159631400Y-90052950I0J-218750D01*
G01*
X159631400Y-90490450D01*
G75*
G02*
X159412650Y-90709200I-218750J0D01*
G01*
X158900150Y-90709200D01*
G75*
G02*
X158681400Y-90490450I0J218750D01*
G01*
X158681400Y-90052950D01*
G75*
G02*
X158900150Y-89834200I218750J0D01*
G01*
G37*
G36*
G01*
X158900150Y-88259200D02*
X159412650Y-88259200D01*
G75*
G02*
X159631400Y-88477950I0J-218750D01*
G01*
X159631400Y-88915450D01*
G75*
G02*
X159412650Y-89134200I-218750J0D01*
G01*
X158900150Y-89134200D01*
G75*
G02*
X158681400Y-88915450I0J218750D01*
G01*
X158681400Y-88477950D01*
G75*
G02*
X158900150Y-88259200I218750J0D01*
G01*
G37*
%TD*%
%TO.C,C7*%
G36*
G01*
X156966400Y-91200950D02*
X156966400Y-90688450D01*
G75*
G02*
X157185150Y-90469700I218750J0D01*
G01*
X157622650Y-90469700D01*
G75*
G02*
X157841400Y-90688450I0J-218750D01*
G01*
X157841400Y-91200950D01*
G75*
G02*
X157622650Y-91419700I-218750J0D01*
G01*
X157185150Y-91419700D01*
G75*
G02*
X156966400Y-91200950I0J218750D01*
G01*
G37*
G36*
G01*
X155391400Y-91200950D02*
X155391400Y-90688450D01*
G75*
G02*
X155610150Y-90469700I218750J0D01*
G01*
X156047650Y-90469700D01*
G75*
G02*
X156266400Y-90688450I0J-218750D01*
G01*
X156266400Y-91200950D01*
G75*
G02*
X156047650Y-91419700I-218750J0D01*
G01*
X155610150Y-91419700D01*
G75*
G02*
X155391400Y-91200950I0J218750D01*
G01*
G37*
%TD*%
%TO.C,C6*%
G36*
G01*
X155158150Y-93960200D02*
X154645650Y-93960200D01*
G75*
G02*
X154426900Y-93741450I0J218750D01*
G01*
X154426900Y-93303950D01*
G75*
G02*
X154645650Y-93085200I218750J0D01*
G01*
X155158150Y-93085200D01*
G75*
G02*
X155376900Y-93303950I0J-218750D01*
G01*
X155376900Y-93741450D01*
G75*
G02*
X155158150Y-93960200I-218750J0D01*
G01*
G37*
G36*
G01*
X155158150Y-95535200D02*
X154645650Y-95535200D01*
G75*
G02*
X154426900Y-95316450I0J218750D01*
G01*
X154426900Y-94878950D01*
G75*
G02*
X154645650Y-94660200I218750J0D01*
G01*
X155158150Y-94660200D01*
G75*
G02*
X155376900Y-94878950I0J-218750D01*
G01*
X155376900Y-95316450D01*
G75*
G02*
X155158150Y-95535200I-218750J0D01*
G01*
G37*
%TD*%
%TO.C,C5*%
G36*
G01*
X156555150Y-93960200D02*
X156042650Y-93960200D01*
G75*
G02*
X155823900Y-93741450I0J218750D01*
G01*
X155823900Y-93303950D01*
G75*
G02*
X156042650Y-93085200I218750J0D01*
G01*
X156555150Y-93085200D01*
G75*
G02*
X156773900Y-93303950I0J-218750D01*
G01*
X156773900Y-93741450D01*
G75*
G02*
X156555150Y-93960200I-218750J0D01*
G01*
G37*
G36*
G01*
X156555150Y-95535200D02*
X156042650Y-95535200D01*
G75*
G02*
X155823900Y-95316450I0J218750D01*
G01*
X155823900Y-94878950D01*
G75*
G02*
X156042650Y-94660200I218750J0D01*
G01*
X156555150Y-94660200D01*
G75*
G02*
X156773900Y-94878950I0J-218750D01*
G01*
X156773900Y-95316450D01*
G75*
G02*
X156555150Y-95535200I-218750J0D01*
G01*
G37*
%TD*%
%TO.C,C3*%
G36*
G01*
X154734550Y-98152700D02*
X155247050Y-98152700D01*
G75*
G02*
X155465800Y-98371450I0J-218750D01*
G01*
X155465800Y-98808950D01*
G75*
G02*
X155247050Y-99027700I-218750J0D01*
G01*
X154734550Y-99027700D01*
G75*
G02*
X154515800Y-98808950I0J218750D01*
G01*
X154515800Y-98371450D01*
G75*
G02*
X154734550Y-98152700I218750J0D01*
G01*
G37*
G36*
G01*
X154734550Y-96577700D02*
X155247050Y-96577700D01*
G75*
G02*
X155465800Y-96796450I0J-218750D01*
G01*
X155465800Y-97233950D01*
G75*
G02*
X155247050Y-97452700I-218750J0D01*
G01*
X154734550Y-97452700D01*
G75*
G02*
X154515800Y-97233950I0J218750D01*
G01*
X154515800Y-96796450D01*
G75*
G02*
X154734550Y-96577700I218750J0D01*
G01*
G37*
%TD*%
%TO.C,C2*%
G36*
G01*
X156080750Y-98114600D02*
X156593250Y-98114600D01*
G75*
G02*
X156812000Y-98333350I0J-218750D01*
G01*
X156812000Y-98770850D01*
G75*
G02*
X156593250Y-98989600I-218750J0D01*
G01*
X156080750Y-98989600D01*
G75*
G02*
X155862000Y-98770850I0J218750D01*
G01*
X155862000Y-98333350D01*
G75*
G02*
X156080750Y-98114600I218750J0D01*
G01*
G37*
G36*
G01*
X156080750Y-96539600D02*
X156593250Y-96539600D01*
G75*
G02*
X156812000Y-96758350I0J-218750D01*
G01*
X156812000Y-97195850D01*
G75*
G02*
X156593250Y-97414600I-218750J0D01*
G01*
X156080750Y-97414600D01*
G75*
G02*
X155862000Y-97195850I0J218750D01*
G01*
X155862000Y-96758350D01*
G75*
G02*
X156080750Y-96539600I218750J0D01*
G01*
G37*
%TD*%
%TO.C,C1*%
G36*
G01*
X143185400Y-110335350D02*
X143185400Y-110847850D01*
G75*
G02*
X142966650Y-111066600I-218750J0D01*
G01*
X142529150Y-111066600D01*
G75*
G02*
X142310400Y-110847850I0J218750D01*
G01*
X142310400Y-110335350D01*
G75*
G02*
X142529150Y-110116600I218750J0D01*
G01*
X142966650Y-110116600D01*
G75*
G02*
X143185400Y-110335350I0J-218750D01*
G01*
G37*
G36*
G01*
X144760400Y-110335350D02*
X144760400Y-110847850D01*
G75*
G02*
X144541650Y-111066600I-218750J0D01*
G01*
X144104150Y-111066600D01*
G75*
G02*
X143885400Y-110847850I0J218750D01*
G01*
X143885400Y-110335350D01*
G75*
G02*
X144104150Y-110116600I218750J0D01*
G01*
X144541650Y-110116600D01*
G75*
G02*
X144760400Y-110335350I0J-218750D01*
G01*
G37*
%TD*%
D34*
%TO.C,AN2*%
X134577660Y-94482860D03*
X132777660Y-94482860D03*
D35*
X133677660Y-103682860D03*
%TD*%
M02*
