%TF.GenerationSoftware,KiCad,Pcbnew,(5.1.8)-1*%
%TF.CreationDate,2021-03-28T09:39:19+02:00*%
%TF.ProjectId,KETCube_mainboard,4b455443-7562-4655-9f6d-61696e626f61,I*%
%TF.SameCoordinates,Original*%
%TF.FileFunction,Paste,Bot*%
%TF.FilePolarity,Positive*%
%FSLAX46Y46*%
G04 Gerber Fmt 4.6, Leading zero omitted, Abs format (unit mm)*
G04 Created by KiCad (PCBNEW (5.1.8)-1) date 2021-03-28 09:39:19*
%MOMM*%
%LPD*%
G01*
G04 APERTURE LIST*
G04 APERTURE END LIST*
%TO.C,D3*%
G36*
G01*
X134016000Y-113789750D02*
X134016000Y-114302250D01*
G75*
G02*
X133797250Y-114521000I-218750J0D01*
G01*
X133359750Y-114521000D01*
G75*
G02*
X133141000Y-114302250I0J218750D01*
G01*
X133141000Y-113789750D01*
G75*
G02*
X133359750Y-113571000I218750J0D01*
G01*
X133797250Y-113571000D01*
G75*
G02*
X134016000Y-113789750I0J-218750D01*
G01*
G37*
G36*
G01*
X135591000Y-113789750D02*
X135591000Y-114302250D01*
G75*
G02*
X135372250Y-114521000I-218750J0D01*
G01*
X134934750Y-114521000D01*
G75*
G02*
X134716000Y-114302250I0J218750D01*
G01*
X134716000Y-113789750D01*
G75*
G02*
X134934750Y-113571000I218750J0D01*
G01*
X135372250Y-113571000D01*
G75*
G02*
X135591000Y-113789750I0J-218750D01*
G01*
G37*
%TD*%
%TO.C,D2*%
G36*
G01*
X138780000Y-114302250D02*
X138780000Y-113789750D01*
G75*
G02*
X138998750Y-113571000I218750J0D01*
G01*
X139436250Y-113571000D01*
G75*
G02*
X139655000Y-113789750I0J-218750D01*
G01*
X139655000Y-114302250D01*
G75*
G02*
X139436250Y-114521000I-218750J0D01*
G01*
X138998750Y-114521000D01*
G75*
G02*
X138780000Y-114302250I0J218750D01*
G01*
G37*
G36*
G01*
X137205000Y-114302250D02*
X137205000Y-113789750D01*
G75*
G02*
X137423750Y-113571000I218750J0D01*
G01*
X137861250Y-113571000D01*
G75*
G02*
X138080000Y-113789750I0J-218750D01*
G01*
X138080000Y-114302250D01*
G75*
G02*
X137861250Y-114521000I-218750J0D01*
G01*
X137423750Y-114521000D01*
G75*
G02*
X137205000Y-114302250I0J218750D01*
G01*
G37*
%TD*%
%TO.C,D1*%
G36*
G01*
X162841650Y-90213700D02*
X162329150Y-90213700D01*
G75*
G02*
X162110400Y-89994950I0J218750D01*
G01*
X162110400Y-89557450D01*
G75*
G02*
X162329150Y-89338700I218750J0D01*
G01*
X162841650Y-89338700D01*
G75*
G02*
X163060400Y-89557450I0J-218750D01*
G01*
X163060400Y-89994950D01*
G75*
G02*
X162841650Y-90213700I-218750J0D01*
G01*
G37*
G36*
G01*
X162841650Y-91788700D02*
X162329150Y-91788700D01*
G75*
G02*
X162110400Y-91569950I0J218750D01*
G01*
X162110400Y-91132450D01*
G75*
G02*
X162329150Y-90913700I218750J0D01*
G01*
X162841650Y-90913700D01*
G75*
G02*
X163060400Y-91132450I0J-218750D01*
G01*
X163060400Y-91569950D01*
G75*
G02*
X162841650Y-91788700I-218750J0D01*
G01*
G37*
%TD*%
M02*
