M48
; DRILL file {KiCad (5.1.8)-1} date 03/28/21 09:39:16
; FORMAT={-:-/ absolute / inch / decimal}
; #@! TF.CreationDate,2021-03-28T09:39:16+02:00
; #@! TF.GenerationSoftware,Kicad,Pcbnew,(5.1.8)-1
; #@! TF.FileFunction,Plated,1,2,PTH
FMAT,2
INCH
T1C0.0118
T2C0.0260
T3C0.0276
T4C0.0394
%
G90
G05
T1
X5.211Y-3.2985
X5.216Y-4.1405
X5.242Y-3.661
X5.256Y-3.597
X5.286Y-4.1405
X5.294Y-3.544
X5.3235Y-3.408
X5.3235Y-3.307
X5.347Y-3.513
X5.3485Y-4.138
X5.354Y-3.671
X5.38Y-4.5
X5.401Y-3.6705
X5.403Y-3.505
X5.4085Y-4.138
X5.416Y-3.613
X5.424Y-4.452
X5.426Y-4.375
X5.436Y-3.395
X5.441Y-4.272
X5.446Y-3.6705
X5.449Y-4.307
X5.449Y-4.349
X5.4513Y-3.504
X5.456Y-3.613
X5.461Y-4.133
X5.496Y-3.504
X5.4985Y-3.6705
X5.499Y-3.613
X5.5085Y-3.713
X5.5085Y-3.7655
X5.5085Y-3.8255
X5.5085Y-3.8855
X5.5085Y-3.9455
X5.5085Y-4.0055
X5.5085Y-4.0755
X5.5085Y-4.1255
X5.514Y-4.31
X5.541Y-3.504
X5.542Y-3.613
X5.5435Y-3.6555
X5.546Y-4.337
X5.5907Y-3.4702
X5.61Y-4.395
X5.611Y-3.4055
X5.614Y-4.268
X5.622Y-4.073
X5.6269Y-3.7796
X5.6335Y-3.6805
X5.641Y-3.637
X5.6436Y-3.593
X5.649Y-4.326
X5.6702Y-3.5517
X5.671Y-3.448
X5.6712Y-3.8653
X5.697Y-4.396
X5.7035Y-3.9405
X5.7135Y-3.6505
X5.7135Y-3.7505
X5.7247Y-3.5418
X5.727Y-4.351
X5.7335Y-3.433
X5.7335Y-3.8705
X5.75Y-4.116
X5.764Y-4.1533
X5.764Y-4.1947
X5.816Y-4.409
X5.822Y-4.283
X5.8282Y-3.9408
X5.861Y-3.6505
X5.8635Y-3.748
X5.8673Y-4.138
X5.881Y-3.953
X5.895Y-4.007
X5.9087Y-4.138
X5.916Y-4.28
X5.918Y-4.394
X5.924Y-4.184
X5.9835Y-3.6855
X5.984Y-3.784
X5.988Y-3.826
X5.991Y-3.865
X6.0135Y-4.158
X6.0304Y-3.9194
X6.044Y-3.4725
X6.05Y-3.996
X6.0596Y-3.9486
X6.072Y-4.178
X6.0755Y-4.1215
X6.088Y-3.5795
X6.115Y-3.921
X6.1175Y-4.3905
X6.1185Y-4.0255
X6.1215Y-4.32
X6.1238Y-3.7795
X6.1255Y-3.641
X6.152Y-4.1865
X6.1535Y-4.1155
X6.1635Y-3.613
X6.181Y-3.8455
X6.1858Y-4.0383
X6.199Y-3.6345
X6.204Y-3.78
X6.2155Y-3.398
X6.2215Y-4.4895
X6.2335Y-3.6105
X6.236Y-4.1075
X6.3085Y-3.7355
X6.32Y-4.347
X6.336Y-3.9405
X6.354Y-3.598
X6.355Y-3.5345
X6.361Y-3.7485
X6.38Y-3.4375
X6.383Y-4.06
X6.3914Y-3.7234
T2
X6.2296Y-3.8605
X6.2296Y-3.9605
X6.2374Y-3.8105
X6.2374Y-3.9105
X6.2374Y-4.0105
T3
X6.3697Y-3.8756
T4
X5.2684Y-3.3522
X5.3684Y-3.3443
X5.4684Y-3.3522
X5.5684Y-3.3443
X5.6684Y-3.3522
X5.6684Y-4.2418
X5.6684Y-4.4443
X5.7684Y-3.3443
X5.7684Y-4.2497
X5.7684Y-4.4522
X5.8684Y-3.3522
X5.8684Y-4.2418
X5.8684Y-4.4443
X5.9684Y-3.3443
X5.9684Y-4.2497
X5.9684Y-4.4522
X6.0684Y-3.3522
X6.0684Y-4.2418
X6.0684Y-4.4443
X6.1684Y-3.3443
X6.1684Y-4.2497
X6.1684Y-4.4522
X6.2684Y-3.3522
X6.2684Y-4.2418
X6.2684Y-4.4443
X6.3684Y-3.3443
X6.3684Y-4.2497
X6.3684Y-4.4522
T0
M30
