%TF.GenerationSoftware,KiCad,Pcbnew,(5.1.8)-1*%
%TF.CreationDate,2021-03-28T09:39:19+02:00*%
%TF.ProjectId,KETCube_mainboard,4b455443-7562-4655-9f6d-61696e626f61,I*%
%TF.SameCoordinates,Original*%
%TF.FileFunction,Copper,L2,Bot*%
%TF.FilePolarity,Positive*%
%FSLAX46Y46*%
G04 Gerber Fmt 4.6, Leading zero omitted, Abs format (unit mm)*
G04 Created by KiCad (PCBNEW (5.1.8)-1) date 2021-03-28 09:39:19*
%MOMM*%
%LPD*%
G01*
G04 APERTURE LIST*
%TA.AperFunction,NonConductor*%
%ADD10C,0.200000*%
%TD*%
%TA.AperFunction,EtchedComponent*%
%ADD11C,0.100000*%
%TD*%
%TA.AperFunction,ComponentPad*%
%ADD12C,1.700000*%
%TD*%
%TA.AperFunction,ComponentPad*%
%ADD13R,1.700000X1.700000*%
%TD*%
%TA.AperFunction,SMDPad,CuDef*%
%ADD14R,1.000000X1.000000*%
%TD*%
%TA.AperFunction,ComponentPad*%
%ADD15C,1.010000*%
%TD*%
%TA.AperFunction,ComponentPad*%
%ADD16R,1.010000X1.010000*%
%TD*%
%TA.AperFunction,SMDPad,CuDef*%
%ADD17C,0.800000*%
%TD*%
%TA.AperFunction,ComponentPad*%
%ADD18C,1.400000*%
%TD*%
%TA.AperFunction,ViaPad*%
%ADD19C,0.600000*%
%TD*%
%TA.AperFunction,Conductor*%
%ADD20C,0.250000*%
%TD*%
%TA.AperFunction,Conductor*%
%ADD21C,0.350000*%
%TD*%
%TA.AperFunction,Conductor*%
%ADD22C,0.500000*%
%TD*%
%TA.AperFunction,Conductor*%
%ADD23C,0.200000*%
%TD*%
%TA.AperFunction,Conductor*%
%ADD24C,0.100000*%
%TD*%
G04 APERTURE END LIST*
D10*
X133966666Y-87042857D02*
X133852380Y-87080952D01*
X133814285Y-87119047D01*
X133776190Y-87195238D01*
X133776190Y-87309523D01*
X133814285Y-87385714D01*
X133852380Y-87423809D01*
X133928571Y-87461904D01*
X134233333Y-87461904D01*
X134233333Y-86661904D01*
X133966666Y-86661904D01*
X133890476Y-86700000D01*
X133852380Y-86738095D01*
X133814285Y-86814285D01*
X133814285Y-86890476D01*
X133852380Y-86966666D01*
X133890476Y-87004761D01*
X133966666Y-87042857D01*
X134233333Y-87042857D01*
X133280952Y-86661904D02*
X133128571Y-86661904D01*
X133052380Y-86700000D01*
X132976190Y-86776190D01*
X132938095Y-86928571D01*
X132938095Y-87195238D01*
X132976190Y-87347619D01*
X133052380Y-87423809D01*
X133128571Y-87461904D01*
X133280952Y-87461904D01*
X133357142Y-87423809D01*
X133433333Y-87347619D01*
X133471428Y-87195238D01*
X133471428Y-86928571D01*
X133433333Y-86776190D01*
X133357142Y-86700000D01*
X133280952Y-86661904D01*
X132709523Y-86661904D02*
X132252380Y-86661904D01*
X132480952Y-87461904D02*
X132480952Y-86661904D01*
D11*
%TO.C,J3*%
G36*
X158330900Y-96304100D02*
G01*
X158330900Y-97269300D01*
X159600900Y-97269300D01*
X159600900Y-96304100D01*
X158330900Y-96304100D01*
G37*
G36*
X158127700Y-97574100D02*
G01*
X158127700Y-98539300D01*
X159397700Y-98539300D01*
X159397700Y-97574100D01*
X158127700Y-97574100D01*
G37*
G36*
X158330900Y-98844100D02*
G01*
X158330900Y-99809300D01*
X159600900Y-99809300D01*
X159600900Y-98844100D01*
X158330900Y-98844100D01*
G37*
G36*
X158280100Y-101384100D02*
G01*
X158280100Y-102349300D01*
X159550100Y-102349300D01*
X159550100Y-101384100D01*
X158280100Y-101384100D01*
G37*
G36*
X158178500Y-100114100D02*
G01*
X158178500Y-101079300D01*
X159448500Y-101079300D01*
X159448500Y-100114100D01*
X158178500Y-100114100D01*
G37*
%TD*%
D12*
%TO.P,J1,20*%
%TO.N,GND*%
X161757660Y-107942860D03*
%TO.P,J1,19*%
%TO.N,+5V*%
X159217660Y-107742860D03*
%TO.P,J1,13*%
%TO.N,/PB2*%
X143977660Y-107742860D03*
%TO.P,J1,18*%
%TO.N,/PB9*%
X156677660Y-107942860D03*
%TO.P,J1,17*%
%TO.N,/PB8*%
X154137660Y-107742860D03*
%TO.P,J1,16*%
%TO.N,/PA2*%
X151597660Y-107942860D03*
%TO.P,J1,14*%
%TO.N,/PB5*%
X146517660Y-107942860D03*
%TO.P,J1,15*%
%TO.N,/PA3*%
X149057660Y-107742860D03*
D13*
%TO.P,J1,1*%
%TO.N,/PA10*%
X133817660Y-85144860D03*
D12*
%TO.P,J1,2*%
%TO.N,/PA9*%
X136357660Y-84944860D03*
%TO.P,J1,3*%
%TO.N,/PA8*%
X138897660Y-85144860D03*
%TO.P,J1,4*%
%TO.N,/PB7\u005CNRST*%
X141437660Y-84944860D03*
%TO.P,J1,5*%
%TO.N,/PA4*%
X143977660Y-85144860D03*
%TO.P,J1,6*%
%TO.N,/PA0*%
X146517660Y-84944860D03*
%TO.P,J1,7*%
%TO.N,/PB12*%
X149057660Y-85144860D03*
%TO.P,J1,8*%
%TO.N,/PB13*%
X151597660Y-84944860D03*
%TO.P,J1,9*%
%TO.N,/PB14*%
X154137660Y-85144860D03*
%TO.P,J1,10*%
%TO.N,/PB15*%
X156677660Y-84944860D03*
%TO.P,J1,11*%
%TO.N,+3V3*%
X159217660Y-85144860D03*
%TO.P,J1,12*%
%TO.N,GND*%
X161757660Y-84944860D03*
%TO.P,J1,13*%
%TO.N,/PB2*%
X143977660Y-112884860D03*
%TO.P,J1,14*%
%TO.N,/PB5*%
X146517660Y-113084860D03*
%TO.P,J1,15*%
%TO.N,/PA3*%
X149057660Y-112884860D03*
%TO.P,J1,16*%
%TO.N,/PA2*%
X151597660Y-113084860D03*
%TO.P,J1,17*%
%TO.N,/PB8*%
X154137660Y-112884860D03*
%TO.P,J1,18*%
%TO.N,/PB9*%
X156677660Y-113084860D03*
%TO.P,J1,19*%
%TO.N,+5V*%
X159217660Y-112884860D03*
%TO.P,J1,20*%
%TO.N,GND*%
X161757660Y-113084860D03*
%TD*%
D14*
%TO.P,J3,05*%
%TO.N,/NRST*%
X159440900Y-96786700D03*
%TO.P,J3,04*%
%TO.N,/SWDAT*%
X159440900Y-98056700D03*
%TO.P,J3,03*%
%TO.N,GND*%
X159440900Y-99326700D03*
%TO.P,J3,02*%
%TO.N,/SWCLK*%
X159440900Y-100596700D03*
%TO.P,J3,01*%
%TO.N,+3V3*%
X159440900Y-101866700D03*
D15*
%TO.P,J3,05*%
%TO.N,/NRST*%
X158430900Y-96786700D03*
%TO.P,J3,04*%
%TO.N,/SWDAT*%
X158230900Y-98056700D03*
%TO.P,J3,03*%
%TO.N,GND*%
X158430900Y-99326700D03*
%TO.P,J3,02*%
%TO.N,/SWCLK*%
X158230900Y-100596700D03*
D16*
%TO.P,J3,01*%
%TO.N,+3V3*%
X158430900Y-101866700D03*
%TD*%
D17*
%TO.P,FID4,*%
%TO.N,*%
X162461400Y-110030200D03*
%TD*%
%TO.P,FID3,*%
%TO.N,*%
X132551400Y-88930200D03*
%TD*%
D18*
%TO.P,TP1,1*%
%TO.N,/BOOT*%
X161791400Y-98440200D03*
%TD*%
%TO.P,D3,2*%
%TO.N,/PB7*%
%TA.AperFunction,SMDPad,CuDef*%
G36*
G01*
X134016000Y-113789750D02*
X134016000Y-114302250D01*
G75*
G02*
X133797250Y-114521000I-218750J0D01*
G01*
X133359750Y-114521000D01*
G75*
G02*
X133141000Y-114302250I0J218750D01*
G01*
X133141000Y-113789750D01*
G75*
G02*
X133359750Y-113571000I218750J0D01*
G01*
X133797250Y-113571000D01*
G75*
G02*
X134016000Y-113789750I0J-218750D01*
G01*
G37*
%TD.AperFunction*%
%TO.P,D3,1*%
%TO.N,Net-(D3-Pad1)*%
%TA.AperFunction,SMDPad,CuDef*%
G36*
G01*
X135591000Y-113789750D02*
X135591000Y-114302250D01*
G75*
G02*
X135372250Y-114521000I-218750J0D01*
G01*
X134934750Y-114521000D01*
G75*
G02*
X134716000Y-114302250I0J218750D01*
G01*
X134716000Y-113789750D01*
G75*
G02*
X134934750Y-113571000I218750J0D01*
G01*
X135372250Y-113571000D01*
G75*
G02*
X135591000Y-113789750I0J-218750D01*
G01*
G37*
%TD.AperFunction*%
%TD*%
%TO.P,D2,2*%
%TO.N,/PB6*%
%TA.AperFunction,SMDPad,CuDef*%
G36*
G01*
X138780000Y-114302250D02*
X138780000Y-113789750D01*
G75*
G02*
X138998750Y-113571000I218750J0D01*
G01*
X139436250Y-113571000D01*
G75*
G02*
X139655000Y-113789750I0J-218750D01*
G01*
X139655000Y-114302250D01*
G75*
G02*
X139436250Y-114521000I-218750J0D01*
G01*
X138998750Y-114521000D01*
G75*
G02*
X138780000Y-114302250I0J218750D01*
G01*
G37*
%TD.AperFunction*%
%TO.P,D2,1*%
%TO.N,Net-(D2-Pad1)*%
%TA.AperFunction,SMDPad,CuDef*%
G36*
G01*
X137205000Y-114302250D02*
X137205000Y-113789750D01*
G75*
G02*
X137423750Y-113571000I218750J0D01*
G01*
X137861250Y-113571000D01*
G75*
G02*
X138080000Y-113789750I0J-218750D01*
G01*
X138080000Y-114302250D01*
G75*
G02*
X137861250Y-114521000I-218750J0D01*
G01*
X137423750Y-114521000D01*
G75*
G02*
X137205000Y-114302250I0J218750D01*
G01*
G37*
%TD.AperFunction*%
%TD*%
%TO.P,D1,2*%
%TO.N,+3V3*%
%TA.AperFunction,SMDPad,CuDef*%
G36*
G01*
X162841650Y-90213700D02*
X162329150Y-90213700D01*
G75*
G02*
X162110400Y-89994950I0J218750D01*
G01*
X162110400Y-89557450D01*
G75*
G02*
X162329150Y-89338700I218750J0D01*
G01*
X162841650Y-89338700D01*
G75*
G02*
X163060400Y-89557450I0J-218750D01*
G01*
X163060400Y-89994950D01*
G75*
G02*
X162841650Y-90213700I-218750J0D01*
G01*
G37*
%TD.AperFunction*%
%TO.P,D1,1*%
%TO.N,Net-(D1-Pad1)*%
%TA.AperFunction,SMDPad,CuDef*%
G36*
G01*
X162841650Y-91788700D02*
X162329150Y-91788700D01*
G75*
G02*
X162110400Y-91569950I0J218750D01*
G01*
X162110400Y-91132450D01*
G75*
G02*
X162329150Y-90913700I218750J0D01*
G01*
X162841650Y-90913700D01*
G75*
G02*
X163060400Y-91132450I0J-218750D01*
G01*
X163060400Y-91569950D01*
G75*
G02*
X162841650Y-91788700I-218750J0D01*
G01*
G37*
%TD.AperFunction*%
%TD*%
D19*
%TO.N,GND*%
X157454608Y-92316300D03*
X158394408Y-104330500D03*
X155587708Y-92481400D03*
X138074408Y-86233000D03*
X150317208Y-111607600D03*
X150266408Y-108712000D03*
X158026108Y-114033300D03*
X156260808Y-106337100D03*
X155486108Y-109728000D03*
X155384508Y-111518700D03*
X160528008Y-110413800D03*
X162128208Y-103124000D03*
X154317708Y-104686100D03*
X154228808Y-106121200D03*
X150469608Y-106273600D03*
X149733008Y-101777800D03*
X143281408Y-92379800D03*
X132359408Y-83781900D03*
X135216908Y-83997800D03*
X161569408Y-95211900D03*
X162052008Y-87312500D03*
X153517608Y-88201500D03*
X154635208Y-90919300D03*
X157873708Y-86309200D03*
X144703800Y-111658400D03*
X142798800Y-103454200D03*
X146050000Y-104546400D03*
X148869400Y-92722700D03*
X148932900Y-95199200D03*
X142519408Y-86499700D03*
X152742908Y-105613200D03*
X133146800Y-92989400D03*
X140740680Y-89002860D03*
X140766080Y-91771460D03*
X137565680Y-91771460D03*
X135990880Y-93244660D03*
X135813800Y-89230200D03*
X134467600Y-90017600D03*
X133502400Y-91363800D03*
X137185400Y-93230700D03*
X138328400Y-93230700D03*
X139661900Y-93230700D03*
X139915900Y-94310200D03*
X139915900Y-95643700D03*
X139915900Y-97167700D03*
X139915900Y-98691700D03*
X139915900Y-100215700D03*
X139915900Y-101739700D03*
X139915900Y-103517700D03*
X139915900Y-104787700D03*
X138709400Y-104978200D03*
X137375900Y-105105200D03*
X135851900Y-105105200D03*
X132486400Y-105168700D03*
X134264400Y-105168700D03*
X138582400Y-91770200D03*
X139674600Y-91770200D03*
X139597680Y-89002860D03*
X138463960Y-89002860D03*
X137236200Y-89027000D03*
X151980900Y-93611700D03*
X145122900Y-92722700D03*
X155409900Y-102247700D03*
X145122900Y-95262700D03*
X149377400Y-100406200D03*
X143484600Y-109880400D03*
%TO.N,+3V3*%
X162342660Y-94575460D03*
X161416902Y-89776200D03*
X158330900Y-91706700D03*
X156997400Y-97675700D03*
X157581600Y-96012000D03*
%TO.N,Net-(C7-Pad1)*%
X156552900Y-91770206D03*
X156298888Y-104533700D03*
X145465800Y-110515400D03*
X138201400Y-108508800D03*
%TO.N,/NRST*%
X140804900Y-92849700D03*
X160934400Y-100088700D03*
X157120308Y-102572401D03*
X135216900Y-86563186D03*
%TO.N,Net-(D1-Pad1)*%
X161391600Y-91389198D03*
%TO.N,/PB6*%
X144868900Y-100088700D03*
%TO.N,Net-(D2-Pad1)*%
X147878800Y-108788200D03*
X147726400Y-111988600D03*
X136652000Y-114300000D03*
%TO.N,/PB7*%
X142003627Y-88143233D03*
X143347667Y-91262200D03*
X144047660Y-98179440D03*
%TO.N,Net-(D3-Pad1)*%
X142595600Y-108407200D03*
X137820400Y-111125000D03*
X137769600Y-113080800D03*
%TO.N,/SWDAT*%
X155543355Y-95999530D03*
X151993600Y-96113600D03*
%TO.N,/SWCLK*%
X155321000Y-99593400D03*
X152095200Y-97180400D03*
%TO.N,/USB_P*%
X138404600Y-110464600D03*
X153171768Y-99552368D03*
X149030200Y-105105200D03*
X146405600Y-105494600D03*
%TO.N,/USB_N*%
X138404600Y-109397800D03*
X153914232Y-100294832D03*
X150080200Y-105105200D03*
X146405600Y-106544600D03*
%TO.N,Net-(IC1-Pad48)*%
X152171400Y-98171000D03*
X153670000Y-101498400D03*
%TO.N,/BOOT*%
X160235900Y-94881700D03*
X148035156Y-100097422D03*
%TO.N,/PB5*%
X145630900Y-98310700D03*
%TO.N,/PB9*%
X140868400Y-110159800D03*
%TO.N,/PB8*%
X142494000Y-111633000D03*
X140055600Y-109474000D03*
%TO.N,/PA0*%
X144043400Y-87579200D03*
X143090900Y-93484730D03*
X142923890Y-96002859D03*
%TO.N,/PA2*%
X144022667Y-90211978D03*
%TO.N,/PA3*%
X145407595Y-89961505D03*
%TO.N,/PA8*%
X145630900Y-87198200D03*
%TD*%
D20*
%TO.N,GND*%
X151980900Y-93611700D02*
X151409400Y-93611700D01*
D21*
X145122900Y-92722700D02*
X145122900Y-93294200D01*
D20*
X158430900Y-99326700D02*
X159440900Y-99326700D01*
%TO.N,+3V3*%
X162585400Y-89776200D02*
X161416902Y-89776200D01*
D22*
X157515560Y-101876860D02*
X157289410Y-101650710D01*
X158415660Y-101876860D02*
X157515560Y-101876860D01*
X157289410Y-97510690D02*
X157289410Y-96215200D01*
X157289410Y-101650710D02*
X157289410Y-97510690D01*
D20*
X158430900Y-101866700D02*
X159440900Y-101866700D01*
X160554900Y-90638202D02*
X161416902Y-89776200D01*
X162342660Y-94575460D02*
X160554900Y-92787700D01*
X160554900Y-92787700D02*
X160554900Y-90638202D01*
X157124400Y-97675700D02*
X157289410Y-97510690D01*
X156997400Y-97675700D02*
X157124400Y-97675700D01*
D22*
X157492610Y-96012000D02*
X157289410Y-96215200D01*
X157581600Y-96012000D02*
X157492610Y-96012000D01*
X158330900Y-93675200D02*
X158330900Y-91706700D01*
X157695900Y-94310200D02*
X158330900Y-93675200D01*
X157695900Y-95897700D02*
X157695900Y-94310200D01*
X157581600Y-96012000D02*
X157695900Y-95897700D01*
%TO.N,Net-(C7-Pad1)*%
X156044900Y-97929700D02*
X156298888Y-98183688D01*
X156044900Y-97294700D02*
X156044900Y-97929700D01*
X156552900Y-91770206D02*
X156552900Y-96786700D01*
X156552900Y-96786700D02*
X156044900Y-97294700D01*
X156298888Y-98183688D02*
X156298888Y-104533700D01*
X145262600Y-110312200D02*
X145465800Y-110515400D01*
X145262600Y-106984800D02*
X145262600Y-110312200D01*
X144653000Y-106375200D02*
X145262600Y-106984800D01*
X143052800Y-106375200D02*
X144653000Y-106375200D01*
X139192000Y-107467400D02*
X141960600Y-107467400D01*
X141960600Y-107467400D02*
X143052800Y-106375200D01*
X138201400Y-108458000D02*
X139192000Y-107467400D01*
X138201400Y-108508800D02*
X138201400Y-108458000D01*
D20*
%TO.N,/NRST*%
X157120308Y-102572401D02*
X157494107Y-102946200D01*
X157494107Y-102946200D02*
X160299400Y-102946200D01*
X160934400Y-102311200D02*
X160934400Y-100088700D01*
X160299400Y-102946200D02*
X160934400Y-102311200D01*
X158430900Y-96786700D02*
X159440900Y-96786700D01*
X160816399Y-96714201D02*
X160816399Y-99970699D01*
X160816399Y-99970699D02*
X160934400Y-100088700D01*
X160743900Y-96786700D02*
X160816399Y-96714201D01*
X158430900Y-96786700D02*
X160743900Y-96786700D01*
X135216914Y-86563200D02*
X135216900Y-86563186D01*
X137439386Y-86563186D02*
X137482661Y-86606461D01*
X135216900Y-86563186D02*
X137439386Y-86563186D01*
X140995400Y-92849700D02*
X140804900Y-92849700D01*
X142519400Y-91325700D02*
X140995400Y-92849700D01*
X140550900Y-87769700D02*
X142519400Y-89738200D01*
X138264900Y-87769700D02*
X140550900Y-87769700D01*
X137482661Y-86987461D02*
X138264900Y-87769700D01*
X142519400Y-89738200D02*
X142519400Y-91325700D01*
X137482661Y-86606461D02*
X137482661Y-86987461D01*
X138212390Y-83250210D02*
X137482661Y-83979939D01*
X162447410Y-83250210D02*
X138212390Y-83250210D01*
X163231390Y-87885710D02*
X163231390Y-84034190D01*
X162204400Y-88912700D02*
X163231390Y-87885710D01*
X161281400Y-88912700D02*
X162204400Y-88912700D01*
X160154890Y-90039210D02*
X161281400Y-88912700D01*
X160154890Y-93467190D02*
X160154890Y-90039210D01*
X160832800Y-94145100D02*
X160154890Y-93467190D01*
X137482661Y-83979939D02*
X137482661Y-86606461D01*
X163231390Y-84034190D02*
X162447410Y-83250210D01*
X160832800Y-96697800D02*
X160832800Y-94145100D01*
X160816399Y-96714201D02*
X160832800Y-96697800D01*
%TO.N,Net-(D1-Pad1)*%
X162271742Y-91664858D02*
X162585400Y-91351200D01*
X162585400Y-91351200D02*
X161429598Y-91351200D01*
X161429598Y-91351200D02*
X161391600Y-91389198D01*
%TO.N,/PB6*%
X134049548Y-108342652D02*
X134049548Y-111443548D01*
X134620000Y-112014000D02*
X138684000Y-112014000D01*
X136076012Y-106316188D02*
X134049548Y-108342652D01*
X134049548Y-111443548D02*
X134620000Y-112014000D01*
X137974683Y-106053212D02*
X137711707Y-106316188D01*
X139217500Y-112547500D02*
X139217500Y-114046000D01*
X140504588Y-106053212D02*
X137974683Y-106053212D01*
X141528800Y-105029000D02*
X140504588Y-106053212D01*
X141528800Y-100990400D02*
X141528800Y-105029000D01*
X137711707Y-106316188D02*
X136076012Y-106316188D01*
X142430500Y-100088700D02*
X141528800Y-100990400D01*
X138684000Y-112014000D02*
X139217500Y-112547500D01*
X144868900Y-100088700D02*
X142430500Y-100088700D01*
%TO.N,Net-(D2-Pad1)*%
X147878800Y-108788200D02*
X147878800Y-111912400D01*
X147802600Y-111988600D02*
X147726400Y-111988600D01*
X147878800Y-111912400D02*
X147802600Y-111988600D01*
X137604400Y-114007800D02*
X137604400Y-114058700D01*
X137642500Y-114046000D02*
X137642500Y-114071500D01*
X136652000Y-114300000D02*
X136906000Y-114046000D01*
X136906000Y-114046000D02*
X137642500Y-114046000D01*
%TO.N,/PB7*%
X142003627Y-88143233D02*
X143347667Y-89487273D01*
X143347667Y-89487273D02*
X143347667Y-91262200D01*
X133324600Y-113004600D02*
X133578500Y-113258500D01*
X133324600Y-108178600D02*
X133324600Y-113004600D01*
X137546018Y-105916177D02*
X135587023Y-105916177D01*
X135587023Y-105916177D02*
X133324600Y-108178600D01*
X137808994Y-105653201D02*
X137546018Y-105916177D01*
X140197201Y-105653201D02*
X137808994Y-105653201D01*
X133578500Y-113258500D02*
X133578500Y-114046000D01*
X140970000Y-104880402D02*
X140197201Y-105653201D01*
X140970000Y-100584000D02*
X140970000Y-104880402D01*
X143374560Y-98179440D02*
X140970000Y-100584000D01*
X144047660Y-98179440D02*
X143374560Y-98179440D01*
%TO.N,Net-(D3-Pad1)*%
X136118700Y-113080800D02*
X135153500Y-114046000D01*
X137769600Y-113080800D02*
X136118700Y-113080800D01*
X138582400Y-111125000D02*
X137820400Y-111125000D01*
X138988800Y-110718600D02*
X138582400Y-111125000D01*
X138988800Y-108686600D02*
X138988800Y-110718600D01*
X142290800Y-108102400D02*
X139573000Y-108102400D01*
X139573000Y-108102400D02*
X138988800Y-108686600D01*
X142595600Y-108407200D02*
X142290800Y-108102400D01*
%TO.N,/SWDAT*%
X158230900Y-98056700D02*
X159440900Y-98056700D01*
X155429285Y-96113600D02*
X155543355Y-95999530D01*
X151993600Y-96113600D02*
X155429285Y-96113600D01*
%TO.N,/SWCLK*%
X158230900Y-100596700D02*
X159440900Y-100596700D01*
X155321000Y-98755200D02*
X155321000Y-99593400D01*
X152095200Y-97180400D02*
X153746200Y-97180400D01*
X153746200Y-97180400D02*
X155321000Y-98755200D01*
D23*
%TO.N,/USB_P*%
X153171768Y-99552368D02*
X153171768Y-99976633D01*
X149330200Y-104805200D02*
X149030200Y-105105200D01*
X138104600Y-110156200D02*
X138404600Y-110456200D01*
X135238000Y-110156200D02*
X138104600Y-110156200D01*
X134674400Y-108390200D02*
X134674400Y-109592600D01*
X138184400Y-106480400D02*
X137727200Y-106937600D01*
X146405600Y-105494600D02*
X145991997Y-105494600D01*
X142477000Y-105261200D02*
X141257800Y-106480400D01*
X137727200Y-106937600D02*
X136127000Y-106937600D01*
X136127000Y-106937600D02*
X134674400Y-108390200D01*
X145991997Y-105494600D02*
X145758597Y-105261200D01*
X134674400Y-109592600D02*
X135238000Y-110156200D01*
X145758597Y-105261200D02*
X142477000Y-105261200D01*
X141257800Y-106480400D02*
X138184400Y-106480400D01*
X153171768Y-99976633D02*
X149330200Y-103818201D01*
X149330200Y-103818201D02*
X149330200Y-104805200D01*
%TO.N,/USB_N*%
X153489967Y-100294832D02*
X153914232Y-100294832D01*
X141444200Y-106930400D02*
X138370800Y-106930400D01*
X135124400Y-109406200D02*
X135424400Y-109706200D01*
X135124400Y-108576600D02*
X135124400Y-109406200D01*
X138370800Y-106930400D02*
X137913600Y-107387600D01*
X142663400Y-105711200D02*
X141444200Y-106930400D01*
X136313400Y-107387600D02*
X135124400Y-108576600D01*
X146405600Y-106544600D02*
X145572200Y-105711200D01*
X145572200Y-105711200D02*
X142663400Y-105711200D01*
X137913600Y-107387600D02*
X136313400Y-107387600D01*
X135424400Y-109706200D02*
X138104600Y-109706200D01*
X138104600Y-109706200D02*
X138404600Y-109406200D01*
X149780200Y-104004599D02*
X153489967Y-100294832D01*
X149780200Y-104805200D02*
X149780200Y-104004599D01*
X150080200Y-105105200D02*
X149780200Y-104805200D01*
D20*
%TO.N,Net-(IC1-Pad48)*%
X152171400Y-98171000D02*
X152577800Y-98577400D01*
X152577800Y-98577400D02*
X153720800Y-98577400D01*
X153720800Y-98577400D02*
X154508200Y-99364800D01*
X154508200Y-99364800D02*
X154508200Y-99923600D01*
X154508200Y-99923600D02*
X154686000Y-100101400D01*
X154686000Y-100101400D02*
X154686000Y-100787200D01*
X153974800Y-101498400D02*
X153670000Y-101498400D01*
X154686000Y-100787200D02*
X153974800Y-101498400D01*
%TO.N,/BOOT*%
X159410400Y-91770200D02*
X158457900Y-90817700D01*
X160235900Y-94881700D02*
X159410400Y-94056200D01*
X156252396Y-90817700D02*
X148035156Y-99034940D01*
X159410400Y-94056200D02*
X159410400Y-91770200D01*
X158457900Y-90817700D02*
X156252396Y-90817700D01*
X148035156Y-99034940D02*
X148035156Y-99531737D01*
X148035156Y-99531737D02*
X148035156Y-100097422D01*
D22*
%TO.N,/PB5*%
X146517660Y-107942860D02*
X146517660Y-113084860D01*
D20*
X147091400Y-107369120D02*
X146517660Y-107942860D01*
X147091400Y-104368600D02*
X147091400Y-107369120D01*
X146126200Y-103403400D02*
X147091400Y-104368600D01*
X146126200Y-98806000D02*
X146126200Y-103403400D01*
X145630900Y-98310700D02*
X146126200Y-98806000D01*
%TO.N,/PB2*%
X144551400Y-110642400D02*
X145491200Y-111582200D01*
X145491200Y-111582200D02*
X145491200Y-112318800D01*
X144925140Y-112884860D02*
X143977660Y-112884860D01*
X145491200Y-112318800D02*
X144925140Y-112884860D01*
X144551400Y-108316600D02*
X143977660Y-107742860D01*
X144551400Y-110134400D02*
X144551400Y-108316600D01*
X144551400Y-109753400D02*
X144551400Y-110134400D01*
X144551400Y-110134400D02*
X144551400Y-110642400D01*
D22*
%TO.N,/PB9*%
X156677660Y-107942860D02*
X156677660Y-113084860D01*
D20*
X155112330Y-114650190D02*
X156677660Y-113084860D01*
X141655800Y-113360200D02*
X142945790Y-114650190D01*
X142945790Y-114650190D02*
X155112330Y-114650190D01*
X141655800Y-110947200D02*
X141655800Y-113360200D01*
X140868400Y-110159800D02*
X141655800Y-110947200D01*
D22*
%TO.N,/PB8*%
X154137660Y-107742860D02*
X154137660Y-112884860D01*
D20*
X152812659Y-114209861D02*
X154137660Y-112884860D01*
X142494000Y-113360200D02*
X143343661Y-114209861D01*
X142494000Y-111633000D02*
X142494000Y-113360200D01*
X143343661Y-114209861D02*
X152812659Y-114209861D01*
X141655800Y-109474000D02*
X142494000Y-110312200D01*
X140055600Y-109474000D02*
X141655800Y-109474000D01*
X142494000Y-110312200D02*
X142494000Y-111633000D01*
%TO.N,/PA0*%
X143090900Y-93484730D02*
X143090900Y-95835849D01*
X143090900Y-95835849D02*
X142923890Y-96002859D01*
X145669000Y-88087200D02*
X144551400Y-88087200D01*
X146240500Y-87515700D02*
X145669000Y-88087200D01*
X144551400Y-88087200D02*
X144043400Y-87579200D01*
X146240500Y-85222020D02*
X146240500Y-87515700D01*
X146517660Y-84944860D02*
X146240500Y-85222020D01*
D22*
%TO.N,/PA2*%
X151597660Y-107942860D02*
X151597660Y-113084860D01*
D20*
X144890145Y-89344500D02*
X144022667Y-90211978D01*
X146989800Y-90614500D02*
X145719800Y-89344500D01*
X146989800Y-102793800D02*
X146989800Y-90614500D01*
X147941590Y-105764890D02*
X147941590Y-103745590D01*
X148794559Y-106617859D02*
X147941590Y-105764890D01*
X149597661Y-106617859D02*
X148794559Y-106617859D01*
X145719800Y-89344500D02*
X144890145Y-89344500D01*
X150072663Y-107092861D02*
X149597661Y-106617859D01*
X150747661Y-107092861D02*
X150072663Y-107092861D01*
X147941590Y-103745590D02*
X146989800Y-102793800D01*
X151597660Y-107942860D02*
X150747661Y-107092861D01*
D22*
%TO.N,/PA3*%
X149057660Y-107742860D02*
X149057660Y-112884860D01*
D20*
X146558000Y-91111910D02*
X145407595Y-89961505D01*
X146558000Y-103149400D02*
X146558000Y-91111910D01*
X147497800Y-104089200D02*
X146558000Y-103149400D01*
X147497800Y-106183000D02*
X147497800Y-104089200D01*
X149057660Y-107742860D02*
X147497800Y-106183000D01*
%TO.N,/PA8*%
X145630900Y-87198200D02*
X145249900Y-86817200D01*
X145249900Y-86817200D02*
X145249900Y-84404200D01*
X144665559Y-83819859D02*
X139547741Y-83819859D01*
X145249900Y-84404200D02*
X144665559Y-83819859D01*
X138897660Y-84469940D02*
X138897660Y-85144860D01*
X139547741Y-83819859D02*
X138897660Y-84469940D01*
D22*
%TO.N,+5V*%
X159217660Y-107742860D02*
X159217660Y-112884860D01*
%TD*%
D20*
%TO.N,GND*%
X134850359Y-87009818D02*
X134944535Y-87072744D01*
X135049179Y-87116089D01*
X135160267Y-87138186D01*
X135273533Y-87138186D01*
X135384621Y-87116089D01*
X135489265Y-87072744D01*
X135583441Y-87009818D01*
X135630073Y-86963186D01*
X137082661Y-86963186D01*
X137082661Y-86967815D01*
X137080726Y-86987461D01*
X137082661Y-87007107D01*
X137082661Y-87007108D01*
X137086333Y-87044385D01*
X137088449Y-87065874D01*
X137111322Y-87141275D01*
X137148464Y-87210763D01*
X137185926Y-87256411D01*
X137185929Y-87256414D01*
X137198451Y-87271672D01*
X137213708Y-87284194D01*
X137968167Y-88038653D01*
X137980689Y-88053911D01*
X137995947Y-88066433D01*
X137995949Y-88066435D01*
X138023150Y-88088758D01*
X138041597Y-88103897D01*
X138111086Y-88141040D01*
X138186486Y-88163912D01*
X138264899Y-88171635D01*
X138284546Y-88169700D01*
X140385215Y-88169700D01*
X142119400Y-89903885D01*
X142119401Y-91160014D01*
X140979690Y-92299725D01*
X140972621Y-92296797D01*
X140861533Y-92274700D01*
X140748267Y-92274700D01*
X140637179Y-92296797D01*
X140532535Y-92340142D01*
X140438359Y-92403068D01*
X140358268Y-92483159D01*
X140295342Y-92577335D01*
X140251997Y-92681979D01*
X140229900Y-92793067D01*
X140229900Y-92906333D01*
X140251997Y-93017421D01*
X140295342Y-93122065D01*
X140358268Y-93216241D01*
X140438359Y-93296332D01*
X140532535Y-93359258D01*
X140637179Y-93402603D01*
X140748267Y-93424700D01*
X140861533Y-93424700D01*
X140972621Y-93402603D01*
X141077265Y-93359258D01*
X141171441Y-93296332D01*
X141251532Y-93216241D01*
X141314458Y-93122065D01*
X141332658Y-93078127D01*
X142788348Y-91622437D01*
X142803611Y-91609911D01*
X142850377Y-91552926D01*
X142901035Y-91628741D01*
X142981126Y-91708832D01*
X143075302Y-91771758D01*
X143179946Y-91815103D01*
X143291034Y-91837200D01*
X143404300Y-91837200D01*
X143515388Y-91815103D01*
X143620032Y-91771758D01*
X143714208Y-91708832D01*
X143794299Y-91628741D01*
X143857225Y-91534565D01*
X143900570Y-91429921D01*
X143922667Y-91318833D01*
X143922667Y-91205567D01*
X143900570Y-91094479D01*
X143857225Y-90989835D01*
X143794299Y-90895659D01*
X143747667Y-90849027D01*
X143747667Y-90719775D01*
X143750302Y-90721536D01*
X143854946Y-90764881D01*
X143966034Y-90786978D01*
X144079300Y-90786978D01*
X144190388Y-90764881D01*
X144295032Y-90721536D01*
X144389208Y-90658610D01*
X144469299Y-90578519D01*
X144532225Y-90484343D01*
X144575570Y-90379699D01*
X144597667Y-90268611D01*
X144597667Y-90202663D01*
X144832595Y-89967736D01*
X144832595Y-90018138D01*
X144854692Y-90129226D01*
X144898037Y-90233870D01*
X144960963Y-90328046D01*
X145041054Y-90408137D01*
X145135230Y-90471063D01*
X145239874Y-90514408D01*
X145350962Y-90536505D01*
X145416910Y-90536505D01*
X146158001Y-91277596D01*
X146158000Y-98080686D01*
X146140458Y-98038335D01*
X146077532Y-97944159D01*
X145997441Y-97864068D01*
X145903265Y-97801142D01*
X145798621Y-97757797D01*
X145687533Y-97735700D01*
X145574267Y-97735700D01*
X145463179Y-97757797D01*
X145358535Y-97801142D01*
X145264359Y-97864068D01*
X145184268Y-97944159D01*
X145121342Y-98038335D01*
X145077997Y-98142979D01*
X145055900Y-98254067D01*
X145055900Y-98367333D01*
X145077997Y-98478421D01*
X145121342Y-98583065D01*
X145184268Y-98677241D01*
X145264359Y-98757332D01*
X145358535Y-98820258D01*
X145463179Y-98863603D01*
X145574267Y-98885700D01*
X145640214Y-98885700D01*
X145726200Y-98971686D01*
X145726201Y-103383744D01*
X145724265Y-103403400D01*
X145731988Y-103481813D01*
X145754861Y-103557214D01*
X145792003Y-103626702D01*
X145829465Y-103672350D01*
X145829468Y-103672353D01*
X145841990Y-103687611D01*
X145857248Y-103700133D01*
X146691400Y-104534286D01*
X146691400Y-104994019D01*
X146677965Y-104985042D01*
X146573321Y-104941697D01*
X146462233Y-104919600D01*
X146348967Y-104919600D01*
X146237879Y-104941697D01*
X146133235Y-104985042D01*
X146061020Y-105033294D01*
X146036792Y-105009066D01*
X146025045Y-104994752D01*
X145967944Y-104947891D01*
X145902797Y-104913069D01*
X145832110Y-104891626D01*
X145777016Y-104886200D01*
X145777013Y-104886200D01*
X145758597Y-104884386D01*
X145740181Y-104886200D01*
X142495415Y-104886200D01*
X142476999Y-104884386D01*
X142458583Y-104886200D01*
X142458581Y-104886200D01*
X142403487Y-104891626D01*
X142332800Y-104913069D01*
X142267653Y-104947891D01*
X142210552Y-104994752D01*
X142198809Y-105009061D01*
X141102471Y-106105400D01*
X141018085Y-106105400D01*
X141797748Y-105325737D01*
X141813011Y-105313211D01*
X141862997Y-105252303D01*
X141900140Y-105182814D01*
X141923012Y-105107414D01*
X141928800Y-105048647D01*
X141930735Y-105029000D01*
X141928800Y-105009353D01*
X141928800Y-101156085D01*
X142596185Y-100488700D01*
X144455727Y-100488700D01*
X144502359Y-100535332D01*
X144596535Y-100598258D01*
X144701179Y-100641603D01*
X144812267Y-100663700D01*
X144925533Y-100663700D01*
X145036621Y-100641603D01*
X145141265Y-100598258D01*
X145235441Y-100535332D01*
X145315532Y-100455241D01*
X145378458Y-100361065D01*
X145421803Y-100256421D01*
X145443900Y-100145333D01*
X145443900Y-100032067D01*
X145421803Y-99920979D01*
X145378458Y-99816335D01*
X145315532Y-99722159D01*
X145235441Y-99642068D01*
X145141265Y-99579142D01*
X145036621Y-99535797D01*
X144925533Y-99513700D01*
X144812267Y-99513700D01*
X144701179Y-99535797D01*
X144596535Y-99579142D01*
X144502359Y-99642068D01*
X144455727Y-99688700D01*
X142450135Y-99688700D01*
X142432702Y-99686983D01*
X143540245Y-98579440D01*
X143634487Y-98579440D01*
X143681119Y-98626072D01*
X143775295Y-98688998D01*
X143879939Y-98732343D01*
X143991027Y-98754440D01*
X144104293Y-98754440D01*
X144215381Y-98732343D01*
X144320025Y-98688998D01*
X144414201Y-98626072D01*
X144494292Y-98545981D01*
X144557218Y-98451805D01*
X144600563Y-98347161D01*
X144622660Y-98236073D01*
X144622660Y-98122807D01*
X144600563Y-98011719D01*
X144557218Y-97907075D01*
X144494292Y-97812899D01*
X144414201Y-97732808D01*
X144320025Y-97669882D01*
X144215381Y-97626537D01*
X144104293Y-97604440D01*
X143991027Y-97604440D01*
X143879939Y-97626537D01*
X143775295Y-97669882D01*
X143681119Y-97732808D01*
X143634487Y-97779440D01*
X143394195Y-97779440D01*
X143374559Y-97777506D01*
X143354923Y-97779440D01*
X143354913Y-97779440D01*
X143296146Y-97785228D01*
X143220746Y-97808100D01*
X143151257Y-97845243D01*
X143090349Y-97895229D01*
X143077823Y-97910492D01*
X140701052Y-100287263D01*
X140685789Y-100299789D01*
X140635803Y-100360698D01*
X140598660Y-100430187D01*
X140586959Y-100468762D01*
X140575788Y-100505587D01*
X140568065Y-100584000D01*
X140570000Y-100603646D01*
X140570001Y-104714715D01*
X140031516Y-105253201D01*
X137828629Y-105253201D01*
X137808993Y-105251267D01*
X137789357Y-105253201D01*
X137789347Y-105253201D01*
X137730580Y-105258989D01*
X137655180Y-105281861D01*
X137585691Y-105319004D01*
X137524783Y-105368990D01*
X137512259Y-105384251D01*
X137380333Y-105516177D01*
X135606658Y-105516177D01*
X135587022Y-105514243D01*
X135567386Y-105516177D01*
X135567376Y-105516177D01*
X135508609Y-105521965D01*
X135433209Y-105544837D01*
X135363720Y-105581980D01*
X135363718Y-105581981D01*
X135363719Y-105581981D01*
X135318072Y-105619442D01*
X135318070Y-105619444D01*
X135302812Y-105631966D01*
X135290290Y-105647224D01*
X133055652Y-107881863D01*
X133040389Y-107894389D01*
X132990403Y-107955298D01*
X132953260Y-108024787D01*
X132941921Y-108062168D01*
X132930388Y-108100187D01*
X132922665Y-108178600D01*
X132924600Y-108198246D01*
X132924601Y-112984944D01*
X132922665Y-113004600D01*
X132930388Y-113083013D01*
X132953261Y-113158414D01*
X132990403Y-113227902D01*
X133027865Y-113273550D01*
X133027868Y-113273553D01*
X133040390Y-113288811D01*
X133055648Y-113301333D01*
X133115798Y-113361483D01*
X133084698Y-113378106D01*
X133009676Y-113439676D01*
X132948106Y-113514698D01*
X132902356Y-113600291D01*
X132874183Y-113693165D01*
X132864670Y-113789750D01*
X132864670Y-114302250D01*
X132874183Y-114398835D01*
X132896319Y-114471806D01*
X132025000Y-114474599D01*
X132025000Y-95946226D01*
X142348890Y-95946226D01*
X142348890Y-96059492D01*
X142370987Y-96170580D01*
X142414332Y-96275224D01*
X142477258Y-96369400D01*
X142557349Y-96449491D01*
X142651525Y-96512417D01*
X142756169Y-96555762D01*
X142867257Y-96577859D01*
X142980523Y-96577859D01*
X143091611Y-96555762D01*
X143196255Y-96512417D01*
X143290431Y-96449491D01*
X143370522Y-96369400D01*
X143433448Y-96275224D01*
X143476793Y-96170580D01*
X143498890Y-96059492D01*
X143498890Y-95946226D01*
X143487569Y-95889314D01*
X143490900Y-95855496D01*
X143492835Y-95835849D01*
X143490900Y-95816202D01*
X143490900Y-93897903D01*
X143537532Y-93851271D01*
X143600458Y-93757095D01*
X143643803Y-93652451D01*
X143665900Y-93541363D01*
X143665900Y-93428097D01*
X143643803Y-93317009D01*
X143600458Y-93212365D01*
X143537532Y-93118189D01*
X143457441Y-93038098D01*
X143363265Y-92975172D01*
X143258621Y-92931827D01*
X143147533Y-92909730D01*
X143034267Y-92909730D01*
X142923179Y-92931827D01*
X142818535Y-92975172D01*
X142724359Y-93038098D01*
X142644268Y-93118189D01*
X142581342Y-93212365D01*
X142537997Y-93317009D01*
X142515900Y-93428097D01*
X142515900Y-93541363D01*
X142537997Y-93652451D01*
X142581342Y-93757095D01*
X142644268Y-93851271D01*
X142690900Y-93897903D01*
X142690901Y-95476991D01*
X142651525Y-95493301D01*
X142557349Y-95556227D01*
X142477258Y-95636318D01*
X142414332Y-95730494D01*
X142370987Y-95835138D01*
X142348890Y-95946226D01*
X132025000Y-95946226D01*
X132025000Y-89690959D01*
X132113248Y-89749925D01*
X132281587Y-89819653D01*
X132460295Y-89855200D01*
X132642505Y-89855200D01*
X132821213Y-89819653D01*
X132989552Y-89749925D01*
X133141053Y-89648695D01*
X133269895Y-89519853D01*
X133371125Y-89368352D01*
X133440853Y-89200013D01*
X133476400Y-89021305D01*
X133476400Y-88839095D01*
X133440853Y-88660387D01*
X133371125Y-88492048D01*
X133269895Y-88340547D01*
X133141053Y-88211705D01*
X133047209Y-88149000D01*
X134798810Y-88149000D01*
X134798810Y-86958269D01*
X134850359Y-87009818D01*
%TA.AperFunction,Conductor*%
D24*
G36*
X134850359Y-87009818D02*
G01*
X134944535Y-87072744D01*
X135049179Y-87116089D01*
X135160267Y-87138186D01*
X135273533Y-87138186D01*
X135384621Y-87116089D01*
X135489265Y-87072744D01*
X135583441Y-87009818D01*
X135630073Y-86963186D01*
X137082661Y-86963186D01*
X137082661Y-86967815D01*
X137080726Y-86987461D01*
X137082661Y-87007107D01*
X137082661Y-87007108D01*
X137086333Y-87044385D01*
X137088449Y-87065874D01*
X137111322Y-87141275D01*
X137148464Y-87210763D01*
X137185926Y-87256411D01*
X137185929Y-87256414D01*
X137198451Y-87271672D01*
X137213708Y-87284194D01*
X137968167Y-88038653D01*
X137980689Y-88053911D01*
X137995947Y-88066433D01*
X137995949Y-88066435D01*
X138023150Y-88088758D01*
X138041597Y-88103897D01*
X138111086Y-88141040D01*
X138186486Y-88163912D01*
X138264899Y-88171635D01*
X138284546Y-88169700D01*
X140385215Y-88169700D01*
X142119400Y-89903885D01*
X142119401Y-91160014D01*
X140979690Y-92299725D01*
X140972621Y-92296797D01*
X140861533Y-92274700D01*
X140748267Y-92274700D01*
X140637179Y-92296797D01*
X140532535Y-92340142D01*
X140438359Y-92403068D01*
X140358268Y-92483159D01*
X140295342Y-92577335D01*
X140251997Y-92681979D01*
X140229900Y-92793067D01*
X140229900Y-92906333D01*
X140251997Y-93017421D01*
X140295342Y-93122065D01*
X140358268Y-93216241D01*
X140438359Y-93296332D01*
X140532535Y-93359258D01*
X140637179Y-93402603D01*
X140748267Y-93424700D01*
X140861533Y-93424700D01*
X140972621Y-93402603D01*
X141077265Y-93359258D01*
X141171441Y-93296332D01*
X141251532Y-93216241D01*
X141314458Y-93122065D01*
X141332658Y-93078127D01*
X142788348Y-91622437D01*
X142803611Y-91609911D01*
X142850377Y-91552926D01*
X142901035Y-91628741D01*
X142981126Y-91708832D01*
X143075302Y-91771758D01*
X143179946Y-91815103D01*
X143291034Y-91837200D01*
X143404300Y-91837200D01*
X143515388Y-91815103D01*
X143620032Y-91771758D01*
X143714208Y-91708832D01*
X143794299Y-91628741D01*
X143857225Y-91534565D01*
X143900570Y-91429921D01*
X143922667Y-91318833D01*
X143922667Y-91205567D01*
X143900570Y-91094479D01*
X143857225Y-90989835D01*
X143794299Y-90895659D01*
X143747667Y-90849027D01*
X143747667Y-90719775D01*
X143750302Y-90721536D01*
X143854946Y-90764881D01*
X143966034Y-90786978D01*
X144079300Y-90786978D01*
X144190388Y-90764881D01*
X144295032Y-90721536D01*
X144389208Y-90658610D01*
X144469299Y-90578519D01*
X144532225Y-90484343D01*
X144575570Y-90379699D01*
X144597667Y-90268611D01*
X144597667Y-90202663D01*
X144832595Y-89967736D01*
X144832595Y-90018138D01*
X144854692Y-90129226D01*
X144898037Y-90233870D01*
X144960963Y-90328046D01*
X145041054Y-90408137D01*
X145135230Y-90471063D01*
X145239874Y-90514408D01*
X145350962Y-90536505D01*
X145416910Y-90536505D01*
X146158001Y-91277596D01*
X146158000Y-98080686D01*
X146140458Y-98038335D01*
X146077532Y-97944159D01*
X145997441Y-97864068D01*
X145903265Y-97801142D01*
X145798621Y-97757797D01*
X145687533Y-97735700D01*
X145574267Y-97735700D01*
X145463179Y-97757797D01*
X145358535Y-97801142D01*
X145264359Y-97864068D01*
X145184268Y-97944159D01*
X145121342Y-98038335D01*
X145077997Y-98142979D01*
X145055900Y-98254067D01*
X145055900Y-98367333D01*
X145077997Y-98478421D01*
X145121342Y-98583065D01*
X145184268Y-98677241D01*
X145264359Y-98757332D01*
X145358535Y-98820258D01*
X145463179Y-98863603D01*
X145574267Y-98885700D01*
X145640214Y-98885700D01*
X145726200Y-98971686D01*
X145726201Y-103383744D01*
X145724265Y-103403400D01*
X145731988Y-103481813D01*
X145754861Y-103557214D01*
X145792003Y-103626702D01*
X145829465Y-103672350D01*
X145829468Y-103672353D01*
X145841990Y-103687611D01*
X145857248Y-103700133D01*
X146691400Y-104534286D01*
X146691400Y-104994019D01*
X146677965Y-104985042D01*
X146573321Y-104941697D01*
X146462233Y-104919600D01*
X146348967Y-104919600D01*
X146237879Y-104941697D01*
X146133235Y-104985042D01*
X146061020Y-105033294D01*
X146036792Y-105009066D01*
X146025045Y-104994752D01*
X145967944Y-104947891D01*
X145902797Y-104913069D01*
X145832110Y-104891626D01*
X145777016Y-104886200D01*
X145777013Y-104886200D01*
X145758597Y-104884386D01*
X145740181Y-104886200D01*
X142495415Y-104886200D01*
X142476999Y-104884386D01*
X142458583Y-104886200D01*
X142458581Y-104886200D01*
X142403487Y-104891626D01*
X142332800Y-104913069D01*
X142267653Y-104947891D01*
X142210552Y-104994752D01*
X142198809Y-105009061D01*
X141102471Y-106105400D01*
X141018085Y-106105400D01*
X141797748Y-105325737D01*
X141813011Y-105313211D01*
X141862997Y-105252303D01*
X141900140Y-105182814D01*
X141923012Y-105107414D01*
X141928800Y-105048647D01*
X141930735Y-105029000D01*
X141928800Y-105009353D01*
X141928800Y-101156085D01*
X142596185Y-100488700D01*
X144455727Y-100488700D01*
X144502359Y-100535332D01*
X144596535Y-100598258D01*
X144701179Y-100641603D01*
X144812267Y-100663700D01*
X144925533Y-100663700D01*
X145036621Y-100641603D01*
X145141265Y-100598258D01*
X145235441Y-100535332D01*
X145315532Y-100455241D01*
X145378458Y-100361065D01*
X145421803Y-100256421D01*
X145443900Y-100145333D01*
X145443900Y-100032067D01*
X145421803Y-99920979D01*
X145378458Y-99816335D01*
X145315532Y-99722159D01*
X145235441Y-99642068D01*
X145141265Y-99579142D01*
X145036621Y-99535797D01*
X144925533Y-99513700D01*
X144812267Y-99513700D01*
X144701179Y-99535797D01*
X144596535Y-99579142D01*
X144502359Y-99642068D01*
X144455727Y-99688700D01*
X142450135Y-99688700D01*
X142432702Y-99686983D01*
X143540245Y-98579440D01*
X143634487Y-98579440D01*
X143681119Y-98626072D01*
X143775295Y-98688998D01*
X143879939Y-98732343D01*
X143991027Y-98754440D01*
X144104293Y-98754440D01*
X144215381Y-98732343D01*
X144320025Y-98688998D01*
X144414201Y-98626072D01*
X144494292Y-98545981D01*
X144557218Y-98451805D01*
X144600563Y-98347161D01*
X144622660Y-98236073D01*
X144622660Y-98122807D01*
X144600563Y-98011719D01*
X144557218Y-97907075D01*
X144494292Y-97812899D01*
X144414201Y-97732808D01*
X144320025Y-97669882D01*
X144215381Y-97626537D01*
X144104293Y-97604440D01*
X143991027Y-97604440D01*
X143879939Y-97626537D01*
X143775295Y-97669882D01*
X143681119Y-97732808D01*
X143634487Y-97779440D01*
X143394195Y-97779440D01*
X143374559Y-97777506D01*
X143354923Y-97779440D01*
X143354913Y-97779440D01*
X143296146Y-97785228D01*
X143220746Y-97808100D01*
X143151257Y-97845243D01*
X143090349Y-97895229D01*
X143077823Y-97910492D01*
X140701052Y-100287263D01*
X140685789Y-100299789D01*
X140635803Y-100360698D01*
X140598660Y-100430187D01*
X140586959Y-100468762D01*
X140575788Y-100505587D01*
X140568065Y-100584000D01*
X140570000Y-100603646D01*
X140570001Y-104714715D01*
X140031516Y-105253201D01*
X137828629Y-105253201D01*
X137808993Y-105251267D01*
X137789357Y-105253201D01*
X137789347Y-105253201D01*
X137730580Y-105258989D01*
X137655180Y-105281861D01*
X137585691Y-105319004D01*
X137524783Y-105368990D01*
X137512259Y-105384251D01*
X137380333Y-105516177D01*
X135606658Y-105516177D01*
X135587022Y-105514243D01*
X135567386Y-105516177D01*
X135567376Y-105516177D01*
X135508609Y-105521965D01*
X135433209Y-105544837D01*
X135363720Y-105581980D01*
X135363718Y-105581981D01*
X135363719Y-105581981D01*
X135318072Y-105619442D01*
X135318070Y-105619444D01*
X135302812Y-105631966D01*
X135290290Y-105647224D01*
X133055652Y-107881863D01*
X133040389Y-107894389D01*
X132990403Y-107955298D01*
X132953260Y-108024787D01*
X132941921Y-108062168D01*
X132930388Y-108100187D01*
X132922665Y-108178600D01*
X132924600Y-108198246D01*
X132924601Y-112984944D01*
X132922665Y-113004600D01*
X132930388Y-113083013D01*
X132953261Y-113158414D01*
X132990403Y-113227902D01*
X133027865Y-113273550D01*
X133027868Y-113273553D01*
X133040390Y-113288811D01*
X133055648Y-113301333D01*
X133115798Y-113361483D01*
X133084698Y-113378106D01*
X133009676Y-113439676D01*
X132948106Y-113514698D01*
X132902356Y-113600291D01*
X132874183Y-113693165D01*
X132864670Y-113789750D01*
X132864670Y-114302250D01*
X132874183Y-114398835D01*
X132896319Y-114471806D01*
X132025000Y-114474599D01*
X132025000Y-95946226D01*
X142348890Y-95946226D01*
X142348890Y-96059492D01*
X142370987Y-96170580D01*
X142414332Y-96275224D01*
X142477258Y-96369400D01*
X142557349Y-96449491D01*
X142651525Y-96512417D01*
X142756169Y-96555762D01*
X142867257Y-96577859D01*
X142980523Y-96577859D01*
X143091611Y-96555762D01*
X143196255Y-96512417D01*
X143290431Y-96449491D01*
X143370522Y-96369400D01*
X143433448Y-96275224D01*
X143476793Y-96170580D01*
X143498890Y-96059492D01*
X143498890Y-95946226D01*
X143487569Y-95889314D01*
X143490900Y-95855496D01*
X143492835Y-95835849D01*
X143490900Y-95816202D01*
X143490900Y-93897903D01*
X143537532Y-93851271D01*
X143600458Y-93757095D01*
X143643803Y-93652451D01*
X143665900Y-93541363D01*
X143665900Y-93428097D01*
X143643803Y-93317009D01*
X143600458Y-93212365D01*
X143537532Y-93118189D01*
X143457441Y-93038098D01*
X143363265Y-92975172D01*
X143258621Y-92931827D01*
X143147533Y-92909730D01*
X143034267Y-92909730D01*
X142923179Y-92931827D01*
X142818535Y-92975172D01*
X142724359Y-93038098D01*
X142644268Y-93118189D01*
X142581342Y-93212365D01*
X142537997Y-93317009D01*
X142515900Y-93428097D01*
X142515900Y-93541363D01*
X142537997Y-93652451D01*
X142581342Y-93757095D01*
X142644268Y-93851271D01*
X142690900Y-93897903D01*
X142690901Y-95476991D01*
X142651525Y-95493301D01*
X142557349Y-95556227D01*
X142477258Y-95636318D01*
X142414332Y-95730494D01*
X142370987Y-95835138D01*
X142348890Y-95946226D01*
X132025000Y-95946226D01*
X132025000Y-89690959D01*
X132113248Y-89749925D01*
X132281587Y-89819653D01*
X132460295Y-89855200D01*
X132642505Y-89855200D01*
X132821213Y-89819653D01*
X132989552Y-89749925D01*
X133141053Y-89648695D01*
X133269895Y-89519853D01*
X133371125Y-89368352D01*
X133440853Y-89200013D01*
X133476400Y-89021305D01*
X133476400Y-88839095D01*
X133440853Y-88660387D01*
X133371125Y-88492048D01*
X133269895Y-88340547D01*
X133141053Y-88211705D01*
X133047209Y-88149000D01*
X134798810Y-88149000D01*
X134798810Y-86958269D01*
X134850359Y-87009818D01*
G37*
%TD.AperFunction*%
D20*
X162831391Y-84199877D02*
X162831391Y-84462944D01*
X162814087Y-84417624D01*
X162782961Y-84359388D01*
X162620925Y-84264029D01*
X161940094Y-84944860D01*
X162620925Y-85625691D01*
X162782961Y-85530332D01*
X162831391Y-85422078D01*
X162831390Y-87720024D01*
X162038715Y-88512700D01*
X161301047Y-88512700D01*
X161281400Y-88510765D01*
X161261753Y-88512700D01*
X161202986Y-88518488D01*
X161127586Y-88541360D01*
X161058097Y-88578503D01*
X160997189Y-88628489D01*
X160984665Y-88643750D01*
X159885938Y-89742477D01*
X159870680Y-89754999D01*
X159858158Y-89770257D01*
X159858155Y-89770260D01*
X159820693Y-89815908D01*
X159783551Y-89885396D01*
X159760678Y-89960797D01*
X159752955Y-90039210D01*
X159754891Y-90058866D01*
X159754891Y-91566155D01*
X159744597Y-91546897D01*
X159694611Y-91485989D01*
X159679348Y-91473463D01*
X158754637Y-90548752D01*
X158742111Y-90533489D01*
X158681203Y-90483503D01*
X158611714Y-90446360D01*
X158536314Y-90423488D01*
X158477547Y-90417700D01*
X158477546Y-90417700D01*
X158457900Y-90415765D01*
X158438254Y-90417700D01*
X156272031Y-90417700D01*
X156252395Y-90415766D01*
X156232759Y-90417700D01*
X156232749Y-90417700D01*
X156173982Y-90423488D01*
X156098582Y-90446360D01*
X156029093Y-90483503D01*
X156028015Y-90484388D01*
X155983445Y-90520965D01*
X155983443Y-90520967D01*
X155968185Y-90533489D01*
X155955663Y-90548747D01*
X147766208Y-98738203D01*
X147750945Y-98750729D01*
X147700959Y-98811638D01*
X147663816Y-98881127D01*
X147643306Y-98948740D01*
X147640944Y-98956527D01*
X147633221Y-99034940D01*
X147635156Y-99054587D01*
X147635157Y-99512082D01*
X147635156Y-99512091D01*
X147635156Y-99684249D01*
X147588524Y-99730881D01*
X147525598Y-99825057D01*
X147482253Y-99929701D01*
X147460156Y-100040789D01*
X147460156Y-100154055D01*
X147482253Y-100265143D01*
X147525598Y-100369787D01*
X147588524Y-100463963D01*
X147668615Y-100544054D01*
X147762791Y-100606980D01*
X147867435Y-100650325D01*
X147978523Y-100672422D01*
X148091789Y-100672422D01*
X148202877Y-100650325D01*
X148307521Y-100606980D01*
X148401697Y-100544054D01*
X148481788Y-100463963D01*
X148544714Y-100369787D01*
X148588059Y-100265143D01*
X148610156Y-100154055D01*
X148610156Y-100040789D01*
X148588059Y-99929701D01*
X148544714Y-99825057D01*
X148481788Y-99730881D01*
X148435156Y-99684249D01*
X148435156Y-99200625D01*
X151426389Y-96209392D01*
X151440697Y-96281321D01*
X151484042Y-96385965D01*
X151546968Y-96480141D01*
X151627059Y-96560232D01*
X151721235Y-96623158D01*
X151825879Y-96666503D01*
X151830899Y-96667502D01*
X151822835Y-96670842D01*
X151728659Y-96733768D01*
X151648568Y-96813859D01*
X151585642Y-96908035D01*
X151542297Y-97012679D01*
X151520200Y-97123767D01*
X151520200Y-97237033D01*
X151542297Y-97348121D01*
X151585642Y-97452765D01*
X151648568Y-97546941D01*
X151728659Y-97627032D01*
X151822835Y-97689958D01*
X151843529Y-97698530D01*
X151804859Y-97724368D01*
X151724768Y-97804459D01*
X151661842Y-97898635D01*
X151618497Y-98003279D01*
X151596400Y-98114367D01*
X151596400Y-98227633D01*
X151618497Y-98338721D01*
X151661842Y-98443365D01*
X151724768Y-98537541D01*
X151804859Y-98617632D01*
X151899035Y-98680558D01*
X152003679Y-98723903D01*
X152114767Y-98746000D01*
X152180715Y-98746000D01*
X152281063Y-98846348D01*
X152293589Y-98861611D01*
X152354497Y-98911597D01*
X152423986Y-98948740D01*
X152499386Y-98971612D01*
X152558153Y-98977400D01*
X152558163Y-98977400D01*
X152577799Y-98979334D01*
X152597435Y-98977400D01*
X153114974Y-98977400D01*
X153004047Y-98999465D01*
X152899403Y-99042810D01*
X152805227Y-99105736D01*
X152725136Y-99185827D01*
X152662210Y-99280003D01*
X152618865Y-99384647D01*
X152596768Y-99495735D01*
X152596768Y-99609001D01*
X152618865Y-99720089D01*
X152662210Y-99824733D01*
X152714732Y-99903339D01*
X149078066Y-103540006D01*
X149063752Y-103551753D01*
X149016891Y-103608855D01*
X148982069Y-103674002D01*
X148960626Y-103744689D01*
X148955646Y-103795252D01*
X148953386Y-103818201D01*
X148955200Y-103836617D01*
X148955201Y-104533853D01*
X148862479Y-104552297D01*
X148757835Y-104595642D01*
X148663659Y-104658568D01*
X148583568Y-104738659D01*
X148520642Y-104832835D01*
X148477297Y-104937479D01*
X148455200Y-105048567D01*
X148455200Y-105161833D01*
X148477297Y-105272921D01*
X148520642Y-105377565D01*
X148583568Y-105471741D01*
X148663659Y-105551832D01*
X148757835Y-105614758D01*
X148862479Y-105658103D01*
X148973567Y-105680200D01*
X149086833Y-105680200D01*
X149197921Y-105658103D01*
X149302565Y-105614758D01*
X149396741Y-105551832D01*
X149476832Y-105471741D01*
X149539758Y-105377565D01*
X149555200Y-105340285D01*
X149570642Y-105377565D01*
X149633568Y-105471741D01*
X149713659Y-105551832D01*
X149807835Y-105614758D01*
X149912479Y-105658103D01*
X150023567Y-105680200D01*
X150136833Y-105680200D01*
X150247921Y-105658103D01*
X150352565Y-105614758D01*
X150446741Y-105551832D01*
X150526832Y-105471741D01*
X150589758Y-105377565D01*
X150633103Y-105272921D01*
X150655200Y-105161833D01*
X150655200Y-105048567D01*
X150633103Y-104937479D01*
X150589758Y-104832835D01*
X150526832Y-104738659D01*
X150446741Y-104658568D01*
X150352565Y-104595642D01*
X150247921Y-104552297D01*
X150155200Y-104533853D01*
X150155200Y-104159928D01*
X153563261Y-100751868D01*
X153641867Y-100804390D01*
X153746511Y-100847735D01*
X153857599Y-100869832D01*
X153970865Y-100869832D01*
X154054274Y-100853241D01*
X153925612Y-100981903D01*
X153837721Y-100945497D01*
X153726633Y-100923400D01*
X153613367Y-100923400D01*
X153502279Y-100945497D01*
X153397635Y-100988842D01*
X153303459Y-101051768D01*
X153223368Y-101131859D01*
X153160442Y-101226035D01*
X153117097Y-101330679D01*
X153095000Y-101441767D01*
X153095000Y-101555033D01*
X153117097Y-101666121D01*
X153160442Y-101770765D01*
X153223368Y-101864941D01*
X153303459Y-101945032D01*
X153397635Y-102007958D01*
X153502279Y-102051303D01*
X153613367Y-102073400D01*
X153726633Y-102073400D01*
X153837721Y-102051303D01*
X153942365Y-102007958D01*
X154036541Y-101945032D01*
X154104526Y-101877047D01*
X154128614Y-101869740D01*
X154198103Y-101832597D01*
X154259011Y-101782611D01*
X154271537Y-101767348D01*
X154954948Y-101083937D01*
X154970211Y-101071411D01*
X155020197Y-101010503D01*
X155057340Y-100941014D01*
X155080212Y-100865614D01*
X155086000Y-100806847D01*
X155087935Y-100787200D01*
X155086000Y-100767553D01*
X155086000Y-100121035D01*
X155086246Y-100118537D01*
X155153279Y-100146303D01*
X155264367Y-100168400D01*
X155377633Y-100168400D01*
X155488721Y-100146303D01*
X155593365Y-100102958D01*
X155687541Y-100040032D01*
X155767632Y-99959941D01*
X155773888Y-99950578D01*
X155773889Y-104298613D01*
X155745985Y-104365979D01*
X155723888Y-104477067D01*
X155723888Y-104590333D01*
X155745985Y-104701421D01*
X155789330Y-104806065D01*
X155852256Y-104900241D01*
X155932347Y-104980332D01*
X156026523Y-105043258D01*
X156131167Y-105086603D01*
X156242255Y-105108700D01*
X156355521Y-105108700D01*
X156466609Y-105086603D01*
X156571253Y-105043258D01*
X156665429Y-104980332D01*
X156745520Y-104900241D01*
X156808446Y-104806065D01*
X156851791Y-104701421D01*
X156873888Y-104590333D01*
X156873888Y-104477067D01*
X156851791Y-104365979D01*
X156823888Y-104298615D01*
X156823888Y-103065886D01*
X156847943Y-103081959D01*
X156952587Y-103125304D01*
X157063675Y-103147401D01*
X157129623Y-103147401D01*
X157197370Y-103215148D01*
X157209896Y-103230411D01*
X157225157Y-103242935D01*
X157270804Y-103280397D01*
X157340293Y-103317540D01*
X157415693Y-103340412D01*
X157494107Y-103348135D01*
X157513754Y-103346200D01*
X160279754Y-103346200D01*
X160299400Y-103348135D01*
X160319046Y-103346200D01*
X160319047Y-103346200D01*
X160377814Y-103340412D01*
X160453214Y-103317540D01*
X160522703Y-103280397D01*
X160583611Y-103230411D01*
X160596137Y-103215148D01*
X161203349Y-102607936D01*
X161218611Y-102595411D01*
X161268597Y-102534503D01*
X161305740Y-102465014D01*
X161328612Y-102389614D01*
X161334400Y-102330847D01*
X161334400Y-102330846D01*
X161336335Y-102311200D01*
X161334400Y-102291553D01*
X161334400Y-100501873D01*
X161381032Y-100455241D01*
X161443958Y-100361065D01*
X161487303Y-100256421D01*
X161509400Y-100145333D01*
X161509400Y-100032067D01*
X161487303Y-99920979D01*
X161443958Y-99816335D01*
X161381032Y-99722159D01*
X161300941Y-99642068D01*
X161216399Y-99585579D01*
X161216399Y-99228620D01*
X161329564Y-99304234D01*
X161507003Y-99377732D01*
X161695371Y-99415200D01*
X161887429Y-99415200D01*
X162075797Y-99377732D01*
X162253236Y-99304234D01*
X162412927Y-99197532D01*
X162548732Y-99061727D01*
X162655434Y-98902036D01*
X162728932Y-98724597D01*
X162766400Y-98536229D01*
X162766400Y-98344171D01*
X162728932Y-98155803D01*
X162655434Y-97978364D01*
X162548732Y-97818673D01*
X162412927Y-97682868D01*
X162253236Y-97576166D01*
X162075797Y-97502668D01*
X161887429Y-97465200D01*
X161695371Y-97465200D01*
X161507003Y-97502668D01*
X161329564Y-97576166D01*
X161216399Y-97651780D01*
X161216399Y-96811201D01*
X161227012Y-96776214D01*
X161232800Y-96717447D01*
X161232800Y-96717446D01*
X161234735Y-96697800D01*
X161232800Y-96678153D01*
X161232800Y-94164747D01*
X161234735Y-94145100D01*
X161227012Y-94066686D01*
X161209077Y-94007562D01*
X161767660Y-94566145D01*
X161767660Y-94632093D01*
X161789757Y-94743181D01*
X161833102Y-94847825D01*
X161896028Y-94942001D01*
X161976119Y-95022092D01*
X162070295Y-95085018D01*
X162174939Y-95128363D01*
X162286027Y-95150460D01*
X162399293Y-95150460D01*
X162510381Y-95128363D01*
X162615025Y-95085018D01*
X162709201Y-95022092D01*
X162789292Y-94942001D01*
X162852218Y-94847825D01*
X162895563Y-94743181D01*
X162917660Y-94632093D01*
X162917660Y-94518827D01*
X162895563Y-94407739D01*
X162852218Y-94303095D01*
X162789292Y-94208919D01*
X162709201Y-94128828D01*
X162615025Y-94065902D01*
X162510381Y-94022557D01*
X162399293Y-94000460D01*
X162333345Y-94000460D01*
X160954900Y-92622015D01*
X160954900Y-91765671D01*
X161025059Y-91835830D01*
X161119235Y-91898756D01*
X161223879Y-91942101D01*
X161334967Y-91964198D01*
X161448233Y-91964198D01*
X161559321Y-91942101D01*
X161663965Y-91898756D01*
X161758141Y-91835830D01*
X161838232Y-91755739D01*
X161841265Y-91751200D01*
X161869266Y-91751200D01*
X161871756Y-91759409D01*
X161896427Y-91805566D01*
X161900403Y-91818672D01*
X161937545Y-91888160D01*
X161987532Y-91949068D01*
X162048440Y-91999055D01*
X162117928Y-92036197D01*
X162193329Y-92059070D01*
X162271742Y-92066793D01*
X162309396Y-92063084D01*
X162329150Y-92065030D01*
X162841650Y-92065030D01*
X162938235Y-92055517D01*
X162975000Y-92044364D01*
X162975000Y-109260888D01*
X162899552Y-109210475D01*
X162731213Y-109140747D01*
X162552505Y-109105200D01*
X162370295Y-109105200D01*
X162191587Y-109140747D01*
X162023248Y-109210475D01*
X161871747Y-109311705D01*
X161742905Y-109440547D01*
X161641675Y-109592048D01*
X161571947Y-109760387D01*
X161536400Y-109939095D01*
X161536400Y-110121305D01*
X161571947Y-110300013D01*
X161641675Y-110468352D01*
X161742905Y-110619853D01*
X161871747Y-110748695D01*
X162023248Y-110849925D01*
X162191587Y-110919653D01*
X162370295Y-110955200D01*
X162552505Y-110955200D01*
X162731213Y-110919653D01*
X162899552Y-110849925D01*
X162975000Y-110799512D01*
X162975000Y-114375400D01*
X155930226Y-114397979D01*
X156216622Y-114111583D01*
X156349510Y-114166627D01*
X156566857Y-114209860D01*
X156788463Y-114209860D01*
X157005810Y-114166627D01*
X157210547Y-114081822D01*
X157394805Y-113958704D01*
X157551504Y-113802005D01*
X157674622Y-113617747D01*
X157759427Y-113413010D01*
X157802660Y-113195663D01*
X157802660Y-112974057D01*
X157759427Y-112756710D01*
X157674622Y-112551973D01*
X157551504Y-112367715D01*
X157394805Y-112211016D01*
X157210547Y-112087898D01*
X157202660Y-112084631D01*
X157202660Y-108943089D01*
X157210547Y-108939822D01*
X157394805Y-108816704D01*
X157551504Y-108660005D01*
X157674622Y-108475747D01*
X157759427Y-108271010D01*
X157802660Y-108053663D01*
X157802660Y-107832057D01*
X157762878Y-107632057D01*
X158092660Y-107632057D01*
X158092660Y-107853663D01*
X158135893Y-108071010D01*
X158220698Y-108275747D01*
X158343816Y-108460005D01*
X158500515Y-108616704D01*
X158684773Y-108739822D01*
X158692660Y-108743089D01*
X158692661Y-111884631D01*
X158684773Y-111887898D01*
X158500515Y-112011016D01*
X158343816Y-112167715D01*
X158220698Y-112351973D01*
X158135893Y-112556710D01*
X158092660Y-112774057D01*
X158092660Y-112995663D01*
X158135893Y-113213010D01*
X158220698Y-113417747D01*
X158343816Y-113602005D01*
X158500515Y-113758704D01*
X158684773Y-113881822D01*
X158889510Y-113966627D01*
X159106857Y-114009860D01*
X159328463Y-114009860D01*
X159545810Y-113966627D01*
X159590477Y-113948125D01*
X161076829Y-113948125D01*
X161172188Y-114110161D01*
X161383465Y-114204680D01*
X161609121Y-114256164D01*
X161840486Y-114262636D01*
X162068667Y-114223846D01*
X162284896Y-114141287D01*
X162343132Y-114110161D01*
X162438491Y-113948125D01*
X161757660Y-113267294D01*
X161076829Y-113948125D01*
X159590477Y-113948125D01*
X159750547Y-113881822D01*
X159934805Y-113758704D01*
X160091504Y-113602005D01*
X160214622Y-113417747D01*
X160299427Y-113213010D01*
X160308442Y-113167686D01*
X160579884Y-113167686D01*
X160618674Y-113395867D01*
X160701233Y-113612096D01*
X160732359Y-113670332D01*
X160894395Y-113765691D01*
X161575226Y-113084860D01*
X161940094Y-113084860D01*
X162620925Y-113765691D01*
X162782961Y-113670332D01*
X162877480Y-113459055D01*
X162928964Y-113233399D01*
X162935436Y-113002034D01*
X162896646Y-112773853D01*
X162814087Y-112557624D01*
X162782961Y-112499388D01*
X162620925Y-112404029D01*
X161940094Y-113084860D01*
X161575226Y-113084860D01*
X160894395Y-112404029D01*
X160732359Y-112499388D01*
X160637840Y-112710665D01*
X160586356Y-112936321D01*
X160579884Y-113167686D01*
X160308442Y-113167686D01*
X160342660Y-112995663D01*
X160342660Y-112774057D01*
X160299427Y-112556710D01*
X160214622Y-112351973D01*
X160127506Y-112221595D01*
X161076829Y-112221595D01*
X161757660Y-112902426D01*
X162438491Y-112221595D01*
X162343132Y-112059559D01*
X162131855Y-111965040D01*
X161906199Y-111913556D01*
X161674834Y-111907084D01*
X161446653Y-111945874D01*
X161230424Y-112028433D01*
X161172188Y-112059559D01*
X161076829Y-112221595D01*
X160127506Y-112221595D01*
X160091504Y-112167715D01*
X159934805Y-112011016D01*
X159750547Y-111887898D01*
X159742660Y-111884631D01*
X159742660Y-108806125D01*
X161076829Y-108806125D01*
X161172188Y-108968161D01*
X161383465Y-109062680D01*
X161609121Y-109114164D01*
X161840486Y-109120636D01*
X162068667Y-109081846D01*
X162284896Y-108999287D01*
X162343132Y-108968161D01*
X162438491Y-108806125D01*
X161757660Y-108125294D01*
X161076829Y-108806125D01*
X159742660Y-108806125D01*
X159742660Y-108743089D01*
X159750547Y-108739822D01*
X159934805Y-108616704D01*
X160091504Y-108460005D01*
X160214622Y-108275747D01*
X160299427Y-108071010D01*
X160308442Y-108025686D01*
X160579884Y-108025686D01*
X160618674Y-108253867D01*
X160701233Y-108470096D01*
X160732359Y-108528332D01*
X160894395Y-108623691D01*
X161575226Y-107942860D01*
X161940094Y-107942860D01*
X162620925Y-108623691D01*
X162782961Y-108528332D01*
X162877480Y-108317055D01*
X162928964Y-108091399D01*
X162935436Y-107860034D01*
X162896646Y-107631853D01*
X162814087Y-107415624D01*
X162782961Y-107357388D01*
X162620925Y-107262029D01*
X161940094Y-107942860D01*
X161575226Y-107942860D01*
X160894395Y-107262029D01*
X160732359Y-107357388D01*
X160637840Y-107568665D01*
X160586356Y-107794321D01*
X160579884Y-108025686D01*
X160308442Y-108025686D01*
X160342660Y-107853663D01*
X160342660Y-107632057D01*
X160299427Y-107414710D01*
X160214622Y-107209973D01*
X160127506Y-107079595D01*
X161076829Y-107079595D01*
X161757660Y-107760426D01*
X162438491Y-107079595D01*
X162343132Y-106917559D01*
X162131855Y-106823040D01*
X161906199Y-106771556D01*
X161674834Y-106765084D01*
X161446653Y-106803874D01*
X161230424Y-106886433D01*
X161172188Y-106917559D01*
X161076829Y-107079595D01*
X160127506Y-107079595D01*
X160091504Y-107025715D01*
X159934805Y-106869016D01*
X159750547Y-106745898D01*
X159545810Y-106661093D01*
X159328463Y-106617860D01*
X159106857Y-106617860D01*
X158889510Y-106661093D01*
X158684773Y-106745898D01*
X158500515Y-106869016D01*
X158343816Y-107025715D01*
X158220698Y-107209973D01*
X158135893Y-107414710D01*
X158092660Y-107632057D01*
X157762878Y-107632057D01*
X157759427Y-107614710D01*
X157674622Y-107409973D01*
X157551504Y-107225715D01*
X157394805Y-107069016D01*
X157210547Y-106945898D01*
X157005810Y-106861093D01*
X156788463Y-106817860D01*
X156566857Y-106817860D01*
X156349510Y-106861093D01*
X156144773Y-106945898D01*
X155960515Y-107069016D01*
X155803816Y-107225715D01*
X155680698Y-107409973D01*
X155595893Y-107614710D01*
X155552660Y-107832057D01*
X155552660Y-108053663D01*
X155595893Y-108271010D01*
X155680698Y-108475747D01*
X155803816Y-108660005D01*
X155960515Y-108816704D01*
X156144773Y-108939822D01*
X156152660Y-108943089D01*
X156152661Y-112084631D01*
X156144773Y-112087898D01*
X155960515Y-112211016D01*
X155803816Y-112367715D01*
X155680698Y-112551973D01*
X155595893Y-112756710D01*
X155552660Y-112974057D01*
X155552660Y-113195663D01*
X155595893Y-113413010D01*
X155650937Y-113545898D01*
X154946645Y-114250190D01*
X153338015Y-114250190D01*
X153676622Y-113911583D01*
X153809510Y-113966627D01*
X154026857Y-114009860D01*
X154248463Y-114009860D01*
X154465810Y-113966627D01*
X154670547Y-113881822D01*
X154854805Y-113758704D01*
X155011504Y-113602005D01*
X155134622Y-113417747D01*
X155219427Y-113213010D01*
X155262660Y-112995663D01*
X155262660Y-112774057D01*
X155219427Y-112556710D01*
X155134622Y-112351973D01*
X155011504Y-112167715D01*
X154854805Y-112011016D01*
X154670547Y-111887898D01*
X154662660Y-111884631D01*
X154662660Y-108743089D01*
X154670547Y-108739822D01*
X154854805Y-108616704D01*
X155011504Y-108460005D01*
X155134622Y-108275747D01*
X155219427Y-108071010D01*
X155262660Y-107853663D01*
X155262660Y-107632057D01*
X155219427Y-107414710D01*
X155134622Y-107209973D01*
X155011504Y-107025715D01*
X154854805Y-106869016D01*
X154670547Y-106745898D01*
X154465810Y-106661093D01*
X154248463Y-106617860D01*
X154026857Y-106617860D01*
X153809510Y-106661093D01*
X153604773Y-106745898D01*
X153420515Y-106869016D01*
X153263816Y-107025715D01*
X153140698Y-107209973D01*
X153055893Y-107414710D01*
X153012660Y-107632057D01*
X153012660Y-107853663D01*
X153055893Y-108071010D01*
X153140698Y-108275747D01*
X153263816Y-108460005D01*
X153420515Y-108616704D01*
X153604773Y-108739822D01*
X153612660Y-108743089D01*
X153612661Y-111884631D01*
X153604773Y-111887898D01*
X153420515Y-112011016D01*
X153263816Y-112167715D01*
X153140698Y-112351973D01*
X153055893Y-112556710D01*
X153012660Y-112774057D01*
X153012660Y-112995663D01*
X153055893Y-113213010D01*
X153110937Y-113345898D01*
X152646974Y-113809861D01*
X152463648Y-113809861D01*
X152471504Y-113802005D01*
X152594622Y-113617747D01*
X152679427Y-113413010D01*
X152722660Y-113195663D01*
X152722660Y-112974057D01*
X152679427Y-112756710D01*
X152594622Y-112551973D01*
X152471504Y-112367715D01*
X152314805Y-112211016D01*
X152130547Y-112087898D01*
X152122660Y-112084631D01*
X152122660Y-108943089D01*
X152130547Y-108939822D01*
X152314805Y-108816704D01*
X152471504Y-108660005D01*
X152594622Y-108475747D01*
X152679427Y-108271010D01*
X152722660Y-108053663D01*
X152722660Y-107832057D01*
X152679427Y-107614710D01*
X152594622Y-107409973D01*
X152471504Y-107225715D01*
X152314805Y-107069016D01*
X152130547Y-106945898D01*
X151925810Y-106861093D01*
X151708463Y-106817860D01*
X151486857Y-106817860D01*
X151269510Y-106861093D01*
X151136622Y-106916137D01*
X151044398Y-106823913D01*
X151031872Y-106808650D01*
X150970964Y-106758664D01*
X150901475Y-106721521D01*
X150826075Y-106698649D01*
X150767308Y-106692861D01*
X150767307Y-106692861D01*
X150747661Y-106690926D01*
X150728015Y-106692861D01*
X150238349Y-106692861D01*
X149894398Y-106348911D01*
X149881872Y-106333648D01*
X149820964Y-106283662D01*
X149751475Y-106246519D01*
X149676075Y-106223647D01*
X149617308Y-106217859D01*
X149617307Y-106217859D01*
X149597661Y-106215924D01*
X149578015Y-106217859D01*
X148960245Y-106217859D01*
X148341590Y-105599205D01*
X148341590Y-103765225D01*
X148343524Y-103745589D01*
X148341590Y-103725953D01*
X148341590Y-103725943D01*
X148335802Y-103667176D01*
X148312930Y-103591776D01*
X148275787Y-103522287D01*
X148225801Y-103461379D01*
X148210543Y-103448857D01*
X147389800Y-102628115D01*
X147389800Y-90634135D01*
X147391734Y-90614499D01*
X147389800Y-90594863D01*
X147389800Y-90594853D01*
X147384012Y-90536086D01*
X147361140Y-90460686D01*
X147323997Y-90391197D01*
X147293463Y-90353991D01*
X147286535Y-90345549D01*
X147286533Y-90345547D01*
X147274011Y-90330289D01*
X147258753Y-90317767D01*
X146016537Y-89075552D01*
X146004011Y-89060289D01*
X145943103Y-89010303D01*
X145873614Y-88973160D01*
X145798214Y-88950288D01*
X145739447Y-88944500D01*
X145739446Y-88944500D01*
X145719800Y-88942565D01*
X145700154Y-88944500D01*
X144909780Y-88944500D01*
X144890144Y-88942566D01*
X144870508Y-88944500D01*
X144870498Y-88944500D01*
X144811731Y-88950288D01*
X144736331Y-88973160D01*
X144666842Y-89010303D01*
X144666840Y-89010304D01*
X144666841Y-89010304D01*
X144621194Y-89047765D01*
X144621192Y-89047767D01*
X144605934Y-89060289D01*
X144593412Y-89075547D01*
X144031982Y-89636978D01*
X143966034Y-89636978D01*
X143854946Y-89659075D01*
X143750302Y-89702420D01*
X143747667Y-89704181D01*
X143747667Y-89506920D01*
X143749602Y-89487273D01*
X143741879Y-89408859D01*
X143719007Y-89333459D01*
X143681864Y-89263970D01*
X143631878Y-89203062D01*
X143616616Y-89190537D01*
X142578627Y-88152548D01*
X142578627Y-88086600D01*
X142556530Y-87975512D01*
X142513185Y-87870868D01*
X142450259Y-87776692D01*
X142370168Y-87696601D01*
X142275992Y-87633675D01*
X142171348Y-87590330D01*
X142060260Y-87568233D01*
X141946994Y-87568233D01*
X141835906Y-87590330D01*
X141731262Y-87633675D01*
X141637086Y-87696601D01*
X141556995Y-87776692D01*
X141494069Y-87870868D01*
X141450724Y-87975512D01*
X141429433Y-88082548D01*
X140847637Y-87500752D01*
X140835111Y-87485489D01*
X140774203Y-87435503D01*
X140704714Y-87398360D01*
X140629314Y-87375488D01*
X140570547Y-87369700D01*
X140570546Y-87369700D01*
X140550900Y-87367765D01*
X140531254Y-87369700D01*
X138430586Y-87369700D01*
X137882661Y-86821776D01*
X137882661Y-86626096D01*
X137884595Y-86606460D01*
X137882661Y-86586824D01*
X137882661Y-85634202D01*
X137900698Y-85677747D01*
X138023816Y-85862005D01*
X138180515Y-86018704D01*
X138364773Y-86141822D01*
X138569510Y-86226627D01*
X138786857Y-86269860D01*
X139008463Y-86269860D01*
X139225810Y-86226627D01*
X139430547Y-86141822D01*
X139614805Y-86018704D01*
X139771504Y-85862005D01*
X139894622Y-85677747D01*
X139979427Y-85473010D01*
X140022660Y-85255663D01*
X140022660Y-85034057D01*
X139979427Y-84816710D01*
X139894622Y-84611973D01*
X139771504Y-84427715D01*
X139638537Y-84294748D01*
X139713426Y-84219859D01*
X140571672Y-84219859D01*
X140563816Y-84227715D01*
X140440698Y-84411973D01*
X140355893Y-84616710D01*
X140312660Y-84834057D01*
X140312660Y-85055663D01*
X140355893Y-85273010D01*
X140440698Y-85477747D01*
X140563816Y-85662005D01*
X140720515Y-85818704D01*
X140904773Y-85941822D01*
X141109510Y-86026627D01*
X141326857Y-86069860D01*
X141548463Y-86069860D01*
X141765810Y-86026627D01*
X141970547Y-85941822D01*
X142154805Y-85818704D01*
X142311504Y-85662005D01*
X142434622Y-85477747D01*
X142519427Y-85273010D01*
X142562660Y-85055663D01*
X142562660Y-84834057D01*
X142519427Y-84616710D01*
X142434622Y-84411973D01*
X142311504Y-84227715D01*
X142303648Y-84219859D01*
X143337076Y-84219859D01*
X143260515Y-84271016D01*
X143103816Y-84427715D01*
X142980698Y-84611973D01*
X142895893Y-84816710D01*
X142852660Y-85034057D01*
X142852660Y-85255663D01*
X142895893Y-85473010D01*
X142980698Y-85677747D01*
X143103816Y-85862005D01*
X143260515Y-86018704D01*
X143444773Y-86141822D01*
X143649510Y-86226627D01*
X143866857Y-86269860D01*
X144088463Y-86269860D01*
X144305810Y-86226627D01*
X144510547Y-86141822D01*
X144694805Y-86018704D01*
X144849900Y-85863609D01*
X144849900Y-86797553D01*
X144847965Y-86817200D01*
X144849900Y-86836846D01*
X144855688Y-86895613D01*
X144878560Y-86971013D01*
X144915703Y-87040502D01*
X144965689Y-87101411D01*
X144980952Y-87113937D01*
X145055900Y-87188885D01*
X145055900Y-87254833D01*
X145077997Y-87365921D01*
X145121342Y-87470565D01*
X145184268Y-87564741D01*
X145264359Y-87644832D01*
X145327768Y-87687200D01*
X144717085Y-87687200D01*
X144618400Y-87588515D01*
X144618400Y-87522567D01*
X144596303Y-87411479D01*
X144552958Y-87306835D01*
X144490032Y-87212659D01*
X144409941Y-87132568D01*
X144315765Y-87069642D01*
X144211121Y-87026297D01*
X144100033Y-87004200D01*
X143986767Y-87004200D01*
X143875679Y-87026297D01*
X143771035Y-87069642D01*
X143676859Y-87132568D01*
X143596768Y-87212659D01*
X143533842Y-87306835D01*
X143490497Y-87411479D01*
X143468400Y-87522567D01*
X143468400Y-87635833D01*
X143490497Y-87746921D01*
X143533842Y-87851565D01*
X143596768Y-87945741D01*
X143676859Y-88025832D01*
X143771035Y-88088758D01*
X143875679Y-88132103D01*
X143986767Y-88154200D01*
X144052715Y-88154200D01*
X144254663Y-88356148D01*
X144267189Y-88371411D01*
X144328097Y-88421397D01*
X144397586Y-88458540D01*
X144472986Y-88481412D01*
X144531753Y-88487200D01*
X144531763Y-88487200D01*
X144551399Y-88489134D01*
X144571035Y-88487200D01*
X145649354Y-88487200D01*
X145669000Y-88489135D01*
X145688646Y-88487200D01*
X145688647Y-88487200D01*
X145747414Y-88481412D01*
X145822814Y-88458540D01*
X145892303Y-88421397D01*
X145953211Y-88371411D01*
X145965737Y-88356148D01*
X146509453Y-87812433D01*
X146524711Y-87799911D01*
X146543767Y-87776692D01*
X146574697Y-87739003D01*
X146591398Y-87707758D01*
X146611840Y-87669514D01*
X146634712Y-87594114D01*
X146640500Y-87535347D01*
X146640500Y-87535345D01*
X146642435Y-87515701D01*
X146640500Y-87496057D01*
X146640500Y-86067466D01*
X146845810Y-86026627D01*
X147050547Y-85941822D01*
X147234805Y-85818704D01*
X147391504Y-85662005D01*
X147514622Y-85477747D01*
X147599427Y-85273010D01*
X147642660Y-85055663D01*
X147642660Y-85034057D01*
X147932660Y-85034057D01*
X147932660Y-85255663D01*
X147975893Y-85473010D01*
X148060698Y-85677747D01*
X148183816Y-85862005D01*
X148340515Y-86018704D01*
X148524773Y-86141822D01*
X148729510Y-86226627D01*
X148946857Y-86269860D01*
X149168463Y-86269860D01*
X149385810Y-86226627D01*
X149590547Y-86141822D01*
X149774805Y-86018704D01*
X149931504Y-85862005D01*
X150054622Y-85677747D01*
X150139427Y-85473010D01*
X150182660Y-85255663D01*
X150182660Y-85034057D01*
X150142878Y-84834057D01*
X150472660Y-84834057D01*
X150472660Y-85055663D01*
X150515893Y-85273010D01*
X150600698Y-85477747D01*
X150723816Y-85662005D01*
X150880515Y-85818704D01*
X151064773Y-85941822D01*
X151269510Y-86026627D01*
X151486857Y-86069860D01*
X151708463Y-86069860D01*
X151925810Y-86026627D01*
X152130547Y-85941822D01*
X152314805Y-85818704D01*
X152471504Y-85662005D01*
X152594622Y-85477747D01*
X152679427Y-85273010D01*
X152722660Y-85055663D01*
X152722660Y-85034057D01*
X153012660Y-85034057D01*
X153012660Y-85255663D01*
X153055893Y-85473010D01*
X153140698Y-85677747D01*
X153263816Y-85862005D01*
X153420515Y-86018704D01*
X153604773Y-86141822D01*
X153809510Y-86226627D01*
X154026857Y-86269860D01*
X154248463Y-86269860D01*
X154465810Y-86226627D01*
X154670547Y-86141822D01*
X154854805Y-86018704D01*
X155011504Y-85862005D01*
X155134622Y-85677747D01*
X155219427Y-85473010D01*
X155262660Y-85255663D01*
X155262660Y-85034057D01*
X155222878Y-84834057D01*
X155552660Y-84834057D01*
X155552660Y-85055663D01*
X155595893Y-85273010D01*
X155680698Y-85477747D01*
X155803816Y-85662005D01*
X155960515Y-85818704D01*
X156144773Y-85941822D01*
X156349510Y-86026627D01*
X156566857Y-86069860D01*
X156788463Y-86069860D01*
X157005810Y-86026627D01*
X157210547Y-85941822D01*
X157394805Y-85818704D01*
X157551504Y-85662005D01*
X157674622Y-85477747D01*
X157759427Y-85273010D01*
X157802660Y-85055663D01*
X157802660Y-85034057D01*
X158092660Y-85034057D01*
X158092660Y-85255663D01*
X158135893Y-85473010D01*
X158220698Y-85677747D01*
X158343816Y-85862005D01*
X158500515Y-86018704D01*
X158684773Y-86141822D01*
X158889510Y-86226627D01*
X159106857Y-86269860D01*
X159328463Y-86269860D01*
X159545810Y-86226627D01*
X159750547Y-86141822D01*
X159934805Y-86018704D01*
X160091504Y-85862005D01*
X160127505Y-85808125D01*
X161076829Y-85808125D01*
X161172188Y-85970161D01*
X161383465Y-86064680D01*
X161609121Y-86116164D01*
X161840486Y-86122636D01*
X162068667Y-86083846D01*
X162284896Y-86001287D01*
X162343132Y-85970161D01*
X162438491Y-85808125D01*
X161757660Y-85127294D01*
X161076829Y-85808125D01*
X160127505Y-85808125D01*
X160214622Y-85677747D01*
X160299427Y-85473010D01*
X160342660Y-85255663D01*
X160342660Y-85034057D01*
X160341393Y-85027686D01*
X160579884Y-85027686D01*
X160618674Y-85255867D01*
X160701233Y-85472096D01*
X160732359Y-85530332D01*
X160894395Y-85625691D01*
X161575226Y-84944860D01*
X160894395Y-84264029D01*
X160732359Y-84359388D01*
X160637840Y-84570665D01*
X160586356Y-84796321D01*
X160579884Y-85027686D01*
X160341393Y-85027686D01*
X160299427Y-84816710D01*
X160214622Y-84611973D01*
X160091504Y-84427715D01*
X159934805Y-84271016D01*
X159750547Y-84147898D01*
X159590478Y-84081595D01*
X161076829Y-84081595D01*
X161757660Y-84762426D01*
X162438491Y-84081595D01*
X162343132Y-83919559D01*
X162131855Y-83825040D01*
X161906199Y-83773556D01*
X161674834Y-83767084D01*
X161446653Y-83805874D01*
X161230424Y-83888433D01*
X161172188Y-83919559D01*
X161076829Y-84081595D01*
X159590478Y-84081595D01*
X159545810Y-84063093D01*
X159328463Y-84019860D01*
X159106857Y-84019860D01*
X158889510Y-84063093D01*
X158684773Y-84147898D01*
X158500515Y-84271016D01*
X158343816Y-84427715D01*
X158220698Y-84611973D01*
X158135893Y-84816710D01*
X158092660Y-85034057D01*
X157802660Y-85034057D01*
X157802660Y-84834057D01*
X157759427Y-84616710D01*
X157674622Y-84411973D01*
X157551504Y-84227715D01*
X157394805Y-84071016D01*
X157210547Y-83947898D01*
X157005810Y-83863093D01*
X156788463Y-83819860D01*
X156566857Y-83819860D01*
X156349510Y-83863093D01*
X156144773Y-83947898D01*
X155960515Y-84071016D01*
X155803816Y-84227715D01*
X155680698Y-84411973D01*
X155595893Y-84616710D01*
X155552660Y-84834057D01*
X155222878Y-84834057D01*
X155219427Y-84816710D01*
X155134622Y-84611973D01*
X155011504Y-84427715D01*
X154854805Y-84271016D01*
X154670547Y-84147898D01*
X154465810Y-84063093D01*
X154248463Y-84019860D01*
X154026857Y-84019860D01*
X153809510Y-84063093D01*
X153604773Y-84147898D01*
X153420515Y-84271016D01*
X153263816Y-84427715D01*
X153140698Y-84611973D01*
X153055893Y-84816710D01*
X153012660Y-85034057D01*
X152722660Y-85034057D01*
X152722660Y-84834057D01*
X152679427Y-84616710D01*
X152594622Y-84411973D01*
X152471504Y-84227715D01*
X152314805Y-84071016D01*
X152130547Y-83947898D01*
X151925810Y-83863093D01*
X151708463Y-83819860D01*
X151486857Y-83819860D01*
X151269510Y-83863093D01*
X151064773Y-83947898D01*
X150880515Y-84071016D01*
X150723816Y-84227715D01*
X150600698Y-84411973D01*
X150515893Y-84616710D01*
X150472660Y-84834057D01*
X150142878Y-84834057D01*
X150139427Y-84816710D01*
X150054622Y-84611973D01*
X149931504Y-84427715D01*
X149774805Y-84271016D01*
X149590547Y-84147898D01*
X149385810Y-84063093D01*
X149168463Y-84019860D01*
X148946857Y-84019860D01*
X148729510Y-84063093D01*
X148524773Y-84147898D01*
X148340515Y-84271016D01*
X148183816Y-84427715D01*
X148060698Y-84611973D01*
X147975893Y-84816710D01*
X147932660Y-85034057D01*
X147642660Y-85034057D01*
X147642660Y-84834057D01*
X147599427Y-84616710D01*
X147514622Y-84411973D01*
X147391504Y-84227715D01*
X147234805Y-84071016D01*
X147050547Y-83947898D01*
X146845810Y-83863093D01*
X146628463Y-83819860D01*
X146406857Y-83819860D01*
X146189510Y-83863093D01*
X145984773Y-83947898D01*
X145800515Y-84071016D01*
X145643816Y-84227715D01*
X145623559Y-84258031D01*
X145621240Y-84250386D01*
X145584097Y-84180897D01*
X145562069Y-84154056D01*
X145546635Y-84135249D01*
X145546633Y-84135247D01*
X145534111Y-84119989D01*
X145518853Y-84107467D01*
X145061595Y-83650210D01*
X162281725Y-83650210D01*
X162831391Y-84199877D01*
%TA.AperFunction,Conductor*%
D24*
G36*
X162831391Y-84199877D02*
G01*
X162831391Y-84462944D01*
X162814087Y-84417624D01*
X162782961Y-84359388D01*
X162620925Y-84264029D01*
X161940094Y-84944860D01*
X162620925Y-85625691D01*
X162782961Y-85530332D01*
X162831391Y-85422078D01*
X162831390Y-87720024D01*
X162038715Y-88512700D01*
X161301047Y-88512700D01*
X161281400Y-88510765D01*
X161261753Y-88512700D01*
X161202986Y-88518488D01*
X161127586Y-88541360D01*
X161058097Y-88578503D01*
X160997189Y-88628489D01*
X160984665Y-88643750D01*
X159885938Y-89742477D01*
X159870680Y-89754999D01*
X159858158Y-89770257D01*
X159858155Y-89770260D01*
X159820693Y-89815908D01*
X159783551Y-89885396D01*
X159760678Y-89960797D01*
X159752955Y-90039210D01*
X159754891Y-90058866D01*
X159754891Y-91566155D01*
X159744597Y-91546897D01*
X159694611Y-91485989D01*
X159679348Y-91473463D01*
X158754637Y-90548752D01*
X158742111Y-90533489D01*
X158681203Y-90483503D01*
X158611714Y-90446360D01*
X158536314Y-90423488D01*
X158477547Y-90417700D01*
X158477546Y-90417700D01*
X158457900Y-90415765D01*
X158438254Y-90417700D01*
X156272031Y-90417700D01*
X156252395Y-90415766D01*
X156232759Y-90417700D01*
X156232749Y-90417700D01*
X156173982Y-90423488D01*
X156098582Y-90446360D01*
X156029093Y-90483503D01*
X156028015Y-90484388D01*
X155983445Y-90520965D01*
X155983443Y-90520967D01*
X155968185Y-90533489D01*
X155955663Y-90548747D01*
X147766208Y-98738203D01*
X147750945Y-98750729D01*
X147700959Y-98811638D01*
X147663816Y-98881127D01*
X147643306Y-98948740D01*
X147640944Y-98956527D01*
X147633221Y-99034940D01*
X147635156Y-99054587D01*
X147635157Y-99512082D01*
X147635156Y-99512091D01*
X147635156Y-99684249D01*
X147588524Y-99730881D01*
X147525598Y-99825057D01*
X147482253Y-99929701D01*
X147460156Y-100040789D01*
X147460156Y-100154055D01*
X147482253Y-100265143D01*
X147525598Y-100369787D01*
X147588524Y-100463963D01*
X147668615Y-100544054D01*
X147762791Y-100606980D01*
X147867435Y-100650325D01*
X147978523Y-100672422D01*
X148091789Y-100672422D01*
X148202877Y-100650325D01*
X148307521Y-100606980D01*
X148401697Y-100544054D01*
X148481788Y-100463963D01*
X148544714Y-100369787D01*
X148588059Y-100265143D01*
X148610156Y-100154055D01*
X148610156Y-100040789D01*
X148588059Y-99929701D01*
X148544714Y-99825057D01*
X148481788Y-99730881D01*
X148435156Y-99684249D01*
X148435156Y-99200625D01*
X151426389Y-96209392D01*
X151440697Y-96281321D01*
X151484042Y-96385965D01*
X151546968Y-96480141D01*
X151627059Y-96560232D01*
X151721235Y-96623158D01*
X151825879Y-96666503D01*
X151830899Y-96667502D01*
X151822835Y-96670842D01*
X151728659Y-96733768D01*
X151648568Y-96813859D01*
X151585642Y-96908035D01*
X151542297Y-97012679D01*
X151520200Y-97123767D01*
X151520200Y-97237033D01*
X151542297Y-97348121D01*
X151585642Y-97452765D01*
X151648568Y-97546941D01*
X151728659Y-97627032D01*
X151822835Y-97689958D01*
X151843529Y-97698530D01*
X151804859Y-97724368D01*
X151724768Y-97804459D01*
X151661842Y-97898635D01*
X151618497Y-98003279D01*
X151596400Y-98114367D01*
X151596400Y-98227633D01*
X151618497Y-98338721D01*
X151661842Y-98443365D01*
X151724768Y-98537541D01*
X151804859Y-98617632D01*
X151899035Y-98680558D01*
X152003679Y-98723903D01*
X152114767Y-98746000D01*
X152180715Y-98746000D01*
X152281063Y-98846348D01*
X152293589Y-98861611D01*
X152354497Y-98911597D01*
X152423986Y-98948740D01*
X152499386Y-98971612D01*
X152558153Y-98977400D01*
X152558163Y-98977400D01*
X152577799Y-98979334D01*
X152597435Y-98977400D01*
X153114974Y-98977400D01*
X153004047Y-98999465D01*
X152899403Y-99042810D01*
X152805227Y-99105736D01*
X152725136Y-99185827D01*
X152662210Y-99280003D01*
X152618865Y-99384647D01*
X152596768Y-99495735D01*
X152596768Y-99609001D01*
X152618865Y-99720089D01*
X152662210Y-99824733D01*
X152714732Y-99903339D01*
X149078066Y-103540006D01*
X149063752Y-103551753D01*
X149016891Y-103608855D01*
X148982069Y-103674002D01*
X148960626Y-103744689D01*
X148955646Y-103795252D01*
X148953386Y-103818201D01*
X148955200Y-103836617D01*
X148955201Y-104533853D01*
X148862479Y-104552297D01*
X148757835Y-104595642D01*
X148663659Y-104658568D01*
X148583568Y-104738659D01*
X148520642Y-104832835D01*
X148477297Y-104937479D01*
X148455200Y-105048567D01*
X148455200Y-105161833D01*
X148477297Y-105272921D01*
X148520642Y-105377565D01*
X148583568Y-105471741D01*
X148663659Y-105551832D01*
X148757835Y-105614758D01*
X148862479Y-105658103D01*
X148973567Y-105680200D01*
X149086833Y-105680200D01*
X149197921Y-105658103D01*
X149302565Y-105614758D01*
X149396741Y-105551832D01*
X149476832Y-105471741D01*
X149539758Y-105377565D01*
X149555200Y-105340285D01*
X149570642Y-105377565D01*
X149633568Y-105471741D01*
X149713659Y-105551832D01*
X149807835Y-105614758D01*
X149912479Y-105658103D01*
X150023567Y-105680200D01*
X150136833Y-105680200D01*
X150247921Y-105658103D01*
X150352565Y-105614758D01*
X150446741Y-105551832D01*
X150526832Y-105471741D01*
X150589758Y-105377565D01*
X150633103Y-105272921D01*
X150655200Y-105161833D01*
X150655200Y-105048567D01*
X150633103Y-104937479D01*
X150589758Y-104832835D01*
X150526832Y-104738659D01*
X150446741Y-104658568D01*
X150352565Y-104595642D01*
X150247921Y-104552297D01*
X150155200Y-104533853D01*
X150155200Y-104159928D01*
X153563261Y-100751868D01*
X153641867Y-100804390D01*
X153746511Y-100847735D01*
X153857599Y-100869832D01*
X153970865Y-100869832D01*
X154054274Y-100853241D01*
X153925612Y-100981903D01*
X153837721Y-100945497D01*
X153726633Y-100923400D01*
X153613367Y-100923400D01*
X153502279Y-100945497D01*
X153397635Y-100988842D01*
X153303459Y-101051768D01*
X153223368Y-101131859D01*
X153160442Y-101226035D01*
X153117097Y-101330679D01*
X153095000Y-101441767D01*
X153095000Y-101555033D01*
X153117097Y-101666121D01*
X153160442Y-101770765D01*
X153223368Y-101864941D01*
X153303459Y-101945032D01*
X153397635Y-102007958D01*
X153502279Y-102051303D01*
X153613367Y-102073400D01*
X153726633Y-102073400D01*
X153837721Y-102051303D01*
X153942365Y-102007958D01*
X154036541Y-101945032D01*
X154104526Y-101877047D01*
X154128614Y-101869740D01*
X154198103Y-101832597D01*
X154259011Y-101782611D01*
X154271537Y-101767348D01*
X154954948Y-101083937D01*
X154970211Y-101071411D01*
X155020197Y-101010503D01*
X155057340Y-100941014D01*
X155080212Y-100865614D01*
X155086000Y-100806847D01*
X155087935Y-100787200D01*
X155086000Y-100767553D01*
X155086000Y-100121035D01*
X155086246Y-100118537D01*
X155153279Y-100146303D01*
X155264367Y-100168400D01*
X155377633Y-100168400D01*
X155488721Y-100146303D01*
X155593365Y-100102958D01*
X155687541Y-100040032D01*
X155767632Y-99959941D01*
X155773888Y-99950578D01*
X155773889Y-104298613D01*
X155745985Y-104365979D01*
X155723888Y-104477067D01*
X155723888Y-104590333D01*
X155745985Y-104701421D01*
X155789330Y-104806065D01*
X155852256Y-104900241D01*
X155932347Y-104980332D01*
X156026523Y-105043258D01*
X156131167Y-105086603D01*
X156242255Y-105108700D01*
X156355521Y-105108700D01*
X156466609Y-105086603D01*
X156571253Y-105043258D01*
X156665429Y-104980332D01*
X156745520Y-104900241D01*
X156808446Y-104806065D01*
X156851791Y-104701421D01*
X156873888Y-104590333D01*
X156873888Y-104477067D01*
X156851791Y-104365979D01*
X156823888Y-104298615D01*
X156823888Y-103065886D01*
X156847943Y-103081959D01*
X156952587Y-103125304D01*
X157063675Y-103147401D01*
X157129623Y-103147401D01*
X157197370Y-103215148D01*
X157209896Y-103230411D01*
X157225157Y-103242935D01*
X157270804Y-103280397D01*
X157340293Y-103317540D01*
X157415693Y-103340412D01*
X157494107Y-103348135D01*
X157513754Y-103346200D01*
X160279754Y-103346200D01*
X160299400Y-103348135D01*
X160319046Y-103346200D01*
X160319047Y-103346200D01*
X160377814Y-103340412D01*
X160453214Y-103317540D01*
X160522703Y-103280397D01*
X160583611Y-103230411D01*
X160596137Y-103215148D01*
X161203349Y-102607936D01*
X161218611Y-102595411D01*
X161268597Y-102534503D01*
X161305740Y-102465014D01*
X161328612Y-102389614D01*
X161334400Y-102330847D01*
X161334400Y-102330846D01*
X161336335Y-102311200D01*
X161334400Y-102291553D01*
X161334400Y-100501873D01*
X161381032Y-100455241D01*
X161443958Y-100361065D01*
X161487303Y-100256421D01*
X161509400Y-100145333D01*
X161509400Y-100032067D01*
X161487303Y-99920979D01*
X161443958Y-99816335D01*
X161381032Y-99722159D01*
X161300941Y-99642068D01*
X161216399Y-99585579D01*
X161216399Y-99228620D01*
X161329564Y-99304234D01*
X161507003Y-99377732D01*
X161695371Y-99415200D01*
X161887429Y-99415200D01*
X162075797Y-99377732D01*
X162253236Y-99304234D01*
X162412927Y-99197532D01*
X162548732Y-99061727D01*
X162655434Y-98902036D01*
X162728932Y-98724597D01*
X162766400Y-98536229D01*
X162766400Y-98344171D01*
X162728932Y-98155803D01*
X162655434Y-97978364D01*
X162548732Y-97818673D01*
X162412927Y-97682868D01*
X162253236Y-97576166D01*
X162075797Y-97502668D01*
X161887429Y-97465200D01*
X161695371Y-97465200D01*
X161507003Y-97502668D01*
X161329564Y-97576166D01*
X161216399Y-97651780D01*
X161216399Y-96811201D01*
X161227012Y-96776214D01*
X161232800Y-96717447D01*
X161232800Y-96717446D01*
X161234735Y-96697800D01*
X161232800Y-96678153D01*
X161232800Y-94164747D01*
X161234735Y-94145100D01*
X161227012Y-94066686D01*
X161209077Y-94007562D01*
X161767660Y-94566145D01*
X161767660Y-94632093D01*
X161789757Y-94743181D01*
X161833102Y-94847825D01*
X161896028Y-94942001D01*
X161976119Y-95022092D01*
X162070295Y-95085018D01*
X162174939Y-95128363D01*
X162286027Y-95150460D01*
X162399293Y-95150460D01*
X162510381Y-95128363D01*
X162615025Y-95085018D01*
X162709201Y-95022092D01*
X162789292Y-94942001D01*
X162852218Y-94847825D01*
X162895563Y-94743181D01*
X162917660Y-94632093D01*
X162917660Y-94518827D01*
X162895563Y-94407739D01*
X162852218Y-94303095D01*
X162789292Y-94208919D01*
X162709201Y-94128828D01*
X162615025Y-94065902D01*
X162510381Y-94022557D01*
X162399293Y-94000460D01*
X162333345Y-94000460D01*
X160954900Y-92622015D01*
X160954900Y-91765671D01*
X161025059Y-91835830D01*
X161119235Y-91898756D01*
X161223879Y-91942101D01*
X161334967Y-91964198D01*
X161448233Y-91964198D01*
X161559321Y-91942101D01*
X161663965Y-91898756D01*
X161758141Y-91835830D01*
X161838232Y-91755739D01*
X161841265Y-91751200D01*
X161869266Y-91751200D01*
X161871756Y-91759409D01*
X161896427Y-91805566D01*
X161900403Y-91818672D01*
X161937545Y-91888160D01*
X161987532Y-91949068D01*
X162048440Y-91999055D01*
X162117928Y-92036197D01*
X162193329Y-92059070D01*
X162271742Y-92066793D01*
X162309396Y-92063084D01*
X162329150Y-92065030D01*
X162841650Y-92065030D01*
X162938235Y-92055517D01*
X162975000Y-92044364D01*
X162975000Y-109260888D01*
X162899552Y-109210475D01*
X162731213Y-109140747D01*
X162552505Y-109105200D01*
X162370295Y-109105200D01*
X162191587Y-109140747D01*
X162023248Y-109210475D01*
X161871747Y-109311705D01*
X161742905Y-109440547D01*
X161641675Y-109592048D01*
X161571947Y-109760387D01*
X161536400Y-109939095D01*
X161536400Y-110121305D01*
X161571947Y-110300013D01*
X161641675Y-110468352D01*
X161742905Y-110619853D01*
X161871747Y-110748695D01*
X162023248Y-110849925D01*
X162191587Y-110919653D01*
X162370295Y-110955200D01*
X162552505Y-110955200D01*
X162731213Y-110919653D01*
X162899552Y-110849925D01*
X162975000Y-110799512D01*
X162975000Y-114375400D01*
X155930226Y-114397979D01*
X156216622Y-114111583D01*
X156349510Y-114166627D01*
X156566857Y-114209860D01*
X156788463Y-114209860D01*
X157005810Y-114166627D01*
X157210547Y-114081822D01*
X157394805Y-113958704D01*
X157551504Y-113802005D01*
X157674622Y-113617747D01*
X157759427Y-113413010D01*
X157802660Y-113195663D01*
X157802660Y-112974057D01*
X157759427Y-112756710D01*
X157674622Y-112551973D01*
X157551504Y-112367715D01*
X157394805Y-112211016D01*
X157210547Y-112087898D01*
X157202660Y-112084631D01*
X157202660Y-108943089D01*
X157210547Y-108939822D01*
X157394805Y-108816704D01*
X157551504Y-108660005D01*
X157674622Y-108475747D01*
X157759427Y-108271010D01*
X157802660Y-108053663D01*
X157802660Y-107832057D01*
X157762878Y-107632057D01*
X158092660Y-107632057D01*
X158092660Y-107853663D01*
X158135893Y-108071010D01*
X158220698Y-108275747D01*
X158343816Y-108460005D01*
X158500515Y-108616704D01*
X158684773Y-108739822D01*
X158692660Y-108743089D01*
X158692661Y-111884631D01*
X158684773Y-111887898D01*
X158500515Y-112011016D01*
X158343816Y-112167715D01*
X158220698Y-112351973D01*
X158135893Y-112556710D01*
X158092660Y-112774057D01*
X158092660Y-112995663D01*
X158135893Y-113213010D01*
X158220698Y-113417747D01*
X158343816Y-113602005D01*
X158500515Y-113758704D01*
X158684773Y-113881822D01*
X158889510Y-113966627D01*
X159106857Y-114009860D01*
X159328463Y-114009860D01*
X159545810Y-113966627D01*
X159590477Y-113948125D01*
X161076829Y-113948125D01*
X161172188Y-114110161D01*
X161383465Y-114204680D01*
X161609121Y-114256164D01*
X161840486Y-114262636D01*
X162068667Y-114223846D01*
X162284896Y-114141287D01*
X162343132Y-114110161D01*
X162438491Y-113948125D01*
X161757660Y-113267294D01*
X161076829Y-113948125D01*
X159590477Y-113948125D01*
X159750547Y-113881822D01*
X159934805Y-113758704D01*
X160091504Y-113602005D01*
X160214622Y-113417747D01*
X160299427Y-113213010D01*
X160308442Y-113167686D01*
X160579884Y-113167686D01*
X160618674Y-113395867D01*
X160701233Y-113612096D01*
X160732359Y-113670332D01*
X160894395Y-113765691D01*
X161575226Y-113084860D01*
X161940094Y-113084860D01*
X162620925Y-113765691D01*
X162782961Y-113670332D01*
X162877480Y-113459055D01*
X162928964Y-113233399D01*
X162935436Y-113002034D01*
X162896646Y-112773853D01*
X162814087Y-112557624D01*
X162782961Y-112499388D01*
X162620925Y-112404029D01*
X161940094Y-113084860D01*
X161575226Y-113084860D01*
X160894395Y-112404029D01*
X160732359Y-112499388D01*
X160637840Y-112710665D01*
X160586356Y-112936321D01*
X160579884Y-113167686D01*
X160308442Y-113167686D01*
X160342660Y-112995663D01*
X160342660Y-112774057D01*
X160299427Y-112556710D01*
X160214622Y-112351973D01*
X160127506Y-112221595D01*
X161076829Y-112221595D01*
X161757660Y-112902426D01*
X162438491Y-112221595D01*
X162343132Y-112059559D01*
X162131855Y-111965040D01*
X161906199Y-111913556D01*
X161674834Y-111907084D01*
X161446653Y-111945874D01*
X161230424Y-112028433D01*
X161172188Y-112059559D01*
X161076829Y-112221595D01*
X160127506Y-112221595D01*
X160091504Y-112167715D01*
X159934805Y-112011016D01*
X159750547Y-111887898D01*
X159742660Y-111884631D01*
X159742660Y-108806125D01*
X161076829Y-108806125D01*
X161172188Y-108968161D01*
X161383465Y-109062680D01*
X161609121Y-109114164D01*
X161840486Y-109120636D01*
X162068667Y-109081846D01*
X162284896Y-108999287D01*
X162343132Y-108968161D01*
X162438491Y-108806125D01*
X161757660Y-108125294D01*
X161076829Y-108806125D01*
X159742660Y-108806125D01*
X159742660Y-108743089D01*
X159750547Y-108739822D01*
X159934805Y-108616704D01*
X160091504Y-108460005D01*
X160214622Y-108275747D01*
X160299427Y-108071010D01*
X160308442Y-108025686D01*
X160579884Y-108025686D01*
X160618674Y-108253867D01*
X160701233Y-108470096D01*
X160732359Y-108528332D01*
X160894395Y-108623691D01*
X161575226Y-107942860D01*
X161940094Y-107942860D01*
X162620925Y-108623691D01*
X162782961Y-108528332D01*
X162877480Y-108317055D01*
X162928964Y-108091399D01*
X162935436Y-107860034D01*
X162896646Y-107631853D01*
X162814087Y-107415624D01*
X162782961Y-107357388D01*
X162620925Y-107262029D01*
X161940094Y-107942860D01*
X161575226Y-107942860D01*
X160894395Y-107262029D01*
X160732359Y-107357388D01*
X160637840Y-107568665D01*
X160586356Y-107794321D01*
X160579884Y-108025686D01*
X160308442Y-108025686D01*
X160342660Y-107853663D01*
X160342660Y-107632057D01*
X160299427Y-107414710D01*
X160214622Y-107209973D01*
X160127506Y-107079595D01*
X161076829Y-107079595D01*
X161757660Y-107760426D01*
X162438491Y-107079595D01*
X162343132Y-106917559D01*
X162131855Y-106823040D01*
X161906199Y-106771556D01*
X161674834Y-106765084D01*
X161446653Y-106803874D01*
X161230424Y-106886433D01*
X161172188Y-106917559D01*
X161076829Y-107079595D01*
X160127506Y-107079595D01*
X160091504Y-107025715D01*
X159934805Y-106869016D01*
X159750547Y-106745898D01*
X159545810Y-106661093D01*
X159328463Y-106617860D01*
X159106857Y-106617860D01*
X158889510Y-106661093D01*
X158684773Y-106745898D01*
X158500515Y-106869016D01*
X158343816Y-107025715D01*
X158220698Y-107209973D01*
X158135893Y-107414710D01*
X158092660Y-107632057D01*
X157762878Y-107632057D01*
X157759427Y-107614710D01*
X157674622Y-107409973D01*
X157551504Y-107225715D01*
X157394805Y-107069016D01*
X157210547Y-106945898D01*
X157005810Y-106861093D01*
X156788463Y-106817860D01*
X156566857Y-106817860D01*
X156349510Y-106861093D01*
X156144773Y-106945898D01*
X155960515Y-107069016D01*
X155803816Y-107225715D01*
X155680698Y-107409973D01*
X155595893Y-107614710D01*
X155552660Y-107832057D01*
X155552660Y-108053663D01*
X155595893Y-108271010D01*
X155680698Y-108475747D01*
X155803816Y-108660005D01*
X155960515Y-108816704D01*
X156144773Y-108939822D01*
X156152660Y-108943089D01*
X156152661Y-112084631D01*
X156144773Y-112087898D01*
X155960515Y-112211016D01*
X155803816Y-112367715D01*
X155680698Y-112551973D01*
X155595893Y-112756710D01*
X155552660Y-112974057D01*
X155552660Y-113195663D01*
X155595893Y-113413010D01*
X155650937Y-113545898D01*
X154946645Y-114250190D01*
X153338015Y-114250190D01*
X153676622Y-113911583D01*
X153809510Y-113966627D01*
X154026857Y-114009860D01*
X154248463Y-114009860D01*
X154465810Y-113966627D01*
X154670547Y-113881822D01*
X154854805Y-113758704D01*
X155011504Y-113602005D01*
X155134622Y-113417747D01*
X155219427Y-113213010D01*
X155262660Y-112995663D01*
X155262660Y-112774057D01*
X155219427Y-112556710D01*
X155134622Y-112351973D01*
X155011504Y-112167715D01*
X154854805Y-112011016D01*
X154670547Y-111887898D01*
X154662660Y-111884631D01*
X154662660Y-108743089D01*
X154670547Y-108739822D01*
X154854805Y-108616704D01*
X155011504Y-108460005D01*
X155134622Y-108275747D01*
X155219427Y-108071010D01*
X155262660Y-107853663D01*
X155262660Y-107632057D01*
X155219427Y-107414710D01*
X155134622Y-107209973D01*
X155011504Y-107025715D01*
X154854805Y-106869016D01*
X154670547Y-106745898D01*
X154465810Y-106661093D01*
X154248463Y-106617860D01*
X154026857Y-106617860D01*
X153809510Y-106661093D01*
X153604773Y-106745898D01*
X153420515Y-106869016D01*
X153263816Y-107025715D01*
X153140698Y-107209973D01*
X153055893Y-107414710D01*
X153012660Y-107632057D01*
X153012660Y-107853663D01*
X153055893Y-108071010D01*
X153140698Y-108275747D01*
X153263816Y-108460005D01*
X153420515Y-108616704D01*
X153604773Y-108739822D01*
X153612660Y-108743089D01*
X153612661Y-111884631D01*
X153604773Y-111887898D01*
X153420515Y-112011016D01*
X153263816Y-112167715D01*
X153140698Y-112351973D01*
X153055893Y-112556710D01*
X153012660Y-112774057D01*
X153012660Y-112995663D01*
X153055893Y-113213010D01*
X153110937Y-113345898D01*
X152646974Y-113809861D01*
X152463648Y-113809861D01*
X152471504Y-113802005D01*
X152594622Y-113617747D01*
X152679427Y-113413010D01*
X152722660Y-113195663D01*
X152722660Y-112974057D01*
X152679427Y-112756710D01*
X152594622Y-112551973D01*
X152471504Y-112367715D01*
X152314805Y-112211016D01*
X152130547Y-112087898D01*
X152122660Y-112084631D01*
X152122660Y-108943089D01*
X152130547Y-108939822D01*
X152314805Y-108816704D01*
X152471504Y-108660005D01*
X152594622Y-108475747D01*
X152679427Y-108271010D01*
X152722660Y-108053663D01*
X152722660Y-107832057D01*
X152679427Y-107614710D01*
X152594622Y-107409973D01*
X152471504Y-107225715D01*
X152314805Y-107069016D01*
X152130547Y-106945898D01*
X151925810Y-106861093D01*
X151708463Y-106817860D01*
X151486857Y-106817860D01*
X151269510Y-106861093D01*
X151136622Y-106916137D01*
X151044398Y-106823913D01*
X151031872Y-106808650D01*
X150970964Y-106758664D01*
X150901475Y-106721521D01*
X150826075Y-106698649D01*
X150767308Y-106692861D01*
X150767307Y-106692861D01*
X150747661Y-106690926D01*
X150728015Y-106692861D01*
X150238349Y-106692861D01*
X149894398Y-106348911D01*
X149881872Y-106333648D01*
X149820964Y-106283662D01*
X149751475Y-106246519D01*
X149676075Y-106223647D01*
X149617308Y-106217859D01*
X149617307Y-106217859D01*
X149597661Y-106215924D01*
X149578015Y-106217859D01*
X148960245Y-106217859D01*
X148341590Y-105599205D01*
X148341590Y-103765225D01*
X148343524Y-103745589D01*
X148341590Y-103725953D01*
X148341590Y-103725943D01*
X148335802Y-103667176D01*
X148312930Y-103591776D01*
X148275787Y-103522287D01*
X148225801Y-103461379D01*
X148210543Y-103448857D01*
X147389800Y-102628115D01*
X147389800Y-90634135D01*
X147391734Y-90614499D01*
X147389800Y-90594863D01*
X147389800Y-90594853D01*
X147384012Y-90536086D01*
X147361140Y-90460686D01*
X147323997Y-90391197D01*
X147293463Y-90353991D01*
X147286535Y-90345549D01*
X147286533Y-90345547D01*
X147274011Y-90330289D01*
X147258753Y-90317767D01*
X146016537Y-89075552D01*
X146004011Y-89060289D01*
X145943103Y-89010303D01*
X145873614Y-88973160D01*
X145798214Y-88950288D01*
X145739447Y-88944500D01*
X145739446Y-88944500D01*
X145719800Y-88942565D01*
X145700154Y-88944500D01*
X144909780Y-88944500D01*
X144890144Y-88942566D01*
X144870508Y-88944500D01*
X144870498Y-88944500D01*
X144811731Y-88950288D01*
X144736331Y-88973160D01*
X144666842Y-89010303D01*
X144666840Y-89010304D01*
X144666841Y-89010304D01*
X144621194Y-89047765D01*
X144621192Y-89047767D01*
X144605934Y-89060289D01*
X144593412Y-89075547D01*
X144031982Y-89636978D01*
X143966034Y-89636978D01*
X143854946Y-89659075D01*
X143750302Y-89702420D01*
X143747667Y-89704181D01*
X143747667Y-89506920D01*
X143749602Y-89487273D01*
X143741879Y-89408859D01*
X143719007Y-89333459D01*
X143681864Y-89263970D01*
X143631878Y-89203062D01*
X143616616Y-89190537D01*
X142578627Y-88152548D01*
X142578627Y-88086600D01*
X142556530Y-87975512D01*
X142513185Y-87870868D01*
X142450259Y-87776692D01*
X142370168Y-87696601D01*
X142275992Y-87633675D01*
X142171348Y-87590330D01*
X142060260Y-87568233D01*
X141946994Y-87568233D01*
X141835906Y-87590330D01*
X141731262Y-87633675D01*
X141637086Y-87696601D01*
X141556995Y-87776692D01*
X141494069Y-87870868D01*
X141450724Y-87975512D01*
X141429433Y-88082548D01*
X140847637Y-87500752D01*
X140835111Y-87485489D01*
X140774203Y-87435503D01*
X140704714Y-87398360D01*
X140629314Y-87375488D01*
X140570547Y-87369700D01*
X140570546Y-87369700D01*
X140550900Y-87367765D01*
X140531254Y-87369700D01*
X138430586Y-87369700D01*
X137882661Y-86821776D01*
X137882661Y-86626096D01*
X137884595Y-86606460D01*
X137882661Y-86586824D01*
X137882661Y-85634202D01*
X137900698Y-85677747D01*
X138023816Y-85862005D01*
X138180515Y-86018704D01*
X138364773Y-86141822D01*
X138569510Y-86226627D01*
X138786857Y-86269860D01*
X139008463Y-86269860D01*
X139225810Y-86226627D01*
X139430547Y-86141822D01*
X139614805Y-86018704D01*
X139771504Y-85862005D01*
X139894622Y-85677747D01*
X139979427Y-85473010D01*
X140022660Y-85255663D01*
X140022660Y-85034057D01*
X139979427Y-84816710D01*
X139894622Y-84611973D01*
X139771504Y-84427715D01*
X139638537Y-84294748D01*
X139713426Y-84219859D01*
X140571672Y-84219859D01*
X140563816Y-84227715D01*
X140440698Y-84411973D01*
X140355893Y-84616710D01*
X140312660Y-84834057D01*
X140312660Y-85055663D01*
X140355893Y-85273010D01*
X140440698Y-85477747D01*
X140563816Y-85662005D01*
X140720515Y-85818704D01*
X140904773Y-85941822D01*
X141109510Y-86026627D01*
X141326857Y-86069860D01*
X141548463Y-86069860D01*
X141765810Y-86026627D01*
X141970547Y-85941822D01*
X142154805Y-85818704D01*
X142311504Y-85662005D01*
X142434622Y-85477747D01*
X142519427Y-85273010D01*
X142562660Y-85055663D01*
X142562660Y-84834057D01*
X142519427Y-84616710D01*
X142434622Y-84411973D01*
X142311504Y-84227715D01*
X142303648Y-84219859D01*
X143337076Y-84219859D01*
X143260515Y-84271016D01*
X143103816Y-84427715D01*
X142980698Y-84611973D01*
X142895893Y-84816710D01*
X142852660Y-85034057D01*
X142852660Y-85255663D01*
X142895893Y-85473010D01*
X142980698Y-85677747D01*
X143103816Y-85862005D01*
X143260515Y-86018704D01*
X143444773Y-86141822D01*
X143649510Y-86226627D01*
X143866857Y-86269860D01*
X144088463Y-86269860D01*
X144305810Y-86226627D01*
X144510547Y-86141822D01*
X144694805Y-86018704D01*
X144849900Y-85863609D01*
X144849900Y-86797553D01*
X144847965Y-86817200D01*
X144849900Y-86836846D01*
X144855688Y-86895613D01*
X144878560Y-86971013D01*
X144915703Y-87040502D01*
X144965689Y-87101411D01*
X144980952Y-87113937D01*
X145055900Y-87188885D01*
X145055900Y-87254833D01*
X145077997Y-87365921D01*
X145121342Y-87470565D01*
X145184268Y-87564741D01*
X145264359Y-87644832D01*
X145327768Y-87687200D01*
X144717085Y-87687200D01*
X144618400Y-87588515D01*
X144618400Y-87522567D01*
X144596303Y-87411479D01*
X144552958Y-87306835D01*
X144490032Y-87212659D01*
X144409941Y-87132568D01*
X144315765Y-87069642D01*
X144211121Y-87026297D01*
X144100033Y-87004200D01*
X143986767Y-87004200D01*
X143875679Y-87026297D01*
X143771035Y-87069642D01*
X143676859Y-87132568D01*
X143596768Y-87212659D01*
X143533842Y-87306835D01*
X143490497Y-87411479D01*
X143468400Y-87522567D01*
X143468400Y-87635833D01*
X143490497Y-87746921D01*
X143533842Y-87851565D01*
X143596768Y-87945741D01*
X143676859Y-88025832D01*
X143771035Y-88088758D01*
X143875679Y-88132103D01*
X143986767Y-88154200D01*
X144052715Y-88154200D01*
X144254663Y-88356148D01*
X144267189Y-88371411D01*
X144328097Y-88421397D01*
X144397586Y-88458540D01*
X144472986Y-88481412D01*
X144531753Y-88487200D01*
X144531763Y-88487200D01*
X144551399Y-88489134D01*
X144571035Y-88487200D01*
X145649354Y-88487200D01*
X145669000Y-88489135D01*
X145688646Y-88487200D01*
X145688647Y-88487200D01*
X145747414Y-88481412D01*
X145822814Y-88458540D01*
X145892303Y-88421397D01*
X145953211Y-88371411D01*
X145965737Y-88356148D01*
X146509453Y-87812433D01*
X146524711Y-87799911D01*
X146543767Y-87776692D01*
X146574697Y-87739003D01*
X146591398Y-87707758D01*
X146611840Y-87669514D01*
X146634712Y-87594114D01*
X146640500Y-87535347D01*
X146640500Y-87535345D01*
X146642435Y-87515701D01*
X146640500Y-87496057D01*
X146640500Y-86067466D01*
X146845810Y-86026627D01*
X147050547Y-85941822D01*
X147234805Y-85818704D01*
X147391504Y-85662005D01*
X147514622Y-85477747D01*
X147599427Y-85273010D01*
X147642660Y-85055663D01*
X147642660Y-85034057D01*
X147932660Y-85034057D01*
X147932660Y-85255663D01*
X147975893Y-85473010D01*
X148060698Y-85677747D01*
X148183816Y-85862005D01*
X148340515Y-86018704D01*
X148524773Y-86141822D01*
X148729510Y-86226627D01*
X148946857Y-86269860D01*
X149168463Y-86269860D01*
X149385810Y-86226627D01*
X149590547Y-86141822D01*
X149774805Y-86018704D01*
X149931504Y-85862005D01*
X150054622Y-85677747D01*
X150139427Y-85473010D01*
X150182660Y-85255663D01*
X150182660Y-85034057D01*
X150142878Y-84834057D01*
X150472660Y-84834057D01*
X150472660Y-85055663D01*
X150515893Y-85273010D01*
X150600698Y-85477747D01*
X150723816Y-85662005D01*
X150880515Y-85818704D01*
X151064773Y-85941822D01*
X151269510Y-86026627D01*
X151486857Y-86069860D01*
X151708463Y-86069860D01*
X151925810Y-86026627D01*
X152130547Y-85941822D01*
X152314805Y-85818704D01*
X152471504Y-85662005D01*
X152594622Y-85477747D01*
X152679427Y-85273010D01*
X152722660Y-85055663D01*
X152722660Y-85034057D01*
X153012660Y-85034057D01*
X153012660Y-85255663D01*
X153055893Y-85473010D01*
X153140698Y-85677747D01*
X153263816Y-85862005D01*
X153420515Y-86018704D01*
X153604773Y-86141822D01*
X153809510Y-86226627D01*
X154026857Y-86269860D01*
X154248463Y-86269860D01*
X154465810Y-86226627D01*
X154670547Y-86141822D01*
X154854805Y-86018704D01*
X155011504Y-85862005D01*
X155134622Y-85677747D01*
X155219427Y-85473010D01*
X155262660Y-85255663D01*
X155262660Y-85034057D01*
X155222878Y-84834057D01*
X155552660Y-84834057D01*
X155552660Y-85055663D01*
X155595893Y-85273010D01*
X155680698Y-85477747D01*
X155803816Y-85662005D01*
X155960515Y-85818704D01*
X156144773Y-85941822D01*
X156349510Y-86026627D01*
X156566857Y-86069860D01*
X156788463Y-86069860D01*
X157005810Y-86026627D01*
X157210547Y-85941822D01*
X157394805Y-85818704D01*
X157551504Y-85662005D01*
X157674622Y-85477747D01*
X157759427Y-85273010D01*
X157802660Y-85055663D01*
X157802660Y-85034057D01*
X158092660Y-85034057D01*
X158092660Y-85255663D01*
X158135893Y-85473010D01*
X158220698Y-85677747D01*
X158343816Y-85862005D01*
X158500515Y-86018704D01*
X158684773Y-86141822D01*
X158889510Y-86226627D01*
X159106857Y-86269860D01*
X159328463Y-86269860D01*
X159545810Y-86226627D01*
X159750547Y-86141822D01*
X159934805Y-86018704D01*
X160091504Y-85862005D01*
X160127505Y-85808125D01*
X161076829Y-85808125D01*
X161172188Y-85970161D01*
X161383465Y-86064680D01*
X161609121Y-86116164D01*
X161840486Y-86122636D01*
X162068667Y-86083846D01*
X162284896Y-86001287D01*
X162343132Y-85970161D01*
X162438491Y-85808125D01*
X161757660Y-85127294D01*
X161076829Y-85808125D01*
X160127505Y-85808125D01*
X160214622Y-85677747D01*
X160299427Y-85473010D01*
X160342660Y-85255663D01*
X160342660Y-85034057D01*
X160341393Y-85027686D01*
X160579884Y-85027686D01*
X160618674Y-85255867D01*
X160701233Y-85472096D01*
X160732359Y-85530332D01*
X160894395Y-85625691D01*
X161575226Y-84944860D01*
X160894395Y-84264029D01*
X160732359Y-84359388D01*
X160637840Y-84570665D01*
X160586356Y-84796321D01*
X160579884Y-85027686D01*
X160341393Y-85027686D01*
X160299427Y-84816710D01*
X160214622Y-84611973D01*
X160091504Y-84427715D01*
X159934805Y-84271016D01*
X159750547Y-84147898D01*
X159590478Y-84081595D01*
X161076829Y-84081595D01*
X161757660Y-84762426D01*
X162438491Y-84081595D01*
X162343132Y-83919559D01*
X162131855Y-83825040D01*
X161906199Y-83773556D01*
X161674834Y-83767084D01*
X161446653Y-83805874D01*
X161230424Y-83888433D01*
X161172188Y-83919559D01*
X161076829Y-84081595D01*
X159590478Y-84081595D01*
X159545810Y-84063093D01*
X159328463Y-84019860D01*
X159106857Y-84019860D01*
X158889510Y-84063093D01*
X158684773Y-84147898D01*
X158500515Y-84271016D01*
X158343816Y-84427715D01*
X158220698Y-84611973D01*
X158135893Y-84816710D01*
X158092660Y-85034057D01*
X157802660Y-85034057D01*
X157802660Y-84834057D01*
X157759427Y-84616710D01*
X157674622Y-84411973D01*
X157551504Y-84227715D01*
X157394805Y-84071016D01*
X157210547Y-83947898D01*
X157005810Y-83863093D01*
X156788463Y-83819860D01*
X156566857Y-83819860D01*
X156349510Y-83863093D01*
X156144773Y-83947898D01*
X155960515Y-84071016D01*
X155803816Y-84227715D01*
X155680698Y-84411973D01*
X155595893Y-84616710D01*
X155552660Y-84834057D01*
X155222878Y-84834057D01*
X155219427Y-84816710D01*
X155134622Y-84611973D01*
X155011504Y-84427715D01*
X154854805Y-84271016D01*
X154670547Y-84147898D01*
X154465810Y-84063093D01*
X154248463Y-84019860D01*
X154026857Y-84019860D01*
X153809510Y-84063093D01*
X153604773Y-84147898D01*
X153420515Y-84271016D01*
X153263816Y-84427715D01*
X153140698Y-84611973D01*
X153055893Y-84816710D01*
X153012660Y-85034057D01*
X152722660Y-85034057D01*
X152722660Y-84834057D01*
X152679427Y-84616710D01*
X152594622Y-84411973D01*
X152471504Y-84227715D01*
X152314805Y-84071016D01*
X152130547Y-83947898D01*
X151925810Y-83863093D01*
X151708463Y-83819860D01*
X151486857Y-83819860D01*
X151269510Y-83863093D01*
X151064773Y-83947898D01*
X150880515Y-84071016D01*
X150723816Y-84227715D01*
X150600698Y-84411973D01*
X150515893Y-84616710D01*
X150472660Y-84834057D01*
X150142878Y-84834057D01*
X150139427Y-84816710D01*
X150054622Y-84611973D01*
X149931504Y-84427715D01*
X149774805Y-84271016D01*
X149590547Y-84147898D01*
X149385810Y-84063093D01*
X149168463Y-84019860D01*
X148946857Y-84019860D01*
X148729510Y-84063093D01*
X148524773Y-84147898D01*
X148340515Y-84271016D01*
X148183816Y-84427715D01*
X148060698Y-84611973D01*
X147975893Y-84816710D01*
X147932660Y-85034057D01*
X147642660Y-85034057D01*
X147642660Y-84834057D01*
X147599427Y-84616710D01*
X147514622Y-84411973D01*
X147391504Y-84227715D01*
X147234805Y-84071016D01*
X147050547Y-83947898D01*
X146845810Y-83863093D01*
X146628463Y-83819860D01*
X146406857Y-83819860D01*
X146189510Y-83863093D01*
X145984773Y-83947898D01*
X145800515Y-84071016D01*
X145643816Y-84227715D01*
X145623559Y-84258031D01*
X145621240Y-84250386D01*
X145584097Y-84180897D01*
X145562069Y-84154056D01*
X145546635Y-84135249D01*
X145546633Y-84135247D01*
X145534111Y-84119989D01*
X145518853Y-84107467D01*
X145061595Y-83650210D01*
X162281725Y-83650210D01*
X162831391Y-84199877D01*
G37*
%TD.AperFunction*%
D20*
X150515893Y-107614710D02*
X150472660Y-107832057D01*
X150472660Y-108053663D01*
X150515893Y-108271010D01*
X150600698Y-108475747D01*
X150723816Y-108660005D01*
X150880515Y-108816704D01*
X151064773Y-108939822D01*
X151072660Y-108943089D01*
X151072661Y-112084631D01*
X151064773Y-112087898D01*
X150880515Y-112211016D01*
X150723816Y-112367715D01*
X150600698Y-112551973D01*
X150515893Y-112756710D01*
X150472660Y-112974057D01*
X150472660Y-113195663D01*
X150515893Y-113413010D01*
X150600698Y-113617747D01*
X150723816Y-113802005D01*
X150731672Y-113809861D01*
X149698244Y-113809861D01*
X149774805Y-113758704D01*
X149931504Y-113602005D01*
X150054622Y-113417747D01*
X150139427Y-113213010D01*
X150182660Y-112995663D01*
X150182660Y-112774057D01*
X150139427Y-112556710D01*
X150054622Y-112351973D01*
X149931504Y-112167715D01*
X149774805Y-112011016D01*
X149590547Y-111887898D01*
X149582660Y-111884631D01*
X149582660Y-108743089D01*
X149590547Y-108739822D01*
X149774805Y-108616704D01*
X149931504Y-108460005D01*
X150054622Y-108275747D01*
X150139427Y-108071010D01*
X150182660Y-107853663D01*
X150182660Y-107632057D01*
X150154972Y-107492861D01*
X150566365Y-107492861D01*
X150515893Y-107614710D01*
%TA.AperFunction,Conductor*%
D24*
G36*
X150515893Y-107614710D02*
G01*
X150472660Y-107832057D01*
X150472660Y-108053663D01*
X150515893Y-108271010D01*
X150600698Y-108475747D01*
X150723816Y-108660005D01*
X150880515Y-108816704D01*
X151064773Y-108939822D01*
X151072660Y-108943089D01*
X151072661Y-112084631D01*
X151064773Y-112087898D01*
X150880515Y-112211016D01*
X150723816Y-112367715D01*
X150600698Y-112551973D01*
X150515893Y-112756710D01*
X150472660Y-112974057D01*
X150472660Y-113195663D01*
X150515893Y-113413010D01*
X150600698Y-113617747D01*
X150723816Y-113802005D01*
X150731672Y-113809861D01*
X149698244Y-113809861D01*
X149774805Y-113758704D01*
X149931504Y-113602005D01*
X150054622Y-113417747D01*
X150139427Y-113213010D01*
X150182660Y-112995663D01*
X150182660Y-112774057D01*
X150139427Y-112556710D01*
X150054622Y-112351973D01*
X149931504Y-112167715D01*
X149774805Y-112011016D01*
X149590547Y-111887898D01*
X149582660Y-111884631D01*
X149582660Y-108743089D01*
X149590547Y-108739822D01*
X149774805Y-108616704D01*
X149931504Y-108460005D01*
X150054622Y-108275747D01*
X150139427Y-108071010D01*
X150182660Y-107853663D01*
X150182660Y-107632057D01*
X150154972Y-107492861D01*
X150566365Y-107492861D01*
X150515893Y-107614710D01*
G37*
%TD.AperFunction*%
D20*
X142042697Y-108574921D02*
X142086042Y-108679565D01*
X142148968Y-108773741D01*
X142229059Y-108853832D01*
X142323235Y-108916758D01*
X142427879Y-108960103D01*
X142538967Y-108982200D01*
X142652233Y-108982200D01*
X142763321Y-108960103D01*
X142867965Y-108916758D01*
X142962141Y-108853832D01*
X143042232Y-108773741D01*
X143105158Y-108679565D01*
X143148503Y-108574921D01*
X143160155Y-108516344D01*
X143260515Y-108616704D01*
X143444773Y-108739822D01*
X143649510Y-108824627D01*
X143866857Y-108867860D01*
X144088463Y-108867860D01*
X144151401Y-108855341D01*
X144151400Y-109733752D01*
X144151400Y-110114754D01*
X144151401Y-110622744D01*
X144149465Y-110642400D01*
X144157188Y-110720813D01*
X144180061Y-110796214D01*
X144217203Y-110865702D01*
X144254665Y-110911350D01*
X144254668Y-110911353D01*
X144267190Y-110926611D01*
X144282448Y-110939133D01*
X145091200Y-111747886D01*
X145091201Y-112153114D01*
X144941665Y-112302650D01*
X144851504Y-112167715D01*
X144694805Y-112011016D01*
X144510547Y-111887898D01*
X144305810Y-111803093D01*
X144088463Y-111759860D01*
X143866857Y-111759860D01*
X143649510Y-111803093D01*
X143444773Y-111887898D01*
X143260515Y-112011016D01*
X143215900Y-112055631D01*
X143215900Y-109931200D01*
X143213498Y-109906814D01*
X143206385Y-109883365D01*
X143194834Y-109861754D01*
X143179288Y-109842812D01*
X143160346Y-109827266D01*
X143138735Y-109815715D01*
X143115286Y-109808602D01*
X143090900Y-109806200D01*
X142553686Y-109806200D01*
X141952537Y-109205052D01*
X141940011Y-109189789D01*
X141879103Y-109139803D01*
X141809614Y-109102660D01*
X141734214Y-109079788D01*
X141675447Y-109074000D01*
X141675446Y-109074000D01*
X141655800Y-109072065D01*
X141636154Y-109074000D01*
X140468773Y-109074000D01*
X140422141Y-109027368D01*
X140327965Y-108964442D01*
X140223321Y-108921097D01*
X140112233Y-108899000D01*
X139998967Y-108899000D01*
X139887879Y-108921097D01*
X139783235Y-108964442D01*
X139689059Y-109027368D01*
X139608968Y-109107459D01*
X139546042Y-109201635D01*
X139502697Y-109306279D01*
X139480600Y-109417367D01*
X139480600Y-109530633D01*
X139502697Y-109641721D01*
X139546042Y-109746365D01*
X139586022Y-109806200D01*
X139388800Y-109806200D01*
X139388800Y-108852285D01*
X139738685Y-108502400D01*
X142028272Y-108502400D01*
X142042697Y-108574921D01*
%TA.AperFunction,Conductor*%
D24*
G36*
X142042697Y-108574921D02*
G01*
X142086042Y-108679565D01*
X142148968Y-108773741D01*
X142229059Y-108853832D01*
X142323235Y-108916758D01*
X142427879Y-108960103D01*
X142538967Y-108982200D01*
X142652233Y-108982200D01*
X142763321Y-108960103D01*
X142867965Y-108916758D01*
X142962141Y-108853832D01*
X143042232Y-108773741D01*
X143105158Y-108679565D01*
X143148503Y-108574921D01*
X143160155Y-108516344D01*
X143260515Y-108616704D01*
X143444773Y-108739822D01*
X143649510Y-108824627D01*
X143866857Y-108867860D01*
X144088463Y-108867860D01*
X144151401Y-108855341D01*
X144151400Y-109733752D01*
X144151400Y-110114754D01*
X144151401Y-110622744D01*
X144149465Y-110642400D01*
X144157188Y-110720813D01*
X144180061Y-110796214D01*
X144217203Y-110865702D01*
X144254665Y-110911350D01*
X144254668Y-110911353D01*
X144267190Y-110926611D01*
X144282448Y-110939133D01*
X145091200Y-111747886D01*
X145091201Y-112153114D01*
X144941665Y-112302650D01*
X144851504Y-112167715D01*
X144694805Y-112011016D01*
X144510547Y-111887898D01*
X144305810Y-111803093D01*
X144088463Y-111759860D01*
X143866857Y-111759860D01*
X143649510Y-111803093D01*
X143444773Y-111887898D01*
X143260515Y-112011016D01*
X143215900Y-112055631D01*
X143215900Y-109931200D01*
X143213498Y-109906814D01*
X143206385Y-109883365D01*
X143194834Y-109861754D01*
X143179288Y-109842812D01*
X143160346Y-109827266D01*
X143138735Y-109815715D01*
X143115286Y-109808602D01*
X143090900Y-109806200D01*
X142553686Y-109806200D01*
X141952537Y-109205052D01*
X141940011Y-109189789D01*
X141879103Y-109139803D01*
X141809614Y-109102660D01*
X141734214Y-109079788D01*
X141675447Y-109074000D01*
X141675446Y-109074000D01*
X141655800Y-109072065D01*
X141636154Y-109074000D01*
X140468773Y-109074000D01*
X140422141Y-109027368D01*
X140327965Y-108964442D01*
X140223321Y-108921097D01*
X140112233Y-108899000D01*
X139998967Y-108899000D01*
X139887879Y-108921097D01*
X139783235Y-108964442D01*
X139689059Y-109027368D01*
X139608968Y-109107459D01*
X139546042Y-109201635D01*
X139502697Y-109306279D01*
X139480600Y-109417367D01*
X139480600Y-109530633D01*
X139502697Y-109641721D01*
X139546042Y-109746365D01*
X139586022Y-109806200D01*
X139388800Y-109806200D01*
X139388800Y-108852285D01*
X139738685Y-108502400D01*
X142028272Y-108502400D01*
X142042697Y-108574921D01*
G37*
%TD.AperFunction*%
D20*
X155977900Y-91713573D02*
X155977900Y-91826839D01*
X155999997Y-91937927D01*
X156027900Y-92005291D01*
X156027901Y-95689731D01*
X155989987Y-95632989D01*
X155909896Y-95552898D01*
X155815720Y-95489972D01*
X155711076Y-95446627D01*
X155599988Y-95424530D01*
X155486722Y-95424530D01*
X155375634Y-95446627D01*
X155270990Y-95489972D01*
X155176814Y-95552898D01*
X155096723Y-95632989D01*
X155042861Y-95713600D01*
X152406773Y-95713600D01*
X152360141Y-95666968D01*
X152265965Y-95604042D01*
X152161321Y-95560697D01*
X152089392Y-95546389D01*
X155991728Y-91644054D01*
X155977900Y-91713573D01*
%TA.AperFunction,Conductor*%
D24*
G36*
X155977900Y-91713573D02*
G01*
X155977900Y-91826839D01*
X155999997Y-91937927D01*
X156027900Y-92005291D01*
X156027901Y-95689731D01*
X155989987Y-95632989D01*
X155909896Y-95552898D01*
X155815720Y-95489972D01*
X155711076Y-95446627D01*
X155599988Y-95424530D01*
X155486722Y-95424530D01*
X155375634Y-95446627D01*
X155270990Y-95489972D01*
X155176814Y-95552898D01*
X155096723Y-95632989D01*
X155042861Y-95713600D01*
X152406773Y-95713600D01*
X152360141Y-95666968D01*
X152265965Y-95604042D01*
X152161321Y-95560697D01*
X152089392Y-95546389D01*
X155991728Y-91644054D01*
X155977900Y-91713573D01*
G37*
%TD.AperFunction*%
D20*
X157964359Y-91260068D02*
X157884268Y-91340159D01*
X157821342Y-91434335D01*
X157777997Y-91538979D01*
X157755900Y-91650067D01*
X157755900Y-91763333D01*
X157777997Y-91874421D01*
X157805901Y-91941787D01*
X157805900Y-93457738D01*
X157342905Y-93920734D01*
X157322874Y-93937173D01*
X157306435Y-93957204D01*
X157257267Y-94017115D01*
X157208517Y-94108320D01*
X157178497Y-94207283D01*
X157168361Y-94310200D01*
X157170901Y-94335990D01*
X157170900Y-95596858D01*
X157119583Y-95638973D01*
X157103139Y-95659010D01*
X157077900Y-95684249D01*
X157077900Y-92005291D01*
X157105803Y-91937927D01*
X157127900Y-91826839D01*
X157127900Y-91713573D01*
X157105803Y-91602485D01*
X157062458Y-91497841D01*
X156999532Y-91403665D01*
X156919441Y-91323574D01*
X156825265Y-91260648D01*
X156721579Y-91217700D01*
X158027768Y-91217700D01*
X157964359Y-91260068D01*
%TA.AperFunction,Conductor*%
D24*
G36*
X157964359Y-91260068D02*
G01*
X157884268Y-91340159D01*
X157821342Y-91434335D01*
X157777997Y-91538979D01*
X157755900Y-91650067D01*
X157755900Y-91763333D01*
X157777997Y-91874421D01*
X157805901Y-91941787D01*
X157805900Y-93457738D01*
X157342905Y-93920734D01*
X157322874Y-93937173D01*
X157306435Y-93957204D01*
X157257267Y-94017115D01*
X157208517Y-94108320D01*
X157178497Y-94207283D01*
X157168361Y-94310200D01*
X157170901Y-94335990D01*
X157170900Y-95596858D01*
X157119583Y-95638973D01*
X157103139Y-95659010D01*
X157077900Y-95684249D01*
X157077900Y-92005291D01*
X157105803Y-91937927D01*
X157127900Y-91826839D01*
X157127900Y-91713573D01*
X157105803Y-91602485D01*
X157062458Y-91497841D01*
X156999532Y-91403665D01*
X156919441Y-91323574D01*
X156825265Y-91260648D01*
X156721579Y-91217700D01*
X158027768Y-91217700D01*
X157964359Y-91260068D01*
G37*
%TD.AperFunction*%
D20*
X137454113Y-83442802D02*
X137213713Y-83683202D01*
X137198450Y-83695728D01*
X137148464Y-83756637D01*
X137111321Y-83826126D01*
X137094865Y-83880375D01*
X137088449Y-83901526D01*
X137080726Y-83979939D01*
X137082661Y-83999586D01*
X137082661Y-84078872D01*
X137074805Y-84071016D01*
X136890547Y-83947898D01*
X136685810Y-83863093D01*
X136468463Y-83819860D01*
X136246857Y-83819860D01*
X136029510Y-83863093D01*
X135824773Y-83947898D01*
X135640515Y-84071016D01*
X135483816Y-84227715D01*
X135360698Y-84411973D01*
X135275893Y-84616710D01*
X135232660Y-84834057D01*
X135232660Y-85055663D01*
X135275893Y-85273010D01*
X135360698Y-85477747D01*
X135483816Y-85662005D01*
X135640515Y-85818704D01*
X135824773Y-85941822D01*
X136029510Y-86026627D01*
X136246857Y-86069860D01*
X136468463Y-86069860D01*
X136685810Y-86026627D01*
X136890547Y-85941822D01*
X137074805Y-85818704D01*
X137082662Y-85810847D01*
X137082662Y-86163186D01*
X135630073Y-86163186D01*
X135583441Y-86116554D01*
X135489265Y-86053628D01*
X135384621Y-86010283D01*
X135273533Y-85988186D01*
X135160267Y-85988186D01*
X135049179Y-86010283D01*
X134944535Y-86053628D01*
X134935343Y-86059770D01*
X134938680Y-86048769D01*
X134943990Y-85994860D01*
X134943990Y-84294860D01*
X134938680Y-84240951D01*
X134922956Y-84189113D01*
X134897420Y-84141339D01*
X134863055Y-84099465D01*
X134821181Y-84065100D01*
X134773407Y-84039564D01*
X134721569Y-84023840D01*
X134667660Y-84018530D01*
X132967660Y-84018530D01*
X132913751Y-84023840D01*
X132861913Y-84039564D01*
X132814139Y-84065100D01*
X132772265Y-84099465D01*
X132737900Y-84141339D01*
X132712364Y-84189113D01*
X132696640Y-84240951D01*
X132691330Y-84294860D01*
X132691330Y-85994860D01*
X132696640Y-86048769D01*
X132712364Y-86100607D01*
X132737900Y-86148381D01*
X132772265Y-86190255D01*
X132782921Y-86199000D01*
X132025000Y-86199000D01*
X132025000Y-83425401D01*
X137454113Y-83442802D01*
%TA.AperFunction,Conductor*%
D24*
G36*
X137454113Y-83442802D02*
G01*
X137213713Y-83683202D01*
X137198450Y-83695728D01*
X137148464Y-83756637D01*
X137111321Y-83826126D01*
X137094865Y-83880375D01*
X137088449Y-83901526D01*
X137080726Y-83979939D01*
X137082661Y-83999586D01*
X137082661Y-84078872D01*
X137074805Y-84071016D01*
X136890547Y-83947898D01*
X136685810Y-83863093D01*
X136468463Y-83819860D01*
X136246857Y-83819860D01*
X136029510Y-83863093D01*
X135824773Y-83947898D01*
X135640515Y-84071016D01*
X135483816Y-84227715D01*
X135360698Y-84411973D01*
X135275893Y-84616710D01*
X135232660Y-84834057D01*
X135232660Y-85055663D01*
X135275893Y-85273010D01*
X135360698Y-85477747D01*
X135483816Y-85662005D01*
X135640515Y-85818704D01*
X135824773Y-85941822D01*
X136029510Y-86026627D01*
X136246857Y-86069860D01*
X136468463Y-86069860D01*
X136685810Y-86026627D01*
X136890547Y-85941822D01*
X137074805Y-85818704D01*
X137082662Y-85810847D01*
X137082662Y-86163186D01*
X135630073Y-86163186D01*
X135583441Y-86116554D01*
X135489265Y-86053628D01*
X135384621Y-86010283D01*
X135273533Y-85988186D01*
X135160267Y-85988186D01*
X135049179Y-86010283D01*
X134944535Y-86053628D01*
X134935343Y-86059770D01*
X134938680Y-86048769D01*
X134943990Y-85994860D01*
X134943990Y-84294860D01*
X134938680Y-84240951D01*
X134922956Y-84189113D01*
X134897420Y-84141339D01*
X134863055Y-84099465D01*
X134821181Y-84065100D01*
X134773407Y-84039564D01*
X134721569Y-84023840D01*
X134667660Y-84018530D01*
X132967660Y-84018530D01*
X132913751Y-84023840D01*
X132861913Y-84039564D01*
X132814139Y-84065100D01*
X132772265Y-84099465D01*
X132737900Y-84141339D01*
X132712364Y-84189113D01*
X132696640Y-84240951D01*
X132691330Y-84294860D01*
X132691330Y-85994860D01*
X132696640Y-86048769D01*
X132712364Y-86100607D01*
X132737900Y-86148381D01*
X132772265Y-86190255D01*
X132782921Y-86199000D01*
X132025000Y-86199000D01*
X132025000Y-83425401D01*
X137454113Y-83442802D01*
G37*
%TD.AperFunction*%
%TD*%
M02*
