%TF.GenerationSoftware,KiCad,Pcbnew,(5.1.8)-1*%
%TF.CreationDate,2021-03-28T09:39:19+02:00*%
%TF.ProjectId,KETCube_mainboard,4b455443-7562-4655-9f6d-61696e626f61,I*%
%TF.SameCoordinates,Original*%
%TF.FileFunction,Soldermask,Bot*%
%TF.FilePolarity,Negative*%
%FSLAX46Y46*%
G04 Gerber Fmt 4.6, Leading zero omitted, Abs format (unit mm)*
G04 Created by KiCad (PCBNEW (5.1.8)-1) date 2021-03-28 09:39:19*
%MOMM*%
%LPD*%
G01*
G04 APERTURE LIST*
%ADD10C,0.300000*%
%ADD11C,0.100000*%
%ADD12C,1.700000*%
%ADD13R,1.700000X1.700000*%
%ADD14R,1.000000X1.000000*%
%ADD15C,1.010000*%
%ADD16R,1.010000X1.010000*%
%ADD17C,1.600000*%
%ADD18C,1.400000*%
G04 APERTURE END LIST*
D10*
X157604600Y-92316300D02*
G75*
G03*
X157604600Y-92316300I-150000J0D01*
G01*
X158544400Y-104330500D02*
G75*
G03*
X158544400Y-104330500I-150000J0D01*
G01*
X155737700Y-92481400D02*
G75*
G03*
X155737700Y-92481400I-150000J0D01*
G01*
X138224400Y-86233000D02*
G75*
G03*
X138224400Y-86233000I-150000J0D01*
G01*
X150416400Y-108712000D02*
G75*
G03*
X150416400Y-108712000I-150000J0D01*
G01*
X150467200Y-111607600D02*
G75*
G03*
X150467200Y-111607600I-150000J0D01*
G01*
X158176100Y-114033300D02*
G75*
G03*
X158176100Y-114033300I-150000J0D01*
G01*
X156410800Y-106337100D02*
G75*
G03*
X156410800Y-106337100I-150000J0D01*
G01*
X155636100Y-109728000D02*
G75*
G03*
X155636100Y-109728000I-150000J0D01*
G01*
X155534500Y-111518700D02*
G75*
G03*
X155534500Y-111518700I-150000J0D01*
G01*
X160678000Y-110413800D02*
G75*
G03*
X160678000Y-110413800I-150000J0D01*
G01*
X162278200Y-103124000D02*
G75*
G03*
X162278200Y-103124000I-150000J0D01*
G01*
X150619600Y-106273600D02*
G75*
G03*
X150619600Y-106273600I-150000J0D01*
G01*
X154378800Y-106121200D02*
G75*
G03*
X154378800Y-106121200I-150000J0D01*
G01*
X154467700Y-104686100D02*
G75*
G03*
X154467700Y-104686100I-150000J0D01*
G01*
X149883000Y-101777800D02*
G75*
G03*
X149883000Y-101777800I-150000J0D01*
G01*
X143431400Y-92379800D02*
G75*
G03*
X143431400Y-92379800I-150000J0D01*
G01*
X132509400Y-83781900D02*
G75*
G03*
X132509400Y-83781900I-150000J0D01*
G01*
X135366900Y-83997800D02*
G75*
G03*
X135366900Y-83997800I-150000J0D01*
G01*
X158023700Y-86309200D02*
G75*
G03*
X158023700Y-86309200I-150000J0D01*
G01*
X154785200Y-90919300D02*
G75*
G03*
X154785200Y-90919300I-150000J0D01*
G01*
X153667600Y-88201500D02*
G75*
G03*
X153667600Y-88201500I-150000J0D01*
G01*
X162202000Y-87312500D02*
G75*
G03*
X162202000Y-87312500I-150000J0D01*
G01*
X161719400Y-95211900D02*
G75*
G03*
X161719400Y-95211900I-150000J0D01*
G01*
X134617600Y-90017600D02*
G75*
G03*
X134617600Y-90017600I-150000J0D01*
G01*
X135963800Y-89230200D02*
G75*
G03*
X135963800Y-89230200I-150000J0D01*
G01*
X137386200Y-89027000D02*
G75*
G03*
X137386200Y-89027000I-150000J0D01*
G01*
X138605400Y-89001600D02*
G75*
G03*
X138605400Y-89001600I-150000J0D01*
G01*
X139748400Y-89001600D02*
G75*
G03*
X139748400Y-89001600I-150000J0D01*
G01*
X140891400Y-89001600D02*
G75*
G03*
X140891400Y-89001600I-150000J0D01*
G01*
X140916800Y-91770200D02*
G75*
G03*
X140916800Y-91770200I-150000J0D01*
G01*
X139824600Y-91770200D02*
G75*
G03*
X139824600Y-91770200I-150000J0D01*
G01*
X138732400Y-91770200D02*
G75*
G03*
X138732400Y-91770200I-150000J0D01*
G01*
X137716400Y-91770200D02*
G75*
G03*
X137716400Y-91770200I-150000J0D01*
G01*
X133652400Y-91363800D02*
G75*
G03*
X133652400Y-91363800I-150000J0D01*
G01*
X133296800Y-92989400D02*
G75*
G03*
X133296800Y-92989400I-150000J0D01*
G01*
X136141600Y-93243400D02*
G75*
G03*
X136141600Y-93243400I-150000J0D01*
G01*
X137335400Y-93230700D02*
G75*
G03*
X137335400Y-93230700I-150000J0D01*
G01*
X138478400Y-93230700D02*
G75*
G03*
X138478400Y-93230700I-150000J0D01*
G01*
X140954900Y-92849700D02*
G75*
G03*
X140954900Y-92849700I-150000J0D01*
G01*
X139811900Y-93230700D02*
G75*
G03*
X139811900Y-93230700I-150000J0D01*
G01*
X140065900Y-94310200D02*
G75*
G03*
X140065900Y-94310200I-150000J0D01*
G01*
X140065900Y-95643700D02*
G75*
G03*
X140065900Y-95643700I-150000J0D01*
G01*
X140065900Y-97167700D02*
G75*
G03*
X140065900Y-97167700I-150000J0D01*
G01*
X140065900Y-98691700D02*
G75*
G03*
X140065900Y-98691700I-150000J0D01*
G01*
X135366900Y-86563200D02*
G75*
G03*
X135366900Y-86563200I-150000J0D01*
G01*
X142148700Y-88150700D02*
G75*
G03*
X142148700Y-88150700I-150000J0D01*
G01*
X142669400Y-86499700D02*
G75*
G03*
X142669400Y-86499700I-150000J0D01*
G01*
X144193400Y-87579200D02*
G75*
G03*
X144193400Y-87579200I-150000J0D01*
G01*
X145793600Y-87198200D02*
G75*
G03*
X145793600Y-87198200I-150000J0D01*
G01*
X145565000Y-89954100D02*
G75*
G03*
X145565000Y-89954100I-150000J0D01*
G01*
X144168000Y-90208100D02*
G75*
G03*
X144168000Y-90208100I-150000J0D01*
G01*
X143494900Y-91262200D02*
G75*
G03*
X143494900Y-91262200I-150000J0D01*
G01*
X143240900Y-93484700D02*
G75*
G03*
X143240900Y-93484700I-150000J0D01*
G01*
X145272900Y-92722700D02*
G75*
G03*
X145272900Y-92722700I-150000J0D01*
G01*
X149019400Y-92722700D02*
G75*
G03*
X149019400Y-92722700I-150000J0D01*
G01*
X152130900Y-93611700D02*
G75*
G03*
X152130900Y-93611700I-150000J0D01*
G01*
X149082900Y-95199200D02*
G75*
G03*
X149082900Y-95199200I-150000J0D01*
G01*
X145272900Y-95262700D02*
G75*
G03*
X145272900Y-95262700I-150000J0D01*
G01*
X143075800Y-95999300D02*
G75*
G03*
X143075800Y-95999300I-150000J0D01*
G01*
X144193400Y-98183700D02*
G75*
G03*
X144193400Y-98183700I-150000J0D01*
G01*
X145780900Y-98310700D02*
G75*
G03*
X145780900Y-98310700I-150000J0D01*
G01*
X145018900Y-100088700D02*
G75*
G03*
X145018900Y-100088700I-150000J0D01*
G01*
X148181200Y-100101400D02*
G75*
G03*
X148181200Y-100101400I-150000J0D01*
G01*
X149527400Y-100406200D02*
G75*
G03*
X149527400Y-100406200I-150000J0D01*
G01*
X153820000Y-101498400D02*
G75*
G03*
X153820000Y-101498400I-150000J0D01*
G01*
X154061300Y-100291900D02*
G75*
G03*
X154061300Y-100291900I-150000J0D01*
G01*
X153324700Y-99555300D02*
G75*
G03*
X153324700Y-99555300I-150000J0D01*
G01*
X155471000Y-99593400D02*
G75*
G03*
X155471000Y-99593400I-150000J0D01*
G01*
X152321400Y-98171000D02*
G75*
G03*
X152321400Y-98171000I-150000J0D01*
G01*
X152245200Y-97180400D02*
G75*
G03*
X152245200Y-97180400I-150000J0D01*
G01*
X152143600Y-96113600D02*
G75*
G03*
X152143600Y-96113600I-150000J0D01*
G01*
X155699600Y-95999300D02*
G75*
G03*
X155699600Y-95999300I-150000J0D01*
G01*
X157147400Y-97675700D02*
G75*
G03*
X157147400Y-97675700I-150000J0D01*
G01*
X156702900Y-91770200D02*
G75*
G03*
X156702900Y-91770200I-150000J0D01*
G01*
X158480900Y-91706700D02*
G75*
G03*
X158480900Y-91706700I-150000J0D01*
G01*
X161541600Y-91389200D02*
G75*
G03*
X161541600Y-91389200I-150000J0D01*
G01*
X161567000Y-89776300D02*
G75*
G03*
X161567000Y-89776300I-150000J0D01*
G01*
X162481400Y-94576900D02*
G75*
G03*
X162481400Y-94576900I-150000J0D01*
G01*
X160385900Y-94894400D02*
G75*
G03*
X160385900Y-94894400I-150000J0D01*
G01*
X161084400Y-100088700D02*
G75*
G03*
X161084400Y-100088700I-150000J0D01*
G01*
X157274400Y-102577900D02*
G75*
G03*
X157274400Y-102577900I-150000J0D01*
G01*
X155559900Y-102247700D02*
G75*
G03*
X155559900Y-102247700I-150000J0D01*
G01*
X156448900Y-104533700D02*
G75*
G03*
X156448900Y-104533700I-150000J0D01*
G01*
X152892900Y-105613200D02*
G75*
G03*
X152892900Y-105613200I-150000J0D01*
G01*
X150238600Y-105117900D02*
G75*
G03*
X150238600Y-105117900I-150000J0D01*
G01*
X149184500Y-105105200D02*
G75*
G03*
X149184500Y-105105200I-150000J0D01*
G01*
X146200000Y-104546400D02*
G75*
G03*
X146200000Y-104546400I-150000J0D01*
G01*
X146555600Y-105498900D02*
G75*
G03*
X146555600Y-105498900I-150000J0D01*
G01*
X146555600Y-106540300D02*
G75*
G03*
X146555600Y-106540300I-150000J0D01*
G01*
X148028800Y-108788200D02*
G75*
G03*
X148028800Y-108788200I-150000J0D01*
G01*
X140065900Y-100215700D02*
G75*
G03*
X140065900Y-100215700I-150000J0D01*
G01*
X140065900Y-101739700D02*
G75*
G03*
X140065900Y-101739700I-150000J0D01*
G01*
X140065900Y-103517700D02*
G75*
G03*
X140065900Y-103517700I-150000J0D01*
G01*
X142948800Y-103454200D02*
G75*
G03*
X142948800Y-103454200I-150000J0D01*
G01*
X132636400Y-105168700D02*
G75*
G03*
X132636400Y-105168700I-150000J0D01*
G01*
X134414400Y-105168700D02*
G75*
G03*
X134414400Y-105168700I-150000J0D01*
G01*
X136001900Y-105105200D02*
G75*
G03*
X136001900Y-105105200I-150000J0D01*
G01*
X137525900Y-105105200D02*
G75*
G03*
X137525900Y-105105200I-150000J0D01*
G01*
X138859400Y-104978200D02*
G75*
G03*
X138859400Y-104978200I-150000J0D01*
G01*
X140065900Y-104787700D02*
G75*
G03*
X140065900Y-104787700I-150000J0D01*
G01*
X138364100Y-108508800D02*
G75*
G03*
X138364100Y-108508800I-150000J0D01*
G01*
X136802000Y-114300000D02*
G75*
G03*
X136802000Y-114300000I-150000J0D01*
G01*
X137970400Y-111125000D02*
G75*
G03*
X137970400Y-111125000I-150000J0D01*
G01*
X138554600Y-110464600D02*
G75*
G03*
X138554600Y-110464600I-150000J0D01*
G01*
X138554600Y-109385100D02*
G75*
G03*
X138554600Y-109385100I-150000J0D01*
G01*
X140205600Y-109474000D02*
G75*
G03*
X140205600Y-109474000I-150000J0D01*
G01*
X141018400Y-110159800D02*
G75*
G03*
X141018400Y-110159800I-150000J0D01*
G01*
X143634600Y-109880400D02*
G75*
G03*
X143634600Y-109880400I-150000J0D01*
G01*
X142656700Y-111633000D02*
G75*
G03*
X142656700Y-111633000I-150000J0D01*
G01*
X144853800Y-111658400D02*
G75*
G03*
X144853800Y-111658400I-150000J0D01*
G01*
X145615800Y-110502700D02*
G75*
G03*
X145615800Y-110502700I-150000J0D01*
G01*
X147876400Y-111988600D02*
G75*
G03*
X147876400Y-111988600I-150000J0D01*
G01*
D11*
G36*
X159327850Y-98488500D02*
G01*
X158324550Y-98488500D01*
X158311850Y-97624900D01*
X159315150Y-97624900D01*
X159327850Y-98488500D01*
G37*
X159327850Y-98488500D02*
X158324550Y-98488500D01*
X158311850Y-97624900D01*
X159315150Y-97624900D01*
X159327850Y-98488500D01*
G36*
X159264350Y-101028500D02*
G01*
X158261050Y-101028500D01*
X158248350Y-100164900D01*
X159251650Y-100164900D01*
X159264350Y-101028500D01*
G37*
X159264350Y-101028500D02*
X158261050Y-101028500D01*
X158248350Y-100164900D01*
X159251650Y-100164900D01*
X159264350Y-101028500D01*
G36*
X159467550Y-102311200D02*
G01*
X158464250Y-102311200D01*
X158451550Y-101422200D01*
X159454850Y-101422200D01*
X159467550Y-102311200D01*
G37*
X159467550Y-102311200D02*
X158464250Y-102311200D01*
X158451550Y-101422200D01*
X159454850Y-101422200D01*
X159467550Y-102311200D01*
G36*
X159404050Y-99758500D02*
G01*
X158400750Y-99758500D01*
X158388050Y-98894900D01*
X159391350Y-98894900D01*
X159404050Y-99758500D01*
G37*
X159404050Y-99758500D02*
X158400750Y-99758500D01*
X158388050Y-98894900D01*
X159391350Y-98894900D01*
X159404050Y-99758500D01*
G36*
X159492950Y-97218500D02*
G01*
X158489650Y-97218500D01*
X158476950Y-96354900D01*
X159480250Y-96354900D01*
X159492950Y-97218500D01*
G37*
X159492950Y-97218500D02*
X158489650Y-97218500D01*
X158476950Y-96354900D01*
X159480250Y-96354900D01*
X159492950Y-97218500D01*
D10*
X137919600Y-113080800D02*
G75*
G03*
X137919600Y-113080800I-150000J0D01*
G01*
X137970400Y-111125000D02*
G75*
G03*
X137970400Y-111125000I-150000J0D01*
G01*
X138554600Y-110464600D02*
G75*
G03*
X138554600Y-110464600I-150000J0D01*
G01*
X138554600Y-109397800D02*
G75*
G03*
X138554600Y-109397800I-150000J0D01*
G01*
X144853800Y-111658400D02*
G75*
G03*
X144853800Y-111658400I-150000J0D01*
G01*
X143634600Y-109880400D02*
G75*
G03*
X143634600Y-109880400I-150000J0D01*
G01*
X142745600Y-108407200D02*
G75*
G03*
X142745600Y-108407200I-150000J0D01*
G01*
X157731600Y-96012000D02*
G75*
G03*
X157731600Y-96012000I-150000J0D01*
G01*
D12*
%TO.C,J1*%
X161757660Y-107942860D03*
X159217660Y-107742860D03*
X143977660Y-107742860D03*
X156677660Y-107942860D03*
X154137660Y-107742860D03*
X151597660Y-107942860D03*
X146517660Y-107942860D03*
X149057660Y-107742860D03*
D13*
X133817660Y-85144860D03*
D12*
X136357660Y-84944860D03*
X138897660Y-85144860D03*
X141437660Y-84944860D03*
X143977660Y-85144860D03*
X146517660Y-84944860D03*
X149057660Y-85144860D03*
X151597660Y-84944860D03*
X154137660Y-85144860D03*
X156677660Y-84944860D03*
X159217660Y-85144860D03*
X161757660Y-84944860D03*
X143977660Y-112884860D03*
X146517660Y-113084860D03*
X149057660Y-112884860D03*
X151597660Y-113084860D03*
X154137660Y-112884860D03*
X156677660Y-113084860D03*
X159217660Y-112884860D03*
X161757660Y-113084860D03*
%TD*%
D14*
%TO.C,J3*%
X159440900Y-96786700D03*
X159440900Y-98056700D03*
X159440900Y-99326700D03*
X159440900Y-100596700D03*
X159440900Y-101866700D03*
D15*
X158430900Y-96786700D03*
X158230900Y-98056700D03*
X158430900Y-99326700D03*
X158230900Y-100596700D03*
D16*
X158430900Y-101866700D03*
%TD*%
D17*
%TO.C,FID4*%
X162461400Y-110030200D03*
%TD*%
%TO.C,FID3*%
X132551400Y-88930200D03*
%TD*%
D18*
%TO.C,TP1*%
X161791400Y-98440200D03*
%TD*%
%TO.C,D3*%
G36*
G01*
X134016000Y-113789750D02*
X134016000Y-114302250D01*
G75*
G02*
X133797250Y-114521000I-218750J0D01*
G01*
X133359750Y-114521000D01*
G75*
G02*
X133141000Y-114302250I0J218750D01*
G01*
X133141000Y-113789750D01*
G75*
G02*
X133359750Y-113571000I218750J0D01*
G01*
X133797250Y-113571000D01*
G75*
G02*
X134016000Y-113789750I0J-218750D01*
G01*
G37*
G36*
G01*
X135591000Y-113789750D02*
X135591000Y-114302250D01*
G75*
G02*
X135372250Y-114521000I-218750J0D01*
G01*
X134934750Y-114521000D01*
G75*
G02*
X134716000Y-114302250I0J218750D01*
G01*
X134716000Y-113789750D01*
G75*
G02*
X134934750Y-113571000I218750J0D01*
G01*
X135372250Y-113571000D01*
G75*
G02*
X135591000Y-113789750I0J-218750D01*
G01*
G37*
%TD*%
%TO.C,D2*%
G36*
G01*
X138780000Y-114302250D02*
X138780000Y-113789750D01*
G75*
G02*
X138998750Y-113571000I218750J0D01*
G01*
X139436250Y-113571000D01*
G75*
G02*
X139655000Y-113789750I0J-218750D01*
G01*
X139655000Y-114302250D01*
G75*
G02*
X139436250Y-114521000I-218750J0D01*
G01*
X138998750Y-114521000D01*
G75*
G02*
X138780000Y-114302250I0J218750D01*
G01*
G37*
G36*
G01*
X137205000Y-114302250D02*
X137205000Y-113789750D01*
G75*
G02*
X137423750Y-113571000I218750J0D01*
G01*
X137861250Y-113571000D01*
G75*
G02*
X138080000Y-113789750I0J-218750D01*
G01*
X138080000Y-114302250D01*
G75*
G02*
X137861250Y-114521000I-218750J0D01*
G01*
X137423750Y-114521000D01*
G75*
G02*
X137205000Y-114302250I0J218750D01*
G01*
G37*
%TD*%
%TO.C,D1*%
G36*
G01*
X162841650Y-90213700D02*
X162329150Y-90213700D01*
G75*
G02*
X162110400Y-89994950I0J218750D01*
G01*
X162110400Y-89557450D01*
G75*
G02*
X162329150Y-89338700I218750J0D01*
G01*
X162841650Y-89338700D01*
G75*
G02*
X163060400Y-89557450I0J-218750D01*
G01*
X163060400Y-89994950D01*
G75*
G02*
X162841650Y-90213700I-218750J0D01*
G01*
G37*
G36*
G01*
X162841650Y-91788700D02*
X162329150Y-91788700D01*
G75*
G02*
X162110400Y-91569950I0J218750D01*
G01*
X162110400Y-91132450D01*
G75*
G02*
X162329150Y-90913700I218750J0D01*
G01*
X162841650Y-90913700D01*
G75*
G02*
X163060400Y-91132450I0J-218750D01*
G01*
X163060400Y-91569950D01*
G75*
G02*
X162841650Y-91788700I-218750J0D01*
G01*
G37*
%TD*%
M02*
