%TF.GenerationSoftware,Altium Limited,Altium Designer,21.4.1 (30)*%
G04 Layer_Color=8388736*
%FSLAX26Y26*%
%MOIN*%
%TF.SameCoordinates,A13BDBB0-CAD7-4838-8454-AA6E24CDD61A*%
%TF.FilePolarity,Negative*%
%TF.FileFunction,Soldermask,Top*%
%TF.Part,Single*%
G01*
G75*
%TA.AperFunction,SMDPad,CuDef*%
%ADD19C,0.040000*%
%ADD28R,0.062992X0.185039*%
%ADD30R,0.040000X0.040000*%
%ADD34R,0.188976X0.188976*%
%ADD37R,0.011811X0.047244*%
%ADD38R,0.047244X0.011811*%
%ADD41R,0.055118X0.041339*%
%TA.AperFunction,FiducialPad,Global*%
%ADD64C,0.037402*%
%TA.AperFunction,SMDPad,CuDef*%
%ADD65R,0.039906X0.029906*%
%ADD68R,0.084646X0.190945*%
%TA.AperFunction,ComponentPad*%
%ADD69C,0.068898*%
%ADD70R,0.068898X0.068898*%
%TA.AperFunction,ViaPad*%
%ADD71C,0.013780*%
%ADD72C,0.029528*%
%ADD73C,0.025591*%
%ADD74C,0.027559*%
%TA.AperFunction,NonConductor*%
%ADD80R,0.084756X0.016737*%
%ADD81R,0.084710X0.016737*%
%TA.AperFunction,SMDPad,CuDef*%
%ADD82R,0.029528X0.025591*%
%ADD83R,0.080709X0.049213*%
%ADD84R,0.037402X0.037402*%
%ADD85R,0.029906X0.039906*%
%ADD86R,0.025591X0.029528*%
%ADD87R,0.146457X0.045276*%
%ADD88R,0.133465X0.045276*%
%ADD89R,0.045276X0.133465*%
%ADD90R,0.045276X0.146457*%
%ADD91R,0.045276X0.155512*%
%ADD92R,0.155512X0.045276*%
%ADD93R,0.039906X0.035906*%
%ADD94R,0.031496X0.019685*%
%ADD95R,0.035433X0.017717*%
%ADD96R,0.017717X0.035433*%
%ADD97R,0.033906X0.039906*%
%ADD98R,0.037402X0.041339*%
%ADD99R,0.025591X0.021654*%
%ADD100R,0.025591X0.017717*%
%ADD101R,0.035906X0.039906*%
G04:AMPARAMS|DCode=102|XSize=25.591mil|YSize=29.528mil|CornerRadius=0mil|HoleSize=0mil|Usage=FLASHONLY|Rotation=315.000|XOffset=0mil|YOffset=0mil|HoleType=Round|Shape=Rectangle|*
%AMROTATEDRECTD102*
4,1,4,-0.019487,-0.001392,0.001392,0.019487,0.019487,0.001392,-0.001392,-0.019487,-0.019487,-0.001392,0.0*
%
%ADD102ROTATEDRECTD102*%

D19*
X1036934Y360043D02*
D03*
X339371Y1214843D02*
D03*
D28*
X1033854Y1170558D02*
D03*
D30*
X289371Y1214843D02*
D03*
X239371D02*
D03*
X189371D02*
D03*
X139371D02*
D03*
D34*
X761969Y313976D02*
D03*
D37*
X336538Y921006D02*
D03*
X356223D02*
D03*
X375908D02*
D03*
X395593D02*
D03*
X415278D02*
D03*
X434964D02*
D03*
X454649D02*
D03*
X474334D02*
D03*
X494019D02*
D03*
X513704D02*
D03*
X533389D02*
D03*
X553074D02*
D03*
Y586360D02*
D03*
X533389D02*
D03*
X513704D02*
D03*
X494019D02*
D03*
X474334D02*
D03*
X454649D02*
D03*
X434964D02*
D03*
X415278D02*
D03*
X395593D02*
D03*
X375908D02*
D03*
X356223D02*
D03*
X336538D02*
D03*
D38*
X612129Y861951D02*
D03*
Y842266D02*
D03*
Y822581D02*
D03*
Y802896D02*
D03*
Y783211D02*
D03*
Y763525D02*
D03*
Y743841D02*
D03*
Y724155D02*
D03*
Y704470D02*
D03*
Y684785D02*
D03*
Y665100D02*
D03*
Y645415D02*
D03*
X277483D02*
D03*
Y665100D02*
D03*
Y684785D02*
D03*
Y704470D02*
D03*
Y724155D02*
D03*
Y743841D02*
D03*
Y763525D02*
D03*
Y783211D02*
D03*
Y802896D02*
D03*
Y822581D02*
D03*
Y842266D02*
D03*
Y861951D02*
D03*
D41*
X637795Y1225394D02*
D03*
X779528D02*
D03*
X637795Y1168307D02*
D03*
X779528D02*
D03*
X539231D02*
D03*
X397499D02*
D03*
X539231Y1225394D02*
D03*
X397499D02*
D03*
D64*
X39372Y1228985D02*
D03*
X1243154Y91281D02*
D03*
D65*
X110237Y981738D02*
D03*
Y921738D02*
D03*
Y780903D02*
D03*
Y720903D02*
D03*
Y616031D02*
D03*
Y676031D02*
D03*
Y819116D02*
D03*
Y879116D02*
D03*
X106290Y1103784D02*
D03*
Y1043784D02*
D03*
D68*
X908038Y1170558D02*
D03*
X1159681D02*
D03*
D69*
X39369Y49999D02*
D03*
Y149999D02*
D03*
X39372Y750002D02*
D03*
Y850002D02*
D03*
Y950002D02*
D03*
Y1050002D02*
D03*
Y650002D02*
D03*
Y550002D02*
D03*
Y450002D02*
D03*
Y350002D02*
D03*
Y250002D02*
D03*
X1299213Y350000D02*
D03*
Y450000D02*
D03*
Y550000D02*
D03*
Y650000D02*
D03*
Y250000D02*
D03*
Y150000D02*
D03*
Y50001D02*
D03*
D70*
X39372Y1150002D02*
D03*
X1299213Y750000D02*
D03*
D71*
X1248205Y139780D02*
D03*
X623906Y579844D02*
D03*
X342387Y142477D02*
D03*
X636198Y148636D02*
D03*
X168940Y864339D02*
D03*
X455659Y756120D02*
D03*
X422294Y806270D02*
D03*
X372047Y856217D02*
D03*
X390822Y836043D02*
D03*
X486807Y764996D02*
D03*
X402399Y787190D02*
D03*
X295585Y1038552D02*
D03*
X346766Y1039580D02*
D03*
X590774Y1225211D02*
D03*
X588038Y1161032D02*
D03*
X505183Y396347D02*
D03*
X590774Y282698D02*
D03*
X505183Y360043D02*
D03*
X331507Y970195D02*
D03*
X228812Y792402D02*
D03*
X233958Y826443D02*
D03*
X102984Y1163707D02*
D03*
X222302Y1118432D02*
D03*
X520630Y803278D02*
D03*
X110237Y849116D02*
D03*
X436830Y960007D02*
D03*
X320844Y783211D02*
D03*
X319247Y722099D02*
D03*
X319491Y678792D02*
D03*
X304620Y627684D02*
D03*
X346454Y639464D02*
D03*
X437317Y631425D02*
D03*
X340877Y739177D02*
D03*
X569974Y797894D02*
D03*
X533585Y757103D02*
D03*
X456510Y848593D02*
D03*
X439842Y1013287D02*
D03*
X482732Y859906D02*
D03*
X527556Y859936D02*
D03*
X432098Y861381D02*
D03*
X564482Y707426D02*
D03*
X443601Y540240D02*
D03*
X344744Y494049D02*
D03*
X308027Y550730D02*
D03*
X414326Y530165D02*
D03*
X612008Y620840D02*
D03*
X711137Y538681D02*
D03*
X654193Y475029D02*
D03*
X677191Y496414D02*
D03*
X204206Y472274D02*
D03*
X144847Y893056D02*
D03*
X502128Y734613D02*
D03*
X311440Y600982D02*
D03*
X297872Y576995D02*
D03*
X320844Y649961D02*
D03*
X491337Y669349D02*
D03*
X513704Y886109D02*
D03*
X532837Y639725D02*
D03*
X125020Y160228D02*
D03*
X727882Y1056301D02*
D03*
X1150081Y111906D02*
D03*
X1079725Y338745D02*
D03*
X1104595Y393802D02*
D03*
X1150081Y439723D02*
D03*
X1310518Y857857D02*
D03*
Y965068D02*
D03*
Y1179489D02*
D03*
X1113427Y696651D02*
D03*
Y726971D02*
D03*
Y763179D02*
D03*
Y792402D02*
D03*
Y827133D02*
D03*
Y865781D02*
D03*
Y902949D02*
D03*
X1113061Y940361D02*
D03*
X691096Y857937D02*
D03*
X690383Y899806D02*
D03*
X655915Y772927D02*
D03*
X736905Y628957D02*
D03*
X736725Y660536D02*
D03*
X736905Y691295D02*
D03*
Y722337D02*
D03*
Y756658D02*
D03*
Y792165D02*
D03*
Y829127D02*
D03*
Y862318D02*
D03*
Y900095D02*
D03*
Y935801D02*
D03*
X967007Y1039580D02*
D03*
X922768Y1040397D02*
D03*
X887104Y1040261D02*
D03*
X850352Y1039172D02*
D03*
X247813Y64700D02*
D03*
X356421Y61306D02*
D03*
X854712Y120329D02*
D03*
X571430Y451226D02*
D03*
X630791Y444163D02*
D03*
X819821Y565207D02*
D03*
X791723Y565054D02*
D03*
X764173Y565162D02*
D03*
X738340Y572273D02*
D03*
X736544Y983275D02*
D03*
X1020770Y470576D02*
D03*
X1022539Y522878D02*
D03*
Y556882D02*
D03*
X1044210Y579442D02*
D03*
X1065350Y598787D02*
D03*
X1085521Y620440D02*
D03*
X1107018Y642094D02*
D03*
X1113427Y667968D02*
D03*
X1139276Y968273D02*
D03*
X621601Y1016653D02*
D03*
X690945Y1012400D02*
D03*
X824521Y536451D02*
D03*
X796978Y537400D02*
D03*
X609703Y239441D02*
D03*
X550064Y409099D02*
D03*
X772417Y492541D02*
D03*
X590552Y1102363D02*
D03*
X690383Y1230006D02*
D03*
X726976Y1141719D02*
D03*
X655915Y1088091D02*
D03*
X773881Y1080763D02*
D03*
X660752Y836318D02*
D03*
X653006Y805174D02*
D03*
X526667Y1010333D02*
D03*
X623047Y937422D02*
D03*
X502128Y993241D02*
D03*
X899390Y980402D02*
D03*
X873668Y700665D02*
D03*
X189392Y248746D02*
D03*
X183071Y166789D02*
D03*
X570863Y996520D02*
D03*
X660439Y936581D02*
D03*
X1215289Y1144489D02*
D03*
Y1087478D02*
D03*
Y1171718D02*
D03*
Y1201500D02*
D03*
Y1230006D02*
D03*
Y1115983D02*
D03*
X1020009Y436406D02*
D03*
X1001425Y496812D02*
D03*
X875523Y824296D02*
D03*
X250004Y1121808D02*
D03*
X233958Y345936D02*
D03*
X277264Y354124D02*
D03*
X712073Y134522D02*
D03*
X740312Y167528D02*
D03*
X674610Y133560D02*
D03*
X437232Y114445D02*
D03*
X396712Y67224D02*
D03*
X221928Y1088091D02*
D03*
X887322Y130951D02*
D03*
X526667Y429264D02*
D03*
X1041147Y322327D02*
D03*
X887322Y579442D02*
D03*
X742280Y538681D02*
D03*
X784339Y143383D02*
D03*
X456626Y67224D02*
D03*
X962304Y133560D02*
D03*
X984573Y218127D02*
D03*
X198820Y292063D02*
D03*
X828182Y147639D02*
D03*
X271776Y300294D02*
D03*
X244762Y406183D02*
D03*
X272523Y413179D02*
D03*
X272067Y280576D02*
D03*
X564682Y668000D02*
D03*
X186314Y655561D02*
D03*
X78062Y394400D02*
D03*
X474648Y710800D02*
D03*
X1276942Y298904D02*
D03*
X1267717Y393802D02*
D03*
X78062Y103623D02*
D03*
X61209Y501917D02*
D03*
X67701Y701365D02*
D03*
X64606Y798809D02*
D03*
X64963Y901936D02*
D03*
X1310518Y1125883D02*
D03*
Y1233094D02*
D03*
Y1072278D02*
D03*
Y1018673D02*
D03*
Y911463D02*
D03*
Y804252D02*
D03*
X1090643Y1097539D02*
D03*
X1090860Y1130845D02*
D03*
Y1163995D02*
D03*
X1090643Y1197223D02*
D03*
Y1230451D02*
D03*
X968151Y1097539D02*
D03*
X967894Y1130845D02*
D03*
X966919Y1163995D02*
D03*
X968888Y1197223D02*
D03*
X968151Y1230451D02*
D03*
X1019681Y107969D02*
D03*
X1094484Y88284D02*
D03*
X1050127Y96927D02*
D03*
X992122Y111906D02*
D03*
X1027555Y296945D02*
D03*
X736905Y600982D02*
D03*
X108332Y1073635D02*
D03*
X121683Y562898D02*
D03*
X1181103Y905873D02*
D03*
Y862488D02*
D03*
X166657Y911765D02*
D03*
X120079Y751073D02*
D03*
X144464Y664702D02*
D03*
X197060Y62303D02*
D03*
X715109Y967813D02*
D03*
X119514Y1012572D02*
D03*
X121683Y487643D02*
D03*
Y314876D02*
D03*
X120851Y242497D02*
D03*
X168940Y620440D02*
D03*
X236489Y129667D02*
D03*
X202096Y127412D02*
D03*
X502087Y705936D02*
D03*
X690383Y934490D02*
D03*
X738345Y1015153D02*
D03*
X843930Y1197223D02*
D03*
Y1163995D02*
D03*
X1008743Y242497D02*
D03*
X1181103Y635204D02*
D03*
Y667036D02*
D03*
X1063603Y71310D02*
D03*
X1050127Y23853D02*
D03*
X1138266Y1006779D02*
D03*
X1150081Y225335D02*
D03*
X843930Y1130767D02*
D03*
X1146477Y62719D02*
D03*
X120851Y107143D02*
D03*
X309915Y93041D02*
D03*
X280711Y128332D02*
D03*
X278032Y204726D02*
D03*
X843930Y1230451D02*
D03*
X1220473Y33231D02*
D03*
X120851Y29287D02*
D03*
X301488Y26444D02*
D03*
X342865D02*
D03*
X704166Y691354D02*
D03*
X657003Y744378D02*
D03*
X843930Y1097539D02*
D03*
D72*
X467786Y1188976D02*
D03*
X711987D02*
D03*
X339371Y1214843D02*
D03*
X239371D02*
D03*
X289371D02*
D03*
X189371D02*
D03*
X139371D02*
D03*
D73*
X1036934Y360043D02*
D03*
D74*
X785584Y243104D02*
D03*
X832828Y290348D02*
D03*
X691096Y384836D02*
D03*
Y290348D02*
D03*
Y337592D02*
D03*
X785584Y290348D02*
D03*
X832828Y243104D02*
D03*
X738340D02*
D03*
X691096D02*
D03*
X738340Y384836D02*
D03*
Y337592D02*
D03*
Y290348D02*
D03*
X785584Y337592D02*
D03*
Y384836D02*
D03*
X832828D02*
D03*
Y337592D02*
D03*
D80*
X1159589Y1074634D02*
D03*
D81*
X908093Y1076865D02*
D03*
D82*
X293032Y970987D02*
D03*
Y1010357D02*
D03*
X292256Y899352D02*
D03*
Y938722D02*
D03*
X565113Y265443D02*
D03*
Y304813D02*
D03*
X1034745Y978893D02*
D03*
Y1018263D02*
D03*
X895285Y780909D02*
D03*
Y741539D02*
D03*
X212008Y655953D02*
D03*
Y616583D02*
D03*
X203032Y811431D02*
D03*
Y850801D02*
D03*
X937824Y448949D02*
D03*
Y409579D02*
D03*
X566790Y173051D02*
D03*
Y212421D02*
D03*
X937253Y779799D02*
D03*
Y740429D02*
D03*
X592516Y564707D02*
D03*
Y604077D02*
D03*
X601278Y441048D02*
D03*
Y401678D02*
D03*
X938024Y578051D02*
D03*
Y538681D02*
D03*
X938439Y620254D02*
D03*
Y659624D02*
D03*
X939069Y864412D02*
D03*
Y903782D02*
D03*
X899084Y903215D02*
D03*
Y863845D02*
D03*
X748129Y514961D02*
D03*
Y475591D02*
D03*
X708101Y515002D02*
D03*
Y475632D02*
D03*
D83*
X228840Y900508D02*
D03*
Y998933D02*
D03*
D84*
X741401Y1106097D02*
D03*
X806362D02*
D03*
D85*
X628228D02*
D03*
X688228D02*
D03*
X131418Y1150996D02*
D03*
X191418D02*
D03*
X410830Y995237D02*
D03*
X470830D02*
D03*
D86*
X1020382Y409618D02*
D03*
X981012D02*
D03*
X897669Y701365D02*
D03*
X937039D02*
D03*
X374804Y994599D02*
D03*
X335434D02*
D03*
X186725Y1103750D02*
D03*
X147355D02*
D03*
X658228Y909494D02*
D03*
X618858D02*
D03*
X1113427Y967813D02*
D03*
X1074057D02*
D03*
Y1008569D02*
D03*
X1113427D02*
D03*
X1020382Y941612D02*
D03*
X981012D02*
D03*
X899390Y824232D02*
D03*
X938760D02*
D03*
X891800Y157726D02*
D03*
X852430D02*
D03*
X528466Y383936D02*
D03*
X567836D02*
D03*
X530156Y343299D02*
D03*
X569526D02*
D03*
X838024Y511067D02*
D03*
X798654D02*
D03*
X838024Y469968D02*
D03*
X798654D02*
D03*
X977394Y497151D02*
D03*
X938024D02*
D03*
X847952Y553791D02*
D03*
X887322D02*
D03*
D87*
X212008Y1050689D02*
D03*
Y26673D02*
D03*
D88*
X1141339D02*
D03*
Y1050689D02*
D03*
D89*
X161418Y70768D02*
D03*
X1185434D02*
D03*
D90*
X161418Y1000098D02*
D03*
X1185434D02*
D03*
D91*
Y295965D02*
D03*
Y532185D02*
D03*
Y768405D02*
D03*
X161418D02*
D03*
Y532185D02*
D03*
Y295965D02*
D03*
D92*
X916142Y26673D02*
D03*
X679922D02*
D03*
X443701D02*
D03*
X679922Y1050689D02*
D03*
X443701D02*
D03*
X916142D02*
D03*
D93*
X211812Y702903D02*
D03*
Y762903D02*
D03*
D94*
X884874Y470576D02*
D03*
Y504040D02*
D03*
D95*
X879095Y237201D02*
D03*
Y262792D02*
D03*
Y288383D02*
D03*
X644843Y237201D02*
D03*
Y262792D02*
D03*
Y288383D02*
D03*
X879095Y365154D02*
D03*
Y390745D02*
D03*
Y339564D02*
D03*
X644843Y365154D02*
D03*
Y339564D02*
D03*
Y313973D02*
D03*
X879095D02*
D03*
X644843Y390745D02*
D03*
D96*
X838737Y196850D02*
D03*
X813147D02*
D03*
X787556D02*
D03*
X736375D02*
D03*
X710784D02*
D03*
X685194D02*
D03*
X736375Y431102D02*
D03*
X710784D02*
D03*
X685194D02*
D03*
X813147D02*
D03*
X838737D02*
D03*
X787556D02*
D03*
X761966D02*
D03*
Y196850D02*
D03*
D97*
X220473Y575308D02*
D03*
Y511308D02*
D03*
D98*
X521413Y218326D02*
D03*
Y273444D02*
D03*
X478106D02*
D03*
Y218326D02*
D03*
D99*
X1125838Y199515D02*
D03*
Y138491D02*
D03*
X1086468D02*
D03*
Y199515D02*
D03*
X987236Y267166D02*
D03*
Y328190D02*
D03*
X947866D02*
D03*
Y267166D02*
D03*
X1086468Y310590D02*
D03*
Y249566D02*
D03*
X1125838D02*
D03*
Y310590D02*
D03*
X371510Y455839D02*
D03*
Y394815D02*
D03*
X410881D02*
D03*
Y455839D02*
D03*
X280314Y1160994D02*
D03*
Y1099970D02*
D03*
X319684D02*
D03*
Y1160994D02*
D03*
D100*
X1125838Y178845D02*
D03*
Y159161D02*
D03*
X1086468D02*
D03*
Y178845D02*
D03*
X987236Y287836D02*
D03*
Y307521D02*
D03*
X947866D02*
D03*
Y287836D02*
D03*
X1086468Y289920D02*
D03*
Y270235D02*
D03*
X1125838D02*
D03*
Y289920D02*
D03*
X371510Y435169D02*
D03*
Y415484D02*
D03*
X410881D02*
D03*
Y435169D02*
D03*
X280314Y1140324D02*
D03*
Y1120639D02*
D03*
X319684D02*
D03*
Y1140324D02*
D03*
D101*
X278032Y166168D02*
D03*
X218032D02*
D03*
X279356Y249314D02*
D03*
X219357D02*
D03*
X279356Y93518D02*
D03*
X219357D02*
D03*
X623543Y968561D02*
D03*
X683543D02*
D03*
D102*
X917286Y963640D02*
D03*
X945125Y935801D02*
D03*
%TF.MD5,7aad8c6b5eff2302e67cd2310b3754a6*%
M02*
