%TF.GenerationSoftware,Altium Limited,Altium Designer,21.4.1 (30)*%
G04 Layer_Color=8421504*
%FSLAX26Y26*%
%MOIN*%
%TF.SameCoordinates,A13BDBB0-CAD7-4838-8454-AA6E24CDD61A*%
%TF.FilePolarity,Positive*%
%TF.FileFunction,Paste,Top*%
%TF.Part,Single*%
G01*
G75*
%TA.AperFunction,FiducialPad,Global*%
%ADD14C,0.031496*%
%TA.AperFunction,SMDPad,CuDef*%
%ADD15R,0.023622X0.019685*%
%ADD16R,0.074803X0.043307*%
%ADD17R,0.031496X0.031496*%
%ADD18R,0.024000X0.034000*%
%ADD20R,0.019685X0.023622*%
%ADD21R,0.140551X0.039370*%
%ADD22R,0.127559X0.039370*%
%ADD23R,0.039370X0.127559*%
%ADD24R,0.039370X0.140551*%
%ADD25R,0.039370X0.149606*%
%ADD26R,0.149606X0.039370*%
%ADD27R,0.078740X0.185039*%
%ADD28R,0.062992X0.185039*%
%ADD29R,0.034000X0.030000*%
%ADD31R,0.025591X0.013780*%
%ADD35R,0.028000X0.034000*%
%ADD36R,0.031496X0.035433*%
%ADD39R,0.019685X0.015748*%
%ADD40R,0.019685X0.011811*%
%ADD41R,0.055118X0.041339*%
%ADD42R,0.030000X0.034000*%
%ADD43R,0.034000X0.024000*%
G04:AMPARAMS|DCode=44|XSize=19.685mil|YSize=23.622mil|CornerRadius=0mil|HoleSize=0mil|Usage=FLASHONLY|Rotation=315.000|XOffset=0mil|YOffset=0mil|HoleType=Round|Shape=Rectangle|*
%AMROTATEDRECTD44*
4,1,4,-0.015311,-0.001392,0.001392,0.015311,0.015311,0.001392,-0.001392,-0.015311,-0.015311,-0.001392,0.0*
%
%ADD44ROTATEDRECTD44*%

%ADD76R,0.025591X0.007874*%
%ADD77R,0.007874X0.025591*%
%ADD78R,0.007874X0.043307*%
%ADD79R,0.043307X0.007874*%
G36*
X824961Y345473D02*
X793465D01*
Y376969D01*
X824961D01*
Y345473D01*
D02*
G37*
G36*
X730473D02*
X698977D01*
Y376969D01*
X730473D01*
Y345473D01*
D02*
G37*
G36*
X777717Y345472D02*
X746221D01*
Y376969D01*
X777717D01*
Y345472D01*
D02*
G37*
G36*
X824961Y298228D02*
X793465D01*
Y329724D01*
X824961D01*
Y298228D01*
D02*
G37*
G36*
X777717Y298228D02*
X746221D01*
Y329724D01*
X777717D01*
Y298228D01*
D02*
G37*
G36*
X730473D02*
X698977D01*
Y329724D01*
X730473D01*
Y298228D01*
D02*
G37*
G36*
X777717Y250984D02*
X746221D01*
Y282480D01*
X777717D01*
Y250984D01*
D02*
G37*
G36*
X730473D02*
X698977D01*
Y282480D01*
X730473D01*
Y250984D01*
D02*
G37*
G36*
X824961Y250984D02*
X793465D01*
Y282480D01*
X824961D01*
Y250984D01*
D02*
G37*
D14*
X39372Y1228985D02*
D03*
X1243154Y91281D02*
D03*
D15*
X293032Y970987D02*
D03*
Y1010357D02*
D03*
X292256Y899352D02*
D03*
Y938722D02*
D03*
X565113Y265443D02*
D03*
Y304813D02*
D03*
X1034745Y978893D02*
D03*
Y1018263D02*
D03*
X895285Y780909D02*
D03*
Y741539D02*
D03*
X212008Y655953D02*
D03*
Y616583D02*
D03*
X203032Y811431D02*
D03*
Y850801D02*
D03*
X937824Y448949D02*
D03*
Y409579D02*
D03*
X566790Y173051D02*
D03*
Y212421D02*
D03*
X937253Y779799D02*
D03*
Y740429D02*
D03*
X592516Y564707D02*
D03*
Y604077D02*
D03*
X601278Y441048D02*
D03*
Y401678D02*
D03*
X938024Y578051D02*
D03*
Y538681D02*
D03*
X938439Y620254D02*
D03*
Y659624D02*
D03*
X939069Y864412D02*
D03*
Y903782D02*
D03*
X899084Y903215D02*
D03*
Y863845D02*
D03*
X748129Y514961D02*
D03*
Y475591D02*
D03*
X708101Y515002D02*
D03*
Y475632D02*
D03*
D16*
X228840Y900508D02*
D03*
Y998933D02*
D03*
D17*
X741401Y1106097D02*
D03*
X806362D02*
D03*
D18*
X628228D02*
D03*
X688228D02*
D03*
X131418Y1150996D02*
D03*
X191418D02*
D03*
X410830Y995237D02*
D03*
X470830D02*
D03*
D20*
X1020382Y409618D02*
D03*
X981012D02*
D03*
X897669Y701365D02*
D03*
X937039D02*
D03*
X374804Y994599D02*
D03*
X335434D02*
D03*
X186725Y1103750D02*
D03*
X147355D02*
D03*
X658228Y909494D02*
D03*
X618858D02*
D03*
X1113427Y967813D02*
D03*
X1074057D02*
D03*
Y1008569D02*
D03*
X1113427D02*
D03*
X1020382Y941612D02*
D03*
X981012D02*
D03*
X899390Y824232D02*
D03*
X938760D02*
D03*
X891800Y157726D02*
D03*
X852430D02*
D03*
X528466Y383936D02*
D03*
X567836D02*
D03*
X530156Y343299D02*
D03*
X569526D02*
D03*
X838024Y511067D02*
D03*
X798654D02*
D03*
X838024Y469968D02*
D03*
X798654D02*
D03*
X977394Y497151D02*
D03*
X938024D02*
D03*
X847952Y553791D02*
D03*
X887322D02*
D03*
D21*
X212008Y1050689D02*
D03*
Y26673D02*
D03*
D22*
X1141339D02*
D03*
Y1050689D02*
D03*
D23*
X161418Y70768D02*
D03*
X1185434D02*
D03*
D24*
X161418Y1000098D02*
D03*
X1185434D02*
D03*
D25*
Y295965D02*
D03*
Y532185D02*
D03*
Y768405D02*
D03*
X161418D02*
D03*
Y532185D02*
D03*
Y295965D02*
D03*
D26*
X916142Y26673D02*
D03*
X679922D02*
D03*
X443701D02*
D03*
X679922Y1050689D02*
D03*
X443701D02*
D03*
X916142D02*
D03*
D27*
X908038Y1170558D02*
D03*
X1159681D02*
D03*
D28*
X1033854D02*
D03*
D29*
X211812Y702903D02*
D03*
Y762903D02*
D03*
D31*
X884874Y470576D02*
D03*
Y504040D02*
D03*
D35*
X220473Y575308D02*
D03*
Y511308D02*
D03*
D36*
X521413Y218326D02*
D03*
Y273444D02*
D03*
X478106D02*
D03*
Y218326D02*
D03*
D39*
X1125838Y199515D02*
D03*
Y138491D02*
D03*
X1086468D02*
D03*
Y199515D02*
D03*
X987236Y267166D02*
D03*
Y328190D02*
D03*
X947866D02*
D03*
Y267166D02*
D03*
X1086468Y310590D02*
D03*
Y249566D02*
D03*
X1125838D02*
D03*
Y310590D02*
D03*
X371510Y455839D02*
D03*
Y394815D02*
D03*
X410881D02*
D03*
Y455839D02*
D03*
X280314Y1160994D02*
D03*
Y1099970D02*
D03*
X319684D02*
D03*
Y1160994D02*
D03*
D40*
X1125838Y178845D02*
D03*
Y159161D02*
D03*
X1086468D02*
D03*
Y178845D02*
D03*
X987236Y287836D02*
D03*
Y307521D02*
D03*
X947866D02*
D03*
Y287836D02*
D03*
X1086468Y289920D02*
D03*
Y270235D02*
D03*
X1125838D02*
D03*
Y289920D02*
D03*
X371510Y435169D02*
D03*
Y415484D02*
D03*
X410881D02*
D03*
Y435169D02*
D03*
X280314Y1140324D02*
D03*
Y1120639D02*
D03*
X319684D02*
D03*
Y1140324D02*
D03*
D41*
X637795Y1225394D02*
D03*
X779528D02*
D03*
X637795Y1168307D02*
D03*
X779528D02*
D03*
X539231D02*
D03*
X397499D02*
D03*
X539231Y1225394D02*
D03*
X397499D02*
D03*
D42*
X278032Y166168D02*
D03*
X218032D02*
D03*
X279356Y249314D02*
D03*
X219357D02*
D03*
X279356Y93518D02*
D03*
X219357D02*
D03*
X623543Y968561D02*
D03*
X683543D02*
D03*
D43*
X110237Y981738D02*
D03*
Y921738D02*
D03*
Y780903D02*
D03*
Y720903D02*
D03*
Y616031D02*
D03*
Y676031D02*
D03*
Y819116D02*
D03*
Y879116D02*
D03*
X106290Y1103784D02*
D03*
Y1043784D02*
D03*
D44*
X917286Y963640D02*
D03*
X945125Y935801D02*
D03*
D76*
X879095Y237201D02*
D03*
Y262792D02*
D03*
Y288383D02*
D03*
X644843Y237201D02*
D03*
Y262792D02*
D03*
Y288383D02*
D03*
X879095Y365154D02*
D03*
Y390745D02*
D03*
Y339564D02*
D03*
X644843Y365154D02*
D03*
Y339564D02*
D03*
Y313973D02*
D03*
X879095D02*
D03*
X644843Y390745D02*
D03*
D77*
X838737Y196850D02*
D03*
X813147D02*
D03*
X787556D02*
D03*
X736375D02*
D03*
X710784D02*
D03*
X685194D02*
D03*
X736375Y431102D02*
D03*
X710784D02*
D03*
X685194D02*
D03*
X813147D02*
D03*
X838737D02*
D03*
X787556D02*
D03*
X761966D02*
D03*
Y196850D02*
D03*
D78*
X336538Y921006D02*
D03*
X356223D02*
D03*
X375908D02*
D03*
X395593D02*
D03*
X415278D02*
D03*
X434964D02*
D03*
X454649D02*
D03*
X474334D02*
D03*
X494019D02*
D03*
X513704D02*
D03*
X533389D02*
D03*
X553074D02*
D03*
Y586360D02*
D03*
X533389D02*
D03*
X513704D02*
D03*
X494019D02*
D03*
X474334D02*
D03*
X454649D02*
D03*
X434964D02*
D03*
X415278D02*
D03*
X395593D02*
D03*
X375908D02*
D03*
X356223D02*
D03*
X336538D02*
D03*
D79*
X612129Y861951D02*
D03*
Y842266D02*
D03*
Y822581D02*
D03*
Y802896D02*
D03*
Y783211D02*
D03*
Y763525D02*
D03*
Y743841D02*
D03*
Y724155D02*
D03*
Y704470D02*
D03*
Y684785D02*
D03*
Y665100D02*
D03*
Y645415D02*
D03*
X277483D02*
D03*
Y665100D02*
D03*
Y684785D02*
D03*
Y704470D02*
D03*
Y724155D02*
D03*
Y743841D02*
D03*
Y763525D02*
D03*
Y783211D02*
D03*
Y802896D02*
D03*
Y822581D02*
D03*
Y842266D02*
D03*
Y861951D02*
D03*
%TF.MD5,f1a448c0429e74fdec5b2a9dc829fbca*%
M02*
