%TF.GenerationSoftware,Altium Limited,Altium Designer,21.4.1 (30)*%
G04 Layer_Color=65535*
%FSLAX26Y26*%
%MOIN*%
%TF.SameCoordinates,A13BDBB0-CAD7-4838-8454-AA6E24CDD61A*%
%TF.FilePolarity,Positive*%
%TF.FileFunction,Legend,Top*%
%TF.Part,Single*%
G01*
G75*
%TA.AperFunction,NonConductor*%
%ADD48C,0.007874*%
%ADD59C,0.008000*%
%ADD60C,0.005906*%
%ADD61C,0.010000*%
%ADD62C,0.007087*%
%ADD75C,0.009842*%
D48*
X264274Y933972D02*
Y965468D01*
X193407Y933972D02*
Y965468D01*
X713842Y1090349D02*
Y1121845D01*
X769944Y1121845D02*
X777818D01*
X769944Y1090349D02*
X777818D01*
X1118111Y66930D02*
Y98426D01*
X539567Y22933D02*
X586812D01*
X303347D02*
X350591D01*
X775788D02*
X823032D01*
X1012008D02*
X1059253D01*
X156229Y391702D02*
Y438946D01*
Y155481D02*
Y202726D01*
Y627922D02*
Y675167D01*
Y864143D02*
Y911387D01*
X1187707Y391676D02*
Y438920D01*
Y155456D02*
Y202700D01*
Y627897D02*
Y675141D01*
Y864117D02*
Y911361D01*
X775414Y1054857D02*
X822658D01*
X1011634D02*
X1058878D01*
X539193D02*
X586437D01*
X302973D02*
X350217D01*
X303074Y882620D02*
Y895415D01*
Y611951D02*
Y624746D01*
X573743Y611951D02*
X586538D01*
X303074D02*
X315869D01*
X586538Y882620D02*
Y895415D01*
Y611951D02*
Y624746D01*
X573743Y895415D02*
X586538D01*
X303074D02*
X315869D01*
X1106300Y126902D02*
Y170209D01*
Y209579D01*
Y170209D02*
Y212483D01*
X1098426Y221391D02*
X1106300Y212483D01*
X673661Y1236850D02*
Y1251850D01*
X743661Y1236850D02*
Y1251850D01*
X673661D02*
X743661D01*
X633661Y1136850D02*
X803661D01*
X967404Y254198D02*
X975278Y245291D01*
X967404Y254198D02*
Y296472D01*
Y257101D02*
Y296472D01*
Y339779D01*
X1098426Y332465D02*
X1106300Y323558D01*
Y281284D02*
Y323558D01*
Y281284D02*
Y320654D01*
Y237977D02*
Y281284D01*
X383469Y477714D02*
X391343Y468806D01*
Y426533D02*
Y468806D01*
Y426533D02*
Y465903D01*
Y383226D02*
Y426533D01*
X292272Y1182869D02*
X300146Y1173961D01*
Y1131688D02*
Y1173961D01*
Y1131688D02*
Y1171058D01*
Y1088381D02*
Y1131688D01*
X1118111Y66930D02*
X1145670Y82678D01*
X1118111Y98426D02*
X1145670Y82678D01*
X393365Y1136850D02*
X563365D01*
X433365Y1251850D02*
X503365D01*
Y1236850D02*
Y1251850D01*
X433365Y1236850D02*
Y1251850D01*
X381387Y1119121D02*
Y1087635D01*
X397130D01*
X402378Y1092883D01*
Y1098130D01*
X397130Y1103378D01*
X381387D01*
X397130D01*
X402378Y1108626D01*
Y1113873D01*
X397130Y1119121D01*
X381387D01*
X428616D02*
X418121D01*
X412873Y1113873D01*
Y1092883D01*
X418121Y1087635D01*
X428616D01*
X433864Y1092883D01*
Y1113873D01*
X428616Y1119121D01*
X460102D02*
X449607D01*
X444359Y1113873D01*
Y1092883D01*
X449607Y1087635D01*
X460102D01*
X465350Y1092883D01*
Y1113873D01*
X460102Y1119121D01*
X475845D02*
X496836D01*
X486340D01*
Y1087635D01*
X524477Y1086405D02*
Y1117891D01*
X540220D01*
X545468Y1112643D01*
Y1102148D01*
X540220Y1096900D01*
X524477D01*
X534972D02*
X545468Y1086405D01*
X576954Y1112643D02*
X571706Y1117891D01*
X561211D01*
X555963Y1112643D01*
Y1107395D01*
X561211Y1102148D01*
X571706D01*
X576954Y1096900D01*
Y1091652D01*
X571706Y1086405D01*
X561211D01*
X555963Y1091652D01*
X587449Y1117891D02*
X608440D01*
X597944D01*
Y1086405D01*
D59*
X651228Y1123097D02*
X665228D01*
Y1089097D02*
Y1123097D01*
X651228Y1089097D02*
X665228D01*
X651228D02*
Y1123097D01*
X1000697Y398791D02*
Y420444D01*
X194812Y727903D02*
X228812D01*
X194812Y737903D02*
X228812D01*
X874047Y487314D02*
X895701D01*
X1023918Y998578D02*
X1045571D01*
X644138Y196191D02*
Y211939D01*
Y196191D02*
X659886D01*
X880246Y195938D02*
Y209718D01*
X864498Y195938D02*
X880246D01*
X880197Y415876D02*
Y431624D01*
X864449D02*
X880197D01*
X655319Y430607D02*
X667130D01*
X643508Y406985D02*
X667130Y430607D01*
X643508Y406985D02*
Y430607D01*
X655319D01*
X232473Y538308D02*
Y548308D01*
X208473Y538308D02*
Y548308D01*
X232473D01*
X208473Y538308D02*
X232473D01*
X154418Y1167996D02*
X168418D01*
Y1133996D02*
Y1167996D01*
X154418Y1133996D02*
X168418D01*
X154418D02*
Y1167996D01*
X253032Y149168D02*
Y183168D01*
X243032Y149168D02*
Y183168D01*
X254357Y232314D02*
Y266314D01*
X244357Y232314D02*
Y266314D01*
X93237Y944738D02*
X127237D01*
Y958738D01*
X93237D02*
X127237D01*
X93237Y944738D02*
Y958738D01*
Y743903D02*
X127237D01*
Y757903D01*
X93237D02*
X127237D01*
X93237Y743903D02*
Y757903D01*
Y653031D02*
X127237D01*
X93237Y639031D02*
Y653031D01*
Y639031D02*
X127237D01*
Y653031D01*
X93237Y856116D02*
X127237D01*
X93237Y842116D02*
Y856116D01*
Y842116D02*
X127237D01*
Y856116D01*
X254357Y76518D02*
Y110518D01*
X244357Y76518D02*
Y110518D01*
X447830Y978237D02*
Y1012237D01*
X433830D02*
X447830D01*
X433830Y978237D02*
Y1012237D01*
Y978237D02*
X447830D01*
X648543Y951561D02*
Y985561D01*
X658543Y951561D02*
Y985561D01*
X89290Y1066784D02*
X123290D01*
Y1080784D01*
X89290D02*
X123290D01*
X89290Y1066784D02*
Y1080784D01*
X926426Y760114D02*
X948079D01*
X927612Y639939D02*
X949266D01*
X928242Y884097D02*
X949895D01*
D60*
X546971Y190885D02*
Y200610D01*
X533931Y190885D02*
X546971D01*
X536294Y301003D02*
X546019D01*
Y290452D02*
Y301003D01*
X453499Y291279D02*
Y301003D01*
X464050D01*
X453499Y189783D02*
X463224D01*
X453499D02*
Y200334D01*
D61*
X1238563Y1080591D02*
Y1240591D01*
X821240Y1133996D02*
Y1240591D01*
D62*
X122688Y572797D02*
X91202D01*
Y551807D01*
Y536064D02*
Y525568D01*
X96450Y520321D01*
X106945D01*
X112193Y525568D01*
Y536064D01*
X106945Y541312D01*
X96450D01*
X91202Y536064D01*
X122688Y509826D02*
Y488835D01*
Y499330D01*
X91202D01*
X112193Y478340D02*
X91202D01*
X101698D01*
X106945Y473092D01*
X112193Y467844D01*
Y462597D01*
X85955Y446854D02*
Y425863D01*
X91202Y394377D02*
Y415368D01*
X112193Y394377D01*
X117441D01*
X122688Y399625D01*
Y410120D01*
X117441Y415368D01*
X91202Y383882D02*
Y373387D01*
Y378634D01*
X122688D01*
X117441Y383882D01*
Y357644D02*
X122688Y352396D01*
Y341901D01*
X117441Y336653D01*
X96450D01*
X91202Y341901D01*
Y352396D01*
X96450Y357644D01*
X117441D01*
X91202Y310415D02*
X122688D01*
X106945Y326158D01*
Y305167D01*
X91202Y273681D02*
Y294672D01*
X112193Y273681D01*
X117441D01*
X122688Y278929D01*
Y289424D01*
X117441Y294672D01*
X91202Y242195D02*
Y263186D01*
X112193Y242195D01*
X117441D01*
X122688Y247443D01*
Y257938D01*
X117441Y263186D01*
X122688Y200214D02*
X91202D01*
Y184471D01*
X96450Y179224D01*
X101698D01*
X106945Y184471D01*
Y200214D01*
Y184471D01*
X112193Y179224D01*
X117441D01*
X122688Y184471D01*
Y200214D01*
D75*
X233192Y862935D02*
G03*
X233192Y862935I-4921J0D01*
G01*
%TF.MD5,e670b93e9c590861f1a056da3fb3848e*%
M02*
