%TF.GenerationSoftware,Altium Limited,Altium Designer,21.4.1 (30)*%
G04 Layer_Physical_Order=2*
G04 Layer_Color=36540*
%FSLAX26Y26*%
%MOIN*%
%TF.SameCoordinates,A13BDBB0-CAD7-4838-8454-AA6E24CDD61A*%
%TF.FilePolarity,Positive*%
%TF.FileFunction,Copper,L2,Inr,Signal*%
%TF.Part,Single*%
G01*
G75*
%TA.AperFunction,Conductor*%
%ADD11C,0.011811*%
%ADD45C,0.019685*%
%TA.AperFunction,NonConductor*%
%ADD48C,0.007874*%
%TA.AperFunction,ComponentPad*%
%ADD50C,0.062992*%
%TA.AperFunction,ViaPad*%
%ADD52C,0.019685*%
%ADD53C,0.039370*%
%ADD55C,0.023622*%
G36*
X1326541Y780828D02*
X1322743Y777827D01*
X1314730Y774887D01*
X1310527Y777314D01*
X1303072Y779312D01*
X1295354D01*
X1287899Y777314D01*
X1281216Y773455D01*
X1275758Y767998D01*
X1271900Y761314D01*
X1269902Y753859D01*
Y746142D01*
X1271900Y738687D01*
X1275758Y732003D01*
X1281216Y726546D01*
X1287899Y722687D01*
X1295354Y720689D01*
X1303072D01*
X1310527Y722687D01*
X1314730Y725114D01*
X1322743Y722174D01*
X1326541Y719173D01*
Y680828D01*
X1322743Y677827D01*
X1314730Y674887D01*
X1310527Y677314D01*
X1303072Y679312D01*
X1295354D01*
X1287899Y677314D01*
X1281216Y673455D01*
X1275758Y667998D01*
X1271900Y661314D01*
X1269902Y653859D01*
Y646142D01*
X1271900Y638687D01*
X1275758Y632003D01*
X1281216Y626546D01*
X1287899Y622687D01*
X1295354Y620689D01*
X1303072D01*
X1310527Y622687D01*
X1314730Y625114D01*
X1322743Y622174D01*
X1326541Y619173D01*
Y580828D01*
X1322743Y577827D01*
X1314730Y574887D01*
X1310527Y577314D01*
X1303072Y579312D01*
X1295354D01*
X1287899Y577314D01*
X1281216Y573455D01*
X1275758Y567998D01*
X1271900Y561314D01*
X1269902Y553859D01*
Y546142D01*
X1271900Y538687D01*
X1275758Y532003D01*
X1281216Y526546D01*
X1287899Y522687D01*
X1295354Y520689D01*
X1303072D01*
X1310527Y522687D01*
X1314730Y525114D01*
X1322743Y522174D01*
X1326541Y519173D01*
Y480828D01*
X1322743Y477827D01*
X1314730Y474887D01*
X1310527Y477314D01*
X1303072Y479312D01*
X1295354D01*
X1287899Y477314D01*
X1281216Y473455D01*
X1275758Y467998D01*
X1271900Y461314D01*
X1269902Y453859D01*
Y446142D01*
X1271900Y438687D01*
X1275758Y432003D01*
X1281216Y426546D01*
X1287899Y422687D01*
X1295354Y420690D01*
X1303072D01*
X1310527Y422687D01*
X1314730Y425114D01*
X1322743Y422175D01*
X1326541Y419173D01*
Y380828D01*
X1322743Y377827D01*
X1314730Y374887D01*
X1310527Y377314D01*
X1303072Y379312D01*
X1295354D01*
X1287899Y377314D01*
X1281216Y373455D01*
X1275758Y367998D01*
X1271900Y361314D01*
X1269902Y353859D01*
Y346142D01*
X1271900Y338687D01*
X1275758Y332003D01*
X1281216Y326546D01*
X1287899Y322687D01*
X1295354Y320690D01*
X1303072D01*
X1310527Y322687D01*
X1314730Y325114D01*
X1322743Y322175D01*
X1326541Y319173D01*
Y280828D01*
X1322743Y277827D01*
X1314730Y274887D01*
X1310527Y277314D01*
X1303072Y279312D01*
X1295354D01*
X1287899Y277314D01*
X1281216Y273455D01*
X1275758Y267998D01*
X1271900Y261314D01*
X1269902Y253859D01*
Y246142D01*
X1271900Y238687D01*
X1275758Y232003D01*
X1281216Y226546D01*
X1287899Y222687D01*
X1295354Y220690D01*
X1303072D01*
X1310527Y222687D01*
X1314730Y225114D01*
X1322743Y222174D01*
X1326541Y219173D01*
Y180828D01*
X1322743Y177827D01*
X1314730Y174887D01*
X1310527Y177314D01*
X1303072Y179311D01*
X1295354D01*
X1287899Y177314D01*
X1281216Y173455D01*
X1275758Y167998D01*
X1271900Y161314D01*
X1269902Y153859D01*
Y146142D01*
X1271900Y138687D01*
X1275758Y132003D01*
X1281216Y126546D01*
X1287899Y122687D01*
X1295354Y120689D01*
X1303072D01*
X1310527Y122687D01*
X1314730Y125114D01*
X1322743Y122174D01*
X1326541Y119173D01*
Y80828D01*
X1322743Y77826D01*
X1314730Y74887D01*
X1310527Y77314D01*
X1303072Y79311D01*
X1295354D01*
X1290313Y77961D01*
X1289098Y78362D01*
X1283729Y82143D01*
X1280039Y86414D01*
X1280680Y91281D01*
X1279401Y100993D01*
X1275653Y110043D01*
X1269689Y117815D01*
X1261917Y123779D01*
X1252867Y127528D01*
X1243154Y128806D01*
X1233442Y127528D01*
X1224392Y123779D01*
X1216620Y117815D01*
X1210656Y110043D01*
X1206907Y100993D01*
X1205629Y91281D01*
X1206907Y81568D01*
X1210656Y72518D01*
X1216620Y64746D01*
X1224392Y58782D01*
X1233442Y55033D01*
X1243154Y53755D01*
X1252867Y55033D01*
X1258629Y57420D01*
X1262261Y56273D01*
X1266989Y53218D01*
X1269902Y50022D01*
Y46142D01*
X1271900Y38687D01*
X1274699Y33838D01*
X1295037Y54176D01*
X1303389Y45825D01*
X1283051Y25486D01*
X1285879Y23853D01*
X1285405Y16135D01*
X1283847Y12042D01*
X79361D01*
X74776Y21806D01*
X74281Y23853D01*
X79725Y33283D01*
X82676Y44297D01*
Y55700D01*
X79725Y66715D01*
X74129Y76407D01*
X43545Y45823D01*
X35193Y54175D01*
X65777Y84759D01*
X56085Y90355D01*
X45071Y93306D01*
X33667D01*
X23853Y90676D01*
X21418Y91229D01*
X12042Y97867D01*
Y119170D01*
X15838Y122170D01*
X23853Y125111D01*
X28055Y122685D01*
X35510Y120688D01*
X43228D01*
X50683Y122685D01*
X57366Y126544D01*
X62824Y132001D01*
X66683Y138685D01*
X68680Y146140D01*
Y153858D01*
X66683Y161312D01*
X62824Y167996D01*
X57366Y173453D01*
X50683Y177312D01*
X43228Y179310D01*
X35510D01*
X28055Y177312D01*
X23853Y174886D01*
X15838Y177828D01*
X12042Y180828D01*
Y219177D01*
X15844Y222179D01*
X23853Y225117D01*
X28059Y222689D01*
X35513Y220691D01*
X43231D01*
X50686Y222689D01*
X57370Y226548D01*
X62827Y232005D01*
X66686Y238689D01*
X68683Y246143D01*
Y253861D01*
X66686Y261316D01*
X62827Y268000D01*
X57370Y273457D01*
X50686Y277316D01*
X43231Y279313D01*
X35513D01*
X28059Y277316D01*
X23853Y274888D01*
X15844Y277825D01*
X12042Y280828D01*
Y319177D01*
X15844Y322179D01*
X23853Y325116D01*
X28059Y322689D01*
X35513Y320691D01*
X43231D01*
X50686Y322689D01*
X57370Y326548D01*
X62827Y332005D01*
X66686Y338688D01*
X68683Y346143D01*
Y353861D01*
X66686Y361316D01*
X62827Y368000D01*
X57370Y373457D01*
X50686Y377316D01*
X43231Y379313D01*
X35513D01*
X28059Y377316D01*
X23853Y374888D01*
X15844Y377825D01*
X12042Y380828D01*
Y419177D01*
X15844Y422179D01*
X23853Y425116D01*
X28059Y422689D01*
X35513Y420691D01*
X43231D01*
X50686Y422689D01*
X57370Y426548D01*
X62827Y432005D01*
X66686Y438688D01*
X68683Y446143D01*
Y453861D01*
X66686Y461316D01*
X62827Y468000D01*
X57370Y473457D01*
X50686Y477316D01*
X43231Y479313D01*
X35513D01*
X28059Y477316D01*
X23853Y474888D01*
X15844Y477825D01*
X12042Y480828D01*
Y519177D01*
X15844Y522179D01*
X23853Y525116D01*
X28059Y522689D01*
X35513Y520691D01*
X43231D01*
X50686Y522689D01*
X57370Y526548D01*
X62827Y532005D01*
X66686Y538688D01*
X68683Y546143D01*
Y553861D01*
X66686Y561316D01*
X62827Y568000D01*
X57370Y573457D01*
X50686Y577316D01*
X43231Y579313D01*
X35513D01*
X28059Y577316D01*
X23853Y574888D01*
X15844Y577825D01*
X12042Y580828D01*
Y619177D01*
X15844Y622179D01*
X23853Y625116D01*
X28059Y622689D01*
X35513Y620691D01*
X43231D01*
X50686Y622689D01*
X57370Y626548D01*
X62827Y632005D01*
X66686Y638688D01*
X68683Y646143D01*
Y653861D01*
X66686Y661316D01*
X62827Y668000D01*
X57370Y673457D01*
X50686Y677316D01*
X43231Y679313D01*
X35513D01*
X28059Y677316D01*
X23853Y674888D01*
X15844Y677825D01*
X12042Y680828D01*
Y719177D01*
X15844Y722179D01*
X23853Y725116D01*
X28059Y722689D01*
X35513Y720691D01*
X43231D01*
X50686Y722689D01*
X57370Y726548D01*
X62827Y732005D01*
X66686Y738688D01*
X68683Y746143D01*
Y753861D01*
X66686Y761316D01*
X62827Y768000D01*
X57370Y773457D01*
X50686Y777316D01*
X43231Y779313D01*
X35513D01*
X28059Y777316D01*
X23853Y774888D01*
X15844Y777825D01*
X12042Y780828D01*
Y819177D01*
X15844Y822179D01*
X23853Y825116D01*
X28059Y822689D01*
X35513Y820691D01*
X43231D01*
X50686Y822689D01*
X57370Y826548D01*
X62827Y832005D01*
X66686Y838688D01*
X68683Y846143D01*
Y853861D01*
X66686Y861316D01*
X62827Y868000D01*
X57370Y873457D01*
X50686Y877316D01*
X43231Y879313D01*
X35513D01*
X28059Y877316D01*
X23853Y874888D01*
X15844Y877825D01*
X12042Y880828D01*
Y919177D01*
X15844Y922179D01*
X23853Y925116D01*
X28059Y922689D01*
X35513Y920691D01*
X43231D01*
X50686Y922689D01*
X57370Y926548D01*
X62827Y932005D01*
X66686Y938688D01*
X68683Y946143D01*
Y953861D01*
X66686Y961316D01*
X62827Y968000D01*
X57370Y973457D01*
X50686Y977316D01*
X43231Y979313D01*
X35513D01*
X28059Y977316D01*
X23853Y974888D01*
X15844Y977825D01*
X12042Y980828D01*
Y1019177D01*
X15844Y1022179D01*
X23853Y1025117D01*
X28059Y1022689D01*
X35513Y1020691D01*
X43231D01*
X50686Y1022689D01*
X57370Y1026547D01*
X62827Y1032005D01*
X66686Y1038688D01*
X68683Y1046143D01*
Y1053861D01*
X66686Y1061316D01*
X62827Y1067999D01*
X57370Y1073457D01*
X50686Y1077316D01*
X43231Y1079313D01*
X35513D01*
X28059Y1077316D01*
X23853Y1074888D01*
X15844Y1077825D01*
X12042Y1080828D01*
Y1119177D01*
X15844Y1122179D01*
X23853Y1125117D01*
X28059Y1122689D01*
X35513Y1120691D01*
X43231D01*
X50686Y1122689D01*
X57370Y1126547D01*
X62827Y1132005D01*
X66686Y1138688D01*
X68683Y1146143D01*
Y1153861D01*
X66686Y1161316D01*
X62827Y1167999D01*
X57370Y1173457D01*
X50686Y1177316D01*
X43231Y1179313D01*
X35513D01*
X28059Y1177316D01*
X26837Y1176610D01*
X15493Y1181917D01*
X15079Y1188485D01*
X18470Y1190823D01*
X25957Y1194272D01*
X29660Y1192738D01*
X39372Y1191459D01*
X49085Y1192738D01*
X58135Y1196487D01*
X65907Y1202450D01*
X71870Y1210222D01*
X75619Y1219273D01*
X76898Y1228985D01*
X75976Y1235990D01*
X80485Y1243612D01*
X84633Y1247801D01*
X126347D01*
X128697Y1235990D01*
X125990Y1234869D01*
X119345Y1228224D01*
X115749Y1219542D01*
Y1210144D01*
X119345Y1201462D01*
X125990Y1194817D01*
X134672Y1191221D01*
X144069D01*
X152751Y1194817D01*
X157391Y1199457D01*
X164371Y1200628D01*
X171350Y1199457D01*
X175990Y1194817D01*
X184672Y1191221D01*
X194069D01*
X202751Y1194817D01*
X209396Y1201462D01*
X212993Y1210144D01*
Y1219542D01*
X209396Y1228224D01*
X202751Y1234869D01*
X200044Y1235990D01*
X202394Y1247801D01*
X276348D01*
X278697Y1235990D01*
X275990Y1234869D01*
X269345Y1228224D01*
X265749Y1219542D01*
Y1210144D01*
X269345Y1201462D01*
X275990Y1194817D01*
X284672Y1191221D01*
X294069D01*
X302751Y1194817D01*
X307391Y1199457D01*
X314371Y1200628D01*
X321350Y1199457D01*
X325990Y1194817D01*
X334672Y1191221D01*
X344069D01*
X352751Y1194817D01*
X359396Y1201462D01*
X362993Y1210144D01*
Y1219542D01*
X359396Y1228224D01*
X352751Y1234869D01*
X350044Y1235990D01*
X352394Y1247801D01*
X1233053D01*
Y1148792D01*
X1296035D01*
Y1247801D01*
X1326541D01*
Y780828D01*
D02*
G37*
%LPC*%
G36*
X472485Y1212598D02*
X463087D01*
X454405Y1209002D01*
X447760Y1202357D01*
X444164Y1193675D01*
Y1184278D01*
X447760Y1175596D01*
X454405Y1168951D01*
X463087Y1165354D01*
X472485D01*
X481167Y1168951D01*
X487812Y1175596D01*
X491408Y1184278D01*
Y1193675D01*
X487812Y1202357D01*
X481167Y1209002D01*
X472485Y1212598D01*
D02*
G37*
G36*
X106117Y1179455D02*
X99852D01*
X94064Y1177058D01*
X89634Y1172628D01*
X87237Y1166840D01*
Y1160575D01*
X89634Y1154787D01*
X94064Y1150357D01*
X99852Y1147959D01*
X106117D01*
X111905Y1150357D01*
X116335Y1154787D01*
X118733Y1160575D01*
Y1166840D01*
X116335Y1172628D01*
X111905Y1177058D01*
X106117Y1179455D01*
D02*
G37*
G36*
X253136Y1137556D02*
X246871D01*
X241083Y1135159D01*
X236653Y1130729D01*
X225434Y1134180D01*
X219169D01*
X213381Y1131782D01*
X208951Y1127352D01*
X206554Y1121564D01*
Y1115299D01*
X208951Y1109511D01*
X212186Y1103074D01*
X208577Y1097011D01*
X206180Y1091223D01*
Y1084958D01*
X208577Y1079170D01*
X213007Y1074740D01*
X218795Y1072343D01*
X225060D01*
X230848Y1074740D01*
X235278Y1079170D01*
X237676Y1084958D01*
Y1091223D01*
X235279Y1097011D01*
X235125Y1097316D01*
X243415Y1107123D01*
X246871Y1106060D01*
X253136D01*
X258924Y1108457D01*
X263354Y1112888D01*
X265752Y1118676D01*
Y1124940D01*
X263354Y1130728D01*
X258924Y1135159D01*
X253136Y1137556D01*
D02*
G37*
G36*
X716686Y1212598D02*
X707289D01*
X698607Y1209002D01*
X691962Y1202357D01*
X688365Y1193675D01*
Y1184278D01*
X691962Y1175596D01*
X698607Y1168951D01*
X707289Y1165354D01*
X709227D01*
X713745Y1153543D01*
X711956Y1151755D01*
X709259Y1145243D01*
Y1138195D01*
X711956Y1131683D01*
X716940Y1126700D01*
X723452Y1124003D01*
X730500D01*
X737011Y1126700D01*
X741995Y1131683D01*
X744692Y1138195D01*
Y1145243D01*
X741995Y1151755D01*
X737011Y1156738D01*
X731055Y1159206D01*
X730284Y1160527D01*
X730144Y1160917D01*
X727664Y1171246D01*
X732013Y1175596D01*
X735609Y1184278D01*
Y1193675D01*
X732013Y1202357D01*
X725368Y1209002D01*
X716686Y1212598D01*
D02*
G37*
G36*
X593684Y1118111D02*
X587419D01*
X581631Y1115713D01*
X577201Y1111283D01*
X574803Y1105495D01*
Y1099230D01*
X577201Y1093442D01*
X581631Y1089012D01*
X587419Y1086615D01*
X593684D01*
X599472Y1089012D01*
X603902Y1093442D01*
X606299Y1099230D01*
Y1105495D01*
X603902Y1111283D01*
X599472Y1115713D01*
X593684Y1118111D01*
D02*
G37*
G36*
X659439Y1105807D02*
X652391D01*
X645879Y1103110D01*
X640896Y1098126D01*
X638198Y1091615D01*
Y1084567D01*
X640896Y1078055D01*
X645879Y1073071D01*
X652391Y1070374D01*
X659439D01*
X665951Y1073071D01*
X670934Y1078055D01*
X673631Y1084567D01*
Y1091615D01*
X670934Y1098126D01*
X665951Y1103110D01*
X659439Y1105807D01*
D02*
G37*
G36*
X111464Y1089383D02*
X105199D01*
X99411Y1086985D01*
X94981Y1082555D01*
X92584Y1076767D01*
Y1070502D01*
X94981Y1064714D01*
X99411Y1060284D01*
X105199Y1057887D01*
X111464D01*
X117252Y1060284D01*
X121682Y1064714D01*
X124080Y1070502D01*
Y1076767D01*
X121682Y1082555D01*
X117252Y1086985D01*
X111464Y1089383D01*
D02*
G37*
G36*
X442974Y1029035D02*
X436709D01*
X430921Y1026638D01*
X426491Y1022208D01*
X424094Y1016420D01*
Y1010155D01*
X426491Y1004367D01*
X430921Y999937D01*
X436709Y997539D01*
X442974D01*
X448762Y999937D01*
X453192Y1004367D01*
X455590Y1010155D01*
Y1016420D01*
X453192Y1022208D01*
X448762Y1026638D01*
X442974Y1029035D01*
D02*
G37*
G36*
X529799Y1026081D02*
X523534D01*
X517746Y1023683D01*
X513317Y1019253D01*
X510919Y1013465D01*
Y1007200D01*
X513317Y1001412D01*
X517746Y996982D01*
X523534Y994585D01*
X529799D01*
X535587Y996982D01*
X540018Y1001412D01*
X542415Y1007200D01*
Y1013465D01*
X540018Y1019253D01*
X535587Y1023683D01*
X529799Y1026081D01*
D02*
G37*
G36*
X573995Y1012268D02*
X567730D01*
X561942Y1009870D01*
X557512Y1005440D01*
X555115Y999652D01*
Y993387D01*
X557512Y987599D01*
X561942Y983169D01*
X567730Y980772D01*
X573995D01*
X579783Y983169D01*
X584213Y987599D01*
X586611Y993387D01*
Y999652D01*
X584213Y1005440D01*
X579783Y1009870D01*
X573995Y1012268D01*
D02*
G37*
G36*
X334639Y985943D02*
X328374D01*
X322586Y983546D01*
X318156Y979116D01*
X315759Y973328D01*
Y967063D01*
X318156Y961275D01*
X322586Y956845D01*
X328374Y954447D01*
X334639D01*
X340427Y956845D01*
X344857Y961275D01*
X347255Y967063D01*
Y973328D01*
X344857Y979116D01*
X340427Y983546D01*
X334639Y985943D01*
D02*
G37*
G36*
X440354Y977724D02*
X433306D01*
X426794Y975026D01*
X421810Y970043D01*
X419113Y963531D01*
Y956483D01*
X421810Y949971D01*
X426794Y944988D01*
X433306Y942291D01*
X440354D01*
X446865Y944988D01*
X451849Y949971D01*
X454546Y956483D01*
Y963531D01*
X451849Y970043D01*
X446865Y975026D01*
X440354Y977724D01*
D02*
G37*
G36*
X626179Y953170D02*
X619914D01*
X614126Y950772D01*
X609696Y946342D01*
X607299Y940554D01*
Y934289D01*
X609696Y928501D01*
X614126Y924071D01*
X619914Y921674D01*
X626179D01*
X631967Y924071D01*
X636397Y928501D01*
X638795Y934289D01*
Y940554D01*
X636397Y946342D01*
X631967Y950772D01*
X626179Y953170D01*
D02*
G37*
G36*
X516836Y901856D02*
X510571D01*
X504783Y899459D01*
X500353Y895029D01*
X497956Y889241D01*
Y882976D01*
X498215Y882349D01*
X497392Y881209D01*
X488689Y874484D01*
X485864Y875654D01*
X479599D01*
X473811Y873257D01*
X469381Y868827D01*
X466145Y863188D01*
X459643Y864341D01*
X453378D01*
X445448Y870302D01*
X441018Y874732D01*
X435230Y877129D01*
X428965D01*
X423177Y874732D01*
X418747Y870302D01*
X416350Y864514D01*
Y858249D01*
X418747Y852461D01*
X423177Y848031D01*
X428965Y845633D01*
X435230D01*
X443160Y839673D01*
X447590Y835242D01*
X453378Y832845D01*
X459643D01*
X465431Y835242D01*
X469861Y839673D01*
X473097Y845312D01*
X479599Y844158D01*
X485864D01*
X491652Y846556D01*
X496082Y850986D01*
X497935Y855458D01*
X503445Y858453D01*
X510291Y860768D01*
X511808Y859743D01*
Y856804D01*
X514205Y851016D01*
X518635Y846586D01*
X524423Y844188D01*
X530688D01*
X536476Y846586D01*
X540906Y851016D01*
X543304Y856804D01*
Y863069D01*
X540906Y868857D01*
X536476Y873287D01*
X530688Y875684D01*
X529452Y882976D01*
Y889241D01*
X527054Y895029D01*
X522624Y899459D01*
X516836Y901856D01*
D02*
G37*
G36*
X148371Y910772D02*
X141323D01*
X134811Y908075D01*
X129827Y903091D01*
X127130Y896580D01*
Y889532D01*
X129827Y883020D01*
X134811Y878037D01*
X141323Y875339D01*
X141536D01*
X150098Y868732D01*
X151224Y864427D01*
Y860815D01*
X153921Y854303D01*
X158905Y849320D01*
X165416Y846622D01*
X172464D01*
X178976Y849320D01*
X183960Y854303D01*
X186657Y860815D01*
Y867863D01*
X183960Y874375D01*
X178976Y879358D01*
X172464Y882056D01*
X172250D01*
X163689Y888663D01*
X162563Y892967D01*
Y896580D01*
X159866Y903091D01*
X154882Y908075D01*
X148371Y910772D01*
D02*
G37*
G36*
X113761Y866832D02*
X106713D01*
X100201Y864135D01*
X95217Y859151D01*
X92520Y852640D01*
Y845592D01*
X95217Y839080D01*
X100201Y834096D01*
X106713Y831399D01*
X113761D01*
X120272Y834096D01*
X125256Y839080D01*
X127953Y845592D01*
Y852640D01*
X125256Y859151D01*
X120272Y864135D01*
X113761Y866832D01*
D02*
G37*
G36*
X375179Y871965D02*
X368914D01*
X363126Y869568D01*
X358696Y865138D01*
X356299Y859350D01*
Y853085D01*
X358696Y847297D01*
X363126Y842867D01*
X368914Y840469D01*
X375074Y839176D01*
X375074Y832912D01*
X375074Y832911D01*
X377471Y827123D01*
X381901Y822693D01*
X387689Y820295D01*
X393954D01*
X399742Y822693D01*
X404172Y827123D01*
X406570Y832911D01*
Y839176D01*
X404172Y844964D01*
X399742Y849394D01*
X393954Y851791D01*
X387795Y853085D01*
X387795Y859349D01*
X387795Y859350D01*
X385397Y865138D01*
X380967Y869568D01*
X375179Y871965D01*
D02*
G37*
G36*
X237482Y844160D02*
X230434D01*
X223922Y841462D01*
X218938Y836479D01*
X216241Y829967D01*
Y822919D01*
X218938Y816408D01*
X223922Y811424D01*
X230434Y808727D01*
X237482D01*
X243993Y811424D01*
X248977Y816408D01*
X251674Y822919D01*
Y829967D01*
X248977Y836479D01*
X243993Y841462D01*
X237482Y844160D01*
D02*
G37*
G36*
X656530Y822891D02*
X649482D01*
X642971Y820194D01*
X637987Y815210D01*
X635290Y808698D01*
Y801650D01*
X637987Y795139D01*
X642971Y790155D01*
X649482Y787458D01*
X656530D01*
X663042Y790155D01*
X668025Y795139D01*
X670723Y801650D01*
Y808698D01*
X668025Y815210D01*
X663042Y820194D01*
X656530Y822891D01*
D02*
G37*
G36*
X573106Y813642D02*
X566841D01*
X561053Y811245D01*
X556624Y806815D01*
X554226Y801027D01*
Y794762D01*
X556624Y788974D01*
X561053Y784544D01*
X566841Y782146D01*
X573106D01*
X578894Y784544D01*
X583324Y788974D01*
X585722Y794762D01*
Y801027D01*
X583324Y806815D01*
X578894Y811245D01*
X573106Y813642D01*
D02*
G37*
G36*
X405923Y804907D02*
X398875D01*
X392363Y802209D01*
X387380Y797226D01*
X384683Y790714D01*
Y783666D01*
X387380Y777154D01*
X392363Y772171D01*
X398875Y769474D01*
X405923D01*
X412435Y772171D01*
X417418Y777154D01*
X420115Y783666D01*
Y790714D01*
X417418Y797226D01*
X412435Y802209D01*
X405923Y804907D01*
D02*
G37*
G36*
X324368Y800927D02*
X317320D01*
X310809Y798230D01*
X305825Y793246D01*
X303128Y786735D01*
Y779687D01*
X305825Y773175D01*
X310809Y768191D01*
X317320Y765494D01*
X324368D01*
X330880Y768191D01*
X335864Y773175D01*
X338561Y779687D01*
Y786735D01*
X335864Y793246D01*
X330880Y798230D01*
X324368Y800927D01*
D02*
G37*
G36*
X458792Y771868D02*
X452527D01*
X446739Y769470D01*
X442309Y765040D01*
X439911Y759252D01*
Y752987D01*
X442309Y747199D01*
X446739Y742769D01*
X452527Y740372D01*
X458792D01*
X464580Y742769D01*
X469010Y747199D01*
X471408Y752987D01*
Y759252D01*
X469010Y765040D01*
X464580Y769470D01*
X458792Y771868D01*
D02*
G37*
G36*
X123212Y766822D02*
X116947D01*
X111159Y764424D01*
X106729Y759994D01*
X104331Y754206D01*
Y747941D01*
X106729Y742153D01*
X111159Y737723D01*
X116947Y735326D01*
X123212D01*
X129000Y737723D01*
X133430Y742153D01*
X135827Y747941D01*
Y754206D01*
X133430Y759994D01*
X129000Y764424D01*
X123212Y766822D01*
D02*
G37*
G36*
X344401Y756894D02*
X337353D01*
X330841Y754196D01*
X325857Y749213D01*
X323160Y742701D01*
Y735653D01*
X325857Y729141D01*
X330841Y724158D01*
X337353Y721461D01*
X344401D01*
X350912Y724158D01*
X355896Y729141D01*
X358593Y735653D01*
Y742701D01*
X355896Y749213D01*
X350912Y754196D01*
X344401Y756894D01*
D02*
G37*
G36*
X505652Y752330D02*
X498604D01*
X492093Y749633D01*
X487109Y744649D01*
X484412Y738137D01*
Y736585D01*
X479402Y729003D01*
X473509Y726548D01*
X471516D01*
X465728Y724150D01*
X461298Y719720D01*
X458900Y713932D01*
Y707667D01*
X461298Y701879D01*
X465728Y697449D01*
X471516Y695052D01*
X477781D01*
X483569Y697449D01*
X487999Y701879D01*
X490341Y707535D01*
X490396Y707667D01*
X497743Y715928D01*
X501308Y716897D01*
X505652D01*
X512164Y719594D01*
X517148Y724578D01*
X519845Y731089D01*
Y738137D01*
X517148Y744649D01*
X512164Y749633D01*
X505652Y752330D01*
D02*
G37*
G36*
X147596Y680450D02*
X141331D01*
X135543Y678053D01*
X131113Y673623D01*
X128716Y667835D01*
Y661570D01*
X131113Y655782D01*
X135543Y651352D01*
X141331Y648954D01*
X147596D01*
X153384Y651352D01*
X157814Y655782D01*
X160212Y661570D01*
Y667835D01*
X157814Y673623D01*
X153384Y678053D01*
X147596Y680450D01*
D02*
G37*
G36*
X322624Y694540D02*
X316359D01*
X310571Y692142D01*
X306141Y687712D01*
X303743Y681924D01*
Y675659D01*
X306141Y669871D01*
X310389Y665053D01*
X307494Y658881D01*
X305096Y653093D01*
Y646828D01*
X302827Y643432D01*
X301487D01*
X295699Y641034D01*
X291269Y636605D01*
X288872Y630817D01*
Y624552D01*
X291269Y618764D01*
X295699Y614333D01*
X301487Y611936D01*
X307752D01*
X313540Y614333D01*
X317970Y618764D01*
X320368Y624552D01*
Y630816D01*
X330784Y634758D01*
X333103Y630543D01*
X337533Y626114D01*
X343321Y623716D01*
X349586D01*
X355374Y626114D01*
X359804Y630544D01*
X362202Y636332D01*
Y642597D01*
X359804Y648385D01*
X355374Y652815D01*
X349586Y655212D01*
X343321D01*
X337264Y653305D01*
X334195Y658881D01*
X329947Y663700D01*
X332842Y669871D01*
X335239Y675659D01*
Y681924D01*
X332842Y687712D01*
X328412Y692142D01*
X322624Y694540D01*
D02*
G37*
G36*
X440450Y647173D02*
X434185D01*
X428397Y644775D01*
X423967Y640346D01*
X421569Y634558D01*
Y628293D01*
X423967Y622505D01*
X428397Y618074D01*
X434185Y615677D01*
X440450D01*
X446238Y618074D01*
X450668Y622505D01*
X453065Y628293D01*
Y634558D01*
X450668Y640346D01*
X446238Y644775D01*
X440450Y647173D01*
D02*
G37*
G36*
X615141Y636588D02*
X608876D01*
X603088Y634190D01*
X598658Y629760D01*
X596260Y623972D01*
Y617707D01*
X598658Y611919D01*
X603088Y607489D01*
X608876Y605092D01*
X615141D01*
X620929Y607489D01*
X625359Y611919D01*
X627756Y617707D01*
Y623972D01*
X625359Y629760D01*
X620929Y634190D01*
X615141Y636588D01*
D02*
G37*
G36*
X890455Y595189D02*
X884190D01*
X878402Y592792D01*
X873972Y588362D01*
X871574Y582574D01*
Y576309D01*
X873972Y570521D01*
X878402Y566091D01*
X884190Y563693D01*
X890455D01*
X896243Y566091D01*
X900673Y570521D01*
X903070Y576309D01*
Y582574D01*
X900673Y588362D01*
X896243Y592792D01*
X890455Y595189D01*
D02*
G37*
G36*
X446733Y555987D02*
X440468D01*
X434680Y553590D01*
X431088Y549997D01*
X430250Y549160D01*
X419832Y545333D01*
X417459Y545913D01*
X411194D01*
X405406Y543515D01*
X400976Y539085D01*
X398578Y533297D01*
Y527032D01*
X400976Y521244D01*
X405406Y516814D01*
X411194Y514417D01*
X417459D01*
X423247Y516814D01*
X426839Y520407D01*
X427677Y521244D01*
X438095Y525072D01*
X440469Y524491D01*
X446733D01*
X452521Y526889D01*
X456951Y531319D01*
X459349Y537107D01*
Y543372D01*
X456951Y549160D01*
X452521Y553590D01*
X446733Y555987D01*
D02*
G37*
G36*
X301004Y592743D02*
X294739D01*
X288951Y590346D01*
X284521Y585916D01*
X282124Y580128D01*
Y573863D01*
X284521Y568075D01*
X288951Y563645D01*
X294296Y559916D01*
X292279Y553862D01*
Y547597D01*
X294677Y541809D01*
X299107Y537379D01*
X304895Y534982D01*
X311160D01*
X316948Y537379D01*
X321378Y541809D01*
X323775Y547597D01*
Y553862D01*
X321378Y559650D01*
X316948Y564080D01*
X311603Y567809D01*
X313620Y573863D01*
Y580128D01*
X311222Y585916D01*
X306792Y590346D01*
X301004Y592743D01*
D02*
G37*
G36*
X800111Y553148D02*
X793846D01*
X788058Y550750D01*
X783628Y546320D01*
X781230Y540532D01*
Y534267D01*
X783628Y528479D01*
X788058Y524049D01*
X793846Y521652D01*
X800111D01*
X805899Y524049D01*
X810329Y528479D01*
X812726Y534267D01*
Y540532D01*
X810329Y546320D01*
X805899Y550750D01*
X800111Y553148D01*
D02*
G37*
G36*
X347876Y509797D02*
X341611D01*
X335823Y507399D01*
X331393Y502969D01*
X328996Y497181D01*
Y490916D01*
X331393Y485128D01*
X335823Y480698D01*
X341611Y478301D01*
X347876D01*
X353664Y480698D01*
X358094Y485128D01*
X360492Y490916D01*
Y497181D01*
X358094Y502969D01*
X353664Y507399D01*
X347876Y509797D01*
D02*
G37*
G36*
X775550Y508289D02*
X769285D01*
X763497Y505892D01*
X759067Y501462D01*
X756669Y495674D01*
Y489409D01*
X759067Y483621D01*
X763497Y479191D01*
X769285Y476793D01*
X775550D01*
X781338Y479191D01*
X785768Y483621D01*
X788165Y489409D01*
Y495674D01*
X785768Y501462D01*
X781338Y505892D01*
X775550Y508289D01*
D02*
G37*
G36*
X207339Y488022D02*
X201073D01*
X195286Y485624D01*
X190856Y481194D01*
X188458Y475406D01*
Y469141D01*
X190856Y463353D01*
X195286Y458923D01*
X201073Y456526D01*
X207339D01*
X213126Y458923D01*
X217556Y463353D01*
X219954Y469141D01*
Y475406D01*
X217556Y481194D01*
X213126Y485624D01*
X207339Y488022D01*
D02*
G37*
G36*
X553197Y424847D02*
X546932D01*
X541144Y422450D01*
X536713Y418020D01*
X534316Y412232D01*
Y405967D01*
X536713Y400179D01*
X541144Y395749D01*
X546932Y393351D01*
X553197D01*
X558985Y395749D01*
X563414Y400179D01*
X565812Y405967D01*
Y412232D01*
X563414Y418020D01*
X558985Y422450D01*
X553197Y424847D01*
D02*
G37*
G36*
X275655Y428927D02*
X269390D01*
X263602Y426529D01*
X259172Y422099D01*
X247894Y421931D01*
X241629D01*
X235841Y419534D01*
X231411Y415104D01*
X229013Y409316D01*
Y403051D01*
X231411Y397263D01*
X235841Y392833D01*
X241629Y390435D01*
X247894D01*
X253682Y392833D01*
X258112Y397263D01*
X269390Y397431D01*
X275655D01*
X281443Y399828D01*
X285873Y404258D01*
X288271Y410046D01*
Y416311D01*
X285873Y422099D01*
X281443Y426529D01*
X275655Y428927D01*
D02*
G37*
G36*
X280397Y369872D02*
X274132D01*
X268344Y367474D01*
X263914Y363044D01*
X261517Y357256D01*
Y350991D01*
X263914Y345203D01*
X268344Y340773D01*
X274132Y338376D01*
X280397D01*
X286185Y340773D01*
X290615Y345203D01*
X293012Y350991D01*
Y357256D01*
X290615Y363044D01*
X286185Y367474D01*
X280397Y369872D01*
D02*
G37*
G36*
X237090Y361684D02*
X230825D01*
X225037Y359287D01*
X220607Y354857D01*
X218209Y349069D01*
Y342804D01*
X220607Y337016D01*
X225037Y332586D01*
X230825Y330188D01*
X237090D01*
X242878Y332586D01*
X247308Y337016D01*
X249706Y342804D01*
Y349069D01*
X247308Y354857D01*
X242878Y359287D01*
X237090Y361684D01*
D02*
G37*
G36*
X1041241Y381697D02*
X1032627D01*
X1024668Y378400D01*
X1018577Y372309D01*
X1015280Y364351D01*
Y355736D01*
X1018577Y347778D01*
X1023100Y343255D01*
X1024195Y342159D01*
X1024890Y340054D01*
X1026509Y328140D01*
X1025399Y325459D01*
Y319195D01*
X1024422Y312693D01*
X1018634Y310296D01*
X1014204Y305866D01*
X1011807Y300078D01*
Y293813D01*
X1014204Y288025D01*
X1018634Y283595D01*
X1024422Y281197D01*
X1030687D01*
X1036475Y283595D01*
X1040905Y288025D01*
X1043303Y293813D01*
Y300077D01*
X1044280Y306579D01*
X1050068Y308976D01*
X1054497Y313406D01*
X1056895Y319195D01*
Y325459D01*
X1054497Y331248D01*
X1054345Y331400D01*
X1050988Y338112D01*
X1054245Y346731D01*
X1055291Y347778D01*
X1058587Y355736D01*
Y364351D01*
X1055291Y372309D01*
X1049200Y378400D01*
X1041241Y381697D01*
D02*
G37*
G36*
X201952Y307811D02*
X195687D01*
X189899Y305413D01*
X185469Y300983D01*
X183071Y295195D01*
Y288930D01*
X185469Y283142D01*
X189899Y278712D01*
X195687Y276315D01*
X201952D01*
X207740Y278712D01*
X212170Y283142D01*
X214567Y288930D01*
Y295195D01*
X212170Y300983D01*
X207740Y305413D01*
X201952Y307811D01*
D02*
G37*
G36*
X271776Y318357D02*
X270031Y318010D01*
X268252D01*
X266608Y317329D01*
X264863Y316982D01*
X263384Y315994D01*
X261740Y315313D01*
X260483Y314055D01*
X259003Y313067D01*
X258015Y311587D01*
X256757Y310329D01*
X256076Y308686D01*
X255087Y307206D01*
X254740Y305461D01*
X254060Y303818D01*
Y302039D01*
X253712Y300294D01*
Y280867D01*
X254350Y277661D01*
Y277052D01*
X254583Y276490D01*
X255087Y273954D01*
X256524Y271804D01*
X257047Y270540D01*
X258015Y269573D01*
X259003Y268094D01*
X259294Y267803D01*
X260773Y266815D01*
X262031Y265557D01*
X263674Y264876D01*
X265154Y263887D01*
X266899Y263540D01*
X268543Y262860D01*
X270322D01*
X272067Y262512D01*
X273812Y262860D01*
X275591D01*
X277234Y263540D01*
X278979Y263887D01*
X280459Y264876D01*
X282102Y265557D01*
X283360Y266815D01*
X284839Y267803D01*
X285828Y269283D01*
X287086Y270540D01*
X287767Y272184D01*
X288755Y273663D01*
X289102Y275409D01*
X289783Y277052D01*
Y278831D01*
X290130Y280576D01*
X289840Y282037D01*
Y300294D01*
X289493Y302039D01*
Y303818D01*
X288812Y305461D01*
X288465Y307206D01*
X287476Y308686D01*
X286795Y310329D01*
X285537Y311587D01*
X284549Y313067D01*
X283070Y314055D01*
X281812Y315313D01*
X280168Y315994D01*
X278689Y316982D01*
X276944Y317329D01*
X275300Y318010D01*
X273521D01*
X271776Y318357D01*
D02*
G37*
G36*
X612836Y255189D02*
X606571D01*
X600783Y252791D01*
X596352Y248361D01*
X593955Y242573D01*
Y236308D01*
X596352Y230520D01*
X600783Y226090D01*
X606571Y223693D01*
X612836D01*
X618624Y226090D01*
X623053Y230520D01*
X625451Y236308D01*
Y242573D01*
X623053Y248361D01*
X618624Y252791D01*
X612836Y255189D01*
D02*
G37*
G36*
X1011875Y258245D02*
X1005610D01*
X999822Y255848D01*
X995392Y251418D01*
X992995Y245630D01*
Y244468D01*
X989547Y237564D01*
X982484Y233875D01*
X981440D01*
X975652Y231478D01*
X971222Y227048D01*
X968825Y221260D01*
Y214995D01*
X971222Y209207D01*
X975652Y204777D01*
X981440Y202379D01*
X987705D01*
X993493Y204777D01*
X997923Y209207D01*
X1000321Y214995D01*
Y216156D01*
X1003768Y223060D01*
X1010831Y226749D01*
X1011875D01*
X1017663Y229147D01*
X1022093Y233577D01*
X1024491Y239365D01*
Y245630D01*
X1022093Y251418D01*
X1017663Y255848D01*
X1011875Y258245D01*
D02*
G37*
G36*
X281164Y220474D02*
X274899D01*
X269111Y218076D01*
X264682Y213646D01*
X262284Y207858D01*
Y201593D01*
X264682Y195805D01*
X269111Y191375D01*
X274899Y188978D01*
X281164D01*
X286952Y191375D01*
X291382Y195805D01*
X293780Y201593D01*
Y207858D01*
X291382Y213646D01*
X286952Y218076D01*
X281164Y220474D01*
D02*
G37*
G36*
X743445Y183276D02*
X737180D01*
X731392Y180878D01*
X726962Y176448D01*
X724564Y170660D01*
Y164395D01*
X726962Y158607D01*
X731392Y154177D01*
X737180Y151780D01*
X743445D01*
X749233Y154177D01*
X753663Y158607D01*
X756061Y164395D01*
Y170660D01*
X753663Y176448D01*
X749233Y180878D01*
X743445Y183276D01*
D02*
G37*
G36*
X831314Y163387D02*
X825049D01*
X819261Y160990D01*
X814831Y156560D01*
X812434Y150772D01*
Y144507D01*
X814831Y138719D01*
X819261Y134289D01*
X825049Y131891D01*
X831314D01*
X837102Y134289D01*
X841532Y138719D01*
X843930Y144507D01*
Y150772D01*
X841532Y156560D01*
X837102Y160990D01*
X831314Y163387D01*
D02*
G37*
G36*
X787471Y159131D02*
X781206D01*
X775418Y156734D01*
X770988Y152304D01*
X768591Y146516D01*
Y140251D01*
X770988Y134463D01*
X775418Y130033D01*
X781206Y127635D01*
X787471D01*
X793259Y130033D01*
X797689Y134463D01*
X800087Y140251D01*
Y146516D01*
X797689Y152304D01*
X793259Y156734D01*
X787471Y159131D01*
D02*
G37*
G36*
X639331Y164384D02*
X633066D01*
X627278Y161987D01*
X622848Y157556D01*
X620450Y151768D01*
Y145504D01*
X622848Y139715D01*
X627278Y135286D01*
X633066Y132888D01*
X638384D01*
X639331Y132888D01*
X639332Y132889D01*
X645119Y135285D01*
X648384Y137261D01*
X648384D01*
Y137260D01*
X658583Y133780D01*
X658862Y133597D01*
Y130427D01*
X661259Y124639D01*
X665689Y120209D01*
X671477Y117812D01*
X677742D01*
X683530Y120209D01*
X687960Y124639D01*
X690358Y130427D01*
Y136692D01*
X687960Y142480D01*
X683530Y146910D01*
X677742Y149308D01*
X672424D01*
X671477Y149308D01*
X671476Y149307D01*
X665689Y146910D01*
X662424Y144935D01*
X662423D01*
Y144935D01*
X652225Y148416D01*
X651946Y148599D01*
Y151768D01*
X649549Y157556D01*
X645119Y161987D01*
X639331Y164384D01*
D02*
G37*
G36*
X440365Y130193D02*
X434100D01*
X428312Y127796D01*
X423882Y123365D01*
X421484Y117578D01*
Y111312D01*
X423882Y105525D01*
X428312Y101094D01*
X434100Y98697D01*
X440365D01*
X446153Y101094D01*
X450583Y105525D01*
X452980Y111312D01*
Y117578D01*
X450583Y123365D01*
X446153Y127796D01*
X440365Y130193D01*
D02*
G37*
G36*
X280711Y146396D02*
X273799Y145021D01*
X267938Y141105D01*
X264023Y135245D01*
X262648Y128332D01*
Y122244D01*
X264023Y115332D01*
X267938Y109472D01*
X297142Y80268D01*
X303002Y76352D01*
X309915Y74977D01*
X316828Y76352D01*
X322688Y80268D01*
X326604Y86128D01*
X327979Y93041D01*
X326604Y99953D01*
X322688Y105814D01*
X298429Y130073D01*
X297400Y135245D01*
X293484Y141105D01*
X287624Y145021D01*
X280711Y146396D01*
D02*
G37*
G36*
X965437Y149308D02*
X959172D01*
X953384Y146910D01*
X948954Y142480D01*
X946556Y136692D01*
Y130427D01*
X948954Y124639D01*
X953384Y120209D01*
X959172Y117812D01*
X965437D01*
X965462Y117822D01*
X966177Y117639D01*
X976374Y109926D01*
Y108774D01*
X978771Y102986D01*
X983201Y98556D01*
X988989Y96158D01*
X995254D01*
X1001042Y98556D01*
X1010760Y94619D01*
X1016548Y92221D01*
X1022813Y92221D01*
X1029494Y91082D01*
X1030340Y90910D01*
X1035738Y88550D01*
X1041207Y83576D01*
X1046995Y81179D01*
X1047855Y74442D01*
Y68177D01*
X1050253Y62389D01*
X1054682Y57959D01*
X1060470Y55562D01*
X1066736D01*
X1072524Y57959D01*
X1076954Y62389D01*
X1078474Y66059D01*
X1080515Y68615D01*
X1091162Y72615D01*
X1091351Y72536D01*
X1097616D01*
X1103404Y74934D01*
X1107834Y79364D01*
X1110232Y85152D01*
Y91417D01*
X1107834Y97205D01*
X1103404Y101635D01*
X1097616Y104032D01*
X1091351D01*
X1085563Y101635D01*
X1081133Y97205D01*
X1069261Y96868D01*
X1068316Y97172D01*
X1065875Y99202D01*
Y100060D01*
X1063478Y105848D01*
X1059048Y110278D01*
X1053260Y112675D01*
X1046995D01*
X1046648Y112531D01*
X1040714Y111775D01*
X1033425Y116628D01*
X1032710Y117211D01*
X1032073Y117848D01*
X1028601Y121320D01*
X1022813Y123717D01*
X1016548D01*
X1010760Y121320D01*
X1001042Y125257D01*
X995254Y127654D01*
X988989D01*
X988964Y127644D01*
X988249Y127826D01*
X978052Y135539D01*
Y136692D01*
X975655Y142480D01*
X971225Y146910D01*
X965437Y149308D01*
D02*
G37*
G36*
X459759Y82972D02*
X453494D01*
X447706Y80575D01*
X443276Y76145D01*
X440878Y70357D01*
Y64092D01*
X443276Y58304D01*
X447706Y53874D01*
X453494Y51476D01*
X459759D01*
X465547Y53874D01*
X469977Y58304D01*
X472374Y64092D01*
Y70357D01*
X469977Y76145D01*
X465547Y80575D01*
X459759Y82972D01*
D02*
G37*
%LPD*%
D11*
X39369Y49112D02*
X62037Y26444D01*
X94489D01*
D45*
X280711Y122244D02*
Y128332D01*
Y122244D02*
X309915Y93041D01*
X271776Y280867D02*
Y300294D01*
Y280867D02*
X272067Y280576D01*
D48*
X1248801Y1232759D02*
X1280287D01*
Y1217016D01*
X1275039Y1211768D01*
X1264544D01*
X1259296Y1217016D01*
Y1232759D01*
X1248801Y1180283D02*
Y1201273D01*
X1269791Y1180283D01*
X1275039D01*
X1280287Y1185530D01*
Y1196025D01*
X1275039Y1201273D01*
D50*
X39369Y49999D02*
D03*
D52*
X1248205Y139780D02*
D03*
X623906Y579844D02*
D03*
X342387Y142477D02*
D03*
X168940Y864339D02*
D03*
X422294Y806270D02*
D03*
X486807Y764996D02*
D03*
X402399Y787190D02*
D03*
X295585Y1038552D02*
D03*
X346766Y1039580D02*
D03*
X590774Y1225211D02*
D03*
X588038Y1161032D02*
D03*
X505183Y396347D02*
D03*
X590774Y282698D02*
D03*
X505183Y360043D02*
D03*
X228812Y792402D02*
D03*
X233958Y826443D02*
D03*
X520630Y803278D02*
D03*
X110237Y849116D02*
D03*
X436830Y960007D02*
D03*
X320844Y783211D02*
D03*
X319247Y722099D02*
D03*
X340877Y739177D02*
D03*
X533585Y757103D02*
D03*
X564482Y707426D02*
D03*
X711137Y538681D02*
D03*
X654193Y475029D02*
D03*
X677191Y496414D02*
D03*
X144847Y893056D02*
D03*
X502128Y734613D02*
D03*
X311440Y600982D02*
D03*
X491337Y669349D02*
D03*
X532837Y639725D02*
D03*
X125020Y160228D02*
D03*
X727882Y1056301D02*
D03*
X1150081Y111906D02*
D03*
X1079725Y338745D02*
D03*
X1104595Y393802D02*
D03*
X1150081Y439723D02*
D03*
X1310518Y857857D02*
D03*
Y965068D02*
D03*
Y1179489D02*
D03*
X1113427Y696651D02*
D03*
Y726971D02*
D03*
Y763179D02*
D03*
Y792402D02*
D03*
Y827133D02*
D03*
Y865781D02*
D03*
Y902949D02*
D03*
X1113061Y940361D02*
D03*
X691096Y857937D02*
D03*
X690383Y899806D02*
D03*
X655915Y772927D02*
D03*
X736905Y628957D02*
D03*
X736725Y660536D02*
D03*
X736905Y691295D02*
D03*
Y722337D02*
D03*
Y756658D02*
D03*
Y792165D02*
D03*
Y829127D02*
D03*
Y862318D02*
D03*
Y900095D02*
D03*
Y935801D02*
D03*
X967007Y1039580D02*
D03*
X922768Y1040397D02*
D03*
X887104Y1040261D02*
D03*
X850352Y1039172D02*
D03*
X247813Y64700D02*
D03*
X356421Y61306D02*
D03*
X854712Y120329D02*
D03*
X571430Y451226D02*
D03*
X630791Y444163D02*
D03*
X819821Y565207D02*
D03*
X791723Y565054D02*
D03*
X764173Y565162D02*
D03*
X738340Y572273D02*
D03*
X736544Y983275D02*
D03*
X1020770Y470576D02*
D03*
X1022539Y522878D02*
D03*
Y556882D02*
D03*
X1044210Y579442D02*
D03*
X1065350Y598787D02*
D03*
X1085521Y620440D02*
D03*
X1107018Y642094D02*
D03*
X1113427Y667968D02*
D03*
X1139276Y968273D02*
D03*
X621601Y1016653D02*
D03*
X690945Y1012400D02*
D03*
X824521Y536451D02*
D03*
X690383Y1230006D02*
D03*
X726976Y1141719D02*
D03*
X655915Y1088091D02*
D03*
X773881Y1080763D02*
D03*
X660752Y836318D02*
D03*
X653006Y805174D02*
D03*
X502128Y993241D02*
D03*
X899390Y980402D02*
D03*
X873668Y700665D02*
D03*
X189392Y248746D02*
D03*
X183071Y166789D02*
D03*
X660439Y936581D02*
D03*
X1215289Y1144489D02*
D03*
Y1087478D02*
D03*
Y1171718D02*
D03*
Y1201500D02*
D03*
Y1230006D02*
D03*
Y1115983D02*
D03*
X1020009Y436406D02*
D03*
X1001425Y496812D02*
D03*
X875523Y824296D02*
D03*
X712073Y134522D02*
D03*
X396712Y67224D02*
D03*
X887322Y130951D02*
D03*
X526667Y429264D02*
D03*
X742280Y538681D02*
D03*
X271776Y300294D02*
D03*
X272067Y280576D02*
D03*
X564682Y668000D02*
D03*
X186314Y655561D02*
D03*
X78062Y394400D02*
D03*
X1276942Y298904D02*
D03*
X1267717Y393802D02*
D03*
X78062Y103623D02*
D03*
X61209Y501917D02*
D03*
X67701Y701365D02*
D03*
X64606Y798809D02*
D03*
X64963Y901936D02*
D03*
X1310518Y1125883D02*
D03*
Y1233094D02*
D03*
Y1072278D02*
D03*
Y1018673D02*
D03*
Y911463D02*
D03*
Y804252D02*
D03*
X1090643Y1097539D02*
D03*
X1090860Y1130845D02*
D03*
Y1163995D02*
D03*
X1090643Y1197223D02*
D03*
Y1230451D02*
D03*
X968151Y1097539D02*
D03*
X967894Y1130845D02*
D03*
X966919Y1163995D02*
D03*
X968888Y1197223D02*
D03*
X968151Y1230451D02*
D03*
X736905Y600982D02*
D03*
X121683Y562898D02*
D03*
X1181103Y905873D02*
D03*
Y862488D02*
D03*
X166657Y911765D02*
D03*
X197060Y62303D02*
D03*
X715109Y967813D02*
D03*
X119514Y1012572D02*
D03*
X121683Y487643D02*
D03*
Y314876D02*
D03*
X120851Y242497D02*
D03*
X168940Y620440D02*
D03*
X236489Y129667D02*
D03*
X202096Y127412D02*
D03*
X502087Y705936D02*
D03*
X690383Y934490D02*
D03*
X738345Y1015153D02*
D03*
X843930Y1197223D02*
D03*
Y1163995D02*
D03*
X1181103Y635204D02*
D03*
Y667036D02*
D03*
X1050127Y23853D02*
D03*
X1138266Y1006779D02*
D03*
X1150081Y225335D02*
D03*
X843930Y1130767D02*
D03*
X1146477Y62719D02*
D03*
X120851Y107143D02*
D03*
X843930Y1230451D02*
D03*
X1220473Y33231D02*
D03*
X120851Y29287D02*
D03*
X301488Y26444D02*
D03*
X342865D02*
D03*
X704166Y691354D02*
D03*
X657003Y744378D02*
D03*
X843930Y1097539D02*
D03*
D53*
X239371Y1214843D02*
D03*
D55*
X785584Y243104D02*
D03*
X832828Y290348D02*
D03*
X691096Y384836D02*
D03*
Y290348D02*
D03*
Y337592D02*
D03*
X785584Y290348D02*
D03*
X832828Y243104D02*
D03*
X738340D02*
D03*
X691096D02*
D03*
X738340Y384836D02*
D03*
Y337592D02*
D03*
Y290348D02*
D03*
X785584Y337592D02*
D03*
Y384836D02*
D03*
X832828D02*
D03*
Y337592D02*
D03*
%TF.MD5,8006c43dd0b1f8d7755e80800db469a3*%
M02*
