M48
;Layer_Color=9474304
;FILE_FORMAT=2:5
INCH,LZ
;TYPE=PLATED
T1F00S00C0.01181
T2F00S00C0.02756
T3F00S00C0.03500
%
T01
X0055Y0015748
X0059842Y0029528
X0066695Y0033379
X0070841Y0036307
X007323Y0038972
X0077114Y0033315
X0082676Y0033351
X0087533Y0033379
X0085243Y0026498
X0089761Y0022162
X0094529Y002
X01035Y00205
X01145
X0114567Y0029921
X0110487Y003502
X01155Y004
Y00495
X0102362Y0049606
Y0040157
X0095669Y0029921
X0094529Y001
X0102362Y0009449
X0113386
X0122047Y0009843
X0077627Y0009055
X0081628Y0003386
X0078909Y0023353
X0086002Y0043188
X0082279Y0051396
X0080433Y00551
X0083071Y0059055
X0067398Y0054508
X0067246Y0045059
X0063779Y0042126
X0059957Y0043681
X00545Y0053626
X00515Y0051126
X0045Y0050626
X00415Y0054126
X0035
X0031496Y0050863
X0032514Y0045828
X0028495
X0034382Y0043525
X0033331Y0036454
X0041992
X0040844Y0031702
X00401Y00287
X0039764Y002241
X0031455Y0021907
X0031909Y0025456
X0027522Y0033593
X00202Y0037655
X0022835Y0042077
X0028022Y0057087
X0004724Y005
X0012919Y0023223
X00105Y002
X0021557
X0003937Y0009449
X0004724Y0059842
X0003937Y0068898
X0015354Y0063083
X0017959Y0060478
X00315Y0060126
X0034Y0062626
X0041339Y0064173
X00415Y0070626
X0045Y0074126
X0051Y0072126
X0051575Y006063
X0045Y0060626
X0035039Y007126
X0031496Y0074016
X0030709Y0077559
X0026947Y0075073
X0027165Y0070866
X0028022Y0067827
X0027165Y0081102
X0035827Y0080709
X0041Y0080626
X0046063Y0081102
X0046847Y009203
X0040087
X0037674Y00887
X0033858Y0088763
X0034Y0093307
Y0098032
Y0102292
X0039562Y0103987
X0039622Y0109449
Y0098438
X0024016Y0098032
Y0093307
Y0088976
X0019883Y0088429
X0017059Y0080116
X00108Y00806
X0015748Y007441
X0023716Y0104306
X0024039Y0109744
X0027076Y0115714
X0032515Y0119
X0039224Y0120288
X0013851Y011752
X0003937Y0109449
X0003705Y0101108
X0054787Y009203
X0062731
X0070841
X0070866Y0085433
X0082558Y0082565
X008189Y0077953
X0080315Y0075197
X0083071Y0073415
X0080315Y0068897
X0080034Y0065689
X0067642Y0064286
X0067779Y0068095
X006811Y0073622
X00601Y0075626
X006Y0069126
X0054724Y0063779
X0055512Y0079921
X0079037Y009203
X0085564
Y0099207
Y0107124
Y0115041
Y0122958
X00918Y0121555
X0096042Y01133
X0092443Y0108255
X0098297Y01008
X0094529Y0096118
X0091567Y0093307
X010422Y0094619
X0106795Y0090143
X0108167Y0087
X0111522Y0079741
X01058Y0077
X0099606Y0079921
X0102362Y0068504
Y0059842
X0116142Y0060236
X0113779Y0068898
X0122835Y0069685
X0121966Y007943
X0121057Y0113
X0120342Y0121949
X010877
X0108719Y01135
T02
X0064447Y0007087
X0065Y00202
X006Y00194
X0055Y00202
X007Y00194
X0075Y00202
T03
X0097592Y0005
X0098392Y0015
X0097592Y0025
X0098392Y0035
X0097592Y0045
X0098392Y0055
X0117592
X0118392Y0045
X0117592Y0035
X0118392Y0025
X0117592Y0015
X0118392Y0005
X0007592Y0005
X0008392Y0015
X0007592Y0025
X0008392Y0035
X0007592Y0045
X0008392Y0055
X0007592Y0065
X0007992Y0075
X0007592Y0085
X0008392Y0095
X0007592Y0105
X0008392Y0115
X0098392Y0075
X0097592Y0065
X0118392
X0117592Y0075
M30
